<svg width="120" height="146" viewBox="0 0 120 146" fill="none" xmlns="http://www.w3.org/2000/svg">
<g clip-path="url(#clip0_382_696)">
<path d="M100.22 19.5756H17.3699C16.1107 19.5756 15.0898 20.6051 15.0898 21.875V140.35C15.0898 141.62 16.1107 142.65 17.3699 142.65H100.22C101.48 142.65 102.5 141.62 102.5 140.35V21.875C102.5 20.6051 101.48 19.5756 100.22 19.5756Z" fill="#46194F"/>
<path d="M95.5929 138.041H21.9057C19.9118 138.041 18.29 136.405 18.29 134.395V27.2532C18.29 25.2424 19.9118 23.6068 21.9057 23.6068H95.5929C97.5868 23.6068 99.2086 25.2424 99.2086 27.2532V134.395C99.2086 136.405 97.5868 138.041 95.5929 138.041ZM21.9057 24.2995C20.2887 24.2995 18.9769 25.6273 18.9769 27.2532V134.395C18.9769 136.025 20.2934 137.348 21.9057 137.348H95.5929C97.2099 137.348 98.5217 136.021 98.5217 134.395V27.2532C98.5217 25.6224 97.2052 24.2995 95.5929 24.2995H21.9057Z" fill="white"/>
<path opacity="0.63" d="M93.5808 57.0308H24.6732C24.3624 57.0308 24.1104 57.2849 24.1104 57.5984V59.2388C24.1104 59.5523 24.3624 59.8065 24.6732 59.8065H93.5808C93.8917 59.8065 94.1437 59.5523 94.1437 59.2388V57.5984C94.1437 57.2849 93.8917 57.0308 93.5808 57.0308Z" fill="white"/>
<path opacity="0.63" d="M93.5808 68.8696H24.6732C24.3624 68.8696 24.1104 69.1238 24.1104 69.4373V71.0777C24.1104 71.3912 24.3624 71.6453 24.6732 71.6453H93.5808C93.8917 71.6453 94.1437 71.3912 94.1437 71.0777V69.4373C94.1437 69.1238 93.8917 68.8696 93.5808 68.8696Z" fill="white"/>
<path opacity="0.63" d="M93.5808 80.7759H24.6732C24.3624 80.7759 24.1104 81.03 24.1104 81.3435V82.9839C24.1104 83.2974 24.3624 83.5516 24.6732 83.5516H93.5808C93.8917 83.5516 94.1437 83.2974 94.1437 82.9839V81.3435C94.1437 81.03 93.8917 80.7759 93.5808 80.7759Z" fill="white"/>
<path opacity="0.63" d="M93.5808 93.0765H24.6732C24.3624 93.0765 24.1104 93.3307 24.1104 93.6442V95.2846C24.1104 95.5981 24.3624 95.8522 24.6732 95.8522H93.5808C93.8917 95.8522 94.1437 95.5981 94.1437 95.2846V93.6442C94.1437 93.3307 93.8917 93.0765 93.5808 93.0765Z" fill="white"/>
<path opacity="0.63" d="M93.2517 105.574H24.3441C24.0333 105.574 23.7812 105.828 23.7812 106.142V107.782C23.7812 108.096 24.0333 108.35 24.3441 108.35H93.2517C93.5626 108.35 93.8146 108.096 93.8146 107.782V106.142C93.8146 105.828 93.5626 105.574 93.2517 105.574Z" fill="white"/>
<path opacity="0.63" d="M93.1892 118.866H24.2816C23.9708 118.866 23.7188 119.12 23.7188 119.434V121.074C23.7188 121.388 23.9708 121.642 24.2816 121.642H93.1892C93.5001 121.642 93.7521 121.388 93.7521 121.074V119.434C93.7521 119.12 93.5001 118.866 93.1892 118.866Z" fill="white"/>
<path opacity="0.63" d="M88.0283 40.0061H29.5098C28.5745 40.0061 27.8164 40.7707 27.8164 41.7139V46.688C27.8164 47.6312 28.5745 48.3958 29.5098 48.3958H88.0283C88.9635 48.3958 89.7216 47.6312 89.7216 46.688V41.7139C89.7216 40.7707 88.9635 40.0061 88.0283 40.0061Z" fill="white"/>
<path d="M39.8694 22.2839C45.8626 22.2839 50.7211 17.3841 50.7211 11.3398C50.7211 5.29558 45.8626 0.395752 39.8694 0.395752C33.8761 0.395752 29.0176 5.29558 29.0176 11.3398C29.0176 17.3841 33.8761 22.2839 39.8694 22.2839Z" fill="white"/>
<path d="M39.8697 21.0621C45.1938 21.0621 49.5099 16.7093 49.5099 11.3399C49.5099 5.97045 45.1938 1.61768 39.8697 1.61768C34.5456 1.61768 30.2295 5.97045 30.2295 11.3399C30.2295 16.7093 34.5456 21.0621 39.8697 21.0621Z" fill="#46194F"/>
<path d="M45.2924 8.72291H42.4638V5.87024C42.4638 5.36032 42.0535 4.95142 41.5527 4.95142H38.1898C37.6842 4.95142 37.2788 5.36513 37.2788 5.87024V8.72291H34.4501C33.9445 8.72291 33.5391 9.13662 33.5391 9.64174V13.0332C33.5391 13.5431 33.9493 13.952 34.4501 13.952H37.2788V16.8047C37.2788 17.3146 37.689 17.7235 38.1898 17.7235H41.5527C42.0583 17.7235 42.4638 17.3098 42.4638 16.8047V13.952H45.2924C45.798 13.952 46.2035 13.5383 46.2035 13.0332V9.64174C46.2035 9.13181 45.7932 8.72291 45.2924 8.72291Z" fill="#C6AECC"/>
<path d="M24.9636 27.2313C29.3564 21.0841 27.9763 12.5095 21.881 8.07924C15.7857 3.64903 7.28334 5.04089 2.89048 11.1881C-1.50237 17.3352 -0.122243 25.9099 5.97308 30.3401C12.0684 34.7703 20.5707 33.3784 24.9636 27.2313Z" fill="white"/>
<path d="M18.5518 30.4671C24.7168 27.8918 27.6444 20.7638 25.0908 14.5464C22.5372 8.32894 15.4693 5.37644 9.30433 7.95179C3.13932 10.5271 0.211726 17.6551 2.76535 23.8725C5.31898 30.09 12.3868 33.0425 18.5518 30.4671Z" fill="#46194F"/>
<path d="M7.6863 20.0615H7.32378C6.789 20.0615 6.35547 20.4987 6.35547 21.0381V23.53C6.35547 24.0693 6.789 24.5065 7.32378 24.5065H7.6863C8.22109 24.5065 8.65462 24.0693 8.65462 23.53V21.0381C8.65462 20.4987 8.22109 20.0615 7.6863 20.0615Z" fill="#C6AECC"/>
<path d="M21.686 21.0381C21.686 20.0471 19.9068 20.0615 20.7272 20.0615H20.2931C19.7589 20.0615 19.3916 20.4993 19.3916 21.0381V23.5252C19.3916 24.0639 19.7589 24.5065 20.2931 24.5065H20.7272C21.2614 24.5065 21.686 24.0639 21.686 23.5252V21.0381Z" fill="#C6AECC"/>
<path d="M7.39952 16.2226C7.3709 16.2178 7.31366 16.1889 7.31366 16.16V15.958C7.31366 15.7656 7.24211 15.5876 7.07039 15.501C6.85097 15.3904 6.6077 15.3855 6.38351 15.4914L5.9399 15.6838C5.74432 15.7752 5.58691 15.9724 5.58691 16.1937V16.3477C5.58691 16.6267 5.83495 16.8672 6.11162 16.9057L7.82405 17.1366L8.02439 16.3573L7.39952 16.2178V16.2226Z" fill="#C6AECC"/>
<path d="M20.6514 16.2226C20.68 16.2178 20.7277 16.1889 20.7277 16.16V15.958C20.7277 15.7656 20.8088 15.5876 20.9805 15.501C21.1999 15.3904 21.4479 15.3855 21.6721 15.4914L22.111 15.6838C22.3065 15.7752 22.4592 15.9724 22.4592 16.1937V16.3477C22.4592 16.6267 22.2207 16.8672 21.944 16.9057L20.2364 17.1366L20.0312 16.3573L20.6561 16.2178L20.6514 16.2226Z" fill="#C6AECC"/>
<path d="M21.8625 17.94C21.6192 17.1078 20.3504 16.3621 20.3504 16.3621C20.3504 16.3621 19.2866 13.1053 18.1466 13.1053H9.90403C8.75922 13.1053 7.70028 16.3621 7.70028 16.3621C7.70028 16.3621 6.43623 17.1222 6.18819 17.9544C6.00692 18.5654 6.39807 20.9514 6.61749 22.1637C6.69381 22.5918 7.09449 22.9622 7.56195 22.9622H20.4887C20.9561 22.9622 21.3521 22.587 21.4332 22.1589C21.6526 20.9466 22.0437 18.5509 21.8625 17.9448V17.94Z" fill="#C6AECC"/>
<path d="M21.6146 21.4998C21.5431 21.418 21.4381 21.4132 21.3236 21.4132H6.74646C6.63198 21.4132 6.52704 21.4132 6.45549 21.495C6.38394 21.5768 6.36009 21.6585 6.38394 21.7596L6.62244 22.8035C6.6606 22.9574 6.81325 23.145 6.98497 23.145H21.0756C21.2473 23.145 21.3952 22.9478 21.4381 22.7938L21.6909 21.8029C21.7195 21.7018 21.6909 21.572 21.6194 21.4902L21.6146 21.4998Z" fill="#C6AECC"/>
<path d="M10.0377 19.9412C10.0377 19.9412 9.67044 18.83 9.20775 18.7338C8.74506 18.6375 6.78458 18.2238 6.74642 18.5702C6.70349 18.9118 6.31235 20.0952 7.481 20.2058C8.64966 20.3164 10.2285 20.4078 10.0377 19.946V19.9412Z" fill="#46194F"/>
<path d="M18.0129 19.9412C18.0129 19.9412 18.3801 18.83 18.8428 18.7338C19.3055 18.6375 21.266 18.2238 21.3042 18.5702C21.3471 18.9118 21.7382 20.0952 20.5696 20.2058C19.4009 20.3164 17.8221 20.4078 18.0129 19.946V19.9412Z" fill="#46194F"/>
<path d="M17.7456 18.9935C17.7075 18.9358 17.6407 18.9021 17.5739 18.9021H10.4714C10.3998 18.9021 10.333 18.9406 10.2949 19.0031C10.2567 19.0657 10.2567 19.1426 10.2901 19.2052L10.6908 19.9797C10.8387 20.2635 11.1296 20.4511 11.4444 20.4511H16.6628C17.0015 20.4511 17.3068 20.2394 17.4451 19.9268L17.7647 19.2004C17.7933 19.1378 17.7886 19.056 17.7504 18.9983L17.7456 18.9935Z" fill="#46194F"/>
<path d="M19.6827 16.6315C19.635 16.7037 19.5586 16.7759 19.4728 16.7759H8.57329C8.48743 16.7759 8.40634 16.7037 8.36341 16.6315C8.32048 16.5594 8.31094 16.4535 8.3491 16.3766C8.59714 15.8522 9.05983 14.8709 9.32218 14.3273C9.33172 14.3032 9.34603 14.2551 9.36034 14.2311C9.48436 14.029 9.70856 13.8799 9.94706 13.8799H18.1896C18.4329 13.8799 18.6523 14.029 18.7811 14.2311C18.8002 14.2599 18.8145 14.2984 18.8288 14.3321L19.7065 16.3814C19.7399 16.4584 19.7351 16.569 19.6874 16.6412L19.6827 16.6315Z" fill="#46194F"/>
<path d="M12.8383 58.7674C18.8737 58.7674 23.7664 53.8332 23.7664 47.7464C23.7664 41.6596 18.8737 36.7253 12.8383 36.7253C6.80284 36.7253 1.91016 41.6596 1.91016 47.7464C1.91016 53.8332 6.80284 58.7674 12.8383 58.7674Z" fill="white"/>
<path d="M12.8378 57.536C18.1989 57.536 22.5448 53.1531 22.5448 47.7465C22.5448 42.3398 18.1989 37.9569 12.8378 37.9569C7.47682 37.9569 3.13086 42.3398 3.13086 47.7465C3.13086 53.1531 7.47682 57.536 12.8378 57.536Z" fill="#46194F"/>
<path d="M18.5674 45.8799L12.8386 41.4446L7.10979 45.8799C6.83313 46.0964 6.981 46.5438 7.33398 46.5438H8.14489C8.13535 46.5919 8.13058 46.64 8.13058 46.6881V53.3123C8.13058 53.7164 8.45494 54.0435 8.85562 54.0435H16.8215C17.2222 54.0435 17.5466 53.7164 17.5466 53.3123V46.6881C17.5466 46.64 17.5418 46.5871 17.5323 46.5438H18.3432C18.6914 46.5438 18.844 46.0964 18.5674 45.8799ZM14.7037 51.4698H10.9783V47.7128H14.7037V51.4698Z" fill="#C6AECC"/>
<path d="M119.276 123.576C119.276 116.802 113.833 111.314 107.117 111.314C100.401 111.314 94.9585 116.802 94.9585 123.576C94.9585 126.481 95.9603 129.146 97.6345 131.249C95.5262 131.398 93.5848 131.72 91.9391 132.177C88.643 133.091 86.5156 134.544 86.5156 136.175V140.047C86.5156 140.105 86.5156 140.167 86.5252 140.225C86.5252 140.24 86.5252 140.254 86.5252 140.269C86.5299 140.326 86.5395 140.384 86.5538 140.442C86.5538 140.446 86.5538 140.456 86.5586 140.461C86.5681 140.514 86.5872 140.567 86.6015 140.62C86.6015 140.634 86.611 140.644 86.611 140.658C86.6301 140.716 86.6492 140.774 86.673 140.827C86.673 140.836 86.6826 140.846 86.6873 140.855C86.7112 140.908 86.735 140.956 86.7589 141.005C86.7637 141.014 86.7684 141.024 86.7732 141.033C86.8018 141.091 86.8352 141.144 86.8734 141.202C86.8829 141.211 86.8877 141.226 86.8972 141.235C86.9306 141.288 86.9688 141.336 87.0069 141.389C87.0069 141.394 87.0165 141.399 87.0212 141.409C87.0642 141.462 87.1071 141.519 87.1548 141.572C87.1643 141.582 87.1739 141.596 87.1834 141.606C87.2836 141.716 87.3885 141.822 87.5078 141.928C87.5173 141.938 87.5316 141.947 87.5412 141.962C87.5984 142.015 87.6604 142.068 87.7272 142.121C87.732 142.121 87.7367 142.13 87.7415 142.13C87.8035 142.178 87.8655 142.226 87.9323 142.275C87.9419 142.284 87.9562 142.294 87.9657 142.299C88.0277 142.342 88.0897 142.39 88.1565 142.433C88.1661 142.438 88.1756 142.443 88.1851 142.453C88.1947 142.457 88.2042 142.467 88.2137 142.472C88.2424 142.491 88.2758 142.51 88.3044 142.529C88.3473 142.558 88.3902 142.582 88.4332 142.611C88.4427 142.616 88.4523 142.621 88.4618 142.631C88.5429 142.679 88.624 142.727 88.7098 142.775C88.7241 142.78 88.7337 142.789 88.748 142.794C88.8005 142.823 88.8577 142.857 88.9149 142.885C88.9483 142.9 88.977 142.919 89.0056 142.934C89.0056 142.934 89.0056 142.934 89.0103 142.934C89.0103 142.934 89.0247 142.938 89.0294 142.943C89.0914 142.977 89.1582 143.011 89.225 143.039C89.2488 143.049 89.2727 143.063 89.2965 143.073C89.3109 143.078 89.3252 143.088 89.3347 143.092C89.4301 143.14 89.5303 143.184 89.6304 143.227C89.702 143.256 89.7688 143.29 89.8451 143.318C89.8785 143.333 89.9119 143.347 89.9453 143.362C89.9596 143.367 89.9691 143.371 89.9834 143.376C90.0836 143.415 90.1838 143.458 90.2887 143.496C90.408 143.545 90.532 143.588 90.656 143.631C90.6655 143.631 90.6751 143.636 90.6846 143.641C90.7085 143.65 90.7371 143.66 90.7609 143.67C90.8516 143.703 90.947 143.732 91.0424 143.766C91.0424 143.766 91.0519 143.766 91.0567 143.766C91.1187 143.785 91.1759 143.804 91.2379 143.824C91.2999 143.843 91.362 143.862 91.424 143.881H91.4335C91.4526 143.886 91.4669 143.891 91.486 143.896C91.5957 143.929 91.7054 143.963 91.8199 143.992C91.8294 143.992 91.839 143.992 91.8437 143.997C91.9821 144.035 92.1252 144.074 92.2683 144.112C92.3923 144.146 92.5211 144.175 92.6451 144.208C92.6546 144.208 92.6642 144.213 92.6737 144.218C92.7214 144.228 92.7643 144.242 92.812 144.252C92.8931 144.271 92.979 144.29 93.0601 144.309C93.0744 144.309 93.0887 144.314 93.1078 144.319C93.2461 144.348 93.3844 144.377 93.5228 144.406C93.5323 144.406 93.5419 144.406 93.5514 144.41C93.5896 144.42 93.6277 144.425 93.6659 144.434C93.7613 144.454 93.8614 144.473 93.9616 144.492C93.9759 144.492 93.9902 144.497 94.0045 144.502C94.1524 144.531 94.2955 144.555 94.4482 144.579C94.4529 144.579 94.4625 144.579 94.4672 144.579C94.5579 144.593 94.6485 144.608 94.7391 144.622C94.8059 144.632 94.8679 144.641 94.9299 144.651C95.0873 144.675 95.2495 144.699 95.4117 144.723C96.8999 144.925 98.5074 145.036 100.191 145.036C100.349 145.036 100.501 145.036 100.654 145.036C100.692 145.036 100.73 145.036 100.773 145.036C100.916 145.036 101.059 145.031 101.202 145.026C101.212 145.026 101.222 145.026 101.231 145.026C101.384 145.026 101.536 145.017 101.689 145.012C101.722 145.012 101.761 145.012 101.794 145.012C101.932 145.007 102.071 144.997 102.209 144.992C102.223 144.992 102.238 144.992 102.252 144.992C102.405 144.983 102.557 144.973 102.705 144.964C102.734 144.964 102.762 144.964 102.791 144.959C102.929 144.949 103.068 144.94 103.201 144.93C103.215 144.93 103.23 144.93 103.244 144.93C103.397 144.916 103.545 144.906 103.697 144.891C103.716 144.891 103.735 144.891 103.754 144.887C103.893 144.872 104.036 144.858 104.174 144.843C104.184 144.843 104.198 144.843 104.208 144.843C104.36 144.824 104.508 144.81 104.661 144.79C104.67 144.79 104.68 144.79 104.685 144.79C104.828 144.771 104.976 144.752 105.119 144.733C105.123 144.733 105.133 144.733 105.138 144.733C105.438 144.689 105.734 144.641 106.025 144.593C106.025 144.593 106.03 144.593 106.035 144.593C106.325 144.54 106.616 144.487 106.898 144.43C107.179 144.372 107.456 144.309 107.728 144.242C111.439 143.342 113.891 141.803 113.891 140.052V136.18C113.891 135.53 113.552 134.91 112.941 134.342C116.71 132.259 119.267 128.218 119.267 123.581L119.276 123.576Z" fill="#EFA63F"/>
<path d="M111.606 138.96C110.857 139.369 109.951 139.739 108.911 140.052C108.462 140.187 107.99 140.312 107.499 140.427C105.572 140.87 103.325 141.144 100.907 141.192C100.673 141.192 100.439 141.197 100.205 141.197C97.9397 141.197 95.8027 140.995 93.9186 140.639C92.0106 140.278 90.3601 139.754 89.1104 139.124C87.4743 138.296 86.5107 137.281 86.5107 136.179V140.052C86.5107 140.11 86.5107 140.172 86.5203 140.23C86.5203 140.244 86.5203 140.259 86.5203 140.273C86.5251 140.331 86.5346 140.389 86.5489 140.446C86.5489 140.451 86.5489 140.461 86.5537 140.466C86.5632 140.519 86.5823 140.572 86.5966 140.624C86.5966 140.639 86.6061 140.648 86.6061 140.663C86.6252 140.721 86.6443 140.778 86.6682 140.831C86.6682 140.841 86.6777 140.851 86.6825 140.86C86.7063 140.913 86.7302 140.961 86.754 141.009C86.7588 141.019 86.7636 141.029 86.7683 141.038C86.7969 141.096 86.8303 141.149 86.8685 141.206C86.878 141.216 86.8828 141.231 86.8923 141.24C86.9257 141.293 86.9639 141.341 87.0021 141.394C87.0021 141.399 87.0116 141.404 87.0164 141.413C87.0593 141.466 87.1022 141.524 87.1499 141.577C87.1595 141.587 87.169 141.601 87.1785 141.611C87.2787 141.721 87.3837 141.827 87.5029 141.933C87.5124 141.943 87.5268 141.952 87.5363 141.967C87.5935 142.019 87.6555 142.072 87.7223 142.125C87.7271 142.125 87.7319 142.135 87.7366 142.135C87.7986 142.183 87.8607 142.231 87.9274 142.279C87.937 142.289 87.9513 142.298 87.9608 142.303C88.0324 142.356 88.1039 142.404 88.1755 142.452C88.1755 142.452 88.1946 142.467 88.2041 142.472C88.2756 142.52 88.3472 142.563 88.4235 142.611C88.4331 142.616 88.4426 142.621 88.4521 142.63C88.5332 142.679 88.6143 142.727 88.7002 142.775C88.7145 142.78 88.724 142.789 88.7383 142.794C88.8242 142.842 88.9101 142.89 89.0007 142.933C89.0007 142.933 89.0007 142.933 89.0055 142.933C89.0961 142.982 89.1915 143.03 89.2869 143.073C89.3012 143.078 89.3155 143.087 89.3251 143.092C89.5206 143.184 89.721 143.275 89.9356 143.362C89.9499 143.366 89.9595 143.371 89.9738 143.376C90.1884 143.463 90.4126 143.549 90.6464 143.631C90.6559 143.631 90.6654 143.636 90.675 143.641C90.7942 143.684 90.9087 143.722 91.0327 143.761C91.0327 143.761 91.0423 143.761 91.047 143.761C91.1663 143.799 91.2903 143.838 91.4143 143.876H91.4239C91.5479 143.915 91.6767 143.953 91.8102 143.992C91.8198 143.992 91.8293 143.992 91.8341 143.997C92.0964 144.069 92.3636 144.141 92.6354 144.208C92.645 144.208 92.6545 144.213 92.6641 144.218C92.9407 144.285 93.2222 144.348 93.5084 144.406C93.5179 144.406 93.5274 144.406 93.537 144.41C93.8279 144.468 94.1285 144.526 94.429 144.579C94.4337 144.579 94.4433 144.579 94.4481 144.579C94.6007 144.603 94.7581 144.632 94.9155 144.656C95.0729 144.68 95.2351 144.704 95.3973 144.723C96.8855 144.925 98.493 145.036 100.177 145.036C100.334 145.036 100.487 145.036 100.64 145.036C100.678 145.036 100.716 145.036 100.759 145.036C100.902 145.036 101.045 145.031 101.188 145.026C101.198 145.026 101.207 145.026 101.217 145.026C101.369 145.026 101.522 145.016 101.675 145.012C101.708 145.012 101.746 145.012 101.78 145.012C101.918 145.007 102.056 144.997 102.195 144.992C102.209 144.992 102.223 144.992 102.237 144.992C102.39 144.983 102.543 144.973 102.691 144.964C102.719 144.964 102.748 144.964 102.776 144.959C102.915 144.949 103.053 144.94 103.187 144.93C103.201 144.93 103.215 144.93 103.23 144.93C103.382 144.915 103.53 144.906 103.683 144.891C103.702 144.891 103.721 144.891 103.74 144.887C103.878 144.872 104.021 144.858 104.16 144.843C104.169 144.843 104.184 144.843 104.193 144.843C104.346 144.824 104.494 144.81 104.646 144.79C104.656 144.79 104.665 144.79 104.67 144.79C104.813 144.771 104.961 144.752 105.104 144.733C105.109 144.733 105.119 144.733 105.123 144.733C105.424 144.689 105.72 144.641 106.011 144.593C106.011 144.593 106.015 144.593 106.02 144.593C106.311 144.54 106.602 144.487 106.883 144.43C107.165 144.372 107.442 144.309 107.713 144.242C111.425 143.342 113.876 141.803 113.876 140.052V136.179C113.876 137.209 113.032 138.166 111.582 138.96H111.606Z" fill="#CC7E28"/>
<path d="M107.737 144.237C105.829 144.559 103.878 144.699 101.961 144.425C99.4756 144.069 97.1049 143.059 95.1015 141.538C94.6913 141.226 94.3002 140.932 93.9186 140.634C92.0106 140.273 90.3601 139.749 89.1104 139.119C87.4743 138.291 86.5107 137.276 86.5107 136.175V140.047C86.5107 140.105 86.5107 140.167 86.5203 140.225C86.5203 140.24 86.5203 140.254 86.5203 140.268C86.5251 140.326 86.5346 140.384 86.5489 140.442C86.5489 140.446 86.5489 140.456 86.5537 140.461C86.5632 140.514 86.5823 140.567 86.5966 140.62C86.5966 140.634 86.6061 140.644 86.6061 140.658C86.6252 140.716 86.6443 140.773 86.6682 140.826C86.6682 140.836 86.6777 140.846 86.6825 140.855C86.7063 140.908 86.7302 140.956 86.754 141.004C86.7588 141.014 86.7636 141.024 86.7683 141.033C86.7969 141.091 86.8303 141.144 86.8685 141.202C86.878 141.211 86.8828 141.226 86.8923 141.235C86.9257 141.288 86.9639 141.336 87.0021 141.389C87.0021 141.394 87.0116 141.399 87.0164 141.408C87.0593 141.461 87.1022 141.519 87.1499 141.572C87.1595 141.582 87.169 141.596 87.1785 141.606C87.2787 141.716 87.3837 141.822 87.5029 141.928C87.5124 141.938 87.5268 141.947 87.5363 141.962C87.5935 142.015 87.6555 142.068 87.7223 142.12C87.7271 142.12 87.7319 142.13 87.7366 142.13C87.7986 142.178 87.8607 142.226 87.9274 142.274C87.937 142.284 87.9513 142.294 87.9608 142.298C88.0324 142.351 88.1039 142.399 88.1755 142.448C88.1755 142.448 88.1946 142.462 88.2041 142.467C88.2756 142.515 88.3472 142.558 88.4235 142.606C88.4331 142.611 88.4426 142.616 88.4521 142.626C88.5332 142.674 88.6143 142.722 88.7002 142.77C88.7145 142.775 88.724 142.784 88.7383 142.789C88.8242 142.837 88.9101 142.885 89.0007 142.929C89.0007 142.929 89.0007 142.929 89.0055 142.929C89.0961 142.977 89.1915 143.025 89.2869 143.068C89.3012 143.073 89.3155 143.083 89.3251 143.087C89.5206 143.179 89.721 143.27 89.9356 143.357C89.9499 143.362 89.9595 143.366 89.9738 143.371C90.1884 143.458 90.4126 143.544 90.6464 143.626C90.6559 143.626 90.6654 143.631 90.675 143.636C90.7942 143.679 90.9087 143.718 91.0327 143.756C91.0327 143.756 91.0423 143.756 91.047 143.756C91.1663 143.795 91.2903 143.833 91.4143 143.871H91.4239C91.5479 143.91 91.6767 143.948 91.8102 143.987C91.8198 143.987 91.8293 143.987 91.8341 143.992C92.0964 144.064 92.3636 144.136 92.6354 144.203C92.645 144.203 92.6545 144.208 92.6641 144.213C92.9407 144.28 93.2222 144.343 93.5084 144.401C93.5179 144.401 93.5274 144.401 93.537 144.405C93.828 144.463 94.1285 144.521 94.429 144.574C94.4337 144.574 94.4433 144.574 94.4481 144.574C94.6007 144.598 94.7581 144.627 94.9155 144.651C95.0729 144.675 95.2351 144.699 95.3973 144.718C96.8855 144.92 98.493 145.031 100.177 145.031C100.334 145.031 100.487 145.031 100.64 145.031C100.678 145.031 100.716 145.031 100.759 145.031C100.902 145.031 101.045 145.026 101.188 145.021C101.198 145.021 101.207 145.021 101.217 145.021C101.369 145.021 101.522 145.012 101.675 145.007C101.708 145.007 101.746 145.007 101.78 145.007C101.918 145.002 102.056 144.992 102.195 144.988C102.209 144.988 102.223 144.988 102.237 144.988C102.39 144.978 102.543 144.968 102.691 144.959C102.719 144.959 102.748 144.959 102.776 144.954C102.915 144.944 103.053 144.935 103.187 144.925C103.201 144.925 103.215 144.925 103.23 144.925C103.382 144.911 103.53 144.901 103.683 144.887C103.702 144.887 103.721 144.887 103.74 144.882C103.878 144.867 104.021 144.853 104.16 144.838C104.169 144.838 104.184 144.838 104.193 144.838C104.346 144.819 104.494 144.805 104.646 144.786C104.656 144.786 104.665 144.786 104.67 144.786C104.813 144.766 104.961 144.747 105.104 144.728C105.109 144.728 105.119 144.728 105.123 144.728C105.424 144.684 105.72 144.636 106.011 144.588C106.011 144.588 106.015 144.588 106.02 144.588C106.311 144.535 106.602 144.482 106.883 144.425C107.165 144.367 107.442 144.304 107.713 144.237H107.737Z" fill="#B76E27"/>
<path d="M107.117 111.309C100.4 111.309 94.9579 116.798 94.9579 123.571C94.9579 126.476 95.9596 129.141 97.6339 131.244C95.5255 131.393 93.5841 131.715 91.9385 132.172L92.6635 132.899C90.2213 133.615 88.6758 134.674 88.6758 135.857C88.6758 136.025 88.7044 136.189 88.7664 136.348C89.4485 138.195 93.9419 139.643 99.4942 139.758L100.911 141.182C103.324 141.139 105.576 140.865 107.503 140.417L106.272 139.181C106.778 139.075 107.255 138.955 107.703 138.825L108.915 140.042C109.95 139.73 110.861 139.359 111.61 138.95L110.37 137.704C111.028 137.291 111.472 136.829 111.653 136.343C111.71 136.184 111.744 136.021 111.744 135.852C111.744 134.27 108.967 132.908 104.98 132.292L104.04 131.35C106.63 131.624 108.905 132.172 110.613 132.903C114.229 131.528 116.838 128.074 117.005 123.985C117.01 123.845 117.014 123.706 117.014 123.566C117.014 122.344 116.795 121.175 116.399 120.093L117.668 118.298C118.45 119.886 118.889 121.671 118.889 123.566C118.889 128.112 116.356 132.062 112.636 134.053C112.75 134.144 112.86 134.236 112.96 134.327C116.728 132.244 119.285 128.203 119.285 123.566C119.285 116.793 113.842 111.304 107.126 111.304L107.117 111.309Z" fill="#F4C74C"/>
<path d="M116.395 120.102C115.932 118.842 115.222 117.697 114.32 116.735C113.81 116.191 113.242 115.701 112.627 115.282C111.053 114.214 109.154 113.594 107.118 113.594C107.065 113.594 107.013 113.594 106.955 113.594C101.565 113.68 97.2197 118.116 97.2197 123.571C97.2197 123.71 97.2197 123.85 97.2293 123.989C97.2674 124.918 97.4344 125.817 97.7063 126.664C98.2787 128.429 99.3185 129.974 100.688 131.152C101.847 131.167 102.968 131.234 104.036 131.35C106.626 131.624 108.901 132.172 110.609 132.903C114.225 131.527 116.834 128.073 117.001 123.984C117.006 123.845 117.011 123.705 117.011 123.566C117.011 122.344 116.791 121.175 116.395 120.093V120.102Z" fill="#D78B33"/>
<path d="M97.2196 123.576C97.2196 123.715 97.2196 123.855 97.2292 123.994C97.4486 118.678 101.789 114.435 107.113 114.435C112.436 114.435 116.777 118.678 116.996 123.994C117.001 123.855 117.006 123.715 117.006 123.576C117.006 122.354 116.786 121.185 116.39 120.102C115.928 118.842 115.217 117.697 114.315 116.735C113.805 116.191 113.237 115.701 112.622 115.282C111.048 114.214 109.149 113.594 107.113 113.594C107.06 113.594 107.008 113.594 106.95 113.594C101.56 113.68 97.2148 118.116 97.2148 123.571L97.2196 123.576Z" fill="#AD6926"/>
<path d="M104.976 132.302C103.707 132.105 102.314 131.985 100.85 131.96C100.635 131.96 100.42 131.956 100.206 131.956C99.8242 131.956 99.4521 131.96 99.08 131.975C96.6378 132.057 94.415 132.393 92.6596 132.908C90.2174 133.625 88.6719 134.683 88.6719 135.867C88.6719 136.035 88.7005 136.199 88.7625 136.357C89.4446 138.205 93.938 139.653 99.4903 139.768C99.7288 139.773 99.9673 139.778 100.206 139.778C102.429 139.778 104.508 139.566 106.268 139.196C106.774 139.09 107.251 138.97 107.699 138.84C108.777 138.527 109.689 138.147 110.366 137.719C111.024 137.305 111.468 136.843 111.649 136.357C111.706 136.199 111.74 136.035 111.74 135.867C111.74 134.284 108.964 132.923 104.976 132.307V132.302Z" fill="#D78B33"/>
<path d="M96.4085 128.506C95.7264 127.006 95.3496 125.336 95.3496 123.576C95.3496 117.024 100.616 111.708 107.117 111.708C107.499 111.708 107.88 111.727 108.252 111.766L106.955 113.598C101.565 113.685 97.2195 118.12 97.2195 123.576C97.2195 123.715 97.2194 123.855 97.229 123.994C97.2671 124.923 97.4341 125.822 97.706 126.669L96.4085 128.502V128.506Z" fill="#EFA63F"/>
<path d="M100.205 131.951C99.8238 131.951 99.4518 131.956 99.0797 131.97L98.3213 131.205C98.8889 131.176 99.4709 131.162 100.058 131.157L100.854 131.956C100.64 131.956 100.425 131.951 100.21 131.951H100.205Z" fill="#EFA63F"/>
<path d="M112.626 115.287L113.714 113.748C114.329 114.166 114.901 114.647 115.426 115.176L114.319 116.74C113.809 116.196 113.241 115.706 112.626 115.287Z" fill="#EFA63F"/>
<path d="M88.6719 135.862C88.6719 136.03 88.7005 136.194 88.7625 136.353C89.4732 134.424 94.3243 132.932 100.206 132.932C106.087 132.932 110.938 134.424 111.649 136.353C111.706 136.194 111.74 136.03 111.74 135.862C111.74 134.279 108.964 132.918 104.976 132.302C103.707 132.105 102.314 131.985 100.85 131.96C100.635 131.96 100.42 131.956 100.206 131.956C99.8242 131.956 99.4521 131.96 99.08 131.975C96.6378 132.057 94.415 132.393 92.6596 132.908C90.2174 133.625 88.6719 134.683 88.6719 135.867V135.862Z" fill="#AD6926"/>
<path d="M90.8036 141.553C90.1215 140.812 89.573 139.989 89.1055 139.119C87.4694 138.291 86.5059 137.276 86.5059 136.175V140.047C86.5059 140.105 86.5059 140.167 86.5154 140.225C86.5154 140.24 86.5154 140.254 86.5154 140.268C86.5202 140.326 86.5297 140.384 86.544 140.442C86.544 140.446 86.544 140.456 86.5488 140.461C86.5583 140.514 86.5774 140.567 86.5917 140.62C86.5917 140.634 86.6013 140.644 86.6013 140.658C86.6203 140.716 86.6394 140.773 86.6633 140.826C86.6633 140.836 86.6728 140.846 86.6776 140.855C86.7014 140.908 86.7253 140.956 86.7491 141.004C86.7539 141.014 86.7587 141.024 86.7634 141.033C86.7921 141.091 86.8255 141.144 86.8636 141.202C86.8732 141.211 86.8779 141.226 86.8875 141.235C86.9209 141.288 86.959 141.336 86.9972 141.389C86.9972 141.394 87.0067 141.399 87.0115 141.408C87.0544 141.461 87.0973 141.519 87.145 141.572C87.1546 141.582 87.1641 141.596 87.1737 141.606C87.2738 141.716 87.3788 141.822 87.498 141.928C87.5076 141.938 87.5219 141.947 87.5314 141.962C87.5887 142.015 87.6507 142.068 87.7174 142.12C87.7222 142.12 87.727 142.13 87.7318 142.13C87.7938 142.178 87.8558 142.226 87.9226 142.274C87.9321 142.284 87.9464 142.294 87.9559 142.298C88.0275 142.351 88.099 142.399 88.1706 142.448C88.1706 142.448 88.1897 142.462 88.1992 142.467C88.2708 142.515 88.3423 142.558 88.4186 142.606C88.4282 142.611 88.4377 142.616 88.4473 142.626C88.5283 142.674 88.6094 142.722 88.6953 142.77C88.7096 142.775 88.7191 142.784 88.7335 142.789C88.8193 142.837 88.9052 142.885 88.9958 142.929C88.9958 142.929 88.9958 142.929 89.0006 142.929C89.0912 142.977 89.1866 143.025 89.282 143.068C89.2963 143.073 89.3106 143.083 89.3202 143.087C89.5157 143.179 89.7161 143.27 89.9307 143.357C89.945 143.362 89.9546 143.366 89.9689 143.371C90.1835 143.458 90.4077 143.544 90.6415 143.626C90.651 143.626 90.6605 143.631 90.6701 143.636C90.7893 143.679 90.9038 143.718 91.0278 143.756C91.0278 143.756 91.0374 143.756 91.0421 143.756C91.1614 143.795 91.2854 143.833 91.4094 143.871H91.419C91.543 143.91 91.6718 143.948 91.8053 143.987C91.8149 143.987 91.8244 143.987 91.8292 143.992C92.0915 144.064 92.3587 144.136 92.6306 144.203C92.6401 144.203 92.6496 144.208 92.6592 144.213C92.9358 144.28 93.2173 144.343 93.5035 144.401C93.513 144.401 93.5225 144.401 93.5321 144.405C93.8231 144.463 94.1236 144.521 94.4241 144.574C94.4289 144.574 94.4384 144.574 94.4432 144.574C94.5958 144.598 94.7532 144.627 94.9106 144.651C95.068 144.675 95.2302 144.699 95.3924 144.718C93.6704 143.958 92.0582 142.919 90.775 141.524L90.8036 141.553Z" fill="#9F5C23"/>
<path fill-rule="evenodd" clip-rule="evenodd" d="M102.028 124.394L105.061 123.744V118.27C105.328 117.88 105.901 117.452 106.282 117.211V123.47L107.747 123.172V118.909C107.995 118.558 108.605 118.106 108.973 117.875V122.902L112.431 122.171C112.45 122.719 112.345 123.22 112.064 123.629L108.973 124.273V125.663L112.45 124.947C112.469 125.495 112.364 125.995 112.083 126.404L107.747 127.304V124.543L106.278 124.836V126.654C106.063 127.174 105.624 127.694 105.328 128.093C105.247 128.203 105.257 128.242 105.128 128.271L101.002 129.146C100.978 128.766 101.055 128.271 101.398 127.698L105.057 126.929V125.11L101.627 125.837C101.603 125.457 101.679 124.961 102.023 124.389L102.028 124.394ZM108.171 128.579L112.464 127.703C112.483 128.252 112.312 128.747 112.097 129.161L107.756 130.06C107.775 129.608 107.909 129.118 108.176 128.574L108.171 128.579Z" fill="#AD6926"/>
<path fill-rule="evenodd" clip-rule="evenodd" d="M95.2208 136.232L98.0304 136.175L98.2259 133.75C98.4835 133.596 99.0273 133.452 99.3898 133.375L99.1704 136.146L100.53 136.122L100.682 134.236C100.921 134.096 101.498 133.943 101.846 133.87L101.67 136.093L104.875 136.026C104.875 136.271 104.761 136.483 104.484 136.641L101.622 136.694L101.574 137.31L104.799 137.252C104.799 137.498 104.685 137.709 104.408 137.868L100.387 137.94L100.434 137.334L100.477 136.718L99.1227 136.737L99.0607 137.541C98.8413 137.757 98.4215 137.955 98.1353 138.108C98.059 138.152 98.0637 138.171 97.9445 138.171L94.1237 138.248C94.1142 138.08 94.2048 137.863 94.5387 137.637L97.9302 137.57L97.9922 136.766L94.8154 136.829C94.8058 136.661 94.8965 136.444 95.2304 136.218L95.2208 136.232ZM100.721 138.541L104.694 138.474C104.694 138.719 104.518 138.926 104.303 139.09L100.282 139.162C100.315 138.965 100.458 138.758 100.721 138.537V138.541Z" fill="#AD6926"/>
<path fill-rule="evenodd" clip-rule="evenodd" d="M95.2403 136.021L98.0499 135.963L98.2455 133.538C98.503 133.384 99.0468 133.24 99.4093 133.163L99.1899 135.934L100.549 135.91L100.702 134.024C100.941 133.885 101.518 133.731 101.866 133.659L101.689 135.881L104.895 135.814C104.895 136.059 104.78 136.271 104.504 136.429L101.642 136.482L101.594 137.098L104.819 137.04C104.819 137.286 104.704 137.497 104.427 137.656L100.406 137.728L100.454 137.122L100.497 136.506L99.1422 136.526L99.0802 137.329C98.8608 137.546 98.441 137.743 98.1548 137.897C98.0785 137.94 98.0833 137.959 97.964 137.959L94.1432 138.036C94.1337 137.868 94.2243 137.651 94.5582 137.425L97.9497 137.358L98.0117 136.555L94.8349 136.617C94.8254 136.449 94.916 136.232 95.2499 136.006L95.2403 136.021ZM100.74 138.33L104.714 138.262C104.714 138.508 104.537 138.715 104.322 138.878L100.301 138.95C100.335 138.753 100.478 138.546 100.74 138.325V138.33Z" fill="#ECAC3F"/>
<path fill-rule="evenodd" clip-rule="evenodd" d="M101.746 124.11L104.78 123.46V117.986C105.047 117.596 105.62 117.168 106.001 116.927V123.186L107.466 122.888V118.626C107.714 118.274 108.324 117.822 108.691 117.591V122.618L112.15 121.887C112.169 122.435 112.064 122.936 111.782 123.345L108.691 123.989V125.38L112.169 124.663C112.188 125.211 112.083 125.711 111.802 126.12L107.466 127.02V124.259L105.996 124.552V126.371C105.782 126.89 105.343 127.41 105.047 127.809C104.966 127.92 104.976 127.958 104.847 127.987L100.721 128.862C100.697 128.482 100.773 127.987 101.117 127.414L104.775 126.645V124.826L101.346 125.553C101.322 125.173 101.398 124.677 101.742 124.105L101.746 124.11ZM107.89 128.295L112.183 127.419C112.202 127.968 112.031 128.463 111.816 128.877L107.475 129.776C107.494 129.324 107.628 128.834 107.895 128.29L107.89 128.295Z" fill="#ECAC3F"/>
</g>
<defs>
<clipPath id="clip0_382_696">
<rect width="118.95" height="144.669" fill="white" transform="translate(0.326172 0.395752)"/>
</clipPath>
</defs>
</svg>
