<svg width="32" height="35" viewBox="0 0 32 35" fill="none" xmlns="http://www.w3.org/2000/svg">
<g clip-path="url(#clip0_103_172)">
<path d="M23.6875 34.9724C23.3341 35.0069 22.7345 35 22.3747 34.9724C17.1992 34.5586 10.6477 29.4483 7.18261 25.3793C4.00154 21.6414 -0.580706 14.1517 0.0630806 8.85515C0.334481 6.62757 2.27847 4.58619 3.78063 3.15171C6.15381 0.875844 7.58024 2.29653 9.37275 4.21377C10.2879 5.19308 12.5727 7.40688 12.9893 8.59308C13.955 11.3241 11.3988 12.9103 10.0165 14.662C10.6035 16.0138 11.3988 17.2483 12.2824 18.3862C13.166 19.5241 14.1633 20.6138 15.1605 21.5241C16.1578 22.4345 17.3128 23.331 18.5372 23.9655C20.2919 22.3724 21.914 19.2552 24.5649 21.0207C25.5305 21.662 28.2067 24.7172 29.0398 25.7586C29.8729 26.8 30.3337 27.9448 29.8666 29.4C29.5195 30.4758 27.7459 32.3103 26.9443 33.1724C26.067 34.1172 24.9436 34.8483 23.6939 34.9793L23.6875 34.9724Z" fill="#46194F"/>
<path d="M31.9999 15.4416V15.7865C31.5708 16.9175 30.4725 16.8899 30.1443 15.6623C29.936 14.883 29.8351 14.0554 29.5952 13.2623C28.0741 8.22094 24.1988 4.06922 19.5534 2.5175C18.9601 2.3175 17.7167 2.13819 17.2749 1.86922C16.4986 1.39336 16.77 0.0968054 17.5968 0.00715024C18.1396 -0.0549187 19.7617 0.483012 20.3487 0.689909C25.783 2.62094 30.1254 7.62784 31.6149 13.6554L32.0063 15.4485L31.9999 15.4416Z" fill="white"/>
<path d="M17.2309 6.37239C17.6222 6.29653 18.1839 6.46894 18.5752 6.57928C22.034 7.5586 24.9563 10.7241 25.922 14.4689C26.105 15.1931 26.5342 16.6276 25.518 16.8551C24.281 17.1379 24.2936 15.4483 24.0159 14.5655C23.0817 11.5448 20.8601 9.43446 18.1082 8.51722C17.6096 8.3517 17.0226 8.42066 16.6817 7.88963C16.3409 7.3586 16.6376 6.48963 17.2246 6.37239H17.2309Z" fill="white"/>
</g>
<defs>
<clipPath id="clip0_103_172">
<rect width="32" height="35" fill="white"/>
</clipPath>
</defs>
</svg>
