<svg width="30" height="34" viewBox="0 0 30 34" fill="none" xmlns="http://www.w3.org/2000/svg">
<g clip-path="url(#clip0_87_327)">
<path d="M22.1444 33.3427C21.8163 33.3756 21.2596 33.369 20.9256 33.3427C16.1204 32.9482 10.0379 28.076 6.82077 24.1967C3.86738 20.6329 -0.386905 13.4923 0.210805 8.44255C0.462781 6.31877 2.26763 4.37252 3.66229 3.00489C5.86561 0.83508 7.18995 2.18957 8.85416 4.01746C9.70384 4.95114 11.8251 7.06177 12.2119 8.1927C13.1084 10.7965 10.7352 12.3088 9.45187 13.9788C9.99684 15.2676 10.7352 16.4445 11.5556 17.5294C12.376 18.6143 13.3018 19.6532 14.2277 20.5211C15.1535 21.3891 16.2259 22.2438 17.3627 22.8488C18.9918 21.3299 20.4978 18.3579 22.9589 20.0412C23.8555 20.6526 26.3401 23.5654 27.1136 24.5583C27.8871 25.5511 28.3149 26.6426 27.8813 28.03C27.559 29.0557 25.9123 30.8047 25.1681 31.6266C24.3536 32.5274 23.3105 33.2244 22.1503 33.3493L22.1444 33.3427Z" fill="#46194F"/>
<path d="M29.8618 14.7219V15.0507C29.4633 16.129 28.4437 16.1027 28.139 14.9323C27.9456 14.1893 27.8519 13.4003 27.6292 12.6442C26.217 7.8377 22.619 3.87945 18.3061 2.40004C17.7553 2.20936 16.6009 2.0384 16.1907 1.78197C15.4699 1.32828 15.7219 0.0921525 16.4895 0.00667529C16.9935 -0.0525013 18.4995 0.460362 19.0444 0.657617C24.0898 2.49867 28.1214 7.27224 29.5044 13.0189L29.8677 14.7285L29.8618 14.7219Z" fill="#46194F"/>
<path d="M16.1495 6.07544C16.5128 6.00311 17.0344 6.16749 17.3977 6.27269C20.6089 7.20637 23.322 10.2244 24.2186 13.7947C24.3885 14.4851 24.787 15.8527 23.8436 16.0697C22.695 16.3393 22.7067 14.7284 22.4489 13.8867C21.5816 11.0068 19.5189 8.99481 16.964 8.12031C16.5011 7.96251 15.9561 8.02826 15.6397 7.52197C15.3233 7.01569 15.5987 6.18721 16.1436 6.07544H16.1495Z" fill="#46194F"/>
</g>
<defs>
<clipPath id="clip0_87_327">
<rect width="29.7097" height="33.369" fill="white" transform="translate(0.1521)"/>
</clipPath>
</defs>
</svg>
