<svg width="192" height="96" viewBox="0 0 192 96" fill="none" xmlns="http://www.w3.org/2000/svg"><g id="Group 23079"><path id="Vector 604" d="M166.998 67.5018L115.453 78.119C114.083 90.3118 106.205 94.5016 102.438 95.0724H94.7319C87.334 95.0724 83.7721 88.1084 82.9159 84.6264C75.7235 85.4826 63.9075 86.1676 57.5714 86.1676C52.5025 86.1676 47.6962 83.9985 45.9267 82.9139L39.7618 82.0577C39.0768 82.7427 36.2341 84.1127 30.3432 84.1127C24.4524 84.1127 20.1255 80.9161 18.6985 79.3178L10.8211 77.7765C8.65204 77.8336 3.86859 77.9135 2.08764 77.7765C-0.138545 77.6053 -0.309808 76.0641 0.888917 74.6941C1.8479 73.5981 3.57177 71.155 4.31383 70.0704C3.4576 67.5018 2.43012 59.9669 2.60136 55.5145C2.77261 51.0621 5.6838 41.6435 13.7324 35.4787C20.1712 30.5468 39.7048 26.8022 48.6667 25.5464C50.7216 24.5874 52.6053 23.3202 53.2903 22.8064C51.6463 19.3815 56.1444 18.5253 58.5989 18.5253C70.5177 9.34647 78.1781 5.91013 80.5185 5.33931C97.8144 1.2294 111 -0.140573 127.097 0.0306729C143.195 0.201919 154.326 1.57189 160.148 4.99682C165.97 8.42175 173.505 15.4428 176.416 19.039C178.745 21.916 180.698 22.521 181.383 22.464C185.904 23.5599 189.317 27.2589 190.459 28.9713C191.144 36.5062 191.486 47.4659 191.144 51.2334C190.87 54.2473 191.6 56.7132 192 57.5695C191.178 60.7204 188.575 62.079 187.376 62.3644C186.691 74.8311 181.839 77.2628 179.499 76.9203H173.163C169.053 76.9203 167.34 70.6413 166.998 67.5018Z" fill="#EEEEEE"></path><path id="Vector 605" d="M147.305 4.25584C141.017 3.66266 134.514 3.85856 131.379 5.33935C127.265 7.28185 122.469 14.2834 119.632 19.1701C118.656 20.8518 118.307 22.8106 118.522 24.7432V24.7432C118.625 25.6697 119.442 26.349 120.372 26.2811L151.757 23.9894M147.305 4.25584C153.378 4.82884 159.249 6.13812 161.689 7.7368C164.587 9.63526 167.478 12.8637 169.54 15.4023C170.829 16.99 171.715 18.86 172.228 20.8398V20.8398C172.447 21.6852 171.847 22.5226 170.976 22.5862L151.757 23.9894M147.305 4.25584C148.389 7.51769 150.798 16.031 151.757 23.9894M73.3261 10.1342C68.3955 12.7293 58.672 20.3425 53.7292 24.3897C53.4615 24.6089 53.6179 25.0388 53.9639 25.0419L107.913 25.5339C108.756 25.5416 109.526 25.073 109.936 24.3364C112.919 18.9722 118.867 10.5772 122.226 6.02282C122.565 5.56389 122.285 4.91381 121.718 4.85578C116.788 4.35149 106.521 3.73327 96.2731 4.48311C82.2309 5.51059 79.8334 6.70932 73.3261 10.1342Z" stroke="white" stroke-width="0.742114"></path><ellipse id="Ellipse 2927" cx="102.9" cy="73.9951" rx="12.6722" ry="20.2071" stroke="white" stroke-width="0.742114"></ellipse><ellipse id="Ellipse 2928" cx="180.526" cy="62.1932" rx="7.53484" ry="14.7272" stroke="white" stroke-width="0.742114"></ellipse><path id="Vector 606" d="M17.3281 79.3177L41.6451 82.5714" stroke="white" stroke-width="0.742114"></path><path id="Vector 607" d="M46.2169 57.6095C44.9261 62.7388 42.2566 69.1236 40.41 73.1245C39.8177 74.4078 38.524 75.2152 37.1112 75.1711C29.1319 74.9225 21.1058 73.4635 16.4293 72.3737C14.9131 72.0204 13.6221 71.0369 12.9248 69.645C10.4149 64.6342 8.35705 58.2915 7.29563 54.4898C7.01366 53.4799 7.01623 52.4079 7.3811 51.4249C7.60835 50.8126 7.84733 50.2584 8.08186 49.7686C8.81887 48.2293 10.4268 47.4231 12.1334 47.406C22.2439 47.305 34.2267 48.4929 40.5269 49.3023C41.5994 49.4401 42.626 49.8618 43.3495 50.6654C44.3656 51.7941 45.2185 53.1319 45.8245 54.2428C46.3859 55.2718 46.503 56.4728 46.2169 57.6095Z" stroke="white" stroke-width="0.742114"></path><path id="Vector 608" d="M56.8548 52.547C55.3895 51.5208 54.2078 50.2258 53.4522 49.2323C53.0304 48.6776 53.1427 47.9142 53.7003 47.4962C55.5624 46.1 59.7465 43.4253 66.9901 39.8593C75.1148 35.8594 85.3779 35.547 90.6256 35.9566C91.3318 36.0117 91.7737 36.7228 91.5419 37.3922L90.9573 39.0811C90.631 40.0238 89.9643 40.8039 89.1302 41.351C86.1746 43.2896 83.117 46.1313 81.0096 48.2977C79.7768 49.565 78.1874 50.4471 76.4382 50.7052L59.8748 53.149C58.8214 53.3044 57.727 53.1578 56.8548 52.547Z" stroke="white" stroke-width="0.742114"></path></g></svg>