<svg width="271" height="69" viewBox="0 0 271 69" fill="none" xmlns="http://www.w3.org/2000/svg">
<path d="M253.645 61.7283C249.023 71.5478 234.276 71.2846 229.392 61.7471L154.823 61.6718C148.953 72.5208 132.799 71.026 129.172 59.1899C125.237 57.4507 119.852 56.6751 116.094 54.8278C114.229 53.9112 111.495 50.1836 111.229 48.1106C110.808 44.8531 110.757 33.0499 111.28 29.924C111.579 28.1378 112.752 26.7934 113.991 25.5995C114.304 25.2987 114.945 25.1294 115.005 25.0401C115.244 24.7111 114.524 23.4701 114.762 22.5394C115.08 21.3079 116.342 20.537 117.571 20.5981C121.292 20.7767 125.966 22.9437 129.827 22.9155C137.688 19.8084 145.321 16.0385 153.187 12.9596C155.767 11.949 158.216 10.8631 161.035 10.6516C171.757 9.83841 183.47 11.3003 194.3 10.6516C205.695 13.1899 215.258 22.0552 225.578 27.3998L238.721 28.6079C245.971 29.7689 253.711 30.8595 260.666 33.2803C270.579 36.7352 271.649 45.3091 270.733 54.8231C269.878 63.7119 259.871 61.3334 253.641 61.733L253.645 61.7283ZM267.242 42.6767H262.171C261.694 42.6767 259.45 42.0281 258.88 41.7601C256.394 40.5803 254.346 37.3933 254.631 34.5964C249.775 33.7127 244.994 32.453 240.081 31.809C235.169 31.165 230.172 31.1415 225.241 30.5492C214.963 25.4397 205.653 16.988 194.655 13.8104C183.671 14.4168 171.93 13.0536 161.039 13.8104C159.637 13.9091 158.604 14.1771 157.286 14.6095C148.289 17.5709 139.203 22.892 130.177 26.0743L118.544 24.0295C121.217 27.287 117.039 26.8546 115.562 28.2412C114.973 28.7912 114.846 29.5856 114.346 30.1873C116.538 30.2531 118.637 30.8125 118.903 33.3414C119.291 37.0642 119.175 41.3888 114.342 40.914L114.496 45.8637L129.205 49.3751C129.962 49.2623 131.117 46.8509 131.827 46.0095C139.483 36.895 154.8 41.3841 156.398 53.1591L157.936 53.5445L227.476 53.6009C227.938 53.4928 228.331 50.7383 228.579 50.0708C233.542 36.6036 254.164 39.1466 255.337 53.5821L267.583 53.2343L267.232 42.6767H267.242ZM115.748 33.5294H114.351V37.7552H115.748V33.5294ZM264.793 39.5085C263.25 37.1536 260.292 36.4579 257.8 35.64C258.188 39.1513 261.801 39.894 264.793 39.5085ZM140.852 44.1762C132.523 45.3326 128.686 55.2132 133.949 61.8505C139.427 68.7556 150.224 66.8002 152.855 58.3579C155.328 50.4233 148.995 43.0481 140.857 44.1809L140.852 44.1762ZM239.866 44.1762C226.625 46.0189 227.901 67.7168 243.591 65.8648C256.59 64.3324 254.912 42.0798 239.866 44.1762ZM128.34 55.6974C128.359 54.8607 129.196 52.8629 128.359 52.3365L115.047 49.3657C115.548 50.569 116.52 51.5468 117.599 52.2519L128.34 55.6974ZM155.982 58.513H228.055L227.494 56.7315L156.847 56.3837L156.342 56.4166L155.978 58.513H155.982ZM267.242 56.4025H255.87C255.155 56.896 255.337 57.7233 255.347 58.513H264.62C265.297 58.513 266.947 57.1311 267.242 56.4025Z" fill="#46194F"/>
<path d="M160.446 16.7294L195.188 16.7999C202.054 18.7225 207.737 23.7944 214.043 27.0378C216.398 28.7535 215.73 31.7901 213.117 32.7538L156.146 32.8384C152.44 32.2884 150.098 31.9829 147.233 29.4868C145.251 27.7617 142.063 24.5794 145.592 22.5441C147.78 21.2843 152.43 19.5451 154.945 18.5768C156.754 17.8811 158.539 17.129 160.451 16.7247L160.446 16.7294ZM182.227 19.8083H162.11C160.399 22.8778 159.68 26.4973 158.086 29.6608H182.227V19.8083ZM194.996 19.8083C191.995 19.3853 188.125 20.1233 185.027 19.8083V29.6608H211.967L198.908 21.5052C197.903 20.9835 196.038 19.954 194.996 19.8083ZM158.432 20.5134L147.237 25.261C149.35 27.7382 151.575 29.3787 154.949 29.515L158.432 20.5181V20.5134Z" fill="#46194F"/>
<path d="M136.861 60.8585C135.127 59.1146 134.436 56.548 134.646 54.1131C135.356 45.8871 147.233 44.5615 149.855 52.1859C152.772 60.6564 142.55 66.5744 136.861 60.8585Z" fill="#46194F"/>
<path d="M239.512 47.3349C246.494 46.1457 251.692 52.0261 248.659 58.6446C245.433 65.6861 234.51 63.8857 233.692 55.8383C233.333 52.28 235.847 47.9601 239.516 47.3349H239.512Z" fill="#46194F"/>
<path d="M111.86 3H94.2807C93.5734 3 93 3.57664 93 4.28796V4.71572C93 5.42704 93.5734 6.00368 94.2807 6.00368H111.86C112.567 6.00368 113.14 5.42704 113.14 4.71572V4.28796C113.14 3.57664 112.567 3 111.86 3Z" fill="#C6AECC"/>
<path d="M92.087 65.8976H71.0961C70.3888 65.8976 69.8154 66.4742 69.8154 67.1855V67.6133C69.8154 68.3246 70.3888 68.9013 71.0961 68.9013H92.087C92.7943 68.9013 93.3677 68.3246 93.3677 67.6133V67.1855C93.3677 66.4742 92.7943 65.8976 92.087 65.8976Z" fill="#C6AECC"/>
<path d="M73.8595 8H56.2807C55.5734 8 55 8.57664 55 9.28796V9.71572C55 10.427 55.5734 11.0037 56.2807 11.0037H73.8595C74.5668 11.0037 75.1402 10.427 75.1402 9.71572V9.28796C75.1402 8.57664 74.5668 8 73.8595 8Z" fill="#C6AECC"/>
<path d="M102.663 18.5271H93.9457C93.2384 18.5271 92.665 19.1037 92.665 19.8151V20.2428C92.665 20.9541 93.2384 21.5308 93.9457 21.5308H102.663C103.37 21.5308 103.943 20.9541 103.943 20.2428V19.8151C103.943 19.1037 103.37 18.5271 102.663 18.5271Z" fill="#C6AECC"/>
<path d="M92.9977 41.7084H84.2807C83.5734 41.7084 83 42.285 83 42.9963V43.4241C83 44.1354 83.5734 44.7121 84.2807 44.7121H92.9977C93.705 44.7121 94.2783 44.1354 94.2783 43.4241V42.9963C94.2783 42.285 93.705 41.7084 92.9977 41.7084Z" fill="#C6AECC"/>
<path d="M74.4424 26.2246H68.4784C67.7711 26.2246 67.1978 26.8012 67.1978 27.5126V27.9403C67.1978 28.6516 67.7711 29.2283 68.4784 29.2283H74.4424C75.1497 29.2283 75.7231 28.6516 75.7231 27.9403V27.5126C75.7231 26.8012 75.1497 26.2246 74.4424 26.2246Z" fill="#C6AECC"/>
<path d="M163.822 0H127.281C126.573 0 126 0.57664 126 1.28796V1.71572C126 2.42704 126.573 3.00368 127.281 3.00368H163.822C164.529 3.00368 165.103 2.42704 165.103 1.71572V1.28796C165.103 0.57664 164.529 0 163.822 0Z" fill="#C6AECC"/>
<path d="M9.99766 50H1.28067C0.573377 50 0 50.5766 0 51.288V51.7157C0 52.427 0.573377 53.0037 1.28067 53.0037H9.99766C10.705 53.0037 11.2783 52.427 11.2783 51.7157V51.288C11.2783 50.5766 10.705 50 9.99766 50Z" fill="#C6AECC"/>
<path d="M43.2716 38H22.2807C21.5734 38 21 38.5766 21 39.288V39.7157C21 40.427 21.5734 41.0037 22.2807 41.0037H43.2716C43.9789 41.0037 44.5522 40.427 44.5522 39.7157V39.288C44.5522 38.5766 43.9789 38 43.2716 38Z" fill="#C6AECC"/>
<path d="M39.8219 16H3.28067C2.57338 16 2 16.5766 2 17.288V17.7157C2 18.427 2.57338 19.0037 3.28067 19.0037H39.8219C40.5292 19.0037 41.1026 18.427 41.1026 17.7157V17.288C41.1026 16.5766 40.5292 16 39.8219 16Z" fill="#C6AECC"/>
<path d="M63.8595 55.9182H46.2807C45.5734 55.9182 45 56.4949 45 57.2062V57.6339C45 58.3453 45.5734 58.9219 46.2807 58.9219H63.8595C64.5668 58.9219 65.1402 58.3453 65.1402 57.6339V57.2062C65.1402 56.4949 64.5668 55.9182 63.8595 55.9182Z" fill="#C6AECC"/>
</svg>
