<svg width="347" height="396" viewBox="0 0 347 396" fill="none" xmlns="http://www.w3.org/2000/svg">
<path d="M278.329 259.702C278.553 259.702 278.74 259.782 278.889 259.942C279.049 260.091 279.129 260.273 279.129 260.486C279.129 260.71 279.049 260.902 278.889 261.062C278.74 261.211 278.553 261.286 278.329 261.286C278.116 261.286 277.929 261.211 277.769 261.062C277.62 260.902 277.545 260.71 277.545 260.486C277.545 260.273 277.62 260.091 277.769 259.942C277.929 259.782 278.116 259.702 278.329 259.702ZM275.897 269.446C275.225 268.721 274.889 267.814 274.889 266.726C274.889 265.691 275.172 264.843 275.737 264.182C276.388 263.414 277.252 263.03 278.329 263.03C279.289 263.03 280.089 263.345 280.729 263.974C281.433 264.667 281.785 265.585 281.785 266.726C281.785 267.793 281.449 268.699 280.777 269.446H282.169V270.582H279.881H279.689C279.06 270.582 278.617 270.539 278.361 270.454H278.313C278.057 270.539 277.609 270.582 276.969 270.582H276.777H270.361C269.721 270.582 269.166 270.363 268.697 269.926C268.132 269.403 267.849 268.742 267.849 267.942V264.934L268.537 264.374H269.209V267.942C269.209 268.347 269.348 268.694 269.625 268.982C269.924 269.291 270.297 269.446 270.745 269.446H275.897ZM280.425 266.742C280.425 265.953 280.233 265.329 279.849 264.87C279.476 264.411 278.969 264.182 278.329 264.182C277.657 264.182 277.14 264.422 276.777 264.902C276.436 265.35 276.265 265.974 276.265 266.774C276.265 267.521 276.462 268.145 276.857 268.646C277.252 269.147 277.742 269.414 278.329 269.446C279.022 269.414 279.566 269.073 279.961 268.422C280.27 267.921 280.425 267.361 280.425 266.742ZM291.832 258.166C292.045 258.166 292.221 258.241 292.36 258.39C292.509 258.539 292.584 258.715 292.584 258.918C292.584 259.121 292.509 259.297 292.36 259.446C292.221 259.595 292.045 259.67 291.832 259.67C291.629 259.67 291.453 259.595 291.304 259.446C291.155 259.297 291.08 259.121 291.08 258.918C291.08 258.715 291.155 258.539 291.304 258.39C291.453 258.241 291.629 258.166 291.832 258.166ZM290.872 259.702C291.085 259.702 291.267 259.782 291.416 259.942C291.576 260.091 291.656 260.273 291.656 260.486C291.656 260.71 291.576 260.902 291.416 261.062C291.267 261.211 291.085 261.286 290.872 261.286C290.648 261.286 290.456 261.211 290.296 261.062C290.147 260.902 290.072 260.71 290.072 260.486C290.072 260.273 290.147 260.091 290.296 259.942C290.456 259.782 290.648 259.702 290.872 259.702ZM292.808 259.702C293.021 259.702 293.203 259.782 293.352 259.942C293.512 260.091 293.592 260.273 293.592 260.486C293.592 260.71 293.512 260.902 293.352 261.062C293.203 261.211 293.021 261.286 292.808 261.286C292.595 261.286 292.408 261.211 292.248 261.062C292.099 260.902 292.024 260.71 292.024 260.486C292.024 260.273 292.099 260.091 292.248 259.942C292.408 259.782 292.595 259.702 292.808 259.702ZM297.272 263.222V269.062C297.272 269.201 297.256 269.329 297.224 269.446H298.088V270.582H297.448L297 270.022H296.952C296.653 270.395 296.28 270.582 295.832 270.582H292.68L292.232 270.022H292.184C291.885 270.395 291.512 270.582 291.064 270.582H287.912L287.464 270.022H287.416C287.117 270.395 286.744 270.582 286.296 270.582H282.056V269.446H285.768C286.173 269.446 286.376 269.243 286.376 268.838V265.062H287.736V269.062C287.736 269.201 287.725 269.329 287.704 269.446H290.536C290.941 269.446 291.144 269.243 291.144 268.838V264.134H292.504V269.062C292.504 269.201 292.488 269.329 292.456 269.446H295.304C295.709 269.446 295.912 269.243 295.912 268.838V263.222H297.272ZM299.61 259.702C299.834 259.702 300.021 259.782 300.17 259.942C300.32 260.091 300.394 260.273 300.394 260.486C300.394 260.71 300.32 260.902 300.17 261.062C300.021 261.211 299.834 261.286 299.61 261.286C299.397 261.286 299.21 261.211 299.05 261.062C298.901 260.902 298.826 260.71 298.826 260.486C298.826 260.273 298.901 260.091 299.05 259.942C299.21 259.782 299.397 259.702 299.61 259.702ZM301.562 259.702C301.776 259.702 301.957 259.782 302.106 259.942C302.266 260.091 302.346 260.273 302.346 260.486C302.346 260.71 302.266 260.902 302.106 261.062C301.957 261.211 301.776 261.286 301.562 261.286C301.338 261.286 301.146 261.211 300.986 261.062C300.837 260.902 300.762 260.71 300.762 260.486C300.762 260.273 300.837 260.091 300.986 259.942C301.146 259.782 301.338 259.702 301.562 259.702ZM302.202 263.222V269.062C302.202 269.19 302.186 269.318 302.154 269.446H303.002V270.582H302.378L301.914 270.022H301.866C301.578 270.395 301.205 270.582 300.746 270.582H297.962V269.446H300.234C300.405 269.446 300.544 269.393 300.65 269.286C300.778 269.169 300.842 269.019 300.842 268.838V263.222H302.202ZM310.116 258.886V260.134L306.1 262.518C307.764 262.966 309.076 263.798 310.036 265.014C310.911 266.123 311.348 267.403 311.348 268.854C311.348 269.366 311.215 269.782 310.948 270.102C310.682 270.422 310.335 270.582 309.908 270.582H302.884V269.446H309.38C309.796 269.446 310.004 269.233 310.004 268.806C309.951 267.697 309.626 266.721 309.028 265.878C308.175 264.641 306.81 263.894 304.932 263.638C304.868 263.638 304.836 263.601 304.836 263.526V261.942L310.116 258.886ZM314.693 259.126V270.422L314.005 270.982H313.333V259.126H314.693ZM273.563 277.702C273.776 277.702 273.957 277.782 274.107 277.942C274.267 278.091 274.347 278.273 274.347 278.486C274.347 278.71 274.267 278.902 274.107 279.062C273.957 279.211 273.776 279.286 273.563 279.286C273.349 279.286 273.163 279.211 273.003 279.062C272.853 278.902 272.779 278.71 272.779 278.486C272.779 278.273 272.853 278.091 273.003 277.942C273.163 277.782 273.349 277.702 273.563 277.702ZM275.499 277.702C275.723 277.702 275.909 277.782 276.059 277.942C276.219 278.091 276.299 278.273 276.299 278.486C276.299 278.71 276.219 278.902 276.059 279.062C275.909 279.211 275.723 279.286 275.499 279.286C275.285 279.286 275.099 279.211 274.939 279.062C274.789 278.902 274.715 278.71 274.715 278.486C274.715 278.273 274.789 278.091 274.939 277.942C275.099 277.782 275.285 277.702 275.499 277.702ZM276.299 280.79V285.83C276.299 286.694 276.053 287.377 275.563 287.878C275.019 288.443 274.197 288.726 273.099 288.726C272.139 288.726 271.36 288.481 270.763 287.99C269.963 287.329 269.563 286.331 269.563 284.998C269.563 283.793 269.931 282.801 270.667 282.022C271.349 281.307 272.203 280.95 273.227 280.95C273.792 280.95 274.363 281.078 274.939 281.334L275.627 280.79H276.299ZM274.939 282.454C274.469 282.219 273.995 282.102 273.515 282.102C272.672 282.102 272.011 282.433 271.531 283.094C271.125 283.627 270.923 284.267 270.923 285.014C270.923 285.835 271.115 286.47 271.499 286.918C271.883 287.366 272.416 287.59 273.099 287.59C273.739 287.59 274.208 287.425 274.507 287.094C274.795 286.774 274.939 286.347 274.939 285.814V282.454ZM281.76 281.222V288.438C281.76 289.622 281.424 290.555 280.752 291.238C280.23 291.771 279.526 292.123 278.64 292.294C278.299 292.358 277.926 292.39 277.52 292.39C277.264 292.39 277.019 292.385 276.784 292.374L276.256 291.718V291.206C276.566 291.249 276.902 291.27 277.264 291.27C279.355 291.27 280.4 290.31 280.4 288.39V281.222H281.76ZM285.35 277.126V286.838C285.35 287.009 285.403 287.153 285.51 287.27C285.627 287.387 285.776 287.446 285.958 287.446H286.166V288.582H285.43C285.088 288.582 284.79 288.47 284.534 288.246C284.171 287.937 283.99 287.542 283.99 287.062V277.126H285.35ZM290.296 281.222V287.062C290.296 287.19 290.28 287.318 290.248 287.446H291.096V288.582H290.472L290.008 288.022H289.96C289.672 288.395 289.299 288.582 288.84 288.582H286.056V287.446H288.328C288.499 287.446 288.637 287.393 288.744 287.286C288.872 287.169 288.936 287.019 288.936 286.838V281.222H290.296ZM287.56 290.246C287.773 290.246 287.955 290.321 288.104 290.47C288.264 290.63 288.344 290.817 288.344 291.03C288.344 291.254 288.264 291.441 288.104 291.59C287.955 291.75 287.773 291.83 287.56 291.83C287.347 291.83 287.16 291.75 287 291.59C286.851 291.441 286.776 291.254 286.776 291.03C286.776 290.817 286.851 290.63 287 290.47C287.16 290.321 287.347 290.246 287.56 290.246ZM289.496 290.246C289.72 290.246 289.907 290.321 290.056 290.47C290.216 290.63 290.296 290.817 290.296 291.03C290.296 291.254 290.216 291.441 290.056 291.59C289.907 291.75 289.72 291.83 289.496 291.83C289.283 291.83 289.096 291.75 288.936 291.59C288.787 291.441 288.712 291.254 288.712 291.03C288.712 290.817 288.787 290.63 288.936 290.47C289.096 290.321 289.283 290.246 289.496 290.246ZM306.194 281.222V287.062C306.194 287.201 306.178 287.329 306.146 287.446H307.01V288.582H306.37L305.922 288.022H305.874C305.575 288.395 305.202 288.582 304.754 288.582H301.602L301.154 288.022H301.106C300.807 288.395 300.434 288.582 299.986 288.582H296.834L296.386 288.022H296.338C296.039 288.395 295.666 288.582 295.218 288.582H290.978V287.446H294.69C295.095 287.446 295.298 287.243 295.298 286.838V283.062H296.658V287.062C296.658 287.201 296.647 287.329 296.626 287.446H299.458C299.863 287.446 300.066 287.243 300.066 286.838V282.134H301.426V287.062C301.426 287.201 301.41 287.329 301.378 287.446H304.226C304.631 287.446 304.834 287.243 304.834 286.838V281.222H306.194ZM311.124 277.126V287.062C311.124 287.478 310.986 287.83 310.708 288.118C310.42 288.427 310.074 288.582 309.668 288.582H306.884V287.446H309.156C309.359 287.446 309.514 287.377 309.62 287.238C309.716 287.121 309.764 286.987 309.764 286.838V277.126H311.124ZM314.693 277.126V288.422L314.005 288.982H313.333V277.126H314.693Z" fill="#46194F"/>
<path d="M133.023 380.682V391.994C133.023 393.274 132.633 394.261 131.855 394.954C131.097 395.626 130.073 395.962 128.783 395.962H127.007C125.737 395.962 124.724 395.637 123.967 394.986C123.156 394.293 122.751 393.296 122.751 391.994V388.65L123.439 388.09H124.111V391.962C124.111 393.029 124.388 393.77 124.943 394.186C125.508 394.613 126.489 394.826 127.887 394.826C129.22 394.826 130.159 394.645 130.703 394.282C131.343 393.845 131.663 393.072 131.663 391.962V380.682H133.023ZM138.771 381.258C138.984 381.258 139.166 381.338 139.315 381.498C139.475 381.648 139.555 381.829 139.555 382.042C139.555 382.266 139.475 382.458 139.315 382.618C139.166 382.768 138.984 382.842 138.771 382.842C138.558 382.842 138.371 382.768 138.211 382.618C138.062 382.458 137.987 382.266 137.987 382.042C137.987 381.829 138.062 381.648 138.211 381.498C138.371 381.338 138.558 381.258 138.771 381.258ZM139.443 384.778V391.002H140.259V392.138H139.443C139.411 393.248 139.075 394.133 138.435 394.794C137.912 395.328 137.198 395.68 136.291 395.85C135.95 395.914 135.587 395.946 135.203 395.946C134.947 395.946 134.702 395.941 134.467 395.93L133.939 395.274V394.762C134.248 394.805 134.584 394.826 134.947 394.826C137.038 394.826 138.083 393.866 138.083 391.946V384.778H139.443ZM143.697 381.258C143.921 381.258 144.108 381.338 144.257 381.498C144.417 381.648 144.497 381.829 144.497 382.042C144.497 382.266 144.417 382.458 144.257 382.618C144.108 382.768 143.921 382.842 143.697 382.842C143.484 382.842 143.297 382.768 143.137 382.618C142.988 382.458 142.913 382.266 142.913 382.042C142.913 381.829 142.988 381.648 143.137 381.498C143.297 381.338 143.484 381.258 143.697 381.258ZM144.385 384.778V390.618C144.385 390.746 144.369 390.874 144.337 391.002H145.185V392.138H144.561L144.097 391.578H144.049C143.761 391.952 143.388 392.138 142.929 392.138H140.145V391.002H142.417C142.588 391.002 142.727 390.949 142.833 390.842C142.961 390.725 143.025 390.576 143.025 390.394V384.778H144.385ZM148.219 391.002C147.782 390.288 147.563 389.472 147.563 388.554C147.563 387.264 147.926 386.266 148.651 385.562C149.302 384.944 150.16 384.624 151.227 384.602C151.995 384.602 152.63 384.768 153.131 385.098C153.899 385.61 154.283 386.41 154.283 387.498V390.394C154.283 390.544 154.32 390.672 154.395 390.778C154.491 390.917 154.619 390.992 154.779 391.002H154.811V392.138H154.411C153.931 392.138 153.547 391.952 153.259 391.578C152.683 392.272 151.952 392.618 151.067 392.618C150.139 392.618 149.334 392.272 148.651 391.578H148.619L148.171 392.138H145.067V391.002H148.219ZM152.923 387.498C152.923 386.944 152.747 386.501 152.395 386.17C152.086 385.882 151.686 385.738 151.195 385.738C150.512 385.738 149.963 385.994 149.547 386.506C149.131 387.008 148.923 387.669 148.923 388.49C148.923 389.354 149.142 390.074 149.579 390.65C149.995 391.205 150.518 391.482 151.147 391.482C151.766 391.482 152.358 391.2 152.923 390.634V387.498ZM158.916 380.682V390.618C158.916 390.746 158.9 390.874 158.868 391.002H159.716V392.138H159.156L158.628 391.578H158.58C158.292 391.952 157.919 392.138 157.46 392.138H154.676V391.002H156.948C157.151 391.002 157.311 390.922 157.428 390.762C157.514 390.656 157.556 390.533 157.556 390.394V380.682H158.916ZM163.838 380.682V390.618C163.838 391.034 163.7 391.386 163.422 391.674C163.134 391.984 162.788 392.138 162.382 392.138H159.598V391.002H161.87C162.073 391.002 162.228 390.933 162.334 390.794C162.43 390.677 162.478 390.544 162.478 390.394V380.682H163.838ZM179.257 380.682V391.002H180.073V392.138H179.257C179.225 393.344 178.836 394.282 178.089 394.954C177.332 395.626 176.308 395.962 175.017 395.962H173.241C171.972 395.962 170.958 395.637 170.201 394.986C169.39 394.293 168.985 393.296 168.985 391.994V388.65L169.673 388.09H170.345V391.962C170.345 393.029 170.622 393.77 171.177 394.186C171.742 394.613 172.724 394.826 174.121 394.826C175.454 394.826 176.393 394.645 176.937 394.282C177.577 393.845 177.897 393.072 177.897 391.962V380.682H179.257ZM184.182 384.778V390.618C184.182 390.746 184.166 390.874 184.134 391.002H184.982V392.138H184.358L183.894 391.578H183.846C183.558 391.952 183.185 392.138 182.726 392.138H179.942V391.002H182.214C182.385 391.002 182.523 390.949 182.63 390.842C182.758 390.725 182.822 390.576 182.822 390.394V384.778H184.182ZM181.446 393.802C181.659 393.802 181.841 393.877 181.99 394.026C182.15 394.186 182.23 394.373 182.23 394.586C182.23 394.81 182.15 394.997 181.99 395.146C181.841 395.306 181.659 395.386 181.446 395.386C181.233 395.386 181.046 395.306 180.886 395.146C180.737 394.997 180.662 394.81 180.662 394.586C180.662 394.373 180.737 394.186 180.886 394.026C181.046 393.877 181.233 393.802 181.446 393.802ZM183.382 393.802C183.606 393.802 183.793 393.877 183.942 394.026C184.102 394.186 184.182 394.373 184.182 394.586C184.182 394.81 184.102 394.997 183.942 395.146C183.793 395.306 183.606 395.386 183.382 395.386C183.169 395.386 182.982 395.306 182.822 395.146C182.673 394.997 182.598 394.81 182.598 394.586C182.598 394.373 182.673 394.186 182.822 394.026C182.982 393.877 183.169 393.802 183.382 393.802ZM189.104 388.282C190.565 385.808 192.469 384.57 194.816 384.57C196.107 384.57 197.141 384.97 197.92 385.77C198.624 386.485 198.976 387.392 198.976 388.49V390.618C198.976 391.066 198.821 391.44 198.512 391.738C198.235 392.005 197.909 392.138 197.536 392.138H184.864V391.002H187.744V384.778H189.104V388.282ZM197.616 388.346C197.605 387.482 197.285 386.816 196.656 386.346C196.123 385.952 195.456 385.754 194.656 385.754C193.792 385.754 192.976 386.005 192.208 386.506C190.928 387.36 189.893 388.858 189.104 391.002H197.008C197.413 391.002 197.616 390.8 197.616 390.394V388.346ZM204.361 392.138C203.145 392.138 202.212 391.733 201.561 390.922C201.017 390.25 200.745 389.386 200.745 388.33C200.745 387.125 201.108 386.186 201.833 385.514C202.484 384.896 203.343 384.586 204.409 384.586C205.241 384.586 205.935 384.794 206.489 385.21C207.161 385.733 207.497 386.496 207.497 387.498V391.002H208.009V392.138H207.497C207.455 393.258 207.119 394.138 206.489 394.778C206.009 395.269 205.385 395.605 204.617 395.786C204.18 395.893 203.721 395.946 203.241 395.946C202.985 395.946 202.74 395.941 202.505 395.93L201.977 395.274V394.762C202.297 394.805 202.633 394.826 202.985 394.826C205.023 394.826 206.068 393.93 206.121 392.138H204.361ZM206.121 387.498C206.121 386.954 205.961 386.522 205.641 386.202C205.332 385.893 204.921 385.738 204.409 385.738C203.695 385.738 203.129 385.978 202.713 386.458C202.308 386.938 202.105 387.605 202.105 388.458C202.105 389.216 202.313 389.829 202.729 390.298C203.145 390.768 203.684 391.002 204.345 391.002H206.121V387.498ZM209.528 381.258C209.752 381.258 209.938 381.338 210.088 381.498C210.237 381.648 210.312 381.829 210.312 382.042C210.312 382.266 210.237 382.458 210.088 382.618C209.938 382.768 209.752 382.842 209.528 382.842C209.314 382.842 209.128 382.768 208.968 382.618C208.818 382.458 208.744 382.266 208.744 382.042C208.744 381.829 208.818 381.648 208.968 381.498C209.128 381.338 209.314 381.258 209.528 381.258ZM211.48 381.258C211.693 381.258 211.874 381.338 212.024 381.498C212.184 381.648 212.264 381.829 212.264 382.042C212.264 382.266 212.184 382.458 212.024 382.618C211.874 382.768 211.693 382.842 211.48 382.842C211.256 382.842 211.064 382.768 210.904 382.618C210.754 382.458 210.68 382.266 210.68 382.042C210.68 381.829 210.754 381.648 210.904 381.498C211.064 381.338 211.256 381.258 211.48 381.258ZM212.12 384.778V390.618C212.12 390.746 212.104 390.874 212.072 391.002H212.92V392.138H212.296L211.832 391.578H211.784C211.496 391.952 211.122 392.138 210.664 392.138H207.88V391.002H210.152C210.322 391.002 210.461 390.949 210.568 390.842C210.696 390.725 210.76 390.576 210.76 390.394V384.778H212.12ZM217.041 380.682V390.618C217.041 391.034 216.903 391.386 216.625 391.674C216.337 391.984 215.991 392.138 215.585 392.138H212.801V391.002H215.073C215.276 391.002 215.431 390.933 215.537 390.794C215.633 390.677 215.681 390.544 215.681 390.394V380.682H217.041ZM220.611 380.682V391.978L219.923 392.538H219.251V380.682H220.611Z" fill="#46194F"/>
<path d="M129.792 4.12C130.016 4.12 130.203 4.2 130.352 4.36C130.512 4.50933 130.592 4.69067 130.592 4.904C130.592 5.128 130.512 5.32 130.352 5.48C130.203 5.62933 130.016 5.704 129.792 5.704C129.579 5.704 129.392 5.62933 129.232 5.48C129.083 5.32 129.008 5.128 129.008 4.904C129.008 4.69067 129.083 4.50933 129.232 4.36C129.392 4.2 129.579 4.12 129.792 4.12ZM127.36 13.864C126.688 13.1387 126.352 12.232 126.352 11.144C126.352 10.1093 126.635 9.26133 127.2 8.6C127.851 7.832 128.715 7.448 129.792 7.448C130.752 7.448 131.552 7.76267 132.192 8.392C132.896 9.08533 133.248 10.0027 133.248 11.144C133.248 12.2107 132.912 13.1173 132.24 13.864H133.632V15H131.344H131.152C130.523 15 130.08 14.9573 129.824 14.872H129.776C129.52 14.9573 129.072 15 128.432 15H128.24H121.824C121.184 15 120.63 14.7813 120.16 14.344C119.595 13.8213 119.312 13.16 119.312 12.36V9.352L120 8.792H120.672V12.36C120.672 12.7653 120.811 13.112 121.088 13.4C121.387 13.7093 121.76 13.864 122.208 13.864H127.36ZM131.888 11.16C131.888 10.3707 131.696 9.74667 131.312 9.288C130.939 8.82933 130.432 8.6 129.792 8.6C129.12 8.6 128.603 8.84 128.24 9.32C127.899 9.768 127.728 10.392 127.728 11.192C127.728 11.9387 127.926 12.5627 128.32 13.064C128.715 13.5653 129.206 13.832 129.792 13.864C130.486 13.832 131.03 13.4907 131.424 12.84C131.734 12.3387 131.888 11.7787 131.888 11.16ZM143.295 2.584C143.509 2.584 143.685 2.65867 143.823 2.808C143.973 2.95733 144.047 3.13333 144.047 3.336C144.047 3.53867 143.973 3.71467 143.823 3.864C143.685 4.01333 143.509 4.088 143.295 4.088C143.093 4.088 142.917 4.01333 142.767 3.864C142.618 3.71467 142.543 3.53867 142.543 3.336C142.543 3.13333 142.618 2.95733 142.767 2.808C142.917 2.65867 143.093 2.584 143.295 2.584ZM142.335 4.12C142.549 4.12 142.73 4.2 142.879 4.36C143.039 4.50933 143.119 4.69067 143.119 4.904C143.119 5.128 143.039 5.32 142.879 5.48C142.73 5.62933 142.549 5.704 142.335 5.704C142.111 5.704 141.919 5.62933 141.759 5.48C141.61 5.32 141.535 5.128 141.535 4.904C141.535 4.69067 141.61 4.50933 141.759 4.36C141.919 4.2 142.111 4.12 142.335 4.12ZM144.271 4.12C144.485 4.12 144.666 4.2 144.815 4.36C144.975 4.50933 145.055 4.69067 145.055 4.904C145.055 5.128 144.975 5.32 144.815 5.48C144.666 5.62933 144.485 5.704 144.271 5.704C144.058 5.704 143.871 5.62933 143.711 5.48C143.562 5.32 143.487 5.128 143.487 4.904C143.487 4.69067 143.562 4.50933 143.711 4.36C143.871 4.2 144.058 4.12 144.271 4.12ZM148.735 7.64V13.48C148.735 13.6187 148.719 13.7467 148.687 13.864H149.551V15H148.911L148.463 14.44H148.415C148.117 14.8133 147.743 15 147.295 15H144.143L143.695 14.44H143.647C143.349 14.8133 142.975 15 142.527 15H139.375L138.927 14.44H138.879C138.581 14.8133 138.207 15 137.759 15H133.519V13.864H137.231C137.637 13.864 137.839 13.6613 137.839 13.256V9.48H139.199V13.48C139.199 13.6187 139.189 13.7467 139.167 13.864H141.999C142.405 13.864 142.607 13.6613 142.607 13.256V8.552H143.967V13.48C143.967 13.6187 143.951 13.7467 143.919 13.864H146.767C147.173 13.864 147.375 13.6613 147.375 13.256V7.64H148.735ZM156.658 3.304V4.552L152.642 6.936C154.306 7.384 155.618 8.216 156.578 9.432C157.452 10.5413 157.89 11.8213 157.89 13.272C157.89 13.5173 157.874 13.7147 157.842 13.864H158.386V15H158.066L157.602 14.44H157.57C157.25 14.8133 156.876 15 156.45 15H149.426V13.864H155.922C156.338 13.864 156.546 13.6507 156.546 13.224C156.492 12.1147 156.167 11.1387 155.57 10.296C154.716 9.05867 153.351 8.312 151.474 8.056C151.41 8.056 151.378 8.01867 151.378 7.944V6.36L156.658 3.304ZM159.902 4.12C160.126 4.12 160.312 4.2 160.462 4.36C160.611 4.50933 160.686 4.69067 160.686 4.904C160.686 5.128 160.611 5.32 160.462 5.48C160.312 5.62933 160.126 5.704 159.902 5.704C159.688 5.704 159.502 5.62933 159.342 5.48C159.192 5.32 159.118 5.128 159.118 4.904C159.118 4.69067 159.192 4.50933 159.342 4.36C159.502 4.2 159.688 4.12 159.902 4.12ZM161.854 4.12C162.067 4.12 162.248 4.2 162.398 4.36C162.558 4.50933 162.638 4.69067 162.638 4.904C162.638 5.128 162.558 5.32 162.398 5.48C162.248 5.62933 162.067 5.704 161.854 5.704C161.63 5.704 161.438 5.62933 161.278 5.48C161.128 5.32 161.054 5.128 161.054 4.904C161.054 4.69067 161.128 4.50933 161.278 4.36C161.438 4.2 161.63 4.12 161.854 4.12ZM162.494 7.64V13.48C162.494 13.608 162.478 13.736 162.446 13.864H163.294V15H162.67L162.206 14.44H162.158C161.87 14.8133 161.496 15 161.038 15H158.254V13.864H160.526C160.696 13.864 160.835 13.8107 160.942 13.704C161.07 13.5867 161.134 13.4373 161.134 13.256V7.64H162.494ZM178.392 7.64V13.48C178.392 13.896 178.248 14.2533 177.96 14.552C177.682 14.8507 177.346 15 176.952 15H173.864L173.352 14.44H173.304C173.005 14.8133 172.632 15 172.184 15H169.112L168.584 14.44H168.536C168.237 14.8133 167.864 15 167.416 15H163.176V13.864H166.888C167.293 13.864 167.496 13.6613 167.496 13.256V9.48H168.856V13.48C168.856 13.6187 168.845 13.7467 168.824 13.864H171.656C172.061 13.864 172.264 13.6613 172.264 13.256V8.552H173.624V13.48C173.624 13.6187 173.608 13.7467 173.576 13.864H176.424C176.829 13.864 177.032 13.6613 177.032 13.256V7.64H178.392ZM181.954 3.544V14.84L181.266 15.4H180.594V3.544H181.954ZM189.308 14.84C188.753 15.0427 188.172 15.144 187.564 15.144C186.412 15.144 185.5 14.7387 184.828 13.928C184.231 13.2133 183.932 12.3013 183.932 11.192C183.932 10.072 184.247 9.176 184.876 8.504C185.548 7.8 186.455 7.448 187.596 7.448C188.46 7.448 189.164 7.66667 189.708 8.104C190.359 8.62667 190.684 9.37867 190.684 10.36V14.856C190.673 16.2213 190.225 17.2507 189.34 17.944C188.892 18.296 188.353 18.5413 187.724 18.68C187.308 18.7653 186.876 18.808 186.428 18.808C186.172 18.808 185.927 18.8027 185.692 18.792L185.164 18.136V17.624C185.484 17.6667 185.82 17.688 186.172 17.688C188.252 17.688 189.297 16.7387 189.308 14.84ZM189.308 10.36C189.308 9.69867 189.073 9.20267 188.604 8.872C188.337 8.69067 188.001 8.6 187.596 8.6C186.881 8.6 186.316 8.84 185.9 9.32C185.495 9.8 185.292 10.4667 185.292 11.32C185.292 12.1307 185.527 12.7707 185.996 13.24C186.412 13.6773 186.967 13.896 187.66 13.896C188.268 13.896 188.817 13.8 189.308 13.608V10.36ZM200.601 7.448C200.814 7.448 200.996 7.528 201.145 7.688C201.305 7.83733 201.385 8.01867 201.385 8.232C201.385 8.456 201.305 8.648 201.145 8.808C200.996 8.95733 200.814 9.032 200.601 9.032C200.388 9.032 200.201 8.95733 200.041 8.808C199.892 8.648 199.817 8.456 199.817 8.232C199.817 8.01867 199.892 7.83733 200.041 7.688C200.201 7.528 200.388 7.448 200.601 7.448ZM205.881 7.64V14.856C205.881 16.136 205.492 17.1227 204.713 17.816C203.956 18.488 202.932 18.824 201.641 18.824H199.865C198.596 18.824 197.582 18.4987 196.825 17.848C196.014 17.1547 195.609 16.1573 195.609 14.856V11.512L196.297 10.952H196.969V14.824C196.969 15.8907 197.246 16.632 197.801 17.048C198.366 17.4747 199.348 17.688 200.745 17.688C202.078 17.688 203.017 17.5067 203.561 17.144C204.201 16.7067 204.521 15.9333 204.521 14.824V7.64H205.881ZM212.302 7.64V14.856C212.302 16.04 211.966 16.9733 211.294 17.656C210.771 18.1893 210.067 18.5413 209.182 18.712C208.84 18.776 208.467 18.808 208.062 18.808C207.806 18.808 207.56 18.8027 207.326 18.792L206.798 18.136V17.624C207.107 17.6667 207.443 17.688 207.806 17.688C209.896 17.688 210.942 16.728 210.942 14.808V7.64H212.302ZM215.891 3.544V13.256C215.891 13.4267 215.944 13.5707 216.051 13.688C216.168 13.8053 216.318 13.864 216.499 13.864H216.707V15H215.971C215.63 15 215.331 14.888 215.075 14.664C214.712 14.3547 214.531 13.96 214.531 13.48V3.544H215.891ZM221.877 4.12C222.091 4.12 222.272 4.2 222.421 4.36C222.581 4.50933 222.661 4.69067 222.661 4.904C222.661 5.128 222.581 5.32 222.421 5.48C222.272 5.62933 222.091 5.704 221.877 5.704C221.653 5.704 221.461 5.62933 221.301 5.48C221.152 5.32 221.077 5.128 221.077 4.904C221.077 4.69067 221.152 4.50933 221.301 4.36C221.461 4.2 221.653 4.12 221.877 4.12ZM223.813 4.12C224.037 4.12 224.224 4.2 224.373 4.36C224.523 4.50933 224.597 4.69067 224.597 4.904C224.597 5.128 224.523 5.32 224.373 5.48C224.224 5.62933 224.037 5.704 223.813 5.704C223.6 5.704 223.413 5.62933 223.253 5.48C223.104 5.32 223.029 5.128 223.029 4.904C223.029 4.69067 223.104 4.50933 223.253 4.36C223.413 4.2 223.6 4.12 223.813 4.12ZM220.181 13.864C219.776 13.4907 219.477 13.0267 219.285 12.472C219.136 12.024 219.061 11.5813 219.061 11.144C219.061 10.0027 219.403 9.096 220.085 8.424C220.757 7.77333 221.669 7.448 222.821 7.448C223.696 7.448 224.395 7.672 224.917 8.12C225.525 8.632 225.84 9.37867 225.861 10.36V13.48C225.861 13.896 225.717 14.2533 225.429 14.552C225.152 14.8507 224.816 15 224.421 15H216.597V13.864H220.181ZM224.485 10.36C224.485 9.76267 224.309 9.304 223.957 8.984C223.68 8.728 223.301 8.6 222.821 8.6C221.936 8.6 221.285 8.90933 220.869 9.528C220.571 9.95467 220.421 10.5093 220.421 11.192C220.432 11.9173 220.667 12.536 221.125 13.048C221.605 13.592 222.24 13.864 223.029 13.864H223.893C224.288 13.864 224.485 13.6613 224.485 13.256V10.36Z" fill="#46194F"/>
<path d="M26.4807 263.267V269.491H27.2967V270.627H26.4807C26.4487 271.961 25.974 272.958 25.0567 273.619C24.3207 274.163 23.366 274.435 22.1927 274.435C22.0114 274.435 21.782 274.43 21.5047 274.419L20.9767 273.763V273.251C21.286 273.294 21.622 273.315 21.9847 273.315C24.0754 273.315 25.1207 272.355 25.1207 270.435V263.267H26.4807ZM29.4068 265.875C29.7802 264.937 30.4042 264.206 31.2788 263.683C31.9828 263.278 32.7135 263.075 33.4708 263.075C34.2282 263.075 34.9535 263.278 35.6468 263.683C36.5322 264.206 37.1562 264.937 37.5188 265.875L37.3748 266.259C36.6388 266.569 36.0362 266.99 35.5668 267.523C35.0868 268.078 34.7828 268.734 34.6548 269.491H37.6788V270.627H34.4308C34.1108 270.627 33.8015 270.473 33.5028 270.163H33.4548C33.1668 270.473 32.8575 270.627 32.5268 270.627H27.1828V269.491H32.2868C32.1695 268.841 31.9028 268.227 31.4868 267.651C31.0068 267.054 30.3668 266.59 29.5668 266.259L29.4068 265.875ZM36.0468 265.715C35.6948 265.203 35.2948 264.819 34.8468 264.563C34.4202 264.339 33.9615 264.227 33.4708 264.227C32.9802 264.227 32.5375 264.329 32.1428 264.531C31.6735 264.766 31.2575 265.161 30.8948 265.715C31.4495 265.961 31.9242 266.307 32.3188 266.755C32.8095 267.31 33.1828 268.003 33.4388 268.835H33.4868C33.7535 267.971 34.1375 267.262 34.6388 266.707C35.0442 266.281 35.5135 265.95 36.0468 265.715ZM52.7895 263.267V269.107C52.7895 269.246 52.7735 269.374 52.7415 269.491H53.6055V270.627H52.9655L52.5175 270.067H52.4695C52.1708 270.441 51.7975 270.627 51.3495 270.627H48.1975L47.7495 270.067H47.7015C47.4028 270.441 47.0295 270.627 46.5815 270.627H43.4295L42.9815 270.067H42.9335C42.6348 270.441 42.2615 270.627 41.8135 270.627H37.5735V269.491H41.2855C41.6908 269.491 41.8935 269.289 41.8935 268.883V265.107H43.2535V269.107C43.2535 269.246 43.2428 269.374 43.2215 269.491H46.0535C46.4588 269.491 46.6615 269.289 46.6615 268.883V264.179H48.0215V269.107C48.0215 269.246 48.0055 269.374 47.9735 269.491H50.8215C51.2268 269.491 51.4295 269.289 51.4295 268.883V263.267H52.7895ZM57.7197 259.171V269.107C57.7197 269.523 57.581 269.875 57.3037 270.163C57.0157 270.473 56.669 270.627 56.2637 270.627H53.4797V269.491H55.7517C55.9544 269.491 56.109 269.422 56.2157 269.283C56.3117 269.166 56.3597 269.033 56.3597 268.883V259.171H57.7197ZM61.289 259.171V270.467L60.601 271.027H59.929V259.171H61.289ZM27.0798 281.267V287.107C27.0798 287.246 27.0638 287.374 27.0318 287.491H27.8958V288.627H27.3198L26.7918 288.067H26.7598C26.4612 288.441 26.0878 288.627 25.6398 288.627H16.4878C15.8905 288.627 15.3625 288.43 14.9038 288.035C14.2852 287.523 13.9758 286.841 13.9758 285.987V282.979L14.6638 282.419H15.3358V285.987C15.3358 286.403 15.4798 286.755 15.7678 287.043C16.0772 287.342 16.4452 287.491 16.8718 287.491H25.1118C25.2932 287.491 25.4478 287.427 25.5758 287.299C25.6718 287.193 25.7198 287.054 25.7198 286.883V281.267H27.0798ZM20.5358 290.291C20.7492 290.291 20.9305 290.366 21.0798 290.515C21.2398 290.675 21.3198 290.862 21.3198 291.075C21.3198 291.299 21.2398 291.486 21.0798 291.635C20.9305 291.795 20.7492 291.875 20.5358 291.875C20.3118 291.875 20.1198 291.795 19.9598 291.635C19.8105 291.486 19.7358 291.299 19.7358 291.075C19.7358 290.862 19.8105 290.675 19.9598 290.515C20.1198 290.366 20.3118 290.291 20.5358 290.291ZM42.977 281.267V287.107C42.977 287.523 42.833 287.881 42.545 288.179C42.2676 288.478 41.9316 288.627 41.537 288.627H38.449L37.937 288.067H37.889C37.5903 288.441 37.217 288.627 36.769 288.627H33.697L33.169 288.067H33.121C32.8223 288.441 32.449 288.627 32.001 288.627H27.761V287.491H31.473C31.8783 287.491 32.081 287.289 32.081 286.883V283.107H33.441V287.107C33.441 287.246 33.4303 287.374 33.409 287.491H36.241C36.6463 287.491 36.849 287.289 36.849 286.883V282.179H38.209V287.107C38.209 287.246 38.193 287.374 38.161 287.491H41.009C41.4143 287.491 41.617 287.289 41.617 286.883V281.267H42.977ZM46.539 277.171V286.883C46.539 287.054 46.5923 287.198 46.699 287.315C46.8163 287.433 46.9656 287.491 47.147 287.491H47.355V288.627H46.619C46.2776 288.627 45.979 288.515 45.723 288.291C45.3603 287.982 45.179 287.587 45.179 287.107V277.171H46.539ZM50.7973 277.747C51.0213 277.747 51.208 277.827 51.3573 277.987C51.5173 278.137 51.5973 278.318 51.5973 278.531C51.5973 278.755 51.5173 278.947 51.3573 279.107C51.208 279.257 51.0213 279.331 50.7973 279.331C50.584 279.331 50.3973 279.257 50.2373 279.107C50.088 278.947 50.0133 278.755 50.0133 278.531C50.0133 278.318 50.088 278.137 50.2373 277.987C50.3973 277.827 50.584 277.747 50.7973 277.747ZM51.4853 281.267V287.107C51.4853 287.235 51.4693 287.363 51.4373 287.491H52.2853V288.627H51.6613L51.1973 288.067H51.1493C50.8613 288.441 50.488 288.627 50.0293 288.627H47.2453V287.491H49.5173C49.688 287.491 49.8267 287.438 49.9333 287.331C50.0613 287.214 50.1253 287.065 50.1253 286.883V281.267H51.4853ZM55.3192 287.491C54.8819 286.777 54.6632 285.961 54.6632 285.043C54.6632 283.753 55.0259 282.755 55.7512 282.051C56.4019 281.433 57.2605 281.113 58.3272 281.091C59.0952 281.091 59.7299 281.257 60.2312 281.587C60.9992 282.099 61.3832 282.899 61.3832 283.987V286.883C61.3832 287.033 61.4205 287.161 61.4952 287.267C61.5912 287.406 61.7192 287.481 61.8792 287.491H61.9112V288.627H61.5112C61.0312 288.627 60.6472 288.441 60.3592 288.067C59.7832 288.761 59.0525 289.107 58.1672 289.107C57.2392 289.107 56.4339 288.761 55.7512 288.067H55.7192L55.2712 288.627H52.1672V287.491H55.3192ZM60.0232 283.987C60.0232 283.433 59.8472 282.99 59.4952 282.659C59.1859 282.371 58.7859 282.227 58.2952 282.227C57.6125 282.227 57.0632 282.483 56.6472 282.995C56.2312 283.497 56.0232 284.158 56.0232 284.979C56.0232 285.843 56.2419 286.563 56.6792 287.139C57.0952 287.694 57.6179 287.971 58.2472 287.971C58.8659 287.971 59.4579 287.689 60.0232 287.123V283.987ZM66.0166 277.171V287.107C66.0166 287.523 65.8779 287.875 65.6006 288.163C65.3126 288.473 64.9659 288.627 64.5606 288.627H61.7766V287.491H64.0486C64.2512 287.491 64.4059 287.422 64.5126 287.283C64.6086 287.166 64.6566 287.033 64.6566 286.883V277.171H66.0166ZM69.5858 277.171V288.467L68.8978 289.027H68.2258V277.171H69.5858Z" fill="#46194F"/>
<path d="M82.3748 246.14C86.5192 254.742 91.9527 262.621 98.4418 269.53C100.882 272.133 103.469 274.592 106.194 276.906" stroke="#46194F" stroke-width="2" stroke-miterlimit="10"/>
<path d="M85.9282 136.968C95.0619 124.294 106.492 113.202 119.672 104.217" stroke="#46194F" stroke-width="2" stroke-miterlimit="10"/>
<path d="M286.376 194.075C286.376 161.353 271.956 131.996 249.129 112.018" stroke="#46194F" stroke-width="2" stroke-miterlimit="10"/>
<path d="M53.3849 247.708C82.8686 247.708 106.77 223.807 106.77 194.323C106.77 164.839 82.8686 140.938 53.3849 140.938C23.9012 140.938 0 164.839 0 194.323C0 223.807 23.9012 247.708 53.3849 247.708Z" fill="#C5AECB"/>
<g clip-path="url(#clip0_177_2064)">
<path d="M47.4997 174.315H57.3053C57.3847 174.315 58.2283 174.573 58.4069 174.633C61.2057 175.605 62.4959 178.93 61.1064 181.56L70.1181 180.409C71.5472 178.364 72.3015 176.131 74.475 174.702C78.5938 171.983 84.2508 173.045 86.8015 177.332C89.1139 181.223 88.1611 184.855 85.6998 188.358L93.4808 194.67L93.6197 240.473C93.3815 243.212 91.2676 245.336 88.578 245.673C79.2587 245.147 69.1752 246.378 59.9552 245.673C58.2779 245.544 56.8686 244.542 55.102 244.522C47.1424 239.6 37.7338 235.421 30.0322 230.191C27.5114 228.474 26.4792 226.112 27.5114 223.105L38.498 203.791C37.5155 203.781 36.5131 203.642 35.6397 203.206C34.2105 202.511 33.9426 201.122 32.0569 200.953C29.6253 200.734 30.5682 201.419 29.3971 202.551C29.01 202.928 27.9381 203.484 27.4121 203.573C25.983 203.811 20.6435 203.801 19.1647 203.603C17.5668 203.384 16.0881 201.727 15.8995 200.149L15.8796 177.908C16.0682 176.25 17.6562 174.652 19.3235 174.464C20.8817 174.285 25.9532 174.245 27.4419 174.474C27.8984 174.543 29.0497 175.198 29.3971 175.526C30.3002 176.359 30.0918 177.789 31.7691 176.836C32.97 176.161 35.868 171.665 36.5329 170.295C37.843 167.616 37.972 165.323 38.766 162.634C39.9669 158.545 44.5124 159.259 46.7057 162.117C49.3854 165.621 48.0853 170.325 47.5195 174.295L47.4997 174.315ZM44.6712 174.315C44.83 171.218 46.7851 165.343 43.6985 163.189C43.1825 162.832 41.9419 162.306 41.6044 163.06C41.2273 163.904 41.0288 166.018 40.7311 167.12C39.7088 170.821 37.6643 174.692 35.1236 177.59C33.9525 178.92 32.6027 180.081 30.7071 179.982V198.184C31.8187 198.184 32.8112 198.094 33.883 198.452C35.3618 198.948 35.8878 200.357 37.3467 200.824L54.6157 200.794C55.4891 200.347 55.7173 199.216 55.0127 198.531C54.2286 197.767 51.6383 198.462 50.487 198.104C49.3358 197.747 49.3258 195.722 50.4473 195.395C52.3032 194.859 57.3549 196.576 57.5733 193.499C57.8313 189.976 52.1246 192.537 51.3406 190.72C49.9809 187.564 55.6082 188.686 57.1167 188.458C59.4093 188.1 59.3994 184.527 56.7793 184.23C55.5288 184.091 52.0353 184.855 52.1048 182.751C52.1941 180.081 57.0572 182.562 58.4566 180.438C59.2505 179.228 58.6153 177.521 57.1366 177.342C52.73 176.826 47.4104 177.799 42.9046 177.263C39.9172 176.072 42.19 173.69 44.6811 174.335L44.6712 174.315ZM73.8299 179.972L74.9613 180.171L83.2881 186.681C85.3723 184.15 86.1564 180.697 83.8241 178.027C80.8466 174.623 75.3881 175.853 73.8398 179.972H73.8299ZM73.2741 182.999L71.9343 183.207L69.0561 188.458C73.7406 189.619 73.0756 197.162 68.4209 197.807C62.0791 198.68 60.1636 190.373 66.0092 188.239L68.3515 183.515L61.7516 184.428C61.1858 184.607 61.6325 185.441 61.6424 185.897C61.6722 187.862 61.1362 189.321 59.5383 190.492C61.1263 192.745 60.5904 196.328 57.9504 197.499C59.0223 200.596 57.4839 203.494 54.1294 203.831C50.4176 204.198 45.9117 203.384 42.2793 203.831C42.0808 203.851 41.8922 203.831 41.7533 204.02L30.1414 224.216C29.7841 225.298 30.0025 226.529 30.7964 227.343L55.5486 241.634C56.6701 242.24 57.9206 241.912 58.8039 241.049L81.1444 202.451L73.2642 183.029L73.2741 182.999ZM61.1064 242.865H88.3993C88.6375 242.865 89.7789 242.23 89.9972 241.991C90.4041 241.565 90.7217 240.711 90.7813 240.126V195.99L77.5318 185.798L84.2409 202.154L84.2111 202.799L78.2464 213.269C80.9161 213.319 83.308 214.867 83.8241 217.587C83.6653 222.281 84.3104 227.551 83.9134 232.176C83.7149 234.528 82.1766 236.265 79.9137 236.84L64.7687 236.89L61.1164 242.865H61.1064ZM65.5229 191.991C64.4808 196.864 71.7656 195.196 68.6095 191.286C68.4309 191.991 69.0164 192.686 68.808 193.41C68.5301 194.343 67.1307 194.79 66.3963 194.035L65.5229 192.001V191.991ZM66.2276 234.032H79.3877C80.1817 234.032 80.9558 232.702 81.0551 231.987C81.6109 227.888 80.6879 222.638 81.0551 218.41C80.6482 215.939 78.5739 216.286 76.5989 216.396L66.2276 234.032Z" fill="#46194F"/>
<path d="M38.2698 222.936C39.034 222.767 39.4013 223.095 40.0265 223.402C45.108 225.864 50.0405 229.605 55.1617 232.116C56.8191 233.059 55.9259 235.411 54.0303 234.836L37.7935 225.457C36.8804 224.792 37.1484 223.184 38.2698 222.936Z" fill="#46194F"/>
<path fill-rule="evenodd" clip-rule="evenodd" d="M46.5965 209.289L51.8963 210.887L56.5609 202.392C57.3053 202.015 58.5756 201.836 59.3696 201.806L54.0401 211.513L56.5907 212.307L60.2231 205.697C60.9079 205.359 62.2478 205.181 63.0219 205.151L58.7444 212.942L64.7786 214.778C64.332 215.651 63.7563 216.326 62.9623 216.723L57.5732 215.076L56.3922 217.239L62.4463 219.115C61.9997 219.988 61.424 220.663 60.63 221.06L53.0774 218.728L54.2485 216.604L55.4196 214.44L52.8888 213.637L51.3405 216.455C50.5565 217.08 49.4251 217.507 48.6311 217.874C48.4128 217.974 48.3929 218.043 48.1646 217.974L40.9692 215.79C41.2571 215.175 41.8029 214.47 42.8152 213.885L49.1968 215.83L50.7451 213.011L44.7605 211.195C45.0483 210.58 45.5941 209.875 46.6065 209.289H46.5965ZM52.6407 221.06L60.0941 223.392C59.6475 224.266 58.9627 224.881 58.2779 225.338L50.7153 223.005C51.1321 222.321 51.7574 221.675 52.6307 221.06H52.6407Z" fill="#46194F"/>
</g>
<path d="M293.562 247.708C323.046 247.708 346.947 223.807 346.947 194.323C346.947 164.839 323.046 140.938 293.562 140.938C264.078 140.938 240.177 164.839 240.177 194.323C240.177 223.807 264.078 247.708 293.562 247.708Z" fill="#C5AECB"/>
<path d="M295.915 158.624L300.083 159.19C313.918 161.711 325.232 172.429 328.348 186.145L329.291 192.001C329.222 193.529 329.391 195.127 329.291 196.645C327.733 220.941 302.415 236.95 279.797 227.124C278.596 226.608 276.591 225.229 275.619 224.931C275.003 224.742 274.338 224.802 273.882 225.278C267.659 230.975 262.012 237.873 255.739 243.44C246.966 251.231 237.101 243.222 243.185 233.645L263.004 213.557C263.084 213.14 263.084 212.704 262.965 212.297C262.667 211.324 261.297 209.319 260.771 208.118C250.946 185.5 266.954 160.182 291.25 158.624H295.895H295.915ZM293.126 167.963C272.443 168.33 260.196 191.385 271.48 208.783C281.633 224.445 304.817 224.703 315.327 209.26C327.336 191.614 314.474 167.586 293.136 167.963H293.126Z" fill="#46194F"/>
<mask id="mask0_177_2064" style="mask-type:luminance" maskUnits="userSpaceOnUse" x="267" y="167" width="53" height="54">
<path d="M293.126 167.963C272.443 168.33 260.196 191.385 271.48 208.783C281.633 224.444 304.817 224.703 315.327 209.26C327.336 191.614 314.474 167.586 293.136 167.963H293.126Z" fill="white"/>
</mask>
<g mask="url(#mask0_177_2064)">
<path d="M336.656 184.756H339.137C339.315 184.14 339.375 183.446 339.117 182.84C337.767 182.87 336.149 182.751 336.388 180.964C336.586 179.515 338.69 179.615 339.762 179.912C342.045 180.548 342.442 182.88 342.154 184.944C341.866 187.009 339.673 187.932 337.757 187.852C339.623 189.877 341.598 191.822 342.342 194.571C342.948 196.784 342.978 203.92 342.71 206.312C342.531 207.88 341.499 209.061 340.268 209.935C340.348 212.932 340.556 216.564 336.943 217.507C335.385 217.914 330.125 217.884 328.706 217.18C327.833 216.753 326.314 215.026 326.314 214.053V210.54H297.91V214.053C297.91 215.026 296.391 216.753 295.518 217.18C294.098 217.884 288.838 217.914 287.28 217.507C283.668 216.564 283.876 212.932 283.955 209.935C282.725 209.061 281.693 207.88 281.514 206.312C281.236 203.92 281.276 196.774 281.881 194.571C282.635 191.802 284.581 189.887 286.466 187.852C284.551 187.932 282.358 187.088 282.07 184.944C281.782 182.8 282.179 180.557 284.462 179.912C285.533 179.615 287.647 179.515 287.836 180.964C288.074 182.741 286.456 182.86 285.107 182.84C284.849 183.446 284.908 184.13 285.087 184.756H287.568C288.084 182.751 288.66 180.696 289.325 178.721C291.032 173.64 293.741 170.504 299.359 169.859C307.675 170.266 316.479 169.343 324.746 169.859C333.013 170.375 334.512 177.59 336.606 184.21C336.665 184.388 336.685 184.577 336.665 184.766L336.656 184.756ZM339.831 201.588V197.102C339.831 193.063 336.308 191.733 334.978 188.993C331.882 182.582 333.341 173.332 323.773 172.757C315.714 172.28 307.05 173.005 298.962 172.915C291.449 174.126 291.726 183.575 289.255 189.132C287.896 190.919 284.541 193.886 284.541 196.278V201.588H291.508C292.034 201.588 292.818 200.784 292.927 200.248C293.027 199.752 293.027 198.184 292.967 197.658C292.689 195.325 288.977 196.268 287.379 196.08C285.801 195.891 285.663 193.4 287.518 193.182C288.65 193.043 291.766 193.082 292.798 193.42C296.778 194.71 297.116 201.36 293.999 203.662C293.721 203.871 292.491 204.486 292.203 204.486H284.551C284.591 205.141 284.432 205.875 284.68 206.501C284.779 206.749 285.514 207.523 285.722 207.523H301.373V202.491C301.373 201.995 301.969 201.221 302.505 201.131L321.441 201.032C321.947 200.963 322.89 201.796 322.89 202.203V207.513H338.541C338.541 207.513 339.157 207.176 339.236 207.106C339.693 206.679 340.01 205.29 339.831 204.714L339.643 204.486H332.06C330.502 204.486 328.567 202.054 328.408 200.556C328.091 197.678 328.428 194.412 331.584 193.39C332.557 193.073 335.812 193.053 336.894 193.172C338.601 193.37 338.601 195.871 336.894 196.07C335.405 196.248 332.477 195.494 331.604 196.983C331.128 197.797 331.137 200.05 331.723 200.824C331.862 201.012 332.596 201.578 332.755 201.578H339.861L339.831 201.588ZM319.833 204.069H304.39V207.513H319.833V204.069ZM294.873 210.55H287.012V213.656C287.012 214.212 288.094 214.649 288.59 214.698C289.722 214.808 292.451 214.827 293.553 214.679C293.94 214.629 294.873 214.172 294.873 213.795V210.55ZM337.211 210.55H329.351V213.795C329.351 214.153 330.314 214.629 330.671 214.679C331.733 214.827 334.522 214.798 335.633 214.698C336.13 214.649 337.211 214.222 337.211 213.656V210.55Z" fill="#46194F"/>
<path d="M294.148 184.795L329.837 184.766C332.021 185.014 331.614 187.941 329.43 187.803H294.803C292.759 187.882 292.183 185.401 294.148 184.795Z" fill="#46194F"/>
<path d="M299.527 193.202L324.795 193.241C325.947 193.886 325.917 195.315 324.766 195.961L299.904 196.07C298.356 195.802 298.098 193.866 299.527 193.202Z" fill="#46194F"/>
</g>
<path d="M169.742 368.293C140.258 368.293 116.357 344.392 116.357 314.908C116.357 285.424 140.258 261.523 169.742 261.523C199.226 261.523 223.127 285.424 223.127 314.908C223.127 344.392 199.226 368.293 169.742 368.293Z" fill="#C5AECB"/>
<path d="M236.208 330.867C234.858 334.599 230.779 333.199 227.682 333.408C225.102 320.585 207.515 320.595 205.074 333.447L162.973 333.408C162.715 333.318 161.991 330.649 161.673 330.003C157.584 321.746 145.625 321.667 141.407 329.864C140.792 331.055 140.633 332.336 140.027 333.408C136.782 333.12 132.534 333.904 129.408 333.388C128.277 333.199 127.115 332.167 126.828 331.046C126.54 329.924 126.52 324.585 126.778 323.374C127.036 322.163 128.187 321.121 129.368 320.833L211.118 320.654C211.962 320.376 212.359 319.642 212.468 318.789V292.488C212.656 291.009 213.966 289.868 215.405 289.63C217.241 289.322 223.246 289.372 225.171 289.6C227.097 289.828 228.536 291.119 229.409 292.855C231.97 297.967 233.439 304.189 235.999 309.37V316.962H230.967C230.054 316.962 228.556 318.451 228.139 319.275C225.558 324.356 231.712 328.177 236.208 327.234V330.867ZM221.717 312.179C222.204 312.397 231.424 312.377 232.446 312.228C234.878 311.891 234.897 308.854 232.625 308.447C229.31 307.852 224.596 308.794 221.132 308.387L219.991 307.385C220.11 304.517 219.683 301.262 219.941 298.433C220.259 294.93 225.35 297.718 227.305 296.17C228.278 295.396 228.03 293.371 226.858 293.034C226.154 292.826 221.856 292.895 220.904 292.984C218.899 293.163 217.212 294.731 216.636 296.627C216.1 298.403 216.07 306.422 216.636 308.179C217.073 309.539 218.254 310.908 219.584 311.434C220.407 311.752 220.953 311.831 221.717 312.179ZM217.321 314.432C217.132 314.491 216.616 314.958 216.517 315.126C216.209 315.672 216.199 319.265 216.328 320.039C216.616 321.855 219.484 321.875 219.911 320.009C220.06 319.334 220.05 316.724 219.941 316C219.733 314.65 218.611 314.045 217.321 314.422V314.432Z" fill="#46194F"/>
<path d="M236.208 321.022V323.165C235.433 323.949 234.451 323.741 233.468 323.443C232.486 323.145 230.203 321.825 231.513 320.714C232.158 320.158 235.582 320.099 236.208 321.031V321.022Z" fill="#46194F"/>
<path d="M215.187 327.492C226.471 325.845 227.543 342.806 216.834 343.273C207.059 343.699 205.739 328.872 215.187 327.492Z" stroke="#46194F" stroke-width="3" stroke-miterlimit="10"/>
<path d="M157.197 329.656C164.681 337.149 153.158 348.106 145.933 340.593C138.708 333.07 150.111 322.56 157.197 329.656Z" stroke="#46194F" stroke-width="3" stroke-miterlimit="10"/>
<path d="M206.503 313.201L205.908 313.241C204.856 313.31 203.883 312.605 203.684 311.563C201.928 302.184 187.984 302.532 186.832 312.05C186.703 313.092 185.79 313.856 184.738 313.856H159.42C158.378 313.856 157.455 313.102 157.326 312.06C156.145 302.333 141.963 302.284 140.434 311.782C140.226 313.082 138.896 313.866 137.646 313.449C135.641 312.764 133.745 311.395 131.8 310.521C131.185 310.243 130.748 309.668 130.629 309.003C130.48 308.209 130.381 307.276 130.41 306.988C130.49 306.214 131.75 305.142 132.157 304.15C132.564 303.157 132.882 300.289 133.477 299.932C134.42 299.346 137.149 299.822 138.569 299.485C141.973 298.691 147.014 295.515 150.488 294.066C156.582 291.535 165.246 289.719 171.28 293.103C174.337 294.82 179.29 300.19 182.188 300.735C184.867 301.242 188.609 300.676 191.467 300.845C196.846 301.162 202.533 302.552 207.297 305.082C207.942 305.43 208.349 306.095 208.389 306.829C208.448 308.04 208.528 309.797 208.478 311.146C208.438 312.228 207.585 313.102 206.503 313.181V313.201Z" stroke="#46194F" stroke-width="2" stroke-miterlimit="10"/>
<path d="M194.96 309.113C191.547 309.45 189.912 313.505 192.178 316.035L192.409 316.275C195.816 319.559 201.194 315.328 198.913 311.285C198.552 310.65 197.941 310.063 197.216 309.656C196.581 309.299 195.888 309.096 195.236 309.099L194.96 309.113Z" fill="#46194F" stroke="#46194F"/>
<path d="M151.74 310.286C150.702 309.341 149.598 309.032 148.592 309.126C147.574 309.221 146.616 309.732 145.902 310.492C145.187 311.252 144.736 312.239 144.701 313.258C144.669 314.202 144.993 315.207 145.853 316.124L146.032 316.305C147.03 317.274 148.115 317.586 149.119 317.488C150.138 317.388 151.113 316.861 151.847 316.081C152.581 315.301 153.048 314.296 153.088 313.276C153.128 312.27 152.755 311.212 151.74 310.286Z" fill="#46194F" stroke="#46194F"/>
<path d="M176.699 134.566C147.215 134.566 123.314 110.665 123.314 81.1815C123.314 51.6979 147.215 27.7966 176.699 27.7966C206.183 27.7966 230.084 51.6979 230.084 81.1815C230.084 110.665 206.183 134.566 176.699 134.566Z" fill="#C5AECB"/>
<path d="M160.8 69.5101C160.333 70.2445 159.728 70.8996 159.232 71.6241C156.046 76.3184 154.964 82.5313 156.215 88.0395C158.1 96.3663 164.859 102.728 173.255 104.207L173.275 107.938C172.372 107.948 171.171 107.78 170.953 108.931V130.736C171.935 137.633 181.552 137.713 182.624 130.815L182.644 108.931C182.436 107.819 181.195 107.929 180.322 107.938L180.342 104.207C188.728 102.728 195.427 96.4259 197.362 88.1288C198.653 82.6008 197.571 76.3482 194.365 71.634C193.869 70.9095 193.263 70.2545 192.797 69.52C192.053 68.8452 191.388 68.0214 190.643 67.3664C183.021 60.7069 170.794 60.5084 163.162 67.3068L160.8 69.52V69.5101ZM164.075 69.5994C174.853 59.7442 192.321 65.2822 195.199 79.8318C197.809 93.0316 185.711 104.673 172.61 101.616C158.418 98.3116 153.396 81.1121 163.082 70.5423L164.075 69.5994ZM175.766 104.465L178.009 104.445L177.93 107.929H175.697C175.756 107.472 175.588 104.594 175.776 104.465H175.766ZM173.355 110.36H180.242L180.322 114.985H173.275L173.355 110.36ZM173.285 117.387H180.332L180.312 130.15C179.935 134.884 173.394 134.666 173.275 129.902V117.387H173.285Z" fill="#46194F"/>
<path d="M166.229 70.7606C156.244 79.2561 159.619 95.483 172.283 99.1452C184.947 102.807 196.271 90.9673 192.519 78.5813C189.115 67.3664 175.131 63.1881 166.239 70.7507L166.229 70.7606ZM167.39 72.9143C175.627 65.5402 188.857 70.1155 190.663 81.0724C192.291 90.9077 183.388 99.2445 173.682 97.061C162.606 94.5699 158.954 80.457 167.38 72.9143H167.39Z" fill="#46194F"/>
<mask id="mask1_177_2064" style="mask-type:luminance" maskUnits="userSpaceOnUse" x="178" y="51" width="77" height="56">
<path d="M192.221 69.0337L178.009 63.2179L187.209 51.5861H254.072V106.192H180.342L179.111 103.433L191.606 97.8947C195.348 94.0936 197.402 89.1213 197.402 83.3551C197.402 77.5888 195.973 72.8349 192.231 69.0238L192.221 69.0337Z" fill="white"/>
</mask>
<g mask="url(#mask1_177_2064)">
<path d="M182.763 70.0957H180.103C179.905 69.4307 179.845 68.6963 180.123 68.0413C181.572 68.071 183.309 67.942 183.051 66.0365C182.843 64.4783 180.58 64.5875 179.429 64.9051C176.977 65.5899 176.56 68.0909 176.858 70.3041C177.176 72.5967 179.518 73.5098 181.582 73.4204C179.577 75.5939 177.463 77.6881 176.66 80.6357C176.014 83.0077 175.975 90.6695 176.272 93.24C176.471 94.9173 177.573 96.1976 178.893 97.1305C178.803 100.346 178.585 104.247 182.456 105.259C184.133 105.696 189.77 105.656 191.298 104.911C192.231 104.455 193.859 102.599 193.859 101.557V97.7855H224.348V101.557C224.348 102.599 225.975 104.455 226.908 104.911C228.437 105.666 234.074 105.696 235.751 105.259C239.632 104.247 239.403 100.356 239.314 97.1305C240.634 96.1976 241.746 94.9173 241.934 93.24C242.232 90.6695 242.192 83.0077 241.547 80.6357C240.733 77.6682 238.649 75.6138 236.625 73.4204C238.689 73.5098 241.031 72.5967 241.349 70.3041C241.666 68.0115 241.23 65.5899 238.778 64.9051C237.627 64.5875 235.364 64.4783 235.156 66.0365C234.898 67.942 236.634 68.071 238.083 68.0413C238.361 68.6963 238.302 69.4307 238.103 70.0957H235.443C234.888 67.942 234.272 65.7387 233.558 63.6148C231.722 58.1662 228.824 54.8017 222.79 54.107C213.857 54.5437 204.419 53.5512 195.546 54.107C186.346 54.6826 185.066 62.404 182.823 69.5101C182.763 69.6987 182.743 69.9071 182.753 70.1056L182.763 70.0957ZM179.359 88.1487V83.3352C179.359 79.008 183.14 77.569 184.57 74.6312C187.894 67.7534 186.336 57.8188 196.598 57.2035C205.243 56.6874 214.542 57.4715 223.226 57.3722C231.285 58.6723 230.987 68.8154 233.647 74.7801C235.106 76.6956 238.709 79.8814 238.709 82.442V88.1387H231.235C230.67 88.1387 229.836 87.2753 229.717 86.6997C229.608 86.1637 229.608 84.4865 229.677 83.9208C229.975 81.4197 233.965 82.4321 235.682 82.2236C237.379 82.0251 237.528 79.3455 235.533 79.1073C234.322 78.9584 230.977 79.008 229.866 79.3653C225.588 80.7449 225.231 87.8906 228.576 90.3619C228.873 90.5802 230.193 91.2551 230.501 91.2551H238.719C238.669 91.9598 238.848 92.7537 238.58 93.4088C238.471 93.6767 237.686 94.5104 237.458 94.5104H220.656V89.1114C220.656 88.5754 220.021 87.7517 219.445 87.6524L199.119 87.5532C198.583 87.4837 197.571 88.3769 197.571 88.8136V94.5104H180.768C180.768 94.5104 180.103 94.1432 180.024 94.0737C179.538 93.6172 179.19 92.1285 179.389 91.5032L179.587 91.2551H187.726C189.393 91.2551 191.477 88.6449 191.646 87.0371C191.983 83.9505 191.626 80.4471 188.242 79.3455C187.2 79.008 183.696 78.9783 182.545 79.1172C180.709 79.3356 180.709 82.0152 182.545 82.2336C184.143 82.4221 187.289 81.6182 188.222 83.2161C188.738 84.0895 188.718 86.5111 188.093 87.3349C187.944 87.5333 187.16 88.1487 186.981 88.1487H179.359ZM200.816 90.8184H217.39V94.5203H200.816V90.8184Z" fill="#46194F"/>
<path d="M228.387 70.1353L190.088 70.0956C187.745 70.3636 188.182 73.4998 190.524 73.3609H227.682C229.876 73.4502 230.491 70.7804 228.387 70.1353Z" fill="#46194F"/>
<path d="M222.611 79.1569L195.496 79.2065C194.256 79.8913 194.295 81.4297 195.526 82.1244L222.204 82.2435C223.861 81.9557 224.149 79.8814 222.611 79.1668V79.1569Z" fill="#46194F"/>
</g>
<mask id="mask2_177_2064" style="mask-type:luminance" maskUnits="userSpaceOnUse" x="99" y="51" width="79" height="56">
<path d="M161.435 69.5399L169.067 64.6371L172.183 52.6679L99.3362 51.5961V106.202L177.295 106.628L174.684 103.036L167.37 102.123L161.802 97.9146C158.061 94.1134 156.006 89.1412 156.006 83.3749C156.006 77.6087 157.693 73.3609 161.435 69.5498V69.5399Z" fill="white"/>
</mask>
<g mask="url(#mask2_177_2064)">
<path d="M170.635 70.0957H173.295C173.494 69.4307 173.553 68.6963 173.275 68.0413C171.826 68.071 170.09 67.942 170.348 66.0365C170.556 64.4783 172.819 64.5875 173.97 64.9051C176.421 65.5899 176.838 68.0909 176.541 70.3041C176.223 72.5967 173.881 73.5098 171.816 73.4204C173.821 75.5939 175.935 77.6881 176.739 80.6357C177.384 83.0077 177.424 90.6695 177.126 93.24C176.928 94.9173 175.826 96.1976 174.506 97.1305C174.595 100.346 174.814 104.247 170.943 105.259C169.266 105.696 163.629 105.656 162.1 104.911C161.167 104.455 159.54 102.599 159.54 101.557V97.7855H129.051V101.557C129.051 102.599 127.423 104.455 126.49 104.911C124.962 105.666 119.325 105.696 117.647 105.259C113.767 104.247 113.995 100.356 114.085 97.1305C112.765 96.1976 111.653 94.9173 111.464 93.24C111.167 90.6695 111.206 83.0077 111.851 80.6357C112.665 77.6682 114.749 75.6138 116.774 73.4204C114.71 73.5098 112.368 72.5967 112.05 70.3041C111.732 68.0115 112.169 65.5899 114.62 64.9051C115.772 64.5875 118.035 64.4783 118.243 66.0365C118.501 67.942 116.764 68.071 115.315 68.0413C115.037 68.6963 115.097 69.4307 115.295 70.0957H117.955C118.511 67.942 119.126 65.7387 119.841 63.6148C121.677 58.1662 124.575 54.8017 130.609 54.107C139.541 54.5437 148.98 53.5512 157.852 54.107C167.053 54.6826 168.333 62.404 170.576 69.5101C170.635 69.6987 170.655 69.9071 170.645 70.1056L170.635 70.0957ZM174.04 88.1487V83.3352C174.04 79.008 170.258 77.569 168.829 74.6312C165.504 67.7534 167.062 57.8188 156.8 57.2035C148.156 56.6874 138.857 57.4715 130.172 57.3722C122.114 58.6723 122.411 68.8154 119.751 74.7801C118.293 76.6956 114.69 79.8814 114.69 82.442V88.1387H122.163C122.729 88.1387 123.563 87.2753 123.682 86.6997C123.791 86.1637 123.791 84.4865 123.721 83.9208C123.424 81.4197 119.434 82.4321 117.717 82.2236C116 82.0152 115.871 79.3455 117.866 79.1073C119.077 78.9584 122.421 79.008 123.533 79.3653C127.81 80.7449 128.168 87.8906 124.823 90.3619C124.525 90.5802 123.205 91.2551 122.898 91.2551H114.68C114.73 91.9598 114.551 92.7537 114.819 93.4088C114.928 93.6767 115.712 94.5104 115.94 94.5104H132.743V89.1114C132.743 88.5754 133.378 87.7517 133.954 87.6524L154.28 87.5532C154.815 87.4837 155.828 88.3769 155.828 88.8136V94.5104H172.63C172.63 94.5104 173.295 94.1432 173.375 94.0737C173.861 93.6172 174.208 92.1285 174.01 91.5032L173.811 91.2551H165.673C164.006 91.2551 161.922 88.6449 161.753 87.0371C161.415 83.9505 161.773 80.4471 165.157 79.3455C166.199 79.008 169.702 78.9783 170.854 79.1172C172.69 79.3356 172.69 82.0152 170.854 82.2336C169.256 82.4221 166.11 81.6182 165.177 83.2161C164.661 84.0895 164.681 86.5111 165.306 87.3349C165.455 87.5333 166.239 88.1487 166.417 88.1487H174.04ZM152.582 90.8184H136.008V94.5203H152.582V90.8184Z" fill="#46194F"/>
<path d="M125.012 70.1353L163.311 70.0956C165.653 70.3636 165.217 73.4998 162.874 73.3609H125.716C123.523 73.4502 122.908 70.7804 125.012 70.1353Z" fill="#46194F"/>
<path d="M130.788 79.1569L157.902 79.2065C159.143 79.8913 159.103 81.4297 157.872 82.1244L131.195 82.2435C129.537 81.9557 129.249 79.8814 130.788 79.1668V79.1569Z" fill="#46194F"/>
</g>
<path d="M249.208 109.768C247.972 109.768 246.969 110.771 246.969 112.008C246.969 113.244 247.972 114.247 249.208 114.247C250.445 114.247 251.448 113.244 251.448 112.008C251.448 110.771 250.445 109.768 249.208 109.768Z" fill="#46194F" stroke="#46194F"/>
<path d="M85.9973 134.858C84.7607 134.858 83.7581 135.861 83.7581 137.097C83.7581 138.334 84.7607 139.337 85.9973 139.337C87.234 139.337 88.2365 138.334 88.2366 137.097C88.2366 135.861 87.234 134.858 85.9973 134.858Z" fill="#46194F" stroke="#46194F"/>
<path d="M105.579 274.34C104.342 274.34 103.34 275.342 103.34 276.579C103.34 277.816 104.342 278.818 105.579 278.818C106.816 278.818 107.818 277.816 107.818 276.579C107.818 275.342 106.816 274.34 105.579 274.34Z" fill="#46194F" stroke="#46194F"/>
<defs>
<clipPath id="clip0_177_2064">
<rect width="77.7401" height="86.1264" fill="white" transform="translate(15.8796 159.795)"/>
</clipPath>
</defs>
</svg>
