<svg width="274" height="279" viewBox="0 0 274 279" fill="none" xmlns="http://www.w3.org/2000/svg">
<g clip-path="url(#clip0_382_170)">
<path d="M7.54919 271.484C15.5534 279.453 28.5259 279.453 36.5301 271.484L108.936 199.392L79.9547 170.537L7.54919 242.628C-0.454987 250.598 -0.454987 263.514 7.54919 271.484Z" fill="white"/>
<path d="M22.0424 279C27.6902 279 33.338 276.859 37.6331 272.582L111.136 199.398L79.9543 168.346L6.45171 241.53C-2.14468 250.089 -2.14468 264.017 6.45171 272.576C10.753 276.859 16.3946 278.994 22.0424 278.994V279ZM106.728 199.398L35.4264 270.391C28.0456 277.74 16.033 277.74 8.646 270.391C1.26519 263.042 1.26519 251.082 8.646 243.733L79.9481 172.74L106.722 199.404L106.728 199.398Z" fill="#46194F"/>
<path d="M79.9503 170.536L108.933 199.393L88.4136 219.823L59.4313 190.966L79.9503 170.536Z" fill="#46194F"/>
<path d="M88.4136 222.022L111.136 199.398L79.9543 168.346L57.2259 190.976L88.4136 222.022ZM106.728 199.398L88.4136 217.634L61.6332 190.976L79.9481 172.74L106.722 199.404L106.728 199.398Z" fill="#46194F"/>
<path d="M79.243 193.915C35.0456 149.909 35.0456 78.5617 79.243 34.556C123.44 -9.44971 195.098 -9.44972 239.296 34.556C283.493 78.5617 283.493 149.909 239.296 193.915C195.098 237.921 123.44 237.921 79.243 193.915Z" fill="white"/>
<path d="M159.267 228.471C222.534 228.471 274 177.228 274 114.235C274 51.243 222.534 0 159.267 0C96.0004 0 44.5342 51.243 44.5342 114.235C44.5342 177.228 96.0004 228.471 159.267 228.471ZM159.267 3.10338C220.813 3.10338 270.883 52.9561 270.883 114.235C270.883 175.515 220.813 225.367 159.267 225.367C97.7209 225.367 47.6511 175.515 47.6511 114.235C47.6511 52.9561 97.7209 3.10338 159.267 3.10338Z" fill="#46194F"/>
<path d="M159.268 205.394C108.703 205.394 67.7119 164.581 67.7119 114.235C67.7119 63.8898 108.703 23.0767 159.268 23.0767C209.832 23.0767 250.823 63.8898 250.823 114.235C250.823 164.581 209.832 205.394 159.268 205.394Z" fill="#C6AECC"/>
<path d="M114.24 34.8509L238.997 159.067C231.224 172.74 220.009 184.223 206.513 192.329L80.8271 67.1881C88.9747 53.7567 100.501 42.5846 114.234 34.8447L114.24 34.8509Z" fill="white"/>
<path d="M159.267 206.946C210.608 206.946 252.381 165.354 252.381 114.235C252.381 63.1165 210.608 21.525 159.267 21.525C107.925 21.525 66.1526 63.1165 66.1526 114.235C66.1526 165.354 107.925 206.946 159.267 206.946ZM159.267 24.6284C208.894 24.6284 249.264 64.8234 249.264 114.235C249.264 163.647 208.894 203.842 159.267 203.842C109.64 203.842 69.2695 163.647 69.2695 114.235C69.2695 64.8234 109.64 24.6284 159.267 24.6284Z" fill="#46194F"/>
<mask id="mask0_382_170" style="mask-type:luminance" maskUnits="userSpaceOnUse" x="67" y="23" width="184" height="183">
<path d="M159.268 205.394C108.703 205.394 67.7119 164.581 67.7119 114.235C67.7119 63.8898 108.703 23.0767 159.268 23.0767C209.832 23.0767 250.823 63.8898 250.823 114.235C250.823 164.581 209.832 205.394 159.268 205.394Z" fill="white"/>
</mask>
<g mask="url(#mask0_382_170)">
<path d="M157.223 228.042L181.853 122.509L178.817 121.808L157.192 214.456L135.043 121.323L132.013 122.037L157.223 228.042Z" fill="#46194F"/>
<path d="M157.21 133.222L175.338 143.562L180.331 122.155" fill="white"/>
<path d="M176.386 145.939L181.853 122.509L178.817 121.808L174.297 141.179L157.983 131.875L156.437 134.569L176.386 145.939Z" fill="#46194F"/>
<path d="M157.21 133.222L138.77 143.736L134.083 122.155" fill="white"/>
<path d="M137.699 146.132L157.983 134.569L156.437 131.875L139.849 141.334L135.61 121.826L132.562 122.484L137.699 146.132Z" fill="#46194F"/>
<path d="M95.6704 222.798H218.744V132.067L157.204 113.596L95.6642 132.067V222.798H95.6704ZM215.627 219.694H98.7873V134.37L157.21 116.83L215.633 134.37V219.694H215.627Z" fill="#46194F"/>
<path d="M196.739 221.246H199.856V176.582C199.856 160.637 206.557 145.244 218.252 134.351L216.12 132.086C203.802 143.569 196.739 159.787 196.739 176.582V221.246Z" fill="#46194F"/>
<path d="M114.559 221.246H117.676V176.582C117.676 159.781 110.613 143.562 98.2949 132.086L96.163 134.351C107.851 145.251 114.559 160.643 114.559 176.582V221.246Z" fill="#46194F"/>
<path d="M141.538 108.736V119.946L157.21 133.222L172.882 119.946V108.736" fill="white"/>
<path d="M157.21 135.258L174.44 120.659V108.736H171.324V119.226L157.21 131.186L143.097 119.226V108.736H139.98V120.659L157.21 135.258Z" fill="#46194F"/>
<path d="M158.726 221.606L170.545 171.822L170.52 171.009L158.701 132.763H155.721L143.902 171.009L143.877 171.822L155.69 221.606H158.726Z" fill="#46194F"/>
<path d="M149.499 110.288H164.922C178.461 110.288 189.477 99.3205 189.477 85.8394V70.0867C189.477 52.3726 175.002 37.9605 157.21 37.9605C139.419 37.9605 124.944 52.3726 124.944 70.0867V85.8394C124.944 99.3205 135.959 110.288 149.499 110.288ZM157.21 41.0701C173.281 41.0701 186.36 54.0919 186.36 70.0929V85.8456C186.36 97.6137 176.741 107.191 164.922 107.191H149.499C137.68 107.191 128.061 97.6137 128.061 85.8456V70.0929C128.061 54.0919 141.134 41.0701 157.21 41.0701Z" fill="#46194F"/>
<path d="M186.36 93.7965H187.918C194.501 93.7965 199.862 88.4587 199.862 81.9044V81.1409C199.862 74.5866 194.507 69.2488 187.918 69.2488H186.36V93.7965ZM189.477 72.4887C193.604 73.2211 196.745 76.821 196.745 81.1409V81.9044C196.745 86.2181 193.604 89.818 189.477 90.5566V72.4887Z" fill="#46194F"/>
<path d="M126.503 95.131H128.062V70.5833H126.503C119.914 70.5833 114.559 75.9211 114.559 82.4754V83.2388C114.559 89.7932 119.914 95.131 126.503 95.131ZM124.945 73.8232V91.8911C120.818 91.1587 117.676 87.5587 117.676 83.2388V82.4754C117.676 78.1617 120.818 74.5618 124.945 73.8232Z" fill="#46194F"/>
<path d="M158.619 221.904L184.757 166.056L182.039 153.003L192.15 143.569L189.457 124.222L186.372 124.644L188.84 142.408L178.629 151.929L181.497 165.677L155.795 220.594L158.619 221.904Z" fill="#46194F"/>
<path d="M155.521 221.904L158.345 220.594L132.643 165.677L135.51 151.929L125.299 142.408L127.768 124.644L124.682 124.222L121.989 143.569L132.1 153.003L129.383 166.056L129.601 166.521L155.521 221.904Z" fill="#46194F"/>
<mask id="mask1_382_170" style="mask-type:luminance" maskUnits="userSpaceOnUse" x="126" y="39" width="62" height="70">
<path d="M149.499 108.736H164.922C177.614 108.736 187.918 98.4764 187.918 85.8395V70.0867C187.918 53.2105 174.16 39.5122 157.211 39.5122C140.261 39.5122 126.503 53.2105 126.503 70.0867V85.8395C126.503 98.4764 136.807 108.736 149.499 108.736Z" fill="white"/>
</mask>
<g mask="url(#mask1_382_170)">
<path d="M187.712 73.1528H202.536V29.5007H164.454V49.9892C164.454 62.7565 174.889 73.1466 187.712 73.1466V73.1528Z" fill="#46194F"/>
<path d="M123.728 70.4715H144.306C157.129 70.4715 167.564 60.0814 167.564 47.3141V32.5544H123.722V70.4715H123.728Z" fill="#46194F"/>
</g>
</g>
</g>
<defs>
<clipPath id="clip0_382_170">
<rect width="274" height="279" fill="white" transform="matrix(-1 0 0 1 274 0)"/>
</clipPath>
</defs>
</svg>
