<svg width="34" height="35" viewBox="0 0 34 35" fill="none" xmlns="http://www.w3.org/2000/svg">
<g clip-path="url(#clip0_103_194)">
<path d="M15.8216 0.0389476C28.4929 -0.824849 37.6986 12.5088 32.5444 24.563C27.2642 36.9094 10.888 38.715 3.2134 27.7519C-4.57459 16.6329 2.62741 0.941712 15.8216 0.0389476ZM16.017 2.01983C8.58812 2.41601 2.34387 8.85227 1.95951 16.5095H4.03883C4.07663 16.5095 4.32867 16.6459 4.39168 16.6914C5.14779 17.224 4.70043 18.5164 4.03883 18.5164H1.95951C2.35017 26.1802 8.58812 32.6099 16.0233 33.0126V30.8693C16.0233 30.8304 16.1556 30.5706 16.1997 30.5056C16.7164 29.7263 17.9703 30.1874 17.9703 30.8693V33.0126C25.4054 32.6099 31.6433 26.1802 32.034 18.5164H29.9547C29.9169 18.5164 29.6648 18.38 29.6018 18.3345C28.8457 17.802 29.2931 16.5095 29.9547 16.5095H32.034C31.6433 8.85227 25.4054 2.41601 17.9703 2.01334V4.15659C17.9703 4.19556 17.8379 4.45535 17.7938 4.5203C17.2772 5.29966 16.0233 4.83854 16.0233 4.15659V2.01334L16.017 2.01983Z" fill="#46194F"/>
<path d="M17.0819 18.3346H22.7843C23.5404 18.3346 23.8932 19.9907 22.8536 20.2311L15.9729 20.2505C15.4121 20.1661 15.179 19.7504 15.1286 19.2049C14.8135 15.7757 15.3617 11.8399 15.1412 8.35872C15.2483 7.404 16.3762 7.07926 16.8992 7.8976C16.9433 7.96254 17.0756 8.21584 17.0756 8.2613V18.3346H17.0819Z" fill="white"/>
</g>
<defs>
<clipPath id="clip0_103_194">
<rect width="34" height="35" fill="white"/>
</clipPath>
</defs>
</svg>
