<svg width="85" height="87" viewBox="0 0 85 87" fill="none" xmlns="http://www.w3.org/2000/svg">
<g clip-path="url(#clip0_66_1134)">
<path d="M85 31.6133C85 14.1545 70.8761 0 53.4551 0C36.034 0 21.9138 14.1545 21.9138 31.6133C21.9138 39.0967 24.5105 45.9736 28.8492 51.3877C23.3735 51.7663 18.3453 52.6043 14.0725 53.7842C5.52339 56.1439 0 59.8819 0 64.0904V74.0658C0 74.2202 0.0110028 74.3745 0.0256731 74.5289C0.0256731 74.5657 0.0330083 74.5987 0.0366759 74.6355C0.0550138 74.7862 0.0770193 74.9369 0.110028 75.0876C0.113695 75.106 0.12103 75.1243 0.124698 75.1427C0.154039 75.2787 0.194382 75.4147 0.234726 75.5507C0.245728 75.5838 0.253064 75.6132 0.264066 75.6463C0.311745 75.7933 0.366759 75.9403 0.429108 76.0837C0.44011 76.1094 0.454781 76.1351 0.465784 76.1645C0.524465 76.2932 0.586814 76.4255 0.656498 76.5541C0.671168 76.5798 0.682171 76.6056 0.696842 76.6313C0.777529 76.7747 0.861883 76.918 0.953573 77.0613C0.971911 77.0908 0.993916 77.1202 1.01225 77.1496C1.10028 77.2819 1.19563 77.4142 1.29466 77.5428C1.30566 77.5575 1.31666 77.5723 1.32767 77.587C1.43769 77.7303 1.55506 77.87 1.67609 78.0096C1.70176 78.039 1.72743 78.0684 1.75677 78.0978C2.00984 78.3809 2.28857 78.6565 2.59298 78.9322C2.62232 78.9579 2.65533 78.9873 2.68467 79.0131C2.83871 79.1491 3.00009 79.285 3.16513 79.4174C3.17613 79.4284 3.1908 79.4357 3.2018 79.4468C3.35951 79.5717 3.52822 79.7004 3.69693 79.8253C3.72627 79.8474 3.75928 79.8695 3.78862 79.8915C3.94999 80.0055 4.11137 80.1231 4.28007 80.237C4.30208 80.2517 4.32775 80.2664 4.34976 80.2811C4.37543 80.2958 4.39744 80.3142 4.42311 80.3289C4.50013 80.3804 4.58082 80.4281 4.65784 80.4759C4.76786 80.5458 4.87789 80.6156 4.99159 80.6854C5.01726 80.7001 5.03927 80.7148 5.06127 80.7295C5.27032 80.8582 5.48671 80.9831 5.70677 81.1044C5.73977 81.1228 5.76911 81.1412 5.80212 81.1559C5.94516 81.2331 6.09186 81.3103 6.23857 81.3911C6.31925 81.4352 6.39627 81.4757 6.47696 81.5198C6.48063 81.5198 6.48796 81.5235 6.49163 81.5271C6.49163 81.5271 6.52464 81.5455 6.54298 81.5529C6.70802 81.6374 6.87673 81.7219 7.04543 81.8028C7.10412 81.8322 7.16647 81.8616 7.22881 81.8873C7.26182 81.902 7.2985 81.9204 7.33151 81.9351C7.5809 82.0527 7.83763 82.1703 8.09803 82.288C8.27774 82.3688 8.46112 82.446 8.64817 82.5269C8.73253 82.5636 8.82055 82.5967 8.90857 82.6335C8.94158 82.6482 8.97459 82.6592 9.00759 82.6739C9.26433 82.7805 9.52839 82.8834 9.79246 82.9863C10.1042 83.1039 10.4233 83.2215 10.746 83.3355C10.7717 83.3428 10.7974 83.3539 10.8231 83.3612C10.8891 83.3833 10.9588 83.4053 11.0248 83.4311C11.2632 83.5156 11.5052 83.5965 11.7473 83.6773C11.7583 83.681 11.7693 83.6847 11.784 83.6883C11.9417 83.7398 12.0957 83.7913 12.2571 83.8427C12.4185 83.8942 12.5798 83.942 12.7412 83.9934C12.7522 83.9934 12.7595 84.0008 12.7705 84.0044C12.8146 84.0191 12.8586 84.0338 12.9062 84.0449C13.1886 84.1294 13.4784 84.2139 13.7718 84.2948C13.7938 84.3022 13.8158 84.3058 13.8378 84.3132C14.2009 84.4161 14.564 84.5153 14.9381 84.6109C15.2608 84.6954 15.5909 84.7763 15.921 84.8572C15.9467 84.8645 15.976 84.8682 16.0017 84.8755C16.119 84.9049 16.2364 84.9343 16.3574 84.9601C16.5702 85.0115 16.7865 85.0556 17.0029 85.1071C17.0433 85.1145 17.08 85.1255 17.1203 85.1328C17.4761 85.21 17.8355 85.2872 18.1986 85.3607C18.2242 85.3644 18.2499 85.3717 18.2756 85.3754C18.3746 85.3938 18.4736 85.4158 18.5727 85.4379C18.8257 85.4894 19.0788 85.5335 19.3355 85.5812C19.3722 85.5886 19.4125 85.5959 19.4492 85.6033C19.827 85.6731 20.2084 85.7393 20.5972 85.8055C20.6155 85.8055 20.6302 85.8128 20.6485 85.8128C20.8832 85.8532 21.1216 85.89 21.3564 85.9268C21.5251 85.9525 21.6901 85.9819 21.8588 86.0076C22.2733 86.0701 22.6914 86.1289 23.1131 86.1877C26.9714 86.7096 31.1488 86.9963 35.5096 86.9963C35.913 86.9963 36.3128 86.9963 36.7125 86.989C36.8152 86.989 36.9143 86.989 37.017 86.9853C37.3911 86.978 37.7615 86.9706 38.1319 86.9632C38.1576 86.9632 38.1869 86.9632 38.2126 86.9632C38.6087 86.9522 39.0048 86.9375 39.3972 86.9228C39.4889 86.9228 39.5769 86.9155 39.6686 86.9118C40.028 86.8971 40.3875 86.8787 40.7432 86.8603C40.7799 86.8603 40.8129 86.8603 40.8496 86.8567C41.2457 86.8346 41.6344 86.8089 42.0269 86.7831C42.1002 86.7795 42.1736 86.7721 42.2506 86.7684C42.6064 86.7427 42.9621 86.717 43.3179 86.6876C43.3545 86.6876 43.3876 86.6839 43.4242 86.6802C43.8167 86.6472 44.2091 86.6141 44.5979 86.5736C44.6492 86.57 44.6969 86.5626 44.7482 86.5589C45.1113 86.5222 45.4744 86.4854 45.8375 86.445C45.8668 86.445 45.8925 86.4376 45.9219 86.4376C46.3143 86.3935 46.7067 86.3458 47.0955 86.298C47.1175 86.298 47.1395 86.2906 47.1615 86.2906C47.5393 86.2428 47.9134 86.1951 48.2838 86.1399C48.3021 86.1399 48.3205 86.1363 48.3388 86.1326C49.12 86.0223 49.8902 85.901 50.6457 85.7724C50.653 85.7724 50.6641 85.7724 50.6714 85.7687C51.4306 85.6364 52.1788 85.4967 52.9086 85.3497C52.9086 85.3497 52.9123 85.3497 52.916 85.3497C53.6495 85.199 54.3646 85.0409 55.0652 84.8719C64.6926 82.56 71.0485 78.5867 71.0485 74.0695V64.094C71.0485 62.4217 70.1756 60.8228 68.5875 59.3563C78.3653 53.9863 84.9927 43.5772 84.9927 31.617L85 31.6133Z" fill="#EFA63F"/>
<path d="M65.096 71.2613C63.1559 72.3199 60.7976 73.2682 58.1056 74.0768C56.943 74.4259 55.7217 74.7457 54.4417 75.0398C49.4464 76.1865 43.6113 76.8922 37.347 77.0062C36.7419 77.0172 36.1367 77.0246 35.5243 77.0246C29.6488 77.0246 24.1034 76.5063 19.2218 75.5837C14.2669 74.6502 9.99418 73.3049 6.7447 71.673C2.5013 69.5412 -0.00366211 66.9242 -0.00366211 64.0903V74.0657C-0.00366211 74.2201 0.00734065 74.3745 0.022011 74.5289C0.022011 74.5656 0.0293462 74.5987 0.0330138 74.6355C0.0513517 74.7861 0.0733572 74.9368 0.106365 75.0875C0.110033 75.1059 0.117368 75.1243 0.121036 75.1427C0.150377 75.2787 0.19072 75.4147 0.231063 75.5507C0.242066 75.5837 0.249401 75.6131 0.260404 75.6462C0.308083 75.7932 0.363097 75.9403 0.425446 76.0836C0.436448 76.1093 0.451119 76.1351 0.462121 76.1645C0.520803 76.2931 0.583152 76.4254 0.652836 76.5541C0.667506 76.5798 0.678509 76.6055 0.693179 76.6313C0.773866 76.7746 0.858221 76.918 0.94991 77.0613C0.968248 77.0907 0.990254 77.1201 1.00859 77.1495C1.09661 77.2818 1.19197 77.4142 1.291 77.5428C1.302 77.5575 1.313 77.5722 1.324 77.5869C1.43403 77.7303 1.55139 77.8699 1.67243 78.0096C1.6981 78.039 1.72377 78.0684 1.75311 78.0978C2.00618 78.3808 2.28491 78.6565 2.58932 78.9322C2.61866 78.9579 2.65167 78.9873 2.68101 79.013C2.83505 79.149 2.99642 79.285 3.16147 79.4173C3.17247 79.4284 3.18714 79.4357 3.19814 79.4467C3.35585 79.5717 3.52456 79.7003 3.69327 79.8253C3.72261 79.8474 3.75561 79.8694 3.78496 79.8915C3.96833 80.0238 4.15538 80.1524 4.3461 80.2811C4.37177 80.2958 4.39377 80.3142 4.41945 80.3289C4.60283 80.4502 4.79354 80.5678 4.98426 80.6891C5.00993 80.7038 5.03193 80.7185 5.05394 80.7332C5.26299 80.8581 5.47938 80.9868 5.69944 81.1081C5.73244 81.1265 5.76179 81.1448 5.79479 81.1595C6.01485 81.2808 6.23857 81.4021 6.46963 81.5234C6.4733 81.5234 6.48063 81.5271 6.4843 81.5308C6.72269 81.6521 6.96842 81.7733 7.22148 81.8946C7.25449 81.9093 7.29117 81.9277 7.32418 81.9424C7.82664 82.1813 8.35477 82.4129 8.90124 82.6371C8.93425 82.6518 8.96726 82.6628 9.00026 82.6775C9.55774 82.9054 10.1372 83.1259 10.7387 83.3391C10.7644 83.3465 10.79 83.3575 10.8157 83.3649C11.1201 83.4714 11.4282 83.578 11.74 83.681C11.751 83.6846 11.762 83.6883 11.7766 83.692C12.092 83.7949 12.4111 83.8941 12.7339 83.9934C12.7449 83.9934 12.7522 84.0007 12.7632 84.0044C13.0896 84.1036 13.4234 84.2029 13.7608 84.2948C13.7828 84.3021 13.8048 84.3058 13.8268 84.3131C14.5016 84.5043 15.1985 84.6844 15.91 84.8571C15.9357 84.8645 15.965 84.8682 15.9907 84.8755C16.7059 85.0483 17.4357 85.21 18.1839 85.3607C18.2096 85.3644 18.2352 85.3717 18.2609 85.3754C19.0164 85.5298 19.7903 85.6731 20.5788 85.8054C20.5972 85.8054 20.6118 85.8128 20.6302 85.8128C21.0299 85.8789 21.4297 85.9451 21.8368 86.0076C22.2476 86.0701 22.6657 86.1289 23.0838 86.1877C26.9421 86.7096 31.1195 86.9963 35.4802 86.9963C35.8837 86.9963 36.2834 86.9963 36.6832 86.9889C36.7859 86.9889 36.8849 86.9889 36.9876 86.9853C37.3617 86.9779 37.7321 86.9706 38.1026 86.9632C38.1282 86.9632 38.1576 86.9632 38.1833 86.9632C38.5794 86.9522 38.9755 86.9375 39.3679 86.9228C39.4596 86.9228 39.5476 86.9154 39.6393 86.9118C39.9987 86.8971 40.3581 86.8787 40.7139 86.8603C40.7506 86.8603 40.7836 86.8603 40.8203 86.8566C41.2164 86.8346 41.6051 86.8088 41.9975 86.7831C42.0709 86.7794 42.1442 86.7721 42.2213 86.7684C42.577 86.7427 42.9328 86.717 43.2885 86.6875C43.3252 86.6875 43.3582 86.6839 43.3949 86.6802C43.7873 86.6471 44.1798 86.614 44.5685 86.5736C44.6199 86.5699 44.6675 86.5626 44.7189 86.5589C45.082 86.5221 45.4451 86.4854 45.8082 86.445C45.8375 86.445 45.8632 86.4376 45.8925 86.4376C46.285 86.3935 46.6774 86.3457 47.0661 86.2979C47.0882 86.2979 47.1102 86.2906 47.1322 86.2906C47.5099 86.2428 47.884 86.195 48.2544 86.1399C48.2728 86.1399 48.2911 86.1362 48.3095 86.1325C49.0907 86.0223 49.8608 85.901 50.6164 85.7723C50.6237 85.7723 50.6347 85.7723 50.642 85.7687C51.4012 85.6363 52.1494 85.4967 52.8793 85.3497C52.8793 85.3497 52.8829 85.3497 52.8866 85.3497C53.6201 85.199 54.3353 85.0409 55.0358 84.8718C64.6632 82.5599 71.0192 78.5867 71.0192 74.0694V64.094C71.0192 66.7478 68.8259 69.2104 65.063 71.265L65.096 71.2613Z" fill="#CC7E28"/>
<path d="M55.0688 84.8682C50.1249 85.6915 45.0563 86.0627 40.0794 85.3497C33.6354 84.4271 27.4849 81.8285 22.2843 77.9104C21.2243 77.1091 20.2011 76.3446 19.2218 75.5837C14.2669 74.6502 9.99418 73.3049 6.7447 71.673C2.5013 69.5412 -0.00366211 66.9242 -0.00366211 64.0903V74.0657C-0.00366211 74.2201 0.00734065 74.3745 0.022011 74.5289C0.022011 74.5656 0.0293462 74.5987 0.0330138 74.6355C0.0513517 74.7861 0.0733572 74.9368 0.106366 75.0875C0.110033 75.1059 0.117368 75.1243 0.121036 75.1427C0.150377 75.2787 0.19072 75.4147 0.231063 75.5507C0.242066 75.5837 0.249401 75.6131 0.260404 75.6462C0.308083 75.7932 0.363097 75.9403 0.425446 76.0836C0.436448 76.1093 0.451119 76.1351 0.462121 76.1645C0.520803 76.2931 0.583152 76.4254 0.652836 76.5541C0.667506 76.5798 0.678509 76.6055 0.693179 76.6313C0.773866 76.7746 0.858221 76.918 0.949911 77.0613C0.968248 77.0907 0.990254 77.1201 1.00859 77.1495C1.09661 77.2818 1.19197 77.4142 1.291 77.5428C1.302 77.5575 1.313 77.5722 1.324 77.5869C1.43403 77.7303 1.55139 77.8699 1.67243 78.0096C1.6981 78.039 1.72377 78.0684 1.75311 78.0978C2.00618 78.3808 2.28491 78.6565 2.58932 78.9322C2.61866 78.9579 2.65167 78.9873 2.68101 79.013C2.83505 79.149 2.99642 79.285 3.16147 79.4173C3.17247 79.4284 3.18714 79.4357 3.19814 79.4467C3.35585 79.5717 3.52456 79.7003 3.69327 79.8253C3.72261 79.8474 3.75561 79.8694 3.78496 79.8915C3.96833 80.0238 4.15538 80.1524 4.3461 80.2811C4.37177 80.2958 4.39378 80.3142 4.41945 80.3289C4.60283 80.4502 4.79354 80.5678 4.98426 80.6891C5.00993 80.7038 5.03194 80.7185 5.05394 80.7332C5.26299 80.8581 5.47938 80.9868 5.69944 81.1081C5.73244 81.1265 5.76179 81.1448 5.79479 81.1595C6.01485 81.2808 6.23857 81.4021 6.46963 81.5234C6.4733 81.5234 6.48063 81.5271 6.4843 81.5308C6.72269 81.6521 6.96842 81.7733 7.22149 81.8946C7.25449 81.9093 7.29117 81.9277 7.32418 81.9424C7.82664 82.1813 8.35477 82.4129 8.90124 82.6371C8.93425 82.6518 8.96726 82.6628 9.00027 82.6775C9.55774 82.9054 10.1372 83.1259 10.7387 83.3391C10.7644 83.3465 10.79 83.3575 10.8157 83.3649C11.1201 83.4714 11.4282 83.578 11.74 83.681C11.751 83.6846 11.762 83.6883 11.7766 83.692C12.092 83.7949 12.4111 83.8941 12.7339 83.9934C12.7449 83.9934 12.7522 84.0007 12.7632 84.0044C13.0896 84.1036 13.4234 84.2029 13.7608 84.2948C13.7828 84.3021 13.8048 84.3058 13.8268 84.3131C14.5016 84.5043 15.1985 84.6844 15.91 84.8571C15.9357 84.8645 15.965 84.8682 15.9907 84.8755C16.7059 85.0483 17.4357 85.21 18.1839 85.3607C18.2096 85.3644 18.2352 85.3717 18.2609 85.3754C19.0164 85.5298 19.7903 85.6731 20.5788 85.8054C20.5972 85.8054 20.6118 85.8128 20.6302 85.8128C21.03 85.8789 21.4297 85.9451 21.8368 86.0076C22.2476 86.0701 22.6657 86.1289 23.0838 86.1877C26.9421 86.7096 31.1195 86.9963 35.4802 86.9963C35.8837 86.9963 36.2834 86.9963 36.6832 86.9889C36.7859 86.9889 36.8849 86.9889 36.9876 86.9853C37.3617 86.9779 37.7321 86.9706 38.1026 86.9632C38.1282 86.9632 38.1576 86.9632 38.1833 86.9632C38.5794 86.9522 38.9755 86.9375 39.3679 86.9228C39.4596 86.9228 39.5476 86.9154 39.6393 86.9118C39.9987 86.8971 40.3581 86.8787 40.7139 86.8603C40.7506 86.8603 40.7836 86.8603 40.8203 86.8566C41.2164 86.8346 41.6051 86.8088 41.9976 86.7831C42.0709 86.7794 42.1443 86.7721 42.2213 86.7684C42.577 86.7427 42.9328 86.717 43.2885 86.6875C43.3252 86.6875 43.3582 86.6839 43.3949 86.6802C43.7873 86.6471 44.1798 86.614 44.5685 86.5736C44.6199 86.5699 44.6676 86.5626 44.7189 86.5589C45.082 86.5221 45.4451 86.4854 45.8082 86.445C45.8375 86.445 45.8632 86.4376 45.8925 86.4376C46.285 86.3935 46.6774 86.3457 47.0662 86.2979C47.0882 86.2979 47.1102 86.2906 47.1322 86.2906C47.5099 86.2428 47.884 86.195 48.2545 86.1399C48.2728 86.1399 48.2911 86.1362 48.3095 86.1325C49.0907 86.0223 49.8609 85.901 50.6164 85.7723C50.6237 85.7723 50.6347 85.7723 50.6421 85.7687C51.4012 85.6363 52.1494 85.4967 52.8793 85.3497C52.8793 85.3497 52.8829 85.3497 52.8866 85.3497C53.6201 85.199 54.3353 85.0409 55.0358 84.8718L55.0688 84.8682Z" fill="#B76E27"/>
<path d="M53.455 0C36.034 0 21.9138 14.1545 21.9138 31.6133C21.9138 39.0967 24.5104 45.9736 28.8492 51.3877C23.3735 51.7663 18.3452 52.6043 14.0725 53.7842L15.9503 55.6587C9.61634 57.5075 5.60767 60.2347 5.60767 63.2817C5.60767 63.7118 5.68835 64.1308 5.84239 64.5461C7.61384 69.3133 19.2658 73.044 33.672 73.3417L37.347 77.0099C43.6112 76.8959 49.4463 76.1866 54.4416 75.0435L51.2508 71.8605C52.5601 71.5885 53.7998 71.2834 54.9624 70.9452L58.1055 74.0805C60.7975 73.2719 63.1558 72.3236 65.0959 71.265L61.8795 68.0563C63.5886 66.9867 64.7402 65.8032 65.206 64.5498C65.36 64.1345 65.4407 63.7118 65.4407 63.2854C65.4407 59.2056 58.2449 55.6918 47.8949 54.1076L45.4597 51.6781C52.1787 52.3911 58.0798 53.8025 62.5139 55.6881C71.8956 52.1375 78.655 43.239 79.0914 32.7049C79.1061 32.3447 79.1171 31.9845 79.1171 31.6207C79.1171 28.4744 78.5523 25.4605 77.5181 22.6707L80.8079 18.0469C82.8324 22.1378 83.973 26.7432 83.973 31.617C83.973 43.3346 77.4007 53.5085 67.7476 58.6469C68.0447 58.8785 68.3271 59.1174 68.5875 59.3563C78.3653 53.9863 84.9926 43.5772 84.9926 31.617C84.9999 14.1545 70.876 0 53.455 0Z" fill="#F4C74C"/>
<path d="M77.5255 22.6633C76.3188 19.4105 74.4777 16.4664 72.1488 13.9891C70.8284 12.585 69.3541 11.328 67.7513 10.2474C63.6656 7.49806 58.7474 5.89185 53.4551 5.89185C53.3157 5.89185 53.1763 5.89185 53.037 5.89552C39.0561 6.11973 27.7893 17.547 27.7893 31.6133C27.7893 31.9771 27.8003 32.3373 27.815 32.6975C27.914 35.094 28.3431 37.4059 29.051 39.5929C30.529 44.1395 33.2393 48.1275 36.7822 51.1671C39.786 51.2039 42.6944 51.3803 45.4634 51.6707C52.1824 52.3837 58.0836 53.7951 62.5177 55.6807C71.8994 52.1301 78.6587 43.2316 79.0952 32.6975C79.1099 32.3373 79.1209 31.9771 79.1209 31.6133C79.1209 28.467 78.556 25.4531 77.5218 22.6633H77.5255Z" fill="#D78B33"/>
<path d="M27.7893 31.6133C27.7893 31.9771 27.8003 32.3373 27.815 32.6975C28.3835 18.9951 39.6466 8.06409 53.4551 8.06409C67.2635 8.06409 78.5267 18.9988 79.0952 32.6975C79.1099 32.3373 79.1209 31.9771 79.1209 31.6133C79.1209 28.467 78.556 25.4531 77.5218 22.6633C76.3152 19.4105 74.474 16.4664 72.1451 13.9891C70.8248 12.585 69.3504 11.328 67.7477 10.2474C63.662 7.49806 58.7437 5.89185 53.4514 5.89185C53.3121 5.89185 53.1727 5.89185 53.0333 5.89552C39.0525 6.11973 27.7856 17.547 27.7856 31.6133H27.7893Z" fill="#AD6926"/>
<path d="M47.8986 54.1002C44.6088 53.5967 40.9999 53.2879 37.2003 53.2181C36.6465 53.207 36.089 53.2034 35.5242 53.2034C34.5376 53.2034 33.562 53.2217 32.6011 53.2512C26.2635 53.457 20.5017 54.3318 15.9466 55.6586C9.61268 57.5074 5.604 60.2347 5.604 63.2817C5.604 63.7117 5.68469 64.1307 5.83873 64.5461C7.61017 69.3133 19.2621 73.0439 33.6684 73.3416C34.2809 73.3527 34.9007 73.36 35.5242 73.36C41.2933 73.36 46.681 72.8087 51.2508 71.8567C52.5601 71.5847 53.7998 71.2797 54.9624 70.9415C57.7644 70.1329 60.1154 69.1552 61.8795 68.0525C63.5886 66.983 64.7402 65.7994 65.206 64.5461C65.36 64.1307 65.4407 63.7081 65.4407 63.2817C65.4407 59.2018 58.2449 55.688 47.895 54.1039L47.8986 54.1002Z" fill="#D78B33"/>
<path d="M25.6877 44.3197C23.9199 40.4494 22.9333 36.1453 22.9333 31.6097C22.9333 14.7169 36.5988 1.02185 53.455 1.02185C54.4489 1.02185 55.4355 1.06963 56.4037 1.1652L53.0369 5.89562C39.0561 6.11982 27.7892 17.5471 27.7892 31.6134C27.7892 31.9772 27.8002 32.3374 27.8149 32.6976C27.9139 35.0941 28.343 37.406 29.0509 39.593L25.684 44.3197H25.6877Z" fill="#EFA63F"/>
<path d="M35.5278 53.1997C34.5412 53.1997 33.5657 53.2181 32.6048 53.2475L30.6316 51.2811C32.106 51.2076 33.6097 51.1671 35.1391 51.1598L37.2002 53.2181C36.6464 53.2071 36.089 53.2034 35.5242 53.2034L35.5278 53.1997Z" fill="#EFA63F"/>
<path d="M67.7512 10.2474L70.5716 6.28516C72.167 7.36944 73.6524 8.60075 75.013 9.9607L72.145 13.9891C70.8247 12.585 69.3503 11.328 67.7476 10.2474H67.7512Z" fill="#EFA63F"/>
<path d="M5.61134 63.278C5.61134 63.7081 5.69203 64.1271 5.84606 64.5424C7.69453 59.5731 20.278 55.7285 35.5279 55.7285C50.7777 55.7285 63.3612 59.5731 65.2096 64.5424C65.3637 64.1271 65.4444 63.7044 65.4444 63.278C65.4444 59.1982 58.2486 55.6844 47.8986 54.1002C44.6088 53.5967 40.9999 53.2879 37.2003 53.2181C36.6465 53.207 36.089 53.2034 35.5242 53.2034C34.5376 53.2034 33.562 53.2217 32.6011 53.2512C26.2635 53.457 20.5017 54.3318 15.9466 55.6586C9.61268 57.5074 5.604 60.2347 5.604 63.2817L5.61134 63.278Z" fill="#AD6926"/>
<path d="M11.1495 77.9545C9.37802 76.0395 7.955 73.9187 6.74836 71.673C2.50496 69.5412 0 66.9242 0 64.0903V74.0657C0 74.2201 0.0110028 74.3745 0.0256731 74.5289C0.0256731 74.5656 0.0330083 74.5987 0.0366759 74.6355C0.0550138 74.7862 0.0770193 74.9368 0.110028 75.0875C0.113695 75.1059 0.12103 75.1243 0.124698 75.1427C0.154039 75.2787 0.194382 75.4147 0.234726 75.5507C0.245728 75.5837 0.253064 75.6131 0.264066 75.6462C0.311745 75.7932 0.366759 75.9403 0.429108 76.0836C0.44011 76.1093 0.454781 76.1351 0.465784 76.1645C0.524465 76.2931 0.586814 76.4254 0.656498 76.5541C0.671168 76.5798 0.682171 76.6055 0.696842 76.6313C0.777528 76.7746 0.861883 76.918 0.953573 77.0613C0.971911 77.0907 0.993916 77.1201 1.01225 77.1495C1.10028 77.2818 1.19563 77.4142 1.29466 77.5428C1.30566 77.5575 1.31666 77.5722 1.32767 77.5869C1.43769 77.7303 1.55506 77.8699 1.67609 78.0096C1.70176 78.039 1.72743 78.0684 1.75677 78.0978C2.00984 78.3808 2.28857 78.6565 2.59298 78.9322C2.62232 78.9579 2.65533 78.9873 2.68467 79.013C2.83871 79.149 3.00009 79.285 3.16513 79.4173C3.17613 79.4284 3.1908 79.4357 3.2018 79.4467C3.35951 79.5717 3.52822 79.7003 3.69693 79.8253C3.72627 79.8474 3.75928 79.8694 3.78862 79.8915C3.972 80.0238 4.15904 80.1524 4.34976 80.2811C4.37543 80.2958 4.39744 80.3142 4.42311 80.3289C4.60649 80.4502 4.7972 80.5678 4.98792 80.6891C5.01359 80.7038 5.0356 80.7185 5.0576 80.7332C5.26665 80.8581 5.48304 80.9868 5.7031 81.1081C5.73611 81.1265 5.76545 81.1448 5.79846 81.1595C6.01851 81.2808 6.24223 81.4021 6.47329 81.5234C6.47696 81.5234 6.48429 81.5271 6.48796 81.5308C6.72635 81.6521 6.97208 81.7733 7.22515 81.8946C7.25815 81.9093 7.29483 81.9277 7.32784 81.9424C7.8303 82.1813 8.35843 82.4129 8.9049 82.6371C8.93791 82.6518 8.97092 82.6628 9.00393 82.6775C9.5614 82.9054 10.1409 83.126 10.7424 83.3391C10.768 83.3465 10.7937 83.3575 10.8194 83.3649C11.1238 83.4714 11.4319 83.578 11.7436 83.681C11.7546 83.6846 11.7656 83.6883 11.7803 83.692C12.0957 83.7949 12.4148 83.8941 12.7375 83.9934C12.7485 83.9934 12.7559 84.0007 12.7669 84.0044C13.0933 84.1036 13.427 84.2029 13.7645 84.2948C13.7865 84.3021 13.8085 84.3058 13.8305 84.3131C14.5053 84.5043 15.2021 84.6844 15.9137 84.8571C15.9393 84.8645 15.9687 84.8682 15.9943 84.8755C16.7095 85.0483 17.4394 85.21 18.1876 85.3607C18.2132 85.3644 18.2389 85.3717 18.2646 85.3754C19.0201 85.5298 19.794 85.6731 20.5825 85.8054C20.6008 85.8054 20.6155 85.8128 20.6338 85.8128C21.0336 85.8789 21.4334 85.9451 21.8405 86.0076C22.2513 86.0701 22.6694 86.1289 23.0875 86.1877C18.6167 84.2249 14.4393 81.5528 11.1055 77.9508L11.1495 77.9545Z" fill="#9F5C23"/>
<path fill-rule="evenodd" clip-rule="evenodd" d="M40.2628 33.7268L48.1298 32.0581V17.9477C48.8193 16.9443 50.3046 15.8342 51.3022 15.2278V31.356L55.1055 30.5842V19.598C55.7473 18.6865 57.3281 17.5213 58.289 16.9332V29.8858L67.2562 28.0003C67.3002 29.419 67.0362 30.6981 66.3027 31.7604L58.289 33.4254V37.0164L67.3149 35.1639C67.3589 36.5827 67.0949 37.8618 66.3613 38.924L55.1092 41.2432V37.7074L55.0909 34.1237L51.2986 34.8735V39.5598C50.7374 40.9014 49.6005 42.243 48.8339 43.2685C48.6249 43.5515 48.6469 43.6581 48.3131 43.7279L37.6111 45.981C37.5451 44.9996 37.7468 43.7169 38.6344 42.254L48.1224 40.2729V35.5903L39.2285 37.4611C39.1625 36.4797 39.3642 35.197 40.2518 33.7341L40.2628 33.7268ZM56.1985 44.5108L67.3296 42.2577C67.3736 43.6765 66.9372 44.9482 66.376 46.0178L55.1129 48.3407C55.1679 47.1792 55.5126 45.9112 56.1985 44.5145V44.5108Z" fill="#AD6926"/>
<path fill-rule="evenodd" clip-rule="evenodd" d="M40.2628 32.4881L48.1298 30.8194V16.709C48.8193 15.7056 50.3046 14.5956 51.3022 13.9891V30.1174L55.1055 29.3455V18.3594C55.7473 17.4478 57.3281 16.2827 58.289 15.6946V28.6472L67.2562 26.7616C67.3002 28.1804 67.0362 29.4595 66.3027 30.5217L58.289 32.1867V35.7777L67.3149 33.9253C67.3589 35.344 67.0949 36.6231 66.3613 37.6853L55.1092 40.0046V36.4687L55.0909 32.8851L51.2986 33.6349V38.3212C50.7374 39.6628 49.6005 41.0043 48.8339 42.0298C48.6249 42.3128 48.6469 42.4194 48.3131 42.4893L37.6111 44.7424C37.5451 43.761 37.7468 42.4782 38.6344 41.0154L48.1224 39.0343V34.3516L39.2285 36.2225C39.1625 35.2411 39.3642 33.9583 40.2518 32.4955L40.2628 32.4881ZM56.1985 43.2722L67.3296 41.019C67.3736 42.4378 66.9372 43.7095 66.376 44.7791L55.1129 47.1021C55.1679 45.9406 55.5126 44.6725 56.1985 43.2758V43.2722Z" fill="#ECAC3F"/>
<path fill-rule="evenodd" clip-rule="evenodd" d="M22.6033 64.2337L29.8945 64.0793L30.397 57.8346C31.0681 57.4413 32.4728 57.0627 33.4117 56.8643L32.8359 64.0022L36.3568 63.9433L36.7492 59.0806C37.3727 58.7241 38.8654 58.3271 39.7713 58.1397L39.3092 63.8735L47.6199 63.7044C47.6089 64.3366 47.3229 64.8806 46.6114 65.2959L39.1845 65.4356L39.0561 67.0234L47.4182 66.8727C47.4072 67.5049 47.1212 68.0489 46.4096 68.4643L35.9864 68.6554L36.1111 67.0896L36.2248 65.5018L32.7112 65.5532L32.5462 67.6262C31.9814 68.1776 30.8884 68.6885 30.1476 69.0854C29.9422 69.1957 29.9642 69.2435 29.6524 69.2508L19.7353 69.453C19.7096 69.0119 19.9407 68.4606 20.8099 67.8798L29.6011 67.7071L29.7661 65.6341L21.5251 65.7995C21.4994 65.3584 21.7304 64.8071 22.5997 64.2264L22.6033 64.2337ZM36.8702 70.1918L47.1798 70.0227C47.1688 70.6549 46.7214 71.1842 46.1712 71.6142L35.737 71.8053C35.8287 71.2944 36.1917 70.7615 36.8702 70.1918Z" fill="#AD6926"/>
<path fill-rule="evenodd" clip-rule="evenodd" d="M22.6509 63.6861L29.9421 63.5317L30.4446 57.287C31.1157 56.8937 32.5204 56.5151 33.4593 56.3167L32.8835 63.4545L36.4044 63.3957L36.7968 58.533C37.4203 58.1765 38.913 57.7795 39.8189 57.5921L39.3568 63.3259L47.6676 63.1568C47.6565 63.789 47.3705 64.333 46.659 64.7483L39.2321 64.888L39.1037 66.4758L47.4658 66.3251C47.4548 66.9573 47.1688 67.5013 46.4572 67.9166L36.034 68.1078L36.1587 66.542L36.2724 64.9542L32.7588 65.0056L32.5938 67.0786C32.029 67.63 30.936 68.1409 30.1952 68.5378C29.9898 68.6481 30.0118 68.6959 29.7 68.7032L19.7829 68.9054C19.7572 68.4643 19.9883 67.913 20.8575 67.3322L29.6487 67.1595L29.8137 65.0865L21.5727 65.2519C21.547 64.8108 21.7781 64.2595 22.6473 63.6788L22.6509 63.6861ZM36.9142 69.6442L47.2238 69.4751C47.2128 70.1073 46.7653 70.6366 46.2152 71.0666L35.7809 71.2577C35.8726 70.7468 36.2357 70.2139 36.9142 69.6442Z" fill="#ECAC3F"/>
</g>
<defs>
<clipPath id="clip0_66_1134">
<rect width="85" height="87" fill="white"/>
</clipPath>
</defs>
</svg>
