<svg width="38" height="29" viewBox="0 0 38 29" fill="none" xmlns="http://www.w3.org/2000/svg">
<g clip-path="url(#clip0_87_339)">
<path d="M0 25.856V3.145C0.29278 1.46054 1.48435 0.172481 3.08116 0.0050433L34.772 0C36.5212 0.0756495 37.9191 1.61487 38 3.50308L37.9954 25.6523C37.8448 27.49 36.4701 28.9052 34.772 28.999L3.08116 28.9939C1.58194 28.8648 0.181245 27.491 0 25.854L0 25.856ZM34.1372 2.41978H3.85911L16.7712 16.3938C18.1319 17.6163 19.8653 17.6152 21.2261 16.3938L34.1372 2.41978ZM2.22605 24.809L11.7939 14.4713L2.22605 4.19098V24.808V24.809ZM35.7702 24.809V4.19098L26.2024 14.5287L35.7702 24.808V24.809ZM34.1372 26.5802L24.5368 16.2778C22.5803 18.5957 20.5819 20.4566 17.4571 19.5146C15.6428 18.9679 14.7394 17.5386 13.4047 16.2778L3.85818 26.5802H34.1362H34.1372Z" fill="#46194F"/>
</g>
<defs>
<clipPath id="clip0_87_339">
<rect width="38" height="29" fill="white"/>
</clipPath>
</defs>
</svg>
