<svg width="355" height="90" viewBox="0 0 355 90" fill="none" xmlns="http://www.w3.org/2000/svg">
<path d="M140.499 72.3965L144.281 69.9528C142.767 68.654 140 71.1746 140 71.1746L140.503 72.3965H140.499Z" fill="#DBA77D"/>
<path d="M203.203 67.9028L201.474 69.3645L195.593 71.3556C195.593 71.3556 190.094 68.4866 189.052 67.8983C188.01 67.31 184.434 63.1738 184.434 63.1738L179.596 58.5082C179.596 58.5082 178.715 55.0735 179.048 54.9648C179.376 54.8562 189.331 57.5669 191.087 58.0647C192.844 58.5625 201.361 62.8254 201.855 63.1557C202.35 63.4906 203.199 67.8983 203.199 67.8983L203.203 67.9028Z" fill="#FFC688"/>
<path d="M205.598 47.3124C203.845 44.8099 197.592 36.5692 193.423 35.5013C189.259 34.4288 176.447 29.469 173.868 29.0119C171.294 28.5549 163.257 31.5325 159.924 31.9127C156.586 32.2973 155.678 34.2025 154.542 37.1802C154.528 37.2118 154.519 37.2435 154.506 37.2752C154.506 37.2752 152.345 40.8683 151.891 41.3254C151.438 41.7824 149.829 48.3487 149.82 48.4437C149.811 48.5388 153.104 50.6385 153.558 50.5888C154.012 50.539 159.771 49.9552 159.82 49.8013C159.87 49.6475 164.847 43.1581 165.211 42.9319C165.476 42.7644 168.643 41.0493 170.288 40.1578L202.058 57.2636L208.58 61.617L208.94 61.3591L212.821 58.5624C212.821 58.5624 209.178 52.4441 205.593 47.3169L205.598 47.3124Z" fill="#FFDAB6"/>
<path style="mix-blend-mode:soft-light" d="M205.598 47.3124C203.845 44.8099 197.592 36.5692 193.423 35.5013C189.259 34.4288 176.447 29.469 173.868 29.0119C171.294 28.5549 163.257 31.5325 159.924 31.9127C156.586 32.2973 155.678 34.2025 154.542 37.1802C154.528 37.2118 154.519 37.2435 154.506 37.2752C154.506 37.2752 152.345 40.8683 151.891 41.3254C151.438 41.7824 149.829 48.3487 149.82 48.4437C149.811 48.5388 153.104 50.6385 153.558 50.5888C154.012 50.539 159.771 49.9552 159.82 49.8013C159.87 49.6475 164.847 43.1581 165.211 42.9319C165.476 42.7644 168.643 41.0493 170.288 40.1578L202.058 57.2636L208.58 61.617L208.94 61.3591L212.821 58.5624C212.821 58.5624 209.178 52.4441 205.593 47.3169L205.598 47.3124Z" fill="url(#paint0_linear_66_920)"/>
<path d="M156.384 45.9232C156.384 45.9232 158.8 41.9997 157.066 40.8005C155.332 39.5968 152.52 43.3483 151.384 45.7512C151.384 45.7512 154.11 45.4345 156.384 45.9232Z" fill="#FFE6D2"/>
<path d="M163.607 88.6696L171.222 85.2032L168.796 83.0265L166.182 85.4702L163.607 88.6696Z" fill="#DBA77D"/>
<path d="M164.173 42.0675C164.173 42.0675 165.463 39.3976 163.49 37.1802C163.49 37.1802 166.491 37.9766 165.844 41.8549C165.844 41.8549 164.591 42.0313 164.173 42.0675Z" fill="#DBA579"/>
<path d="M208.41 64.3594C208.41 64.3594 207.615 66.8257 206.514 67.5045C206.514 67.5045 206.577 68.224 206.9 68.4684C207.228 68.7128 209.084 68.7761 209.838 67.7489C210.593 66.7216 210.818 65.7124 210.449 64.83L208.41 64.3594Z" fill="#FFE6C2"/>
<path d="M208.944 61.3546C208.455 60.884 207.893 60.4541 207.296 60.083C204.569 58.4086 198.504 53.7475 196.083 52.2949C193.652 50.8468 183.194 44.7285 180.319 43.2442C177.439 41.7599 170.166 40.0855 170.166 40.0855C168.271 41.8413 164.178 42.0676 164.178 42.0676C163.271 45.1222 159.326 48.7108 155.005 49.0185C150.683 49.3217 150.988 45.9639 150.988 45.9639C151.271 45.5748 151.536 45.1132 151.788 44.6018C151.788 44.6018 151.788 44.6018 151.788 44.5973C151.797 44.5747 151.811 44.552 151.819 44.5294C151.891 44.3846 151.963 44.2353 152.031 44.0769C152.952 42.0812 153.72 39.5153 154.789 36.5512C155.948 33.3292 157.412 32.7183 157.412 32.7183C157.412 32.7183 147.269 34.7275 144.457 35.1348C141.644 35.5421 138.823 34.628 138.823 34.628L138.998 38.1487L134.465 38.4021L119.38 57.0329C119.38 57.0329 142.799 69.0568 144.618 70.5456C146.438 72.0344 170.198 85.434 173.495 86.692C176.793 87.9501 184.524 88.294 185.207 81.9947C185.207 81.9947 187.368 83.1396 190.324 81.7639C193.28 80.3882 193.05 76.6774 193.05 76.6774C193.05 76.6774 198.356 77.5599 200.328 76.3788C202.296 75.1931 203.589 70.9167 201.613 69.007C201.613 69.007 192.219 64.812 188.729 62.8208C185.243 60.8387 180.997 56.5623 180.997 56.5623C180.997 56.5623 192.745 62.7484 194.488 63.5087C196.231 64.2735 200.926 67.0068 203.199 67.8937C205.472 68.7762 209.564 70.1066 210.701 67.3824C211.586 65.2555 210.678 63.0245 208.94 61.3501L208.944 61.3546Z" fill="#BC8542"/>
<path style="mix-blend-mode:soft-light" d="M208.944 61.3546C208.455 60.884 207.893 60.4541 207.296 60.083C204.569 58.4086 198.504 53.7475 196.083 52.2949C193.652 50.8468 183.194 44.7285 180.319 43.2442C177.439 41.7599 170.166 40.0855 170.166 40.0855C168.271 41.8413 164.178 42.0676 164.178 42.0676C163.271 45.1222 159.326 48.7108 155.005 49.0185C150.683 49.3217 150.988 45.9639 150.988 45.9639C151.271 45.5748 151.536 45.1132 151.788 44.6018C151.788 44.6018 151.788 44.6018 151.788 44.5973C151.797 44.5747 151.811 44.552 151.819 44.5294C151.891 44.3846 151.963 44.2353 152.031 44.0769C152.952 42.0812 153.72 39.5153 154.789 36.5512C155.948 33.3292 157.412 32.7183 157.412 32.7183C157.412 32.7183 147.269 34.7275 144.457 35.1348C141.644 35.5421 138.823 34.628 138.823 34.628L138.998 38.1487L134.465 38.4021L119.38 57.0329C119.38 57.0329 142.799 69.0568 144.618 70.5456C146.438 72.0344 170.198 85.434 173.495 86.692C176.793 87.9501 184.524 88.294 185.207 81.9947C185.207 81.9947 187.368 83.1396 190.324 81.7639C193.28 80.3882 193.05 76.6774 193.05 76.6774C193.05 76.6774 198.356 77.5599 200.328 76.3788C202.296 75.1931 203.589 70.9167 201.613 69.007C201.613 69.007 192.219 64.812 188.729 62.8208C185.243 60.8387 180.997 56.5623 180.997 56.5623C180.997 56.5623 192.745 62.7484 194.488 63.5087C196.231 64.2735 200.926 67.0068 203.199 67.8937C205.472 68.7762 209.564 70.1066 210.701 67.3824C211.586 65.2555 210.678 63.0245 208.94 61.3501L208.944 61.3546Z" fill="url(#paint1_linear_66_920)"/>
<path d="M141.824 71.4824C141.824 71.4824 144.897 68.034 144.164 65.5361C143.432 63.0381 141.298 61.771 138.787 62.581C136.271 63.391 134.524 66.5226 134.385 67.7173C134.245 68.912 134.524 71.0615 136.375 72.3286C138.225 73.5957 140.346 73.5776 141.824 71.4824Z" fill="#FFDAB6"/>
<path style="mix-blend-mode:soft-light" d="M141.824 71.4824C141.824 71.4824 144.897 68.034 144.164 65.5361C143.432 63.0381 141.298 61.771 138.787 62.581C136.271 63.391 134.524 66.5226 134.385 67.7173C134.245 68.912 134.524 71.0615 136.375 72.3286C138.225 73.5957 140.346 73.5776 141.824 71.4824Z" fill="url(#paint2_linear_66_920)"/>
<path d="M137.947 64.0245C137.947 64.0245 138.576 66.2057 141.056 67.3326C141.056 67.3326 139.901 69.6179 137.947 68.5997C135.993 67.5815 136.375 65.3278 137.947 64.0245Z" fill="#FFE6D2"/>
<path d="M141.815 74.9396C141.321 76.5597 141.577 78.2024 142.637 79.2478C143.697 80.2931 145.607 80.6823 147.916 79.827C150.638 78.8224 157.143 70.8352 158.149 69.378C159.627 67.233 157.992 62.2461 153.203 63.3276C148.145 64.4725 142.516 72.6317 141.815 74.9351V74.9396Z" fill="#FFDAB6"/>
<path style="mix-blend-mode:soft-light" d="M141.815 74.9396C141.321 76.5597 141.577 78.2024 142.637 79.2478C143.697 80.2931 145.607 80.6823 147.916 79.827C150.638 78.8224 157.143 70.8352 158.149 69.378C159.627 67.233 157.992 62.2461 153.203 63.3276C148.145 64.4725 142.516 72.6317 141.815 74.9351V74.9396Z" fill="url(#paint3_linear_66_920)"/>
<path d="M150.683 79.103C150.683 79.103 157.421 71.8127 159.425 69.8894C161.429 67.9662 164.021 66.3099 166.253 68.2829C168.122 69.9347 167.893 72.6408 165.979 74.7949C164.066 76.949 158.149 84.0583 156.918 85.0222C155.687 85.9861 152.107 87.4251 150.184 85.4159C147.799 82.9269 149.542 80.4335 150.683 79.103Z" fill="#FFDAB6"/>
<path style="mix-blend-mode:soft-light" d="M150.683 79.103C150.683 79.103 157.421 71.8127 159.425 69.8894C161.429 67.9662 164.021 66.3099 166.253 68.2829C168.122 69.9347 167.893 72.6408 165.979 74.7949C164.066 76.949 158.149 84.0583 156.918 85.0222C155.687 85.9861 152.107 87.4251 150.184 85.4159C147.799 82.9269 149.542 80.4335 150.683 79.103Z" fill="url(#paint4_linear_66_920)"/>
<path d="M153.459 64.1287C153.459 64.1287 149.223 67.6765 150.391 70.6542C151.554 73.6319 157.21 69.2242 157.696 68.1653C157.696 68.1653 157.098 64.1015 153.459 64.1287Z" fill="#FFE6D2"/>
<path d="M158.163 85.8638C157.305 87.4568 158.675 91.0635 162.349 89.6968C164.393 88.9366 170.31 82.2979 171.065 81.2027C172.174 79.5917 170.669 75.0392 167.349 76.6548C163.302 78.6233 159.483 83.4066 158.163 85.8638Z" fill="#FFDAB6"/>
<path style="mix-blend-mode:soft-light" d="M158.163 85.8638C157.305 87.4568 158.675 91.0635 162.349 89.6968C164.393 88.9366 170.31 82.2979 171.065 81.2027C172.174 79.5917 170.669 75.0392 167.349 76.6548C163.302 78.6233 159.483 83.4066 158.163 85.8638Z" fill="url(#paint5_linear_66_920)"/>
<path d="M167.538 77.2567C167.538 77.2567 164.353 79.9266 165.229 82.1621C166.105 84.4022 170.355 81.0851 170.719 80.2887C170.719 80.2887 170.27 77.2341 167.534 77.2522L167.538 77.2567Z" fill="#FFE6D2"/>
<path d="M162.659 68.4095C162.659 68.4095 158.994 71.4822 160.004 74.0572C161.011 76.6321 165.907 72.8172 166.325 71.9031C166.325 71.9031 165.809 68.3869 162.659 68.4095Z" fill="#FFE6D2"/>
<g style="mix-blend-mode:multiply" opacity="0.51">
<path d="M151.527 46.2762C151.527 46.2762 152.381 47.6519 155.166 47.4211C157.951 47.1903 161.559 44.5294 162.444 42.6695C163.329 40.8095 163.639 38.5197 162.898 37.0309C162.898 37.0309 164.775 38.6329 163.949 41.6105C163.127 44.5882 160.004 47.0681 157.695 48.0229C155.391 48.9778 153.437 48.7832 152.322 48.0229C151.208 47.2627 151.5 46.6201 151.527 46.2762Z" fill="#F2C5A0"/>
</g>
<g style="mix-blend-mode:multiply" opacity="0.51">
<path d="M170.328 85.3434L168.495 84.384L165.521 87.4341L170.328 85.3434Z" fill="#F2C5A0"/>
</g>
<g style="mix-blend-mode:multiply" opacity="0.96">
<path d="M185.207 81.9947C185.207 81.9947 181.909 81.1168 180.696 80.2751C179.483 79.4334 171.963 74.4329 171.963 74.4329C171.963 74.4329 179.901 81.6463 180.62 81.9902C181.339 82.3341 184.766 83.7596 184.766 83.7596C184.766 83.7596 185.166 82.7912 185.202 81.9902L185.207 81.9947Z" fill="#F2C5A0"/>
</g>
<g style="mix-blend-mode:multiply" opacity="0.96">
<path d="M193.05 76.6864C193.05 76.6864 189.483 75.3967 187.96 74.4374C186.438 73.478 176.649 66.4908 176.649 66.4908C176.649 66.4908 187.031 75.2293 187.736 75.6411C188.441 76.0529 189.982 77.2159 192.987 77.7725L193.05 76.6864Z" fill="#F2C5A0"/>
</g>
<g style="mix-blend-mode:multiply" opacity="0.96">
<path d="M155.333 49.3715C155.333 49.3715 162.04 48.9687 164.398 42.3301C164.398 42.3301 168.293 42.416 170.283 40.3842L171.788 40.7869C171.788 40.7869 169.398 43.2487 165.934 43.4795C165.934 43.4795 164.232 50.1227 155.333 49.376V49.3715Z" fill="#F2C5A0"/>
</g>
<g style="mix-blend-mode:multiply" opacity="0.96">
<path d="M171.429 78.5825C171.429 78.5825 171.882 79.5962 171.429 80.9312C171.429 80.9312 171.092 81.5014 170.238 82.5286C169.385 83.5559 168.944 84.1758 168.944 84.1758L169.726 84.556L172.129 81.352C172.129 81.352 172.785 79.922 171.424 78.5825H171.429Z" fill="#F2C5A0"/>
</g>
<g style="mix-blend-mode:multiply" opacity="0.96">
<path d="M167.543 69.5544C167.543 69.5544 168.383 71.1202 167.17 73.4462C165.957 75.7768 161.617 80.2931 161.617 80.2931L162.053 80.5058C162.053 80.5058 163.495 79.035 164.42 78.3291C164.42 78.3291 167.367 75.4102 167.902 73.9983C168.437 72.5864 168.562 70.3509 167.543 69.5499V69.5544Z" fill="#F2C5A0"/>
</g>
<g style="mix-blend-mode:multiply" opacity="0.96">
<path d="M158.032 64.7034C158.032 64.7034 159.928 67.0882 158.45 69.4188L153.297 75.4692L153.621 75.7543C153.621 75.7543 157.619 71.3828 158.585 70.4279C158.585 70.4279 161.788 67.3914 158.037 64.7034H158.032Z" fill="#F2C5A0"/>
</g>
<g style="mix-blend-mode:multiply" opacity="0.96">
<path d="M143.935 64.373C143.935 64.373 145.539 66.4773 143.41 69.5862L144.187 70.0161C144.187 70.0161 146.649 66.7941 143.935 64.3776V64.373Z" fill="#F2C5A0"/>
</g>
<path d="M133.935 32.0077L140.499 34.0124C140.499 34.0124 138.711 56.1911 126.289 69.1653L114.757 64.1286L119.38 51.3037L133.931 32.0077H133.935Z" fill="white"/>
<path d="M0 0L137.799 31.0891C137.799 31.0891 136.977 57.0238 115.517 79.827L0 57.3361V0Z" fill="#C5AECB"/>
<path d="M111.312 73.6454C112.567 73.6454 113.585 72.6203 113.585 71.3556C113.585 70.091 112.567 69.0658 111.312 69.0658C110.056 69.0658 109.039 70.091 109.039 71.3556C109.039 72.6203 110.056 73.6454 111.312 73.6454Z" fill="#45194F"/>
<path d="M104.2 71.1519C105.456 71.1519 106.474 70.1267 106.474 68.8621C106.474 67.5975 105.456 66.5723 104.2 66.5723C102.945 66.5723 101.927 67.5975 101.927 68.8621C101.927 70.1267 102.945 71.1519 104.2 71.1519Z" fill="#45194F"/>
<path d="M96.7971 68.7309C98.0525 68.7309 99.0702 67.7057 99.0702 66.4411C99.0702 65.1764 98.0525 64.1512 96.7971 64.1512C95.5416 64.1512 94.5239 65.1764 94.5239 66.4411C94.5239 67.7057 95.5416 68.7309 96.7971 68.7309Z" fill="#45194F"/>
<path d="M206.986 32.1028L200.211 34.6868C200.211 34.6868 200.957 45.2399 207.12 56.9107C210.642 63.5811 214.766 71.1429 218.194 74.021L229.322 69.0748L206.99 32.1028H206.986Z" fill="white"/>
<path d="M355 0.19458L203.715 31.2837C203.715 31.2837 204.537 57.2184 225.997 80.0216L355 57.5307V0.19458Z" fill="#45194F"/>
<path d="M230.202 73.84C231.458 73.84 232.475 72.8148 232.475 71.5502C232.475 70.2856 231.458 69.2604 230.202 69.2604C228.947 69.2604 227.929 70.2856 227.929 71.5502C227.929 72.8148 228.947 73.84 230.202 73.84Z" fill="#C5AECB"/>
<path d="M237.309 71.342C238.564 71.342 239.582 70.3168 239.582 69.0522C239.582 67.7875 238.564 66.7623 237.309 66.7623C236.054 66.7623 235.036 67.7875 235.036 69.0522C235.036 70.3168 236.054 71.342 237.309 71.342Z" fill="#C5AECB"/>
<path d="M246.99 66.6356C246.99 67.9027 245.97 68.9255 244.717 68.9255C243.464 68.9255 242.444 67.8982 242.444 66.6356C242.444 65.3731 243.464 64.3458 244.717 64.3458C245.97 64.3458 246.99 65.3731 246.99 66.6356Z" fill="#C5AECB"/>
<defs>
<linearGradient id="paint0_linear_66_920" x1="200.4" y1="69.7129" x2="169.256" y2="39.2498" gradientUnits="userSpaceOnUse">
<stop/>
<stop offset="1" stop-opacity="0"/>
</linearGradient>
<linearGradient id="paint1_linear_66_920" x1="219.753" y1="103.848" x2="177.908" y2="70.7037" gradientUnits="userSpaceOnUse">
<stop/>
<stop offset="1" stop-opacity="0"/>
</linearGradient>
<linearGradient id="paint2_linear_66_920" x1="136.123" y1="74.184" x2="141.533" y2="62.8741" gradientUnits="userSpaceOnUse">
<stop/>
<stop offset="1" stop-opacity="0"/>
</linearGradient>
<linearGradient id="paint3_linear_66_920" x1="142.044" y1="81.1348" x2="156.489" y2="63.9429" gradientUnits="userSpaceOnUse">
<stop/>
<stop offset="1" stop-opacity="0"/>
</linearGradient>
<linearGradient id="paint4_linear_66_920" x1="148.854" y1="88.5384" x2="163.877" y2="70.4362" gradientUnits="userSpaceOnUse">
<stop/>
<stop offset="1" stop-opacity="0"/>
</linearGradient>
<linearGradient id="paint5_linear_66_920" x1="159.627" y1="89.2895" x2="169.487" y2="77.5629" gradientUnits="userSpaceOnUse">
<stop/>
<stop offset="1" stop-opacity="0"/>
</linearGradient>
</defs>
</svg>
