<svg width="118" height="175" viewBox="0 0 118 175" fill="none" xmlns="http://www.w3.org/2000/svg">
<path d="M63.9151 0C92.8601 2.72626 116.369 27.3133 117.95 57.5966C119.119 79.9804 99.6071 116.259 88.1387 135.094C81.2352 146.426 72.5018 160.545 63.9053 170.414C63.1078 171.333 59.7808 175.09 58.8855 174.998C58.1124 174.922 54.4136 170.805 53.6552 169.916C45.9444 160.91 38.1993 148.665 31.8779 138.471C20.6297 120.341 1.33792 84.6815 0.0951844 63.3487C-1.75914 31.522 23.7366 2.28457 54.1494 0H63.9151ZM57.0116 39.6196C32.3134 42.158 35.2686 81.7624 61.141 79.3763C85.5358 77.1221 82.8253 36.9695 57.0116 39.6196Z" fill="#46194F"/>
</svg>
