<svg width="88" height="147" viewBox="0 0 88 147" fill="none" xmlns="http://www.w3.org/2000/svg">
<g clip-path="url(#clip0_66_963)">
<path d="M86.3656 127.577L65.3203 7.3693C64.6077 3.29895 60.7397 0.575321 56.6809 1.28592L7.353 9.922C3.29418 10.6326 0.58155 14.5083 1.29417 18.5787L22.3395 138.786C23.0521 142.856 26.9201 145.58 30.9789 144.869L80.3068 136.233C84.3656 135.523 87.0783 131.647 86.3656 127.577Z" fill="#46194F"/>
<path d="M82.5134 121.157L23.7699 131.441L3.94049 18.1786C3.47037 15.4933 5.26287 12.9371 7.93668 12.469L56.9857 3.8817C59.6633 3.41291 62.2145 5.21266 62.684 7.89406L82.5134 121.157Z" fill="#EEC33F"/>
<path d="M82.5134 121.157L23.7699 131.441L3.94049 18.1786C3.47037 15.4933 5.26287 12.9371 7.93668 12.469L56.9857 3.8817C59.6633 3.41291 62.2145 5.21266 62.684 7.89406L82.5134 121.157Z" fill="#C6AECC"/>
<path d="M49.4812 5.20343C36.7337 23.4167 23.9862 41.6299 11.2387 59.8431L12.5854 67.5349C24.3755 50.6895 36.1657 33.8441 47.9527 17.0031C51.0199 12.6208 54.084 8.24294 57.1512 3.86061L49.4812 5.20343Z" fill="white"/>
<path d="M68.7249 42.3762L70.0716 50.068C65.7164 56.2906 61.3644 62.5087 57.0092 68.7312C45.219 85.5766 33.4289 102.422 21.6418 119.263L20.2952 111.571C36.4374 88.5077 52.5827 65.4397 68.7249 42.3762Z" fill="white"/>
<path d="M11.1577 59.3796L12.5044 67.0714C18.7145 71.4443 24.9202 75.8139 31.1304 80.1868C47.9423 92.0247 64.7542 103.863 81.5616 115.697L80.215 108.006C57.1936 91.7987 34.1753 75.5872 11.1577 59.3796Z" fill="white"/>
<path d="M58.1503 134.439C58.608 132.376 57.3113 130.331 55.254 129.87C53.1967 129.409 51.1579 130.707 50.7003 132.77C50.2426 134.832 51.5393 136.878 53.5966 137.338C55.6539 137.799 57.6927 136.501 58.1503 134.439Z" fill="#2F0036"/>
<path d="M13.9584 24.7826C12.7116 23.1927 12.6341 20.9283 13.893 19.3498C14.5673 18.5014 15.5464 17.8878 16.6962 17.6865C16.7993 17.6684 16.9024 17.6504 17.0076 17.6438C20.2308 17.3006 22.6427 20.621 21.4894 23.6576C20.5493 26.1357 18.7253 29.4792 18.7253 29.4792C18.7253 29.4792 15.6338 26.9094 13.9622 24.782L13.9584 24.7826Z" fill="#2F0036"/>
<path d="M17.6491 23.1297C18.3727 23.003 18.8563 22.3121 18.7293 21.5865C18.6022 20.8608 17.9127 20.3753 17.1891 20.5019C16.4655 20.6286 15.9819 21.3196 16.1089 22.0452C16.236 22.7709 16.9255 23.2564 17.6491 23.1297Z" fill="white"/>
<path d="M35.133 57.1324C32.6562 53.9812 32.5026 49.4837 35.0017 46.3536C36.3446 44.6696 38.2774 43.4548 40.5616 43.0549C40.7679 43.0188 40.9755 42.9903 41.18 42.9664C47.5767 42.2886 52.3593 48.8735 50.0682 54.9005C48.2011 59.8189 44.5833 66.4533 44.5833 66.4533C44.5833 66.4533 38.4466 61.353 35.1323 57.1285L35.133 57.1324Z" fill="#46194F"/>
<path d="M44.5927 50.7899C44.3406 49.3496 42.9755 48.3884 41.5393 48.6399C40.1031 48.8913 39.1458 50.2591 39.3979 51.6994C39.6501 53.1397 41.0152 54.1009 42.4514 53.8494C43.8876 53.598 44.8449 52.2302 44.5927 50.7899Z" fill="white"/>
<path d="M62.0187 81.5143C60.8982 80.0838 60.8252 78.0476 61.9587 76.6292C62.5655 75.8676 63.445 75.3149 64.4802 75.1337C64.5757 75.117 64.6673 75.1009 64.7603 75.0925C67.6593 74.7863 69.8274 77.7705 68.79 80.5025C67.944 82.7312 66.3021 85.7427 66.3021 85.7427C66.3021 85.7427 63.5195 83.4308 62.0149 81.5149L62.0187 81.5143Z" fill="#2F0036"/>
<path d="M66.3063 78.6396C66.1923 77.9884 65.5727 77.552 64.9233 77.6657C64.2739 77.7794 63.8394 78.4003 63.9534 79.0515C64.0674 79.7027 64.6871 80.1391 65.3364 80.0254C65.9858 79.9117 66.4203 79.2908 66.3063 78.6396Z" fill="white"/>
<path d="M39.2871 112.857C37.453 110.522 37.3375 107.186 39.1875 104.868C40.1816 103.621 41.6179 102.718 43.3101 102.421C43.4629 102.395 43.6163 102.372 43.7711 102.356C48.5136 101.854 52.0573 106.737 50.3629 111.203C48.9783 114.852 46.2957 119.767 46.2957 119.767C46.2957 119.767 41.7477 115.984 39.2864 112.854L39.2871 112.857Z" fill="#2F0036"/>
<path d="M46.2981 108.156C46.1117 107.091 45.0969 106.376 44.035 106.562C42.9731 106.748 42.2614 107.765 42.4479 108.83C42.6343 109.895 43.6491 110.609 44.711 110.423C45.7729 110.238 46.4846 109.221 46.2981 108.156Z" fill="white"/>
</g>
<defs>
<clipPath id="clip0_66_963">
<rect width="65" height="137" fill="white" transform="translate(0 11.2094) rotate(-9.93042)"/>
</clipPath>
</defs>
</svg>
