<svg width="353" height="322" viewBox="0 0 353 322" fill="none" xmlns="http://www.w3.org/2000/svg">
<g clip-path="url(#clip0_109_6802)">
<path d="M135.508 214.933H24.9585V147.37H25.4994V214.404H135.508V214.933Z" fill="#C6AECC" stroke="#C6AECC" stroke-miterlimit="10"/>
<path d="M55.6092 112.73H5.98828V176.023H55.6092V112.73Z" fill="#390D41"/>
<path d="M49.6209 118.02H0V181.313H49.6209V118.02Z" fill="#46194F"/>
<path d="M30.007 125.025H5.46052C4.98397 125.025 4.59766 125.412 4.59766 125.89C4.59766 126.367 4.98397 126.754 5.46052 126.754H30.007C30.4835 126.754 30.8698 126.367 30.8698 125.89C30.8698 125.412 30.4835 125.025 30.007 125.025Z" fill="#C6AECC"/>
<path d="M30.007 172.579H5.46052C4.98397 172.579 4.59766 172.966 4.59766 173.443C4.59766 173.921 4.98397 174.308 5.46052 174.308H30.007C30.4835 174.308 30.8698 173.921 30.8698 173.443C30.8698 172.966 30.4835 172.579 30.007 172.579Z" fill="#C6AECC"/>
<path d="M44.1604 132.03H5.46052C4.98401 132.03 4.59766 131.643 4.59766 131.166C4.59766 130.689 4.98401 130.302 5.46052 130.302H44.1604C44.637 130.302 45.0233 130.689 45.0233 131.166C45.0233 131.643 44.637 132.03 44.1604 132.03Z" fill="#C6AECC"/>
<path d="M44.1604 137.32H5.46052C4.98401 137.32 4.59766 136.933 4.59766 136.456C4.59766 135.978 4.98401 135.591 5.46052 135.591H44.1604C44.637 135.591 45.0233 135.978 45.0233 136.456C45.0233 136.933 44.637 137.32 44.1604 137.32Z" fill="#C6AECC"/>
<path d="M44.1604 142.597H5.46052C4.98401 142.597 4.59766 142.209 4.59766 141.732C4.59766 141.255 4.98401 140.868 5.46052 140.868H44.1604C44.637 140.868 45.0233 141.255 45.0233 141.732C45.0233 142.209 44.637 142.597 44.1604 142.597Z" fill="#C6AECC"/>
<path d="M44.1604 147.886H5.46052C4.98401 147.886 4.59766 147.499 4.59766 147.022C4.59766 146.544 4.98401 146.157 5.46052 146.157H44.1604C44.637 146.157 45.0233 146.544 45.0233 147.022C45.0233 147.499 44.637 147.886 44.1604 147.886Z" fill="#C6AECC"/>
<path d="M44.1604 153.163H5.46052C4.98401 153.163 4.59766 152.776 4.59766 152.298C4.59766 151.821 4.98401 151.434 5.46052 151.434H44.1604C44.637 151.434 45.0233 151.821 45.0233 152.298C45.0233 152.776 44.637 153.163 44.1604 153.163Z" fill="#C6AECC"/>
<path d="M44.1604 158.452H5.46052C4.98401 158.452 4.59766 158.065 4.59766 157.588C4.59766 157.11 4.98401 156.723 5.46052 156.723H44.1604C44.637 156.723 45.0233 157.11 45.0233 157.588C45.0233 158.065 44.637 158.452 44.1604 158.452Z" fill="#C6AECC"/>
<path d="M44.1604 163.729H5.46052C4.98401 163.729 4.59766 163.342 4.59766 162.864C4.59766 162.387 4.98401 162 5.46052 162H44.1604C44.637 162 45.0233 162.387 45.0233 162.864C45.0233 163.342 44.637 163.729 44.1604 163.729Z" fill="#C6AECC"/>
<path d="M44.1604 169.018H5.46052C4.98401 169.018 4.59766 168.631 4.59766 168.154C4.59766 167.676 4.98401 167.289 5.46052 167.289H44.1604C44.637 167.289 45.0233 167.676 45.0233 168.154C45.0233 168.631 44.637 169.018 44.1604 169.018Z" fill="#C6AECC"/>
<path d="M47.6505 188.615C53.5682 188.615 58.3654 183.809 58.3654 177.881C58.3654 171.953 53.5682 167.147 47.6505 167.147C41.7328 167.147 36.9355 171.953 36.9355 177.881C36.9355 183.809 41.7328 188.615 47.6505 188.615Z" fill="#C6AECC"/>
<path d="M46.3368 184.241C45.8732 184.241 45.4353 184.022 45.152 183.648L41.4043 178.642C40.9149 177.984 41.0437 177.056 41.7005 176.565C42.3573 176.075 43.2846 176.204 43.774 176.862L46.311 180.255L51.3852 173.185C51.8617 172.514 52.7889 172.372 53.4457 172.85C54.1025 173.327 54.2571 174.256 53.7806 174.914L47.5345 183.622C47.2641 184.009 46.8133 184.229 46.3497 184.241H46.3368Z" fill="white"/>
<path d="M307.152 235.872H170.434V236.414H307.152V235.872Z" fill="#C6AECC" stroke="#C6AECC" stroke-miterlimit="10"/>
<path fill-rule="evenodd" clip-rule="evenodd" d="M287.861 250.928V257.597C287.861 258.707 288.724 259.597 289.78 259.597C290.836 259.597 291.699 258.694 291.699 257.597V255.314H346.329C347.875 255.314 349.137 253.998 349.137 252.385C349.137 242.58 349.137 237.575 349.137 227.77C349.137 226.157 347.875 224.841 346.329 224.841H340.972C339.658 224.841 338.847 224.467 338.048 223.642C336.142 221.655 334.223 219.655 332.317 217.668C331.442 216.765 330.836 216.417 329.355 216.417H290.913C289.226 216.417 287.835 217.862 287.835 219.629C287.835 231.679 287.835 238.904 287.835 250.953L287.861 250.928Z" fill="#390D41"/>
<path fill-rule="evenodd" clip-rule="evenodd" d="M345.183 202.819H296.656C295.394 202.819 294.351 204.019 294.351 205.49V247.302C294.351 248.773 295.394 249.973 296.656 249.973H345.183C346.445 249.973 347.488 248.773 347.488 247.302V205.49C347.488 204.019 346.445 202.819 345.183 202.819Z" fill="#C6AECC"/>
<path fill-rule="evenodd" clip-rule="evenodd" d="M321.615 220.016H294.506C292.96 220.016 291.698 221.332 291.698 222.945V256.669V257.597C291.698 258.707 290.835 259.597 289.779 259.597H350.18C351.725 259.597 352.987 258.281 352.987 256.669V214.791C352.987 213.024 351.596 211.579 349.909 211.579C343.47 211.579 339.658 211.579 333.219 211.579C331.75 211.579 331.132 211.927 330.256 212.83C328.35 214.817 326.432 216.817 324.526 218.804C323.727 219.629 322.929 220.003 321.602 220.003L321.615 220.016Z" fill="#46194F"/>
<path fill-rule="evenodd" clip-rule="evenodd" d="M291.312 243.419C285.04 243.419 279.953 248.515 279.953 254.798C279.953 261.081 285.04 266.177 291.312 266.177C297.584 266.177 302.671 261.081 302.671 254.798C302.671 248.515 297.584 243.419 291.312 243.419Z" fill="#C6AECC"/>
<path d="M290.848 247.199C293.295 247.199 295.278 249.186 295.278 251.637V252.037H293.669V251.637C293.669 250.076 292.406 248.812 290.848 248.812C289.29 248.812 288.028 250.076 288.028 251.637V252.037H286.418V251.637C286.418 249.186 288.401 247.199 290.848 247.199Z" fill="white"/>
<path d="M285.838 252.798H295.871C296.18 252.798 296.425 253.043 296.425 253.353V260.487C296.425 260.797 296.18 261.042 295.871 261.042H285.838C285.529 261.042 285.285 260.797 285.285 260.487V253.353C285.285 253.043 285.529 252.798 285.838 252.798ZM290.462 257.249L290.282 259.017H291.441L291.26 257.249C291.724 257.081 292.059 256.643 292.059 256.127C292.059 255.469 291.531 254.94 290.874 254.94C290.217 254.94 289.689 255.469 289.689 256.127C289.689 256.643 290.024 257.081 290.488 257.249H290.462Z" fill="white"/>
<path d="M203.107 133.759C193.538 133.759 186.056 133.527 185.334 132.805L185.708 132.43C187.099 133.811 223.223 133.14 247.332 132.366V61.1386H247.873V132.882H247.615C243.674 133.024 220.094 133.772 203.107 133.772V133.759Z" fill="#C6AECC" stroke="#C6AECC" stroke-miterlimit="10"/>
<path d="M293.707 23.5059V81.9998C293.707 83.7285 292.201 85.1348 290.359 85.1348H204.833C202.991 85.1348 201.484 83.7285 201.484 81.9998V23.5059C201.484 21.7772 202.991 20.3709 204.833 20.3709H290.359C292.201 20.3709 293.707 21.7772 293.707 23.5059Z" fill="#EDE7ED"/>
<path d="M293.707 23.7382V27.3892H201.484V23.7382C201.484 21.8933 202.991 20.3839 204.833 20.3839H290.359C292.201 20.3839 293.707 21.8933 293.707 23.7382Z" fill="#46194F"/>
<path d="M279.631 23.8026C279.631 24.538 279.039 25.1315 278.305 25.1315C277.57 25.1315 276.978 24.538 276.978 23.8026C276.978 23.0673 277.57 22.4738 278.305 22.4738C279.039 22.4738 279.631 23.0673 279.631 23.8026Z" fill="#EDE7ED"/>
<path d="M284.255 23.8026C284.255 24.538 283.662 25.1315 282.928 25.1315C282.194 25.1315 281.602 24.538 281.602 23.8026C281.602 23.0673 282.194 22.4738 282.928 22.4738C283.662 22.4738 284.255 23.0673 284.255 23.8026Z" fill="#EDE7ED"/>
<path d="M288.878 23.8026C288.878 24.538 288.286 25.1315 287.552 25.1315C286.818 25.1315 286.225 24.538 286.225 23.8026C286.225 23.0673 286.818 22.4738 287.552 22.4738C288.286 22.4738 288.878 23.0673 288.878 23.8026Z" fill="#EDE7ED"/>
<path d="M247.602 59.2808C254.231 59.2808 259.605 53.8976 259.605 47.2569C259.605 40.6163 254.231 35.2331 247.602 35.2331C240.973 35.2331 235.6 40.6163 235.6 47.2569C235.6 53.8976 240.973 59.2808 247.602 59.2808Z" fill="#C6AECC"/>
<path d="M247.602 35.2331C240.983 35.2331 235.6 40.6128 235.6 47.2569C235.6 53.901 240.97 59.2808 247.602 59.2808C254.235 59.2808 259.605 53.901 259.605 47.2569C259.605 40.6128 254.235 35.2331 247.602 35.2331ZM247.602 38.8325C249.792 38.8325 251.569 40.6128 251.569 42.806C251.569 44.9992 249.792 46.7796 247.602 46.7796C245.413 46.7796 243.636 44.9992 243.636 42.806C243.636 40.6128 245.413 38.8325 247.602 38.8325ZM247.589 56.1458C245.4 56.1458 243.404 55.346 241.859 54.0301C241.485 53.7075 241.266 53.2302 241.266 52.7399C241.266 50.508 243.069 48.7277 245.284 48.7277H249.908C252.136 48.7277 253.926 50.508 253.926 52.7399C253.926 53.2302 253.707 53.7075 253.333 54.0301C251.788 55.346 249.792 56.1458 247.602 56.1458H247.589Z" fill="#46194F"/>
<path d="M267.203 69.0083H228.001C226.443 69.0083 225.181 67.744 225.181 66.183C225.181 64.6219 226.443 63.3576 228.001 63.3576H267.203C268.762 63.3576 270.024 64.6219 270.024 66.183C270.024 67.744 268.762 69.0083 267.203 69.0083ZM228.001 63.7317C226.649 63.7317 225.554 64.8283 225.554 66.183C225.554 67.5376 226.649 68.6342 228.001 68.6342H267.203C268.555 68.6342 269.65 67.5376 269.65 66.183C269.65 64.8283 268.555 63.7317 267.203 63.7317H228.001Z" fill="#46194F"/>
<path d="M267.204 76.3749H228.001C226.546 76.3749 225.361 75.188 225.361 73.7301C225.361 72.2723 226.546 71.0854 228.001 71.0854H267.204C268.659 71.0854 269.844 72.2723 269.844 73.7301C269.844 75.188 268.659 76.3749 267.204 76.3749Z" fill="#46194F"/>
<path d="M239.695 65.6024H239.128V65.9765H239.631V66.2087H239.128V66.6087H239.695V66.8538H238.832V65.3573H239.695V65.6024Z" fill="#606161"/>
<path d="M240.738 66.1959C240.738 66.0023 240.635 65.8991 240.481 65.8991C240.326 65.8991 240.21 66.0023 240.21 66.1959V66.8538H239.914V65.6669H240.21V65.8088C240.288 65.7056 240.416 65.6411 240.571 65.6411C240.841 65.6411 241.047 65.8217 241.047 66.1443V66.8409H240.751V66.183L240.738 66.1959Z" fill="#606161"/>
<path d="M241.305 65.912H241.163V65.6669H241.305V65.3702H241.601V65.6669H241.871V65.912H241.601V66.4797C241.601 66.5571 241.627 66.5958 241.73 66.5958H241.871V66.8538H241.678C241.446 66.8538 241.305 66.7635 241.305 66.4797V65.912Z" fill="#606161"/>
<path d="M242.554 66.8667C242.206 66.8667 241.961 66.6216 241.961 66.2603C241.961 65.8991 242.206 65.654 242.554 65.654C242.902 65.654 243.133 65.8862 243.133 66.2345C243.133 66.2732 243.133 66.312 243.133 66.3507H242.27C242.283 66.5313 242.399 66.6216 242.554 66.6216C242.683 66.6216 242.747 66.5571 242.786 66.4797H243.108C243.043 66.699 242.85 66.8667 242.554 66.8667ZM242.258 66.1442H242.824C242.824 65.9894 242.695 65.8862 242.541 65.8862C242.399 65.8862 242.283 65.9765 242.258 66.1442Z" fill="#606161"/>
<path d="M243.597 66.8538H243.301V65.6669H243.597V65.8475C243.674 65.7314 243.79 65.6411 243.958 65.6411V65.9507H243.88C243.7 65.9507 243.597 66.0152 243.597 66.2475V66.8409V66.8538Z" fill="#606161"/>
<path d="M245.374 65.6669H245.696L244.962 67.4086H244.64L244.898 66.8151L244.421 65.654H244.756L245.065 66.4797L245.374 65.654V65.6669Z" fill="#606161"/>
<path d="M246.314 66.8667C245.967 66.8667 245.709 66.6216 245.709 66.2603C245.709 65.8991 245.979 65.654 246.314 65.654C246.649 65.654 246.92 65.8862 246.92 66.2603C246.92 66.6345 246.649 66.8667 246.301 66.8667H246.314ZM246.314 66.6087C246.469 66.6087 246.623 66.4926 246.623 66.2603C246.623 66.0281 246.482 65.912 246.314 65.912C246.147 65.912 246.018 66.0281 246.018 66.2603C246.018 66.4926 246.16 66.6087 246.314 66.6087Z" fill="#606161"/>
<path d="M248.208 66.8538H247.912V66.699C247.834 66.8022 247.706 66.8667 247.564 66.8667C247.293 66.8667 247.087 66.6861 247.087 66.3636V65.6669H247.384V66.3249C247.384 66.5184 247.487 66.6216 247.641 66.6216C247.796 66.6216 247.912 66.5184 247.912 66.3249V65.6669H248.208V66.8538Z" fill="#606161"/>
<path d="M248.748 66.8538H248.452V65.6669H248.748V65.8475C248.826 65.7314 248.942 65.6411 249.109 65.6411V65.9507H249.032C248.851 65.9507 248.748 66.0152 248.748 66.2475V66.8409V66.8538Z" fill="#606161"/>
<path d="M250.23 66.8667C249.882 66.8667 249.637 66.6216 249.637 66.2603C249.637 65.8991 249.882 65.654 250.23 65.654C250.577 65.654 250.809 65.8862 250.809 66.2345C250.809 66.2732 250.809 66.312 250.809 66.3507H249.946C249.959 66.5313 250.075 66.6216 250.23 66.6216C250.358 66.6216 250.423 66.5571 250.461 66.4797H250.783C250.719 66.699 250.526 66.8667 250.23 66.8667ZM249.946 66.1442H250.513C250.513 65.9894 250.384 65.8862 250.23 65.8862C250.088 65.8862 249.972 65.9765 249.946 66.1442Z" fill="#606161"/>
<path d="M252.625 66.1958C252.625 66.0023 252.522 65.912 252.367 65.912C252.213 65.912 252.097 66.0152 252.097 66.1958V66.8538H251.801V66.1958C251.801 66.0023 251.698 65.912 251.543 65.912C251.389 65.912 251.273 66.0152 251.273 66.1958V66.8538H250.977V65.6669H251.273V65.8088C251.35 65.7056 251.479 65.654 251.62 65.654C251.801 65.654 251.955 65.7314 252.033 65.8862C252.11 65.7572 252.264 65.654 252.445 65.654C252.728 65.654 252.934 65.8346 252.934 66.1571V66.8538H252.638V66.1958H252.625Z" fill="#606161"/>
<path d="M253.617 65.6411C253.81 65.6411 253.939 65.7314 254.003 65.8346V65.6669H254.299V66.8538H254.003V66.6861C253.939 66.7893 253.797 66.8796 253.604 66.8796C253.308 66.8796 253.063 66.6345 253.063 66.2604C253.063 65.8862 253.308 65.654 253.604 65.654L253.617 65.6411ZM253.694 65.912C253.54 65.912 253.385 66.0281 253.385 66.2604C253.385 66.4926 253.54 66.6087 253.694 66.6087C253.849 66.6087 254.003 66.4797 254.003 66.2604C254.003 66.041 253.849 65.912 253.694 65.912Z" fill="#606161"/>
<path d="M254.505 65.3444C254.505 65.2412 254.583 65.1638 254.686 65.1638C254.789 65.1638 254.866 65.2412 254.866 65.3444C254.866 65.4476 254.789 65.525 254.686 65.525C254.583 65.525 254.505 65.4476 254.505 65.3444ZM254.544 65.6669H254.84V66.8538H254.544V65.6669Z" fill="#606161"/>
<path d="M255.085 65.267H255.381V66.8538H255.085V65.267Z" fill="#606161"/>
<path d="M255.755 66.8667C255.651 66.8667 255.574 66.7893 255.574 66.6861C255.574 66.5829 255.651 66.5055 255.755 66.5055C255.858 66.5055 255.935 66.5829 255.935 66.6861C255.935 66.7893 255.858 66.8667 255.755 66.8667Z" fill="#606161"/>
<path d="M256.256 66.8667C256.153 66.8667 256.076 66.7893 256.076 66.6861C256.076 66.5829 256.153 66.5055 256.256 66.5055C256.359 66.5055 256.437 66.5829 256.437 66.6861C256.437 66.7893 256.359 66.8667 256.256 66.8667Z" fill="#606161"/>
<path d="M256.746 66.8667C256.643 66.8667 256.566 66.7893 256.566 66.6861C256.566 66.5829 256.643 66.5055 256.746 66.5055C256.849 66.5055 256.927 66.5829 256.927 66.6861C256.927 66.7893 256.849 66.8667 256.746 66.8667Z" fill="#606161"/>
<g opacity="0.9">
<path d="M244.344 73.0335V74.2849H244.833V74.5171H244.048V73.0206H244.344V73.0335Z" fill="white"/>
<path d="M245.49 74.5429C245.142 74.5429 244.885 74.2978 244.885 73.9366C244.885 73.5753 245.155 73.3302 245.49 73.3302C245.825 73.3302 246.095 73.5624 246.095 73.9366C246.095 74.3107 245.825 74.5429 245.477 74.5429H245.49ZM245.49 74.2849C245.645 74.2849 245.799 74.1688 245.799 73.9366C245.799 73.7043 245.657 73.5882 245.49 73.5882C245.323 73.5882 245.194 73.7043 245.194 73.9366C245.194 74.1688 245.336 74.2849 245.49 74.2849Z" fill="white"/>
<path d="M246.739 73.3173C246.92 73.3173 247.061 73.4076 247.126 73.5108V73.3431H247.422V74.5429C247.422 74.8655 247.229 75.1235 246.842 75.1235C246.508 75.1235 246.276 74.9558 246.25 74.6848H246.546C246.572 74.7881 246.688 74.8655 246.842 74.8655C247.01 74.8655 247.139 74.7752 247.139 74.5558V74.3752C247.074 74.4784 246.933 74.5687 246.752 74.5687C246.456 74.5687 246.211 74.3236 246.211 73.9495C246.211 73.5753 246.456 73.3431 246.752 73.3431L246.739 73.3173ZM246.817 73.5753C246.662 73.5753 246.508 73.6915 246.508 73.9237C246.508 74.1559 246.662 74.272 246.817 74.272C246.971 74.272 247.126 74.143 247.126 73.9237C247.126 73.7044 246.971 73.5753 246.817 73.5753Z" fill="white"/>
<path d="M247.628 73.0206C247.628 72.9174 247.705 72.84 247.808 72.84C247.911 72.84 247.989 72.9174 247.989 73.0206C247.989 73.1238 247.911 73.2012 247.808 73.2012C247.705 73.2012 247.628 73.1238 247.628 73.0206ZM247.667 73.3431H247.963V74.53H247.667V73.3431Z" fill="white"/>
<path d="M249.032 73.8721C249.032 73.6785 248.929 73.5753 248.774 73.5753C248.62 73.5753 248.504 73.6785 248.504 73.8721V74.53H248.208V73.3431H248.504V73.485C248.581 73.3818 248.71 73.3173 248.864 73.3173C249.135 73.3173 249.341 73.4979 249.341 73.8205V74.5171H249.045V73.8592L249.032 73.8721Z" fill="white"/>
<path d="M249.985 73.0206C249.985 72.9174 250.062 72.84 250.165 72.84C250.268 72.84 250.345 72.9174 250.345 73.0206C250.345 73.1238 250.268 73.2012 250.165 73.2012C250.062 73.2012 249.985 73.1238 249.985 73.0206ZM250.011 73.3431H250.307V74.53H250.011V73.3431Z" fill="white"/>
<path d="M251.375 73.8721C251.375 73.6785 251.272 73.5753 251.118 73.5753C250.963 73.5753 250.847 73.6785 250.847 73.8721V74.53H250.551V73.3431H250.847V73.485C250.925 73.3818 251.054 73.3173 251.208 73.3173C251.479 73.3173 251.685 73.4979 251.685 73.8205V74.5171H251.388V73.8592L251.375 73.8721Z" fill="white"/>
</g>
<g opacity="0.2">
<path d="M247.01 134.185C246.637 128.483 243.198 123.425 238.047 120.974L171.284 89.2115C167.009 87.1731 162.05 87.1731 157.775 89.2115L91.0126 120.974C85.8612 123.425 82.4226 128.483 82.0492 134.185C75.7902 231.15 137.852 266.486 158.2 275.414C162.231 277.181 166.816 277.181 170.859 275.414C191.207 266.486 253.269 231.163 247.01 134.185Z" fill="white"/>
</g>
<path d="M232.908 142.403C232.599 137.681 229.753 133.488 225.477 131.45L170.125 105.119C166.583 103.429 162.462 103.429 158.921 105.119L103.569 131.45C99.2932 133.488 96.447 137.668 96.138 142.403C90.9479 222.79 142.398 252.076 159.268 259.481C162.617 260.952 166.416 260.952 169.764 259.481C186.635 252.076 238.085 222.79 232.895 142.403H232.908Z" fill="#EDE7ED"/>
<path d="M198.96 219.913C187.382 234.698 173.847 242.619 165.914 246.322C165.412 246.554 164.871 246.657 164.33 246.619C163.931 246.593 163.531 246.49 163.158 246.322C155.225 242.619 141.689 234.698 130.112 219.913C114.928 200.523 108.012 175.494 109.545 145.512C109.609 144.312 110.317 143.242 111.399 142.725L163.132 118.11C163.518 117.929 163.918 117.826 164.317 117.8C164.858 117.762 165.412 117.865 165.927 118.11L217.66 142.725C218.741 143.242 219.45 144.312 219.514 145.512C221.047 175.494 214.131 200.523 198.947 219.913H198.96Z" fill="#46194F"/>
<g opacity="0.1">
<path d="M198.96 219.913C187.382 234.698 173.847 242.619 165.914 246.322C165.411 246.554 164.87 246.657 164.33 246.619V117.813C164.87 117.775 165.424 117.878 165.939 118.123L217.672 142.738C218.754 143.254 219.463 144.325 219.527 145.525C221.059 175.507 214.144 200.536 198.96 219.926V219.913Z" fill="#010101"/>
</g>
<path d="M164.536 152.634C154.092 152.634 145.579 161.148 145.579 171.624V173.327H152.469V171.624C152.469 164.954 157.878 159.536 164.536 159.536C171.194 159.536 176.603 164.954 176.603 171.624V173.327H183.493V171.624C183.493 161.148 174.994 152.634 164.536 152.634Z" fill="#C6AECC"/>
<path d="M185.992 176.539H143.055C141.741 176.539 140.685 177.597 140.685 178.913V209.424C140.685 210.74 141.741 211.798 143.055 211.798H185.992C187.305 211.798 188.361 210.74 188.361 209.424V178.913C188.361 177.597 187.305 176.539 185.992 176.539ZM166.223 195.607L167.022 203.193H162.051L162.849 195.607C160.879 194.911 159.449 193.04 159.449 190.821C159.449 188.009 161.729 185.725 164.536 185.725C167.344 185.725 169.623 188.009 169.623 190.821C169.623 193.04 168.194 194.911 166.223 195.607Z" fill="#C6AECC"/>
<path d="M41.1083 254.127C38.8159 254.127 36.9614 252.256 36.9614 249.973C36.9614 247.689 38.8288 245.819 41.1083 245.819C43.3878 245.819 45.2552 247.689 45.2552 249.973C45.2552 252.256 43.3878 254.127 41.1083 254.127ZM41.1083 247.122C39.5371 247.122 38.2622 248.399 38.2622 249.973C38.2622 251.547 39.5371 252.824 41.1083 252.824C42.6795 252.824 43.9545 251.547 43.9545 249.973C43.9545 248.399 42.6795 247.122 41.1083 247.122Z" fill="#46194F"/>
<path d="M212.457 322C210.165 322 208.31 320.129 208.31 317.846C208.31 315.562 210.177 313.692 212.457 313.692C214.736 313.692 216.604 315.562 216.604 317.846C216.604 320.129 214.736 322 212.457 322ZM212.457 314.995C210.886 314.995 209.611 316.272 209.611 317.846C209.611 319.42 210.886 320.697 212.457 320.697C214.028 320.697 215.303 319.42 215.303 317.846C215.303 316.272 214.028 314.995 212.457 314.995Z" fill="#46194F"/>
<path d="M141.471 75.2524C139.178 75.2524 137.324 73.3818 137.324 71.0983C137.324 68.8148 139.191 66.9441 141.471 66.9441C143.75 66.9441 145.617 68.8148 145.617 71.0983C145.617 73.3818 143.75 75.2524 141.471 75.2524ZM141.471 68.2471C139.899 68.2471 138.624 69.5243 138.624 71.0983C138.624 72.6722 139.899 73.9494 141.471 73.9494C143.042 73.9494 144.317 72.6722 144.317 71.0983C144.317 69.5243 143.042 68.2471 141.471 68.2471Z" fill="#46194F"/>
<path d="M27.3412 82.3739C27.3412 83.6898 26.2723 84.7606 24.9587 84.7606C23.6451 84.7606 22.5762 83.6898 22.5762 82.3739C22.5762 81.0579 23.6451 79.9872 24.9587 79.9872C26.2723 79.9872 27.3412 81.0579 27.3412 82.3739Z" fill="#46194F"/>
<path d="M269.638 188.628C269.638 189.944 268.569 191.015 267.255 191.015C265.941 191.015 264.873 189.944 264.873 188.628C264.873 187.312 265.941 186.241 267.255 186.241C268.569 186.241 269.638 187.312 269.638 188.628Z" fill="#46194F"/>
<path fill-rule="evenodd" clip-rule="evenodd" d="M84.1353 280.871C85.0239 281.116 85.8739 281.478 86.6595 281.916L89.0034 279.568L93.2275 283.8L90.8837 286.148C91.3344 286.935 91.6821 287.786 91.9268 288.676H95.2366V294.65H91.9268C91.6821 295.54 91.3215 296.391 90.8837 297.178L93.2275 299.526L89.0034 303.758L86.6595 301.41C85.8739 301.861 85.0239 302.21 84.1353 302.455V305.77H78.1726V302.455C77.2839 302.21 76.434 301.848 75.6484 301.41L73.3045 303.758L69.0803 299.526L71.4242 297.178C70.9735 296.391 70.6258 295.54 70.3811 294.65H67.0713V288.676H70.3811C70.6258 287.786 70.9864 286.935 71.4242 286.148L69.0803 283.8L73.3045 279.568L75.6484 281.916C76.434 281.465 77.2839 281.116 78.1726 280.871V277.556H84.1353V280.871ZM81.1604 285.503C84.5603 285.503 87.3034 288.264 87.3034 291.657C87.3034 295.05 84.5474 297.81 81.1604 297.81C77.7733 297.81 75.0173 295.05 75.0173 291.657C75.0173 288.264 77.7733 285.503 81.1604 285.503Z" fill="#C6AECC"/>
<path d="M77.5027 40.4838C80.0913 41.6062 81.2761 44.6122 80.1557 47.1924C79.0352 49.7856 76.0345 50.9725 73.4588 49.8501C70.8703 48.7277 69.6854 45.7217 70.8059 43.1415C71.9263 40.5483 74.927 39.3614 77.5027 40.4838ZM69.1574 35.3234C67.4832 36.4071 65.2424 35.9168 64.1606 34.2397C63.0788 32.5625 63.5681 30.3177 65.2424 29.234C67.8438 27.5569 70.8445 26.5377 73.9482 26.2926C76.9618 26.0474 80.0526 26.5119 82.9889 27.7762C86.0283 29.0921 88.5525 31.1434 90.4585 33.6204C92.4289 36.1878 93.7039 39.2066 94.1804 42.3932C94.4766 44.3671 93.1114 46.2119 91.141 46.5087C89.1706 46.8054 87.329 45.4379 87.0328 43.464C86.7366 41.4901 85.951 39.6195 84.7404 38.0326C83.5814 36.5232 82.0231 35.2718 80.117 34.4461C78.2754 33.6462 76.3694 33.3495 74.5535 33.5043C72.6346 33.6591 70.793 34.2913 69.1703 35.3234H69.1574ZM65.0749 22.3835C63.2591 23.2221 61.1084 22.4222 60.2841 20.5903C59.447 18.7712 60.2455 16.6167 62.0742 15.791C66.1438 13.9204 70.6127 12.9141 75.1717 12.8625C79.5761 12.8109 84.045 13.6623 88.3078 15.5201C92.738 17.4424 96.5243 20.2548 99.5507 23.6478C102.693 27.1827 104.998 31.3369 106.351 35.8136C106.93 37.723 105.848 39.7485 103.929 40.329C102.023 40.9096 100.001 39.8259 99.4219 37.9036C98.3788 34.4332 96.5886 31.2079 94.1546 28.4729C91.8236 25.841 88.8744 23.6736 85.423 22.1771C82.0874 20.7322 78.6231 20.0613 75.249 20.1C71.7202 20.1387 68.2559 20.9257 65.0749 22.3835ZM61.4561 9.9597C59.6016 10.6951 57.5024 9.79198 56.7554 7.93422C56.0213 6.07645 56.9228 3.97356 58.7773 3.22529C64.2636 1.0321 70.1619 -0.0774013 76.1505 5.61588e-06C81.9329 0.0903137 87.7797 1.27722 93.3948 3.71554C99.203 6.23126 104.226 9.85649 108.334 14.2429C112.597 18.7841 115.829 24.1381 117.89 29.892C118.572 31.7756 117.593 33.8526 115.713 34.5235C113.833 35.1944 111.76 34.2268 111.09 32.3432C109.351 27.4795 106.634 22.9899 103.067 19.184C99.6537 15.533 95.4296 12.5012 90.4971 10.3725C85.7707 8.32125 80.864 7.31496 76.0345 7.23756C70.999 7.16015 66.0408 8.10193 61.4432 9.9339L61.4561 9.9597Z" fill="#C6AECC"/>
</g>
<defs>
<clipPath id="clip0_109_6802">
<rect width="353" height="322" fill="white"/>
</clipPath>
</defs>
</svg>
