<svg width="356" height="106" viewBox="0 0 356 106" fill="none" xmlns="http://www.w3.org/2000/svg">
<path d="M107.875 57.6728C112.084 57.8291 114.844 62.1389 113.225 66.0275L89.457 123.103C88.2881 125.91 85.5459 127.738 82.5054 127.738V127.738C76.9758 127.738 73.3321 121.977 75.7017 116.981L102.196 61.1191C103.23 58.9385 105.463 57.5833 107.875 57.6728V57.6728Z" fill="#FEF8EE"/>
<path d="M128.511 58.4249C131.887 58.5459 134.195 61.8827 133.117 65.084L113.83 122.365C112.749 125.576 109.739 127.738 106.352 127.738V127.738C100.64 127.738 96.82 121.858 99.1423 116.639L123.716 61.4189C124.554 59.536 126.452 58.3511 128.511 58.4249V58.4249Z" fill="#FEF8EE"/>
<path d="M149.494 59.1923C154.628 59.3784 158.332 64.1801 157.209 69.1932L145.899 119.678C144.843 124.389 140.661 127.738 135.833 127.738V127.738C128.88 127.738 123.918 120.998 125.984 114.358L141.356 64.9584C142.457 61.4204 145.791 59.058 149.494 59.1923V59.1923Z" fill="#FEF8EE"/>
<path d="M176.582 60.1694C181.974 60.3647 186.091 65.0561 185.584 70.4277L181.163 117.301C180.605 123.217 175.638 127.738 169.695 127.738V127.738C162.486 127.738 157.048 121.191 158.372 114.104L167.019 67.8233C167.872 63.2562 171.939 60.0012 176.582 60.1694V60.1694Z" fill="#FEF8EE"/>
<path d="M251.86 114.378C253.14 121.329 247.802 127.738 240.735 127.738V127.738C234.869 127.738 229.976 123.255 229.465 117.411L225.514 72.2392C225.034 66.7495 229.473 62.0809 234.98 62.2838V62.2838C239.272 62.4419 242.878 65.5591 243.655 69.7826L251.86 114.378Z" fill="#FEF8EE"/>
<path d="M220.034 112.336C220.472 120.709 213.801 127.738 205.417 127.738V127.738C196.779 127.738 190.02 120.296 190.848 111.698L194.693 71.7913C195.284 65.6536 200.553 61.038 206.715 61.2594V61.2594C212.751 61.4763 217.622 66.2679 217.938 72.2997L220.034 112.336Z" fill="#FEF8EE"/>
<path d="M356.274 35.5479C356.299 35.5564 356.32 35.579 356.32 35.6055V175.59C356.32 183.874 349.605 190.59 341.32 190.59H14.1133C5.82901 190.59 -0.886719 183.874 -0.886719 175.59V43.1205C-0.886719 35.3515 4.98068 28.8811 12.7241 28.2521C47.367 25.4383 141.485 18.4073 217.014 18.4073C262.055 18.4073 276.488 22.0159 304.433 25.9315C336.411 30.4038 355.214 35.2696 356.274 35.5479V35.5479Z" fill="#46194F"/>
<path d="M64.8135 53.0476C64.8135 59.9647 70.9627 65.2641 77.8039 64.243L94.7096 61.7196C98.6573 61.1304 102.002 58.5042 103.511 54.809V54.809C106.825 46.6949 100.05 38.0573 91.3803 39.3431L74.4723 41.8507C68.9228 42.6737 64.8135 47.4375 64.8135 53.0476V53.0476Z" fill="#C6AECC"/>
<path d="M246.31 60.7788H101.094C101.085 60.7788 101.077 60.774 101.082 60.766V60.766C101.083 60.7633 101.087 60.7607 101.087 60.7575C101.372 59.3925 114.406 0 173.708 0C176.934 0 180.047 0.153556 183.039 0.451068C218.102 3.91564 234.054 26.7089 241.096 43.2544C244.969 52.3455 246.139 59.5648 246.299 60.6479C246.3 60.66 246.301 60.6698 246.301 60.682V60.735C246.301 60.7386 246.302 60.7421 246.303 60.7453L246.316 60.7704C246.317 60.7743 246.315 60.7788 246.31 60.7788V60.7788Z" fill="#2F0036"/>
<path d="M191.802 36.2052C191.801 36.2035 191.798 36.2047 191.798 36.2071C191.797 37.3564 191.685 38.4771 191.46 39.569C189.941 47.0932 183.433 52.7459 175.64 52.7459C170.913 52.7459 166.656 50.6633 163.683 47.3523C161.254 44.6267 159.698 41.0662 159.491 37.1313C159.473 36.8242 159.463 36.5171 159.463 36.21C159.463 27.0639 166.712 19.6549 175.64 19.6549C181.538 19.6549 186.715 22.8987 189.528 27.7357C190.981 30.21 191.806 33.1059 191.807 36.2033C191.807 36.2057 191.804 36.207 191.802 36.2052V36.2052Z" fill="#C6AECC"/>
<path d="M186.043 46.8458C191.789 40.9653 191.789 31.4312 186.043 25.5507C180.297 19.6702 170.981 19.6702 165.235 25.5507C159.489 31.4312 159.489 40.9653 165.235 46.8458C170.981 52.7263 180.297 52.7263 186.043 46.8458Z" fill="#46194F"/>
<path d="M155.529 39.5642C155.526 39.5673 155.524 39.5714 155.524 39.5757C155.524 39.9575 155.505 40.3486 155.468 40.7303C154.905 46.3638 150.254 50.7401 144.609 50.7401C141.261 50.7401 138.269 49.2045 136.263 46.7765C135.222 45.5192 134.443 44.0221 134.012 42.381C133.787 41.4788 133.674 40.5383 133.674 39.569C133.674 33.398 138.569 28.3883 144.609 28.3883C148.583 28.3883 152.052 30.5555 153.965 33.8067C153.967 33.8092 153.97 33.8107 153.972 33.8107V33.8107C153.975 33.8107 153.978 33.8122 153.979 33.8147C154.962 35.4916 155.533 37.4647 155.534 39.5527C155.534 39.557 155.532 39.5611 155.529 39.5642V39.5642Z" fill="#C6AECC"/>
<path d="M144.6 49.6941C150.064 49.6941 154.493 45.161 154.493 39.5691C154.493 33.9772 150.064 29.4441 144.6 29.4441C139.136 29.4441 134.706 33.9772 134.706 39.5691C134.706 45.161 139.136 49.6941 144.6 49.6941Z" fill="#46194F"/>
<path d="M216.011 39.569C216.011 45.7496 211.116 50.7497 205.086 50.7497C202.938 50.7497 200.931 50.1163 199.243 49.0222C199.075 48.9167 198.915 48.7919 198.746 48.6863C197.218 47.5635 195.98 46.0567 195.183 44.31C194.695 43.2448 194.367 42.0835 194.226 40.8647C194.179 40.4328 194.161 40.0201 194.161 39.5786C194.161 33.4077 199.056 28.3979 205.086 28.3979C209.803 28.3979 213.816 31.4498 215.345 35.7398C215.532 36.2484 215.673 36.7763 215.786 37.3233L215.804 37.4001C215.945 38.1007 216.011 38.8205 216.011 39.569Z" fill="#C6AECC"/>
<path d="M205.086 49.6941C210.55 49.6941 214.979 45.161 214.979 39.5691C214.979 33.9772 210.55 29.4441 205.086 29.4441C199.622 29.4441 195.192 33.9772 195.192 39.5691C195.192 45.161 199.622 49.6941 205.086 49.6941Z" fill="#46194F"/>
<path d="M176.093 37.061C175.6 37.42 174.906 37.2841 174.586 36.7657L167.98 26.0903C167.892 25.9486 167.919 25.7644 168.044 25.6539V25.6539C168.191 25.5233 168.418 25.5437 168.54 25.6986L176.3 35.5671C176.666 36.0336 176.573 36.7115 176.093 37.061V37.061Z" fill="#C6AECC"/>
<path d="M144.114 41.6696C143.786 41.6075 143.575 41.2843 143.651 40.9589L145.284 33.9818C145.306 33.889 145.392 33.826 145.487 33.8334V33.8334C145.596 33.8421 145.676 33.94 145.663 34.0489L144.806 41.1629C144.765 41.5001 144.448 41.7326 144.114 41.6696V41.6696Z" fill="#C6AECC"/>
<path d="M205.766 40.3401C205.722 40.6819 205.4 40.9165 205.061 40.8528L198.208 39.5618C198.113 39.5439 198.045 39.4597 198.047 39.363V39.363C198.05 39.2505 198.146 39.1632 198.258 39.1712L205.215 39.6681C205.557 39.6926 205.809 39.9995 205.766 40.3401V40.3401Z" fill="#C6AECC"/>
<path d="M175.733 23.3979C175.733 24.2329 175.686 24.9143 175.639 24.9143C175.593 24.9143 175.546 24.2329 175.546 23.3979C175.546 22.563 175.593 21.8816 175.639 21.8816C175.686 21.8816 175.733 22.563 175.733 23.3979Z" fill="#C6AECC"/>
<path d="M174.317 23.4651C174.411 24.3 174.439 24.9814 174.392 24.9814C174.336 24.9814 174.224 24.3192 174.13 23.4842C174.036 22.6493 174.008 21.9679 174.055 21.9679C174.111 21.9679 174.224 22.6301 174.317 23.4651Z" fill="#C6AECC"/>
<path d="M172.929 23.705C173.117 24.5207 173.22 25.1925 173.164 25.2021C173.107 25.2117 172.92 24.5591 172.742 23.7434C172.554 22.9276 172.451 22.2558 172.507 22.2462C172.564 22.2366 172.751 22.8892 172.929 23.705Z" fill="#C6AECC"/>
<path d="M171.57 24.0984C171.842 24.8854 172.02 25.5476 171.973 25.5668C171.926 25.586 171.663 24.9621 171.391 24.1656C171.119 23.369 170.941 22.7164 170.988 22.6972C171.035 22.678 171.298 23.3018 171.57 24.0984Z" fill="#C6AECC"/>
<path d="M170.257 24.6455C170.302 24.741 170.345 24.8344 170.386 24.9248C170.723 25.6627 170.574 25.7332 170.218 25.0041C170.176 24.9165 170.132 24.8255 170.088 24.7319C169.732 23.9737 169.478 23.3499 169.525 23.3211C169.572 23.2923 169.9 23.8873 170.257 24.6455Z" fill="#C6AECC"/>
<path d="M169.019 25.3366C169.46 26.0468 169.779 26.6418 169.732 26.6706C169.685 26.6994 169.291 26.1523 168.86 25.4421C168.419 24.732 168.1 24.1369 168.147 24.1081C168.194 24.0794 168.588 24.6264 169.019 25.3366Z" fill="#C6AECC"/>
<path d="M167.865 26.1715C168.381 26.8241 168.766 27.3808 168.719 27.4192C168.681 27.4576 168.231 26.9489 167.715 26.2963C167.2 25.6437 166.815 25.0871 166.862 25.0487C166.909 25.0103 167.35 25.5189 167.865 26.1715Z" fill="#C6AECC"/>
<path d="M166.806 27.1312C167.387 27.7166 167.828 28.2252 167.791 28.2636C167.753 28.302 167.247 27.8606 166.665 27.2655C166.084 26.6801 165.643 26.1715 165.681 26.1331C165.718 26.0947 166.225 26.5361 166.806 27.1312Z" fill="#C6AECC"/>
<path d="M165.868 28.2156C166.515 28.7339 167.012 29.1849 166.975 29.2329C166.946 29.2713 166.393 28.8874 165.746 28.3692C165.099 27.8509 164.602 27.3999 164.639 27.3519C164.668 27.3135 165.221 27.6974 165.868 28.2156Z" fill="#C6AECC"/>
<path d="M165.043 29.3961C165.737 29.8376 166.281 30.2311 166.253 30.2791C166.225 30.3271 165.634 30.0104 164.94 29.5689C164.246 29.1274 163.702 28.7339 163.73 28.686C163.758 28.638 164.349 28.9547 165.043 29.3961Z" fill="#C6AECC"/>
<path d="M164.367 30.6534C165.108 31.0085 165.69 31.3348 165.671 31.3923C165.652 31.4403 165.033 31.1908 164.292 30.8357C163.552 30.4806 162.97 30.1543 162.989 30.0967C163.008 30.0487 163.627 30.2983 164.367 30.6534Z" fill="#C6AECC"/>
<path d="M163.828 31.9969C163.828 31.9969 163.827 31.9982 163.828 31.9985C164.535 32.2426 165.101 32.4785 165.19 32.555C165.202 32.5646 165.197 32.5794 165.182 32.5805C165.067 32.5887 164.475 32.4237 163.768 32.1793C162.989 31.9106 162.38 31.6514 162.398 31.6035C162.417 31.5556 163.052 31.7276 163.829 31.9954C163.83 31.9957 163.829 31.9969 163.828 31.9969V31.9969Z" fill="#C6AECC"/>
<path d="M163.439 33.3885C163.554 33.4149 163.667 33.4412 163.774 33.4672C164.52 33.6477 164.482 33.8125 163.731 33.6545C163.622 33.6316 163.509 33.6069 163.392 33.5805C162.595 33.3981 161.948 33.2158 161.967 33.1582C161.986 33.1006 162.633 33.2062 163.439 33.3885Z" fill="#C6AECC"/>
<path d="M163.205 34.809C163.3 34.8191 163.393 34.8294 163.483 34.8399C164.286 34.9334 164.268 35.1041 163.464 35.0287C163.374 35.0202 163.281 35.011 163.186 35.0009C163.091 34.9908 162.998 34.9805 162.908 34.97C162.106 34.8765 162.123 34.7058 162.927 34.7812C163.017 34.7897 163.11 34.7989 163.205 34.809Z" fill="#C6AECC"/>
<path d="M163.13 36.2581C163.946 36.2485 164.612 36.2869 164.612 36.3349C164.612 36.3828 163.946 36.4404 163.13 36.45C162.314 36.4596 161.648 36.4212 161.648 36.3732C161.648 36.3157 162.314 36.2677 163.13 36.2581Z" fill="#C6AECC"/>
<path d="M163.214 37.6976C163.227 37.6959 163.24 37.6942 163.254 37.6925C164.212 37.5703 164.237 37.7576 163.28 37.8834C163.264 37.8854 163.248 37.8875 163.233 37.8895C163.219 37.8912 163.206 37.8929 163.193 37.8946C162.235 38.0168 162.209 37.8295 163.167 37.7037C163.182 37.7017 163.198 37.6996 163.214 37.6976Z" fill="#C6AECC"/>
<path d="M177.103 23.4842C177.009 24.3192 176.897 24.991 176.85 24.9814C176.803 24.9718 176.831 24.2904 176.915 23.465V23.465C177.028 22.461 177.206 22.4792 177.103 23.4842V23.4842Z" fill="#C6AECC"/>
<path d="M178.453 23.7241C178.275 24.5399 178.087 25.1925 178.04 25.1829C177.984 25.1733 178.087 24.5015 178.265 23.6762C178.444 22.8604 178.631 22.2078 178.678 22.2174C178.734 22.227 178.631 22.8988 178.453 23.7241Z" fill="#C6AECC"/>
<path d="M179.766 24.1177C179.503 24.9143 179.25 25.5381 179.194 25.5189C179.147 25.4997 179.316 24.8471 179.578 24.0505C179.841 23.254 180.094 22.6302 180.15 22.6494C180.197 22.6686 180.028 23.3212 179.766 24.1177Z" fill="#C6AECC"/>
<path d="M181.032 24.6551C180.685 25.4133 180.366 26.0083 180.319 25.9891C180.272 25.9699 180.516 25.3365 180.863 24.5687C181.21 23.8105 181.529 23.2155 181.576 23.2347C181.623 23.2539 181.379 23.8873 181.032 24.6551Z" fill="#C6AECC"/>
<path d="M182.232 25.3268C181.801 26.0466 181.426 26.6033 181.379 26.5745C181.332 26.5457 181.641 25.9411 182.073 25.2309C182.504 24.5111 182.879 23.9545 182.926 23.9832C182.973 24.012 182.663 24.6167 182.232 25.3268Z" fill="#C6AECC"/>
<path d="M183.357 26.1332C182.86 26.7954 182.42 27.304 182.373 27.2752C182.335 27.2464 182.701 26.6802 183.207 26.018C183.704 25.3558 184.145 24.8471 184.192 24.8759C184.23 24.9047 183.864 25.4709 183.357 26.1332Z" fill="#C6AECC"/>
<path d="M184.389 27.0544C183.817 27.659 183.329 28.1196 183.292 28.0813C183.254 28.0429 183.686 27.5246 184.248 26.92C184.811 26.3154 185.308 25.8547 185.346 25.8931C185.383 25.9315 184.952 26.4497 184.389 27.0544Z" fill="#C6AECC"/>
<path d="M185.308 28.0909V28.0909C184.548 28.7408 184.426 28.5872 185.186 27.9373V27.9373V27.9373C185.946 27.2874 186.068 27.4409 185.308 28.0909V28.0909Z" fill="#C6AECC"/>
<path d="M186.124 29.2234V29.2234C185.293 29.7821 185.181 29.619 186.011 29.0602V29.0602V29.0602C186.842 28.5015 186.954 28.6646 186.124 29.2234V29.2234Z" fill="#C6AECC"/>
<path d="M186.799 30.4327C186.705 30.4824 186.612 30.5301 186.522 30.5755C185.819 30.9321 185.741 30.785 186.435 30.4093C186.525 30.3606 186.618 30.3106 186.715 30.2599C187.446 29.8761 188.056 29.6073 188.075 29.6553C188.093 29.7033 187.531 30.0488 186.799 30.4327Z" fill="#C6AECC"/>
<path d="M187.352 31.7186C186.583 32.0161 185.955 32.2177 185.936 32.1697C185.917 32.1217 186.518 31.8338 187.287 31.5363C188.056 31.2387 188.684 31.0372 188.703 31.0852C188.721 31.1332 188.121 31.4211 187.352 31.7186Z" fill="#C6AECC"/>
<path d="M187.765 33.0622C187.717 33.075 187.669 33.0875 187.622 33.0996C186.752 33.3239 186.705 33.1467 187.571 32.9077C187.616 32.8953 187.662 32.8828 187.709 32.8703C187.757 32.8575 187.804 32.8451 187.851 32.833C188.722 32.6086 188.769 32.7858 187.902 33.0248C187.857 33.0373 187.811 33.0498 187.765 33.0622Z" fill="#C6AECC"/>
<path d="M188.028 34.4346C188.014 34.4368 188 34.4389 187.986 34.441C187.031 34.5865 187.002 34.3985 187.956 34.2494C187.971 34.2471 187.985 34.2449 187.999 34.2427C188.806 34.1179 189.472 34.0699 189.481 34.1179C189.491 34.1659 188.834 34.3099 188.028 34.4346Z" fill="#C6AECC"/>
<path d="M188.14 35.8357C187.325 35.8645 186.659 35.8453 186.659 35.7878C186.659 35.7302 187.315 35.663 188.14 35.6342C188.956 35.6054 189.622 35.6246 189.622 35.6822C189.622 35.7398 188.966 35.807 188.14 35.8357Z" fill="#C6AECC"/>
<path d="M188.103 37.237C187.287 37.1794 186.63 37.0835 186.63 37.0259C186.63 36.9683 187.296 36.9779 188.112 37.0355C188.928 37.0931 189.584 37.189 189.584 37.2466C189.584 37.3042 188.919 37.2946 188.103 37.237Z" fill="#C6AECC"/>
<path d="M175.64 36.5747C175.842 36.5747 176.005 36.4072 176.005 36.2005C176.005 35.9937 175.842 35.8262 175.64 35.8262C175.438 35.8262 175.274 35.9937 175.274 36.2005C175.274 36.4072 175.438 36.5747 175.64 36.5747Z" fill="#C6AECC"/>
<path d="M257.027 80.7331C257.028 80.732 257.029 80.7303 257.028 80.7287L250.153 52.4967C248.082 43.9926 253.741 35.757 262.483 35.338C270.932 34.9331 282.71 34.7379 297.869 35.3271C312.173 35.8809 324.862 37.0139 334.181 38.0411C342.918 39.004 348.545 47.4608 346.416 55.9882L342.786 70.5199C341.096 77.2864 334.965 81.9954 327.992 81.8832L257.03 80.741C257.026 80.741 257.024 80.736 257.027 80.7331V80.7331Z" fill="#C6AECC"/>
<path d="M242.918 88.7633C242.849 87.3396 241.174 87.5732 240.836 88.9579V88.9579C240.423 90.6504 242.357 91.5809 242.803 89.8966V89.8966C242.904 89.5126 242.936 89.1312 242.918 88.7633Z" fill="#E2784E"/>
<path d="M174.392 2.77356C136.609 2.77356 105.982 34.1179 105.982 72.7848C105.982 111.452 136.609 142.796 174.392 142.796C212.175 142.796 242.803 111.452 242.803 72.7848C242.803 34.1179 212.175 2.77356 174.392 2.77356ZM174.392 129.667C143.699 129.667 118.81 104.196 118.81 72.7848C118.81 41.3733 143.699 15.9025 174.392 15.9025C205.086 15.9025 229.974 41.3733 229.974 72.7848C229.974 104.196 205.086 129.667 174.392 129.667Z" fill="#C6AECC"/>
<path d="M176.503 133.055C207.196 133.055 232.084 107.584 232.084 76.1727C232.084 64.205 228.465 53.1107 222.303 43.9454C227.17 52.4005 229.984 62.2568 229.984 72.7849C229.984 104.196 205.095 129.667 174.402 129.667C155.393 129.667 138.626 119.897 128.601 105.012C138.27 121.788 156.097 133.055 176.503 133.055Z" fill="#C6AECC"/>
<path d="M108.092 76.1727C108.092 37.5057 138.719 6.1614 176.502 6.1614C200.05 6.1614 220.812 18.3402 233.116 36.8723C221.168 16.4496 199.346 2.7832 174.392 2.7832C136.609 2.7832 105.982 34.1275 105.982 72.7945C105.982 87.363 110.333 100.895 117.779 112.095C111.636 101.596 108.092 89.3112 108.092 76.1727Z" fill="#C6AECC"/>
<path d="M176.212 15.0291C144.074 13.9638 117.817 41.2677 118.839 74.6754C119.767 104.926 143.474 129.571 172.573 130.54C204.711 131.606 230.968 104.302 229.946 70.8941C229.018 40.6439 205.311 15.9984 176.212 15.0291ZM174.388 17.6923C174.391 17.6892 174.395 17.6875 174.399 17.6875C198.422 17.6906 218.703 34.3119 225.192 57.0934C226.345 61.1338 223.625 65.2606 219.593 65.7596L192.776 69.0607C192.774 69.0609 192.773 69.0623 192.773 69.064V69.064C192.773 69.0676 192.768 69.0686 192.766 69.0653C189.65 61.7314 182.592 56.6039 174.383 56.6039C165.514 56.6039 157.991 62.5869 155.328 70.8816C155.326 70.8872 155.318 70.886 155.318 70.8801V70.8801C155.318 70.8772 155.316 70.8749 155.313 70.8749H127.035C123.903 70.8749 121.521 67.9862 121.971 64.7615C125.703 38.1413 147.737 17.7005 174.376 17.6971C174.381 17.6971 174.385 17.6953 174.388 17.6923V17.6923ZM127.021 97.4543C127.022 97.4551 127.023 97.4541 127.022 97.453C125.246 93.7689 127.14 89.3297 130.973 88.2938L154.745 81.8832C154.745 81.883 154.746 81.8823 154.746 81.8815V81.8815C154.746 81.8793 154.749 81.879 154.75 81.8812C156.394 89.8586 162.409 96.1414 170.063 97.8852C170.066 97.886 170.066 97.8909 170.062 97.8909V97.8909C170.061 97.8909 170.06 97.892 170.06 97.8934L166.956 120.675C166.459 124.322 162.961 126.692 159.557 125.665C145.324 121.357 133.565 111.004 127.019 97.4555C127.018 97.4544 127.02 97.4534 127.021 97.4543V97.4543ZM188.234 119.101L184.613 108.136C182.603 102.052 186.103 95.6558 190.029 90.5921V90.5921C193.759 85.7816 198.869 80.8941 204.949 81.1835L220.249 81.9117C223.672 82.0748 225.792 85.5298 224.788 88.9368C220.343 103.995 210.131 116.327 196.543 122.834C193.27 124.408 189.406 122.652 188.234 119.101Z" fill="#C6AECC"/>
<path d="M185.691 88.6856C191.932 82.2992 191.932 71.9447 185.691 65.5582C179.451 59.1718 169.333 59.1718 163.093 65.5582C156.852 71.9447 156.852 82.2992 163.093 88.6857C169.333 95.0721 179.451 95.0721 185.691 88.6856Z" fill="#46194F"/>
<path d="M160.232 78.4952C160.232 69.4643 167.387 62.1417 176.212 62.1417V62.1417C176.962 62.1417 177.353 61.0866 176.612 60.9672C175.804 60.837 174.975 60.7693 174.13 60.7693C165.305 60.7693 158.15 68.0919 158.15 77.1228C158.15 77.971 158.213 78.8043 158.335 79.6178C158.552 81.0649 160.232 79.9585 160.232 78.4952V78.4952Z" fill="#46194F"/>
<path d="M194.488 74.3621C194.347 72.7098 195.538 71.2417 197.183 71.0379L219.304 68.2988C222.039 67.9601 224.479 70.032 224.589 72.786V72.786C224.697 75.5003 222.493 77.7433 219.777 77.6826L197.494 77.1847C195.918 77.1495 194.622 75.9324 194.488 74.3621V74.3621Z" fill="#46194F"/>
<path d="M154.043 76.1166C154.043 74.6582 152.86 73.476 151.402 73.476H132.069C128.985 73.476 126.556 76.103 126.796 79.177V79.177C127.056 82.4973 130.283 84.7541 133.491 83.8586L152.112 78.6599C153.253 78.3413 154.043 77.3015 154.043 76.1166V76.1166Z" fill="#46194F"/>
<path d="M172.385 101.201C172.581 99.476 173.988 98.1419 175.72 98.0386V98.0386C177.435 97.9363 178.98 99.0699 179.397 100.737L183.344 116.519C184.332 120.469 181.496 124.346 177.433 124.601V124.601C173.388 124.856 170.095 121.393 170.552 117.366L172.385 101.201Z" fill="#46194F"/>
<path d="M217.98 136.913C217.98 136.907 217.981 136.906 217.98 136.9C217.956 136.698 216.863 127.43 215.064 120.416C213.245 113.323 212.982 98.5053 213.545 96.3651V96.3651C214.871 91.3375 220.022 98.2256 221.7 103.147C221.954 103.889 222.44 104.387 223.251 104.494C229.656 105.338 243.469 93.9658 242.334 87.6221V87.6221C242.167 86.6677 242.843 85.7643 243.754 86.0946C245.227 86.6289 247.009 87.6793 247.417 89.6855C247.679 90.9727 247.525 92.5853 247.223 94.1182C246.697 96.7889 249.127 100.114 249.021 102.834V102.834C248.964 104.273 248.379 106.089 247.767 107.624C247.214 109.011 248.462 111.467 248.533 112.959V112.959C248.578 113.908 248.228 115.046 247.792 116.069C247.021 117.88 247.097 119.962 246.911 121.922V121.922C246.789 123.304 235.076 137.105 234.588 138.094C234.284 138.716 239.348 158.991 243.201 174.157C245.316 182.483 239.033 190.59 230.444 190.59V190.59C223.025 190.59 217.076 184.461 217.286 177.045C217.689 162.799 218.217 141.779 217.98 136.913V136.913Z" fill="#FAAC75"/>
<path d="M144.417 23.2347C144.424 23.2399 144.426 23.2502 144.42 23.2573C144.059 23.7025 143.636 24.2497 143.184 24.8988C143.177 24.909 143.174 24.9125 143.167 24.9225V24.9225C143.161 24.9311 143.152 24.947 143.146 24.9558C140.662 28.6159 137.238 35.6181 137.341 46.4406C137.416 55.0876 133.374 61.8632 131.911 67.1993C130.772 71.3545 129.832 143.855 129.472 175.739C129.379 183.966 122.685 190.58 114.457 190.58H106.618C97.0191 190.58 89.8875 181.697 91.9663 172.326C99.2042 139.699 113.596 74.5854 113.596 72.7176C113.596 70.2224 101.321 52.9763 101.068 51.2392C101.009 50.8345 100.974 50.4516 100.96 50.0897C100.831 46.7514 100.959 41.8415 101.874 38.6285V38.6285V38.6285C102.743 35.6003 104.963 32.0789 106.354 29.2522C106.507 28.9417 106.699 28.6474 106.938 28.3787V28.3787C109.073 25.9699 112.012 22.32 115.003 21.1329V21.1329C117.135 20.2905 119.949 21.4929 122.003 22.7057C123.794 23.7629 124.584 27.543 125.117 29.5528V29.5528C126.361 34.2479 130.801 31.1305 132.721 26.6691C133.28 25.3696 133.931 24.2914 134.678 23.6953C138.945 20.3075 141.936 20.4035 143.774 20.9505C144.725 21.2368 145.046 22.4433 144.413 23.2118C144.408 23.2189 144.409 23.2296 144.417 23.2347V23.2347Z" fill="#FAAC75"/>
<path d="M113.102 82.7401C111.943 82.477 111.206 81.3369 111.442 80.1722V80.1722C111.577 79.5079 112.012 78.9441 112.649 78.7148C114.253 78.1383 117.665 77.2038 121.924 77.7178C128.285 78.4856 131.331 80.4464 132.568 81.5261C133.074 81.9677 133.275 82.6274 133.265 83.2989V83.2989C133.234 85.363 131.311 86.8752 129.298 86.418L113.102 82.7401Z" fill="white"/>
<path d="M136.047 190.58C136.047 190.586 136.042 190.59 136.037 190.59H104.039C94.4073 190.59 87.2716 181.642 89.4153 172.252L108.379 89.1844C109.313 85.0952 112.168 81.5765 116.344 81.1824V81.1824H116.353C119.101 80.9137 122.486 81.0384 126.013 82.2477C131.84 84.2528 133.438 87.3844 133.863 88.6983C133.993 89.0998 134.016 89.5224 134.024 89.9442L136.047 190.58V190.58Z" fill="#C6AECC"/>
<path opacity="0.4" d="M133.149 190.59C131.512 190.59 130.201 189.212 130.242 187.576C130.417 180.547 130.422 161.48 126.885 133.055C122.383 96.8061 116.417 81.3787 116.345 81.1937C116.343 81.1895 116.349 81.192 116.354 81.192V81.192C119.101 80.9233 122.487 81.0481 126.013 82.2573C131.84 84.2625 133.439 87.394 133.864 88.708C133.994 89.1094 134.016 89.532 134.025 89.9538L135.989 187.693C136.021 189.284 134.74 190.59 133.149 190.59V190.59Z" fill="#010101"/>
</svg>
