<svg width="90" height="45" viewBox="0 0 90 45" fill="none" xmlns="http://www.w3.org/2000/svg">
<path fill-rule="evenodd" clip-rule="evenodd" d="M1.01585 43.4092L4.90202 34.1142L0 30.7728C4.9024 27.3931 15.3201 24.1739 24.0787 23.0996V36.3047C15.2589 37.2356 6.60368 40.9078 1.01585 43.4092Z" fill="url(#paint0_linear_121487_80856)"/>
<path fill-rule="evenodd" clip-rule="evenodd" d="M9.07812 33.3192L23.6833 36.2395V27.4785L9.07812 33.3192Z" fill="#C17B00"/>
<mask id="mask0_121487_80856" style="mask-type:alpha" maskUnits="userSpaceOnUse" x="65" y="23" width="25" height="21">
<path fill-rule="evenodd" clip-rule="evenodd" d="M65.9219 23.0996H90.0006V43.4092H65.9219V23.0996Z" fill="white"/>
</mask>
<g mask="url(#mask0_121487_80856)">
<path fill-rule="evenodd" clip-rule="evenodd" d="M89.4654 43.4092L85.5791 34.1142L90.4811 30.7728C85.5787 27.3931 75.1612 24.1739 66.4023 23.0996V36.3047C75.2224 37.2356 83.8774 40.9078 89.4654 43.4092Z" fill="url(#paint1_linear_121487_80856)"/>
</g>
<path fill-rule="evenodd" clip-rule="evenodd" d="M80.9215 33.3192L66.3164 36.2395V27.4785L80.9215 33.3192Z" fill="#C17B00"/>
<path fill-rule="evenodd" clip-rule="evenodd" d="M80.9194 19.4003C73.3533 16.4813 60.9136 12.7449 45.2005 12.7441C29.4831 12.7434 17.0396 16.481 9.47266 19.4003V33.4519C16.5303 30.4014 29.0599 26.0554 45.2005 26.0562C61.3363 26.0572 73.8624 30.4016 80.9194 33.4519V19.4003Z" fill="url(#paint2_linear_121487_80856)"/>
<ellipse cx="45.197" cy="22.4998" rx="22.3024" ry="22.4998" fill="#E6E6E6"/>
<path fill-rule="evenodd" clip-rule="evenodd" d="M25.0031 13.6631C28.4556 5.3473 36.5384 -0.0470998 45.4749 0.000309989V0.0198231C57.6238 0.0521145 67.4494 10.0084 67.428 22.2648C67.4279 31.2805 62.0383 39.4063 53.7773 42.8454C45.5164 46.2845 36.015 44.3581 29.7125 37.9663C23.41 31.5744 21.5506 21.9789 25.0031 13.6631ZM57.0053 27.3823C56.6955 28.1103 56.3131 28.8046 55.8641 29.4545C55.7287 29.6653 55.5894 29.8682 55.4424 30.0712C54.4424 31.4098 53.191 32.537 51.7597 33.3884L51.6591 33.4508C51.6136 33.478 51.5325 33.5119 51.4226 33.5578L51.4224 33.5579C51.327 33.5978 51.2098 33.6468 51.075 33.7084C50.9637 33.7593 50.8411 33.82 50.7129 33.8833C50.507 33.9852 50.2868 34.094 50.077 34.1806C48.5395 34.8056 46.8952 35.1199 45.2376 35.1055H45.1216C45.0638 35.1055 44.9721 35.0911 44.8493 35.0717L44.8491 35.0717C44.7168 35.0508 44.5485 35.0243 44.3479 35.0041C43.8236 34.9328 43.3061 34.818 42.8005 34.6606C42.7405 34.6433 42.678 34.6212 42.6152 34.599L42.6152 34.599C42.5647 34.5811 42.514 34.5631 42.464 34.5475C42.9665 33.9431 43.3867 33.2737 43.7135 32.5571C44.2428 32.65 44.778 32.7047 45.315 32.721C45.5471 32.721 45.7831 32.721 46.0152 32.6937C46.2473 32.6664 46.4639 32.6625 46.6612 32.6625C47.5199 32.5574 48.3621 32.3436 49.1679 32.0264C49.6218 31.8472 50.0637 31.6386 50.4909 31.402C50.5837 31.3512 50.6727 31.2966 50.7617 31.2419C50.9125 31.1483 51.0634 31.0507 51.2065 30.9454C51.3341 30.8515 51.4248 30.7917 51.5224 30.7273L51.5224 30.7272L51.5586 30.7034C52.0981 30.3041 52.5981 29.8532 53.0518 29.357L53.0943 29.3141C53.1272 29.277 53.1591 29.238 53.191 29.1989C53.2229 29.1599 53.2549 29.1209 53.2877 29.0838C53.6353 28.6714 53.9497 28.2316 54.2278 27.7686C54.8518 26.7145 55.294 25.5612 55.5353 24.3577C55.7752 23.1528 55.7988 21.9143 55.6049 20.701C55.4078 19.4509 54.9899 18.2467 54.3709 17.1457C53.6627 15.9366 52.7302 14.8766 51.6243 14.0236C50.5742 13.2102 49.3733 12.6171 48.0925 12.2791C46.9321 11.9736 45.7291 11.8667 44.5336 11.963L44.2628 12.0059C43.0374 12.1605 41.8492 12.5345 40.7542 13.1104C39.6759 13.6669 38.7051 14.4137 37.8877 15.3153C37.077 16.2154 36.4231 17.2472 35.9535 18.3672C35.9535 18.3916 35.9384 18.416 35.9233 18.4404C35.9142 18.455 35.9051 18.4696 35.8993 18.4843C35.892 18.5083 35.8829 18.5318 35.8722 18.5545C35.6583 19.11 35.4926 19.6833 35.3771 20.2678C35.129 21.4907 35.0936 22.7479 35.2726 23.9831C35.4479 25.2495 35.8728 26.4676 36.5221 27.5657L36.5531 27.6164C36.7426 27.8649 36.8092 28.1871 36.7338 28.4913C36.6584 28.7955 36.4494 29.0482 36.1662 29.1775C35.9013 29.3535 35.5727 29.4021 35.2688 29.3102C34.9622 29.2111 34.7048 28.9974 34.5493 28.7131C32.5562 25.1928 32.3408 20.9262 33.969 17.2198C34.3408 16.3936 34.7972 15.6088 35.3307 14.8783L35.4467 14.7104C36.4384 13.3489 37.7055 12.2155 39.1642 11.3854C41.7027 9.85689 44.7022 9.30267 47.6128 9.82436C49.5611 10.1351 51.4037 10.9245 52.9783 12.123L53.1175 12.2206C54.0999 12.9629 54.9624 13.8541 55.6745 14.8626C56.305 15.7203 56.825 16.6553 57.2219 17.6452C57.8432 19.1879 58.1421 20.8433 58.1 22.5079C58.0723 24.1815 57.7242 25.834 57.0749 27.3745L57.0053 27.3823ZM43.306 22.2714C43.306 21.0817 44.262 20.1172 45.4413 20.1172C46.6207 20.1172 47.5767 21.0817 47.5767 22.2714C47.5767 23.4612 46.6207 24.4257 45.4413 24.4257C44.2629 24.4235 43.3081 23.4603 43.306 22.2714Z" fill="#E6E6E6"/>
<path fill-rule="evenodd" clip-rule="evenodd" d="M35.3384 4.58533C37.6516 3.23057 40.2072 2.34994 42.8585 1.99398C43.6987 1.88345 44.545 1.8274 45.3923 1.82617C47.2056 1.82723 49.0104 2.07534 50.7578 2.56377C53.3417 3.2998 55.7673 4.5147 57.9104 6.14637C60.0416 7.78017 61.81 9.84606 63.1018 12.211C64.4213 14.5685 65.2838 17.1578 65.6433 19.8407C65.9846 22.5141 65.79 25.2294 65.0708 27.8254C63.9287 32.1815 61.3586 36.0192 57.7789 38.7138C57.0806 39.261 56.3494 39.7641 55.5894 40.2202C55.4927 40.2787 55.2142 40.4426 54.4057 40.8329C53.6384 41.1943 52.8458 41.4982 52.0343 41.7422C50.8843 42.0953 49.7122 42.3704 48.5257 42.5656C47.5664 42.7335 45.3382 42.8466 45.3382 42.8466C52.4861 36.8918 53.9178 34.7287 55.8232 31.85C56.0132 31.563 56.2078 31.2689 56.4134 30.9631C57.4601 29.4856 58.255 27.8421 58.7653 26.1005C59.2844 24.3294 59.432 22.4686 59.1986 20.6368C58.9531 18.8151 58.3621 17.0581 57.4578 15.4619C56.5651 13.8548 55.3536 12.4506 53.8989 11.3369C52.4473 10.2219 50.7944 9.40269 49.0325 8.92504C45.4954 7.94138 41.7147 8.43803 38.5453 10.3027C36.9269 11.2123 35.5165 12.4556 34.4061 13.9516C33.347 15.3918 32.5566 17.0144 32.0735 18.7401C31.0887 22.3193 31.5593 26.1468 33.381 29.3748C33.7038 29.9362 34.2245 30.3543 34.8394 30.5456C35.4909 30.7426 36.195 30.6489 36.7736 30.288C37.3236 29.989 37.7329 29.4812 37.9108 28.8769C38.0887 28.2726 38.0205 27.6217 37.7213 27.0683L37.6285 26.8966C37.0664 25.9493 36.6968 24.8986 36.5415 23.8057C36.3844 22.7238 36.4145 21.6225 36.6304 20.551C36.84 19.5044 37.233 18.504 37.7909 17.5967C38.3631 16.6711 39.094 15.8557 39.9495 15.1887L39.9882 15.1575C40.1101 15.0508 40.2393 14.953 40.375 14.8648L40.9282 14.5331C41.9612 13.9017 43.1171 13.5023 44.3169 13.3623C45.4822 13.2221 46.6632 13.3042 47.7985 13.6043C48.9142 13.9126 49.9573 14.4434 50.8661 15.1653C51.8274 15.9148 52.6388 16.8419 53.2568 17.8972C53.7938 18.8652 54.1541 19.9227 54.3206 21.0193C54.4851 22.082 54.4588 23.166 54.2432 24.2194C54.0283 25.2778 53.6358 26.2915 53.0827 27.2166C52.5233 28.14 51.8024 28.9532 50.9551 29.6167C50.9005 29.6547 50.8398 29.6965 50.7776 29.7393C50.6413 29.8331 50.4977 29.932 50.3942 30.007C50.2433 30.1163 50.0769 30.2256 49.9338 30.3114C48.1225 31.3695 45.9994 31.7495 43.9378 31.3846L43.0133 31.2246L42.5839 32.0637C42.0329 33.1155 41.2684 34.0383 40.3402 34.7721L40.2822 34.8228C40.1832 34.9104 40.0756 34.9876 39.9611 35.0531L39.4118 35.3848C38.4469 35.9659 37.3761 36.3455 36.2629 36.501C35.1599 36.651 34.0394 36.6061 32.9516 36.3683C31.8852 36.1325 30.873 35.6941 29.9691 35.0765C29.0577 34.4543 28.2974 33.6325 27.7447 32.6725C25.083 27.9305 24.3878 22.3191 25.8105 17.062C26.5171 14.4966 27.6984 12.0893 29.2921 9.96704C30.9241 7.77724 32.9814 5.94606 35.3384 4.58533ZM42.5291 24.0481C42.9385 24.8509 43.6768 25.4317 44.5484 25.6364H44.5058C44.8055 25.7132 45.1135 25.7526 45.4227 25.7535C45.9601 25.7536 46.49 25.6266 46.97 25.3828L47.0474 25.3398C47.2346 25.2298 47.4031 25.0901 47.5464 24.9262C48.7273 23.8954 49.048 22.1793 48.3201 20.7855L48.2775 20.7074C47.3187 19.1381 45.2982 18.6199 43.7128 19.5366L43.4614 19.6849L43.3028 19.802C42.6948 20.3011 42.2833 21.0028 42.1423 21.7807C41.9904 22.5587 42.1281 23.366 42.5291 24.0481Z" fill="url(#paint3_linear_121487_80856)"/>
<mask id="mask1_121487_80856" style="mask-type:alpha" maskUnits="userSpaceOnUse" x="25" y="1" width="41" height="42">
<path fill-rule="evenodd" clip-rule="evenodd" d="M35.3384 4.58533C37.6516 3.23057 40.2072 2.34994 42.8585 1.99398C43.6987 1.88345 44.545 1.8274 45.3923 1.82617C47.2056 1.82723 49.0104 2.07534 50.7578 2.56377C53.3417 3.2998 55.7673 4.5147 57.9104 6.14637C60.0416 7.78017 61.81 9.84606 63.1018 12.211C64.4213 14.5685 65.2838 17.1578 65.6433 19.8407C65.9846 22.5141 65.79 25.2294 65.0708 27.8254C63.9287 32.1815 61.3586 36.0192 57.7789 38.7138C57.0806 39.261 56.3494 39.7641 55.5894 40.2202C55.4927 40.2787 55.2142 40.4426 54.4057 40.8329C53.6384 41.1943 52.8458 41.4982 52.0343 41.7422C50.8843 42.0953 49.7122 42.3704 48.5257 42.5656C47.5664 42.7335 45.3382 42.8466 45.3382 42.8466C52.4861 36.8918 53.9178 34.7287 55.8232 31.85C56.0132 31.563 56.2078 31.2689 56.4134 30.9631C57.4601 29.4856 58.255 27.8421 58.7653 26.1005C59.2844 24.3294 59.432 22.4686 59.1986 20.6368C58.9531 18.8151 58.3621 17.0581 57.4578 15.4619C56.5651 13.8548 55.3536 12.4506 53.8989 11.3369C52.4473 10.2219 50.7944 9.40269 49.0325 8.92504C45.4954 7.94138 41.7147 8.43803 38.5453 10.3027C36.9269 11.2123 35.5165 12.4556 34.4061 13.9516C33.347 15.3918 32.5566 17.0144 32.0735 18.7401C31.0887 22.3193 31.5593 26.1468 33.381 29.3748C33.7038 29.9362 34.2245 30.3543 34.8394 30.5456C35.4909 30.7426 36.195 30.6489 36.7736 30.288C37.3236 29.989 37.7329 29.4812 37.9108 28.8769C38.0887 28.2726 38.0205 27.6217 37.7213 27.0683L37.6285 26.8966C37.0664 25.9493 36.6968 24.8986 36.5415 23.8057C36.3844 22.7238 36.4145 21.6225 36.6304 20.551C36.84 19.5044 37.233 18.504 37.7909 17.5967C38.3631 16.6711 39.094 15.8557 39.9495 15.1887L39.9882 15.1575C40.1101 15.0508 40.2393 14.953 40.375 14.8648L40.9282 14.5331C41.9612 13.9017 43.1171 13.5023 44.3169 13.3623C45.4822 13.2221 46.6632 13.3042 47.7985 13.6043C48.9142 13.9126 49.9573 14.4434 50.8661 15.1653C51.8274 15.9148 52.6388 16.8419 53.2568 17.8972C53.7938 18.8652 54.1541 19.9227 54.3206 21.0193C54.4851 22.082 54.4588 23.166 54.2432 24.2194C54.0283 25.2778 53.6358 26.2915 53.0827 27.2166C52.5233 28.14 51.8024 28.9532 50.9551 29.6167C50.9005 29.6547 50.8398 29.6965 50.7776 29.7393C50.6413 29.8331 50.4977 29.932 50.3942 30.007C50.2433 30.1163 50.0769 30.2256 49.9338 30.3114C48.1225 31.3695 45.9994 31.7495 43.9378 31.3846L43.0133 31.2246L42.5839 32.0637C42.0329 33.1155 41.2684 34.0383 40.3402 34.7721L40.2822 34.8228C40.1832 34.9104 40.0756 34.9876 39.9611 35.0531L39.4118 35.3848C38.4469 35.9659 37.3761 36.3455 36.2629 36.501C35.1599 36.651 34.0394 36.6061 32.9516 36.3683C31.8852 36.1325 30.873 35.6941 29.9691 35.0765C29.0577 34.4543 28.2974 33.6325 27.7447 32.6725C25.083 27.9305 24.3878 22.3191 25.8105 17.062C26.5171 14.4966 27.6984 12.0893 29.2921 9.96704C30.9241 7.77724 32.9814 5.94606 35.3384 4.58533ZM42.5291 24.0481C42.9385 24.8509 43.6768 25.4317 44.5484 25.6364H44.5058C44.8055 25.7132 45.1135 25.7526 45.4227 25.7535C45.9601 25.7536 46.49 25.6266 46.97 25.3828L47.0474 25.3398C47.2346 25.2298 47.4031 25.0901 47.5464 24.9262C48.7273 23.8954 49.048 22.1793 48.3201 20.7855L48.2775 20.7074C47.3187 19.1381 45.2982 18.6199 43.7128 19.5366L43.4614 19.6849L43.3028 19.802C42.6948 20.3011 42.2833 21.0028 42.1423 21.7807C41.9904 22.5587 42.1281 23.366 42.5291 24.0481Z" fill="white"/>
</mask>
<g mask="url(#mask1_121487_80856)">
</g>
<defs>
<linearGradient id="paint0_linear_121487_80856" x1="18.0854" y1="-3.48902" x2="-20.8961" y2="20.8658" gradientUnits="userSpaceOnUse">
<stop stop-color="#FFCC4D"/>
<stop offset="0.0756761" stop-color="#FFD757"/>
<stop offset="0.107415" stop-color="#FCC94A"/>
<stop offset="0.11" stop-color="#F4BF40"/>
<stop offset="0.16" stop-color="#E6AE2F"/>
<stop offset="0.2" stop-color="#D29717"/>
<stop offset="0.293065" stop-color="#BF8000"/>
<stop offset="0.4604" stop-color="#CB9010"/>
<stop offset="0.581009" stop-color="#E7B838"/>
<stop offset="0.764784" stop-color="#FFD959"/>
<stop offset="1" stop-color="#F9D050"/>
<stop offset="1" stop-color="#FFF979"/>
</linearGradient>
<linearGradient id="paint1_linear_121487_80856" x1="56.9371" y1="40.5561" x2="87.5635" y2="52.3178" gradientUnits="userSpaceOnUse">
<stop stop-color="#E6AE2F"/>
<stop offset="0.0931993" stop-color="#D29717"/>
<stop offset="0.215107" stop-color="#BF8000"/>
<stop offset="0.3705" stop-color="#CB9010"/>
<stop offset="0.522208" stop-color="#E7B838"/>
<stop offset="0.688089" stop-color="#FFD051"/>
<stop offset="1" stop-color="#FFC545"/>
</linearGradient>
<linearGradient id="paint2_linear_121487_80856" x1="5.65395" y1="33.8146" x2="71.9714" y2="57.4459" gradientUnits="userSpaceOnUse">
<stop stop-color="#FFF979"/>
<stop offset="0.0805605" stop-color="#FFD959"/>
<stop offset="0.126866" stop-color="#F9D050"/>
<stop offset="0.187064" stop-color="#CD8F0F"/>
<stop offset="0.7387" stop-color="#BF8000"/>
<stop offset="0.790421" stop-color="#D29717"/>
<stop offset="0.843694" stop-color="#F4BF40"/>
<stop offset="0.887758" stop-color="#E6AE2F"/>
<stop offset="0.941369" stop-color="#FCC94A"/>
<stop offset="1" stop-color="#FFD757"/>
<stop offset="1" stop-color="#FFCC4D"/>
</linearGradient>
<linearGradient id="paint3_linear_121487_80856" x1="53.0566" y1="48.5148" x2="72.7622" y2="14.5864" gradientUnits="userSpaceOnUse">
<stop stop-color="#2E3192"/>
<stop offset="1" stop-color="#4AA590"/>
</linearGradient>
</defs>
</svg>
