<svg width="24" height="29" viewBox="0 0 24 29" fill="none" xmlns="http://www.w3.org/2000/svg">
<g clip-path="url(#clip0_87_285)">
<path d="M16.8348 0.179168C16.8852 3.8567 19.5596 6.85817 23.0731 7.1962C23.2746 7.21368 23.5319 7.12626 23.6774 7.27779V11.7188C23.6774 11.8703 23.3585 11.7479 23.2802 11.7479C22.6479 11.7246 22.1332 11.6897 21.5066 11.5673C19.7889 11.2292 18.2392 10.4541 16.8348 9.39339L16.8852 19.8373C16.7062 24.1734 13.5115 27.7053 9.38246 28.189C4.09529 28.801 -0.526088 24.1793 0.0501857 18.6251C0.55932 13.7004 5.04642 10.1918 9.73493 10.9786V15.5537L9.62863 15.612C6.12623 14.4638 3.10499 18.526 5.11915 21.7898C7.13331 25.0535 12.068 23.8004 12.4261 19.9364C12.5659 13.4556 12.2358 6.94559 12.4261 0.470573C12.4261 0.365667 12.4261 0.260761 12.482 0.17334H16.8516L16.8348 0.179168Z" fill="#46194F"/>
</g>
<defs>
<clipPath id="clip0_87_285">
<rect width="23.6776" height="28.0623" fill="white" transform="translate(0 0.178955)"/>
</clipPath>
</defs>
</svg>
