<svg width="79" height="58" viewBox="0 0 79 58" fill="none" xmlns="http://www.w3.org/2000/svg">
<g clip-path="url(#clip0_109_40)">
<path d="M0.024741 31.437C0.964138 21.6521 13.1186 18.6023 18.1287 26.7933C22.5456 34.0076 17.3129 40.061 13.9921 45.9301C13.2999 47.1555 12.5912 48.3901 12.0474 49.7077H30.0854L28.5445 48.7586L27.3661 46.9343C25.7181 46.7961 23.7486 47.1555 22.1418 46.9528C21.3177 46.8422 21.0541 46.3815 20.9799 45.4878C20.881 44.3085 21.0293 41.5444 21.1612 40.3282C21.5979 36.0899 25.3225 36.3755 28.2314 36.3386C29.9124 34.6986 30.6623 31.1698 33.0437 30.5156C34.4693 30.1194 40.493 30.2392 42.1987 30.3866C43.2535 30.4787 44.0281 30.8381 44.8109 31.6028L48.6262 36.3018C51.4526 36.8454 55.6799 35.2422 57.0972 39.0751C57.5093 40.1899 57.4928 44.161 57.3857 45.497C57.3115 46.3631 57.0643 46.8514 56.2238 46.962C54.7982 47.1463 53.076 46.8238 51.6092 46.9436L50.4308 48.7679L48.8899 49.7169H66.9279C63.879 42.3552 55.5233 35.2791 61.0032 26.6274C65.2469 19.9199 74.7151 20.786 77.9865 28.1293C81.0684 35.0579 76.2807 40.4756 73.1906 45.9393C72.4984 47.1647 71.7897 48.3993 71.2459 49.7169H78.1101C78.9094 49.7169 79.7169 52.2783 77.6569 52.481H1.32671C0.692207 52.5362 0.370835 52.1216 0.024741 51.6149V50.583C0.189548 50.371 0.651006 49.7169 0.873495 49.7169H7.73769C7.19383 48.3993 6.48516 47.1647 5.79297 45.9393C3.65873 42.1709 0.914696 38.6513 0.024741 34.2011C0.0824233 33.3166 -0.0576623 32.3123 0.024741 31.4462V31.437ZM10.045 47.9939C12.2946 41.8668 20.6091 34.8737 15.7473 27.9081C12.8714 23.7988 6.91365 23.7896 4.03778 27.9081C0.0741832 33.5838 4.77117 38.9737 7.49048 43.6911C8.27331 45.0548 9.0067 46.4737 9.72361 47.8741L10.045 47.9847V47.9939ZM69.26 47.9939C71.5013 41.8668 79.9394 34.7539 74.8799 27.8344C71.4189 23.0986 64.1674 24.2135 62.2062 30.0181C61.2916 32.7177 61.753 34.7907 62.9149 37.2508C64.6124 40.8441 67.3317 44.1702 68.9386 47.8926L69.26 48.0031V47.9939ZM54.9218 44.1979V40.494C54.9218 40.4479 54.5427 39.7201 54.4521 39.6371C53.3809 38.5868 49.2524 39.7385 47.5714 38.8816C46.1211 38.1445 44.4071 34.9197 43.1299 33.6759C42.9074 33.4548 42.5943 33.3166 42.3223 33.1968C39.7678 33.3258 36.8508 32.8835 34.3292 33.1507C32.5246 33.3442 31.8324 36.0069 30.7776 37.4535C28.734 40.2452 27.3661 38.6789 24.8446 39.2686C24.276 39.3976 23.6168 39.9872 23.6168 40.6598V44.1979H27.2425C28.2726 41.3877 31.6182 40.3742 33.5711 42.6408C33.9337 43.0646 34.2139 44.1058 34.6424 44.1979L44.5884 44.115C46.0305 40.4387 50.3155 40.5585 51.7575 44.1979H54.9218ZM29.9866 46.5658C31.0908 47.8004 32.8707 45.7919 31.7253 44.5388C30.5799 43.2857 28.8329 45.2759 29.9866 46.5658ZM47.2583 46.5658C48.3625 47.8004 50.1424 45.7919 48.997 44.5388C47.8516 43.2857 46.1046 45.2759 47.2583 46.5658ZM31.6346 49.7169H47.3654L45.8245 48.7679L44.6461 46.9436L34.2798 46.9804C34.1644 47.782 33.5958 48.3164 33.1014 48.8416L31.6429 49.7077L31.6346 49.7169Z" fill="#46194F"/>
<path d="M0.0249023 57.1247V56.0927C0.370996 55.586 0.692369 55.1714 1.32687 55.2266L78.2174 55.3096C79.2556 55.8071 79.2639 57.4011 78.2174 57.917L1.32687 58C0.692369 58.0552 0.370996 57.6406 0.0249023 57.1339V57.1247Z" fill="#46194F"/>
<path d="M41.4651 0.0919108C43.7807 -0.682037 43.7395 3.53782 41.5063 2.73623C40.3939 2.34004 40.5175 0.405175 41.4651 0.0919108Z" fill="#C6AECC"/>
<path d="M66.4336 19.6527C65.4118 20.7952 63.6978 19.45 64.4724 17.8929C65.2964 16.2345 67.818 18.0956 66.4336 19.6527Z" fill="#C6AECC"/>
<path d="M12.5749 17.7087C13.9593 16.1608 15.6238 18.9617 14.1488 19.9015C12.8386 20.7215 11.5119 18.8972 12.5749 17.7087Z" fill="#C6AECC"/>
<path d="M46.4013 0.949003C48.0412 0.571243 48.585 3.11421 47.2254 3.60254C45.3054 4.28435 44.9675 1.2807 46.4013 0.949003Z" fill="#C6AECC"/>
<path d="M27.5723 2.6996C28.6435 2.63511 29.3357 4.27514 28.4045 5.15965C26.6329 6.84575 25.3062 2.82859 27.5723 2.6996Z" fill="#C6AECC"/>
<path d="M16.1428 12.7241C17.7497 12.7241 17.8074 15.5527 16.1428 15.5527C14.4783 15.5527 14.4371 12.7241 16.1428 12.7241Z" fill="#C6AECC"/>
<path d="M62.5935 12.6688C64.2498 12.3371 64.6948 15.3132 62.9644 15.4882C61.341 15.6541 61.1185 12.9729 62.5935 12.6688Z" fill="#C6AECC"/>
<path d="M54.8146 5.6295C56.0919 4.42251 57.8306 6.66143 56.3968 7.82235C54.963 8.98327 53.7599 6.62457 54.8146 5.6295Z" fill="#C6AECC"/>
<path d="M20.3373 9.07549C21.3673 10.1259 20.1477 12.1897 18.7551 11.2776C17.3625 10.3654 18.9034 7.61052 20.3373 9.07549Z" fill="#C6AECC"/>
<path d="M50.4968 3.04052C51.7658 1.7414 53.488 4.07245 52.0707 5.23338C50.8099 6.25609 49.4008 4.16459 50.4968 3.04052Z" fill="#C6AECC"/>
<path d="M24.1855 7.75791C22.7929 9.18602 21.1531 6.52327 22.6034 5.56505C23.9136 4.69897 25.2486 6.67069 24.1855 7.75791Z" fill="#C6AECC"/>
<path d="M60.4343 9.07543C61.5468 10.3193 59.9399 12.3371 58.7039 11.1024C57.4678 9.86781 59.2477 7.73945 60.4343 9.07543Z" fill="#C6AECC"/>
<path d="M36.1584 0.460902C37.3615 -0.773729 39.0013 1.2717 37.8888 2.47869C36.7764 3.68568 34.9635 1.67711 36.1584 0.460902Z" fill="#C6AECC"/>
<path d="M32.1786 1.00426C33.8761 0.958193 33.8843 3.88814 32.022 3.69465C30.6706 3.55645 30.5964 1.05033 32.1786 1.00426Z" fill="#C6AECC"/>
<path d="M35.2932 35.9609H41.2427C42.3964 36.7533 42.1903 38.4302 40.806 38.6698C39.9902 38.808 36.3809 38.8172 35.6063 38.6421C34.3044 38.3473 34.2137 36.6612 35.2932 35.9609Z" fill="#46194F"/>
<path d="M12.9293 28.9125C16.7693 32.9942 11.652 40.0242 7.20227 36.265C2.48056 32.2755 8.50424 24.2136 12.9293 28.9125ZM11.2318 30.9764C9.52604 28.977 6.77377 32.0728 8.65257 33.9432C10.3913 35.6754 12.8551 32.8836 11.2318 30.9764Z" fill="#C6AECC"/>
<path d="M72.1358 28.9125C75.9758 32.9942 70.8586 40.0242 66.4088 36.265C61.6871 32.2755 67.7108 24.2136 72.1358 28.9125ZM70.4466 30.9764C68.7408 28.977 65.9886 32.0728 67.8674 33.9432C69.6308 35.703 72.037 32.8375 70.4466 30.9764Z" fill="#C6AECC"/>
</g>
<defs>
<clipPath id="clip0_109_40">
<rect width="79" height="58" fill="white"/>
</clipPath>
</defs>
</svg>
