<svg width="460" height="312" viewBox="0 0 460 312" fill="none" xmlns="http://www.w3.org/2000/svg">
<path d="M402.299 7.47205C402.245 8.49754 400.828 8.95081 400.609 10.0599C400.277 11.7251 401.298 16.4571 401.298 16.4571C403.094 16.4057 405.132 10.5549 406.079 10.6L402.299 7.47526V7.47205Z" fill="#C6AECC"/>
<path d="M0 255.47C0 255.47 207.582 257.274 217.739 257.116C242.728 256.727 338.269 155.483 361.216 134.453C362.048 131.971 353.027 127.535 351.029 126.435C341.511 121.202 301.149 105.881 299.184 96.5193C297.943 90.6043 308.895 90.8068 312.698 90.1928C312.698 90.1928 405.366 85.8079 405.937 86.3641C406.634 87.0392 406.549 104.791 405.643 105.17C402.985 106.286 395.645 105.099 393.748 110.265C389.799 121.022 405.129 118.039 406.464 120.26C407.212 121.504 406.157 137.134 407.039 137.134H420.053C420.225 137.134 420.012 134.646 420.229 133.82C423.633 120.884 433.607 119.344 439.754 131.643C440.288 132.71 440.971 136.523 441.164 136.71C442.128 137.651 454.455 136.671 455.209 138.105C455.828 139.285 453.677 161.238 453.343 164.452C452.173 175.701 445.455 227.875 434.054 231.794C433.286 232.058 433.134 232.225 432.204 232.067C425.571 230.942 411.942 191.935 408.131 184.683C406.928 182.394 404.473 175.961 401.217 176.443C368.482 211.021 301.098 278.446 266.162 311.011H0V255.474V255.47ZM370.294 103.379C370.429 103.129 367.174 102.033 366.298 100.798C365.605 99.824 365.003 96.0178 364.746 96.0468C364.472 96.0757 364.161 99.808 363.126 101.1C362.156 102.315 359.681 102.904 359.583 103.206C359.522 103.383 361.957 104.164 362.812 105.244C363.667 106.324 364.482 110.455 364.749 110.362C364.993 110.278 365.449 106.768 366.301 105.607C367.586 103.855 370.193 103.579 370.298 103.383L370.294 103.379Z" fill="#46194F"/>
<path d="M413.72 21.7999C418.832 21.1377 454.428 20.0286 458.137 21.9575C460.531 23.2015 460.659 72.5376 458.282 73.9971C457.657 74.3828 444.018 74.0774 443.426 73.6499C442.543 73.0102 443.534 60.1963 434.794 60.0774C425.976 59.9585 427.478 72.7787 426.561 73.6788C425.96 74.2703 409.883 73.7656 409.325 73.1355C408.135 71.7886 409.568 56.6859 408.953 56.0687C407.672 54.7828 393.241 55.5286 396.118 45.0583C397.738 39.1625 407.557 40.3552 409.264 39.1979C409.264 39.1979 407.458 21.8032 413.72 21.8032V21.7999Z" fill="#46194F"/>
<path d="M391.375 86.7272C391.206 86.7272 391.064 86.6115 391.037 86.4508C390.881 85.5281 390.022 82.6253 390.942 81.8955C391.145 81.7348 396.007 81.6962 396.25 81.7959C396.429 81.8698 396.801 83.3904 397.751 83.8597C398.972 84.4641 401.362 84.2005 402.549 84.6762C403.033 84.8691 403.361 85.8175 403.049 86.0425C402.231 86.6372 393.231 86.7176 391.375 86.7272Z" fill="#46194F"/>
<path d="M376.417 87.2416C373.638 83.3871 375.062 79.4106 380.387 81.4262C381.11 81.6994 380.897 82.9049 381.868 83.3068C383.467 83.9658 385.996 84.2005 387.142 84.8563C387.7 85.1745 387.416 86.4057 387.534 86.4925C387.534 86.4925 387.551 87.0519 376.793 87.2416H376.417Z" fill="#46194F"/>
<path d="M409.785 26.2973C409.785 25.8858 403.868 20.6008 402.421 21.7453C399.936 23.703 407.425 31.5405 408.953 32.9614L409.264 39.1947C408.246 38.4746 399.063 28.5347 398.428 28.5701C398.113 28.5861 396.237 33.1285 395.716 34.0319C395.239 34.8612 393.295 35.9607 393.258 36.1118C392.829 37.8991 396.791 54.606 397.079 58.4604C397.261 60.9068 397.43 79.311 396.899 80.2754C396.186 81.5677 390.837 81.0469 390.56 80.4104C389.671 72.9201 390.868 65.2305 389.769 57.766C389.552 56.2905 385.522 41.7761 384.65 41.7664C383.906 41.7568 382.645 54.8181 382.557 55.8951C382.31 58.8976 382.276 79.0763 381.35 79.8864C381.127 80.0825 375.562 79.8317 375.322 79.4974L373.814 26.2491C376.295 24.5517 391.358 10.2656 390.58 8.75786C390.131 7.88668 383.149 9.22399 381.965 9.14363C379.974 9.01182 366.609 4.93237 369.31 1.75624C369.577 1.4412 374.409 0.383561 372.59 2.14522C377.655 4.44695 378.75 5.98679 384.86 5.65246C386.104 5.58495 387.46 4.43409 387.774 4.41801C388.978 4.3505 392.808 6.56543 393.096 6.56543C395.077 6.54615 396.179 4.73305 400.399 5.75854C402.245 6.20539 402.759 6.76153 402.728 7.32089C402.674 8.34638 404.689 6.30183 404.764 5.93857C404.885 5.35671 403.918 3.15785 404.013 2.91996C404.115 2.666 408.192 -0.0600684 408.676 0.00101093C408.899 0.0299433 412.571 1.6823 412.746 1.8141C412.831 1.87518 412.263 2.73672 412.388 2.87174C412.503 2.99711 415.329 3.35073 413.96 5.18633C413.23 6.16681 411.722 5.34063 411.631 5.44672C411.397 5.70711 410.045 11.2525 407.989 10.9471C407.854 10.9278 407.289 8.82215 406.657 9.11469C406.603 9.14041 406.187 10.5517 406.028 10.5999C401.44 12.0047 400.571 10.3909 401.298 16.4506C403.093 16.3992 405.132 10.5485 406.079 10.5935C407.026 10.6385 412.483 21.5074 413.717 21.7935L409.781 26.2941L409.785 26.2973Z" fill="#46194F"/>
<path d="M387.088 31.8298C387.669 31.6305 395.006 23.9088 395.267 22.9476C395.507 22.0668 395.158 18.5113 394.783 18.2927C394.073 17.878 382.973 28.718 382.95 29.5153C382.926 30.3125 386.682 31.9713 387.088 31.8298Z" fill="#C6AECC"/>
</svg>
