<svg width="35" height="35" viewBox="0 0 35 35" fill="none" xmlns="http://www.w3.org/2000/svg">
<g clip-path="url(#clip0_103_178)">
<path d="M0 35.0004L2.41339 26.0686C-2.62852 17.1524 0.94658 5.8253 10.3048 1.57328C20.6351 -3.12204 32.7352 3.16754 34.7105 14.2244C37.2902 28.6603 22.051 39.4391 9.13137 32.5993L0 35.0004ZM4.17747 30.8475L9.56554 29.4613C13.4712 31.7613 17.9772 32.434 22.3346 30.9408C35.7784 26.3311 34.9335 6.7877 21.1377 3.38919C8.0694 0.171488 -1.83253 14.5977 5.62276 25.5767L4.17551 30.8475H4.17747Z" fill="#46194F"/>
<path d="M11.046 9.37311C11.3179 9.32644 12.3094 9.30895 12.5656 9.35755C12.7084 9.38477 12.8825 9.57142 12.9705 9.68418C13.2912 10.0944 14.3845 12.7502 14.5664 13.3432C14.6524 13.6232 14.713 13.7768 14.5996 14.0723C14.3806 14.6381 13.5415 15.3069 13.2736 15.8124C13.0565 16.2246 13.4046 16.6154 13.6276 16.9712C14.6035 18.5246 16.1935 20.0178 17.8051 20.9043C18.161 21.1007 19.4596 21.7637 19.7901 21.7092C19.8997 21.6917 19.9975 21.6295 20.0835 21.5615C20.635 21.1299 21.1494 20.0936 21.652 19.6231C21.9962 19.3003 22.3111 19.4714 22.6944 19.6134C23.5393 19.9244 25.1411 20.6885 25.9194 21.1435C26.0427 21.2154 26.3282 21.3709 26.3673 21.4993C26.6783 23.5271 25.2173 25.1369 23.3066 25.5685C20.5451 26.1907 16.4439 24.0268 14.363 22.2886C11.2651 19.7008 6.35418 14.0101 10.0036 10.0847C10.2676 9.80084 10.649 9.4431 11.048 9.37505L11.046 9.37311Z" fill="white"/>
</g>
<defs>
<clipPath id="clip0_103_178">
<rect width="35" height="35" fill="white"/>
</clipPath>
</defs>
</svg>
