<svg width="157" height="151" viewBox="0 0 157 151" fill="none" xmlns="http://www.w3.org/2000/svg">
<g clip-path="url(#clip0_382_650)">
<path d="M125.992 104.622C120.741 106.841 107.416 107.741 93.3338 107.964C88.118 108.05 82.7919 108.038 77.7496 107.976C65.3075 107.804 54.4896 107.26 50.8153 106.829C50.6419 106.806 50.4408 106.767 50.2437 106.72H50.2319C49.7115 106.598 49.1004 106.375 48.4065 106.078C40.3483 102.592 21.6576 88.3053 16.2802 83.1637C11.297 78.4055 0.195294 63.0863 0.195294 63.0863C-0.0885566 59.2398 8.54129 58.1794 16.7493 67.5588C17.2697 68.1496 24.6222 72.6378 29.5147 75.6077C29.6133 75.6586 29.7118 75.7173 29.8143 75.7799C30.2125 76.0147 30.5831 76.2495 30.934 76.4569C32.4872 77.3921 33.5911 78.0455 33.8277 78.1942C33.6305 78.0103 32.8854 77.3803 31.8052 76.4803C31.5568 76.269 31.2966 76.0499 31.0246 75.8151C30.9379 75.7408 30.8512 75.6547 30.7526 75.5804C27.2242 72.5869 21.6891 67.8523 19.6115 65.8058C16.568 62.8123 6.84607 49.5709 8.99466 48.5144C14.7308 45.7166 21.0662 53.433 27.4962 59.8307C29.7315 62.0493 40.7229 68.5331 44.547 71.5265C42.15 69.0848 37.1708 63.8962 35.6687 61.5289C33.67 58.3594 28.8839 48.6944 30.3978 48.2248C33.1653 47.3757 37.2339 51.1752 43.2184 58.7429C48.2725 65.1288 60.8289 69.034 63.9828 71.0061C70.3143 74.9504 83.1073 72.1291 103.485 71.8826C105.287 71.8591 106.939 71.9452 108.441 72.1174V72.1291C127.865 74.3595 124.672 91.9248 128.259 101.86C128.657 102.955 127.798 103.867 126 104.622H125.992Z" fill="#FAAC75"/>
<path d="M47.437 64.3463C47.437 64.3463 42.0636 53.5778 47.437 55.319C52.8105 57.0603 62.828 72.6418 74.7498 73.08L67.827 77.2277L47.4331 64.3463H47.437Z" fill="#F3BAAB"/>
<path d="M69.7903 90.8683C95.4107 90.8683 116.18 87.1508 116.18 82.565C116.18 77.9792 95.4107 74.2617 69.7903 74.2617C44.1698 74.2617 23.4004 77.9792 23.4004 82.565C23.4004 87.1508 44.1698 90.8683 69.7903 90.8683Z" fill="#46194F"/>
<path d="M116.176 79.016H23.4004V82.569H116.176V79.016Z" fill="#46194F"/>
<path d="M116.176 79.016C116.176 83.602 95.4078 87.3193 69.7903 87.3193C44.1727 87.3193 23.4004 83.602 23.4004 79.016C23.4004 74.43 44.1688 70.7126 69.7903 70.7126C95.4117 70.7126 116.176 74.43 116.176 79.016Z" fill="#C6AECC"/>
<path d="M68.0277 8.87988V70.7087H46.3644L44.4326 13.2898L58.6409 10.6329L68.0277 8.87988Z" fill="#46194F"/>
<path opacity="0.5" d="M50.0659 15.0585H47.8779V19.441H50.0659V15.0585Z" fill="#EAF5F7"/>
<path opacity="0.5" d="M55.7398 15.0585H53.5518V19.441H55.7398V15.0585Z" fill="#EAF5F7"/>
<path opacity="0.5" d="M50.0659 24.8292H47.8779V29.2117H50.0659V24.8292Z" fill="#EAF5F7"/>
<path opacity="0.5" d="M55.7398 24.8292H53.5518V29.2117H55.7398V24.8292Z" fill="#EAF5F7"/>
<path opacity="0.5" d="M50.0659 37.198H47.8779V41.5805H50.0659V37.198Z" fill="#EAF5F7"/>
<path opacity="0.5" d="M55.7398 37.198H53.5518V41.5805H55.7398V37.198Z" fill="#EAF5F7"/>
<path opacity="0.5" d="M58.6406 10.6329L68.0274 8.87988V70.7087H61.6762L61.4594 66.377L60.801 53.3351L59.8667 34.9129L58.6406 10.6329Z" fill="#EAF5F7"/>
<path opacity="0.5" d="M68.0274 8.87988V15.5398L59.3305 24.2852L58.6406 10.6329L68.0274 8.87988Z" fill="#EAF5F7"/>
<path opacity="0.5" d="M62.0671 78.3899H62.0631L61.6768 70.7087L62.0671 78.3899Z" fill="#EAF5F7"/>
<path opacity="0.5" d="M68.028 70.7088H61.6768L61.46 66.3771L68.028 63.3719V70.7088Z" fill="#EAF5F7"/>
<path d="M71.8755 42.7075V82.5454H31.7383V49.1835L44.4721 47.1292L54.0639 45.5796L65.7018 43.7053L71.8755 42.7075Z" fill="#46194F"/>
<path d="M106.616 3.6561L104.597 82.5454H78.0575L73.918 0.615723L91.6783 2.26699L106.616 3.6561Z" fill="#46194F"/>
<path opacity="0.5" d="M91.6783 2.26699V82.5454H78.0575L73.918 0.615723L91.6783 2.26699Z" fill="#EAF5F7"/>
<path opacity="0.5" d="M91.6783 7.62385L75.1125 24.2853L73.918 0.615723L91.6783 2.26699V7.62385Z" fill="#EAF5F7"/>
<path opacity="0.5" d="M91.6781 24.2853L75.6523 34.9129L76.5827 53.3351L91.6781 37.5424V24.2853Z" fill="#EAF5F7"/>
<path opacity="0.5" d="M77.2412 66.3771L91.6782 59.772V67.4727L77.8483 78.3899L77.2412 66.3771Z" fill="#EAF5F7"/>
<path opacity="0.5" d="M96.7163 6.6886H94.5283V11.0711H96.7163V6.6886Z" fill="#EAF5F7"/>
<path opacity="0.5" d="M102.393 6.6886H100.205V11.0711H102.393V6.6886Z" fill="#EAF5F7"/>
<path opacity="0.5" d="M96.7163 17.7701H94.5283V22.1527H96.7163V17.7701Z" fill="#EAF5F7"/>
<path opacity="0.5" d="M102.393 17.7701H100.205V22.1527H102.393V17.7701Z" fill="#EAF5F7"/>
<path opacity="0.5" d="M96.7163 28.1669H94.5283V32.5494H96.7163V28.1669Z" fill="#EAF5F7"/>
<path opacity="0.5" d="M102.393 28.1669H100.205V32.5494H102.393V28.1669Z" fill="#EAF5F7"/>
<path opacity="0.5" d="M96.7163 40.5162H94.5283V44.8988H96.7163V40.5162Z" fill="#EAF5F7"/>
<path opacity="0.5" d="M102.393 40.5162H100.205V44.8988H102.393V40.5162Z" fill="#EAF5F7"/>
<path opacity="0.5" d="M96.7163 52.0009H94.5283V56.3834H96.7163V52.0009Z" fill="#EAF5F7"/>
<path opacity="0.5" d="M102.393 52.0009H100.205V56.3834H102.393V52.0009Z" fill="#EAF5F7"/>
<path opacity="0.5" d="M46.1363 75.6586H43.9482V80.0411H46.1363V75.6586Z" fill="#EAF5F7"/>
<path opacity="0.5" d="M51.8091 75.6586H49.6211V80.0411H51.8091V75.6586Z" fill="#EAF5F7"/>
<path opacity="0.5" d="M71.8755 42.7075V69.7148H31.7383V49.1835L44.4721 47.1292L54.0639 45.5796L65.7018 43.7053L71.8755 42.7075Z" fill="#EAF5F7"/>
<path opacity="0.5" d="M44.4721 47.1292L33.9381 69.7148H31.7383V49.1835L44.4721 47.1292Z" fill="#EAF5F7"/>
<path opacity="0.5" d="M65.7022 43.7053L49.3571 69.7148H40.6523L54.0643 45.5796L65.7022 43.7053Z" fill="#EAF5F7"/>
<path opacity="0.5" d="M71.8752 52.22V69.4957L71.7372 69.7148H62.1533L71.8752 52.22Z" fill="#EAF5F7"/>
<path d="M71.8756 69.7148H29.1758V70.8848H71.8756V69.7148Z" fill="#C6AECC"/>
<path opacity="0.5" d="M60.6597 75.1382H55.9131V82.5415H60.6597V75.1382Z" fill="#EAF5F7"/>
<path opacity="0.5" d="M41.8267 75.1382H37.0801V82.5415H41.8267V75.1382Z" fill="#EAF5F7"/>
<path opacity="0.5" d="M68.398 75.1382H63.6514V82.5415H68.398V75.1382Z" fill="#EAF5F7"/>
<path d="M156.108 150.107H100.994C98.8806 144.472 89.8802 114.953 88.5634 113.583L88.5516 113.571C88.5004 113.509 88.4649 113.474 88.4136 113.423C88.0785 113.09 87.7907 112.855 87.5581 112.683C87.0969 112.362 86.8249 112.288 86.813 112.276C84.3412 110.551 81.1991 109.134 77.7456 107.976L77.7338 107.964C64.5584 103.515 47.074 102.752 47.0227 102.701C43.3208 98.2639 51.5209 93.7874 63.3047 90.3988L64.925 89.4988C71.769 87.5267 76.3815 86.6384 82.6657 85.3667C83.5212 85.1945 87.0259 85.3824 87.8183 85.2219H87.8302C88.5004 85.085 89.1587 84.9637 89.7935 84.8385C93.6294 84.0989 100.82 86.6149 102.137 86.6736C120.532 87.4875 120.69 85.4763 123.122 88.0158V88.0275C123.844 88.7671 124.151 89.2719 124.151 89.2719C123.879 89.9605 155.718 149.262 156.104 150.103L156.108 150.107Z" fill="#FAAC75"/>
<path d="M100.994 112.589C89.7033 115.015 69.9678 112.644 58.7203 109.51C55.7832 108.692 52.6687 108.293 50.1141 106.638C47.8196 105.151 46.0298 103.026 44.2794 100.929C39.0675 94.6835 33.8873 88.4071 28.7385 82.1072C27.3114 80.3581 26.0222 77.4508 27.9146 76.2143C28.5966 75.7682 29.4679 75.7721 30.2839 75.7878C35.4327 75.8895 41.0269 76.1517 44.9614 79.4503C47.5673 81.6377 49.0693 84.8854 51.6082 87.1471C54.6675 89.8745 60.6047 90.8371 64.551 89.7023L100.99 112.589H100.994Z" fill="#FAAC75"/>
</g>
<defs>
<clipPath id="clip0_382_650">
<rect width="155.921" height="149.491" fill="white" transform="translate(0.1875 0.615723)"/>
</clipPath>
</defs>
</svg>
