<svg width="106" height="186" viewBox="0 0 106 186" fill="none" xmlns="http://www.w3.org/2000/svg">
<g clip-path="url(#clip0_66_1154)">
<path d="M79.5044 147.017L62.9367 152.546L37.9265 77.5984C31.9226 61.8246 22.9121 55.7473 22.9121 55.7473L53.3774 45.5809C53.3774 45.5809 49.8202 55.8452 54.4942 72.0697L79.5044 147.017Z" fill="#46194F"/>
<path d="M60.1024 132.733C61.0019 135.428 63.92 136.891 66.6216 135.99C69.3169 135.09 70.78 132.172 69.8785 129.471L48.3528 64.9652C47.4534 62.2698 44.5353 60.8068 41.8337 61.7083C39.1383 62.6077 37.6752 65.5259 38.5768 68.2275L60.1024 132.733Z" fill="#2F0036"/>
<path d="M69.15 143.567C78.637 140.401 88.8934 145.525 92.0592 155.012C95.2251 164.499 90.1011 174.756 80.6141 177.921C71.127 181.087 60.8707 175.963 57.7048 166.476C54.539 156.989 59.6629 146.733 69.15 143.567ZM72.7763 171.048L82.7471 167.72L84.8528 157.417L76.9815 150.443L67.0107 153.77L64.9049 164.074L72.7763 171.048Z" fill="#C6AECC"/>
<path d="M79.0298 149.759L86.9011 156.733L84.7954 167.037L82.7472 167.721L84.8529 157.417L76.9816 150.443L79.0298 149.759Z" fill="#46194F"/>
<path d="M69.15 143.567C69.4955 143.452 69.8453 143.37 70.1908 143.275C61.3595 146.816 56.6962 156.653 59.7468 165.795C62.7973 174.936 72.4358 180.008 81.6214 177.529C81.2885 177.661 80.9597 177.806 80.6141 177.921C71.1271 181.087 60.8707 175.963 57.7048 166.476C54.539 156.989 59.6629 146.733 69.15 143.567Z" fill="#46194F"/>
<path d="M23.9378 41.6008C19.9642 40.5528 20.7691 36.1645 20.7691 36.1645L21.2806 12.2954C20.5942 7.64374 17.0032 10.9438 17.0032 10.9438C4.43488 32.2239 9.06945 43.1619 9.06945 43.1619C15.0589 59.5201 35.7768 56.8448 35.7768 56.8448C58.1639 53.8778 59.3128 38.2169 59.3128 38.2169C59.3128 38.2169 61.7302 26.5874 45.2487 8.16547C45.2487 8.16547 41.084 5.62413 41.3181 10.322L46.4783 33.6321C46.4783 33.6321 47.9961 37.8457 44.4276 39.5812C44.4276 39.5812 34.6356 45.16 23.9378 41.6008Z" fill="#C6AECC"/>
<path d="M42.124 9.09639L47.7519 34.4987C47.7519 34.4987 49.4039 39.0935 45.5172 40.984C45.5172 40.984 34.8456 47.0658 23.1884 43.1844C18.8566 42.0464 19.7305 37.2581 19.7305 37.2581L20.2895 11.2505C20.2013 10.6306 20.0587 10.1405 19.8806 9.75307C20.5069 9.95603 21.058 10.624 21.2868 12.1676L20.7669 36.0325C20.7669 36.0325 19.9641 40.427 23.9356 41.4688C34.6271 45.03 44.4254 39.4491 44.4254 39.4491C47.9939 37.7137 46.4761 33.5001 46.4761 33.5001L41.3159 10.19C41.2357 8.63171 41.646 7.87336 42.2219 7.54852C42.1278 7.95698 42.0819 8.46806 42.1156 9.09221L42.124 9.09639Z" fill="#2F0036"/>
<path d="M17.0136 10.9542C17.0136 10.9542 19.1032 9.014 20.3959 10.1886C19.5163 10.3983 18.7123 11.1484 18.7123 11.1484C7.64075 30.0717 11.7408 39.8056 11.7408 39.8056C17.0364 54.3564 35.3038 51.9962 35.3038 51.9962C55.0373 49.3631 56.0402 35.4406 56.0402 35.4406C56.0402 35.4406 58.1606 25.0973 43.6109 8.69798C43.6109 8.69798 42.6724 8.1244 41.7738 8.08909C42.8143 6.68752 45.2402 8.18219 45.2402 8.18219C61.7469 26.7633 59.3421 38.4933 59.3421 38.4933C59.3421 38.4933 58.2017 54.2841 35.8334 57.2658C35.8334 57.2658 15.1155 59.941 9.11344 43.4404C9.11344 43.4404 4.46627 32.4019 17.0199 10.9521L17.0136 10.9542Z" fill="#46194F"/>
</g>
<defs>
<clipPath id="clip0_66_1154">
<rect width="51.0862" height="178.951" fill="white" transform="matrix(-0.948578 0.316543 0.316543 0.948578 48.459 0)"/>
</clipPath>
</defs>
</svg>
