<svg width="32" height="33" viewBox="0 0 32 33" fill="none" xmlns="http://www.w3.org/2000/svg">
<g clip-path="url(#clip0_87_293)">
<path d="M16.8837 0L18.7465 0.273004C25.033 1.47624 30.1104 6.71893 31.29 13.175L31.5554 15.0911C31.521 15.8393 31.5997 16.628 31.5554 17.3711C30.7002 31.6179 13.0892 37.7706 3.8831 26.9111C-4.66436 16.8352 1.78433 0.819012 14.667 0H16.8837ZM13.7282 9.15069C12.2143 9.18608 10.5235 9.20124 9.02436 9.3883C6.59135 9.69164 6.23746 10.9202 6.03594 13.2255C5.86391 15.1669 5.86391 17.3054 6.03594 19.2468C6.35051 22.8262 7.39744 23.0031 10.6267 23.2104C14.2049 23.4379 18.3435 23.4632 21.907 23.1447C24.7283 22.8969 25.264 22.088 25.5147 19.2468C25.6966 17.1537 25.7212 14.6209 25.4459 12.5329C25.1707 10.4449 24.5612 9.64108 22.4624 9.3883C19.7296 9.05969 16.4954 9.09002 13.7282 9.15069Z" fill="#46194F"/>
<path d="M13.8018 13.1851L18.9184 16.1982L13.8018 19.272V13.1851Z" fill="#46194F"/>
</g>
<defs>
<clipPath id="clip0_87_293">
<rect width="31.5701" height="32.447" fill="white"/>
</clipPath>
</defs>
</svg>
