<svg width="50" height="10" viewBox="0 0 50 10" fill="none" xmlns="http://www.w3.org/2000/svg">
<path d="M9.95661 0.955074C9.94382 0.967857 9.93104 0.98064 9.91826 0.995553V1.80938C9.91826 1.80938 9.93956 1.83281 9.95661 1.84986H15.1847C15.2124 1.87116 15.1804 1.9159 15.2252 1.91164V2.75742C15.2124 2.77021 15.1996 2.78299 15.1847 2.7979H9.95661C9.94595 2.81068 9.93317 2.82347 9.91826 2.84051V3.65221C9.91826 3.65221 9.93956 3.67564 9.95661 3.69268H15.5383L15.5724 3.72677C15.5724 3.72677 15.5788 3.73316 15.581 3.73742C15.581 3.74595 15.581 3.75447 15.581 3.76512V4.60238L15.5405 4.64286H8.93187C8.93187 4.64286 8.91269 4.62582 8.90417 4.61516H8.85943C8.83387 4.60238 8.81469 4.59173 8.78487 4.57682C8.76995 4.5619 8.74439 4.53634 8.71882 4.51077C8.7103 4.51077 8.70178 4.51077 8.69113 4.50864C8.67834 4.48734 8.66982 4.46177 8.65065 4.44686C8.62295 4.42555 8.62295 4.3936 8.60378 4.37016C8.58887 4.35099 8.58034 4.32542 8.56543 4.2956V4.25086C8.56543 4.25086 8.54626 4.23168 8.53773 4.22316V0.426726C8.54839 0.416074 8.56117 0.405422 8.5633 0.39477C8.591 0.290379 8.62082 0.234987 8.6826 0.173205C8.71669 0.136987 8.75291 0.1029 8.787 0.0688133C8.78913 0.0666828 8.79339 0.0645524 8.7806 0.0730741C8.82108 0.0560307 8.84239 0.0411176 8.86582 0.0368567C8.88926 0.0325959 8.91056 0.0347263 8.92334 0.0112915H15.5362C15.5362 0.0112915 15.5575 0.0304654 15.5682 0.0411176C15.5724 0.0475089 15.5746 0.0496393 15.5767 0.0539002C15.5767 0.062422 15.5767 0.0709437 15.5767 0.0815959V0.916727C15.5618 0.93377 15.549 0.946553 15.5362 0.959335H9.95661V0.955074Z" fill="black"/>
<path d="M49.2184 4.57036V4.62362C49.2184 4.62362 49.2035 4.6364 49.195 4.6364C48.5495 4.6364 47.9039 4.6364 47.2584 4.6364C47.2201 4.6151 47.203 4.56823 47.1562 4.55545C47.1178 4.5448 47.1029 4.4958 47.0581 4.4958C47.0347 4.46384 46.9964 4.44893 46.9644 4.42762C46.9325 4.40632 46.8984 4.38714 46.8707 4.35945C46.8451 4.33601 46.8068 4.33388 46.7855 4.30406C46.7641 4.27423 46.7343 4.26145 46.7024 4.2444C46.6768 4.23162 46.6598 4.20606 46.6278 4.19541C46.598 4.18475 46.5767 4.1528 46.5426 4.14001C46.5149 4.12936 46.5042 4.09527 46.468 4.09101C46.4403 4.08675 46.4318 4.04414 46.3956 4.03988C46.3615 4.03562 46.353 3.98023 46.3104 3.98662C46.2869 3.96532 46.2635 3.94401 46.2422 3.92058C46.2251 3.89927 46.1911 3.90993 46.1761 3.88223C46.1634 3.8588 46.1357 3.8524 46.1122 3.84175C46.0888 3.83323 46.0824 3.79701 46.0505 3.79488C46.0228 3.79488 46.0164 3.76719 45.9993 3.75653C45.9801 3.74588 45.9588 3.73949 45.9439 3.72671C45.9205 3.7054 45.8992 3.68836 45.8694 3.67771C45.8417 3.66706 45.8331 3.62658 45.7948 3.63084C45.7735 3.60953 45.7501 3.5861 45.7288 3.56266C45.7096 3.54349 45.6798 3.54988 45.6627 3.52432C45.6521 3.50727 45.6329 3.49662 45.6095 3.49023C45.586 3.48597 45.569 3.45614 45.5498 3.4391C45.5051 3.44549 45.4987 3.38797 45.4646 3.38584C45.422 3.38584 45.4177 3.33258 45.3794 3.33045C45.3389 3.32619 45.324 3.28784 45.2984 3.2644C45.2792 3.24736 45.2473 3.25375 45.2324 3.22606C45.2196 3.20049 45.1898 3.19836 45.1685 3.18771C45.145 3.17706 45.1386 3.14297 45.1067 3.14084C45.0811 3.14084 45.0747 3.11314 45.0555 3.10249C45.0385 3.09184 45.0129 3.08758 45.0001 3.07267C44.9703 3.03219 44.9128 3.03219 44.8851 2.98745C44.8382 2.97893 44.8127 2.94058 44.7807 2.91075C44.7615 2.89158 44.7317 2.89797 44.7147 2.8724C44.7019 2.85536 44.6848 2.84471 44.6593 2.84045C44.6358 2.83619 44.6209 2.79571 44.5996 2.79145C44.5613 2.78719 44.5528 2.74671 44.5251 2.74032C44.4974 2.7318 44.4803 2.71688 44.459 2.69984C44.4292 2.6764 44.3887 2.66575 44.3653 2.63166C44.3205 2.6274 44.2992 2.59119 44.2715 2.56562C44.2438 2.54006 44.2034 2.53153 44.1757 2.49958C44.1608 2.48253 44.1267 2.48466 44.1118 2.4591C44.0968 2.4314 44.0649 2.43993 44.0457 2.42075C44.0287 2.40371 44.0159 2.37388 43.9818 2.38027C43.9456 2.33553 43.8838 2.32488 43.8497 2.27588C43.8327 2.25245 43.8071 2.24819 43.7837 2.23753C43.7581 2.22262 43.7453 2.1928 43.7091 2.18853C43.6878 2.1864 43.6708 2.14593 43.6495 2.13953C43.6175 2.13314 43.6068 2.10758 43.5855 2.09479C43.5685 2.08414 43.5472 2.07775 43.5301 2.06497C43.5088 2.05006 43.4961 2.02875 43.4641 2.02449C43.4449 2.02236 43.4279 1.99253 43.4108 1.97336C43.4045 1.98188 43.3981 1.98401 43.3981 1.98827C43.3981 2.01597 43.3981 2.04153 43.3981 2.06923V4.58741C43.3853 4.60019 43.3725 4.61297 43.3576 4.62788H42.0303C42.0303 4.62788 42.0069 4.60445 41.992 4.59167V0.0474459C41.992 0.0474459 42.0111 0.0261415 42.0218 0.0133589C42.1965 0.000576304 47.9359 -0.005815 48.7412 0.00696761C48.8008 0.0367937 48.852 0.0644894 48.9116 0.0943155C48.9564 0.139055 49.0075 0.190185 49.0586 0.243446C49.0629 0.275403 49.1012 0.305229 49.0906 0.347837C49.1353 0.375533 49.1034 0.422403 49.1183 0.45862C49.1247 0.465011 49.1311 0.471403 49.1375 0.477794V2.27162C49.1375 2.27162 49.1225 2.28653 49.114 2.29506V2.40158C49.114 2.40158 49.0885 2.42075 49.0885 2.4314C49.0863 2.45058 49.0821 2.46336 49.0693 2.47827C49.0608 2.4868 49.0608 2.50171 49.0544 2.51875C49.0011 2.57201 48.9436 2.62953 48.8861 2.68706C48.8775 2.68706 48.8648 2.68706 48.8605 2.68919C48.8392 2.71901 48.7902 2.70623 48.7774 2.74245C48.0509 2.74245 47.3287 2.74245 46.6065 2.74245C46.6044 2.74245 46.6001 2.74884 46.5937 2.7531C46.6214 2.77867 46.6385 2.81275 46.6811 2.8234C46.7002 2.82767 46.7152 2.8511 46.7301 2.86601C46.7428 2.8788 46.7556 2.90223 46.7684 2.90223C46.8131 2.9001 46.8195 2.95336 46.8536 2.95762C46.8856 2.96188 46.8962 2.98532 46.9175 3.00236C46.9367 3.01727 46.9708 3.01301 46.9836 3.04071C46.9964 3.0684 47.0283 3.06414 47.0496 3.07906C47.0709 3.09397 47.0795 3.12167 47.1135 3.1238C47.1285 3.1238 47.1412 3.14297 47.154 3.15575C47.1711 3.17067 47.186 3.18771 47.203 3.20262C47.2094 3.20688 47.2243 3.20049 47.2286 3.20262C47.2691 3.25162 47.3308 3.26653 47.3735 3.31127C47.4011 3.30914 47.4139 3.33045 47.4246 3.34749C47.4395 3.37093 47.4651 3.35814 47.4821 3.37519C47.5034 3.39649 47.5226 3.4178 47.5567 3.42632C47.5844 3.43271 47.5908 3.47532 47.6312 3.47745C47.6483 3.47745 47.6632 3.50514 47.6802 3.52006C47.693 3.53284 47.7058 3.55414 47.7186 3.55414C47.7633 3.55414 47.7697 3.60527 47.8038 3.60953C47.8315 3.61167 47.8443 3.62871 47.8571 3.64575C47.872 3.66706 47.8975 3.65853 47.9146 3.67345C47.938 3.69262 47.9529 3.71819 47.9891 3.72458C48.0105 3.72884 48.0275 3.76719 48.0488 3.77145C48.085 3.77997 48.0935 3.81406 48.1212 3.82471C48.1362 3.8311 48.1532 3.8311 48.1681 3.84388C48.1937 3.86732 48.2086 3.9014 48.2491 3.9078C48.2831 3.91419 48.2917 3.96745 48.3343 3.96106C48.362 3.99727 48.4046 4.01006 48.4387 4.03562C48.4706 4.05906 48.5026 4.08036 48.5324 4.1038C48.5665 4.12936 48.6112 4.14001 48.6368 4.18049C48.6581 4.21458 48.7071 4.21032 48.7327 4.24654C48.7497 4.26997 48.7902 4.26571 48.8051 4.29554C48.82 4.32323 48.8562 4.30619 48.8711 4.33388C48.8861 4.36371 48.9223 4.36371 48.9457 4.38288C48.967 4.3978 48.9777 4.42336 49.0096 4.42762C49.0267 4.42762 49.048 4.45319 49.0586 4.47023C49.0778 4.50645 49.1247 4.49793 49.1438 4.52775C49.1609 4.55545 49.1992 4.55332 49.2184 4.57462V4.57036ZM47.7271 0.965664C47.7271 0.965664 47.7186 0.955012 47.7143 0.955012C46.2891 0.955012 44.8617 0.955012 43.4364 0.955012C43.4279 0.955012 43.4172 0.955012 43.4087 0.955012C43.4045 0.955012 43.4023 0.961403 43.3959 0.965664V1.78375C43.3959 1.78375 43.4045 1.7944 43.4087 1.7944C44.834 1.7944 46.2614 1.7944 47.6866 1.7944C47.6951 1.7944 47.7058 1.7944 47.7143 1.7944C47.7186 1.7944 47.7207 1.78801 47.7271 1.78375V0.965664Z" fill="black"/>
<path d="M25.2191 0.426654C25.2298 0.416002 25.2362 0.40961 25.2447 0.401089V0.328654C25.2532 0.305219 25.283 0.294567 25.2745 0.269002C25.3427 0.200828 25.4087 0.134784 25.4769 0.0666102C25.5131 0.0708711 25.5344 0.00908844 25.577 0.0389145C25.5919 0.0261319 25.6005 0.0176102 25.6111 0.00695801H32.1111C32.1111 0.00695801 32.1302 0.0240015 32.1388 0.0346537H32.1835C32.2091 0.0474363 32.2282 0.0580885 32.2581 0.0751319C32.273 0.090045 32.2986 0.11561 32.3241 0.141175C32.3326 0.141175 32.3412 0.141175 32.3518 0.143306C32.3646 0.16461 32.3731 0.190175 32.3923 0.205089C32.42 0.226393 32.42 0.258349 32.4392 0.281784C32.4541 0.300958 32.4626 0.326523 32.4775 0.356349V0.401089C32.4775 0.401089 32.4967 0.420263 32.5052 0.430915V4.22096C32.5052 4.22096 32.4924 4.23374 32.4818 4.24439C32.4818 4.25718 32.4818 4.27422 32.4775 4.30405C32.4754 4.32109 32.4242 4.33387 32.4541 4.36583C32.4221 4.39779 32.3923 4.42548 32.3731 4.44679V4.48939C32.3284 4.50005 32.3007 4.53626 32.2709 4.56609C32.2517 4.58526 32.1771 4.61083 32.143 4.61296C32.1324 4.62148 32.1217 4.63 32.1153 4.63639H25.6175C25.6047 4.62574 25.5941 4.61509 25.5834 4.61083C25.5642 4.60444 25.5408 4.61722 25.5216 4.59592C25.5003 4.57461 25.462 4.57887 25.4471 4.54692C25.4343 4.52135 25.4066 4.53413 25.3917 4.51922C25.3725 4.50005 25.3406 4.483 25.3363 4.4617C25.332 4.42548 25.3001 4.4127 25.2873 4.38713C25.2745 4.36583 25.2639 4.34239 25.2532 4.31896C25.2447 4.29766 25.2553 4.26783 25.2298 4.24652C25.2212 4.238 25.2234 4.21244 25.2234 4.19539C25.2234 4.08248 25.2234 3.96957 25.2234 3.85665V0.426654H25.2191ZM31.0842 0.955002C29.6036 0.955002 28.1229 0.955002 26.6422 0.955002C26.6295 0.967784 26.6167 0.980567 26.6039 0.99335C26.5954 1.41944 26.5975 3.51365 26.6082 3.65852C26.6209 3.66918 26.6337 3.68196 26.6422 3.68835H31.0885C31.1034 3.67344 31.114 3.66065 31.1247 3.65V0.99335C31.1098 0.978437 31.097 0.965654 31.0863 0.952871L31.0842 0.955002Z" fill="black"/>
<path d="M39.3865 0.00915527H40.7563C40.7563 0.00915527 40.767 0.017677 40.767 0.0219379C40.767 1.43016 40.767 2.83837 40.767 4.24446C40.7606 4.25085 40.7542 4.25724 40.7478 4.26364C40.7372 4.31903 40.7244 4.37229 40.6796 4.41063C40.6519 4.43407 40.6498 4.47029 40.6242 4.49798C40.6008 4.52142 40.5667 4.51929 40.5476 4.54485C40.5284 4.57255 40.4986 4.57894 40.473 4.59172C40.4496 4.60237 40.4282 4.61516 40.3942 4.6322H34.1222C34.1009 4.62155 34.0859 4.61303 34.071 4.60877C34.0476 4.60237 33.9688 4.56829 33.9581 4.55763C33.907 4.5065 33.8559 4.45537 33.8282 4.42768C33.8005 4.38294 33.7877 4.3659 33.7792 4.34672C33.7685 4.32329 33.7579 4.29985 33.7536 4.27642C33.7493 4.25511 33.7536 4.23168 33.7536 4.21463C33.7429 4.20398 33.7365 4.19759 33.728 4.18907V0.0475031C33.728 0.0475031 33.7472 0.0261988 33.7621 0.00915527H35.0979C35.0979 0.00915527 35.1171 0.0283292 35.1256 0.0368509C35.1277 0.0453727 35.1341 0.051764 35.1341 0.0602857C35.1341 1.26611 35.1341 2.46981 35.1341 3.6735C35.1469 3.69268 35.1661 3.68842 35.1831 3.68842C36.5679 3.68842 37.9548 3.68842 39.3396 3.68842C39.3524 3.68842 39.3652 3.68842 39.3758 3.68629C39.3801 3.68203 39.3865 3.67777 39.3865 3.6735C39.3865 3.66498 39.3865 3.65646 39.3865 3.64581V0.00915527Z" fill="black"/>
<path d="M7.3149 4.1912C7.3149 4.1912 7.30211 4.20399 7.29572 4.20825C7.28081 4.23381 7.28933 4.26151 7.2872 4.28707C7.2659 4.32755 7.24459 4.36803 7.22329 4.4149C7.17003 4.46816 7.1125 4.52568 7.05711 4.58107C7.01876 4.58533 6.98894 4.62368 6.94633 4.61303C6.92929 4.64073 6.90159 4.6386 6.87603 4.63646C6.84833 4.63646 6.82277 4.63646 6.79507 4.63646H0.623197C0.563545 4.60664 0.508154 4.57894 0.433588 4.5406C0.410154 4.51716 0.373936 4.47881 0.337719 4.4426C0.307893 4.38294 0.280197 4.32755 0.24611 4.26151V4.16564C0.24611 4.16564 0.226936 4.14433 0.218414 4.13368V2.9172C0.241849 2.90229 0.241849 2.87246 0.256762 2.84903H1.58615C1.58615 2.84903 1.60746 2.87033 1.62663 2.88525V3.67138C1.62663 3.67138 1.63728 3.68416 1.64155 3.68629C1.64581 3.68629 1.65007 3.68629 1.65433 3.68629C3.06681 3.68629 4.47929 3.68629 5.89389 3.68629C5.89816 3.68629 5.90029 3.6799 5.90455 3.67777C5.90455 3.67351 5.90881 3.66925 5.90881 3.66712C5.90881 2.46129 5.90881 1.25759 5.90881 0.0475066C5.91733 0.0368544 5.93011 0.0240718 5.94076 0.0112892C6.07711 0.000637009 6.92503 -0.00149343 7.27868 0.00702832C7.29146 0.0198109 7.30424 0.0325935 7.31703 0.0453762V4.18907L7.3149 4.1912Z" fill="black"/>
<path d="M21.1031 4.59805C21.0903 4.6087 21.0775 4.62148 21.0626 4.63639H19.7353C19.7353 4.63639 19.7119 4.61509 19.6948 4.59805V0.967784C19.6948 0.967784 19.6842 0.955002 19.6799 0.955002C19.6757 0.955002 19.6714 0.955002 19.6672 0.955002C18.7276 0.955002 17.7902 0.955002 16.8507 0.955002H16.823C16.823 0.955002 16.8145 0.955002 16.8102 0.955002C16.806 0.955002 16.8038 0.94861 16.7975 0.94435V0.0176102C16.7975 0.0176102 16.806 0.00695801 16.8102 0.00695801C19.1942 0.00695801 21.576 0.00695801 23.96 0.00695801C23.9728 0.0197406 23.9834 0.0325232 23.9983 0.0474363V0.914523C23.9983 0.914523 23.977 0.937958 23.96 0.955002H21.1158C21.1158 0.955002 21.1031 0.965654 21.1009 0.969915C21.1009 0.978437 21.1009 0.986958 21.1009 0.99761V4.60018L21.1031 4.59805Z" fill="black"/>
<path d="M6.04095 6.76259C6.06013 6.74342 6.06865 6.7349 6.0793 6.72424H7.81987C7.81987 6.72424 7.83478 6.73916 7.8433 6.74768H7.94983C7.94983 6.74768 7.969 6.76685 7.97965 6.77537H8.03291C8.03291 6.77537 8.05209 6.79455 8.06274 6.80307H8.10535C8.13091 6.81585 8.15648 6.82863 8.18204 6.84355C8.20335 6.85633 8.21613 6.87977 8.24596 6.88829C8.27152 6.89468 8.29496 6.92663 8.31413 6.95007C8.33543 6.9735 8.36952 6.96924 8.39083 6.99694C8.41213 7.02037 8.42065 7.04807 8.4377 7.07363C8.45687 7.0992 8.49096 7.11411 8.50161 7.14181C8.52078 7.18868 8.55487 7.22703 8.56339 7.27816C8.56552 7.29307 8.59322 7.29946 8.58896 7.32077C8.58043 7.36763 8.63369 7.39746 8.61665 7.4422C8.62517 7.45072 8.63156 7.45711 8.64222 7.46777V7.71063C8.65287 7.72129 8.65926 7.72768 8.66778 7.7362V8.39237C8.66778 8.39237 8.65287 8.40729 8.64435 8.41581V8.63098C8.64435 8.63098 8.62517 8.65229 8.61665 8.66294V8.74177C8.61665 8.74177 8.59748 8.76094 8.58896 8.77159V8.81846C8.56978 8.85255 8.54209 8.88024 8.53782 8.9122C8.53143 8.94842 8.49096 8.95907 8.48669 8.98464C8.4803 9.02511 8.45048 9.04216 8.42704 9.06772C8.40361 9.09542 8.37591 9.11885 8.35035 9.14442C8.32904 9.16572 8.30987 9.19981 8.28217 9.20833C8.24595 9.22111 8.22465 9.24455 8.19909 9.26798C8.16287 9.2552 8.15222 9.31059 8.116 9.29568C8.09682 9.32977 8.05209 9.32124 8.02865 9.35107H7.95196C7.95196 9.35107 7.93704 9.36598 7.92852 9.37451H6.05587C6.05587 9.37451 6.04522 9.36598 6.04522 9.36172C6.04522 9.3532 6.04522 9.34468 6.04522 9.33403V6.76259H6.04095ZM8.07339 8.49677C8.07339 8.1985 8.07339 7.90024 8.07339 7.60411C8.06487 7.59346 8.05422 7.58494 8.04569 7.57429V7.49546C8.03504 7.48481 8.02652 7.47416 8.018 7.4635V7.40811C7.97113 7.38468 7.97113 7.32503 7.93065 7.29733C7.8923 7.26963 7.85396 7.24194 7.80922 7.20998H7.76448C7.76448 7.20998 7.7453 7.19081 7.73465 7.18229H6.68009C6.68009 7.18229 6.66091 7.18229 6.65239 7.18229C6.64813 7.18229 6.646 7.18868 6.64174 7.19081C6.64174 7.19933 6.63748 7.20785 6.63748 7.21637C6.63748 7.77029 6.63748 8.32633 6.63748 8.88024C6.63748 8.89303 6.64387 8.90368 6.646 8.91433H7.78578C7.80496 8.88024 7.84969 8.88877 7.871 8.85894C7.8923 8.82911 7.92 8.80568 7.94769 8.78224C7.97539 8.75881 7.98604 8.72685 8.00522 8.69916C8.02652 8.66933 7.99883 8.62459 8.04569 8.60542V8.5202C8.05635 8.50955 8.06274 8.50316 8.06913 8.49677H8.07339Z" fill="black"/>
<path d="M15.1868 8.9719H16.5674C16.5801 8.98468 16.5929 8.99747 16.6078 9.01238C16.6078 9.12955 16.6078 9.24673 16.6078 9.3639C16.6078 9.36816 16.6015 9.37029 16.5972 9.37668H15.0058C14.9504 9.34899 14.8928 9.32129 14.8204 9.28295C14.8055 9.26803 14.7778 9.24034 14.748 9.21051C14.7096 9.17216 14.6606 9.14021 14.6351 9.09334C14.6052 9.03582 14.5754 8.97403 14.5477 8.91225C14.5435 8.9016 14.5349 8.89095 14.5221 8.86751V8.76738L14.4966 8.74181V8.11334C14.4966 8.11334 14.5115 8.09842 14.52 8.0899V8.01108C14.52 8.01108 14.5392 7.9919 14.5477 7.98125C14.552 7.95781 14.5477 7.93225 14.5648 7.90668C14.5818 7.88112 14.5946 7.84703 14.6074 7.81721C14.6201 7.78738 14.6585 7.77034 14.6628 7.73199C14.7096 7.68299 14.7586 7.63612 14.7863 7.60629C14.8609 7.56794 14.9141 7.54238 14.9759 7.51042H15.042C15.0526 7.5019 15.0633 7.49338 15.0739 7.48273H16.1285C16.1285 7.48273 16.1455 7.49764 16.1562 7.50829H16.235C16.2734 7.54664 16.3266 7.55303 16.3671 7.58286C16.3863 7.59777 16.4118 7.60416 16.431 7.62334C16.4864 7.68086 16.5461 7.73838 16.5951 7.80016C16.6057 7.81721 16.6185 7.83425 16.627 7.85342C16.6377 7.87686 16.6505 7.90029 16.6526 7.92373C16.6568 7.94716 16.6547 7.96847 16.6803 7.97912V8.11547C16.6803 8.11547 16.6995 8.13677 16.708 8.14742V8.47125C16.708 8.47125 16.6909 8.49042 16.6803 8.50108V8.55008C16.6462 8.58629 16.6164 8.61825 16.5865 8.65021H16.5311C16.5311 8.65021 16.5184 8.66299 16.5056 8.67577H15.042C15.0185 8.70347 15.0313 8.73116 15.0292 8.75673C15.0292 8.78016 15.0292 8.80147 15.0292 8.8249C15.0611 8.85047 15.0611 8.89308 15.0931 8.92077C15.1208 8.94421 15.1613 8.94208 15.1805 8.97616L15.1868 8.9719ZM16.0774 7.91521H15.157C15.14 7.94503 15.1038 7.94077 15.0803 7.95994C15.0548 7.98125 15.0675 8.02173 15.0335 8.03664C15.0335 8.09842 15.0335 8.16234 15.0335 8.22625C15.0335 8.23051 15.0398 8.23264 15.0441 8.23903H16.1328C16.1455 8.22625 16.1583 8.21347 16.1711 8.20068V8.01108C16.1391 7.97912 16.1072 7.94716 16.0774 7.91521Z" fill="black"/>
<path d="M41.7151 8.68642V8.81212C41.7407 8.86751 41.7662 8.91438 41.7918 8.93142C41.828 8.94634 41.8429 8.95486 41.8344 8.9506C41.86 8.96764 41.8621 8.9719 41.8663 8.9719C41.8706 8.9719 41.8749 8.9719 41.8791 8.9719H43.2447C43.2597 8.98681 43.2724 8.9996 43.2852 9.01238C43.2852 9.13168 43.2852 9.25312 43.2852 9.37455H41.681C41.6277 9.34686 41.5723 9.31916 41.5042 9.28508C41.4488 9.22968 41.3806 9.16151 41.3124 9.09334C41.3188 9.06351 41.2741 9.0486 41.2805 9.01451C41.2592 8.99747 41.2613 8.96338 41.2443 8.9506C41.2123 8.92716 41.2443 8.88668 41.2166 8.86751C41.1889 8.84621 41.2059 8.81851 41.1974 8.79295C41.191 8.78655 41.1846 8.78016 41.1761 8.77164V8.11973C41.1761 8.11973 41.1867 8.10481 41.1974 8.09203C41.2102 8.06221 41.1803 8.01321 41.2251 7.98551C41.2144 7.9429 41.2528 7.91521 41.2549 7.87686C41.2869 7.85342 41.2805 7.80016 41.321 7.78312C41.3401 7.7256 41.387 7.69151 41.4253 7.65103C41.4339 7.64038 41.4445 7.62334 41.4552 7.62334C41.4957 7.62121 41.5127 7.58712 41.5404 7.56368C41.5723 7.57434 41.583 7.53599 41.6107 7.53386C41.6256 7.53386 41.6384 7.51681 41.6533 7.50829C41.6767 7.50829 41.698 7.50829 41.7257 7.50829C41.7321 7.5019 41.7428 7.49551 41.7577 7.48273H42.8123C42.8123 7.48273 42.8272 7.49338 42.8421 7.50616C42.9188 7.49551 42.9806 7.54664 43.0487 7.5786C43.0594 7.58499 43.0722 7.58712 43.0892 7.59351C43.151 7.65529 43.2192 7.72347 43.2852 7.78951C43.2703 7.82573 43.33 7.83638 43.315 7.8726C43.347 7.89177 43.3427 7.92586 43.3427 7.95355C43.3513 7.96421 43.3598 7.97486 43.3683 7.98125V8.55008C43.3385 8.5799 43.3087 8.60973 43.281 8.63742C43.2554 8.65447 43.2149 8.6289 43.1979 8.66938C42.7079 8.66938 42.2179 8.67364 41.7279 8.67577C41.7236 8.67577 41.7215 8.68216 41.7193 8.68429L41.7151 8.68642ZM42.759 7.91521H41.8365C41.8237 7.93225 41.8046 7.93864 41.7833 7.94716C41.7662 7.95142 41.747 7.9706 41.7428 7.99616C41.7385 8.01534 41.7257 8.03238 41.7172 8.04942V8.09203C41.7172 8.09203 41.698 8.11121 41.6895 8.12186C41.6917 8.16234 41.6853 8.20068 41.6959 8.23903H42.8101C42.8314 8.22199 42.8442 8.21134 42.8549 8.20281V8.00894C42.825 7.97912 42.7973 7.95142 42.7611 7.91521H42.759Z" fill="black"/>
<path d="M31.8298 8.29437H30.4067C30.4067 8.29437 30.396 8.30503 30.3939 8.30929C30.3939 8.31355 30.3939 8.31781 30.3939 8.32207V9.36385C30.3769 9.38729 30.3534 9.37664 30.3321 9.37664C30.1659 9.37664 29.9998 9.37664 29.8379 9.37664C29.8315 9.36811 29.8251 9.36598 29.8251 9.36172C29.8251 8.48611 29.8251 7.61264 29.8251 6.73703C29.8251 6.73277 29.8315 6.73063 29.8357 6.72424H31.8724C31.8852 6.83716 31.8873 7.04594 31.8724 7.18229H30.4024C30.3896 7.30159 30.3875 7.69998 30.4024 7.83207H31.8149C31.8149 7.83207 31.8277 7.84272 31.8277 7.84698C31.8277 7.85551 31.8277 7.86403 31.8277 7.87468V8.29437H31.8298Z" fill="black"/>
<path d="M18.732 6.72205C18.7511 6.75613 18.7937 6.74761 18.8172 6.77744C18.8406 6.80939 18.8726 6.83496 18.9024 6.86479C18.928 6.89035 18.9642 6.91166 18.977 6.94148C19.0153 7.0267 19.0941 7.07357 19.1516 7.13961C19.1815 7.1737 19.2113 7.20779 19.2475 7.23335C19.2816 7.25892 19.2837 7.30152 19.3136 7.32922C19.3476 7.35905 19.3775 7.39313 19.4094 7.42509C19.4371 7.45279 19.467 7.48261 19.4946 7.51031C19.5266 7.54226 19.5607 7.57209 19.5905 7.60618C19.6203 7.63813 19.631 7.68287 19.6672 7.71057C19.7013 7.73826 19.729 7.77448 19.7546 7.80218H19.8717C19.9399 7.734 20.006 7.66583 20.0741 7.59979C20.1018 7.57209 20.104 7.52948 20.1402 7.50392C20.1721 7.48048 20.1977 7.44852 20.2275 7.4187C20.2552 7.391 20.285 7.36118 20.3127 7.33348C20.3426 7.30579 20.3703 7.27596 20.398 7.24826C20.398 7.23761 20.3937 7.22696 20.398 7.22057C20.4086 7.20565 20.4235 7.195 20.4363 7.18222C20.464 7.15452 20.4938 7.1247 20.5215 7.097C20.5535 7.06505 20.5854 7.03522 20.6174 7.00113C20.6451 6.97131 20.6813 6.95213 20.6941 6.91165C20.7069 6.87118 20.7452 6.852 20.7708 6.82218C20.7878 6.80087 20.807 6.7817 20.8283 6.76465C20.8475 6.74974 20.873 6.74122 20.905 6.72418H21.5271C21.5271 6.72418 21.5463 6.74761 21.559 6.76252C21.5313 6.79022 21.51 6.82005 21.4802 6.83922C21.4483 6.86052 21.4568 6.90313 21.4248 6.92657C21.3993 6.94361 21.3801 6.97131 21.3566 6.99261C21.3311 7.01818 21.3055 7.04374 21.28 7.06931C21.2544 7.09487 21.231 7.12257 21.2033 7.146C21.1734 7.17157 21.1734 7.21631 21.1372 7.24187C21.101 7.26744 21.0733 7.30366 21.0413 7.33561C21.0136 7.36331 20.986 7.39739 20.954 7.42083C20.9114 7.45492 20.9029 7.51031 20.8603 7.54439C20.8176 7.57848 20.7836 7.61896 20.7452 7.65731C20.7069 7.69565 20.6643 7.73187 20.6323 7.77235C20.6089 7.80218 20.594 7.83839 20.5641 7.86609C20.53 7.89592 20.5002 7.93 20.4683 7.96196C20.4406 7.98966 20.4129 8.02374 20.3809 8.04718C20.3426 8.07487 20.3404 8.12387 20.3063 8.15157C20.268 8.18352 20.236 8.22187 20.1998 8.25596C20.1679 8.28792 20.1359 8.31987 20.0997 8.35609V9.36166C19.9846 9.37657 19.6693 9.37657 19.533 9.36166V8.35822C19.5032 8.32839 19.4733 8.29431 19.4393 8.26661C19.3966 8.23252 19.3881 8.17713 19.3455 8.14305C19.3029 8.10896 19.2688 8.06848 19.2305 8.03013C19.1921 7.99179 19.1516 7.95557 19.1176 7.91509C19.0941 7.88526 19.0813 7.84692 19.0494 7.82135C19.0196 7.79579 18.9919 7.76383 18.962 7.73613C18.9365 7.71057 18.9109 7.685 18.8853 7.65944C18.8576 7.63174 18.8278 7.60192 18.8001 7.57422C18.8001 7.5657 18.8001 7.55505 18.8001 7.54652C18.8001 7.54226 18.7937 7.54013 18.7916 7.53587C18.732 7.47622 18.6744 7.41018 18.6084 7.35479C18.5466 7.30152 18.5168 7.22696 18.4571 7.1737C18.3932 7.11618 18.3378 7.05013 18.2739 6.99474C18.2356 6.96279 18.2313 6.90952 18.1887 6.8797C18.1525 6.85413 18.1248 6.81792 18.0992 6.79022V6.7327C18.0992 6.7327 18.1077 6.72205 18.1099 6.72205C18.3165 6.72205 18.5253 6.72205 18.732 6.72205Z" fill="black"/>
<path d="M21.8999 9.29567C21.8466 9.24241 21.7934 9.18702 21.7401 9.13376C21.7017 9.09541 21.6826 9.0528 21.6698 8.99954C21.6613 8.96545 21.6442 8.92924 21.6165 8.89941V8.82059L21.591 8.79502V8.55215L21.5654 8.52658V8.33272L21.591 8.30715V8.08985L21.6165 8.06428V7.98545C21.6165 7.98545 21.6357 7.96628 21.6442 7.95563C21.6272 7.91302 21.6762 7.88532 21.6741 7.84698C21.706 7.8278 21.6996 7.78306 21.7316 7.76176C21.7657 7.74045 21.7635 7.69358 21.7976 7.66589C21.8296 7.64245 21.8551 7.61476 21.8935 7.59985C21.9276 7.58493 21.9681 7.57641 21.9936 7.55085C22.0234 7.52102 22.0703 7.55724 22.0874 7.51463C22.1257 7.5125 22.1662 7.50824 22.2045 7.50611C22.2109 7.49971 22.2173 7.49332 22.2258 7.4848H23.2825C23.2825 7.4848 23.2974 7.49758 23.3145 7.51037C23.3251 7.51037 23.3422 7.51037 23.3592 7.51037C23.3763 7.51037 23.3954 7.50824 23.4061 7.52528C23.4189 7.54445 23.4381 7.5338 23.4551 7.53806C23.4679 7.54019 23.4785 7.54871 23.4892 7.55511C23.5041 7.5615 23.5233 7.56363 23.5339 7.57428C23.5488 7.58706 23.5637 7.58919 23.5808 7.59345C23.5957 7.59771 23.6064 7.61902 23.6191 7.62967C23.6319 7.63819 23.6511 7.64032 23.6639 7.65098C23.6788 7.66163 23.6894 7.67654 23.7022 7.68932C23.7129 7.70211 23.7278 7.71063 23.7299 7.73193C23.7299 7.74258 23.7427 7.75324 23.7512 7.76389C23.7619 7.77667 23.7789 7.78945 23.7811 7.80437C23.7832 7.82567 23.8024 7.83206 23.8066 7.84911C23.813 7.86402 23.8066 7.88532 23.8066 7.90024C23.8173 7.91089 23.8258 7.92154 23.8343 7.93006V7.98332C23.8343 7.98332 23.8471 7.99611 23.8577 8.00676V8.11541L23.8854 8.14311V8.74602C23.8854 8.74602 23.8727 8.7588 23.8663 8.76519C23.8663 8.77372 23.862 8.78224 23.862 8.79076C23.862 8.81419 23.862 8.8355 23.862 8.85893C23.862 8.86746 23.862 8.87598 23.8577 8.8845C23.8535 8.89302 23.8407 8.89728 23.8407 8.90367C23.8364 8.92498 23.8386 8.94841 23.8301 8.96546C23.8215 8.98037 23.8151 8.99741 23.8087 9.01019C23.7896 9.04215 23.7747 9.07837 23.7576 9.11032C23.7576 9.11458 23.7576 9.12098 23.7576 9.12311C23.7491 9.13376 23.7384 9.14228 23.7299 9.15293C23.6958 9.18702 23.6639 9.22963 23.6234 9.25519C23.5787 9.28502 23.5318 9.31485 23.4764 9.3255C23.4594 9.32976 23.4551 9.35532 23.4338 9.35319C23.421 9.35319 23.4061 9.35319 23.3933 9.35319C23.3827 9.36172 23.3741 9.37237 23.3635 9.38089H23.2016L23.1781 9.40432H22.3047L22.2812 9.38089C22.2514 9.38089 22.2152 9.38089 22.1811 9.38089C22.1449 9.38089 22.1108 9.38089 22.0831 9.35319C22.049 9.36385 22.0256 9.33828 22 9.3255C21.9595 9.34467 21.9404 9.29141 21.8999 9.29993V9.29567ZM22.5241 8.99741C22.669 8.99741 22.8138 8.99741 22.9566 8.99741C22.9672 8.98889 22.9757 8.97824 22.9864 8.96972H23.1781C23.1867 8.94628 23.2101 8.94841 23.2314 8.93989C23.2506 8.93137 23.2634 8.91006 23.2804 8.89302C23.2953 8.87598 23.3209 8.86106 23.323 8.84402C23.3251 8.81845 23.3464 8.8078 23.355 8.78224V8.68637C23.3656 8.67145 23.3741 8.66293 23.3763 8.65867V8.20063C23.3656 8.18572 23.3571 8.17506 23.3507 8.16867V8.1005C23.3358 8.0728 23.323 8.04511 23.306 8.02167C23.2932 8.00463 23.2996 7.98119 23.2804 7.96415C23.2612 7.94924 23.2399 7.94924 23.2229 7.93645C23.2165 7.93219 23.2101 7.92367 23.2037 7.91728C23.1654 7.91302 23.1249 7.91941 23.0908 7.91515C23.0801 7.90237 23.0737 7.89598 23.0674 7.88958C22.8415 7.88958 22.6157 7.88958 22.3899 7.88958C22.3792 7.89811 22.3707 7.90663 22.3601 7.91728H22.2791C22.2535 7.94924 22.2045 7.94498 22.1854 7.98545V8.01954C22.1683 8.03232 22.1491 8.04937 22.13 8.06428V8.14737C22.1193 8.16015 22.1108 8.1708 22.1065 8.17719V8.72045C22.1534 8.74176 22.1108 8.80354 22.1555 8.82272C22.1555 8.86532 22.1939 8.87811 22.2109 8.90793C22.2344 8.94628 22.2812 8.94202 22.3068 8.97611C22.3686 8.97611 22.4325 8.97611 22.4943 8.97611C22.4985 8.97611 22.5007 8.98037 22.5092 8.98676C22.5113 8.98889 22.5177 8.99528 22.5241 9.00167V8.99741Z" fill="black"/>
<path d="M26.3312 8.71192C26.3312 8.71192 26.3184 8.7247 26.3078 8.73749C26.295 8.76944 26.312 8.80992 26.3014 8.85253C26.2971 8.85679 26.2907 8.86318 26.2843 8.86957C26.2715 8.89514 26.2801 8.92283 26.2779 8.94627C26.2481 9.00379 26.2204 9.05918 26.1863 9.1231C26.1437 9.1657 26.0926 9.21683 26.0414 9.26797C26.0372 9.26797 26.0244 9.26583 26.0201 9.26797C25.9924 9.29779 25.9541 9.3127 25.92 9.31697C25.8817 9.32123 25.854 9.36384 25.8092 9.34892C25.8028 9.34679 25.7901 9.36383 25.7773 9.37449H25.6452C25.6452 9.37449 25.626 9.39366 25.6154 9.40218H24.9656C24.9656 9.40218 24.9549 9.3894 24.9421 9.37662C24.8995 9.37236 24.8505 9.37662 24.8037 9.37449C24.7973 9.3681 24.7909 9.3617 24.7845 9.35531C24.7589 9.3404 24.7312 9.35531 24.7078 9.34892C24.6524 9.32123 24.597 9.2914 24.5416 9.2637C24.5416 9.26583 24.5374 9.2701 24.5352 9.27223C24.4969 9.23388 24.4607 9.1934 24.4223 9.15505C24.3605 9.09327 24.3328 9.03788 24.3051 8.93349C24.303 8.92283 24.2881 8.91218 24.2796 8.90153V8.8227C24.2796 8.8227 24.2604 8.80353 24.2519 8.79288C24.2519 8.73323 24.2519 8.6757 24.2519 8.61605V8.60327C24.2519 8.60327 24.2391 8.59049 24.2327 8.5841C24.2306 8.57557 24.2263 8.56918 24.2263 8.56066C24.2263 8.2134 24.2263 7.86614 24.2263 7.52101L24.2668 7.48053H24.7312C24.7398 7.49118 24.7525 7.50609 24.7696 7.52527V7.85123C24.7696 8.11753 24.7696 8.38383 24.7696 8.65014C24.7696 8.70553 24.8058 8.74601 24.8058 8.79927C24.8335 8.81631 24.8271 8.85466 24.8527 8.87596C24.8868 8.90366 24.923 8.92497 24.9613 8.94201C24.9762 8.9484 24.9911 8.95905 25.0103 8.9697C25.0444 8.9697 25.0849 8.9697 25.1275 8.9697C25.1318 8.9697 25.136 8.9697 25.1403 8.9697C25.1467 8.9761 25.1531 8.98249 25.1594 8.98888C25.168 8.99101 25.1765 8.99527 25.1829 8.99527C25.2596 8.99527 25.3363 8.99527 25.4087 8.99527L25.4321 8.97183H25.5578C25.577 8.96118 25.5919 8.94201 25.6047 8.94414C25.6494 8.95053 25.6771 8.91857 25.7112 8.90579C25.7453 8.89514 25.7432 8.84827 25.7688 8.8227C25.7815 8.80992 25.7858 8.78436 25.7986 8.7524V8.6331C25.7986 8.6331 25.8178 8.61392 25.8263 8.60327C25.8263 8.23044 25.8263 7.85762 25.8263 7.48266H26.3291C26.3291 7.48266 26.3397 7.49118 26.3418 7.49331C26.3418 7.50183 26.3418 7.51036 26.3418 7.52101C26.3418 7.91727 26.3418 8.31566 26.3418 8.71192H26.3312Z" fill="black"/>
<path d="M34.3203 8.74181C34.3203 8.74181 34.3075 8.75247 34.2968 8.76099C34.2841 8.79721 34.299 8.83768 34.2883 8.87816C34.2841 8.88242 34.2777 8.88881 34.2692 8.89734C34.2692 8.97829 34.201 9.03795 34.1839 9.11251C34.1349 9.16151 34.0859 9.21051 34.0369 9.25951C33.9858 9.28508 33.9304 9.31277 33.8644 9.34686H33.7962C33.7962 9.34686 33.7749 9.3639 33.7642 9.37455H33.6322C33.6322 9.37455 33.613 9.39373 33.6023 9.40225H32.9525C32.9525 9.40225 32.9398 9.38947 32.9312 9.37882H32.7949C32.7842 9.36816 32.7778 9.36177 32.7672 9.35112H32.7012C32.6372 9.31916 32.5818 9.28934 32.5265 9.26164C32.5265 9.26377 32.5222 9.26803 32.5201 9.27016C32.4817 9.23181 32.4476 9.18921 32.4072 9.15512C32.3709 9.12316 32.3667 9.06777 32.3177 9.04221C32.3177 9.02516 32.3198 9.00599 32.3177 8.99108C32.3155 8.98042 32.2985 8.9719 32.2942 8.95912C32.29 8.94208 32.2942 8.9229 32.29 8.90586C32.2857 8.89521 32.2751 8.88455 32.2644 8.8739V8.82277C32.2644 8.82277 32.2452 8.8036 32.2367 8.79295V8.57777C32.2367 8.57777 32.2239 8.56499 32.2175 8.5586C32.2154 8.55008 32.2112 8.54368 32.2112 8.53516C32.2112 8.19642 32.2112 7.85981 32.2112 7.52321C32.2261 7.50829 32.2388 7.49551 32.2516 7.48273H32.7139C32.7225 7.49338 32.7352 7.50829 32.7523 7.5296V8.68855C32.7629 8.69921 32.7693 8.7056 32.7778 8.71412V8.78868C32.7864 8.81212 32.8183 8.82064 32.8055 8.84621C32.8482 8.91651 32.9248 8.93142 32.9866 8.97403H33.1187C33.1187 8.97403 33.1315 8.98681 33.1379 8.99321C33.1464 8.99534 33.1549 8.9996 33.1613 8.9996C33.238 8.9996 33.3147 8.9996 33.3872 8.9996C33.3957 8.99108 33.4021 8.98468 33.4106 8.97616H33.5363C33.5555 8.96551 33.5704 8.94634 33.5832 8.94847C33.6258 8.95486 33.6556 8.9229 33.6897 8.91012C33.7238 8.89947 33.7216 8.8526 33.7472 8.82703C33.76 8.81425 33.7642 8.78868 33.777 8.75673V8.69281C33.777 8.69281 33.7962 8.67364 33.8047 8.66299C33.8047 8.27525 33.8047 7.88751 33.8047 7.49977C33.8047 7.49551 33.8111 7.49338 33.8154 7.48699H34.3054C34.3054 7.48699 34.3182 7.49551 34.3182 7.49764C34.3182 7.50616 34.3182 7.51468 34.3182 7.52534V8.74395L34.3203 8.74181Z" fill="black"/>
<path d="M38.8454 8.76519C38.8454 8.76519 38.8284 8.78437 38.8177 8.79502V8.87598C38.8177 8.87598 38.8049 8.88876 38.7964 8.89728C38.7964 8.9335 38.7687 8.96758 38.7666 9.0038C38.7645 9.04215 38.7282 9.06132 38.7304 9.09328C38.6707 9.15293 38.6132 9.21045 38.5663 9.25732C38.5024 9.28928 38.4491 9.31698 38.3874 9.34893H38.3192C38.3192 9.34893 38.2979 9.36598 38.2872 9.37663H38.1551C38.1551 9.37663 38.136 9.3958 38.1253 9.40432H37.4755C37.4755 9.40432 37.4628 9.39154 37.45 9.38089C37.4095 9.37237 37.3605 9.38089 37.3115 9.37663C37.3051 9.37024 37.2987 9.36385 37.2923 9.35745C37.2689 9.34254 37.2412 9.35746 37.2284 9.35319C37.2092 9.34893 37.205 9.35106 37.2007 9.34893C37.1496 9.31911 37.0942 9.2978 37.0452 9.26798C36.9898 9.23389 36.9472 9.1785 36.9003 9.13376C36.8875 9.10393 36.879 9.07624 36.8641 9.05067C36.8471 9.02085 36.8364 8.99102 36.8151 8.96119C36.8002 8.93989 36.8194 8.89941 36.7831 8.88024V8.79928C36.7831 8.79928 36.764 8.78011 36.7554 8.76945V8.52658C36.7554 8.52658 36.7427 8.5138 36.7363 8.50954C36.732 8.50102 36.7278 8.4925 36.7278 8.48398C36.7278 8.16441 36.7278 7.84485 36.7278 7.52528C36.7405 7.5125 36.7533 7.49972 36.7682 7.4848H37.2284C37.2391 7.49545 37.2518 7.50824 37.2668 7.52102V8.68211C37.2753 8.69276 37.2838 8.70341 37.2944 8.71619V8.79502C37.3307 8.81845 37.3434 8.86319 37.3711 8.89515C37.3882 8.91645 37.418 8.93137 37.4457 8.94202C37.4606 8.94841 37.4798 8.94415 37.5011 8.94628C37.5096 8.9548 37.5203 8.96332 37.5288 8.97185H37.6651C37.6651 8.97185 37.6779 8.98463 37.6822 8.99102C37.6907 8.99528 37.6992 8.99954 37.7078 8.99954C37.7845 8.99954 37.8611 8.99954 37.9357 8.99954C37.9421 8.99315 37.9485 8.98676 37.9549 8.98037C37.9634 8.97824 37.9719 8.97398 37.9783 8.97398C38.0145 8.97398 38.0508 8.97398 38.0912 8.97398C38.0976 8.96758 38.1061 8.95693 38.1189 8.95267C38.1488 8.93776 38.1828 8.92924 38.2105 8.91219C38.2468 8.89089 38.2553 8.84828 38.2702 8.81632C38.2851 8.7865 38.3149 8.76093 38.3 8.72045C38.2979 8.71406 38.3149 8.70128 38.3256 8.6885V7.52741C38.3384 7.51463 38.349 7.50185 38.3639 7.48693H38.8305C38.8305 7.48693 38.8411 7.49545 38.8411 7.49758C38.8411 7.50611 38.8411 7.51463 38.8411 7.52528C38.8411 7.94072 38.8411 8.35402 38.8411 8.76945L38.8454 8.76519Z" fill="black"/>
<path d="M35.5389 8.78431C35.5538 8.81414 35.5624 8.8397 35.5773 8.85888C35.5964 8.88231 35.5922 8.92066 35.6241 8.93344C35.6476 8.94409 35.6731 8.94835 35.6902 8.96966H36.3378C36.3506 8.98244 36.3634 8.99522 36.3783 9.01014C36.3783 9.12944 36.3783 9.25088 36.3783 9.37231H35.5283C35.507 9.3574 35.4793 9.35101 35.4494 9.34462C35.4175 9.33822 35.3941 9.30201 35.3621 9.29775C35.3259 9.29135 35.3131 9.2594 35.2875 9.24875C35.2534 9.23596 35.2279 9.21466 35.2044 9.18909C35.1831 9.16566 35.1597 9.14436 35.1469 9.13157C35.1128 9.06553 35.083 9.00801 35.051 8.94622V8.90148C35.051 8.90148 35.0319 8.88231 35.0234 8.87166V7.92575C35.0234 7.92575 35.017 7.91935 35.0127 7.91722C35.0084 7.91509 35.0042 7.91296 34.9999 7.91296C34.8955 7.91296 34.7933 7.91296 34.6846 7.91296C34.674 7.90231 34.6612 7.89166 34.6441 7.87675V7.5167C34.6441 7.5167 34.6633 7.49753 34.6718 7.48901C34.6804 7.48688 34.6867 7.48048 34.6953 7.48048C34.7997 7.48048 34.9019 7.48048 35.0063 7.48048C35.0276 7.46344 35.0191 7.44001 35.0191 7.4187C35.0191 7.28022 35.0191 7.13962 35.0191 7.0054C35.0276 6.99901 35.0319 6.99261 35.034 6.99261C35.1959 6.99261 35.3578 6.99261 35.5197 6.99261C35.524 6.99688 35.5283 6.99901 35.5304 7.00327C35.5304 7.00753 35.5347 7.01179 35.5347 7.01605C35.5347 7.16518 35.5347 7.31431 35.5347 7.46131C35.5347 7.46557 35.5389 7.4677 35.541 7.47196C35.5453 7.47409 35.5474 7.47835 35.5517 7.47835C35.556 7.47835 35.5602 7.47835 35.5645 7.47835H36.3868C36.4017 7.49327 36.4145 7.50605 36.4273 7.51883V7.87462C36.4167 7.88314 36.4017 7.89592 36.3804 7.91296H35.5453C35.5453 7.91296 35.5325 7.92362 35.5325 7.92788C35.5325 8.21548 35.5325 8.50522 35.5325 8.78218L35.5389 8.78431Z" fill="black"/>
<path d="M12.9883 8.86318C13.0458 8.80566 13.0436 8.80353 13.0863 8.69062C13.0948 8.66718 13.1054 8.64162 13.1203 8.62457C13.1395 8.60114 13.1353 8.56492 13.1651 8.54788C13.1544 8.51379 13.2013 8.50101 13.1949 8.46479C13.1906 8.43923 13.212 8.4094 13.2247 8.38383C13.2375 8.35827 13.2567 8.3327 13.2716 8.30927C13.2567 8.26666 13.3036 8.23896 13.2993 8.19849C13.3291 8.17292 13.3355 8.13244 13.3526 8.09836C13.3632 8.07705 13.3824 8.06001 13.3824 8.02805C13.3824 8.00462 13.3952 7.97905 13.408 7.95988C13.4229 7.93857 13.4271 7.90875 13.4442 7.89383C13.4655 7.87466 13.4527 7.84057 13.4804 7.82779C13.491 7.75536 13.5336 7.6957 13.5635 7.63179C13.5784 7.59983 13.5635 7.5551 13.5954 7.51888C13.6061 7.51462 13.6189 7.51249 13.6295 7.50823C13.6402 7.50183 13.6508 7.49331 13.6636 7.48479H14.1557C14.16 7.49544 14.1664 7.50609 14.1643 7.51249C14.1472 7.54657 14.128 7.57853 14.111 7.61262C14.1302 7.65309 14.0812 7.6744 14.0833 7.71062C14.0556 7.72766 14.0599 7.76388 14.0386 7.78731C14.0151 7.81075 14.045 7.85975 14.0023 7.87892C14.0087 7.91301 13.9725 7.92792 13.9683 7.95988C13.9661 7.98544 13.9363 8.00888 13.9235 8.03444C13.9129 8.05788 13.9278 8.08557 13.9043 8.10901C13.8852 8.12818 13.8745 8.16014 13.866 8.18783C13.8596 8.2134 13.8255 8.22618 13.8362 8.25601C13.8085 8.27305 13.817 8.30288 13.8106 8.32631C13.8042 8.35401 13.785 8.37957 13.7701 8.40301C13.7552 8.42431 13.7595 8.45627 13.7318 8.46905C13.7488 8.51379 13.7083 8.54149 13.6998 8.5777C13.6934 8.60966 13.6657 8.63523 13.6487 8.66505C13.638 8.68636 13.6189 8.71405 13.6231 8.73536C13.6316 8.7737 13.5826 8.78436 13.5933 8.81844C13.5699 8.83336 13.5741 8.86744 13.555 8.88236C13.5336 8.90153 13.5464 8.93562 13.5187 8.9484C13.5145 9.03149 13.4506 9.09114 13.4271 9.17423C13.3739 9.22749 13.3142 9.28288 13.2524 9.34466C13.261 9.34253 13.1779 9.37023 13.1715 9.37236H12.8008C12.7624 9.35318 12.7241 9.33401 12.6708 9.30418C12.6474 9.28075 12.609 9.2424 12.5707 9.20192C12.5494 9.13588 12.5046 9.07836 12.4812 9.01018C12.4727 8.98888 12.4642 8.96118 12.4471 8.94414C12.4216 8.9207 12.4386 8.89301 12.428 8.86957C12.4152 8.83975 12.3917 8.81205 12.3768 8.78223C12.3598 8.74814 12.3555 8.70766 12.3236 8.6821C12.33 8.64588 12.3108 8.61605 12.2937 8.58623C12.2703 8.54149 12.2533 8.49249 12.2256 8.45201C12.2064 8.42644 12.2256 8.39449 12.2064 8.37957C12.183 8.3604 12.1893 8.33057 12.1702 8.3114C12.151 8.29436 12.1595 8.26027 12.1318 8.24749C12.1489 8.20275 12.1084 8.17505 12.0999 8.13883C12.0935 8.10688 12.0658 8.08131 12.0487 8.05149C12.0381 8.03018 12.0189 8.00249 12.0232 7.98118C12.0317 7.94283 11.9827 7.93218 11.9933 7.89809C11.9699 7.88318 11.9742 7.8491 11.955 7.83418C11.9337 7.81501 11.9465 7.78092 11.9188 7.76814C11.9188 7.70636 11.8719 7.66162 11.857 7.60409C11.8549 7.59344 11.8421 7.58279 11.8314 7.57214C11.8314 7.54444 11.8229 7.51249 11.84 7.48053H12.3363C12.3491 7.4997 12.3662 7.51036 12.3747 7.53379C12.3981 7.59557 12.4343 7.6531 12.462 7.71275C12.4727 7.73405 12.477 7.75109 12.4812 7.7724C12.4855 7.79157 12.4983 7.81075 12.5068 7.82992C12.5238 7.86827 12.5515 7.90449 12.5579 7.94283C12.5643 7.98331 12.5899 8.01101 12.6048 8.04723C12.6197 8.08557 12.6367 8.12605 12.6623 8.15801C12.6815 8.18357 12.658 8.21766 12.6879 8.24323C12.7113 8.2624 12.7134 8.30288 12.7283 8.3327C12.7411 8.35827 12.7603 8.38383 12.7752 8.40727C12.7624 8.44988 12.7944 8.48183 12.8072 8.51592C12.8221 8.55001 12.837 8.58623 12.8583 8.61605C12.8796 8.64588 12.8775 8.6821 12.8924 8.70979C12.9073 8.73962 12.9265 8.76944 12.9371 8.79927C12.9456 8.8227 12.9648 8.83336 12.9776 8.85679L12.9883 8.86318Z" fill="black"/>
<path d="M39.6998 9.37449H39.1799C39.1799 9.37449 39.1693 9.36597 39.1693 9.3617C39.1693 9.35318 39.1693 9.34466 39.1693 9.33401C39.1693 8.90153 39.1693 8.46905 39.1693 8.03657C39.1757 8.03018 39.1821 8.02379 39.1885 8.0174C39.1906 8.00888 39.197 8.00249 39.197 7.99396C39.197 7.96201 39.197 7.93005 39.197 7.90875C39.2289 7.84909 39.2545 7.79583 39.2928 7.72127C39.2971 7.71701 39.3227 7.69783 39.3397 7.67227C39.3589 7.64457 39.3972 7.64883 39.4143 7.6254C39.4335 7.59983 39.4697 7.59557 39.4888 7.5764C39.5144 7.5487 39.5549 7.5764 39.5719 7.5487C39.5932 7.51675 39.6337 7.5487 39.655 7.52101C39.6785 7.49118 39.7147 7.50823 39.7424 7.50609C39.7722 7.50396 39.8042 7.50609 39.8318 7.50609C39.8425 7.49544 39.8489 7.48905 39.8574 7.48053H40.8076C40.8076 7.48053 40.8289 7.4997 40.8395 7.51036C40.8438 7.51675 40.8481 7.51888 40.8481 7.52314C40.8481 7.53166 40.8481 7.54018 40.8481 7.55083V7.87253C40.8332 7.88744 40.8204 7.90023 40.8076 7.91301H39.8872C39.8872 7.91301 39.8681 7.93005 39.8574 7.9407H39.8063C39.7722 7.97479 39.7424 8.00462 39.7083 8.0387C39.7083 8.4797 39.7083 8.9207 39.7083 9.3617C39.7083 9.36597 39.7019 9.3681 39.6976 9.37449H39.6998Z" fill="black"/>
<path d="M27.1301 7.53593C27.1301 7.53593 27.1429 7.52315 27.1535 7.5125H27.3154C27.3261 7.50185 27.3325 7.49545 27.3431 7.4848H28.2976C28.3082 7.49545 28.321 7.50824 28.3338 7.52102V7.87467C28.3231 7.88532 28.3082 7.89598 28.2912 7.91089H27.3602C27.3303 7.91728 27.3218 7.94924 27.292 7.93858C27.2622 7.97054 27.2323 8.00463 27.1961 8.04298V8.11115C27.1961 8.11115 27.177 8.13032 27.1684 8.14311C27.1684 8.54576 27.1684 8.95267 27.1684 9.35745C27.1684 9.36172 27.1642 9.36385 27.1599 9.37237H26.6635C26.6635 9.37237 26.6571 9.36811 26.655 9.36385C26.655 9.35959 26.655 9.35532 26.655 9.35106C26.655 8.89302 26.655 8.43285 26.655 7.98119C26.6678 7.96841 26.6742 7.96202 26.6806 7.95563V7.8768C26.6806 7.8768 26.6955 7.86402 26.6976 7.8555C26.7104 7.82993 26.7232 7.80224 26.7338 7.77667C26.7338 7.77241 26.7338 7.76815 26.7338 7.76389C26.7786 7.71915 26.8233 7.67441 26.868 7.62967C26.9277 7.59985 26.9873 7.57002 27.0534 7.5338H27.1237L27.1301 7.53593Z" fill="black"/>
<path d="M8.99792 9.37662C8.99792 9.35318 8.99579 9.3404 8.99579 9.32762C8.99579 8.88023 8.99579 8.43497 8.99579 7.98757C8.99579 7.96627 8.99792 7.94283 9.00005 7.92153C9.04053 7.90023 9.00218 7.84057 9.04692 7.81927C9.05118 7.81927 9.04692 7.80223 9.04905 7.78092C9.07248 7.76175 9.10444 7.73618 9.12148 7.7234C9.13214 7.69357 9.1364 7.68079 9.14066 7.67014H9.17048C9.22801 7.60196 9.31748 7.58705 9.39205 7.53592H9.46661C9.46661 7.53592 9.48579 7.51675 9.49644 7.50823H9.63279C9.63279 7.50823 9.64557 7.49544 9.64983 7.48905C9.65835 7.48479 9.66688 7.48053 9.6754 7.48053C9.99496 7.48053 10.3167 7.48053 10.6362 7.48053C10.6533 7.56788 10.6554 7.71062 10.6426 7.90875C10.6085 7.92153 10.5723 7.91301 10.5382 7.91301C10.502 7.91301 10.4658 7.91301 10.4296 7.91301H9.68818C9.66048 7.94496 9.62001 7.95349 9.58592 7.96627C9.54331 7.98331 9.54757 8.03231 9.51348 8.06001V9.35957C9.51348 9.35957 9.50283 9.37236 9.49857 9.37449C9.49431 9.37449 9.49005 9.37449 9.48579 9.37449H9.00218L8.99792 9.37662Z" fill="black"/>
<path d="M11.4735 7.48053C11.4863 7.49331 11.4991 7.50609 11.5119 7.52101V9.33827C11.5012 9.34892 11.4906 9.35957 11.482 9.3681C11.4778 9.37023 11.4756 9.37449 11.4714 9.37662C11.4671 9.37662 11.4629 9.37662 11.4586 9.37662H10.9793C10.9665 9.33401 10.975 9.28927 10.9729 9.24666C10.9729 9.20192 10.9729 9.15718 10.9729 9.11244V7.52314C10.9856 7.51036 10.9942 7.50183 11.0048 7.49118C11.0133 7.48905 11.0197 7.48266 11.0283 7.48266C11.1774 7.48266 11.3265 7.48266 11.4756 7.48266L11.4735 7.48053Z" fill="black"/>
<path d="M0.258898 8.42857C0.241855 8.41153 0.233333 8.40301 0.220551 8.39022V8.27092C0.235464 8.27092 0.248246 8.26666 0.261029 8.26666C1.78003 8.25601 4.63907 8.26027 4.82016 8.27518V8.39022C4.80738 8.40514 4.7946 8.42005 4.78394 8.4307H0.258898V8.42857Z" fill="black"/>
<path d="M44.6167 8.41798V8.27738C44.6167 8.27738 44.6252 8.26672 44.6274 8.26672C44.6359 8.26672 44.6444 8.26672 44.655 8.26672C46.1613 8.26672 47.6696 8.26672 49.1758 8.26672C49.1801 8.26672 49.1822 8.27098 49.1886 8.27738V8.41798C49.1886 8.41798 49.1801 8.42651 49.178 8.42864C49.1737 8.42864 49.1694 8.42864 49.1652 8.42864C47.6526 8.42864 46.1421 8.42864 44.6295 8.42864C44.6252 8.42864 44.6231 8.42438 44.6167 8.41798Z" fill="black"/>
<path d="M10.9707 6.76252C10.9834 6.74974 10.9962 6.73696 11.0111 6.72205H11.4734C11.4734 6.72205 11.4969 6.74335 11.5118 6.75826V7.195C11.5118 7.195 11.4926 7.21631 11.482 7.22696C11.4756 7.23122 11.4734 7.23548 11.4692 7.23548C11.4607 7.23548 11.4521 7.23548 11.4415 7.23548H11.0111C10.9962 7.22057 10.9834 7.20779 10.9707 7.195C10.9707 7.05013 10.9707 6.90526 10.9707 6.76252Z" fill="black"/>
</svg>
