<svg width="77" height="15" viewBox="0 0 77 15" fill="none" xmlns="http://www.w3.org/2000/svg">
<path d="M15.3029 1.50091C15.2828 1.521 15.2627 1.54108 15.2426 1.56452V2.84339C15.2426 2.84339 15.2761 2.88021 15.3029 2.907H23.5184C23.562 2.94048 23.5117 3.01078 23.582 3.00408V4.33317C23.562 4.35326 23.5419 4.37335 23.5184 4.39678H15.3029C15.2861 4.41687 15.266 4.43695 15.2426 4.46374V5.73926C15.2426 5.73926 15.2761 5.77609 15.3029 5.80287H24.0742L24.1277 5.85643C24.1277 5.85643 24.1378 5.86648 24.1411 5.87317C24.1411 5.88656 24.1411 5.89996 24.1411 5.91669V7.23239L24.0775 7.296H13.6926C13.6926 7.296 13.6624 7.26922 13.649 7.25248H13.5787C13.5386 7.23239 13.5084 7.21565 13.4616 7.19222C13.4381 7.16878 13.398 7.12861 13.3578 7.08843C13.3444 7.08843 13.331 7.08843 13.3143 7.08509C13.2942 7.05161 13.2808 7.01143 13.2506 6.988C13.2071 6.95452 13.2071 6.9043 13.177 6.86748C13.1536 6.83735 13.1402 6.79717 13.1167 6.7503V6.68C13.1167 6.68 13.0866 6.64987 13.0732 6.63648V0.670649C13.09 0.65391 13.11 0.63717 13.1134 0.620431C13.1569 0.456388 13.2038 0.369344 13.3009 0.272257C13.3544 0.215344 13.4113 0.161779 13.4649 0.108214C13.4683 0.104866 13.475 0.101518 13.4549 0.114909C13.5185 0.0881266 13.552 0.0646919 13.5888 0.0579962C13.6256 0.0513005 13.6591 0.0546484 13.6792 0.0178223H24.0708C24.0708 0.0178223 24.1043 0.0479527 24.121 0.0646918C24.1277 0.0747353 24.1311 0.0780832 24.1344 0.0847788C24.1344 0.0981701 24.1344 0.111561 24.1344 0.128301V1.44065C24.111 1.46743 24.0909 1.48752 24.0708 1.50761H15.3029V1.50091Z" fill="#46194F"/>
<path d="M77 7.182V7.26569C77 7.26569 76.9766 7.28578 76.9632 7.28578C75.9488 7.28578 74.9344 7.28578 73.92 7.28578C73.8597 7.2523 73.833 7.17865 73.7593 7.15856C73.699 7.14182 73.6756 7.06482 73.6053 7.06482C73.5685 7.0146 73.5082 6.99117 73.458 6.95769C73.4078 6.92421 73.3542 6.89408 73.3107 6.85056C73.2705 6.81373 73.2103 6.81039 73.1768 6.76352C73.1433 6.71665 73.0964 6.69656 73.0462 6.66978C73.006 6.64969 72.9793 6.60952 72.929 6.59278C72.8822 6.57604 72.8487 6.52582 72.7951 6.50573C72.7516 6.489 72.7349 6.43543 72.6779 6.42874C72.6344 6.42204 72.621 6.35508 72.5641 6.34839C72.5106 6.34169 72.4972 6.25465 72.4302 6.26469C72.3934 6.23121 72.3566 6.19773 72.3231 6.16091C72.2963 6.12743 72.2427 6.14417 72.2193 6.10065C72.1992 6.06382 72.1557 6.05378 72.1189 6.03704C72.082 6.02365 72.072 5.96673 72.0218 5.96339C71.9783 5.96339 71.9682 5.91986 71.9414 5.90313C71.9113 5.88639 71.8778 5.87634 71.8544 5.85626C71.8176 5.82278 71.7841 5.796 71.7372 5.77926C71.6937 5.76252 71.6803 5.69891 71.62 5.7056C71.5866 5.67213 71.5497 5.6353 71.5163 5.59847C71.4861 5.56834 71.4393 5.57839 71.4125 5.53821C71.3957 5.51143 71.3656 5.49469 71.3288 5.48465C71.2919 5.47795 71.2652 5.43108 71.235 5.4043C71.1647 5.41434 71.1547 5.32395 71.1011 5.3206C71.0342 5.3206 71.0275 5.23691 70.9672 5.23356C70.9036 5.22686 70.8802 5.1666 70.84 5.12978C70.8099 5.103 70.7596 5.11304 70.7362 5.06952C70.7161 5.02934 70.6693 5.026 70.6358 5.00926C70.599 4.99252 70.5889 4.93895 70.5387 4.9356C70.4985 4.9356 70.4885 4.89208 70.4583 4.87534C70.4316 4.8586 70.3914 4.85191 70.3713 4.82847C70.3244 4.76486 70.234 4.76486 70.1905 4.69456C70.1169 4.68117 70.0767 4.62091 70.0265 4.57404C69.9963 4.54391 69.9495 4.55395 69.9227 4.51378C69.9026 4.48699 69.8758 4.47026 69.8356 4.46356C69.7988 4.45686 69.7754 4.39326 69.7419 4.38656C69.6816 4.37986 69.6683 4.31626 69.6247 4.30621C69.5812 4.29282 69.5544 4.26939 69.5209 4.2426C69.4741 4.20578 69.4105 4.18904 69.3736 4.13547C69.3033 4.12878 69.2699 4.07186 69.2263 4.03169C69.1828 3.99152 69.1192 3.97813 69.0757 3.92791C69.0523 3.90113 68.9987 3.90447 68.9753 3.8643C68.9518 3.82078 68.9016 3.83417 68.8715 3.80404C68.8447 3.77726 68.8246 3.73039 68.771 3.74043C68.7141 3.67013 68.617 3.65339 68.5635 3.57639C68.5367 3.53956 68.4965 3.53286 68.4597 3.51612C68.4195 3.49269 68.3994 3.44582 68.3425 3.43913C68.309 3.43578 68.2823 3.37217 68.2488 3.36212C68.1986 3.35208 68.1818 3.31191 68.1483 3.29182C68.1216 3.27508 68.0881 3.26504 68.0613 3.24495C68.0278 3.22152 68.0077 3.18804 67.9575 3.18134C67.9274 3.17799 67.9006 3.13112 67.8738 3.10099C67.8638 3.11439 67.8537 3.11773 67.8537 3.12443C67.8537 3.16795 67.8537 3.20812 67.8537 3.25165V7.20878C67.8336 7.22887 67.8136 7.24895 67.7901 7.27239H65.7044C65.7044 7.27239 65.6676 7.23556 65.6442 7.21547V0.0745578C65.6442 0.0745578 65.6743 0.0410796 65.691 0.0209926C65.9656 0.00090562 74.9846 -0.00913786 76.2501 0.0109491C76.3438 0.0578187 76.4242 0.10134 76.5179 0.14821C76.5882 0.218514 76.6686 0.298862 76.7489 0.382558C76.7556 0.432775 76.8159 0.479645 76.7991 0.546602C76.8694 0.590123 76.8192 0.663776 76.8426 0.720689C76.8527 0.730732 76.8627 0.740776 76.8728 0.750819V3.56969C76.8728 3.56969 76.8493 3.59313 76.8359 3.60652V3.77391C76.8359 3.77391 76.7958 3.80404 76.7958 3.82078C76.7924 3.85091 76.7857 3.87099 76.7656 3.89443C76.7523 3.90782 76.7523 3.93126 76.7422 3.95804C76.6585 4.04173 76.5681 4.13213 76.4777 4.22252C76.4643 4.22252 76.4443 4.22252 76.4376 4.22586C76.4041 4.27273 76.3271 4.25265 76.307 4.30956C75.1654 4.30956 74.0305 4.30956 72.8956 4.30956C72.8922 4.30956 72.8855 4.3196 72.8755 4.3263C72.919 4.36647 72.9458 4.42004 73.0127 4.43678C73.0429 4.44347 73.0663 4.4803 73.0897 4.50373C73.1098 4.52382 73.1299 4.56065 73.15 4.56065C73.2203 4.5573 73.2303 4.641 73.2839 4.64769C73.3341 4.65439 73.3509 4.69121 73.3843 4.718C73.4145 4.74143 73.468 4.73473 73.4881 4.77826C73.5082 4.82178 73.5584 4.81508 73.5919 4.83852C73.6254 4.86195 73.6388 4.90547 73.6923 4.90882C73.7158 4.90882 73.7359 4.93895 73.7559 4.95904C73.7827 4.98247 73.8062 5.00926 73.8329 5.03269C73.843 5.03939 73.8664 5.02934 73.8731 5.03269C73.9367 5.10969 74.0338 5.13313 74.1008 5.20343C74.1443 5.20008 74.1644 5.23356 74.1811 5.26034C74.2046 5.29717 74.2447 5.27708 74.2715 5.30386C74.305 5.33734 74.3351 5.37082 74.3887 5.38421C74.4322 5.39426 74.4423 5.46121 74.5059 5.46456C74.5326 5.46456 74.5561 5.50808 74.5829 5.53152C74.603 5.5516 74.623 5.58508 74.6431 5.58508C74.7134 5.58508 74.7235 5.66543 74.777 5.67213C74.8206 5.67547 74.8406 5.70226 74.8607 5.72904C74.8842 5.76252 74.9243 5.74913 74.9511 5.77256C74.988 5.80269 75.0114 5.84286 75.0683 5.85291C75.1018 5.8596 75.1286 5.91987 75.162 5.92656C75.2189 5.93995 75.2323 5.99352 75.2759 6.01026C75.2993 6.0203 75.3261 6.0203 75.3495 6.04039C75.3897 6.07721 75.4131 6.13078 75.4767 6.14082C75.5303 6.15086 75.5437 6.23456 75.6106 6.22452C75.6542 6.28143 75.7211 6.30152 75.7747 6.34169C75.8249 6.37852 75.8751 6.412 75.922 6.44882C75.9756 6.489 76.0459 6.50574 76.086 6.56934C76.1195 6.62291 76.1965 6.61621 76.2367 6.67313C76.2635 6.70995 76.3271 6.70326 76.3505 6.75013C76.374 6.79365 76.4309 6.76687 76.4543 6.81039C76.4777 6.85726 76.5346 6.85726 76.5715 6.88739C76.605 6.91082 76.6217 6.951 76.6719 6.95769C76.6987 6.95769 76.7322 6.99787 76.7489 7.02465C76.779 7.08156 76.8527 7.06817 76.8828 7.11504C76.9096 7.15856 76.9699 7.15521 77 7.18869V7.182ZM74.6565 1.51747C74.6565 1.51747 74.6431 1.50073 74.6364 1.50073C72.3967 1.50073 70.1537 1.50073 67.914 1.50073C67.9006 1.50073 67.8839 1.50073 67.8705 1.50073C67.8638 1.50073 67.8604 1.51078 67.8504 1.51747V2.80304C67.8504 2.80304 67.8638 2.81978 67.8705 2.81978C70.1102 2.81978 72.3532 2.81978 74.5929 2.81978C74.6063 2.81978 74.623 2.81978 74.6364 2.81978C74.6431 2.81978 74.6465 2.80973 74.6565 2.80304V1.51747Z" fill="#46194F"/>
<path d="M39.2868 0.670386C39.3035 0.653647 39.3136 0.643604 39.327 0.630212V0.516386C39.3404 0.47956 39.3872 0.462821 39.3738 0.422647C39.481 0.315517 39.5848 0.211734 39.6919 0.104603C39.7488 0.111299 39.7823 0.0142121 39.8492 0.0610817C39.8727 0.0409947 39.8861 0.0276034 39.9028 0.0108643H50.117C50.117 0.0108643 50.1472 0.0376469 50.1605 0.054386H50.2308C50.271 0.074473 50.3012 0.0912121 50.348 0.117995C50.3715 0.14143 50.4116 0.181603 50.4518 0.221777C50.4652 0.221777 50.4786 0.221777 50.4953 0.225125C50.5154 0.258603 50.5288 0.298777 50.5589 0.322212C50.6025 0.35569 50.6025 0.405908 50.6326 0.442734C50.656 0.472864 50.6694 0.513038 50.6929 0.559908V0.630212C50.6929 0.630212 50.723 0.660343 50.7364 0.677082V6.63287C50.7364 6.63287 50.7163 6.65295 50.6995 6.66969C50.6995 6.68978 50.6995 6.71656 50.6929 6.76343C50.6895 6.79021 50.6092 6.8103 50.656 6.86052C50.6058 6.91074 50.5589 6.95426 50.5288 6.98774V7.05469C50.4585 7.07143 50.415 7.12834 50.3681 7.17521C50.338 7.20534 50.2208 7.24552 50.1672 7.24887C50.1505 7.26226 50.1338 7.27565 50.1237 7.28569H39.9128C39.8928 7.26895 39.876 7.25221 39.8593 7.24552C39.8292 7.23548 39.7923 7.25556 39.7622 7.22208C39.7287 7.18861 39.6685 7.1953 39.645 7.14508C39.6249 7.10491 39.5814 7.125 39.558 7.10156C39.5278 7.07143 39.4776 7.04465 39.4709 7.01117C39.4642 6.95426 39.414 6.93417 39.3939 6.894C39.3738 6.86052 39.3571 6.82369 39.3404 6.78687C39.327 6.75339 39.3437 6.70652 39.3035 6.67304C39.2902 6.65965 39.2935 6.61947 39.2935 6.59269C39.2935 6.41526 39.2935 6.23782 39.2935 6.06039V0.670386H39.2868ZM48.5034 1.50065C46.1766 1.50065 43.8499 1.50065 41.5232 1.50065C41.5031 1.52073 41.483 1.54082 41.4629 1.56091C41.4495 2.23047 41.4528 5.52139 41.4696 5.74904C41.4897 5.76578 41.5098 5.78587 41.5232 5.79591H48.5101C48.5335 5.77247 48.5502 5.75239 48.567 5.73565V1.56091C48.5435 1.53747 48.5235 1.51739 48.5067 1.4973L48.5034 1.50065Z" fill="#46194F"/>
<path d="M61.5498 0.0142822H63.7024C63.7024 0.0142822 63.7192 0.0276735 63.7192 0.0343692C63.7192 2.24728 63.7192 4.4602 63.7192 6.66976C63.7091 6.67981 63.6991 6.68985 63.6891 6.69989C63.6723 6.78694 63.6522 6.87063 63.5819 6.93089C63.5384 6.96772 63.5351 7.02463 63.4949 7.06815C63.4581 7.10498 63.4045 7.10163 63.3744 7.14181C63.3442 7.18533 63.2974 7.19537 63.2572 7.21546C63.2204 7.2322 63.1869 7.25228 63.1333 7.27907H53.2773C53.2438 7.26233 53.2204 7.24894 53.197 7.24224C53.1601 7.2322 53.0363 7.17863 53.0195 7.16189C52.9392 7.08154 52.8588 7.0012 52.8153 6.95768C52.7718 6.88737 52.7517 6.86059 52.7383 6.83046C52.7216 6.79363 52.7048 6.75681 52.6981 6.71998C52.6914 6.6865 52.6981 6.64968 52.6981 6.62289C52.6814 6.60615 52.6714 6.59611 52.658 6.58272V0.0745431C52.658 0.0745431 52.6881 0.0410648 52.7115 0.0142822H54.8106C54.8106 0.0142822 54.8407 0.0444127 54.8541 0.057804C54.8575 0.0711953 54.8675 0.0812388 54.8675 0.0946301C54.8675 1.9895 54.8675 3.88102 54.8675 5.77254C54.8876 5.80268 54.9177 5.79598 54.9445 5.79598C57.1206 5.79598 59.3001 5.79598 61.4761 5.79598C61.4962 5.79598 61.5163 5.79598 61.5331 5.79263C61.5397 5.78594 61.5498 5.77924 61.5498 5.77254C61.5498 5.75915 61.5498 5.74576 61.5498 5.72902V0.0142822Z" fill="#46194F"/>
<path d="M11.1516 6.5862C11.1516 6.5862 11.1315 6.60629 11.1215 6.61299C11.098 6.65316 11.1114 6.69668 11.1081 6.73686C11.0746 6.80046 11.0411 6.86407 11.0077 6.93773C10.924 7.02142 10.8336 7.11181 10.7465 7.19886C10.6863 7.20555 10.6394 7.26581 10.5724 7.24907C10.5457 7.29259 10.5021 7.28925 10.462 7.2859C10.4184 7.2859 10.3783 7.2859 10.3347 7.2859H0.636087C0.542348 7.23903 0.455305 7.19551 0.338131 7.13525C0.301304 7.09842 0.244391 7.03816 0.187478 6.98125C0.140609 6.88751 0.097087 6.80046 0.0435218 6.69668V6.54603C0.0435218 6.54603 0.0133913 6.51255 0 6.49581V4.5842C0.0368261 4.56077 0.0368261 4.5139 0.0602609 4.47707H2.14931C2.14931 4.47707 2.18278 4.51055 2.21291 4.53399V5.76933C2.21291 5.76933 2.22965 5.78942 2.23635 5.79277C2.24304 5.79277 2.24974 5.79277 2.25644 5.79277C4.47605 5.79277 6.69565 5.79277 8.91861 5.79277C8.92531 5.79277 8.92866 5.78272 8.93535 5.77938C8.93535 5.77268 8.94205 5.76599 8.94205 5.76264C8.94205 3.86777 8.94205 1.97625 8.94205 0.0746794C8.95544 0.0579402 8.97553 0.0378533 8.99226 0.0177663C9.20653 0.00102717 10.539 -0.00232065 11.0947 0.0110707C11.1148 0.0311576 11.1349 0.0512446 11.155 0.0713315V6.58286L11.1516 6.5862Z" fill="#46194F"/>
<path d="M32.8187 7.22543C32.7986 7.24217 32.7785 7.26226 32.7551 7.28569H30.6694C30.6694 7.28569 30.6326 7.25221 30.6058 7.22543V1.52073C30.6058 1.52073 30.5891 1.50065 30.5824 1.50065C30.5757 1.50065 30.569 1.50065 30.5623 1.50065C29.0859 1.50065 27.6129 1.50065 26.1365 1.50065H26.0929C26.0929 1.50065 26.0795 1.50065 26.0729 1.50065C26.0662 1.50065 26.0628 1.4906 26.0528 1.48391V0.0276034C26.0528 0.0276034 26.0662 0.0108643 26.0729 0.0108643C29.8191 0.0108643 33.5619 0.0108643 37.3082 0.0108643C37.3282 0.0309512 37.345 0.0510382 37.3684 0.074473V1.43704C37.3684 1.43704 37.3349 1.47386 37.3082 1.50065H32.8388C32.8388 1.50065 32.8187 1.51739 32.8154 1.52408C32.8154 1.53747 32.8154 1.55086 32.8154 1.5676V7.22878L32.8187 7.22543Z" fill="#46194F"/>
<path d="M9.14969 10.627C9.17982 10.5969 9.19321 10.5835 9.20995 10.5668H11.9451C11.9451 10.5668 11.9686 10.5902 11.982 10.6036H12.1493C12.1493 10.6036 12.1795 10.6337 12.1962 10.6471H12.2799C12.2799 10.6471 12.31 10.6773 12.3268 10.6906H12.3937C12.4339 10.7107 12.4741 10.7308 12.5143 10.7543C12.5477 10.7743 12.5678 10.8112 12.6147 10.8246C12.6549 10.8346 12.6917 10.8848 12.7218 10.9216C12.7553 10.9585 12.8089 10.9518 12.8423 10.9953C12.8758 11.0321 12.8892 11.0756 12.916 11.1158C12.9461 11.156 12.9997 11.1794 13.0164 11.2229C13.0466 11.2966 13.1001 11.3569 13.1135 11.4372C13.1169 11.4606 13.1604 11.4707 13.1537 11.5042C13.1403 11.5778 13.224 11.6247 13.1972 11.695C13.2106 11.7084 13.2206 11.7184 13.2374 11.7352V12.1168C13.2541 12.1336 13.2642 12.1436 13.2776 12.157V13.1881C13.2776 13.1881 13.2541 13.2116 13.2407 13.2249V13.5631C13.2407 13.5631 13.2106 13.5966 13.1972 13.6133V13.7372C13.1972 13.7372 13.1671 13.7673 13.1537 13.784V13.8577C13.1236 13.9113 13.08 13.9548 13.0733 14.005C13.0633 14.0619 12.9997 14.0786 12.993 14.1188C12.983 14.1824 12.9361 14.2092 12.8993 14.2494C12.8624 14.2929 12.8189 14.3297 12.7787 14.3699C12.7453 14.4034 12.7151 14.4569 12.6716 14.4703C12.6147 14.4904 12.5812 14.5273 12.541 14.5641C12.4841 14.544 12.4674 14.631 12.4105 14.6076C12.3803 14.6612 12.31 14.6478 12.2732 14.6946H12.1527C12.1527 14.6946 12.1293 14.7181 12.1159 14.7315H9.17312C9.17312 14.7315 9.15638 14.7181 9.15638 14.7114C9.15638 14.698 9.15638 14.6846 9.15638 14.6679V10.627H9.14969ZM12.3435 13.3522C12.3435 12.8835 12.3435 12.4148 12.3435 11.9494C12.3301 11.9327 12.3134 11.9193 12.3 11.9026V11.7787C12.2833 11.7619 12.2699 11.7452 12.2565 11.7285V11.6414C12.1828 11.6046 12.1828 11.5109 12.1192 11.4673C12.059 11.4238 11.9987 11.3803 11.9284 11.3301H11.8581C11.8581 11.3301 11.828 11.2999 11.8112 11.2866H10.154C10.154 11.2866 10.1239 11.2866 10.1105 11.2866C10.1038 11.2866 10.1005 11.2966 10.0938 11.2999C10.0938 11.3133 10.0871 11.3267 10.0871 11.3401C10.0871 12.2106 10.0871 13.0843 10.0871 13.9548C10.0871 13.9749 10.0971 13.9916 10.1005 14.0083H11.8916C11.9217 13.9548 11.992 13.9682 12.0255 13.9213C12.0589 13.8744 12.1025 13.8376 12.146 13.8008C12.1895 13.7639 12.2063 13.7137 12.2364 13.6702C12.2699 13.6233 12.2263 13.553 12.3 13.5229V13.389C12.3167 13.3723 12.3268 13.3622 12.3368 13.3522H12.3435Z" fill="#46194F"/>
<path d="M23.5218 14.0987H25.6912C25.7113 14.1188 25.7314 14.1389 25.7548 14.1623C25.7548 14.3464 25.7548 14.5305 25.7548 14.7147C25.7548 14.7214 25.7448 14.7247 25.7381 14.7348H23.2372C23.1502 14.6912 23.0598 14.6477 22.946 14.5875C22.9225 14.564 22.879 14.5205 22.8321 14.4736C22.7719 14.4134 22.6949 14.3632 22.6547 14.2895C22.6078 14.1991 22.561 14.102 22.5175 14.0049C22.5108 13.9882 22.4974 13.9715 22.4773 13.9346V13.7773L22.4371 13.7371V12.7495C22.4371 12.7495 22.4605 12.7261 22.4739 12.7127V12.5888C22.4739 12.5888 22.5041 12.5587 22.5175 12.5419C22.5241 12.5051 22.5175 12.4649 22.5442 12.4248C22.571 12.3846 22.5911 12.331 22.6112 12.2842C22.6313 12.2373 22.6915 12.2105 22.6982 12.1502C22.7719 12.0732 22.8489 11.9996 22.8924 11.9527C23.0096 11.8925 23.0933 11.8523 23.1904 11.8021H23.2941C23.3109 11.7887 23.3276 11.7753 23.3444 11.7585H25.0015C25.0015 11.7585 25.0283 11.782 25.0451 11.7987H25.1689C25.2292 11.859 25.3129 11.869 25.3765 11.9159C25.4066 11.9393 25.4468 11.9494 25.4769 11.9795C25.564 12.0699 25.6577 12.1603 25.7347 12.2574C25.7515 12.2842 25.7715 12.3109 25.7849 12.3411C25.8017 12.3779 25.8218 12.4147 25.8251 12.4515C25.8318 12.4884 25.8285 12.5219 25.8686 12.5386V12.7529C25.8686 12.7529 25.8988 12.7863 25.9121 12.8031V13.3119C25.9121 13.3119 25.8854 13.3421 25.8686 13.3588V13.4358C25.8151 13.4927 25.7682 13.5429 25.7213 13.5932H25.6343C25.6343 13.5932 25.6142 13.6132 25.5941 13.6333H23.2941C23.2573 13.6769 23.2774 13.7204 23.2741 13.7605C23.2741 13.7974 23.2741 13.8308 23.2741 13.8677C23.3243 13.9079 23.3243 13.9748 23.3745 14.0183C23.418 14.0552 23.4816 14.0518 23.5118 14.1054L23.5218 14.0987ZM24.9212 12.4382H23.4749C23.4481 12.485 23.3912 12.4783 23.3544 12.5085C23.3142 12.5419 23.3343 12.6055 23.2808 12.629C23.2808 12.7261 23.2808 12.8265 23.2808 12.9269C23.2808 12.9336 23.2908 12.937 23.2975 12.947H25.0082C25.0283 12.9269 25.0484 12.9069 25.0685 12.8868V12.5888C25.0183 12.5386 24.9681 12.4884 24.9212 12.4382Z" fill="#46194F"/>
<path d="M65.2091 13.6501V13.8476C65.2492 13.9346 65.2894 14.0083 65.3296 14.0351C65.3865 14.0585 65.4099 14.0719 65.3965 14.0652C65.4367 14.092 65.4401 14.0987 65.4468 14.0987C65.4535 14.0987 65.4601 14.0987 65.4668 14.0987H67.6128C67.6362 14.1221 67.6563 14.1422 67.6764 14.1623C67.6764 14.3498 67.6764 14.5406 67.6764 14.7314H65.1555C65.0718 14.6879 64.9848 14.6444 64.8776 14.5908C64.7906 14.5038 64.6835 14.3966 64.5763 14.2895C64.5864 14.2426 64.5161 14.2192 64.5261 14.1656C64.4926 14.1389 64.496 14.0853 64.4692 14.0652C64.419 14.0284 64.4692 13.9648 64.4257 13.9346C64.3821 13.9012 64.4089 13.8576 64.3955 13.8175C64.3855 13.8074 64.3755 13.7974 64.3621 13.784V12.7595C64.3621 12.7595 64.3788 12.7361 64.3955 12.716C64.4156 12.6692 64.3688 12.5922 64.4391 12.5486C64.4223 12.4817 64.4826 12.4382 64.4859 12.3779C64.5361 12.3411 64.5261 12.2574 64.5897 12.2306C64.6198 12.1402 64.6935 12.0866 64.7538 12.023C64.7671 12.0063 64.7839 11.9795 64.8006 11.9795C64.8642 11.9762 64.891 11.9226 64.9345 11.8858C64.9848 11.9025 65.0015 11.8422 65.045 11.8389C65.0684 11.8389 65.0885 11.8121 65.112 11.7987C65.1488 11.7987 65.1823 11.7987 65.2258 11.7987C65.2358 11.7887 65.2526 11.7786 65.276 11.7585H66.9332C66.9332 11.7585 66.9566 11.7753 66.9801 11.7954C67.1006 11.7786 67.1977 11.859 67.3048 11.9092C67.3215 11.9192 67.3416 11.9226 67.3684 11.9326C67.4655 12.0297 67.5726 12.1369 67.6764 12.2406C67.653 12.2975 67.7467 12.3143 67.7233 12.3712C67.7735 12.4013 67.7668 12.4549 67.7668 12.4984C67.7802 12.5152 67.7936 12.5319 67.807 12.5419V13.4358C67.7601 13.4827 67.7132 13.5295 67.6697 13.5731C67.6295 13.5999 67.5659 13.5597 67.5392 13.6233C66.7692 13.6233 65.9991 13.63 65.2291 13.6333C65.2225 13.6333 65.2191 13.6434 65.2158 13.6467L65.2091 13.6501ZM66.8495 12.4382H65.3999C65.3798 12.4649 65.3497 12.475 65.3162 12.4884C65.2894 12.4951 65.2593 12.5252 65.2526 12.5654C65.2459 12.5955 65.2258 12.6223 65.2124 12.6491V12.716C65.2124 12.716 65.1823 12.7462 65.1689 12.7629C65.1722 12.8265 65.1622 12.8868 65.1789 12.947H66.9298C66.9633 12.9202 66.9834 12.9035 67.0002 12.8901V12.5855C66.9533 12.5386 66.9098 12.4951 66.8528 12.4382H66.8495Z" fill="#46194F"/>
<path d="M49.675 13.0341H47.4387C47.4387 13.0341 47.4219 13.0509 47.4186 13.0576C47.4186 13.0643 47.4186 13.0709 47.4186 13.0776V14.7147C47.3918 14.7516 47.355 14.7348 47.3215 14.7348C47.0604 14.7348 46.7992 14.7348 46.5448 14.7348C46.5348 14.7214 46.5247 14.7181 46.5247 14.7114C46.5247 13.3354 46.5247 11.9628 46.5247 10.5869C46.5247 10.5802 46.5348 10.5768 46.5415 10.5668H49.742C49.7621 10.7442 49.7654 11.0723 49.742 11.2866H47.432C47.4119 11.474 47.4085 12.1001 47.432 12.3076H49.6516C49.6516 12.3076 49.6717 12.3244 49.6717 12.3311C49.6717 12.3445 49.6717 12.3579 49.6717 12.3746V13.0341H49.675Z" fill="#46194F"/>
<path d="M29.0927 10.5632C29.1228 10.6168 29.1898 10.6034 29.2266 10.6503C29.2634 10.7005 29.3136 10.7407 29.3605 10.7875C29.4007 10.8277 29.4576 10.8612 29.4777 10.9081C29.538 11.042 29.6618 11.1156 29.7522 11.2194C29.7991 11.273 29.846 11.3265 29.9029 11.3667C29.9564 11.4069 29.9598 11.4738 30.0066 11.5174C30.0602 11.5642 30.1071 11.6178 30.1573 11.668C30.2008 11.7115 30.2477 11.7584 30.2912 11.8019C30.3414 11.8521 30.395 11.899 30.4419 11.9526C30.4887 12.0028 30.5055 12.0731 30.5624 12.1166C30.616 12.1601 30.6595 12.2171 30.6996 12.2606H30.8838C30.9909 12.1535 31.0947 12.0463 31.2018 11.9425C31.2453 11.899 31.2487 11.8321 31.3056 11.7919C31.3558 11.7551 31.396 11.7048 31.4429 11.658C31.4864 11.6145 31.5333 11.5676 31.5768 11.5241C31.6237 11.4805 31.6672 11.4337 31.7107 11.3901C31.7107 11.3734 31.704 11.3567 31.7107 11.3466C31.7274 11.3232 31.7509 11.3065 31.771 11.2864C31.8145 11.2428 31.8613 11.196 31.9049 11.1525C31.9551 11.1022 32.0053 11.0554 32.0555 11.0018C32.099 10.9549 32.156 10.9248 32.176 10.8612C32.1961 10.7976 32.2564 10.7675 32.2966 10.7206C32.3233 10.6871 32.3535 10.657 32.387 10.6302C32.4171 10.6068 32.4573 10.5934 32.5075 10.5666H33.485C33.485 10.5666 33.5152 10.6034 33.5353 10.6268C33.4917 10.6704 33.4583 10.7172 33.4114 10.7474C33.3612 10.7808 33.3746 10.8478 33.3243 10.8846C33.2842 10.9114 33.254 10.9549 33.2172 10.9884C33.177 11.0286 33.1369 11.0688 33.0967 11.1089C33.0565 11.1491 33.0197 11.1926 32.9762 11.2295C32.9293 11.2696 32.9293 11.3399 32.8724 11.3801C32.8155 11.4203 32.772 11.4772 32.7217 11.5274C32.6782 11.5709 32.6347 11.6245 32.5845 11.6613C32.5175 11.7149 32.5041 11.8019 32.4372 11.8555C32.3702 11.9091 32.3167 11.9727 32.2564 12.0329C32.1961 12.0932 32.1292 12.1501 32.079 12.2137C32.0421 12.2606 32.0187 12.3175 31.9718 12.361C31.9183 12.4079 31.8714 12.4615 31.8212 12.5117C31.7777 12.5552 31.7341 12.6088 31.6839 12.6456C31.6237 12.6891 31.6203 12.7661 31.5667 12.8096C31.5065 12.8598 31.4563 12.9201 31.3993 12.9737C31.3491 13.0239 31.2989 13.0741 31.242 13.131V14.7112C31.0612 14.7346 30.5657 14.7346 30.3515 14.7112V13.1344C30.3046 13.0875 30.2577 13.0339 30.2042 12.9904C30.1372 12.9368 30.1238 12.8498 30.0569 12.7962C29.9899 12.7427 29.9363 12.6791 29.8761 12.6188C29.8158 12.5585 29.7522 12.5016 29.6986 12.438C29.6618 12.3911 29.6417 12.3309 29.5915 12.2907C29.5446 12.2505 29.5011 12.2003 29.4543 12.1568C29.4141 12.1166 29.3739 12.0765 29.3337 12.0363C29.2902 11.9928 29.2433 11.9459 29.1998 11.9024C29.1998 11.889 29.1998 11.8722 29.1998 11.8588C29.1998 11.8521 29.1898 11.8488 29.1864 11.8421C29.0927 11.7484 29.0023 11.6446 28.8985 11.5575C28.8014 11.4738 28.7546 11.3567 28.6608 11.273C28.5604 11.1826 28.4733 11.0788 28.3729 10.9918C28.3126 10.9415 28.306 10.8578 28.239 10.811C28.1821 10.7708 28.1386 10.7139 28.0984 10.6704V10.58C28.0984 10.58 28.1118 10.5632 28.1151 10.5632C28.4399 10.5632 28.768 10.5632 29.0927 10.5632Z" fill="#46194F"/>
<path d="M34.0708 14.6075C33.9871 14.5238 33.9034 14.4368 33.8197 14.3531C33.7595 14.2928 33.7294 14.2258 33.7093 14.1421C33.6959 14.0886 33.6691 14.0317 33.6256 13.9848V13.8609L33.5854 13.8208V13.4391L33.5452 13.3989V13.0943L33.5854 13.0541V12.7126L33.6256 12.6724V12.5486C33.6256 12.5486 33.6557 12.5184 33.6691 12.5017C33.6423 12.4348 33.7193 12.3912 33.716 12.331C33.7662 12.3008 33.7561 12.2305 33.8064 12.1971C33.8599 12.1636 33.8566 12.0899 33.9101 12.0464C33.9604 12.0096 34.0005 11.9661 34.0608 11.9426C34.1144 11.9192 34.178 11.9058 34.2181 11.8656C34.265 11.8188 34.3387 11.8757 34.3654 11.8087C34.4257 11.8054 34.4893 11.7987 34.5496 11.7953C34.5596 11.7853 34.5697 11.7752 34.5831 11.7618H36.2436C36.2436 11.7618 36.267 11.7819 36.2938 11.802C36.3105 11.802 36.3373 11.802 36.3641 11.802C36.3909 11.802 36.421 11.7987 36.4377 11.8254C36.4578 11.8556 36.488 11.8388 36.5148 11.8455C36.5348 11.8489 36.5516 11.8623 36.5683 11.8723C36.5918 11.8824 36.6219 11.8857 36.6386 11.9024C36.6621 11.9225 36.6855 11.9259 36.7123 11.9326C36.7357 11.9393 36.7524 11.9728 36.7725 11.9895C36.7926 12.0029 36.8228 12.0062 36.8428 12.023C36.8663 12.0397 36.883 12.0631 36.9031 12.0832C36.9198 12.1033 36.9433 12.1167 36.9466 12.1502C36.9466 12.1669 36.9667 12.1837 36.9801 12.2004C36.9968 12.2205 37.0236 12.2406 37.027 12.264C37.0303 12.2975 37.0604 12.3075 37.0671 12.3343C37.0772 12.3578 37.0671 12.3912 37.0671 12.4147C37.0839 12.4314 37.0973 12.4481 37.1107 12.4615V12.5452C37.1107 12.5452 37.1308 12.5653 37.1475 12.5821V12.7528L37.191 12.7963V13.7438C37.191 13.7438 37.1709 13.7638 37.1609 13.7739C37.1609 13.7873 37.1542 13.8007 37.1542 13.8141C37.1542 13.8509 37.1542 13.8844 37.1542 13.9212C37.1542 13.9346 37.1542 13.948 37.1475 13.9614C37.1408 13.9748 37.1207 13.9815 37.1207 13.9915C37.114 14.025 37.1174 14.0618 37.104 14.0886C37.0906 14.112 37.0805 14.1388 37.0705 14.1589C37.0404 14.2091 37.0169 14.266 36.9901 14.3162C36.9901 14.3229 36.9901 14.333 36.9901 14.3363C36.9768 14.3531 36.96 14.3664 36.9466 14.3832C36.8931 14.4368 36.8428 14.5037 36.7792 14.5439C36.7089 14.5908 36.6353 14.6376 36.5482 14.6544C36.5214 14.6611 36.5148 14.7012 36.4813 14.6979C36.4612 14.6979 36.4378 14.6979 36.4177 14.6979C36.4009 14.7113 36.3875 14.728 36.3708 14.7414H36.1164L36.0795 14.7782H34.7069L34.6701 14.7414C34.6232 14.7414 34.5663 14.7414 34.5127 14.7414C34.4558 14.7414 34.4023 14.7414 34.3587 14.6979C34.3052 14.7146 34.2684 14.6744 34.2282 14.6544C34.1646 14.6845 34.1344 14.6008 34.0708 14.6142V14.6075ZM35.0517 14.1388C35.2794 14.1388 35.5071 14.1388 35.7314 14.1388C35.7481 14.1254 35.7615 14.1087 35.7782 14.0953H36.0795C36.0929 14.0584 36.1297 14.0618 36.1632 14.0484C36.1934 14.035 36.2134 14.0015 36.2402 13.9748C36.2637 13.948 36.3038 13.9245 36.3072 13.8978C36.3105 13.8576 36.344 13.8408 36.3574 13.8007V13.65C36.3741 13.6266 36.3875 13.6132 36.3909 13.6065V12.8867C36.3741 12.8633 36.3608 12.8465 36.3507 12.8365V12.7294C36.3273 12.6858 36.3072 12.6423 36.2804 12.6055C36.2603 12.5787 36.2704 12.5419 36.2402 12.5151C36.2101 12.4917 36.1766 12.4917 36.1498 12.4716C36.1398 12.4649 36.1298 12.4515 36.1197 12.4414C36.0594 12.4348 35.9958 12.4448 35.9423 12.4381C35.9255 12.418 35.9155 12.408 35.9054 12.3979C35.5506 12.3979 35.1957 12.3979 34.8408 12.3979C34.8241 12.4113 34.8107 12.4247 34.794 12.4414H34.6668C34.6266 12.4917 34.5496 12.485 34.5194 12.5486V12.6021C34.4927 12.6222 34.4625 12.649 34.4324 12.6724V12.803C34.4157 12.8231 34.4023 12.8398 34.3956 12.8499V13.7036C34.4692 13.7371 34.4023 13.8341 34.4726 13.8643C34.4726 13.9312 34.5328 13.9513 34.5596 13.9982C34.5964 14.0585 34.6701 14.0518 34.7103 14.1053C34.8074 14.1053 34.9078 14.1053 35.0049 14.1053C35.0116 14.1053 35.0149 14.112 35.0283 14.1221C35.0317 14.1254 35.0417 14.1354 35.0517 14.1455V14.1388Z" fill="#46194F"/>
<path d="M41.0343 13.6902C41.0343 13.6902 41.0142 13.7103 40.9975 13.7303C40.9774 13.7806 41.0042 13.8442 40.9875 13.9111C40.9808 13.9178 40.9707 13.9279 40.9607 13.9379C40.9406 13.9781 40.954 14.0216 40.9506 14.0584C40.9038 14.1488 40.8602 14.2359 40.8067 14.3363C40.7397 14.4033 40.6594 14.4836 40.579 14.564C40.5723 14.564 40.5523 14.5606 40.5456 14.564C40.502 14.6108 40.4418 14.6343 40.3882 14.641C40.3279 14.6476 40.2844 14.7146 40.2141 14.6912C40.2041 14.6878 40.184 14.7146 40.1639 14.7313H39.9563C39.9563 14.7313 39.9262 14.7615 39.9095 14.7749H38.8884C38.8884 14.7749 38.8716 14.7548 38.8516 14.7347C38.7846 14.728 38.7076 14.7347 38.6339 14.7313C38.6239 14.7213 38.6139 14.7113 38.6038 14.7012C38.5636 14.6778 38.5201 14.7012 38.4833 14.6912C38.3962 14.6477 38.3092 14.6008 38.2222 14.5573C38.2222 14.5606 38.2155 14.5673 38.2121 14.5706C38.1519 14.5104 38.0949 14.4468 38.0347 14.3865C37.9376 14.2894 37.8941 14.2024 37.8506 14.0383C37.8472 14.0216 37.8238 14.0049 37.8104 13.9881V13.8643C37.8104 13.8643 37.7802 13.8341 37.7669 13.8174C37.7669 13.7236 37.7669 13.6333 37.7669 13.5395V13.5194C37.7669 13.5194 37.7468 13.4993 37.7367 13.4893C37.7334 13.4759 37.7267 13.4659 37.7267 13.4525C37.7267 12.9068 37.7267 12.3611 37.7267 11.8187L37.7903 11.7551H38.5201C38.5335 11.7719 38.5536 11.7953 38.5804 11.8254V12.3376C38.5804 12.7561 38.5804 13.1746 38.5804 13.5931C38.5804 13.6801 38.6373 13.7437 38.6373 13.8274C38.6808 13.8542 38.6708 13.9145 38.7109 13.948C38.7645 13.9915 38.8214 14.025 38.8817 14.0517C38.9051 14.0618 38.9286 14.0785 38.9587 14.0953C39.0123 14.0953 39.0759 14.0953 39.1428 14.0953C39.1495 14.0953 39.1562 14.0953 39.1629 14.0953C39.1729 14.1053 39.183 14.1153 39.193 14.1254C39.2064 14.1287 39.2198 14.1354 39.2299 14.1354C39.3504 14.1354 39.4709 14.1354 39.5847 14.1354L39.6216 14.0986H39.8191C39.8492 14.0819 39.8726 14.0517 39.8927 14.0551C39.963 14.0651 40.0066 14.0149 40.0601 13.9948C40.1137 13.9781 40.1103 13.9044 40.1505 13.8643C40.1706 13.8442 40.1773 13.804 40.1974 13.7538V13.5663C40.1974 13.5663 40.2275 13.5362 40.2409 13.5194C40.2409 12.9336 40.2409 12.3477 40.2409 11.7585H41.031C41.031 11.7585 41.0477 11.7719 41.0511 11.7752C41.0511 11.7886 41.0511 11.802 41.0511 11.8187C41.0511 12.4414 41.0511 13.0675 41.0511 13.6902H41.0343Z" fill="#46194F"/>
<path d="M53.5886 13.7371C53.5886 13.7371 53.5686 13.7539 53.5518 13.7672C53.5317 13.8242 53.5552 13.8878 53.5384 13.9514C53.5317 13.9581 53.5217 13.9681 53.5083 13.9815C53.5083 14.1087 53.4012 14.2025 53.3744 14.3196C53.2974 14.3966 53.2204 14.4736 53.1434 14.5506C53.063 14.5908 52.976 14.6343 52.8722 14.6879H52.7651C52.7651 14.6879 52.7316 14.7147 52.7149 14.7314H52.5073C52.5073 14.7314 52.4772 14.7615 52.4604 14.7749H51.4393C51.4393 14.7749 51.4193 14.7549 51.4059 14.7381H51.1916C51.1749 14.7214 51.1648 14.7113 51.1481 14.6946H51.0443C50.9439 14.6444 50.8568 14.5975 50.7698 14.554C50.7698 14.5573 50.7631 14.564 50.7597 14.5674C50.6995 14.5071 50.6459 14.4402 50.5823 14.3866C50.5254 14.3364 50.5187 14.2493 50.4417 14.2092C50.4417 14.1824 50.445 14.1522 50.4417 14.1288C50.4383 14.1121 50.4116 14.0987 50.4049 14.0786C50.3982 14.0518 50.4049 14.0217 50.3982 13.9949C50.3915 13.9782 50.3747 13.9614 50.358 13.9447V13.8643C50.358 13.8643 50.3279 13.8342 50.3145 13.8175V13.4793C50.3145 13.4793 50.2944 13.4592 50.2843 13.4492C50.281 13.4358 50.2743 13.4258 50.2743 13.4124C50.2743 12.8801 50.2743 12.3511 50.2743 11.8222C50.2977 11.7987 50.3178 11.7786 50.3379 11.7585H51.0644C51.0778 11.7753 51.0979 11.7987 51.1246 11.8322V13.6534C51.1414 13.6702 51.1514 13.6802 51.1648 13.6936V13.8108C51.1782 13.8476 51.2284 13.861 51.2083 13.9012C51.2753 14.0116 51.3958 14.0351 51.4929 14.102H51.7005C51.7005 14.102 51.7206 14.1221 51.7306 14.1322C51.744 14.1355 51.7574 14.1422 51.7674 14.1422C51.8879 14.1422 52.0085 14.1422 52.1223 14.1422C52.1357 14.1288 52.1457 14.1188 52.1591 14.1054H52.3566C52.3868 14.0886 52.4102 14.0585 52.4303 14.0619C52.4972 14.0719 52.5441 14.0217 52.5977 14.0016C52.6512 13.9849 52.6479 13.9112 52.6881 13.871C52.7082 13.8509 52.7149 13.8108 52.7349 13.7605V13.6601C52.7349 13.6601 52.7651 13.63 52.7785 13.6132C52.7785 13.0039 52.7785 12.3946 52.7785 11.7853C52.7785 11.7786 52.7885 11.7753 52.7952 11.7652H53.5652C53.5652 11.7652 53.5853 11.7786 53.5853 11.782C53.5853 11.7954 53.5853 11.8088 53.5853 11.8255V13.7405L53.5886 13.7371Z" fill="#46194F"/>
<path d="M60.6996 13.7739C60.6996 13.7739 60.6728 13.804 60.656 13.8208V13.948C60.656 13.948 60.636 13.9681 60.6226 13.9814C60.6226 14.0384 60.579 14.0919 60.5757 14.1488C60.5724 14.2091 60.5154 14.2392 60.5188 14.2894C60.425 14.3832 60.3347 14.4736 60.261 14.5472C60.1606 14.5975 60.0769 14.641 59.9798 14.6912H59.8727C59.8727 14.6912 59.8392 14.718 59.8224 14.7347H59.6149C59.6149 14.7347 59.5847 14.7648 59.568 14.7782H58.5469C58.5469 14.7782 58.5268 14.7581 58.5067 14.7414C58.4431 14.728 58.3661 14.7414 58.2891 14.7347C58.2791 14.7247 58.269 14.7146 58.259 14.7046C58.2222 14.6811 58.1787 14.7046 58.1586 14.6979C58.1284 14.6912 58.1217 14.6945 58.115 14.6912C58.0347 14.6443 57.9477 14.6108 57.8707 14.564C57.7836 14.5104 57.7167 14.4234 57.643 14.3531C57.6229 14.3062 57.6095 14.2627 57.5861 14.2225C57.5593 14.1756 57.5426 14.1288 57.5091 14.0819C57.4857 14.0484 57.5158 13.9848 57.4589 13.9547V13.8274C57.4589 13.8274 57.4287 13.7973 57.4153 13.7806V13.3989C57.4153 13.3989 57.3953 13.3788 57.3852 13.3721C57.3785 13.3588 57.3718 13.3454 57.3718 13.332C57.3718 12.8298 57.3718 12.3276 57.3718 11.8254C57.3919 11.8054 57.412 11.7853 57.4354 11.7618H58.1586C58.1753 11.7786 58.1954 11.7987 58.2188 11.8188V13.6433C58.2322 13.6601 58.2456 13.6768 58.2623 13.6969V13.8208C58.3193 13.8576 58.3393 13.9279 58.3829 13.9781C58.4097 14.0116 58.4565 14.035 58.5 14.0518C58.5235 14.0618 58.5536 14.0551 58.5871 14.0585C58.6005 14.0718 58.6172 14.0852 58.6306 14.0986H58.8449C58.8449 14.0986 58.865 14.1187 58.8717 14.1288C58.885 14.1354 58.8984 14.1421 58.9118 14.1421C59.0324 14.1421 59.1529 14.1421 59.27 14.1421C59.2801 14.1321 59.2901 14.1221 59.3002 14.112C59.3136 14.1087 59.327 14.102 59.337 14.102C59.3939 14.102 59.4508 14.102 59.5144 14.102C59.5245 14.0919 59.5379 14.0752 59.558 14.0685C59.6048 14.0451 59.6584 14.0317 59.7019 14.0049C59.7588 13.9714 59.7722 13.9044 59.7957 13.8542C59.8191 13.8074 59.866 13.7672 59.8425 13.7036C59.8392 13.6935 59.866 13.6734 59.8827 13.6534V11.8288C59.9028 11.8087 59.9195 11.7886 59.943 11.7652H60.6761C60.6761 11.7652 60.6929 11.7786 60.6929 11.7819C60.6929 11.7953 60.6929 11.8087 60.6929 11.8254C60.6929 12.4783 60.6929 13.1278 60.6929 13.7806L60.6996 13.7739Z" fill="#46194F"/>
<path d="M55.5036 13.8039C55.5271 13.8508 55.5404 13.891 55.5639 13.9211C55.594 13.9579 55.5873 14.0182 55.6375 14.0383C55.6744 14.055 55.7145 14.0617 55.7413 14.0952H56.7591C56.7791 14.1153 56.7992 14.1354 56.8227 14.1588C56.8227 14.3463 56.8227 14.5371 56.8227 14.7279H55.4869C55.4534 14.7045 55.4099 14.6944 55.363 14.6844C55.3128 14.6744 55.276 14.6174 55.2258 14.6108C55.1688 14.6007 55.1488 14.5505 55.1086 14.5338C55.055 14.5137 55.0148 14.4802 54.978 14.44C54.9445 14.4032 54.9077 14.3697 54.8876 14.3496C54.8341 14.2458 54.7872 14.1554 54.737 14.0584V13.9881C54.737 13.9881 54.7068 13.9579 54.6934 13.9412V12.4548C54.6934 12.4548 54.6834 12.4447 54.6767 12.4414C54.67 12.438 54.6633 12.4347 54.6566 12.4347C54.4926 12.4347 54.3319 12.4347 54.1611 12.4347C54.1444 12.4179 54.1243 12.4012 54.0975 12.3778V11.812C54.0975 11.812 54.1277 11.7818 54.1411 11.7684C54.1544 11.7651 54.1645 11.7551 54.1779 11.7551C54.3419 11.7551 54.5026 11.7551 54.6667 11.7551C54.7001 11.7283 54.6868 11.6914 54.6868 11.658C54.6868 11.4404 54.6868 11.2194 54.6868 11.0085C54.7001 10.9984 54.7068 10.9884 54.7102 10.9884C54.9646 10.9884 55.2191 10.9884 55.4735 10.9884C55.4802 10.9951 55.4869 10.9984 55.4902 11.0051C55.4902 11.0118 55.4969 11.0185 55.4969 11.0252C55.4969 11.2596 55.4969 11.4939 55.4969 11.7249C55.4969 11.7316 55.5036 11.735 55.507 11.7417C55.5137 11.745 55.517 11.7517 55.5237 11.7517C55.5304 11.7517 55.5371 11.7517 55.5438 11.7517H56.8361C56.8595 11.7751 56.8796 11.7952 56.8997 11.8153V12.3744C56.8829 12.3878 56.8595 12.4079 56.826 12.4347H55.5137C55.5137 12.4347 55.4936 12.4514 55.4936 12.4581C55.4936 12.9101 55.4936 13.3654 55.4936 13.8006L55.5036 13.8039Z" fill="#46194F"/>
<path d="M20.0669 13.9279C20.1573 13.8375 20.1539 13.8341 20.2209 13.6567C20.2343 13.6199 20.251 13.5797 20.2745 13.5529C20.3046 13.5161 20.2979 13.4592 20.3448 13.4324C20.328 13.3788 20.4017 13.3587 20.3916 13.3018C20.3849 13.2616 20.4184 13.2148 20.4385 13.1746C20.4586 13.1344 20.4887 13.0943 20.5121 13.0574C20.4887 12.9905 20.5624 12.947 20.5557 12.8833C20.6025 12.8432 20.6126 12.7796 20.6394 12.726C20.6561 12.6925 20.6862 12.6657 20.6862 12.6155C20.6862 12.5787 20.7063 12.5385 20.7264 12.5084C20.7498 12.4749 20.7565 12.428 20.7833 12.4046C20.8168 12.3745 20.7967 12.3209 20.8402 12.3008C20.857 12.187 20.9239 12.0933 20.9708 11.9928C20.9942 11.9426 20.9708 11.8723 21.021 11.8154C21.0378 11.8087 21.0578 11.8053 21.0746 11.7986C21.0913 11.7886 21.1081 11.7752 21.1281 11.7618H21.9015C21.9082 11.7786 21.9182 11.7953 21.9149 11.8053C21.8881 11.8589 21.858 11.9091 21.8312 11.9627C21.8613 12.0263 21.7843 12.0598 21.7877 12.1167C21.7441 12.1435 21.7508 12.2004 21.7174 12.2372C21.6805 12.274 21.7274 12.351 21.6604 12.3812C21.6705 12.4347 21.6136 12.4582 21.6069 12.5084C21.6035 12.5486 21.5567 12.5854 21.5366 12.6256C21.5198 12.6624 21.5433 12.7059 21.5065 12.7427C21.4763 12.7729 21.4596 12.8231 21.4462 12.8666C21.4361 12.9068 21.3826 12.9269 21.3993 12.9737C21.3558 13.0005 21.3692 13.0474 21.3591 13.0842C21.3491 13.1277 21.319 13.1679 21.2955 13.2047C21.2721 13.2382 21.2788 13.2884 21.2353 13.3085C21.2621 13.3788 21.1985 13.4223 21.1851 13.4793C21.175 13.5295 21.1315 13.5696 21.1047 13.6165C21.088 13.65 21.0578 13.6935 21.0645 13.727C21.0779 13.7873 21.0009 13.804 21.0177 13.8576C20.9808 13.881 20.9875 13.9346 20.9574 13.958C20.9239 13.9881 20.944 14.0417 20.9005 14.0618C20.8938 14.1923 20.7934 14.2861 20.7565 14.4167C20.6728 14.5003 20.5791 14.5874 20.482 14.6845C20.4954 14.6811 20.3648 14.7247 20.3548 14.728H19.7723C19.712 14.6979 19.6518 14.6677 19.5681 14.6209C19.5312 14.584 19.471 14.5238 19.4107 14.4602C19.3772 14.3564 19.3069 14.266 19.2701 14.1589C19.2567 14.1254 19.2433 14.0819 19.2165 14.0551C19.1764 14.0183 19.2031 13.9747 19.1864 13.9379C19.1663 13.891 19.1295 13.8475 19.1061 13.8006C19.0793 13.7471 19.0726 13.6835 19.0224 13.6433C19.0324 13.5864 19.0023 13.5395 18.9755 13.4926C18.9387 13.4223 18.9119 13.3453 18.8684 13.2817C18.8382 13.2416 18.8684 13.1913 18.8382 13.1679C18.8014 13.1378 18.8114 13.0909 18.7813 13.0608C18.7512 13.034 18.7646 12.9804 18.7211 12.9603C18.7478 12.89 18.6842 12.8465 18.6708 12.7896C18.6608 12.7394 18.6173 12.6992 18.5905 12.6523C18.5738 12.6189 18.5436 12.5753 18.5503 12.5419C18.5637 12.4816 18.4867 12.4649 18.5034 12.4113C18.4666 12.3879 18.4733 12.3343 18.4432 12.3109C18.4097 12.2807 18.4298 12.2272 18.3863 12.2071C18.3863 12.11 18.3126 12.0397 18.2892 11.9493C18.2858 11.9326 18.2658 11.9158 18.249 11.8991C18.249 11.8556 18.2356 11.8053 18.2624 11.7551H19.0425C19.0625 11.7853 19.0893 11.802 19.1027 11.8388C19.1395 11.9359 19.1965 12.0263 19.24 12.12C19.2567 12.1535 19.2634 12.1803 19.2701 12.2138C19.2768 12.2439 19.2969 12.274 19.3103 12.3042C19.3371 12.3644 19.3806 12.4213 19.3906 12.4816C19.4007 12.5452 19.4408 12.5887 19.4643 12.6456C19.4877 12.7059 19.5145 12.7695 19.5547 12.8197C19.5848 12.8599 19.548 12.9135 19.5948 12.9536C19.6317 12.9838 19.635 13.0474 19.6585 13.0943C19.6785 13.1344 19.7087 13.1746 19.7321 13.2114C19.712 13.2784 19.7622 13.3286 19.7823 13.3822C19.8058 13.4357 19.8292 13.4926 19.8627 13.5395C19.8961 13.5864 19.8928 13.6433 19.9162 13.6868C19.9397 13.7337 19.9698 13.7806 19.9865 13.8274C19.9999 13.8643 20.0301 13.881 20.0501 13.9178L20.0669 13.9279Z" fill="#46194F"/>
<path d="M62.0421 14.7313H61.2252C61.2252 14.7313 61.2085 14.718 61.2085 14.7113C61.2085 14.6979 61.2085 14.6845 61.2085 14.6677C61.2085 13.9881 61.2085 13.3085 61.2085 12.6289C61.2185 12.6189 61.2286 12.6088 61.2386 12.5988C61.242 12.5854 61.252 12.5753 61.252 12.562C61.252 12.5117 61.252 12.4615 61.252 12.428C61.3022 12.3343 61.3424 12.2506 61.4027 12.1334C61.4094 12.1267 61.4495 12.0966 61.4763 12.0564C61.5065 12.0129 61.5667 12.0196 61.5935 11.9828C61.6236 11.9426 61.6805 11.9359 61.7107 11.9058C61.7508 11.8623 61.8145 11.9058 61.8412 11.8623C61.8747 11.812 61.9383 11.8623 61.9718 11.8187C62.0086 11.7719 62.0655 11.7986 62.1091 11.7953C62.1559 11.792 62.2061 11.7953 62.2497 11.7953C62.2664 11.7786 62.2765 11.7685 62.2898 11.7551H63.783C63.783 11.7551 63.8165 11.7853 63.8332 11.802C63.8399 11.812 63.8466 11.8154 63.8466 11.8221C63.8466 11.8355 63.8466 11.8489 63.8466 11.8656V12.3711C63.8232 12.3946 63.8031 12.4146 63.783 12.4347H62.3367C62.3367 12.4347 62.3066 12.4615 62.2898 12.4783H62.2095C62.1559 12.5318 62.1091 12.5787 62.0555 12.6323C62.0555 13.3253 62.0555 14.0183 62.0555 14.7113C62.0555 14.718 62.0455 14.7213 62.0388 14.7313H62.0421Z" fill="#46194F"/>
<path d="M42.2897 11.8422C42.2897 11.8422 42.3098 11.8221 42.3266 11.8054H42.581C42.5977 11.7886 42.6078 11.7786 42.6245 11.7618H44.1244C44.1411 11.7786 44.1612 11.7987 44.1813 11.8188V12.3745C44.1645 12.3912 44.1411 12.408 44.1143 12.4314H42.6513C42.6044 12.4414 42.5911 12.4917 42.5442 12.4749C42.4973 12.5251 42.4504 12.5787 42.3935 12.639V12.7461C42.3935 12.7461 42.3634 12.7762 42.35 12.7963C42.35 13.4291 42.35 14.0685 42.35 14.7046C42.35 14.7113 42.3433 14.7146 42.3366 14.728H41.5566C41.5566 14.728 41.5465 14.7213 41.5432 14.7146C41.5432 14.7079 41.5432 14.7012 41.5432 14.6945C41.5432 13.9748 41.5432 13.2516 41.5432 12.5419C41.5633 12.5218 41.5733 12.5118 41.5834 12.5017V12.3778C41.5834 12.3778 41.6068 12.3578 41.6101 12.3444C41.6302 12.3042 41.6503 12.2607 41.6671 12.2205C41.6671 12.2138 41.6671 12.2071 41.6671 12.2004C41.7374 12.1301 41.8077 12.0598 41.878 11.9895C41.9717 11.9426 42.0654 11.8958 42.1692 11.8388H42.2797L42.2897 11.8422Z" fill="#46194F"/>
<path d="M13.7963 14.7347C13.7963 14.6979 13.793 14.6778 13.793 14.6577C13.793 13.9546 13.793 13.255 13.793 12.5519C13.793 12.5184 13.7963 12.4816 13.7997 12.4481C13.8633 12.4146 13.803 12.3209 13.8733 12.2874C13.88 12.2874 13.8733 12.2606 13.8767 12.2272C13.9135 12.197 13.9637 12.1569 13.9905 12.1368C14.0073 12.0899 14.014 12.0698 14.0207 12.0531H14.0675C14.1579 11.946 14.2985 11.9225 14.4157 11.8422H14.5329C14.5329 11.8422 14.563 11.812 14.5797 11.7986H14.794C14.794 11.7986 14.8141 11.7786 14.8208 11.7685C14.8342 11.7618 14.8476 11.7551 14.861 11.7551C15.3631 11.7551 15.8687 11.7551 16.3708 11.7551C16.3976 11.8924 16.401 12.1167 16.3809 12.428C16.3273 12.4481 16.2704 12.4347 16.2168 12.4347C16.1599 12.4347 16.103 12.4347 16.0461 12.4347H14.881C14.8375 12.485 14.7739 12.4983 14.7203 12.5184C14.6534 12.5452 14.6601 12.6222 14.6065 12.6657V14.7079C14.6065 14.7079 14.5898 14.728 14.5831 14.7313C14.5764 14.7313 14.5697 14.7313 14.563 14.7313H13.803L13.7963 14.7347Z" fill="#46194F"/>
<path d="M17.6866 11.7551C17.7067 11.7752 17.7268 11.7953 17.7468 11.8187V14.6744C17.7301 14.6912 17.7134 14.7079 17.7 14.7213C17.6933 14.7247 17.6899 14.7313 17.6832 14.7347C17.6765 14.7347 17.6698 14.7347 17.6631 14.7347H16.9099C16.8898 14.6677 16.9032 14.5974 16.8998 14.5305C16.8998 14.4602 16.8998 14.3899 16.8998 14.3196V11.8221C16.9199 11.802 16.9333 11.7886 16.9501 11.7719C16.9635 11.7685 16.9735 11.7585 16.9869 11.7585C17.2212 11.7585 17.4556 11.7585 17.6899 11.7585L17.6866 11.7551Z" fill="#46194F"/>
<path d="M0.0636178 13.2449C0.0368352 13.2182 0.0234439 13.2048 0.00335693 13.1847V12.9972C0.0267917 12.9972 0.0468787 12.9905 0.0669657 12.9905C2.45397 12.9738 6.94675 12.9805 7.23132 13.0039V13.1847C7.21123 13.2081 7.19114 13.2315 7.1744 13.2483H0.0636178V13.2449Z" fill="#46194F"/>
<path d="M69.7687 13.2283V13.0073C69.7687 13.0073 69.7821 12.9906 69.7854 12.9906C69.7988 12.9906 69.8122 12.9906 69.829 12.9906C72.1959 12.9906 74.5661 12.9906 76.9331 12.9906C76.9398 12.9906 76.9431 12.9973 76.9531 13.0073V13.2283C76.9531 13.2283 76.9398 13.2417 76.9364 13.245C76.9297 13.245 76.923 13.245 76.9163 13.245C74.5394 13.245 72.1658 13.245 69.7888 13.245C69.7821 13.245 69.7788 13.2383 69.7687 13.2283Z" fill="#46194F"/>
<path d="M16.8964 10.6268C16.9164 10.6068 16.9365 10.5867 16.96 10.5632H17.6864C17.6864 10.5632 17.7233 10.5967 17.7467 10.6201V11.3065C17.7467 11.3065 17.7166 11.3399 17.6998 11.3567C17.6898 11.3634 17.6864 11.3701 17.6798 11.3701C17.6664 11.3701 17.653 11.3701 17.6362 11.3701H16.96C16.9365 11.3466 16.9164 11.3265 16.8964 11.3065C16.8964 11.0788 16.8964 10.8511 16.8964 10.6268Z" fill="#46194F"/>
</svg>
