<svg width="20" height="18" viewBox="0 0 20 18" fill="none" xmlns="http://www.w3.org/2000/svg">
<path d="M6.28413 10.5224C7.40381 10.3708 8.03707 11.1378 9.13228 11.2249C10.4221 11.327 10.7109 10.985 11.7775 10.6101C13.3114 10.0712 15.0393 11.5263 15.5311 12.9122C15.962 14.1262 16.0426 17.0161 14.2705 17.1689H4.84155C3.07727 17.0173 3.15188 14.1596 3.56908 12.9444C3.94389 11.8534 5.10954 10.6806 6.28413 10.5218V10.5224Z" fill="#46194F"/>
<path d="M4.85472 8.46631C4.87859 8.48063 5.11494 8.8465 5.1788 8.92349C5.23133 8.98676 5.54169 9.24639 5.49036 9.30428C3.65923 9.82473 2.31633 11.5108 2 13.364C0.979988 13.5115 0.196926 13.1104 0.0518919 12.0402C-0.172522 10.3834 0.304955 8.64417 1.99463 8.01927C3.06298 7.62416 3.23786 8.06105 4.12776 8.32187C4.27995 8.36663 4.80458 8.43527 4.85531 8.46571L4.85472 8.46631Z" fill="#46194F"/>
<path d="M17.1125 13.3639C16.7908 11.5089 15.4575 9.82398 13.6222 9.30413C13.5708 9.24623 13.8812 8.9866 13.9337 8.92334C13.9976 8.84635 14.2339 8.48048 14.2578 8.46616C14.3085 8.43572 14.8332 8.36708 14.9854 8.32231C15.8896 8.05732 16.068 7.61445 17.1507 8.03225C18.8207 8.67624 19.2361 10.3194 19.072 11.9625C18.9621 13.0631 18.166 13.5262 17.1125 13.3645V13.3639Z" fill="#46194F"/>
<path d="M4.06081 6.89179C2.91128 6.58442 1.92887 5.49517 1.67819 4.33848C1.0527 1.45751 3.93905 -0.897651 6.60695 0.346774C4.40041 1.69744 3.34757 4.38504 4.06081 6.89179Z" fill="#46194F"/>
<path d="M9.55595 9.54531C11.9266 9.54531 13.8485 7.62348 13.8485 5.25279C13.8485 2.88209 11.9266 0.960266 9.55595 0.960266C7.18525 0.960266 5.26343 2.88209 5.26343 5.25279C5.26343 7.62348 7.18525 9.54531 9.55595 9.54531Z" fill="#46194F"/>
<path d="M16.4659 6.07219C16.0994 6.43149 15.5539 6.76871 15.0519 6.89166C15.6792 4.63498 14.9308 2.2291 13.1074 0.772194C12.948 0.645066 12.7183 0.535843 12.572 0.414086C12.5225 0.372904 12.4801 0.351417 12.5499 0.302476C12.723 0.181913 13.4595 0.0267326 13.6875 0.0100209C16.969 -0.225734 18.8276 3.75404 16.4659 6.07219Z" fill="#46194F"/>
</svg>
