<svg width="18" height="18" viewBox="0 0 18 18" fill="none" xmlns="http://www.w3.org/2000/svg">
<path d="M9.68656 4.19704C8.52563 4.17552 7.33461 4.14466 6.25372 4.60718C5.55318 4.90696 4.96858 5.39895 4.35343 5.8264C4.21274 5.86101 4.04973 5.74596 4.03469 5.60519C4.01674 5.43683 4.16616 4.87048 4.21904 4.67593C4.62462 3.18406 5.56191 2.09907 7.11387 1.64964C7.94879 1.40785 8.82496 1.37184 9.6919 1.35126C9.73702 0.684835 10.3502 0.331744 10.9877 0.608604C11.8289 0.973855 12.6905 1.64823 13.5386 2.0378C14.0106 2.40165 14.0101 3.03768 13.5386 3.40106C12.6944 3.76865 11.7712 4.52955 10.9363 4.85131C10.3371 5.08187 9.83016 4.77648 9.68656 4.1975V4.19704ZM4.68041 4.96355C5.27374 4.53002 5.92285 4.14092 6.64134 3.92906C7.72466 3.60964 8.87396 3.713 9.99269 3.70832C10.2566 3.78876 10.1732 3.94216 10.2086 4.13109C10.244 4.32003 10.4361 4.46969 10.637 4.42339L13.2485 2.97969C13.4721 2.73323 13.3794 2.55551 13.1388 2.38856C12.5799 2.00226 11.6485 1.53225 11.0241 1.20442C10.8121 1.09311 10.6049 0.91259 10.3638 1.07019C10.0417 1.28111 10.3692 1.7586 10.0208 1.86149C9.76467 1.93679 9.08596 1.86056 8.76625 1.87739C7.84255 1.9265 6.83589 2.15566 6.08489 2.68974C5.32565 3.22989 4.89193 4.09275 4.6809 4.96355H4.68041Z" fill="#46194F"/>
<path d="M13.8216 12.5845C13.9609 12.7187 13.8202 13.2299 13.7775 13.4169C13.4743 14.7456 12.7514 15.875 11.4478 16.4633C10.4475 16.9146 9.33021 16.9708 8.23962 16.9946C8.2435 17.6325 7.55606 18.0258 6.96661 17.7504C6.20931 17.2733 5.35401 16.8959 4.59671 16.4264C3.97233 16.0392 3.81127 15.5028 4.37209 14.9603C5.2206 14.5842 6.15207 13.8196 6.99475 13.4946C7.61719 13.2547 8.08146 13.5834 8.26339 14.1549C9.18079 14.147 10.1137 14.1994 11.0073 13.9679C11.6472 13.8023 12.2333 13.4749 12.7689 13.1087C12.9285 12.9998 13.5048 12.5069 13.6324 12.5073C13.6693 12.5073 13.7964 12.5597 13.8221 12.5845H13.8216ZM13.2501 13.3814C12.6098 13.8505 11.9019 14.2625 11.116 14.4589C10.0793 14.7175 9.00032 14.6376 7.93835 14.6371C7.67443 14.5567 7.75788 14.4033 7.72246 14.2143C7.68705 14.0254 7.48814 13.8631 7.28584 13.9155L4.68306 15.3657C4.44971 15.6286 4.56129 15.8039 4.81502 15.9704C5.41174 16.3628 6.26219 16.8019 6.90791 17.141C7.11992 17.2523 7.32707 17.4328 7.56819 17.2752C7.89032 17.0643 7.56285 16.5868 7.91118 16.4839C8.16733 16.4086 8.84604 16.4849 9.16575 16.468C9.92645 16.4273 10.8337 16.244 11.4964 15.8783C12.4662 15.3423 13.0061 14.414 13.2511 13.3819L13.2501 13.3814Z" fill="#46194F"/>
<path d="M17.0637 9.87408C17.7594 9.89839 18.1193 10.5101 17.8326 11.126C17.4576 11.9318 16.7658 12.7549 16.367 13.5687C16.0017 14.0405 15.3535 14.0546 14.9572 13.6098C14.5526 12.79 13.8321 11.9402 13.4615 11.126C13.1801 10.5078 13.5008 10.0387 14.1232 9.85116C14.115 8.96492 14.1693 8.06372 13.9297 7.20087C13.7579 6.58121 13.4198 6.0186 13.0399 5.49949C12.9303 5.34937 12.4165 4.78021 12.4175 4.66563C12.4194 4.26905 13.0816 4.46781 13.3295 4.51879C15.013 4.86486 16.2627 5.78383 16.7624 7.41133C17.0079 8.21057 17.0389 9.0449 17.0637 9.87408ZM13.3232 5.03416C13.8089 5.65289 14.2358 6.33662 14.4386 7.09565C14.7064 8.09693 14.6239 9.1389 14.6229 10.165C14.54 10.4198 14.3808 10.3394 14.1848 10.3735C13.9888 10.4077 13.8142 10.5976 13.8831 10.7879L15.3768 13.3096C15.649 13.535 15.8304 13.427 16.0027 13.1824C16.4073 12.6081 16.8648 11.7831 17.2145 11.1611C17.3295 10.9563 17.5168 10.7561 17.3538 10.5237C17.1355 10.2127 16.6406 10.5288 16.5349 10.1926C16.4568 9.94516 16.5358 9.28949 16.5184 8.98083C16.4766 8.24612 16.2865 7.3697 15.9076 6.72946C15.355 5.79599 14.3886 5.26659 13.3232 5.03463V5.03416Z" fill="#46194F"/>
<path d="M3.81404 8.47619C3.79172 9.59719 3.7597 10.7481 4.23854 11.792C4.54854 12.4682 5.05842 13.0332 5.50087 13.6276C5.53677 13.7637 5.41791 13.9213 5.27188 13.9358C5.09869 13.9531 4.50973 13.809 4.30985 13.758C2.76517 13.3629 1.64256 12.4635 1.17634 10.9619C0.926006 10.1556 0.88865 9.30911 0.867304 8.47198C0.176951 8.42848 -0.188359 7.83595 0.0983583 7.22002C0.476767 6.40628 1.17585 5.5771 1.57803 4.75587C1.95499 4.29989 2.61332 4.30036 2.9893 4.75587C3.36917 5.57289 4.15752 6.46193 4.49081 7.26913C4.73144 7.85185 4.41416 8.32747 3.81404 8.47619ZM4.60773 13.3114C4.06534 12.6258 3.60786 11.8532 3.42738 10.9969C3.23236 10.0728 3.31241 9.1197 3.30804 8.18062C3.391 7.92574 3.55012 8.00618 3.74612 7.97204C3.94212 7.9379 4.09688 7.75223 4.04885 7.55815L2.55413 5.03601C2.28197 4.81059 2.10053 4.91862 1.9283 5.16321C1.5237 5.73751 1.06621 6.56248 0.716426 7.18448C0.601448 7.38932 0.414184 7.58948 0.577191 7.82192C0.795504 8.13292 1.29035 7.81677 1.39611 8.15303C1.47421 8.40042 1.39514 9.0561 1.4126 9.36476C1.45432 10.0995 1.6445 10.9759 2.02339 11.6161C2.57791 12.5529 3.53945 13.0743 4.60773 13.311V13.3114Z" fill="#46194F"/>
<path d="M8.84903 5.3252C11.9069 5.23307 13.9221 8.41743 12.458 11.0205C11.0244 13.5697 7.25923 13.6927 5.62383 11.2609C3.93603 8.75135 5.77276 5.41779 8.84903 5.3252ZM8.55843 5.85086C6.42625 6.04868 5.04214 8.18734 5.65148 10.1464C6.3593 12.4235 9.3104 13.2779 11.1981 11.7323C13.7999 9.60204 12.0034 5.53097 8.55892 5.85086H8.55843Z" fill="#46194F"/>
<path d="M9.25992 7.17013C9.71984 7.20802 10.3719 7.74724 10.4475 8.18264C10.4902 8.42817 10.2394 8.58717 10.0361 8.43705C9.88284 8.32434 9.84549 7.98622 9.53597 7.79821C8.81699 7.36188 7.73368 8.03299 8.31051 8.63067C8.5817 8.91174 9.05277 8.88882 9.40886 8.97253C10.9128 9.32609 10.7721 11.0864 9.25604 11.1715C9.25362 11.389 9.33124 11.8534 8.98485 11.8408C8.61905 11.8277 8.78352 11.4105 8.74422 11.1748C8.26878 11.1084 7.7982 10.846 7.5794 10.4232C7.49644 10.2628 7.37128 9.92237 7.59493 9.83024C7.98789 9.66843 7.97625 10.1964 8.20669 10.4134C8.83009 10.9999 10.4019 10.6024 9.85276 9.80592C9.55198 9.37005 8.99261 9.46639 8.53755 9.32235C7.19566 8.89724 7.45132 7.39602 8.74277 7.16826C8.78885 6.96109 8.63021 6.57573 8.91887 6.51353C9.32396 6.42654 9.2575 6.92274 9.25944 7.1692L9.25992 7.17013Z" fill="#46194F"/>
</svg>
