<svg width="19" height="23" viewBox="0 0 19 23" fill="none" xmlns="http://www.w3.org/2000/svg">
<path d="M0 22.5132V2.63399H4.57408V1.42481L4.63989 1.35901H5.89313C6.11993 -0.449475 8.69928 -0.456526 8.92783 1.35901H10.1811L10.2469 1.42481V2.63399H14.821V10.4185C14.4443 10.3791 14.0501 10.328 13.6776 10.4185V3.68923H1.09931V21.5014H13.6776V21.106C14.0519 21.2041 14.4432 21.1319 14.821 21.106V22.5138H0V22.5132Z" fill="#46194F"/>
<path d="M12.0991 8.21508L12.2713 8.21861C12.2713 8.42014 12.3194 8.79852 12.0944 8.89958C11.82 9.02355 10.8882 8.84905 10.5392 8.92778L10.4886 8.96538C10.2195 10.1041 8.69895 10.0524 8.43866 8.92837H6.14192C6.03558 9.04705 6.02735 9.18983 5.93099 9.33319C5.39162 10.1311 4.22122 9.84318 4.04084 8.92837C3.71945 8.86021 2.80875 9.0541 2.61838 8.7897C2.53789 8.67807 2.52202 8.33435 2.55258 8.20568C2.56021 8.17395 2.62719 8.17806 2.63601 8.14164C2.73237 7.73564 2.62543 7.29498 2.94506 6.9636C3.33989 6.55407 3.85224 6.7274 4.35459 6.65807C4.78174 6.23797 5.28292 5.25559 5.91513 5.18391C6.40515 5.12868 7.4363 5.14278 7.93983 5.18273C8.49977 5.2268 8.71481 5.46945 9.10436 5.8214C9.33291 6.02822 9.89402 6.68804 10.1161 6.78851C10.3065 6.87429 10.7971 6.90249 11.0615 6.9871C11.7101 7.19333 11.9886 7.5394 12.0985 8.21508H12.0991ZM6.81702 5.66863H5.9592C5.70831 5.66863 5.09197 6.7415 4.88163 6.94421H6.81702V5.66863ZM9.41223 6.94362C9.05853 6.62987 8.66075 6.06406 8.29118 5.79966C8.24771 5.76852 8.05852 5.66805 8.02679 5.66805H7.16896V6.94362H9.41223ZM4.95918 8.14105C4.27469 8.23976 4.29231 9.26973 4.95155 9.35904C5.93981 9.49242 5.86871 8.01003 4.95918 8.14105ZM9.92516 8.32201C9.26064 7.66161 8.37344 8.79676 9.13373 9.26738C9.81529 9.68925 10.3893 8.78324 9.92516 8.32201Z" fill="#46194F"/>
<path d="M13.9325 11.3552C16.9813 11.1736 19.251 14.1172 18.3844 17.0385C17.4855 20.0685 13.7052 21.1872 11.3021 19.1055C8.30439 16.5092 9.99183 11.5902 13.9325 11.3552ZM16.301 13.3246L13.298 16.3529L12.0224 15.1719L10.9495 16.2459L13.3039 18.5568L17.4126 14.3928L16.3004 13.3246H16.301Z" fill="#46194F"/>
<path d="M10.5117 11.7817C9.97522 12.334 9.56158 12.9422 9.21434 13.629H2.46338V11.7817H10.5117Z" fill="#46194F"/>
<path d="M8.79659 15.8721C8.81363 16.5049 8.95229 17.1224 9.14853 17.7193H2.46338V15.8721H8.79659Z" fill="#46194F"/>
</svg>
