<svg width="25" height="14" viewBox="0 0 25 14" fill="none" xmlns="http://www.w3.org/2000/svg">
<g clip-path="url(#clip0_327_3079)">
<path d="M25.0001 10.8416C24.6931 11.7405 23.7613 11.4041 23.0542 11.4534C22.4677 8.35929 18.4555 8.36219 17.8964 11.4621L8.29596 11.4534C8.23841 11.4331 8.07123 10.7865 7.99998 10.6328C7.06816 8.64057 4.34124 8.62027 3.37928 10.6009C3.23951 10.888 3.20114 11.1982 3.06411 11.4563C2.32414 11.3867 1.35396 11.5781 0.644133 11.4505C0.386514 11.4041 0.123414 11.1547 0.0548981 10.8851C-0.0136176 10.6154 -0.0163582 9.32784 0.0439356 9.03205C0.101489 8.74497 0.364589 8.48978 0.635911 8.42018L19.2804 8.37669C19.4722 8.30999 19.5627 8.1331 19.5873 7.92721V1.57945C19.6312 1.22277 19.9299 0.947288 20.2561 0.889291C20.6754 0.813895 22.0457 0.828394 22.4842 0.883492C22.9391 0.941488 23.2516 1.25177 23.4489 1.66935C24.0326 2.90178 24.367 4.4039 24.9535 5.65373V7.48643H23.8079C23.5996 7.48643 23.257 7.84602 23.1639 8.0432C22.5746 9.26984 23.9806 10.192 25.0028 9.9629V10.8416H25.0001ZM21.6949 6.3352C21.8073 6.38739 23.9093 6.38159 24.1395 6.3468C24.6931 6.2656 24.6986 5.53194 24.1806 5.43335C23.4242 5.28835 22.3499 5.51744 21.5579 5.41885L21.2975 5.17816C21.3249 4.4851 21.2262 3.69924 21.2838 3.01778C21.3578 2.17102 22.5171 2.84379 22.9611 2.46971C23.1831 2.28412 23.1255 1.79404 22.8597 1.71285C22.7007 1.66355 21.7168 1.68095 21.503 1.70125C21.0481 1.74475 20.6617 2.12172 20.5301 2.5799C20.4068 3.00908 20.4013 4.94327 20.5301 5.36665C20.6315 5.69433 20.8974 6.02491 21.2043 6.15251C21.3907 6.2308 21.5168 6.2482 21.6922 6.3323L21.6949 6.3352ZM20.6918 6.87747C20.648 6.89197 20.5301 7.00506 20.5082 7.04566C20.4397 7.17615 20.4369 8.0432 20.4643 8.23169C20.5301 8.66957 21.1851 8.67537 21.2811 8.22299C21.3167 8.0606 21.3139 7.43134 21.2893 7.25735C21.2427 6.93256 20.9851 6.78467 20.6918 6.87747Z" fill="#46194F"/>
<path d="M25 8.46638V8.98255C24.8246 9.17104 24.5999 9.12175 24.3751 9.04925C24.1504 8.97676 23.6324 8.65777 23.9284 8.39099C24.0764 8.25759 24.8547 8.24309 25 8.46638Z" fill="#46194F"/>
<path d="M16.7919 6.75243L15.9259 6.81623C15.8848 4.27887 12.3548 4.36876 12.4617 6.92062H6.50908C6.605 4.29917 2.97367 4.31366 3.04492 6.92062C2.36525 6.96122 1.77876 6.37255 1.15389 6.13477C1.09634 6.07097 1.03056 5.5548 1.03879 5.4504C1.05523 5.28511 1.31011 5.05603 1.39233 4.84144C1.47455 4.62685 1.54032 4.01498 1.65817 3.93669C1.85001 3.81199 2.40088 3.91349 2.69138 3.84099C3.38202 3.6699 4.40428 2.98844 5.10588 2.68105C6.3419 2.13878 8.0959 1.7502 9.31822 2.47516C9.9376 2.84344 10.9407 3.99468 11.5272 4.11358C12.0698 4.22377 12.829 4.10198 13.4072 4.13677C14.5775 4.20927 15.819 4.54565 16.8221 5.16912C16.8358 5.42431 16.9098 6.62484 16.7864 6.75823L16.7919 6.75243Z" fill="#46194F"/>
<path d="M20.2066 10.0296C22.78 9.63232 23.0239 13.724 20.582 13.8371C18.3512 13.9386 18.0524 10.3631 20.2066 10.0296Z" fill="#46194F"/>
<path d="M6.9806 10.5512C8.68801 12.3578 6.05975 15.0053 4.41263 13.19C2.76278 11.3747 5.36637 8.84027 6.9806 10.5512Z" fill="#46194F"/>
<path d="M14.1086 5.79581C14.4539 5.75811 14.8403 6.0046 15.0075 6.31488C15.5282 7.28633 14.3086 8.30707 13.533 7.51542C12.941 6.90935 13.3165 5.87991 14.1113 5.79581H14.1086Z" fill="#46194F"/>
<path d="M4.13542 7.52129C3.2502 6.61364 4.51089 5.18691 5.429 6.07427C6.33889 6.95002 5.02338 8.43474 4.13542 7.52129Z" fill="#46194F"/>
</g>
<defs>
<clipPath id="clip0_327_3079">
<rect width="25" height="13" fill="white" transform="translate(0 0.839844)"/>
</clipPath>
</defs>
</svg>
