<svg width="26" height="26" viewBox="0 0 26 26" fill="none" xmlns="http://www.w3.org/2000/svg">
<path d="M9.14576 12.0568H19.067C19.4659 12.0568 19.9093 12.5952 19.8989 12.9911C19.8885 13.4093 19.4362 13.8839 19.0151 13.8839H9.14576L12.5729 17.3333C13.2818 18.318 11.9946 19.3635 11.1493 18.4515C9.72116 16.8172 7.78437 15.3506 6.40519 13.7074C5.94101 13.1542 5.91135 12.828 6.37998 12.2585C7.75619 10.5916 9.76416 9.09233 11.2027 7.44028C12.0124 6.60239 13.2625 7.64938 12.5967 8.5807L9.14576 12.0568Z" fill="#46194F"/>
<path d="M13.865 25.9612H12.1403L10.8604 25.7937C5.44307 24.9024 1.0727 20.5261 0.178455 15.1117L0.0108775 13.8319C0.0360883 13.2654 -0.0232313 12.6692 0.0108775 12.1071C0.713815 0.72073 14.9683 -4.22949 22.6962 4.3155C29.9273 12.3133 24.5277 25.3147 13.865 25.9598V25.9612ZM24.2074 12.9702C24.2074 6.78171 19.1904 1.76624 13.0034 1.76624C6.81632 1.76624 1.79788 6.78171 1.79788 12.9702C1.79788 19.1588 6.81484 24.1742 13.0019 24.1742C19.1889 24.1742 24.2059 19.1573 24.2059 12.9702H24.2074Z" fill="#46194F"/>
</svg>
