<svg width="18" height="17" viewBox="0 0 18 17" fill="none" xmlns="http://www.w3.org/2000/svg">
<path d="M6.02021 0.852408H14.055C13.9363 -0.261499 15.4307 -0.230603 15.3575 0.849156C16.8227 0.975995 17.8943 2.02974 17.9919 3.50953V14.2258C17.8976 15.6389 16.8633 16.7317 15.4535 16.8813L4.61848 16.8846C3.42326 16.8325 2.35001 15.9853 2.08007 14.8177C1.35481 14.8551 0.670203 14.6421 0.273425 14.0079C-0.34451 13.0192 0.227893 12.372 0.590522 11.4744C1.2296 9.89051 1.8394 7.77165 2.00364 6.0707C2.09958 5.07875 1.8394 3.83475 2.10446 2.88509C2.42644 1.7354 3.51921 0.901193 4.72093 0.896314C4.55831 -0.268004 6.14055 -0.315162 6.01859 0.855661L6.02021 0.852408ZM3.26065 3.4705C3.20211 3.99412 3.30456 4.61856 3.26065 5.15518H16.6519V3.30951C16.6519 3.23796 16.5023 2.93712 16.4552 2.85582C16.234 2.47693 15.795 2.20373 15.3526 2.19235C15.4502 3.28512 13.946 3.27211 14.055 2.19235H6.04461C5.94866 3.18918 4.73556 3.21032 4.68027 2.19235C3.95664 2.14031 3.3387 2.77939 3.26065 3.4705ZM3.17934 6.4935C2.89477 8.75546 2.23943 10.9589 1.28976 13.0241C1.28001 13.2355 1.41823 13.4046 1.60849 13.481L13.8338 13.5136C14.8307 13.4794 15.2356 12.0273 15.5266 11.2305C15.9901 9.96531 16.543 7.96191 16.6097 6.62847C16.6113 6.58131 16.5934 6.49187 16.5511 6.49187H3.17934V6.4935ZM3.46392 14.7706C3.64767 15.208 4.12576 15.4731 4.57945 15.5414H15.2925C15.9234 15.5479 16.6503 14.9007 16.6503 14.2632V11.8077L15.9966 13.3249C15.6893 13.9819 14.738 14.7706 13.9932 14.7706H3.46392Z" fill="#46194F"/>
<path d="M6.88704 8.77977C7.08868 8.56512 7.44155 8.49195 7.69848 8.64968L9.20592 10.1441L11.5118 7.86426C12.0614 7.47235 12.8208 8.17973 12.4322 8.74562L9.59294 11.5865C9.33763 11.7865 9.05631 11.7491 8.80101 11.5654C8.49041 11.3409 7.06266 9.90994 6.83337 9.59772C6.64637 9.34242 6.67238 9.01069 6.88866 8.77977H6.88704Z" fill="#46194F"/>
</svg>
