<svg width="12" height="14" viewBox="0 0 12 14" fill="none" xmlns="http://www.w3.org/2000/svg">
<g clip-path="url(#clip0_327_2791)">
<path d="M3.35382 13.4569C3.48255 13.4699 3.70093 13.4673 3.83196 13.4569C5.71698 13.3009 8.10313 11.3746 9.36516 9.84092C10.5238 8.43197 12.1927 5.60886 11.9582 3.61242C11.8594 2.77276 11.1513 2.0033 10.6042 1.46259C9.73987 0.604746 9.22034 1.14025 8.56748 1.86292C8.23416 2.23206 7.40199 3.06651 7.25027 3.51363C6.89856 4.54305 7.82957 5.14095 8.333 5.80123C8.11922 6.31074 7.82957 6.77606 7.50774 7.20498C7.18591 7.63391 6.8227 8.04463 6.45949 8.38777C6.09628 8.73091 5.6756 9.06886 5.22963 9.30801C4.59057 8.70752 3.99978 7.53253 3.03428 8.19801C2.68257 8.43977 1.70788 9.59136 1.40444 9.98389C1.101 10.3764 0.933183 10.8079 1.10329 11.3565C1.22973 11.762 1.87569 12.4535 2.16764 12.7784C2.48717 13.1345 2.89635 13.4101 3.35152 13.4595L3.35382 13.4569Z" fill="#46194F"/>
</g>
<defs>
<clipPath id="clip0_327_2791">
<rect width="11.6549" height="13.1927" fill="white" transform="matrix(-1 0 0 1 11.9814 0.274658)"/>
</clipPath>
</defs>
</svg>
