<svg width="111" height="57" viewBox="0 0 111 57" fill="none" xmlns="http://www.w3.org/2000/svg">
<path d="M0 42.37C1.36 46.13 5.47 44.72 8.59 44.93C11.19 32.01 28.91 32.02 31.37 44.97L73.79 44.93C74.05 44.84 74.78 42.15 75.1 41.5C79.22 33.18 91.27 33.1 95.52 41.36C96.14 42.56 96.3 43.85 96.91 44.93C100.18 44.64 104.46 45.43 107.61 44.91C108.75 44.72 109.92 43.68 110.21 42.55C110.5 41.42 110.52 36.04 110.26 34.82C110 33.6 108.84 32.55 107.65 32.26L25.28 32.08C24.43 31.8 24.03 31.06 23.92 30.2V3.69998C23.73 2.20998 22.41 1.05999 20.96 0.819993C19.11 0.509993 13.06 0.559979 11.12 0.789979C9.17999 1.01998 7.73 2.31999 6.85 4.06999C4.27 9.21999 2.79 15.49 0.209999 20.71V28.36H5.28C6.2 28.36 7.71 29.86 8.13 30.69C10.73 35.81 4.53 39.66 0 38.71V42.37ZM14.6 23.54C14.11 23.76 4.81999 23.74 3.78999 23.59C1.33999 23.25 1.31999 20.19 3.60999 19.78C6.94999 19.18 11.7 20.13 15.19 19.72L16.34 18.71C16.22 15.82 16.65 12.54 16.39 9.68999C16.07 6.15999 10.94 8.96999 8.96999 7.40999C7.98999 6.62999 8.24 4.58999 9.42 4.24999C10.13 4.03999 14.46 4.10998 15.42 4.19998C17.44 4.37998 19.14 5.95998 19.72 7.86998C20.26 9.65998 20.29 17.74 19.72 19.51C19.28 20.88 18.09 22.26 16.75 22.79C15.92 23.11 15.37 23.19 14.6 23.54ZM19.03 25.81C19.22 25.87 19.74 26.34 19.84 26.51C20.15 27.06 20.16 30.68 20.03 31.46C19.74 33.29 16.85 33.31 16.42 31.43C16.27 30.75 16.28 28.12 16.39 27.39C16.6 26.03 17.73 25.42 19.03 25.8V25.81Z" fill="#46194F"/>
<path d="M0 32.45V34.61C0.78 35.4 1.76999 35.19 2.75999 34.89C3.74999 34.59 6.05 33.26 4.73 32.14C4.08 31.58 0.63 31.52 0 32.46V32.45Z" fill="#46194F"/>
<path d="M29.93 24.57L30.53 24.61C31.59 24.68 32.57 23.97 32.77 22.92C34.54 13.47 48.59 13.82 49.75 23.41C49.88 24.46 50.8 25.23 51.86 25.23H77.37C78.42 25.23 79.35 24.47 79.48 23.42C80.67 13.62 94.96 13.57 96.5 23.14C96.71 24.45 98.05 25.24 99.31 24.82C101.33 24.13 103.24 22.75 105.2 21.87C105.82 21.59 106.26 21.01 106.38 20.34C106.53 19.54 106.63 18.6 106.6 18.31C106.52 17.53 105.25 16.45 104.84 15.45C104.43 14.45 104.11 11.56 103.51 11.2C102.56 10.61 99.81 11.09 98.38 10.75C94.95 9.94999 89.87 6.74998 86.37 5.28998C80.23 2.73998 71.5 0.909993 65.42 4.31999C62.34 6.04999 57.35 11.46 54.43 12.01C51.73 12.52 47.96 11.95 45.08 12.12C39.66 12.44 33.93 13.84 29.13 16.39C28.48 16.74 28.07 17.41 28.03 18.15C27.97 19.37 27.89 21.14 27.94 22.5C27.98 23.59 28.84 24.47 29.93 24.55V24.57Z" stroke="#46194F" stroke-width="2" stroke-miterlimit="10"/>
<path d="M21.18 38.97C9.81002 37.31 8.73001 54.4 19.52 54.87C29.37 55.3 30.7 40.36 21.18 38.97Z" stroke="#46194F" stroke-width="3" stroke-miterlimit="10"/>
<path d="M79.61 41.15C72.07 48.7 83.68 59.74 90.96 52.17C98.24 44.59 86.75 34 79.61 41.15Z" stroke="#46194F" stroke-width="3" stroke-miterlimit="10"/>
<path d="M41.61 19.95C39.89 19.78 37.97 20.93 37.14 22.39C34.56 26.96 40.62 31.75 44.48 28.03C47.43 25.19 45.56 20.34 41.61 19.95Z" fill="#46194F"/>
<path d="M91.21 28.06C95.61 23.79 89.35 17.09 84.77 21.26C80.25 25.38 86.78 32.36 91.21 28.06Z" fill="#46194F"/>
</svg>
