<svg width="24" height="24" viewBox="0 0 24 24" fill="none" xmlns="http://www.w3.org/2000/svg">
<path d="M20.0497 3.85205V4.6721H21.0861C22.1268 4.6721 23.2563 5.9357 23.2779 6.96129L23.9075 15.681C23.9768 16.6309 23.5635 17.4509 22.8473 18.0438C23.4272 18.4051 23.8513 19.0369 23.9054 19.7315C23.9486 20.2962 23.544 21.9622 23.3623 22.5594C23.1135 23.3838 22.5422 23.8879 21.6681 23.9485C19.3313 24.1108 16.8019 23.8273 14.4435 23.9399C13.7944 23.862 13.2059 23.4249 12.9679 22.8147C12.758 22.2803 12.2949 20.2096 12.3425 19.6817C12.4053 19.0109 12.8445 18.3943 13.4006 18.0438C12.6584 17.4206 12.3209 16.7066 12.3382 15.7286C12.3923 12.8357 12.9051 9.8282 12.9722 6.91802C13.0025 5.90757 14.1363 4.6721 15.1597 4.6721H16.1961V3.85205C15.2376 3.72007 14.8762 2.89353 15.1467 2.00858C15.3955 1.19719 15.7936 0.167271 16.7543 0.0504309C17.3796 -0.0252987 18.7082 -0.00582538 19.3529 0.0439398C19.7099 0.0699042 20.1362 0.243 20.3872 0.504808C20.6252 0.753634 21.1488 1.99993 21.1942 2.34828C21.2894 3.07529 20.7961 3.80662 20.0497 3.85422V3.85205ZM16.8084 0.8272C16.6375 0.857491 16.4471 0.995968 16.3476 1.13661C16.2264 1.30971 15.8023 2.38506 15.8066 2.57331C15.8153 2.90868 16.0987 3.10125 16.4103 3.13154C17.5095 3.2354 18.7644 3.05148 19.8809 3.13154C20.4759 2.99956 20.4889 2.66418 20.3266 2.15571C20.1557 1.62128 19.9393 0.876965 19.3053 0.816381C18.8142 0.770943 17.2563 0.747143 16.8084 0.829363V0.8272ZM19.2772 3.89966H16.9642V4.66993H19.2772V3.89966ZM21.0601 9.29809L21.402 5.56354L20.8935 5.44021C19.0976 5.53758 17.1784 5.31688 15.3955 5.44021C15.2873 5.4467 14.8286 5.48998 14.8113 5.60898L15.1813 9.29809H21.0601ZM14.1211 6.16505C14.0108 6.13692 14.0411 6.18669 14.0108 6.22564C13.8593 6.4182 13.7684 6.7644 13.736 7.00889L13.1063 16.0207C13.1756 16.8732 13.7836 17.624 14.6491 17.73C14.6664 14.7138 14.6079 11.6998 14.3591 8.69658C14.2899 7.85274 14.1579 7.01322 14.1189 6.16721L14.1211 6.16505ZM22.2155 6.16505L22.1203 6.18885C22.116 6.67568 22.0229 7.15386 21.9753 7.6342C21.7741 9.7027 21.6919 11.7734 21.64 13.8527C21.6378 13.9674 21.5902 14.0712 21.588 14.1859V17.73C22.4427 17.6262 23.0399 16.9013 23.1308 16.0661L22.5055 7.00889C22.4773 6.69299 22.3605 6.43984 22.2155 6.16505ZM21.0125 10.0684H15.2311L15.3761 13.5368H20.8697L21.0147 10.0684H21.0125ZM20.8199 14.3092H15.4237V15.9233C15.6184 16.0964 15.8672 16.1916 16.1225 16.2371C17.3926 16.1614 18.7731 16.3366 20.028 16.2371C20.3266 16.2133 20.5971 16.1202 20.8221 15.9212V14.3071L20.8199 14.3092ZM20.8199 16.8624C20.5646 16.9122 20.3417 16.99 20.0756 17.0095C19.0089 17.0853 17.1784 17.0982 16.1204 17.0095C15.8802 16.99 15.6617 16.8862 15.4237 16.8624V17.7776H20.8199V16.8624ZM14.2553 18.5609C13.7792 18.6583 13.3941 18.9374 13.2167 19.4004C13.34 19.7661 13.8182 20.0517 14.1925 20.0906H22.0467C22.4557 20.0279 22.8387 19.805 23.0247 19.4329C22.8884 18.9201 22.4038 18.6236 21.9018 18.5501L14.2531 18.5631L14.2553 18.5609ZM22.988 20.5731C22.6872 20.7419 22.3497 20.8393 22.0035 20.8652C19.4763 21.0427 16.7435 20.7268 14.1925 20.8652C13.8766 20.8241 13.5477 20.7549 13.2794 20.5753C13.2426 20.5645 13.2556 20.6121 13.2535 20.6489C13.247 20.8587 13.5975 22.3539 13.6949 22.5702C13.8268 22.8688 14.106 23.0614 14.4089 23.1566L21.6659 23.1804C22.0446 23.1458 22.3973 22.9208 22.5509 22.5702C22.7045 22.2197 22.9079 21.2049 22.9771 20.7809C22.988 20.7138 22.9944 20.6445 22.9901 20.5775L22.988 20.5731Z" fill="#46194F"/>
<path d="M7.71423 3.85205V4.6721H8.75064C9.79138 4.6721 10.9208 5.9357 10.9425 6.96129L11.5721 15.681C11.6413 16.6309 11.2281 17.4509 10.5119 18.0438C11.0918 18.4051 11.5159 19.0369 11.5699 19.7315C11.6132 20.2962 11.2086 21.9622 11.0269 22.5594C10.778 23.3838 10.2068 23.8879 9.33268 23.9485C6.99588 24.1108 4.46651 23.8273 2.10808 23.9399C1.45897 23.862 0.870441 23.4249 0.632433 22.8147C0.426882 22.289 -0.031823 20.2507 0.00712363 19.7315C0.0612162 19.0261 0.485302 18.4203 1.06517 18.0438C0.32086 17.4401 -0.0166771 16.6893 0.000632527 15.7286C0.0547251 12.8357 0.567522 9.8282 0.634597 6.91802C0.664889 5.90757 1.79867 4.6721 2.8221 4.6721H3.85851V3.85205C2.89999 3.72007 2.53865 2.89353 2.80912 2.00858C3.05794 1.19719 3.45606 0.167271 4.41891 0.0504309C5.04422 -0.0252987 6.37273 -0.00582538 7.01752 0.0439398C7.37453 0.0699042 7.80078 0.243 8.05177 0.504808C8.30276 0.766616 8.81339 1.99993 8.85883 2.34828C8.95403 3.07529 8.46071 3.80662 7.71423 3.85422V3.85205ZM4.473 0.8272C4.30207 0.857491 4.11167 0.995968 4.01214 1.13661C3.89097 1.30971 3.46688 2.38506 3.47121 2.57331C3.47987 2.90868 3.76331 3.10125 4.07488 3.13154C5.17404 3.2354 6.42899 3.05148 7.54546 3.13154C8.14048 2.99956 8.15346 2.66418 7.99118 2.15571C7.82025 1.62128 7.60388 0.876965 6.96991 0.816381C6.47875 0.770943 4.92089 0.747143 4.473 0.829363V0.8272ZM6.94179 3.89966H4.62879V4.66993H6.94179V3.89966ZM8.72468 9.29809L9.06654 5.56354L8.55807 5.44021C6.7622 5.53758 4.843 5.31688 3.06011 5.44021C2.95192 5.4467 2.49322 5.48998 2.47591 5.60898L2.8459 9.29809H8.72468ZM1.78569 6.16505C1.67534 6.13692 1.70563 6.18669 1.67534 6.22564C1.52388 6.4182 1.433 6.7644 1.40055 7.00889L0.77091 16.0207C0.840149 16.8732 1.44815 17.624 2.31363 17.73C2.33094 14.7138 2.27252 11.6998 2.02369 8.69658C1.95446 7.85274 1.82247 7.01322 1.78352 6.16721L1.78569 6.16505ZM9.88009 6.16505L9.78489 6.18885C9.78056 6.67568 9.68752 7.15386 9.63992 7.6342C9.4387 9.7027 9.35648 11.7734 9.30455 13.8527C9.30239 13.9674 9.25478 14.0712 9.25262 14.1859V17.73C10.1073 17.6262 10.7045 16.9013 10.7953 16.0661L10.17 7.00889C10.1419 6.69299 10.0251 6.43984 9.88009 6.16505ZM8.67708 10.0684H2.89567L3.04063 13.5368H8.53427L8.67924 10.0684H8.67708ZM8.48451 14.3092H3.08823V15.9233C3.28297 16.0964 3.53179 16.1916 3.78711 16.2371C5.0572 16.1614 6.43764 16.3366 7.69259 16.2371C7.99118 16.2133 8.26165 16.1202 8.48667 15.9212V14.3071L8.48451 14.3092ZM8.48451 16.8624C8.22919 16.9122 8.00633 16.99 7.74019 17.0095C6.67349 17.0853 4.843 17.0982 3.78495 17.0095C3.54478 16.99 3.32624 16.8862 3.08823 16.8624V17.7776H8.48451V16.8624ZM1.91984 18.5609C1.44382 18.6583 1.05868 18.9374 0.881259 19.4004C1.00459 19.7661 1.48277 20.0517 1.85709 20.0906H9.71133C10.1203 20.0279 10.5032 19.805 10.6893 19.4329C10.553 18.9201 10.0683 18.6236 9.56636 18.5501L1.91767 18.5631L1.91984 18.5609ZM10.6525 20.5731C10.3518 20.7419 10.0142 20.8393 9.66805 20.8652C7.14085 21.0427 4.40809 20.7268 1.85709 20.8652C1.54119 20.8241 1.21231 20.7549 0.944007 20.5753C0.907224 20.5645 0.920206 20.6121 0.918042 20.6489C0.911551 20.8587 1.26207 22.3539 1.35944 22.5702C1.49142 22.8688 1.77054 23.0614 2.07346 23.1566L9.33051 23.1804C9.70916 23.1458 10.0618 22.9208 10.2155 22.5702C10.3691 22.2197 10.5725 21.2049 10.6417 20.7809C10.6525 20.7138 10.659 20.6445 10.6547 20.5775L10.6525 20.5731Z" fill="#46194F"/>
</svg>
