<svg width="19" height="24" viewBox="0 0 19 24" fill="none" xmlns="http://www.w3.org/2000/svg">
<path d="M16.0047 4.32191C14.2371 3.65785 12.5801 2.69844 11.0977 1.47855L9.3025 0L7.88743 1.22173C6.27884 2.60856 4.45255 3.68353 2.49149 4.39712L0 5.29966V10.3719C0 16.2805 3.46943 21.6004 8.70986 23.5779C9.08307 23.7155 9.3025 23.7778 9.3025 23.7778C9.3025 23.7778 9.731 23.6513 10.3979 23.3651C15.3757 21.2298 18.6102 16.0622 18.6102 10.3664V5.29783L16.0047 4.31824V4.32191ZM16.2345 10.7571C16.2345 15.0001 13.8259 18.8487 10.118 20.4374C9.62215 20.6502 9.3025 20.7437 9.3025 20.7437C9.3025 20.7437 9.14009 20.696 8.86191 20.5933C4.9588 19.1221 2.37573 15.1579 2.37573 10.7589V6.98183L4.22967 6.3086C5.68966 5.77845 7.05117 4.9768 8.24854 3.94402L9.3025 3.03414L10.6398 4.1348C11.7439 5.04284 12.9775 5.75827 14.2941 6.25356L16.2345 6.98183V10.7552V10.7571Z" fill="#46194F"/>
<path d="M8.55783 15.7303L4.64954 12.1238L5.70004 10.8397L8.40406 13.3327L12.7529 8.04956L13.959 9.1704L8.55783 15.7303Z" fill="#46194F"/>
</svg>
