<svg width="20" height="24" viewBox="0 0 20 24" fill="none" xmlns="http://www.w3.org/2000/svg">
<path d="M13.2035 0C13.9308 0.188329 14.5041 0.606327 14.6798 1.254C14.4392 2.67336 15.5667 5.55802 13.2062 5.98061C12.6654 6.07707 12.4383 5.9117 12.2355 6.4698L11.4865 9.37283L8.54468 9.37972C8.19047 8.45645 8.10124 7.38848 7.76596 6.4698C7.53883 5.84739 7.1684 6.09085 6.57895 5.93008C5.9895 5.76931 5.39465 5.24107 5.31353 4.70823C5.1513 3.66324 5.41358 2.33115 5.32164 1.254C5.49469 0.599437 6.07332 0.20211 6.79797 0H13.2008H13.2035Z" fill="#46194F"/>
<path d="M6.41675 11.9996C6.15177 12.3809 5.90571 12.769 5.7597 13.1985C5.2027 14.8337 4.93231 16.6504 4.4375 18.3109C4.33475 22.3118 9.75605 20.8764 12.7384 21.1428C14.7501 20.9705 15.8209 19.6683 15.5072 17.9894C15.2395 16.57 14.7285 14.6615 14.2715 13.272C14.1201 12.8126 13.8822 12.4015 13.5902 11.9973H16.1562C16.3157 11.9973 17.0322 12.2017 17.2134 12.2706C18.5004 12.7483 19.3467 13.8898 19.4414 15.0657C19.6063 17.0937 19.3711 19.3445 19.3684 21.3839C19.0466 22.7987 17.6433 23.8873 15.9371 23.9999H3.95891C2.11216 23.8115 0.706133 22.5484 0.565531 20.9728C0.381666 18.9425 0.643944 16.6527 0.635832 14.611C0.768323 13.4603 2.48529 11.9973 3.84805 11.9973H6.41404L6.41675 11.9996Z" fill="#46194F"/>
<path d="M7.76047 15.1238C8.88799 16.0815 10.8023 16.1504 12.0191 15.2823C12.3273 15.0618 12.5437 14.7747 12.8167 14.5312L13.8037 18.3576C13.9389 18.9731 13.4927 19.5863 12.7356 19.6437C10.9808 19.7769 8.99615 19.5404 7.21429 19.6437C6.51127 19.5472 6.08406 19.0006 6.19492 18.4012L7.18725 14.5335C7.41437 14.6897 7.55227 14.9515 7.75777 15.1261L7.76047 15.1238Z" fill="#46194F"/>
<path d="M11.4379 10.8746V13.3367C11.4379 13.3987 11.2622 13.7708 11.2081 13.8443C10.6538 14.5792 9.34781 14.5838 8.79892 13.8443C8.74484 13.7685 8.56909 13.3987 8.56909 13.3367V10.8746H11.4379Z" fill="#46194F"/>
<path d="M4.4291 1.73425V4.26522C3.30699 4.31115 2.08753 3.652 2.54179 2.59092C2.84192 1.88813 3.65579 1.78019 4.4291 1.73425Z" fill="#46194F"/>
</svg>
