<svg width="18" height="24" viewBox="0 0 18 24" fill="none" xmlns="http://www.w3.org/2000/svg">
<g clip-path="url(#clip0_46_5761)">
<path d="M4.93674 24C4.66063 23.9125 4.49103 23.8492 4.26377 23.6728C2.92596 22.6348 1.71502 21.1053 0.358895 20.0404C-0.69534 18.8151 0.896188 17.7209 1.00609 16.5704C1.18858 14.6523 1.13024 12.0342 0.956565 10.104C0.871765 9.16311 0.457941 8.24591 1.13498 7.41308C1.89072 6.48309 3.46597 6.55532 4.13216 7.53388C4.5453 8.14109 4.92249 10.7629 5.10159 11.6354C5.1138 11.6955 5.10906 11.9007 5.20878 11.861L14.1386 3.40168C15.9356 2.00127 18.1506 4.08367 16.7511 5.76979L13.5918 8.76811C14.743 9.00524 15.4275 10.1621 14.935 11.2052C16.2036 11.2756 17.0503 12.674 16.3786 13.7133C16.6453 13.8265 16.939 13.8642 17.19 14.0252C18.2022 14.674 18.228 15.8258 17.4729 16.6669C16.5421 17.7036 15.2199 18.7653 14.1874 19.7579C13.0748 20.8266 12.0138 22.204 10.4087 22.6655C9.54105 22.9154 8.63606 22.7754 7.79552 23.0624C7.06828 23.3104 6.4455 23.8262 5.6823 24.0007L4.93674 24Z" fill="#46194F"/>
<path d="M6.51468 0.0133574C6.73244 -0.0326625 6.82403 0.0408415 6.95021 0.192324L6.9787 4.38844C6.92647 4.76107 6.32744 4.86206 6.27724 4.34114C6.15309 3.06153 6.37493 1.60616 6.2786 0.307373C6.28334 0.163561 6.35932 0.0459548 6.51468 0.0133574Z" fill="#46194F"/>
<path d="M2.38596 1.70471L4.38385 4.5784C4.57583 5.0322 4.09688 5.26678 3.74344 4.90054C3.38999 4.53429 2.04676 2.59187 1.83238 2.15532C1.63768 1.7584 2.01623 1.49251 2.38528 1.70535L2.38596 1.70471Z" fill="#46194F"/>
<path d="M11.1298 1.61842C11.4602 1.61905 11.5328 1.93608 11.4046 2.18472C10.9419 3.0821 9.97858 4.04469 9.46367 4.94846C9.11904 5.3 8.6116 4.92865 8.90738 4.51831L10.9202 1.68041C10.9853 1.65932 11.0613 1.61778 11.1298 1.61842Z" fill="#46194F"/>
</g>
<defs>
<clipPath id="clip0_46_5761">
<rect width="18" height="24" fill="white"/>
</clipPath>
</defs>
</svg>
