<svg width="22" height="23" viewBox="0 0 22 23" fill="none" xmlns="http://www.w3.org/2000/svg">
<g clip-path="url(#clip0_54_331)">
<path d="M11.9893 0C13.1349 0.217825 14.0097 1.13473 14.1371 2.35887L14.1394 20.5961C14.0349 21.8449 13.1051 22.841 11.9198 22.9922L2.34183 22.9994C1.08195 22.907 0.0883926 21.8689 0 20.5511L0.00286989 2.35887C0.0918365 1.21874 1.05784 0.136815 2.15012 0H11.9893ZM2.35446 1.44916C1.78105 1.54817 1.42461 1.97962 1.37525 2.58149V20.4167C1.4292 21.0738 1.8396 21.5052 2.47097 21.5622H11.6684C12.2969 21.5058 12.7096 21.0768 12.7641 20.4167V2.58089C12.7119 1.94422 12.3193 1.51157 11.7097 1.43776L2.35503 1.44916H2.35446Z" fill="#46194F"/>
<path d="M22 12.083C21.9036 13.3305 21.1649 15.0887 20.266 15.93C19.6863 16.4731 18.8644 15.939 19.1112 15.1493C19.3792 14.7563 19.7144 14.4281 19.9555 14.011C20.8991 12.3776 20.8297 10.3146 19.8005 8.74481C19.6484 8.51259 19.1261 7.97613 19.0882 7.7829C18.9332 6.99922 19.7116 6.54916 20.266 7.06762C21.1672 7.91072 21.903 9.66412 22 10.9147V12.0824V12.083Z" fill="#46194F"/>
<path d="M17.7348 8.81502C18.2732 8.72021 18.5889 9.18106 18.8472 9.60651C19.641 10.9141 19.5227 12.8931 18.4138 13.9714C17.775 14.5925 16.8761 13.8418 17.3072 13.0845C17.3755 12.9645 17.4811 12.9021 17.5488 12.7983C18.1119 11.936 18.1331 11.0989 17.5666 10.227C17.4909 10.11 17.3784 10.0392 17.3072 9.91434C17.0655 9.49069 17.259 8.89903 17.7342 8.81562L17.7348 8.81502Z" fill="#46194F"/>
<path d="M15.8447 10.611C17.0196 10.4141 17.2159 12.2792 16.0869 12.392C14.9774 12.503 14.804 10.785 15.8447 10.611Z" fill="#46194F"/>
<path d="M7.03926 10.434C10.773 10.1802 13.2652 14.4557 11.3625 17.8286C9.45973 21.2016 5.0642 21.0204 3.27569 17.801C1.51989 14.6399 3.57071 10.6698 7.03926 10.434ZM7.3274 11.8832C2.84406 11.8832 3.03175 19.1272 7.62988 18.7768C11.6793 18.4683 11.5616 11.8832 7.3274 11.8832Z" fill="#46194F"/>
<path d="M6.86652 2.7975C10.0911 2.39246 11.3728 6.69674 8.75203 8.27252C6.52902 9.60887 3.92603 7.46123 4.61078 4.88634C4.88285 3.86202 5.84196 2.92652 6.86652 2.7975ZM7.08061 4.23407C5.30644 4.4879 5.6095 7.44263 7.49445 7.22721C9.37939 7.01178 9.1102 3.94363 7.08061 4.23407Z" fill="#46194F"/>
</g>
<defs>
<clipPath id="clip0_54_331">
<rect width="22" height="23" fill="white"/>
</clipPath>
</defs>
</svg>
