<svg width="35" height="32" viewBox="0 0 35 32" fill="none" xmlns="http://www.w3.org/2000/svg">
<rect x="1.35132" y="0.491882" width="32.4707" height="30.598" rx="4.5" stroke="#46194F"/>
<path d="M26.8874 6.05899C27.0528 6.15268 27.1663 6.25401 27.1663 6.45718L27.1457 25.3081C27.1008 25.4379 27.0232 25.5128 26.8885 25.556L14.6112 25.5739C13.9462 25.5117 13.5442 25.1039 13.0498 24.7357C12.9198 25.1757 12.5411 25.4924 12.0763 25.5703C10.7626 25.496 9.30315 25.6839 8.00691 25.5759C7.45545 25.5301 7.07989 25.1497 6.9209 24.6599V17.9899C7.07514 17.5092 7.43696 17.1436 7.96941 17.0754C9.27198 17.1671 10.7605 16.9507 12.0409 17.0754C12.3541 17.106 12.7133 17.3066 12.8712 17.5704L14.515 15.9898L14.5457 15.8844L12.632 9.03421C12.5839 8.85141 12.6029 8.67014 12.7735 8.5571L16.6469 7.54533V6.34465C16.6469 6.24943 16.8402 6.10685 16.9237 6.05899H26.8874ZM26.3735 6.82125H17.4377V17.4935H18.1888V9.88966C18.1888 9.50064 18.6927 9.54646 18.9394 9.47008C19.2098 9.38658 19.4961 9.1386 19.5912 8.87891C19.6926 8.6014 19.5812 8.28112 19.9261 8.13447L23.9115 8.14618C24.2247 8.3025 24.1169 8.58561 24.2073 8.85192C24.2976 9.11823 24.5818 9.38301 24.8707 9.47008C25.2774 9.59331 25.5727 9.43291 25.6229 10.0027C25.6519 10.3337 25.663 11.0934 25.6181 11.4111C25.5484 11.9061 24.9505 11.9544 24.8173 11.5415C24.7355 11.2874 24.8512 10.3535 24.774 10.2492C24.1106 10.076 23.5121 9.55461 23.406 8.88095H20.4041C20.2985 9.57243 19.6741 10.0648 19.0186 10.2705V17.4935H21.114L20.7395 17.2638C19.5019 16.33 19.9155 14.4093 21.4304 14.0437C23.4244 13.5625 24.6689 16.0372 23.0705 17.2638L22.696 17.4935H23.5068C23.5929 17.4935 23.949 17.6493 24.0382 17.7058C24.567 18.0403 24.7973 18.767 24.5152 19.323L24.792 19.3617V14.9592C24.792 14.894 24.9277 14.7326 24.9917 14.6944C25.2954 14.5121 25.5748 14.728 25.6187 15.0391L25.6213 19.8011C25.6778 20.0053 25.8162 20.1632 25.8495 20.3816C25.9472 21.0313 25.5981 21.6846 24.913 21.841C24.9024 22.008 25.007 22.1572 25.0249 22.3191C25.1126 23.1063 24.3821 23.8171 23.5665 23.7448C23.7123 24.1145 23.7123 24.4424 23.5665 24.8116H26.374V6.82125H26.3735ZM16.6469 8.34578L13.4914 9.16355L15.8166 17.4935H16.6073L15.0623 11.9096C15.0876 11.43 15.6238 11.5481 15.9285 11.1408C16.2333 10.7334 16.078 10.5572 16.0902 10.1565C16.1007 9.80717 16.3965 9.82397 16.6474 9.69922V8.34629L16.6469 8.34578ZM16.6469 14.5967V11.5094C16.5466 11.5822 16.4789 11.7309 16.3897 11.8139C16.3215 11.8776 15.9497 12.1087 15.9412 12.1418L16.6464 14.5967H16.6469ZM21.8187 14.7586C20.4105 14.8655 20.5367 16.9074 21.9233 16.8845C23.3917 16.8605 23.3162 14.645 21.8187 14.7586ZM14.8277 16.8076L13.0968 18.4732L13.1084 23.7443C13.6535 24.1054 14.0613 24.7586 14.7696 24.8111L22.5207 24.7755C23.0679 24.5275 22.9564 23.8003 22.3226 23.7428C21.3464 23.6542 20.2309 23.8141 19.2394 23.7418C18.7735 23.6501 18.7878 23.0371 19.2753 22.9811L23.7747 22.9729C24.4164 22.7983 24.352 21.9754 23.6669 21.9133C22.2655 21.786 20.6624 22.0136 19.2394 21.9123C18.7735 21.8206 18.7878 21.2075 19.2753 21.1515L24.6045 21.1434C25.261 20.9972 25.2093 20.155 24.5348 20.0853L19.2389 20.0827C18.7719 19.99 18.7878 19.378 19.2748 19.322L23.4097 19.3057C24.0488 19.1315 23.9336 18.2751 23.2707 18.2537L15.4093 18.2471C15.2994 18.2231 15.1679 18.0872 15.1241 17.9884C14.9804 17.6651 14.945 17.1538 14.8272 16.8066L14.8277 16.8076ZM9.60898 17.8367H8.00744C7.93666 17.8367 7.67783 18.0913 7.71005 18.1977L7.74069 24.5728C7.82098 24.6869 7.92979 24.807 8.08561 24.8121C9.30737 24.7286 10.6802 24.9201 11.884 24.8131C12.0763 24.7958 12.1624 24.7266 12.2675 24.5728L12.2981 18.1977C12.3303 18.0907 12.0715 17.8367 12.0007 17.8367H10.3992V22.3532C10.3992 22.4932 10.1245 22.6083 9.98349 22.6042C9.85619 22.6007 9.60793 22.4744 9.60793 22.3532V17.8367H9.60898Z" fill="#46194F"/>
<path d="M25.0969 12.9275C25.7347 12.788 25.7685 13.7722 25.1307 13.6806C24.7178 13.621 24.693 13.0161 25.0969 12.9275Z" fill="#46194F"/>
<path d="M9.91528 23.2952C10.4792 23.1908 10.57 23.9913 10.06 24.0483C9.54991 24.1054 9.45012 23.3813 9.91528 23.2952Z" fill="#46194F"/>
</svg>
