<svg width="28" height="27" viewBox="0 0 28 27" fill="none" xmlns="http://www.w3.org/2000/svg">
<rect x="-0.5" y="0.5" width="26.5721" height="25.0404" rx="4.5" transform="matrix(-1 0 0 1 27 0)" stroke="#46194F"/>
<path d="M22.7703 5C22.9065 5.07721 23 5.16072 23 5.32815L22.9831 20.8635C22.9461 20.9705 22.8821 21.0321 22.7712 21.0678L12.6575 21.0825C12.1097 21.0313 11.7786 20.6952 11.3713 20.3918C11.2642 20.7543 10.9523 21.0154 10.5693 21.0796C9.48719 21.0183 8.28493 21.1731 7.21713 21.0842C6.76286 21.0464 6.45348 20.7329 6.32251 20.3293V14.8325C6.44957 14.4363 6.74763 14.135 7.18624 14.0788C8.25926 14.1543 9.48545 13.976 10.5402 14.0788C10.7982 14.104 11.0941 14.2693 11.2242 14.4867L12.5783 13.1841L12.6036 13.0973L11.0271 7.45193C10.9875 7.30128 11.0032 7.15189 11.1437 7.05873L14.3345 6.22491V5.23542C14.3345 5.15694 14.4938 5.03945 14.5625 5H22.7703ZM22.3469 5.62819H14.9859V14.4233H15.6046V8.15691C15.6046 7.83631 16.0197 7.87408 16.2229 7.81113C16.4457 7.74231 16.6816 7.53795 16.7599 7.32394C16.8434 7.09524 16.7516 6.83129 17.0358 6.71043L20.3188 6.72008C20.5768 6.84891 20.4881 7.08223 20.5625 7.3017C20.6369 7.52117 20.871 7.73938 21.109 7.81113C21.444 7.91268 21.6873 7.7805 21.7286 8.25007C21.7525 8.52283 21.7617 9.14893 21.7247 9.41078C21.6673 9.81867 21.1747 9.85853 21.065 9.51821C20.9976 9.30881 21.0929 8.5392 21.0294 8.45317C20.4828 8.3105 19.9898 7.88079 19.9024 7.32562H17.4296C17.3425 7.89548 16.8282 8.30127 16.2882 8.4708V14.4233H18.0144L17.7059 14.2341C16.6864 13.4645 17.0271 11.8816 18.275 11.5803C19.9176 11.1837 20.9428 13.2232 19.6261 14.2341L19.3176 14.4233H19.9855C20.0564 14.4233 20.3497 14.5517 20.4232 14.5983C20.8588 14.874 21.0485 15.4728 20.8161 15.9311L21.0441 15.963V12.3348C21.0441 12.2811 21.156 12.1481 21.2086 12.1166C21.4588 11.9664 21.689 12.1443 21.7251 12.4007L21.7273 16.3251C21.7739 16.4934 21.8879 16.6235 21.9153 16.8035C21.9958 17.3389 21.7082 17.8773 21.1438 18.0062C21.1351 18.1438 21.2212 18.2668 21.236 18.4002C21.3083 19.049 20.7065 19.6348 20.0347 19.5752C20.1548 19.8798 20.1548 20.1501 20.0347 20.4543H22.3474V5.62819H22.3469ZM14.3345 6.88458L11.7351 7.55851L13.6505 14.4233H14.3019L13.0291 9.8216C13.05 9.42631 13.4917 9.52366 13.7427 9.18795C13.9938 8.85225 13.8659 8.70705 13.8759 8.3768C13.8846 8.08893 14.1282 8.10278 14.3349 7.99997V6.885L14.3345 6.88458ZM14.3345 12.036V9.49177C14.2518 9.55178 14.1961 9.67431 14.1226 9.74271C14.0665 9.79517 13.7601 9.98568 13.7532 10.013L14.3341 12.036H14.3345ZM18.5948 12.1695C17.4348 12.2576 17.5388 13.9403 18.681 13.9214C19.8906 13.9017 19.8284 12.0759 18.5948 12.1695ZM12.8359 13.8581L11.41 15.2307L11.4196 19.5748C11.8686 19.8723 12.2046 20.4107 12.7881 20.4539L19.1731 20.4245C19.6239 20.2202 19.5321 19.6209 19.0099 19.5735C18.2058 19.5005 17.2868 19.6322 16.4701 19.5727C16.0863 19.4971 16.0981 18.9919 16.4997 18.9457L20.2061 18.939C20.7348 18.7951 20.6817 18.1169 20.1173 18.0657C18.9629 17.9608 17.6423 18.1484 16.4701 18.0649C16.0863 17.9894 16.0981 17.4841 16.4997 17.438L20.8897 17.4313C21.4305 17.3108 21.3879 16.6167 20.8322 16.5593L16.4697 16.5572C16.085 16.4808 16.0981 15.9764 16.4993 15.9302L19.9054 15.9168C20.4319 15.7733 20.3371 15.0675 19.791 15.0498L13.315 15.0444C13.2245 15.0247 13.1161 14.9126 13.08 14.8312C12.9617 14.5647 12.9325 14.1434 12.8355 13.8572L12.8359 13.8581ZM8.53687 14.7062H7.21757C7.15926 14.7062 6.94605 14.916 6.97259 15.0037L6.99783 20.2575C7.06397 20.3515 7.1536 20.4505 7.28196 20.4547C8.28841 20.3859 9.41931 20.5437 10.411 20.4556C10.5693 20.4413 10.6403 20.3842 10.7269 20.2575L10.7521 15.0037C10.7786 14.9155 10.5654 14.7062 10.5071 14.7062H9.18782V18.4283C9.18782 18.5437 8.96155 18.6385 8.84537 18.6352C8.74051 18.6323 8.536 18.5282 8.536 18.4283V14.7062H8.53687Z" fill="#46194F"/>
<path d="M21.2955 10.6604C21.8211 10.5454 21.849 11.3566 21.3233 11.2811C20.983 11.232 20.9626 10.7334 21.2955 10.6604Z" fill="#46194F"/>
<path d="M8.7892 19.2046C9.25391 19.1186 9.32875 19.7783 8.90842 19.8253C8.48809 19.8723 8.40585 19.2755 8.7892 19.2046Z" fill="#46194F"/>
</svg>
