<svg width="156" height="86" viewBox="0 0 156 86" fill="none" xmlns="http://www.w3.org/2000/svg">
<path d="M93.98 19.03C94.45 19.77 95.06 20.43 95.56 21.16C98.77 25.89 99.86 32.15 98.6 37.7C96.7 46.09 89.89 52.5 81.43 53.99L81.41 57.75C82.32 57.76 83.53 57.59 83.75 58.75V80.72C82.76 87.67 73.07 87.75 71.99 80.8L71.97 58.75C72.18 57.63 73.43 57.74 74.31 57.75L74.29 53.99C65.84 52.5 59.09 46.15 57.14 37.79C55.84 32.22 56.93 25.92 60.16 21.17C60.66 20.44 61.27 19.78 61.74 19.04C62.49 18.36 63.16 17.53 63.91 16.87C71.59 10.16 83.91 9.96 91.6 16.81L93.98 19.04V19.03ZM90.68 19.12C79.82 9.19 62.22 14.77 59.32 29.43C56.69 42.73 68.88 54.46 82.08 51.38C96.38 48.05 101.44 30.72 91.68 20.07L90.68 19.12ZM78.9 54.25L76.64 54.23L76.72 57.74H78.97C78.91 57.28 79.08 54.38 78.89 54.25H78.9ZM81.33 60.19H74.39L74.31 64.85H81.41L81.33 60.19ZM81.4 67.27H74.3L74.32 80.13C74.7 84.9 81.29 84.68 81.41 79.88V67.27H81.4Z" fill="#46194F"/>
<path d="M88.51 20.29C98.57 28.85 95.17 45.2 82.41 48.89C69.65 52.58 58.24 40.65 62.02 28.17C65.45 16.87 79.54 12.66 88.5 20.28L88.51 20.29ZM87.34 22.46C79.04 15.03 65.71 19.64 63.89 30.68C62.25 40.59 71.22 48.99 81 46.79C92.16 44.28 95.84 30.06 87.35 22.46H87.34Z" fill="#46194F"/>
<mask id="mask0_60_399" style="mask-type:luminance" maskUnits="userSpaceOnUse" x="0" y="0" width="77" height="56">
<path d="M62.32 18.55L76.64 12.69L67.37 0.970001H0V55.99H74.29L75.53 53.21L62.94 47.63C59.17 43.8 57.1 38.79 57.1 32.98C57.1 27.17 58.54 22.38 62.31 18.54L62.32 18.55Z" fill="white"/>
</mask>
<g mask="url(#mask0_60_399)">
<path d="M71.85 19.62H74.53C74.73 18.95 74.79 18.21 74.51 17.55C73.05 17.58 71.3 17.45 71.56 15.53C71.77 13.96 74.05 14.07 75.21 14.39C77.68 15.08 78.1 17.6 77.8 19.83C77.48 22.14 75.12 23.06 73.04 22.97C75.06 25.16 77.19 27.27 78 30.24C78.65 32.63 78.69 40.35 78.39 42.94C78.19 44.63 77.08 45.92 75.75 46.86C75.84 50.1 76.06 54.03 72.16 55.05C70.47 55.49 64.79 55.45 63.25 54.7C62.31 54.24 60.67 52.37 60.67 51.32V47.52H29.95V51.32C29.95 52.37 28.31 54.24 27.37 54.7C25.83 55.46 20.15 55.49 18.46 55.05C14.55 54.03 14.78 50.11 14.87 46.86C13.54 45.92 12.42 44.63 12.23 42.94C11.93 40.35 11.97 32.63 12.62 30.24C13.44 27.25 15.54 25.18 17.58 22.97C15.5 23.06 13.14 22.14 12.82 19.83C12.5 17.52 12.94 15.08 15.41 14.39C16.57 14.07 18.85 13.96 19.06 15.53C19.32 17.45 17.57 17.58 16.11 17.55C15.83 18.21 15.89 18.95 16.09 19.62H18.77C19.33 17.45 19.95 15.23 20.67 13.09C22.52 7.6 25.44 4.21 31.52 3.51C40.52 3.95 50.03 2.95 58.97 3.51C68.24 4.09 69.53 11.87 71.79 19.03C71.85 19.22 71.87 19.43 71.86 19.63L71.85 19.62ZM75.28 37.81V32.96C75.28 28.6 71.47 27.15 70.03 24.19C66.68 17.26 68.25 7.25 57.91 6.63C49.2 6.11 39.83 6.9 31.08 6.8C22.96 8.11 23.26 18.33 20.58 24.34C19.11 26.27 15.48 29.48 15.48 32.06V37.8H23.01C23.58 37.8 24.42 36.93 24.54 36.35C24.65 35.81 24.65 34.12 24.58 33.55C24.28 31.03 20.26 32.05 18.53 31.84C16.82 31.64 16.67 28.94 18.68 28.7C19.9 28.55 23.27 28.6 24.39 28.96C28.7 30.35 29.06 37.55 25.69 40.04C25.39 40.26 24.06 40.94 23.75 40.94H15.47C15.52 41.65 15.34 42.45 15.61 43.11C15.72 43.38 16.51 44.22 16.74 44.22H33.67V38.78C33.67 38.24 34.31 37.41 34.89 37.31L55.37 37.21C55.91 37.14 56.93 38.04 56.93 38.48V44.22H73.86C73.86 44.22 74.53 43.85 74.61 43.78C75.1 43.32 75.45 41.82 75.25 41.19L75.05 40.94H66.85C65.17 40.94 63.07 38.31 62.9 36.69C62.56 33.58 62.92 30.05 66.33 28.94C67.38 28.6 70.91 28.57 72.07 28.71C73.92 28.93 73.92 31.63 72.07 31.85C70.46 32.04 67.29 31.23 66.35 32.84C65.83 33.72 65.85 36.16 66.48 36.99C66.63 37.19 67.42 37.81 67.6 37.81H75.28ZM53.66 40.5H36.96V44.23H53.66V40.5Z" fill="#46194F"/>
<path d="M25.8799 19.66L64.4699 19.62C66.8299 19.89 66.3899 23.05 64.0299 22.91H26.5899C24.3799 23 23.7599 20.31 25.8799 19.66Z" fill="#46194F"/>
<path d="M31.6999 28.75L59.0199 28.8C60.2699 29.49 60.2299 31.04 58.9899 31.74L32.1099 31.86C30.4399 31.57 30.1499 29.48 31.6999 28.76V28.75Z" fill="#46194F"/>
</g>
<mask id="mask1_60_399" style="mask-type:luminance" maskUnits="userSpaceOnUse" x="77" y="0" width="79" height="57">
<path d="M93.34 19.06L85.65 14.12L82.51 2.06L155.91 0.980003V56L77.36 56.43L79.99 52.81L87.36 51.89L92.97 47.65C96.74 43.82 98.81 38.81 98.81 33C98.81 27.19 97.11 22.91 93.34 19.07V19.06Z" fill="white"/>
</mask>
<g mask="url(#mask1_60_399)">
<path d="M84.07 19.62H81.39C81.19 18.95 81.13 18.21 81.41 17.55C82.87 17.58 84.62 17.45 84.36 15.53C84.15 13.96 81.87 14.07 80.71 14.39C78.24 15.08 77.82 17.6 78.12 19.83C78.44 22.14 80.8 23.06 82.88 22.97C80.86 25.16 78.73 27.27 77.92 30.24C77.27 32.63 77.23 40.35 77.53 42.94C77.73 44.63 78.84 45.92 80.17 46.86C80.08 50.1 79.86 54.03 83.76 55.05C85.45 55.49 91.13 55.45 92.67 54.7C93.61 54.24 95.25 52.37 95.25 51.32V47.52H125.97V51.32C125.97 52.37 127.61 54.24 128.55 54.7C130.09 55.46 135.77 55.49 137.46 55.05C141.37 54.03 141.14 50.11 141.05 46.86C142.38 45.92 143.5 44.63 143.69 42.94C143.99 40.35 143.95 32.63 143.3 30.24C142.48 27.25 140.38 25.18 138.34 22.97C140.42 23.06 142.78 22.14 143.1 19.83C143.42 17.52 142.98 15.08 140.51 14.39C139.35 14.07 137.07 13.96 136.86 15.53C136.6 17.45 138.35 17.58 139.81 17.55C140.09 18.21 140.03 18.95 139.83 19.62H137.15C136.59 17.45 135.97 15.23 135.25 13.09C133.4 7.6 130.48 4.21 124.4 3.51C115.4 3.95 105.89 2.95 96.95 3.51C87.68 4.09 86.39 11.87 84.13 19.03C84.07 19.22 84.05 19.43 84.06 19.63L84.07 19.62ZM80.64 37.81V32.96C80.64 28.6 84.45 27.15 85.89 24.19C89.24 17.26 87.67 7.25 98.01 6.63C106.72 6.11 116.09 6.9 124.84 6.8C132.96 8.11 132.66 18.33 135.34 24.34C136.81 26.27 140.44 29.48 140.44 32.06V37.8H132.91C132.34 37.8 131.5 36.93 131.38 36.35C131.27 35.81 131.27 34.12 131.34 33.55C131.64 31.03 135.66 32.05 137.39 31.84C139.12 31.63 139.25 28.94 137.24 28.7C136.02 28.55 132.65 28.6 131.53 28.96C127.22 30.35 126.86 37.55 130.23 40.04C130.53 40.26 131.86 40.94 132.17 40.94H140.45C140.4 41.65 140.58 42.45 140.31 43.11C140.2 43.38 139.41 44.22 139.18 44.22H122.25V38.78C122.25 38.24 121.61 37.41 121.03 37.31L100.55 37.21C100.01 37.14 98.99 38.04 98.99 38.48V44.22H82.06C82.06 44.22 81.39 43.85 81.31 43.78C80.82 43.32 80.47 41.82 80.67 41.19L80.87 40.94H89.07C90.75 40.94 92.85 38.31 93.02 36.69C93.36 33.58 93 30.05 89.59 28.94C88.54 28.6 85.01 28.57 83.85 28.71C82 28.93 82 31.63 83.85 31.85C85.46 32.04 88.63 31.23 89.57 32.84C90.09 33.72 90.07 36.16 89.44 36.99C89.29 37.19 88.5 37.81 88.32 37.81H80.64ZM102.26 40.5H118.96V44.23H102.26V40.5Z" fill="#46194F"/>
<path d="M130.04 19.66L91.4501 19.62C89.0901 19.89 89.5301 23.05 91.8901 22.91H129.33C131.54 23 132.16 20.31 130.04 19.66Z" fill="#46194F"/>
<path d="M124.22 28.75L96.9 28.8C95.65 29.49 95.69 31.04 96.93 31.74L123.81 31.86C125.48 31.57 125.77 29.48 124.22 28.76V28.75Z" fill="#46194F"/>
</g>
</svg>
