<svg width="18" height="17" viewBox="0 0 18 17" fill="none" xmlns="http://www.w3.org/2000/svg">
<path d="M0.0386046 10.0484C-0.0128682 9.57162 -0.0128682 8.40759 0.0386046 7.93084C0.0512388 7.81583 0.120961 7.59786 0.160268 7.47868C0.504199 6.44125 1.52757 5.77436 2.62535 5.80821C2.66184 5.78549 2.69413 5.34121 2.71051 5.25031C3.38153 1.5676 7.05388 -0.771141 10.729 0.233826C13.2498 0.922972 15.1641 3.18519 15.3602 5.78039C15.384 5.81517 15.873 5.83697 15.9835 5.85691C16.8772 6.01783 17.6638 6.74037 17.8917 7.61085C18.0555 8.23692 18.0382 10.0553 17.7916 10.6508C17.3971 11.6043 16.5178 12.1056 15.502 12.1654C15.0219 12.1937 14.3167 12.2554 14.2577 11.6289C14.0041 8.94879 14.9442 5.66723 13.3069 3.3373C10.4834 -0.681172 4.06284 1.11729 3.75166 6.00438C3.63515 7.83623 3.8373 9.78495 3.7526 11.6289C3.7175 12.2535 2.90236 12.1979 2.4363 12.1668C1.28097 12.0898 0.167287 11.237 0.0386046 10.0479V10.0484Z" fill="#46194F"/>
<path d="M8.15633 14.5352C8.52365 14.486 9.41741 14.4898 9.79316 14.5264C11.1474 14.6595 11.1319 16.6309 9.83013 16.7492C9.44127 16.7844 8.49137 16.7937 8.11515 16.7446C6.90928 16.5878 6.8798 14.7059 8.15633 14.5347V14.5352Z" fill="#46194F"/>
<path d="M3.05066 12.7906C3.27012 13.9699 4.2247 14.9521 5.39735 15.2383C5.48906 15.2605 5.76234 15.3245 5.83533 15.3245H6.58824V15.9492H5.73005C5.62289 15.9492 5.30329 15.8671 5.17976 15.8351C3.73478 15.4627 2.64543 14.2389 2.38525 12.7901H3.05066V12.7906Z" fill="#46194F"/>
</svg>
