<svg width="15" height="17" viewBox="0 0 15 17" fill="none" xmlns="http://www.w3.org/2000/svg">
<path fill-rule="evenodd" clip-rule="evenodd" d="M1.34532 9.49781L5.31735 8.63868V1.40032C5.66217 0.886192 6.41811 0.317947 6.91544 0V8.28014L8.83183 7.88102V2.24592C9.15675 1.77915 9.95248 1.17708 10.4366 0.879427V7.52925L14.959 6.56188C14.9788 7.29248 14.8462 7.94867 14.4815 8.48985L10.4366 9.34222V11.1823L14.9921 10.2284C15.012 10.959 14.8794 11.6152 14.5147 12.1564L8.83846 13.347V9.69399L6.91544 10.0796V12.4879C6.63031 13.1779 6.06003 13.8679 5.67543 14.3888C5.56933 14.5308 5.58259 14.585 5.41018 14.6255L0.00584433 15.7891C-0.0273111 15.2885 0.0721552 14.6255 0.52307 13.8747L5.31072 12.8599V10.4584L0.821469 11.419C0.788313 10.9184 0.88778 10.2555 1.33869 9.50458L1.34532 9.49781ZM9.38221 15.0382L14.9987 13.8814C15.0186 14.612 14.7998 15.2614 14.5213 15.8094L8.83846 17C8.86498 16.4047 9.03739 15.7553 9.38884 15.0314L9.38221 15.0382Z" fill="#46194F"/>
</svg>
