<svg width="89" height="90" viewBox="0 0 89 90" fill="none" xmlns="http://www.w3.org/2000/svg">
<path d="M55.16 0.820007L59.36 1.39001C73.3 3.93001 84.7 14.73 87.84 28.55L88.79 34.45C88.72 35.99 88.89 37.6 88.79 39.13C87.22 63.61 61.71 79.74 38.92 69.84C37.71 69.32 35.69 67.93 34.71 67.63C34.09 67.44 33.42 67.5 32.96 67.98C26.69 73.72 21 80.67 14.68 86.28C5.84003 94.13 -4.09997 86.06 2.03003 76.41L22 56.17C22.08 55.75 22.08 55.31 21.96 54.9C21.66 53.92 20.28 51.9 19.75 50.69C9.85003 27.9 25.98 2.39001 50.46 0.820007H55.14H55.16ZM52.35 10.23C31.51 10.6 19.17 33.83 30.54 51.36C40.77 67.14 64.13 67.4 74.72 51.84C86.82 34.06 73.86 9.85001 52.36 10.23H52.35Z" fill="#46194F"/>
<mask id="mask0_60_377" style="mask-type:luminance" maskUnits="userSpaceOnUse" x="26" y="10" width="54" height="54">
<path d="M52.35 10.23C31.51 10.6 19.17 33.83 30.54 51.36C40.77 67.14 64.13 67.4 74.72 51.84C86.82 34.06 73.86 9.85 52.36 10.23H52.35Z" fill="white"/>
</mask>
<g mask="url(#mask0_60_377)">
<path d="M96.21 27.15H98.71C98.89 26.53 98.95 25.83 98.69 25.22C97.33 25.25 95.7 25.13 95.94 23.33C96.14 21.87 98.26 21.97 99.34 22.27C101.64 22.91 102.04 25.26 101.75 27.34C101.46 29.42 99.25 30.35 97.32 30.27C99.2 32.31 101.19 34.27 101.94 37.04C102.55 39.27 102.58 46.46 102.31 48.87C102.13 50.45 101.09 51.64 99.85 52.52C99.93 55.54 100.14 59.2 96.5 60.15C94.93 60.56 89.63 60.53 88.2 59.82C87.32 59.39 85.79 57.65 85.79 56.67V53.13H57.17V56.67C57.17 57.65 55.64 59.39 54.76 59.82C53.33 60.53 48.03 60.56 46.46 60.15C42.82 59.2 43.03 55.54 43.11 52.52C41.87 51.64 40.83 50.45 40.65 48.87C40.37 46.46 40.41 39.26 41.02 37.04C41.78 34.25 43.74 32.32 45.64 30.27C43.71 30.35 41.5 29.5 41.21 27.34C40.92 25.18 41.32 22.92 43.62 22.27C44.7 21.97 46.83 21.87 47.02 23.33C47.26 25.12 45.63 25.24 44.27 25.22C44.01 25.83 44.07 26.52 44.25 27.15H46.75C47.27 25.13 47.85 23.06 48.52 21.07C50.24 15.95 52.97 12.79 58.63 12.14C67.01 12.55 75.88 11.62 84.21 12.14C92.54 12.66 94.05 19.93 96.16 26.6C96.22 26.78 96.24 26.97 96.22 27.16L96.21 27.15ZM99.41 44.11V39.59C99.41 35.52 95.86 34.18 94.52 31.42C91.4 24.96 92.87 15.64 83.23 15.06C75.11 14.58 66.38 15.31 58.23 15.22C50.66 16.44 50.94 25.96 48.45 31.56C47.08 33.36 43.7 36.35 43.7 38.76V44.11H50.72C51.25 44.11 52.04 43.3 52.15 42.76C52.25 42.26 52.25 40.68 52.19 40.15C51.91 37.8 48.17 38.75 46.56 38.56C44.97 38.37 44.83 35.86 46.7 35.64C47.84 35.5 50.98 35.54 52.02 35.88C56.03 37.18 56.37 43.88 53.23 46.2C52.95 46.41 51.71 47.03 51.42 47.03H43.71C43.75 47.69 43.59 48.43 43.84 49.06C43.94 49.31 44.68 50.09 44.89 50.09H60.66V45.02C60.66 44.52 61.26 43.74 61.8 43.65L80.88 43.55C81.39 43.48 82.34 44.32 82.34 44.73V50.08H98.11C98.11 50.08 98.73 49.74 98.81 49.67C99.27 49.24 99.59 47.84 99.41 47.26L99.22 47.03H91.58C90.01 47.03 88.06 44.58 87.9 43.07C87.58 40.17 87.92 36.88 91.1 35.85C92.08 35.53 95.36 35.51 96.45 35.63C98.17 35.83 98.17 38.35 96.45 38.55C94.95 38.73 92 37.97 91.12 39.47C90.64 40.29 90.65 42.56 91.24 43.34C91.38 43.53 92.12 44.1 92.28 44.1H99.44L99.41 44.11ZM79.26 46.61H63.7V50.08H79.26V46.61ZM54.11 53.14H46.19V56.27C46.19 56.83 47.28 57.27 47.78 57.32C48.92 57.43 51.67 57.45 52.78 57.3C53.17 57.25 54.11 56.79 54.11 56.41V53.14ZM96.77 53.14H88.85V56.41C88.85 56.77 89.82 57.25 90.18 57.3C91.25 57.45 94.06 57.42 95.18 57.32C95.68 57.27 96.77 56.84 96.77 56.27V53.14Z" fill="#46194F"/>
<path d="M53.38 27.19L89.34 27.16C91.54 27.41 91.13 30.36 88.93 30.22H54.04C51.98 30.3 51.4 27.8 53.38 27.19Z" fill="#46194F"/>
<path d="M58.8 35.66L84.26 35.7C85.42 36.35 85.39 37.79 84.23 38.44L59.18 38.55C57.62 38.28 57.36 36.33 58.8 35.66Z" fill="#46194F"/>
</g>
</svg>
