<svg width="18" height="24" viewBox="0 0 18 24" fill="none" xmlns="http://www.w3.org/2000/svg">
<path d="M16.2453 23.0193H1.76405C0.841719 22.8309 0.114699 22.1288 0.0124236 21.1993C0.056168 14.6363 -0.079378 8.0548 0.0801967 1.50325C0.313706 0.687763 1.08817 0.0594917 1.96983 0.0192871L11.9947 0.0516908L12.3034 0.244913L17.907 5.74693L18 6.06077L17.9975 21.1987C17.9359 22.0508 17.1134 22.9113 16.2459 23.0187L16.2453 23.0193ZM11.0804 1.36884H1.97168C1.80163 1.36884 1.46153 1.65147 1.43812 1.83749C1.36604 8.28102 1.36604 14.7588 1.43812 21.2023C1.53116 21.5005 1.7967 21.6523 2.10784 21.6727L16.1325 21.6289C16.3235 21.6061 16.6137 21.2749 16.6137 21.1093V6.75865H12.8548C12.1327 6.75865 11.0791 5.73193 11.0791 5.02925V1.36884H11.0804ZM15.5996 5.4115L12.4636 2.35715V4.84983C12.4636 5.04486 12.8394 5.4115 13.0402 5.4115H15.5996Z" fill="#46194F"/>
<path d="M4.70377 9.55439L13.2253 9.54419C13.9572 9.6258 14.0811 10.5751 13.412 10.8487C10.4885 10.9201 7.52251 10.9201 4.59903 10.8487C3.96442 10.5829 4.03405 9.72181 4.70438 9.55439H4.70377Z" fill="#46194F"/>
<path d="M4.70377 12.2492L13.2253 12.239C13.9572 12.3206 14.0811 13.2699 13.412 13.5436C10.4885 13.615 7.52251 13.615 4.59903 13.5436C3.96442 13.2777 4.03405 12.4166 4.70438 12.2492H4.70377Z" fill="#46194F"/>
<path d="M4.70377 14.9443L13.2253 14.9341C13.9572 15.0157 14.0811 15.965 13.412 16.2386C10.4885 16.31 7.52251 16.31 4.59903 16.2386C3.96442 15.9728 4.03405 15.1117 4.70438 14.9443H4.70377Z" fill="#46194F"/>
<path d="M4.70367 17.6392L10.5001 17.6326C11.1994 17.7658 11.2974 18.6587 10.6449 18.9335L4.74372 18.9725C3.98836 18.8231 3.95817 17.833 4.70429 17.6392H4.70367Z" fill="#46194F"/>
</svg>
