<svg width="19" height="20" viewBox="0 0 19 20" fill="none" xmlns="http://www.w3.org/2000/svg">
<path d="M13.9489 0.778564C14.6957 0.928251 15.3439 1.39515 15.6502 2.10096C15.7097 2.23875 15.841 2.63081 15.841 2.76364V3.93239H17.0095C17.8233 3.93239 18.8035 4.8429 18.9398 5.63792C19.0622 8.88542 18.9651 12.1552 18.9894 15.4107C18.9794 16.2726 17.9506 17.4002 17.0839 17.4002H15.841V19.0884C15.841 19.3813 15.4643 19.7174 15.1829 19.7659C14.8493 19.8234 14.7111 19.7144 14.4564 19.5454C13.4875 18.902 12.5856 18.0693 11.6222 17.4081L7.80923 17.4002C6.86566 17.2351 6.89094 15.8885 7.88208 15.8032C9.16165 15.6932 10.5953 15.8895 11.8913 15.8032L12.262 15.9147L14.2452 17.363V16.454C14.2452 16.3122 14.4464 16.0416 14.5669 15.9593C15.0535 15.6282 16.3167 15.8994 16.9322 15.8022C17.1493 15.768 17.3262 15.5707 17.3896 15.3695L17.3991 6.0275C17.406 5.84312 17.0933 5.52739 16.9347 5.52739H15.8405V12.2241C15.8405 13.2149 14.7012 14.2687 13.709 14.2479H7.40187L4.27729 16.5388C3.93881 16.6865 3.51311 16.5725 3.30795 16.2617C3.27028 16.2047 3.15333 15.9479 3.15333 15.8969V14.2459H2.02194C1.88218 14.2459 1.51645 14.1353 1.37323 14.0783C0.638298 13.7849 0.143221 13.0801 0 12.3168V2.67096C0.148672 1.75648 0.956455 0.891077 1.89309 0.778564H13.9489ZM4.74907 14.2092C5.38985 13.8191 5.96521 13.2407 6.59211 12.8432C6.71105 12.7678 6.82305 12.689 6.96478 12.6598L13.6347 12.6524C13.9107 12.6276 14.1318 12.5022 14.2101 12.2261C14.2814 9.09855 14.2437 5.94919 14.2289 2.81717C14.1848 2.60603 13.9608 2.39884 13.7452 2.37307L2.13146 2.37208C1.8916 2.38893 1.68643 2.55448 1.61309 2.78099L1.6121 12.2078C1.66017 12.4372 1.88119 12.6068 2.10618 12.6415C2.72069 12.7356 3.61025 12.5384 4.18561 12.6766C4.38929 12.7257 4.74907 13.0528 4.74907 13.2635V14.2097V14.2092Z" fill="#46194F"/>
<path d="M8.72449 7.75979C8.67196 8.21579 8.8459 8.82494 8.51189 9.19816C8.0629 9.70026 7.20704 9.43558 7.12726 8.76943C7.08067 8.38282 7.08067 7.41878 7.1228 7.0297C7.14312 6.84184 7.25165 6.61038 7.40131 6.49191C7.83543 6.14843 8.40732 6.49687 8.65461 5.77917C8.9019 5.06147 8.05596 4.43447 7.43897 4.89691C7.12181 5.13433 7.18673 5.36728 7.11437 5.68549C6.8983 6.63912 5.48542 6.49588 5.52804 5.39851C5.60089 3.52941 7.80917 2.50788 9.32413 3.60426C10.8629 4.71798 10.4927 7.12932 8.72449 7.75929V7.75979Z" fill="#46194F"/>
<path d="M7.91626 11.8613C8.35609 11.8613 8.71264 11.5047 8.71264 11.0648C8.71264 10.6249 8.35609 10.2683 7.91626 10.2683C7.47643 10.2683 7.11987 10.6249 7.11987 11.0648C7.11987 11.5047 7.47643 11.8613 7.91626 11.8613Z" fill="#46194F"/>
</svg>
