<svg width="29" height="27" viewBox="0 0 29 27" fill="none" xmlns="http://www.w3.org/2000/svg">
<rect width="27.5721" height="26.0404" rx="5" transform="matrix(-1 0 0 1 28.0293 0.252441)" fill="#46194F"/>
<path d="M14.8859 8.85118C13.7902 8.83087 12.666 8.80173 11.6458 9.23846C10.9847 9.52152 10.4329 9.98607 9.85229 10.3897C9.7195 10.4224 9.56565 10.3137 9.55145 10.1808C9.53451 10.0218 9.67554 9.48707 9.72545 9.30337C10.1082 7.8947 10.9929 6.87021 12.4577 6.44585C13.2457 6.21754 14.0727 6.18354 14.8909 6.16411C14.9335 5.53485 15.5123 5.20145 16.114 5.46287C16.9079 5.80775 17.7212 6.44452 18.5216 6.81237C18.9671 7.15592 18.9666 7.75648 18.5216 8.0996C17.7248 8.44669 16.8535 9.16515 16.0654 9.46897C15.4999 9.68667 15.0214 9.39831 14.8859 8.85162V8.85118ZM10.1609 9.57495C10.7209 9.16559 11.3336 8.79819 12.0117 8.59815C13.0342 8.29655 14.1189 8.39414 15.1748 8.38972C15.4239 8.46568 15.3452 8.61052 15.3786 8.78892C15.412 8.96732 15.5933 9.10863 15.7829 9.06491L18.2477 7.70173C18.4588 7.46901 18.3714 7.3012 18.1442 7.14356C17.6168 6.7788 16.7376 6.33501 16.1483 6.02545C15.9482 5.92035 15.7527 5.7499 15.5251 5.89872C15.2211 6.09787 15.5301 6.54874 15.2014 6.64589C14.9596 6.71698 14.319 6.645 14.0173 6.6609C13.1454 6.70727 12.1953 6.92365 11.4865 7.42794C10.7699 7.93798 10.3605 8.75271 10.1614 9.57495H10.1609Z" fill="white"/>
<path d="M18.7887 16.7711C18.9201 16.8978 18.7873 17.3805 18.747 17.5571C18.4608 18.8117 17.7786 19.8781 16.5482 20.4336C15.604 20.8597 14.5495 20.9127 13.5202 20.9353C13.5238 21.5376 12.875 21.909 12.3187 21.6489C11.6039 21.1984 10.7966 20.8421 10.0819 20.3987C9.49257 20.0331 9.34055 19.5266 9.86987 19.0143C10.6707 18.6593 11.5499 17.9373 12.3452 17.6304C12.9327 17.4039 13.3709 17.7143 13.5426 18.2539C14.4085 18.2464 15.289 18.2959 16.1325 18.0773C16.7364 17.921 17.2895 17.6119 17.7951 17.2661C17.9457 17.1632 18.4897 16.6978 18.6101 16.6982C18.6449 16.6982 18.7649 16.7477 18.7891 16.7711H18.7887ZM18.2493 17.5235C17.6449 17.9665 16.9768 18.3555 16.235 18.541C15.2565 18.7852 14.2382 18.7097 13.2358 18.7092C12.9867 18.6333 13.0655 18.4884 13.0321 18.31C12.9986 18.1316 12.8109 17.9784 12.62 18.0278L10.1634 19.3972C9.94313 19.6454 10.0484 19.811 10.2879 19.9682C10.8511 20.3387 11.6538 20.7533 12.2633 21.0735C12.4634 21.1786 12.6589 21.349 12.8865 21.2002C13.1905 21.0011 12.8814 20.5502 13.2102 20.453C13.452 20.3819 14.0925 20.4539 14.3943 20.438C15.1123 20.3996 15.9685 20.2265 16.594 19.8812C17.5093 19.3751 18.019 18.4986 18.2502 17.524L18.2493 17.5235Z" fill="white"/>
<path d="M21.8486 14.2116C22.5052 14.2346 22.845 14.8122 22.5744 15.3938C22.2204 16.1546 21.5675 16.9318 21.1911 17.7002C20.8463 18.1458 20.2345 18.159 19.8604 17.7391C19.4786 16.9649 18.7986 16.1626 18.4488 15.3938C18.1832 14.81 18.4859 14.3671 19.0733 14.19C19.0655 13.3532 19.1168 12.5022 18.8906 11.6875C18.7285 11.1024 18.4094 10.5712 18.0509 10.081C17.9474 9.93926 17.4625 9.40185 17.4634 9.29366C17.4652 8.91919 18.0902 9.10687 18.3242 9.155C19.9131 9.48178 21.0926 10.3495 21.5643 11.8862C21.7959 12.6409 21.8253 13.4287 21.8486 14.2116ZM18.3183 9.64163C18.7766 10.2259 19.1796 10.8715 19.371 11.5882C19.6237 12.5336 19.5459 13.5175 19.545 14.4863C19.4667 14.727 19.3165 14.651 19.1315 14.6833C18.9465 14.7155 18.7817 14.8948 18.8467 15.0745L20.2565 17.4556C20.5134 17.6684 20.6846 17.5664 20.8472 17.3354C21.2291 16.7932 21.6609 16.0142 21.991 15.4269C22.0995 15.2335 22.2763 15.0445 22.1224 14.825C21.9164 14.5314 21.4493 14.8299 21.3495 14.5124C21.2758 14.2788 21.3504 13.6597 21.3339 13.3682C21.2946 12.6745 21.1151 11.8469 20.7575 11.2424C20.2359 10.361 19.3238 9.8611 18.3183 9.64207V9.64163Z" fill="white"/>
<path d="M9.34323 12.8917C9.32217 13.9502 9.29195 15.0369 9.74389 16.0225C10.0365 16.6611 10.5177 17.1945 10.9353 17.7558C10.9692 17.8843 10.857 18.0331 10.7192 18.0468C10.5557 18.0631 9.99985 17.9271 9.8112 17.879C8.35327 17.5058 7.29371 16.6567 6.85368 15.2387C6.61741 14.4774 6.58215 13.6782 6.562 12.8877C5.91042 12.8466 5.56563 12.2871 5.83624 11.7056C6.1934 10.9372 6.85322 10.1543 7.23281 9.37884C7.58859 8.94829 8.20995 8.94873 8.56482 9.37884C8.92335 10.1503 9.66742 10.9898 9.98199 11.7519C10.2091 12.3022 9.90965 12.7513 9.34323 12.8917ZM10.0923 17.4573C9.58042 16.8099 9.14863 16.0804 8.9783 15.2718C8.79422 14.3993 8.86977 13.4993 8.86565 12.6126C8.94395 12.3719 9.09414 12.4479 9.27913 12.4156C9.46412 12.3834 9.61019 12.2081 9.56485 12.0248L8.15409 9.64335C7.89721 9.4305 7.72596 9.53251 7.56341 9.76346C7.18153 10.3057 6.74974 11.0847 6.4196 11.672C6.31108 11.8654 6.13433 12.0544 6.28818 12.2739C6.49423 12.5676 6.96128 12.269 7.0611 12.5865C7.13482 12.8201 7.06019 13.4393 7.07667 13.7307C7.11605 14.4244 7.29554 15.252 7.65316 15.8565C8.17653 16.741 9.08407 17.2334 10.0923 17.4568V17.4573Z" fill="white"/>
<path d="M14.0952 9.91633C16.9813 9.82934 18.8834 12.8361 17.5015 15.294C16.1484 17.7011 12.5947 17.8172 11.0512 15.521C9.45815 13.1514 11.1917 10.0038 14.0952 9.91633ZM13.8209 10.4127C11.8085 10.5995 10.5021 12.6189 11.0773 14.4687C11.7453 16.6188 14.5307 17.4256 16.3123 15.9661C18.768 13.9547 17.0724 10.1106 13.8214 10.4127H13.8209Z" fill="white"/>
<path d="M14.4831 11.6584C14.9171 11.6941 15.5325 12.2033 15.604 12.6144C15.6443 12.8462 15.4075 12.9964 15.2157 12.8546C15.071 12.7482 15.0357 12.4289 14.7436 12.2514C14.065 11.8394 13.0425 12.4731 13.587 13.0375C13.8429 13.3029 14.2875 13.2812 14.6236 13.3603C16.0431 13.6941 15.9103 15.3562 14.4794 15.4366C14.4771 15.642 14.5504 16.0804 14.2234 16.0685C13.8782 16.0562 14.0334 15.6623 13.9963 15.4397C13.5476 15.377 13.1034 15.1293 12.8969 14.7301C12.8186 14.5786 12.7005 14.2571 12.9116 14.1701C13.2825 14.0173 13.2715 14.5159 13.489 14.7208C14.0774 15.2745 15.5609 14.8992 15.0426 14.1472C14.7587 13.7356 14.2308 13.8266 13.8013 13.6906C12.5347 13.2892 12.776 11.8717 13.9949 11.6566C14.0384 11.461 13.8887 11.0971 14.1612 11.0384C14.5435 10.9562 14.4808 11.4248 14.4826 11.6575L14.4831 11.6584Z" fill="white"/>
</svg>
