<svg width="18" height="18" viewBox="0 0 18 18" fill="none" xmlns="http://www.w3.org/2000/svg">
<path d="M12.2504 9.28488V15.3518H13.3765C13.5997 15.3518 13.9484 15.6489 14.0397 15.8404C14.1913 16.1589 14.1212 16.9891 14.1196 17.3812C14.1196 17.4517 14.1554 17.516 14.1505 17.5865C14.1375 17.7932 13.9599 17.9571 13.7496 18L0.369326 17.9908C0.245479 17.9433 0.0662278 17.8254 0.0352661 17.6952C-0.0168798 17.4792 -0.00384349 16.3412 0.0271181 16.087C0.0629685 15.7837 0.436138 15.3518 0.771827 15.3518H1.89785V3.16285C1.89785 2.29593 2.88863 1.259 3.83214 1.20999C5.87398 1.32793 8.1521 1.03691 10.1679 1.2054C11.2972 1.30036 12.182 2.12745 12.2504 3.19808V8.20506C13.0864 8.29237 13.849 8.85755 14.0951 9.61418C14.2939 10.2253 14.2043 10.861 14.2792 11.4874C14.3705 12.244 14.685 13.6899 15.8045 13.4678C16.4319 13.3438 16.6095 12.0878 16.6763 11.5946C16.8996 9.93736 16.8474 8.20813 16.8719 6.53709C16.8588 6.45591 16.7611 6.42374 16.6926 6.38239C16.3586 6.18327 15.2733 5.70846 15.0989 5.47565C15.0663 5.43276 15.0419 5.38375 15.0191 5.33627L14.9946 2.05546C14.4145 1.59443 13.6893 1.27125 13.1581 0.765808C12.956 0.24964 13.4205 -0.182285 13.9664 0.0780963C14.4487 0.307845 15.112 0.834734 15.5829 1.1426C15.7817 1.27279 16.005 1.37388 16.1956 1.501C18.3271 2.92085 18.0158 7.27381 17.9392 9.4457C17.892 10.7905 17.9425 14.0162 16.2135 14.4649C14.2027 14.9857 13.3602 13.2212 13.1711 11.6681C13.1141 11.1933 13.1402 10.7047 13.0897 10.2376C13.0392 9.77041 12.7572 9.34768 12.2504 9.28488ZM10.3797 3.39566H3.77185V7.16507H10.3797V3.39566Z" fill="#46194F"/>
</svg>
