<svg width="80" height="88" viewBox="0 0 80 88" fill="none" xmlns="http://www.w3.org/2000/svg">
<path d="M32.9899 14.94H42.9499C43.0399 14.94 43.8799 15.2 44.0599 15.26C46.8999 16.25 48.2099 19.63 46.7999 22.29L55.9499 21.13C57.3999 19.05 58.1699 16.79 60.3799 15.33C64.5599 12.57 70.3099 13.65 72.8899 18C75.2299 21.95 74.2699 25.64 71.7699 29.2L79.6799 35.61L79.8199 82.12C79.5799 84.9 77.4399 87.06 74.6999 87.4C65.2399 86.87 54.9999 88.11 45.6299 87.4C43.9299 87.27 42.4899 86.25 40.6999 86.23C32.6099 81.23 23.0599 76.99 15.2399 71.68C12.6799 69.94 11.6299 67.53 12.6799 64.49L23.8299 44.88C22.8299 44.87 21.8199 44.72 20.9199 44.29C19.4599 43.58 19.1899 42.17 17.2899 42C14.8199 41.78 15.7799 42.47 14.5899 43.62C14.1999 44 13.1099 44.56 12.5799 44.65C11.1199 44.89 5.70987 44.88 4.20987 44.68C2.57987 44.46 1.08987 42.78 0.899872 41.18L0.879883 18.6C1.06988 16.91 2.67988 15.29 4.37988 15.1C5.95988 14.92 11.1199 14.88 12.6199 15.11C13.0899 15.18 14.2499 15.85 14.5999 16.18C15.5099 17.03 15.2999 18.47 17.0099 17.51C18.2299 16.82 21.1699 12.26 21.8499 10.87C23.1799 8.15001 23.3099 5.82001 24.1099 3.09001C25.3299 -1.05999 29.9499 -0.329998 32.1699 2.57C34.8899 6.12 33.5699 10.9 32.9899 14.93V14.94ZM30.1199 14.94C30.2799 11.79 32.2699 5.83 29.1399 3.64C28.6199 3.27 27.3599 2.74 27.0199 3.51C26.6299 4.37 26.4399 6.51 26.1299 7.63C25.0899 11.39 23.0099 15.32 20.4299 18.26C19.2399 19.61 17.8699 20.79 15.9499 20.69V39.17C17.0799 39.17 18.0899 39.08 19.1699 39.44C20.6699 39.95 21.1999 41.38 22.6799 41.85L40.2099 41.82C41.0999 41.37 41.3299 40.22 40.6099 39.52C39.8199 38.74 37.1799 39.45 36.0199 39.09C34.8599 38.73 34.8399 36.67 35.9799 36.34C37.8599 35.79 42.9899 37.54 43.2199 34.42C43.4799 30.84 37.6799 33.44 36.8899 31.6C35.5099 28.39 41.2199 29.54 42.7499 29.3C45.0799 28.94 45.0699 25.31 42.3999 25.01C41.1299 24.87 37.5799 25.65 37.6499 23.5C37.7399 20.79 42.6799 23.31 44.0999 21.15C44.9099 19.92 44.2599 18.18 42.7599 18.01C38.2799 17.48 32.8799 18.48 28.2999 17.93C25.2699 16.72 27.5699 14.3 30.0999 14.96L30.1199 14.94ZM59.7199 20.68L60.8599 20.88L69.3099 27.49C71.4199 24.92 72.2199 21.41 69.8499 18.7C66.8299 15.25 61.2799 16.5 59.7099 20.67L59.7199 20.68ZM59.1599 23.76L57.7999 23.97L54.8799 29.3C59.6399 30.48 58.9599 38.14 54.2399 38.79C47.7999 39.68 45.8599 31.24 51.7899 29.07L54.1699 24.27L47.4699 25.19C46.8999 25.37 47.3499 26.22 47.3599 26.68C47.3899 28.68 46.8499 30.15 45.2199 31.35C46.8299 33.64 46.2899 37.27 43.6099 38.47C44.6999 41.62 43.1399 44.56 39.7299 44.9C35.9699 45.27 31.3899 44.45 27.6999 44.9C27.4999 44.92 27.3099 44.9 27.1699 45.09L15.3799 65.59C15.0099 66.69 15.2399 67.94 16.0499 68.77L41.1899 83.28C42.3299 83.89 43.5999 83.56 44.4899 82.68L67.1699 43.49L59.1699 23.76H59.1599ZM46.8099 84.55H74.5299C74.7699 84.55 75.9299 83.9 76.1499 83.66C76.5599 83.22 76.8799 82.36 76.9499 81.77V36.96L63.4999 26.61L70.3099 43.22L70.2799 43.88L64.2199 54.51C66.9299 54.56 69.3599 56.13 69.8799 58.89C69.7199 63.65 70.3699 69.01 69.9699 73.71C69.7699 76.09 68.1999 77.86 65.9099 78.44L50.5299 78.49L46.8199 84.55H46.8099ZM51.2899 32.89C50.2299 37.84 57.6199 36.14 54.4299 32.17C54.2399 32.89 54.8399 33.59 54.6299 34.33C54.3499 35.28 52.9299 35.73 52.1799 34.96L51.2899 32.89ZM52.0099 75.58H65.3699C66.1799 75.58 66.9599 74.23 67.0599 73.5C67.6299 69.34 66.6799 64 67.0599 59.72C66.6399 57.21 64.5399 57.57 62.5399 57.68L52.0099 75.58Z" fill="#46194F"/>
<path d="M35.1999 63.33C34.0699 62.2 35.5599 61.04 35.4799 60.63C35.4499 60.47 34.4199 59.26 34.2199 58.84C33.6699 57.68 33.1299 54.96 35.0599 54.94C36.7399 54.93 36.3799 56.13 36.6699 57.1C37.5699 60.13 42.1399 60.05 42.2699 57.34C42.3599 55.63 37.8599 53.34 37.4899 50.72C37.0499 47.53 39.5999 44.76 42.7899 44.75C43.2099 44.75 44.2399 45.1 44.4899 45C45.0199 44.77 45.2099 42.82 46.9899 43.57C48.5999 44.25 47.0699 46.1 47.1999 46.58C47.2599 46.82 48.2199 47.95 48.4599 48.56C48.9399 49.75 49.4999 51.97 47.6199 52.1C45.5499 52.25 46.3099 50.09 45.2799 48.87C43.5499 46.84 39.8399 47.81 40.3999 50.34C40.5799 51.14 43.2599 53.28 43.9499 54.15C47.3299 58.47 43.0199 63.39 38.1499 62.15C37.5999 63.21 36.3499 64.48 35.2099 63.34L35.1999 63.33Z" fill="#46194F"/>
<path d="M23.6199 64.31C24.3899 64.14 24.7699 64.48 25.3999 64.78C30.5599 67.28 35.5699 71.08 40.7699 73.63C42.4499 74.59 41.5499 76.97 39.6299 76.39L23.1399 66.87C22.2099 66.2 22.4799 64.56 23.6199 64.31Z" fill="#46194F"/>
</svg>
