<svg width="33" height="25" viewBox="0 0 33 25" fill="none" xmlns="http://www.w3.org/2000/svg">
<g clip-path="url(#clip0_46_5700)">
<path d="M33.0001 18.0143C32.8401 18.4086 32.6296 18.7098 32.2422 18.8495C31.8155 19.0017 30.7966 19.0048 30.3811 18.8123C30.1874 18.7222 29.7186 18.2627 29.7186 18.0485V14.6642H28.6239V17.9802C28.6239 18.3931 28.0821 19.101 27.7565 19.2997C26.9817 19.7779 26.0638 19.2438 25.2975 19.7127C23.3101 21.1036 21.4546 23.1776 19.4812 24.5313C19.1584 24.7549 18.8524 24.9039 18.4735 24.9815L6.462 25.0002C5.9483 25.0126 5.01635 24.1557 5.01635 23.6092V19.5109H3.34334V22.8951C3.34334 23.1311 2.87455 23.6123 2.6556 23.6993C2.32156 23.8328 1.20154 23.839 0.847844 23.7365C0.446432 23.6216 0.0534408 23.0814 0.061862 22.6126C0.22748 19.4301 -0.148669 15.9931 0.061862 12.8417C0.103968 12.2021 0.454853 11.6681 1.06118 11.5967C1.60856 11.5315 2.70332 11.5035 3.08789 11.9879C3.12719 12.0376 3.34334 12.4598 3.34334 12.4878V15.872H5.01635V11.2024C5.01635 11.0844 5.25495 10.6156 5.33917 10.4914C6.17006 9.2929 7.63816 9.94491 8.78064 9.67479L13.2692 6.38058C13.7716 6.1353 14.3134 6.0732 14.858 6.10735V4.89647H11.8039C11.6158 4.89647 11.147 4.34071 11.0937 4.11406C10.9786 3.6235 11.0516 2.51197 11.206 2.02452C11.5512 0.93162 12.5084 0.167834 13.5358 0.0467465C15.4671 0.170939 17.5443 -0.108494 19.4588 0.0467465C21.3732 0.201987 22.336 2.12698 21.9823 4.06128C21.9374 4.30656 21.463 4.89647 21.2581 4.89647H18.204V6.10735H27.1754C27.7565 6.10735 28.6239 7.06674 28.6239 7.71254V10.9571H29.7186V7.64113C29.7186 7.38343 30.165 6.90529 30.3895 6.81836C30.6674 6.70969 31.9334 6.70037 32.2282 6.7842C32.6324 6.89908 32.8036 7.24372 32.9973 7.60698V18.0143H33.0001ZM20.9072 3.68559C21.042 2.31947 20.4833 1.35698 19.2061 1.25763C17.7212 1.14275 15.2762 1.13033 13.7969 1.25763C12.573 1.36319 12.0172 2.38468 12.1604 3.68249H20.9072V3.68559ZM17.0503 4.89958H16.0201V6.11046H17.0503V4.89958ZM14.0102 7.41138C12.4748 8.22484 11.1246 9.64374 9.64803 10.5597C8.39327 11.339 7.74764 10.8236 6.53779 11.0316C6.36936 11.0595 6.24305 11.1651 6.16445 11.3297V23.4105C6.29077 23.6775 6.52656 23.7862 6.78762 23.7893L18.3387 23.7551C18.6223 23.7148 18.8328 23.513 19.063 23.3453C20.9914 21.9481 22.7992 20.0759 24.722 18.6415C24.9606 18.4925 25.3059 18.3403 25.5782 18.3062C26.3193 18.2099 27.5179 18.6881 27.5347 17.4803C27.3579 14.4811 27.7621 11.1682 27.5347 8.20932C27.5038 7.8119 27.4393 7.35549 26.9873 7.38964L14.0074 7.41138H14.0102ZM31.9053 7.96404H30.8106V17.6573H31.9053V7.96404ZM29.7186 12.2394H28.6239V13.4503H29.6204L29.7158 13.3447V12.2394H29.7186ZM2.257 12.8107H1.16224V22.5753H2.257V12.8107ZM5.02197 17.086H3.34895V18.2969H5.02197V17.086Z" fill="#46194F"/>
</g>
<defs>
<clipPath id="clip0_46_5700">
<rect width="33" height="25" fill="white"/>
</clipPath>
</defs>
</svg>
