<svg width="18" height="14" viewBox="0 0 18 14" fill="none" xmlns="http://www.w3.org/2000/svg">
<g clip-path="url(#clip0_602_502)">
<path d="M18.0002 10.0881C17.9129 10.3089 17.7981 10.4775 17.5868 10.5558C17.354 10.641 16.7982 10.6427 16.5716 10.5349C16.466 10.4845 16.2103 10.2272 16.2103 10.1072V8.21201H15.6131V10.0689C15.6131 10.3002 15.3176 10.6966 15.14 10.8079C14.7174 11.0756 14.2168 10.7766 13.7988 11.0391C12.7147 11.8181 11.7026 12.9795 10.6262 13.7376C10.4502 13.8628 10.2833 13.9462 10.0766 13.9897L3.52485 14.0001C3.24465 14.0071 2.73631 13.5272 2.73631 13.2212V10.9261H1.82376V12.8213C1.82376 12.9534 1.56806 13.2229 1.44863 13.2716C1.26643 13.3464 0.655505 13.3499 0.462582 13.2925C0.24363 13.2281 0.0292716 12.9256 0.033865 12.6631C0.124202 10.8809 -0.08097 8.95617 0.033865 7.19139C0.056832 6.83322 0.248224 6.53416 0.578948 6.49417C0.877519 6.45766 1.47466 6.44201 1.68443 6.71325C1.70586 6.74107 1.82376 6.97753 1.82376 6.99318V8.88836H2.73631V6.27336C2.73631 6.20729 2.86646 5.94474 2.9124 5.87519C3.36561 5.20406 4.16639 5.56918 4.78956 5.41792L7.23785 3.57316C7.51192 3.4358 7.80743 3.40103 8.10447 3.42015V2.74206H6.43859C6.33601 2.74206 6.08031 2.43083 6.05122 2.30391C5.98844 2.02919 6.02825 1.40674 6.11246 1.13376C6.30079 0.521741 6.82291 0.0940215 7.3833 0.0262122C8.43672 0.0957602 9.56976 -0.0607227 10.614 0.0262122C11.6582 0.113147 12.1834 1.19114 11.9905 2.27435C11.966 2.41171 11.7072 2.74206 11.5955 2.74206H9.92958V3.42015H14.8231C15.14 3.42015 15.6131 3.95741 15.6131 4.31906V6.136H16.2103V4.27907C16.2103 4.13476 16.4537 3.867 16.5762 3.81831C16.7278 3.75746 17.4184 3.75224 17.5791 3.79919C17.7996 3.86352 17.893 4.05652 17.9986 4.25994V10.0881H18.0002ZM11.4041 2.06397C11.4776 1.29894 11.1729 0.759943 10.4762 0.704305C9.66622 0.639973 8.33261 0.633018 7.5257 0.704305C6.85813 0.76342 6.55496 1.33545 6.63305 2.06223H11.4041V2.06397ZM9.30028 2.7438H8.73836V3.42189H9.30028V2.7438ZM7.64207 4.15041C6.80454 4.60594 6.06806 5.40053 5.26268 5.91345C4.57827 6.34986 4.22611 6.06123 3.56619 6.17773C3.47432 6.19338 3.40542 6.25249 3.36255 6.34464V13.1099C3.43145 13.2594 3.56006 13.3203 3.70246 13.322L10.0031 13.3029C10.1577 13.2803 10.2726 13.1673 10.3981 13.0734C11.45 12.291 12.436 11.2426 13.4849 10.4393C13.615 10.3558 13.8033 10.2706 13.9519 10.2515C14.3561 10.1976 15.0099 10.4654 15.0191 9.78901C14.9226 8.10942 15.1431 6.25423 15.0191 4.59725C15.0022 4.3747 14.967 4.11911 14.7205 4.13823L7.64053 4.15041H7.64207ZM17.403 4.45989H16.8059V9.88811H17.403V4.45989ZM16.2103 6.85408H15.6131V7.53217H16.1567L16.2088 7.47306V6.85408H16.2103ZM1.23121 7.174H0.634069V12.6422H1.23121V7.174ZM2.73938 9.56819H1.82682V10.2463H2.73938V9.56819Z" fill="#46194F"/>
</g>
<defs>
<clipPath id="clip0_602_502">
<rect width="18" height="14" fill="white"/>
</clipPath>
</defs>
</svg>
