<svg width="28" height="14" viewBox="0 0 28 14" fill="none" xmlns="http://www.w3.org/2000/svg">
<g clip-path="url(#clip0_419_4777)">
<path d="M25.061 8.85636C25.0318 8.82904 24.968 8.81211 24.9277 8.81151L18.6145 8.81389C18.5487 8.82696 18.4858 8.86497 18.4741 8.93713C18.4151 9.3036 18.5896 9.86665 18.2774 10.1601C18.1481 10.2815 17.9569 10.3391 17.7818 10.3302C17.9441 9.74816 17.9031 9.15986 17.5842 8.64373C17.3278 8.22916 16.9255 7.99039 16.5495 7.70322L17.5485 6.85953C17.6222 6.94981 17.719 7.00831 17.8254 7.05226C18.1329 7.17907 18.6431 7.18739 18.9627 7.10037C19.8237 6.86547 19.7342 5.35953 18.7446 5.2841C18.1534 5.23896 17.5359 5.31172 17.3708 5.98674C17.1032 5.58553 16.7118 5.41418 16.2507 5.34112L16.4557 4.4125C16.2446 4.40834 15.9645 4.2943 15.854 4.10335C15.7672 3.95368 15.7683 3.64542 15.7835 3.47377C15.8329 2.9128 16.5796 2.95348 16.9597 3.12276C16.9591 3.0984 16.965 3.07494 16.9746 3.05267C17.2769 2.36429 17.7432 0.91894 18.2587 0.448836C18.7048 0.0419867 19.2454 0.0247624 19.8079 0.0111018C20.8978 -0.0153286 21.9904 0.0137745 23.0768 0.0315927C24.2018 0.0503018 25.0271 -0.186086 25.6492 0.966455C26.0194 1.65246 26.2495 2.43497 26.5982 3.13345C26.8918 2.95734 27.6177 2.89023 27.7472 3.29351C27.7963 3.44616 27.7911 3.89339 27.7437 4.04811C27.6785 4.26074 27.4788 4.31064 27.287 4.36201C27.2482 4.37241 27.1488 4.36795 27.1415 4.40418C27.3946 5.17363 27.3838 5.9906 27.4014 6.7936C27.4207 7.67501 27.4242 8.64432 27.3458 9.52395C27.318 9.83606 27.2461 10.1755 26.9125 10.2791C26.6672 10.3555 25.7492 10.3644 25.5072 10.2913C24.9563 10.125 25.1712 9.44139 25.1233 9.01197C25.1183 8.96653 25.0935 8.88695 25.0616 8.85666L25.061 8.85636ZM19.1968 0.96497C18.6779 1.04872 18.5209 1.53099 18.3467 1.96071C18.1207 2.51783 17.9359 3.09395 17.7146 3.65314C17.6921 3.73243 17.757 3.86667 17.8368 3.89161L25.656 3.90111C25.7791 3.89607 25.8872 3.80549 25.8422 3.67245C25.57 3.04643 25.3648 2.36964 25.0829 1.75016C24.9268 1.40716 24.726 0.962594 24.2927 0.959327L19.1971 0.96497H19.1968ZM24.7637 5.28975C23.7933 5.40764 23.72 6.85389 24.7078 7.11879C25.4539 7.31894 26.2664 6.97921 26.1869 6.09097C26.1179 5.32063 25.3852 5.21432 24.7634 5.28975H24.7637Z" fill="white"/>
<path d="M17.3684 6.53369L16.708 7.02963C16.4417 6.20613 15.0521 6.31512 15.281 7.30225C15.3982 7.80769 16.3972 8.07318 16.7978 8.36065C17.4845 8.85332 17.6985 9.56546 17.4038 10.3726C17.124 11.1394 16.4732 11.4895 15.6806 11.4295C14.9535 11.3746 14.384 10.8303 14.0732 10.1968L14.8193 9.74304C15.0298 10.1633 15.3041 10.4864 15.7944 10.5365C16.3741 10.5956 16.8036 9.96607 16.5653 9.43152C16.3779 9.01131 15.5286 8.75948 15.1383 8.50943C14.4574 8.07318 14.2109 7.3753 14.4802 6.58833C14.8933 5.37996 16.4741 5.32175 17.2024 6.24295C17.2354 6.28483 17.391 6.49449 17.3684 6.53398V6.53369Z" fill="white"/>
<path d="M4.21606 13.0513C4.17689 13.3872 3.91815 13.6277 3.60357 13.7002C3.26472 13.778 2.19205 13.7851 1.8763 13.6637C1.39536 13.4787 1.38221 13.0359 1.35911 12.5955C1.29976 11.4697 1.26088 10.1101 1.35853 8.99264C1.41788 8.31169 1.61639 7.65746 1.75088 6.99165C1.39829 6.96285 1.0612 6.88445 0.960624 6.49453C0.909461 6.29585 0.894843 5.79635 1.01413 5.62708C1.21059 5.34792 1.87367 5.3996 2.17188 5.40019C2.55808 4.72518 2.90424 4.02641 3.29805 3.35585C3.69157 2.68588 3.95323 2.22617 4.80429 2.17272C5.24839 2.1448 5.72318 2.15846 6.16786 2.15371C7.06921 2.14421 7.96559 2.1742 8.86606 2.17539L9.20491 3.3217L7.73696 3.3315C7.09114 3.33358 6.42309 3.29942 5.77639 3.3116C5.22792 3.3217 4.85633 3.28784 4.48942 3.76834C4.02252 4.3801 3.65911 5.13737 3.20742 5.76695C3.13491 5.88871 3.20625 6.02383 3.34746 6.02472L9.42564 6.0265L11.2216 11.8088H4.21606V13.051V13.0513ZM3.42727 7.62242C2.22508 7.75992 2.26689 9.64419 3.40271 9.74219C3.74624 9.77189 4.58064 9.77723 4.88235 9.65013C5.74452 9.28634 5.61852 7.8199 4.68705 7.64142C4.41341 7.58886 3.71145 7.59005 3.42727 7.62242Z" fill="white"/>
<path d="M14.2912 5.99727L12.5081 11.7926L11.6723 11.803L9.8418 6.00707C9.87162 5.95896 9.88185 5.99757 9.88916 5.99757H10.8098C10.8142 5.99757 10.8203 5.98302 10.8291 5.98242L10.854 6.01093L12.095 10.2041L13.3609 5.99757H14.2912V5.99727Z" fill="white"/>
</g>
<defs>
<clipPath id="clip0_419_4777">
<rect width="26.8592" height="13.7571" fill="white" transform="translate(0.922363)"/>
</clipPath>
</defs>
</svg>
