<svg width="23" height="23" viewBox="0 0 23 23" fill="none" xmlns="http://www.w3.org/2000/svg">
<path d="M21.986 10.3817H11.2741C10.7142 10.3817 10.2603 10.8313 10.2603 11.3859V21.9958C10.2603 22.5504 10.7142 23 11.2741 23H21.986C22.546 23 22.9999 22.5504 22.9999 21.9958V11.3859C22.9999 10.8313 22.546 10.3817 21.986 10.3817Z" fill="#46194F"/>
<path d="M11.6041 0C12.2567 0.17528 12.6936 0.659125 12.7544 1.33833L12.7138 8.88632C12.5774 9.23323 12.0594 9.12185 12.0502 8.74756L12.0465 1.24887C12.0041 0.903786 11.6521 0.660951 11.3166 0.655473L1.27194 0.668254C0.932754 0.743113 0.704174 0.995078 0.66362 1.33833V11.2106C0.667306 11.5447 0.912477 11.8916 1.26088 11.9336H8.79112C9.34229 11.9683 9.29989 12.6475 8.74872 12.6366H1.3512C0.665463 12.5727 0.176965 12.14 0 11.4936V1.09732C0.184339 0.534969 0.541956 0.182583 1.10788 0H11.6041Z" fill="#46194F"/>
<path d="M8.08335 8.2929H4.7081C4.56985 8.34037 4.27859 9.52351 4.10531 9.71339C3.97996 9.85216 3.8159 9.85216 3.6629 9.75356C3.42142 9.59837 3.54677 9.35736 3.61682 9.14191C4.17721 7.37998 5.04544 5.31314 5.75515 3.58225C5.97082 3.05641 6.19756 2.45206 6.81509 3.08015L9.23362 9.41761C9.2668 9.7773 8.89997 9.97084 8.64189 9.69331C8.46861 9.50707 8.15339 8.33854 8.08519 8.2929H8.08335ZM7.77919 7.58448L6.38374 3.85613L4.94406 7.58448H7.77919Z" fill="#46194F"/>
<path d="M7.82518 18.2766C7.67587 18.0283 7.17447 17.884 7.1247 17.5846C7.08414 17.3418 7.33853 17.1501 7.57264 17.2322L9.17823 18.4482C9.20772 18.5486 9.21694 18.6582 9.17454 18.7568C9.13952 18.8408 7.89339 19.7793 7.73301 19.8724C7.49522 20.0093 7.2058 20.0641 7.13391 19.7245C7.0528 19.3392 7.64084 19.2078 7.82518 18.9339H6.42974C6.0924 18.9339 5.41219 18.6217 5.12646 18.4263C3.55958 17.3491 3.96513 15.6054 3.93563 13.9658C4.00384 13.6609 4.43704 13.6098 4.5716 13.8873C4.71907 15.2932 4.16237 16.9072 5.5062 17.8731C5.74768 18.0465 6.31545 18.2748 6.60486 18.2748H7.82334L7.82518 18.2766Z" fill="#46194F"/>
<path d="M14.9111 4.19574H16.3065C16.7231 4.19574 17.49 4.58647 17.8107 4.85487C19.1619 5.98323 18.7582 7.61187 18.7988 9.16565C18.7306 9.47057 18.2974 9.52169 18.1628 9.24416C18.0135 7.85471 18.561 6.31736 17.3019 5.31498C17.0402 5.10683 16.4595 4.85487 16.1277 4.85487H14.9092C15.0585 5.10318 15.5599 5.24742 15.6097 5.54686C15.6503 5.78969 15.3959 5.9814 15.1618 5.89924L13.5562 4.68324C13.5267 4.58282 13.5175 4.47327 13.5598 4.37467C13.5949 4.29068 14.841 3.35221 15.0014 3.25909C15.2392 3.12215 15.5286 3.06738 15.6005 3.40698C15.6816 3.79223 15.0935 3.92369 14.9092 4.19757L14.9111 4.19574Z" fill="#46194F"/>
<path d="M18.9962 19.4488L17.8165 20.2211C17.1694 20.2211 16.668 20.1955 16.3141 20.1426C15.7021 20.0531 15.2284 19.8742 14.8966 19.6058C14.4763 19.2698 14.2661 18.7878 14.2661 18.1597C14.2661 17.7781 14.3251 17.4349 14.4431 17.1299C14.5389 16.8798 14.6772 16.6443 14.8578 16.4233C14.9445 16.3193 15.0975 16.1604 15.315 15.9468C15.0164 15.7989 14.8099 15.6711 14.6938 15.5634C14.4394 15.326 14.3122 15.0266 14.3122 14.6632C14.3122 14.3364 14.4505 14.0169 14.727 13.7029C15.044 13.3432 15.4274 13.1624 15.8791 13.1624C16.0819 13.1624 16.2957 13.2208 16.5224 13.3377C16.6754 13.4144 16.8653 13.5422 17.0957 13.7211C16.7916 13.7211 16.4782 13.7412 16.1574 13.7814C15.7445 13.8343 15.409 13.9092 15.1546 14.0078C14.8431 14.1283 14.6882 14.2762 14.6882 14.4515C14.6882 14.6395 14.8671 14.8184 15.2247 14.9882C15.527 15.1307 15.868 15.2311 16.2514 15.2895C16.563 15.1234 16.8653 14.9809 17.1602 14.8641C17.4902 14.7345 17.8312 14.6267 18.187 14.5409L17.9916 15.2621C17.3446 15.5123 16.8782 15.7021 16.5925 15.8354C16.0136 16.1057 15.5712 16.3832 15.2634 16.668C14.8689 17.0314 14.6717 17.4221 14.6717 17.8365C14.6717 18.251 14.8357 18.6125 15.1657 18.8627C15.4514 19.0781 15.8735 19.2315 16.4303 19.3209C16.8727 19.3922 17.4349 19.4268 18.1188 19.4268C18.2644 19.4268 18.4119 19.4268 18.5575 19.4214C18.7031 19.4159 18.8506 19.4159 18.9962 19.4122V19.4542V19.4488Z" fill="white"/>
</svg>
