<svg width="9" height="13" viewBox="0 0 9 13" fill="none" xmlns="http://www.w3.org/2000/svg">
<path d="M4.87266 0.274658C7.02782 0.471716 8.77824 2.24891 8.89591 4.43783C8.98298 6.05576 7.53018 8.67807 6.67627 10.0395C6.16226 10.8585 5.51199 11.8791 4.87193 12.5924C4.81255 12.6589 4.56483 12.9304 4.49817 12.9238C4.44061 12.9183 4.1652 12.6207 4.10874 12.5565C3.53461 11.9055 2.95794 11.0204 2.48727 10.2835C1.65012 8.9731 0.213352 6.39557 0.120822 4.8536C-0.0168811 2.55312 1.88109 0.439791 4.14553 0.274658H4.87266ZM4.35864 3.13842C2.51969 3.3219 2.73972 6.18457 4.66611 6.01209C6.48247 5.84916 6.28065 2.94687 4.35864 3.13842Z" fill="#46194F"/>
</svg>
