<svg width="18" height="25" viewBox="0 0 18 25" fill="none" xmlns="http://www.w3.org/2000/svg">
<path d="M9.60889 0.0211312C11.9167 0.223364 14.0505 2.01403 14.7298 4.20354C15.2063 5.74063 14.9214 7.42862 14.9991 9.01957H16.0534C16.9344 9.01957 17.9869 10.1804 17.9975 11.0588L18 21.9331C17.9086 23.0162 17.0414 23.9078 15.9589 24.0161L2.1319 24.0193C1.01054 23.9516 0.0870291 23.0532 0 21.9331L0.0075133 11.0169C0.0225399 10.1547 1.09256 9.01957 1.94657 9.01957H3.00094C3.07795 7.42862 2.79307 5.74001 3.27017 4.20354C3.94762 2.01529 6.0839 0.223364 8.38986 0.0211312C8.71356 -0.00704372 9.28457 -0.00704372 9.60826 0.0211312H9.60889ZM12.983 9.01957V5.52776C12.983 5.15898 12.638 4.3369 12.4452 4.00381C10.8611 1.26959 6.80956 1.41109 5.42022 4.24486C5.28624 4.51847 5.01638 5.24601 5.01638 5.52776V9.01957H12.9836H12.983ZM8.98403 13.021C6.92915 13.0398 6.29991 15.7145 8.00668 16.7846C8.0743 17.5403 7.9472 18.3755 8.01357 19.1212C8.11875 20.2964 9.88062 20.2964 9.98581 19.1212C10.0522 18.3755 9.92508 17.5403 9.9927 16.7846C11.7145 15.7102 11.0508 13.0022 8.98403 13.021Z" fill="#46194F"/>
</svg>
