<svg width="18" height="19" viewBox="0 0 18 19" fill="none" xmlns="http://www.w3.org/2000/svg">
<path d="M0 16.0783V1.96074C0.184891 0.959073 0.935021 0.162951 1.955 0.0237075L9.08608 0.0192871C9.59321 0.121399 9.83269 0.589082 9.6478 1.07754C9.51353 1.43206 9.14419 1.51693 8.80654 1.53859C6.63539 1.6796 4.31369 1.42985 2.12669 1.53682C1.7908 1.5744 1.53592 1.85465 1.51038 2.1884V15.8502C1.53592 16.1844 1.79124 16.4646 2.12669 16.5018C4.31369 16.6088 6.63539 16.359 8.80654 16.5C9.33832 16.5345 9.72968 16.7365 9.70282 17.3328C9.68565 17.7046 9.43649 17.9459 9.08608 18.0198L1.955 18.0153C1.0081 17.9203 0.113136 17.0265 0 16.0783Z" fill="#46194F"/>
<path d="M15.3956 9.76076H6.55556C6.53223 9.76076 6.33061 9.65997 6.29407 9.63477C5.8653 9.33905 5.86574 8.69941 6.29407 8.40412C6.33061 8.37893 6.53179 8.27814 6.55556 8.27814H15.3956C14.5213 7.3746 13.6334 6.48256 12.7428 5.59493C12.4514 5.30451 11.9482 4.98889 11.9482 4.51944C11.9482 3.99031 12.5399 3.58363 13.0188 3.8356C14.6793 5.33855 16.2395 6.98207 17.8396 8.55972C18.0553 8.82716 18.0558 9.21086 17.8396 9.47873L13.2336 14.0654C12.6173 14.6427 11.6546 13.9341 12.0376 13.1822C12.1903 12.8825 12.5135 12.6729 12.7432 12.444C13.6338 11.5563 14.5217 10.6643 15.396 9.76076H15.3956Z" fill="#46194F"/>
</svg>
