<svg width="62" height="76" viewBox="0 0 62 76" fill="none" xmlns="http://www.w3.org/2000/svg">
<path d="M19.2896 64.368C20.1043 63.8393 20.9276 63.575 21.7596 63.575C22.5743 63.575 23.1853 63.8133 23.5926 64.29C23.948 64.706 24.1256 65.2607 24.1256 65.954C24.1256 66.5 23.987 67.033 23.7096 67.553C23.4583 67.995 23.0163 68.593 22.3836 69.347L20.5506 71.427L20.0176 72.077H24.2816V72.441L23.8266 73H18.8476V72.064L19.8356 70.881L21.8376 68.554C22.2363 68.0773 22.518 67.6787 22.6826 67.358C22.908 66.9247 23.0206 66.5043 23.0206 66.097C23.0206 65.6463 22.8863 65.2823 22.6176 65.005C22.349 64.7277 21.9893 64.589 21.5386 64.589C21.01 64.589 20.4596 64.7927 19.8876 65.2L19.2896 64.368ZM28.1351 73.169C26.9825 73.169 26.1591 72.5667 25.6651 71.362C25.3445 70.5907 25.1841 69.633 25.1841 68.489C25.1841 67.0503 25.4355 65.863 25.9381 64.927C26.4321 63.991 27.1645 63.523 28.1351 63.523C29.0798 63.523 29.8035 63.978 30.3061 64.888C30.8348 65.8153 31.0991 67.0027 31.0991 68.45C31.0991 69.8107 30.8825 70.9027 30.4491 71.726C29.9378 72.688 29.1665 73.169 28.1351 73.169ZM29.9681 68.476C29.9681 65.8327 29.3571 64.511 28.1351 64.511C26.9218 64.511 26.3151 65.824 26.3151 68.45C26.3151 69.5507 26.4148 70.3783 26.6141 70.933C26.9001 71.7563 27.4071 72.168 28.1351 72.168C29.3571 72.168 29.9681 70.9373 29.9681 68.476ZM32.4293 64.368C33.244 63.8393 34.0673 63.575 34.8993 63.575C35.714 63.575 36.325 63.8133 36.7323 64.29C37.0876 64.706 37.2653 65.2607 37.2653 65.954C37.2653 66.5 37.1266 67.033 36.8493 67.553C36.598 67.995 36.156 68.593 35.5233 69.347L33.6903 71.427L33.1573 72.077H37.4213V72.441L36.9663 73H31.9873V72.064L32.9753 70.881L34.9773 68.554C35.376 68.0773 35.6576 67.6787 35.8223 67.358C36.0476 66.9247 36.1603 66.5043 36.1603 66.097C36.1603 65.6463 36.026 65.2823 35.7573 65.005C35.4886 64.7277 35.129 64.589 34.6783 64.589C34.1496 64.589 33.5993 64.7927 33.0273 65.2L32.4293 64.368ZM42.8608 63.692V64.628H39.8318L39.6758 67.501C40.0744 67.4403 40.3908 67.41 40.6248 67.41C41.5868 67.41 42.3278 67.7047 42.8478 68.294C43.2984 68.8053 43.5238 69.4857 43.5238 70.335C43.5238 71.2883 43.1901 72.0077 42.5228 72.493C41.9941 72.883 41.3008 73.078 40.4428 73.078C39.9228 73.078 39.4028 73 38.8828 72.844L38.4668 72.337V71.934C39.0648 72.0553 39.5891 72.116 40.0398 72.116C40.8458 72.116 41.4351 71.986 41.8078 71.726C42.2238 71.44 42.4318 70.9677 42.4318 70.309C42.4318 68.9917 41.6561 68.333 40.1048 68.333C39.7408 68.333 39.2121 68.372 38.5188 68.45L38.7788 63.692H42.8608Z" fill="#46194F"/>
<path d="M1.90242 49.308C2.19709 48.4587 2.73442 47.813 3.51442 47.371C4.09509 47.0417 4.72342 46.877 5.39942 46.877C6.07542 46.877 6.69509 47.059 7.25842 47.423C7.96909 47.8563 8.47176 48.4847 8.76642 49.308L8.62342 49.672C8.25942 49.8367 7.89109 50.1053 7.51842 50.478C7.15442 50.8767 6.91609 51.2753 6.80342 51.674H8.89642V53H6.03642C5.79376 53 5.57276 52.8873 5.37342 52.662H5.30842C5.12642 52.8613 4.87076 52.9827 4.54142 53.026C4.48942 53.0347 4.44176 53.0433 4.39842 53.052C3.86976 53.1387 3.50142 53.3467 3.29342 53.676C3.12876 53.9273 3.04642 54.2653 3.04642 54.69C3.04642 55.9553 3.88276 56.588 5.55542 56.588C6.04076 56.588 6.54776 56.5143 7.07642 56.367V56.913L6.38742 57.758C6.10142 57.8447 5.70276 57.8967 5.19142 57.914C4.16009 57.914 3.31076 57.667 2.64342 57.173C1.85476 56.601 1.46042 55.756 1.46042 54.638C1.46042 53.9273 1.62942 53.351 1.96742 52.909C2.38342 52.3283 3.02909 51.9557 3.90442 51.791C3.81776 51.4097 3.60542 51.0197 3.26742 50.621C2.91209 50.1963 2.50476 49.88 2.04542 49.672L1.90242 49.308ZM7.10242 49.204C6.89442 48.84 6.61276 48.5713 6.25742 48.398C5.98876 48.268 5.68976 48.203 5.36042 48.203C5.01376 48.203 4.68442 48.2767 4.37242 48.424C4.02576 48.5973 3.75709 48.8573 3.56642 49.204C3.86109 49.334 4.17309 49.594 4.50242 49.984C4.88376 50.3913 5.15242 50.8333 5.30842 51.31H5.36042C5.52509 50.8247 5.80676 50.361 6.20542 49.919C6.52609 49.5637 6.82509 49.3253 7.10242 49.204ZM11.9257 44.16C12.1597 44.16 12.3591 44.2423 12.5237 44.407C12.6884 44.5717 12.7707 44.771 12.7707 45.005C12.7707 45.2303 12.6884 45.4253 12.5237 45.59C12.3591 45.7547 12.1597 45.837 11.9257 45.837C11.7004 45.837 11.5054 45.7547 11.3407 45.59C11.1761 45.4253 11.0937 45.2303 11.0937 45.005C11.0937 44.771 11.1761 44.5717 11.3407 44.407C11.5054 44.2423 11.7004 44.16 11.9257 44.16ZM12.7187 47.02V51.479V51.674H13.3817V53H12.9267L12.4457 52.467H12.4197C12.1251 52.8223 11.7567 53 11.3147 53H8.80573V51.674H10.7687C10.8901 51.674 10.9767 51.6393 11.0287 51.57C11.1067 51.5007 11.1457 51.414 11.1457 51.31V47.02H12.7187ZM17.2002 49.204C18.3615 47.6353 19.7958 46.851 21.5032 46.851C22.5432 46.851 23.4012 47.176 24.0772 47.826C24.6925 48.4153 25.0002 49.1607 25.0002 50.062V51.258C25.0002 51.31 24.9958 51.3837 24.9872 51.479C24.9872 51.5657 24.9872 51.6307 24.9872 51.674H25.4162V53H25.1562L24.7272 52.467H24.6882C24.4022 52.8223 24.0338 53 23.5832 53H13.2872V51.674H15.6272L15.6142 47.02H17.2002V49.204ZM23.4142 50.14C23.4055 49.516 23.1672 49.022 22.6992 48.658C22.3005 48.3633 21.8195 48.216 21.2562 48.216C20.3895 48.216 19.5878 48.5757 18.8512 49.295C18.1752 49.8583 17.6248 50.6513 17.2002 51.674H23.0892C23.3058 51.674 23.4142 51.5657 23.4142 51.349V50.14ZM29.2353 43.692V51.57C29.2353 51.934 29.1183 52.246 28.8843 52.506C28.6157 52.8353 28.2647 53 27.8313 53H25.3223V51.674H27.3243C27.4197 51.674 27.502 51.6393 27.5713 51.57C27.632 51.5093 27.6623 51.4357 27.6623 51.349V43.692H29.2353ZM32.6178 43.692V52.675L31.8118 53.325H31.0318V43.692H32.6178ZM42.2554 46.669V51.349C42.2554 51.453 42.2858 51.531 42.3464 51.583C42.3984 51.6437 42.4678 51.674 42.5544 51.674H42.9184V53H42.0994C41.7008 53 41.3411 52.8397 41.0204 52.519C40.5264 52.9263 39.9761 53.13 39.3694 53.13C38.6848 53.13 38.0954 52.9133 37.6014 52.48C36.9428 51.8647 36.6134 51.0413 36.6134 50.01C36.6134 49.0653 36.9168 48.281 37.5234 47.657C38.0781 47.0937 38.7584 46.812 39.5644 46.812C40.0151 46.812 40.4658 46.9073 40.9164 47.098L41.4754 46.669H42.2554ZM40.6694 48.346C40.3661 48.2333 40.0758 48.177 39.7984 48.177C39.3304 48.177 38.9448 48.3503 38.6414 48.697C38.3381 49.035 38.1864 49.477 38.1864 50.023C38.1864 50.569 38.3208 51.0067 38.5894 51.336C38.8668 51.6653 39.2351 51.83 39.6944 51.83C40.0064 51.83 40.3314 51.7607 40.6694 51.622V48.346ZM45.9492 44.16C46.1832 44.16 46.3825 44.2423 46.5472 44.407C46.7118 44.5717 46.7942 44.771 46.7942 45.005C46.7942 45.2303 46.7118 45.4253 46.5472 45.59C46.3825 45.7547 46.1832 45.837 45.9492 45.837C45.7238 45.837 45.5288 45.7547 45.3642 45.59C45.1995 45.4253 45.1172 45.2303 45.1172 45.005C45.1172 44.771 45.1995 44.5717 45.3642 44.407C45.5288 44.2423 45.7238 44.16 45.9492 44.16ZM46.7422 47.02V51.479V51.674H47.4052V53H46.9502L46.4692 52.467H46.4432C46.1485 52.8223 45.7802 53 45.3382 53H42.8292V51.674H44.7922C44.9135 51.674 45.0002 51.6393 45.0522 51.57C45.1302 51.5007 45.1692 51.414 45.1692 51.31V47.02H46.7422ZM61.1036 47.02V51.57C61.1036 51.96 60.9649 52.298 60.6876 52.584C60.4189 52.8613 60.0896 53 59.6996 53H56.9696L56.4886 52.467H56.4496C56.1636 52.8223 55.7996 53 55.3576 53H52.6276L52.1336 52.467H52.0946C51.8086 52.8223 51.4446 53 51.0026 53H47.3106V51.674H50.4956C50.7123 51.674 50.8206 51.5657 50.8206 51.349V48.515H52.4066V51.115C52.4066 51.3663 52.4023 51.5527 52.3936 51.674H54.8506C55.0673 51.674 55.1756 51.5657 55.1756 51.349V47.761H56.7616V51.232C56.7616 51.284 56.7573 51.362 56.7486 51.466C56.7486 51.5613 56.7486 51.6307 56.7486 51.674H59.1926C59.4093 51.674 59.5176 51.5657 59.5176 51.349V47.02H61.1036Z" fill="#46194F"/>
<path d="M25.6965 1.51454H39.9725C39.7616 -0.464625 42.4168 -0.409729 42.2868 1.50876C44.8901 1.73412 46.7941 3.60638 46.9675 6.23563V25.276C46.7999 27.7868 44.9623 29.7284 42.4573 29.9942L23.206 30C21.0824 29.9075 19.1754 28.4022 18.6958 26.3277C17.4072 26.3942 16.1908 26.0157 15.4858 24.8889C14.3879 23.1322 15.4049 21.9822 16.0492 20.3873C17.1847 17.5732 18.2682 13.8084 18.56 10.7863C18.7305 9.02379 18.2682 6.81348 18.7391 5.12614C19.3112 3.08342 21.2528 1.60121 23.388 1.59255C23.0991 -0.476182 25.9104 -0.559971 25.6937 1.52031L25.6965 1.51454ZM20.7934 6.16629C20.6894 7.09663 20.8714 8.20612 20.7934 9.15958H44.5867V5.88025C44.5867 5.75312 44.3209 5.2186 44.2371 5.07413C43.8441 4.40093 43.064 3.91553 42.2782 3.89531C42.4515 5.83691 39.7789 5.81379 39.9725 3.89531H25.7399C25.5694 5.66644 23.414 5.704 23.3158 3.89531C22.03 3.80285 20.9321 4.93834 20.7934 6.16629ZM20.649 11.5375C20.1433 15.5565 18.979 19.4714 17.2916 23.1408C17.2743 23.5164 17.5199 23.8169 17.8579 23.9527L39.5796 24.0105C41.3507 23.9498 42.0701 21.3697 42.5873 19.954C43.4108 17.7061 44.3931 14.1465 44.5116 11.7773C44.5145 11.6935 44.4827 11.5346 44.4076 11.5346H20.649V11.5375ZM21.1546 26.2439C21.4811 27.0211 22.3305 27.4921 23.1366 27.6134H42.1713C43.2923 27.625 44.5838 26.4751 44.5838 25.3425V20.9797L43.4223 23.6754C42.8762 24.8426 41.186 26.2439 39.8627 26.2439H21.1546Z" fill="#46194F"/>
<path d="M27.2367 15.5997C27.5949 15.2183 28.2219 15.0883 28.6784 15.3686L31.3568 18.0238L35.4538 13.973C36.4304 13.2767 37.7797 14.5335 37.0891 15.539L32.0444 20.5866C31.5908 20.942 31.091 20.8755 30.6374 20.549C30.0855 20.1503 27.5487 17.6077 27.1413 17.053C26.809 16.5994 26.8553 16.01 27.2396 15.5997H27.2367Z" fill="#46194F"/>
</svg>
