<svg width="14" height="18" viewBox="0 0 14 18" fill="none" xmlns="http://www.w3.org/2000/svg">
<path d="M3.1865 15.3724C3.1865 15.3724 3.26155 17.1753 3.1865 17.2503C3.11144 17.3254 1.22415 17.3222 1.15223 17.2503C1.05997 17.1581 1.25074 15.7993 1.15379 15.4881C1.09125 15.288 0.329763 15.1269 0.217183 14.3404C0.0936568 13.4789 2.17796 8.50498 2.71428 7.78728C3.87136 6.24242 9.62705 5.96566 10.9358 7.83262C11.5159 8.65978 13.6627 13.4398 13.5158 14.3607C13.3844 15.1801 12.6417 15.2473 12.5667 15.4865C12.4681 15.7977 12.6605 17.1565 12.5667 17.2487C12.4947 17.3207 10.6043 17.3207 10.5324 17.2487C10.4667 17.1831 10.5324 15.3708 10.5324 15.3708H3.18337L3.1865 15.3724ZM10.6418 10.4955L9.69115 8.19695C9.64268 8.07811 9.54105 8.00462 9.43003 8.00462L4.16376 7.99837C4.04805 7.99837 3.94329 8.07968 3.89638 8.20633L3.05203 10.5111C2.96759 10.7394 3.10832 10.9958 3.31784 10.9958H10.3807C10.5965 10.9958 10.7372 10.7269 10.6418 10.497V10.4955ZM2.4641 13.5758C2.4641 13.2646 2.2108 13.0113 1.89964 13.0113C1.58848 13.0113 1.33517 13.2646 1.33517 13.5758C1.33517 13.887 1.58848 14.1403 1.89964 14.1403C2.2108 14.1403 2.4641 13.887 2.4641 13.5758ZM4.78764 14.0824C5.0988 14.3592 9.21425 14.675 9.13294 13.5852C9.05789 12.5813 3.29439 12.7549 4.78764 14.0824ZM12.3524 13.5727C12.3524 13.2537 12.0944 12.9957 11.7755 12.9957C11.4565 12.9957 11.1985 13.2537 11.1985 13.5727C11.1985 13.8917 11.4565 14.1496 11.7755 14.1496C12.0944 14.1496 12.3524 13.8917 12.3524 13.5727Z" fill="#46194F"/>
<path d="M13.5066 3.48889H0.21582V4.73979H13.5066V3.48889Z" fill="#46194F"/>
<path d="M6.78302 0.83075H0.21582V2.08165H6.78302V0.83075Z" fill="#46194F"/>
</svg>
