<svg width="22" height="21" viewBox="0 0 22 21" fill="none" xmlns="http://www.w3.org/2000/svg">
<g clip-path="url(#clip0_50_6448)">
<path d="M0.673584 4.79724L0.832166 4.60938C4.1606 3.06556 7.50151 1.51988 10.8709 0.0671997L20.7315 4.51266C21.136 4.69866 21.1413 5.19343 20.744 5.38687L17.8147 6.72981C18.7074 7.20225 19.7266 7.52776 20.6121 8.00206C21.0006 8.21039 21.2607 8.45405 20.8491 8.86139L17.8129 10.2397C17.8165 10.2992 17.8735 10.3029 17.9109 10.3234C18.7876 10.7995 19.8941 11.1102 20.7422 11.6012C21.1021 11.8095 21.1556 12.1778 20.8081 12.4326L17.8129 13.7681C17.8574 13.8593 17.9804 13.8983 18.0641 13.9411C18.9604 14.3931 19.9386 14.7335 20.8331 15.2022C21.1538 15.431 21.0808 15.8588 20.744 16.0169C17.6686 17.3319 14.6716 18.8553 11.5979 20.1685C11.4108 20.2485 11.0153 20.4605 10.8371 20.4531C10.7141 20.4493 10.5146 20.3433 10.3916 20.2931C7.179 18.9725 4.01628 17.3003 0.819693 15.922L0.675366 15.7193V15.4291L0.833948 15.2413L3.89868 13.8314L3.28929 13.5133C2.57657 13.1246 1.63755 12.8716 0.95333 12.4643C0.828602 12.3899 0.764457 12.3043 0.677148 12.1927V11.9025C0.759111 11.7723 0.789402 11.7184 0.921257 11.6384C1.75337 11.1232 2.94006 10.82 3.8078 10.3345C3.83453 10.3197 3.91828 10.2713 3.89868 10.2434L1.10122 8.9916C0.928384 8.90975 0.784057 8.83535 0.677148 8.66609V8.33315C0.784057 8.16202 0.928384 8.08948 1.10122 8.00764L3.89868 6.75585C3.91828 6.72981 3.83453 6.67959 3.8078 6.66471C2.94006 6.17924 1.75337 5.87606 0.921257 5.36083C0.789402 5.27899 0.760893 5.22691 0.677148 5.09671V4.80654L0.673584 4.79724ZM19.5234 4.92186L10.8709 1.01953L2.18457 4.94232L10.8745 8.86697L19.5234 4.92186ZM19.4842 8.45219L16.6868 7.21527C14.9798 7.95928 13.3085 8.80745 11.5961 9.53844C11.4215 9.61284 11.0349 9.81745 10.8709 9.82303C10.7248 9.82861 10.527 9.71887 10.3881 9.66306C8.57595 8.91719 6.8262 7.97788 5.01944 7.21527C4.11962 7.63006 3.19129 7.99648 2.30217 8.43359C2.25584 8.45591 2.20417 8.42801 2.22198 8.51357L10.8389 12.4289L19.4308 8.54519L19.4807 8.45219H19.4842ZM19.5234 12.0216L16.685 10.7754C14.7357 11.6031 12.8398 12.5814 10.8745 13.3515L10.5769 13.2845L5.023 10.7754L2.18457 12.0402L10.8709 15.963L19.5234 12.0197V12.0216ZM19.5234 15.55L16.6904 14.3113C14.7304 15.1539 12.8131 16.1211 10.8371 16.9172L5.02479 14.3038L2.18457 15.5705L10.8745 19.4952L19.5234 15.55Z" fill="#46194F"/>
</g>
<defs>
<clipPath id="clip0_50_6448">
<rect width="20.384" height="20.384" fill="white" transform="translate(0.673584 0.0671997)"/>
</clipPath>
</defs>
</svg>
