<svg width="14" height="14" viewBox="0 0 14 14" fill="none" xmlns="http://www.w3.org/2000/svg">
<path d="M3.24526 0.0144039C2.6698 -0.0495409 2.14374 0.0986948 1.70488 0.473644C1.37065 0.758489 0.4377 1.67116 0.245879 2.01995C-0.131949 2.7059 -0.0680103 3.52265 0.394104 4.14756L8.57847 12.3354C10.1624 12.815 11.8045 13.5504 13.3972 13.966C13.8012 14.0706 14.0541 13.9398 13.9901 13.4893L12.3248 8.55975L4.23343 0.459111C3.97186 0.238211 3.59112 0.0550961 3.24817 0.0144039H3.24526ZM3.07088 0.773022C3.56787 0.819527 3.87013 1.17704 4.1724 1.53455L1.50725 4.17663C0.923066 3.69995 0.510361 3.06922 0.969568 2.33095C1.14104 2.05482 2.24837 0.970669 2.5332 0.860219C2.69886 0.796274 2.8965 0.758489 3.07379 0.773022H3.07088ZM4.74495 2.07517L11.4587 8.79228L8.78482 11.4663L2.07108 4.75213L4.74495 2.07808V2.07517ZM9.51432 11.8558L11.8481 9.52183L13.0165 12.9952L9.51432 11.8558Z" fill="#C5AECB"/>
</svg>
