<svg width="16" height="20" viewBox="0 0 16 20" fill="none" xmlns="http://www.w3.org/2000/svg">
<g clip-path="url(#clip0_401_3745)">
<path d="M7.12738 0.0134454C10.051 -0.210355 12.402 1.95421 12.5728 4.99999C12.6699 6.75543 12.4555 8.64374 12.5728 10.3922C12.5828 10.546 12.6364 11.0181 12.7703 11.0846C12.8708 11.1335 13.0215 11.0881 13.1387 11.109C13.8454 11.2349 14.1032 11.763 14.063 12.4728C14.053 12.6582 13.8922 13.1897 13.9123 13.2771C13.9291 13.354 14.3209 13.8786 14.4046 14.0324C14.6692 14.508 14.8768 15.0535 14.9806 15.5955C15.1012 16.2355 15.1682 17.9489 15.051 18.5714C14.9405 19.1519 14.4046 19.575 13.8454 19.5995H1.21316C0.720863 19.533 0.268757 19.2008 0.121403 18.6973C-0.00250736 18.2776 0.0276331 16.6971 0.0644714 16.1935C0.141497 15.1619 0.576859 14.1618 1.17632 13.354C0.905055 12.6162 0.848123 11.2944 1.81932 11.123C1.95997 11.0985 2.1944 11.1335 2.29152 11.0846C2.42547 11.0181 2.47906 10.546 2.4891 10.3922C2.60632 8.63325 2.38194 6.72745 2.4891 4.96153C2.6465 2.27243 4.542 0.212767 7.12738 0.0134454ZM6.00214 10.9447C6.57481 11.8329 7.55605 12.8994 8.6411 12.9869C10.0008 13.0988 11.337 12.4693 12.0939 11.2839C12.0336 11.0461 11.9633 10.8048 11.9465 10.5565C11.7255 7.42333 12.9277 3.25155 9.85007 1.31778C6.99343 -0.476118 3.32969 1.49262 3.11535 4.96502C3.00149 6.79739 3.19908 8.75214 3.11535 10.5985C3.34308 12.8785 5.22854 17.0572 8.0182 15.9172C8.31626 15.7949 8.84539 15.2633 9.09321 15.5815C9.39796 15.9767 8.67794 16.3544 8.39328 16.4732C6.5949 17.2286 4.89364 16.2529 3.88896 14.6863C3.29955 13.7667 2.94456 12.7036 2.68669 11.6371C2.15756 11.8888 1.57819 11.5531 1.63178 12.4309C1.68871 13.389 3.03163 15.3333 3.66458 16.0641C6.7523 19.6554 9.87351 18.4909 12.258 14.9136C12.6833 14.2737 13.5774 12.9064 13.42 12.1231C13.3296 11.6685 12.9344 11.7909 12.5996 11.7245C11.5279 13.2876 9.22717 14.2248 7.50581 13.3156C4.36786 11.658 2.74362 5.50005 5.71748 2.98229C8.24258 0.842205 10.838 3.66768 11.0122 6.43022C11.1662 8.86404 9.53862 12.1196 6.80924 11.3084C6.52123 11.2209 6.27675 11.0741 6.00884 10.9412L6.00214 10.9447ZM7.28478 2.95432C5.52324 3.16064 4.66256 5.51054 4.74964 7.12959C4.85011 8.96196 6.09926 11.2314 8.14546 10.6719C11.4944 9.75225 10.8748 2.5312 7.28478 2.95432ZM7.99476 18.9455H13.8788C14.1233 18.9455 14.3979 18.6273 14.4348 18.386C14.5051 17.9594 14.4716 16.8614 14.4448 16.3963C14.3912 15.5256 14.0798 14.6724 13.6042 13.966L12.834 15.2039C11.7958 16.7215 10.4964 18.2007 8.73487 18.7637L7.99141 18.949L7.99476 18.9455ZM1.25334 18.9455H7.06041L6.34708 18.7707C4.15353 18.0573 2.6465 16.0361 1.52796 14.0464C1.45428 14.0464 1.32367 14.2877 1.28349 14.3611C0.958638 14.9311 0.73091 15.7319 0.690723 16.3963C0.660583 16.8614 0.630442 17.9594 0.70077 18.386C0.744306 18.6623 0.992128 18.9071 1.25669 18.9455H1.25334Z" fill="white"/>
</g>
<defs>
<clipPath id="clip0_401_3745">
<rect width="15.0769" height="19.6" fill="white" transform="translate(0.0307617)"/>
</clipPath>
</defs>
</svg>
