<svg width="20" height="20" viewBox="0 0 20 20" fill="none" xmlns="http://www.w3.org/2000/svg">
<g clip-path="url(#clip0_401_3751)">
<path d="M19.5213 19.6001H19.286L19.1482 19.4854C18.5163 17.5723 18.4793 14.732 17.3802 13.0253C16.6542 11.8984 15.1854 11.8623 14.0123 11.4528C13.5418 12.8418 12.0023 13.4184 10.6142 13.4839V19.3151C10.6142 19.456 10.5167 19.5215 10.4192 19.6001H10.1839C10.0831 19.5215 9.98563 19.456 9.98563 19.3151V13.4839C8.59746 13.4184 7.05804 12.8418 6.58747 11.4528C5.65978 11.8066 4.38926 11.8721 3.62963 12.5437C2.79942 13.2775 2.43641 15.0662 2.19104 16.1112C1.95912 17.094 1.82131 18.4404 1.50872 19.3479C1.46503 19.4756 1.42806 19.5215 1.31378 19.5968H1.07849C0.947407 19.5051 0.856655 19.4068 0.880183 19.2365C1.32386 17.4019 1.54906 15.3905 2.22466 13.6215C2.85656 11.9704 3.8145 11.479 5.53542 11.1088L5.62617 11.0433C5.65642 10.28 5.79423 9.52657 5.74045 8.76327C4.86991 7.87876 4.18759 6.84356 5.01108 5.66422C5.122 5.5037 5.4245 5.25145 5.47492 5.12042C5.56903 4.878 5.55223 4.32436 5.60601 4.02297C5.64634 3.78383 5.71692 3.55124 5.79087 3.32192L5.77407 3.26623C4.9741 2.85346 5.1993 1.65119 6.09002 1.54963C6.27824 1.5267 6.46983 1.57256 6.6547 1.5267C7.51852 0.104939 9.32011 -0.0621345 10.8696 0.0164883C12.0998 0.0787313 13.2863 0.458741 13.9485 1.52998C14.3753 1.56601 14.735 1.49067 15.0644 1.82154C15.5047 2.26051 15.3736 2.97795 14.8325 3.2695L14.8156 3.3252C14.8896 3.55451 14.9602 3.79038 15.0005 4.02625C15.0509 4.32436 15.0375 4.88127 15.1316 5.12369C15.182 5.25801 15.4812 5.5037 15.5954 5.6675C16.4156 6.85012 15.7366 7.87876 14.8661 8.76655L14.856 9.5626L14.9803 11.0466C15.0072 11.1252 15.8946 11.3218 16.0559 11.3742C17.6122 11.8885 18.0794 12.6649 18.5566 14.1391C19.0877 15.7836 19.3331 17.5559 19.723 19.2365C19.7465 19.4101 19.6591 19.5051 19.5247 19.5968L19.5213 19.6001ZM13.1653 1.54636C13.0409 1.38583 12.8796 1.24497 12.7082 1.13359C11.7166 0.491501 9.46128 0.498053 8.3689 0.907546C8.00925 1.04186 7.66977 1.24497 7.43785 1.54963H13.1653V1.54636ZM14.6039 2.24741C14.5501 2.19499 14.4022 2.15896 14.3216 2.15896H6.23791C5.80095 2.19827 5.80095 2.7388 6.23791 2.77484H14.3619C14.6375 2.78466 14.8022 2.44069 14.6039 2.25068V2.24741ZM14.1804 3.38744L6.43958 3.38089C6.37236 3.39727 6.13371 4.52092 6.18077 4.68471C8.74535 3.37434 11.8578 3.37106 14.419 4.68471C14.4224 4.23919 14.2947 3.81331 14.1804 3.38744ZM13.4342 4.91731C12.2107 4.49143 10.9234 4.21298 9.61254 4.34074C8.77224 4.42264 7.95547 4.65196 7.16559 4.91731V6.26372C7.46138 6.77477 7.76725 7.29237 8.20084 7.70514C8.54704 6.80098 9.7806 6.69615 10.6343 6.74856C11.3167 6.79115 12.1469 7.01064 12.399 7.70514C12.8292 7.28582 13.1182 6.76167 13.4308 6.26045V4.91731H13.4342ZM6.53369 7.1515C6.47319 6.5389 6.57739 5.84112 6.53369 5.21869C5.49509 5.77888 4.84638 6.57494 5.63962 7.67893C6.24127 8.51757 7.20929 9.17276 7.6328 10.1523C7.77061 10.0278 7.7538 9.76571 7.82439 9.59536C7.38071 9.08759 6.95048 8.56016 6.72528 7.91808C6.65806 7.71824 6.5505 7.35134 6.53033 7.1515H6.53369ZM14.0661 5.21869V7.1515C14.0661 7.32185 13.9014 7.84928 13.8308 8.03273C13.5955 8.63878 13.1989 9.1138 12.772 9.59864C12.8426 9.76899 12.8258 10.0311 12.9636 10.1555C13.3871 9.17604 14.3552 8.52085 14.9568 7.68221C15.7467 6.58149 15.1013 5.77888 14.0627 5.22197L14.0661 5.21869ZM13.2023 7.78049C12.9905 7.99342 12.2074 8.95655 11.9116 8.4455C11.7906 8.23584 11.9351 8.0098 11.6729 7.72152C11.2393 7.24323 9.49489 7.25633 9.00416 7.64617C8.64115 7.93118 8.82266 8.20636 8.68485 8.4455C8.5336 8.71086 8.18067 8.54378 8.00253 8.39309L7.35382 7.76411C7.69666 8.81241 9.11844 10.1031 10.2781 10.1195C11.4377 10.1359 12.9199 8.81241 13.2023 7.78376V7.78049ZM7.27651 10.8402C7.33029 10.778 6.56394 9.54622 6.37572 9.46432L6.25808 10.8795C6.50008 10.8697 6.75553 10.6502 6.99417 10.755C7.10173 10.8009 7.11182 10.9254 7.27987 10.8402H7.27651ZM14.3417 10.8795L14.2039 9.46432C13.8342 9.87054 13.5283 10.339 13.3199 10.8402C13.4947 10.9123 13.4981 10.8009 13.6056 10.755C13.8476 10.6502 14.0964 10.8697 14.3417 10.8795ZM12.2208 10.0376C11.6696 10.3456 11.0948 10.6928 10.436 10.7288C9.66632 10.7714 9.00752 10.4111 8.37562 10.0376C8.23445 10.66 8.11009 11.3873 7.31685 11.4528C7.26643 11.5052 7.50171 11.8296 7.55213 11.8918C8.63107 13.1858 11.962 13.1858 13.0443 11.8918C13.1048 11.8197 13.2695 11.5904 13.2796 11.5085C13.2897 11.4233 13.2661 11.4659 13.2224 11.4495C12.3956 11.1973 12.4124 10.778 12.2208 10.0343V10.0376Z" fill="#46194F"/>
<path d="M6.02275 19.6H5.78747C5.66983 19.5115 5.60933 19.4657 5.58916 19.315C5.53538 18.8629 5.53538 17.5853 5.58916 17.1332C5.63622 16.7434 6.17401 16.7434 6.2177 17.1332C6.27148 17.5886 6.27148 18.8629 6.2177 19.315C6.2009 19.4657 6.13704 19.5115 6.01939 19.6H6.02275Z" fill="#46194F"/>
<path d="M14.8123 19.6H14.577C14.4594 19.5115 14.3989 19.4657 14.3787 19.315C14.3249 18.8629 14.3249 17.5853 14.3787 17.1332C14.4258 16.7434 14.9636 16.7434 15.0073 17.1332C15.061 17.5886 15.061 18.8629 15.0073 19.315C14.9904 19.4657 14.9266 19.5115 14.8089 19.6H14.8123Z" fill="#46194F"/>
<path d="M9.93871 7.67872C10.3857 7.63286 11.2227 7.63613 11.4613 8.08494C11.7 8.53374 11.5252 8.85806 11.1857 9.15945C10.6782 9.60825 9.98912 9.62791 9.45806 9.19548C8.7186 8.59599 8.98413 7.777 9.93871 7.67872ZM10.8798 8.36339C10.7723 8.26512 10.2076 8.26511 10.0463 8.27822C9.26311 8.35029 9.96224 8.92358 10.3555 8.88754C10.5605 8.86789 11.0244 8.60254 10.8798 8.36339Z" fill="#46194F"/>
</g>
<defs>
<clipPath id="clip0_401_3751">
<rect width="18.8462" height="19.6" fill="white" transform="translate(0.876953)"/>
</clipPath>
</defs>
</svg>
