<svg width="19" height="24" viewBox="0 0 19 24" fill="none" xmlns="http://www.w3.org/2000/svg">
<path d="M9.81174 0.168762C12.1969 1.0632 14.6191 1.8808 16.9678 2.87609C17.4745 3.091 18.0837 3.27229 18.3793 3.79334C18.5847 4.15472 18.6784 5.3349 18.7316 5.80913C18.9983 8.1977 19.1094 10.8744 18.8624 13.2666C18.8196 13.679 18.7582 14.1838 18.6587 14.583C17.8778 17.7118 13.3921 21.1989 10.7512 22.6888C9.45712 23.4188 9.33043 23.2699 8.09475 22.5537C5.26242 20.9125 0.971683 17.5227 0.298888 14.0626C-0.206721 11.4669 -0.0198652 7.31467 0.47938 4.70639C0.702681 3.53942 0.827637 3.41576 1.87704 2.96614C4.30442 1.92582 6.81974 1.08421 9.29225 0.168762H9.81174ZM8.50375 12.3103C8.5697 13.0085 8.44706 13.7918 8.51359 14.4798C8.63854 15.771 10.4406 15.7476 10.5499 14.4822C10.6095 13.7961 10.4949 13.0277 10.5563 12.3319C10.9126 12.0468 11.2377 11.8061 11.4645 11.3871C12.5868 9.31665 10.3717 7.02653 8.36954 8.22051C6.83246 9.13716 6.9204 11.5119 8.50375 12.3097V12.3103Z" fill="#46194F"/>
</svg>
