<svg width="65" height="65" viewBox="0 0 65 65" fill="none" xmlns="http://www.w3.org/2000/svg">
<path d="M32.5 63C49.3447 63 63 49.3447 63 32.5C63 15.6553 49.3447 2 32.5 2C15.6553 2 2 15.6553 2 32.5C2 49.3447 15.6553 63 32.5 63Z" stroke="#46194F" stroke-width="3" stroke-miterlimit="10"/>
<mask id="mask0_300_620" style="mask-type:luminance" maskUnits="userSpaceOnUse" x="2" y="2" width="61" height="62">
<path d="M32.5 63.2853C49.3447 63.2853 63 49.63 63 32.7853C63 15.9406 49.3447 2.28531 32.5 2.28531C15.6553 2.28531 2 15.9406 2 32.7853C2 49.63 15.6553 63.2853 32.5 63.2853Z" fill="white"/>
</mask>
<g mask="url(#mask0_300_620)">
<path d="M45.461 64.0782H19.508C13.6488 63.1654 11.7945 59.3465 12.0344 53.7788C12.3079 47.4123 14.7187 38.7609 22.5233 38.6925C23.9602 38.6793 25.6046 40.1846 26.8556 40.8814C30.4023 42.8605 34.1349 42.9972 37.7679 41.1105C39.0345 40.452 40.866 38.7573 42.2502 38.6961C43.9689 38.6193 46.3066 39.4373 47.6955 40.44C51.9834 43.5369 53.2752 51.6246 52.9346 56.565C52.6539 60.637 49.5138 63.7172 45.461 64.0782Z" fill="#46194F"/>
<path d="M30.9802 15.0735C42.7153 14.0828 48.692 28.5958 39.6628 36.0142C31.6087 42.6325 19.6529 36.266 20.3702 25.9151C20.754 20.3797 25.4245 15.5425 30.9802 15.0735Z" fill="#46194F"/>
</g>
</svg>
