<svg width="22" height="22" viewBox="0 0 22 22" fill="none" xmlns="http://www.w3.org/2000/svg">
<g clip-path="url(#clip0_50_6440)">
<path d="M13.8194 16.7851L7.87531 13.7915L8.39389 12.6065L14.3344 15.6231L13.8194 16.7851Z" fill="#46194F"/>
<path d="M7.5874 9.05143L13.9088 5.30682L14.5686 6.3714L8.29018 10.1762L7.5874 9.05143Z" fill="#46194F"/>
<path d="M17.4137 21.5837C19.5529 21.5837 21.287 19.8659 21.287 17.7469C21.287 15.628 19.5529 13.9102 17.4137 13.9102C15.2745 13.9102 13.5404 15.628 13.5404 17.7469C13.5404 19.8659 15.2745 21.5837 17.4137 21.5837Z" fill="#46194F"/>
<path d="M17.4137 7.74064C19.5529 7.74064 21.287 6.02288 21.287 3.90392C21.287 1.78496 19.5529 0.0671997 17.4137 0.0671997C15.2745 0.0671997 13.5404 1.78496 13.5404 3.90392C13.5404 6.02288 15.2745 7.74064 17.4137 7.74064Z" fill="#46194F"/>
<path d="M4.77632 15.4158C6.91548 15.4158 8.64962 13.6981 8.64962 11.5791C8.64962 9.46016 6.91548 7.7424 4.77632 7.7424C2.63715 7.7424 0.903015 9.46016 0.903015 11.5791C0.903015 13.6981 2.63715 15.4158 4.77632 15.4158Z" fill="#46194F"/>
</g>
<defs>
<clipPath id="clip0_50_6440">
<rect width="20.384" height="21.5165" fill="white" transform="translate(0.903015 0.0671997)"/>
</clipPath>
</defs>
</svg>
