<svg width="18" height="23" viewBox="0 0 18 23" fill="none" xmlns="http://www.w3.org/2000/svg">
<path d="M16.2453 23H1.76405C0.841719 22.8116 0.114699 22.1095 0.0124236 21.18C0.056168 14.6171 -0.079378 8.03551 0.0801967 1.48397C0.313706 0.668476 1.08817 0.0402045 1.96983 0L11.9947 0.0324037L12.3034 0.225626L17.907 5.72765L18 6.04148L17.9975 21.1794C17.9359 22.0315 17.1134 22.892 16.2459 22.9994L16.2453 23ZM11.0804 1.34955H1.97168C1.80163 1.34955 1.46153 1.63218 1.43812 1.81821C1.36604 8.26173 1.36604 14.7395 1.43812 21.183C1.53116 21.4812 1.7967 21.633 2.10784 21.6534L16.1325 21.6096C16.3235 21.5868 16.6137 21.2556 16.6137 21.09V6.73936H12.8548C12.1327 6.73936 11.0791 5.71265 11.0791 5.00997V1.34955H11.0804ZM15.5996 5.39221L12.4636 2.33786V4.83055C12.4636 5.02557 12.8394 5.39221 13.0402 5.39221H15.5996Z" fill="#46194F"/>
<path d="M4.70352 9.53504L13.2251 9.52484C13.957 9.60645 14.0808 10.5558 13.4117 10.8294C10.4883 10.9008 7.52226 10.9008 4.59878 10.8294C3.96418 10.5636 4.0338 9.70246 4.70414 9.53504H4.70352Z" fill="#46194F"/>
<path d="M4.70352 12.23L13.2251 12.2198C13.957 12.3014 14.0808 13.2507 13.4117 13.5243C10.4883 13.5957 7.52226 13.5957 4.59878 13.5243C3.96418 13.2585 4.0338 12.3974 4.70414 12.23H4.70352Z" fill="#46194F"/>
<path d="M4.70352 14.9249L13.2251 14.9147C13.957 14.9963 14.0808 15.9456 13.4117 16.2192C10.4883 16.2906 7.52226 16.2906 4.59878 16.2192C3.96418 15.9534 4.0338 15.0923 4.70414 14.9249H4.70352Z" fill="#46194F"/>
<path d="M4.70367 17.6198L10.5001 17.6132C11.1994 17.7464 11.2974 18.6393 10.6449 18.9141L4.74372 18.9531C3.98836 18.8037 3.95817 17.8136 4.70429 17.6198H4.70367Z" fill="#46194F"/>
</svg>
