<svg width="31" height="31" viewBox="0 0 31 31" fill="none" xmlns="http://www.w3.org/2000/svg">
<path d="M21.1891 0.031504C27.3058 -0.479679 31.9678 5.31568 30.0545 11.1811C28.6699 15.4313 24.1072 17.8032 19.787 16.7165C18.9866 17.3592 18.3031 18.326 17.5203 18.9599C16.7374 19.5938 16.1941 19.2929 15.5836 18.6123L13.2672 20.9287L14.348 22.0708L12.9722 23.4934C12.8028 23.5226 12.3179 22.7281 12.1251 22.8274L4.94806 29.9372C1.73198 31.9177 -1.64767 28.0882 0.8878 25.1145L7.65295 18.3552C7.75226 18.1595 6.95774 17.6776 6.98695 17.5081L8.4095 16.1323L9.55163 17.2774L11.868 14.8967C11.4532 14.4995 11.0501 14.1577 11.1845 13.5151C11.3393 12.779 13.311 11.482 13.7609 10.7576C13.7346 10.1442 13.5476 9.54536 13.5155 8.93194C13.2789 4.48318 16.7257 0.402477 21.1862 0.028583L21.1891 0.031504ZM21.6331 2.06163C17.9234 2.34497 15.382 5.66329 15.68 9.30875C15.7296 9.91049 16.1532 10.7926 16.0334 11.3126C15.8991 11.8822 13.7433 13.5998 13.7813 13.8072L16.7403 16.7604L16.9214 16.7078L18.9165 14.7039C19.5533 14.2453 20.3712 14.7565 21.1161 14.8558C25.7927 15.4809 29.4849 11.1403 28.1529 6.61263C27.3379 3.84055 24.5395 1.83963 21.6331 2.06163ZM13.3052 16.3952L11.0472 18.6532L11.7804 19.4331L14.0851 17.1751L13.3052 16.3952ZM9.11639 19.7603L5.3979 23.5401C5.37745 23.654 6.71237 24.8838 6.89348 25.0824L10.7201 21.3639L9.11347 19.7573L9.11639 19.7603ZM3.90232 25.024C3.47877 25.5848 2.2344 26.4173 2.07375 27.0658C1.89848 27.7756 2.45348 28.4825 3.19543 28.4475C3.93737 28.4124 4.85166 27.0424 5.45632 26.578L3.90232 25.024Z" fill="#46194F"/>
<path d="M23.5317 22.2373C23.6047 22.2169 23.6602 22.2373 23.7128 22.2899L26.2804 24.8633L24.8432 26.2859L22.1588 23.6482C22.1412 23.5518 23.4353 22.2607 23.5317 22.2344V22.2373Z" fill="#46194F"/>
<path d="M5.52064 11.502L1.84012 10.5497L2.35422 8.58972L6.00261 9.5303L5.52064 11.502Z" fill="#46194F"/>
<path d="M28.8188 19.8829L28.3106 21.8517L24.6301 20.8995C24.7936 20.3678 24.8696 19.5879 25.0741 19.0913C25.1004 19.03 25.0945 18.9599 25.1763 18.9365L28.8188 19.8859V19.8829Z" fill="#46194F"/>
<path d="M10.536 1.78955L11.4883 5.47007L9.55747 5.97249L8.57016 2.29781L10.536 1.78955Z" fill="#46194F"/>
<path d="M21.8991 28.1965L19.9361 28.6375L18.978 25.0242C19.6353 24.884 20.2925 24.6211 20.9497 24.5422L21.8991 28.1965Z" fill="#46194F"/>
<path d="M5.61991 4.20287L4.19266 5.63013L6.89019 8.32766L8.31745 6.90041L5.61991 4.20287Z" fill="#46194F"/>
<path d="M20.8676 3.89873C21.002 3.87829 21.0838 3.88413 21.2152 3.89873C21.9776 3.98052 23.85 4.53552 24.6416 4.78965C25.1879 4.96492 25.3923 5.04086 25.5968 5.61047C25.9006 6.45173 26.4352 8.35041 26.5666 9.21212C26.6367 9.66781 26.5228 9.88688 26.2482 10.2316C25.9357 10.6259 23.7361 12.8196 23.4031 12.9715C23.0701 13.1234 22.8919 13.1059 22.5443 13.0445C21.6622 12.8926 20.1637 12.4574 19.2961 12.1653C18.6214 11.9375 18.5483 11.844 18.3263 11.1663C18.0634 10.363 17.4909 8.48186 17.4062 7.70486C17.3595 7.27839 17.4851 7.05639 17.7392 6.73799C18.0751 6.31444 20.1607 4.22297 20.5434 4.0185C20.6369 3.96884 20.7625 3.91334 20.8676 3.89581V3.89873ZM21.3671 6.11873L19.5824 7.81878L20.2484 10.2637L22.629 10.9063L24.3408 9.27931C24.4255 9.09236 24.2794 8.71846 24.2268 8.50523C24.0866 7.92394 23.9084 7.34557 23.7361 6.77305L21.3642 6.11873H21.3671Z" fill="#46194F"/>
</svg>
