<svg width="15" height="19" viewBox="0 0 15 19" fill="none" xmlns="http://www.w3.org/2000/svg">
<path d="M9.74966 0C10.3079 0.144539 10.7478 0.465344 10.8827 0.962417C10.698 2.05175 11.5634 4.26566 9.75174 4.59C9.3367 4.66403 9.16239 4.53711 9.00675 4.96544L8.43192 7.19346L6.17413 7.19875C5.90228 6.49015 5.8338 5.67051 5.57648 4.96544C5.40216 4.48776 5.11786 4.6746 4.66547 4.55122C4.21308 4.42783 3.75654 4.02241 3.69429 3.61347C3.56978 2.81146 3.77107 1.78911 3.70051 0.962417C3.83332 0.460056 4.27741 0.155115 4.83356 0H9.74759H9.74966Z" fill="#46194F"/>
<path d="M4.54098 9.20941C4.33762 9.50201 4.14877 9.7999 4.03671 10.1295C3.60923 11.3845 3.40171 12.7788 3.02195 14.0532C2.94309 17.1238 7.10383 16.0221 9.39276 16.2266C10.9367 16.0944 11.7585 15.095 11.5177 13.8064C11.3123 12.7171 10.9201 11.2523 10.5694 10.1859C10.4532 9.83339 10.2706 9.51787 10.0464 9.20764H12.0158C12.1382 9.20764 12.6881 9.36452 12.8272 9.4174C13.815 9.78404 14.4645 10.6601 14.5371 11.5626C14.6637 13.119 14.4832 14.8464 14.4811 16.4117C14.2341 17.4975 13.1571 18.333 11.8477 18.4194H2.65465C1.2373 18.2748 0.158203 17.3054 0.0502935 16.0962C-0.0908188 14.538 0.110474 12.7806 0.104249 11.2136C0.205932 10.3305 1.52367 9.20764 2.56956 9.20764H4.53891L4.54098 9.20941Z" fill="#46194F"/>
<path d="M5.57227 11.6072C6.43762 12.3423 7.90684 12.3952 8.84067 11.7289C9.07725 11.5596 9.24326 11.3393 9.45285 11.1525L10.2103 14.0891C10.3141 14.5615 9.97165 15.0321 9.3906 15.0762C8.04381 15.1784 6.52062 14.9969 5.15308 15.0762C4.61353 15.0021 4.28565 14.5826 4.37074 14.1226L5.13233 11.1542C5.30664 11.2741 5.41248 11.475 5.57019 11.609L5.57227 11.6072Z" fill="#46194F"/>
<path d="M8.39464 8.34607V10.2357C8.39464 10.2832 8.25975 10.5688 8.21825 10.6252C7.79284 11.1893 6.79052 11.1928 6.36926 10.6252C6.32776 10.567 6.19287 10.2832 6.19287 10.2357V8.34607H8.39464Z" fill="#46194F"/>
<path d="M3.01552 1.33105V3.27352C2.15432 3.30877 1.21841 2.80289 1.56704 1.98853C1.79738 1.44916 2.42201 1.36631 3.01552 1.33105Z" fill="#46194F"/>
</svg>
