<svg width="19" height="15" viewBox="0 0 19 15" fill="none" xmlns="http://www.w3.org/2000/svg">
<g clip-path="url(#clip0_327_2925)">
<path d="M8.99215 8.44007C11.1266 8.54444 13.4622 8.26371 15.5735 8.43047C17.0195 8.54444 18.3709 9.68537 18.7879 11.041C19.0157 11.7825 19.0327 13.2713 18.9648 14.0583C18.9285 14.477 18.7018 14.7949 18.3055 14.9449C14.4063 15.0553 10.4817 14.9593 6.57291 14.9929C6.05051 14.9329 5.70993 14.5742 5.66508 14.0583C5.61539 13.4909 5.62751 12.5431 5.6663 11.9672C5.7875 10.1725 7.17772 8.65362 8.99215 8.44007ZM17.0377 13.0854V11.8568C17.0377 11.1694 16.0693 10.32 15.3796 10.3092C13.421 10.386 11.3314 10.1725 9.38848 10.2972C8.71944 10.3404 8.08796 10.7123 7.78616 11.3134C7.74132 11.4022 7.59466 11.7837 7.59466 11.8568V13.0854H17.0389H17.0377Z" fill="#46194F"/>
<path d="M16.1225 3.7587C16.1225 5.8342 14.422 7.5174 12.3252 7.5174C10.2283 7.5174 8.52783 5.8342 8.52783 3.7587C8.52783 1.6832 10.2283 0 12.3252 0C14.422 0 16.1225 1.6832 16.1225 3.7587ZM14.2184 3.7587C14.2184 2.72455 13.3724 1.88715 12.3276 1.88715C11.2828 1.88715 10.4368 2.72455 10.4368 3.7587C10.4368 4.79285 11.2828 5.63025 12.3276 5.63025C13.3724 5.63025 14.2184 4.79285 14.2184 3.7587Z" fill="#46194F"/>
<path d="M0 3.04005V2.59976C0.152718 2.20505 0.437548 1.92672 0.873884 1.87033C2.1235 1.93632 3.48826 1.76836 4.72334 1.86553C5.95841 1.96271 6.01295 3.6735 4.72334 3.77427C3.43372 3.87505 2.1235 3.70229 0.873884 3.76948C0.436336 3.71309 0.152718 3.43476 0 3.04005Z" fill="#46194F"/>
<path d="M2.62061 5.65181C3.04483 5.58223 4.37929 5.60023 4.83623 5.64102C5.96343 5.74299 5.94525 7.3674 4.90531 7.50897C4.44959 7.57135 3.23391 7.55696 2.75878 7.51377C1.64249 7.41299 1.64976 5.81137 2.62061 5.65061V5.65181Z" fill="#46194F"/>
</g>
<defs>
<clipPath id="clip0_327_2925">
<rect width="19" height="15" fill="white"/>
</clipPath>
</defs>
</svg>
