<svg width="28" height="31" viewBox="0 0 28 31" fill="none" xmlns="http://www.w3.org/2000/svg">
<path d="M21.5474 31.0001H17.5706L17.6087 30.5839C17.6468 30.1651 17.9564 29.7489 18.2559 29.3454C18.4411 29.0967 18.6695 28.7871 18.6974 28.6272C18.7025 28.5993 18.7127 28.5434 18.6391 28.513C18.6188 28.5028 18.5452 28.48 18.4843 28.546L16.8956 31.0001H12.9289L13.0076 30.5534C13.0761 30.1727 13.3781 29.7641 13.67 29.3682C13.8502 29.1246 14.0963 28.7947 14.1192 28.6551C14.1319 28.5714 14.1065 28.5282 14.0786 28.513C14.043 28.4952 13.9694 28.5181 13.8857 28.6094C13.6522 28.8658 13.4466 29.2261 13.2284 29.6093C12.9695 30.0636 12.7031 30.5357 12.3478 30.8884L12.2361 31.0001H8.69073L8.57906 30.8935C8.26437 30.5889 8.53338 30.188 9.1247 29.3099C9.28712 29.0662 9.51299 28.7338 9.54598 28.6399C9.56374 28.5663 9.53329 28.5333 9.50537 28.5206C9.49268 28.513 9.4267 28.48 9.3531 28.5333L7.73396 30.9925L4.01094 30.9214L3.93989 30.6397C3.88152 30.4062 3.97288 30.2413 4.01602 30.1626C4.0211 30.1524 4.02617 30.1423 4.03125 30.1321C4.11753 29.9418 4.27488 29.7159 4.45507 29.4545C4.6251 29.2084 4.93726 28.7642 4.97025 28.584C4.94995 28.5561 4.91188 28.5231 4.88142 28.5003C4.68094 28.6272 4.3028 29.2591 4.11753 29.5713C3.71909 30.2413 3.4983 30.6092 3.10494 30.5179C2.3715 30.3479 1.2447 29.1373 0.927467 28.6576C-0.267857 26.8558 -0.316076 23.0998 0.831029 21.2142C1.26754 20.4959 2.0898 19.6407 2.94505 19.3438L3.19376 19.2575L4.7926 21.1736C4.84082 21.2091 4.8865 21.2167 4.92203 21.1964C4.96517 21.171 4.9804 21.105 4.96264 21.0238C4.93472 20.9604 4.72408 20.6533 4.57181 20.43C3.99064 19.5823 3.72671 19.1966 4.05155 18.8971L4.15814 18.8007L7.55631 18.7195L7.88115 18.887L9.35564 21.1964C9.42162 21.2421 9.48761 21.2142 9.5003 21.2065C9.55613 21.1786 9.55613 21.1329 9.55105 21.0949C9.52314 20.935 9.29473 20.6254 9.10947 20.3767C8.81 19.9757 8.50292 19.5595 8.46232 19.1382L8.42425 18.722H12.3934L14.01 21.2091C14.0481 21.2015 14.1039 21.1736 14.1166 21.1456C14.1242 20.9984 13.7842 20.5162 13.6014 20.2574C13.3274 19.8691 13.0685 19.5036 13.0025 19.1763L12.9086 18.7195H16.888L18.4741 21.1736C18.5376 21.2395 18.6112 21.2142 18.634 21.204C18.6949 21.1761 18.6974 21.1304 18.6898 21.0898C18.6619 20.9299 18.4335 20.6203 18.2482 20.3716C17.9488 19.9706 17.6417 19.5544 17.6011 19.1331L17.563 18.7169H21.5373L23.0448 21.1456C23.0752 21.204 23.1514 21.1989 23.1742 21.1939C23.2046 21.1888 23.2503 21.1736 23.2554 21.1456C23.2579 20.9756 22.8747 20.4274 22.6666 20.133C22.4433 19.8133 22.2479 19.5366 22.1591 19.3082L21.951 18.7728L22.5245 18.788C24.5345 18.8438 26.4429 20.3716 27.0596 22.4196C27.387 23.5033 27.387 25.828 27.1611 26.9015C26.7018 29.0764 24.6664 30.8402 22.5296 30.9163L21.9636 30.9366L22.1591 30.4037C22.2479 30.1601 22.4509 29.8733 22.6844 29.5408C22.8849 29.2566 23.2605 28.7236 23.2554 28.5511C23.2453 28.5384 23.1894 28.4978 23.1488 28.4825C22.857 28.7135 22.121 29.9976 21.8723 30.4291C21.7784 30.5915 21.7048 30.7235 21.654 30.8047L21.5424 30.9874L21.5474 31.0001ZM18.5579 30.2387H21.116C21.1465 30.1854 21.182 30.1271 21.2175 30.0611C22.1667 28.4089 22.5651 27.8709 22.928 27.7567C23.1361 27.6933 23.3772 27.7313 23.5955 27.8658C23.8213 28.0054 23.9761 28.2211 24.0142 28.4419C24.0878 28.8886 23.7122 29.4241 23.3138 29.9875C23.2985 30.0078 23.2833 30.0281 23.2706 30.0509C24.7756 29.6652 26.0902 28.3353 26.4252 26.7492C26.6282 25.7899 26.6231 23.5845 26.3414 22.6455C25.9049 21.1939 24.6588 20.0188 23.2757 19.6635C23.2833 19.6762 23.2935 19.6864 23.3011 19.6991C23.7782 20.3817 24.0878 20.8589 24.0168 21.2776C23.9558 21.6278 23.6767 21.8918 23.3036 21.9501C22.9204 22.006 22.5651 21.8385 22.3875 21.5136L21.1262 19.4808H18.5604C18.6543 19.628 18.7685 19.7803 18.87 19.9199C19.139 20.2828 19.3928 20.6254 19.4512 20.9654C19.5172 21.3614 19.3192 21.737 18.9563 21.8994C18.5782 22.0694 18.1442 21.9654 17.8828 21.6405L17.8599 21.6075L16.4844 19.4808H13.9999C14.076 19.595 14.1572 19.7118 14.2334 19.8183C14.6014 20.3411 14.9516 20.8335 14.8754 21.2776C14.8298 21.5492 14.6242 21.7902 14.34 21.9019C14.0557 22.0136 13.7537 21.9806 13.5329 21.8156L13.4796 21.775L11.9874 19.4808H9.41655C9.51045 19.628 9.62465 19.7803 9.72616 19.9199C9.99518 20.2828 10.249 20.6254 10.3073 20.9654C10.3708 21.3461 10.1931 21.704 9.8556 21.8791C9.50537 22.0593 9.08155 21.9933 8.79985 21.7116L8.74656 21.6481L7.36343 19.4833L4.89665 19.5417C4.99817 19.6991 5.11491 19.8691 5.20373 19.9985C5.54888 20.5036 5.67323 20.6939 5.70876 20.8538C5.80012 21.2598 5.64785 21.6481 5.32047 21.8486C4.99817 22.044 4.58957 22.0009 4.28249 21.737L4.23681 21.6913L2.96282 20.1635C2.36896 20.4655 1.79795 21.0949 1.48325 21.6101C0.498572 23.2267 0.541715 26.6959 1.56447 28.2364C1.85124 28.6678 2.67096 29.4824 3.13031 29.7159C3.22421 29.584 3.36126 29.3581 3.46531 29.1779C3.93735 28.3836 4.38655 27.6324 4.98548 27.7288C5.2824 27.7745 5.67069 28.0968 5.72906 28.4419C5.79251 28.8302 5.51589 29.2642 5.08445 29.8834C5.01593 29.9824 4.94487 30.0839 4.88396 30.1753L7.33044 30.2235L8.80493 28.0029C9.10693 27.7161 9.54598 27.6603 9.89366 27.8633C10.2312 28.0613 10.3835 28.4445 10.282 28.8404C10.2388 29.0079 10.0967 29.2287 9.75662 29.7337C9.66018 29.8758 9.53329 30.0687 9.42416 30.2387H11.9138C12.1523 29.9646 12.3604 29.5941 12.566 29.2337C12.7944 28.8302 13.0304 28.414 13.3223 28.0942C13.6294 27.7593 14.0557 27.6552 14.411 27.8278C14.7536 27.9953 14.9364 28.3759 14.8678 28.7795C14.8145 29.0992 14.5658 29.4342 14.2791 29.82C14.1826 29.9519 14.0735 30.0966 13.9796 30.2362H16.4794L17.8777 28.079C18.1391 27.7516 18.568 27.645 18.9487 27.8151C19.3141 27.9775 19.5146 28.3531 19.4461 28.7515C19.3877 29.0916 19.1339 29.4342 18.8649 29.7971C18.7634 29.9342 18.6467 30.089 18.5553 30.2362L18.5579 30.2387ZM3.18868 26.1223C3.01611 26.1223 2.83846 26.0589 2.68365 25.9396C2.44256 25.7544 2.2776 25.4524 2.23953 25.13C2.19131 24.7265 2.29536 24.3611 2.53392 24.1048C2.73949 23.8814 3.0288 23.7545 3.32319 23.7698H24.0497C24.6614 23.785 25.0623 24.191 25.1309 24.856C25.1512 25.3356 24.9253 25.8 24.5827 26.0081L24.4913 26.064L3.25721 26.1198C3.23437 26.1198 3.21152 26.1223 3.18868 26.1223ZM3.29781 24.5311C3.2166 24.5311 3.143 24.5641 3.09225 24.6199C3.0085 24.7113 2.97297 24.861 2.99581 25.0412C3.01865 25.2316 3.14554 25.3508 3.19376 25.361H3.21914L3.23183 25.3585L24.2452 25.3026C24.3086 25.2239 24.3771 25.0818 24.3695 24.9118C24.334 24.5692 24.1792 24.5337 24.0396 24.5311H3.30796C3.30796 24.5311 3.30035 24.5311 3.29781 24.5311Z" fill="#46194F"/>
<path d="M4.57416 18.1329C4.25186 18.1659 3.82804 18.3334 3.50065 18.3994L3.38899 18.3587C2.32817 16.6153 1.69371 14.6053 1.63788 12.5598C2.06677 12.5268 2.82305 12.74 2.89919 12.1436C2.99562 11.3873 2.18098 11.6563 1.7064 11.5599C1.52621 11.433 1.76223 10.1311 1.80791 9.86967C2.20636 7.64144 3.25956 5.67208 4.69344 3.94888C5.00559 3.7687 5.50809 5.07315 6.09687 4.42346C6.58413 3.88544 5.54362 3.38294 5.58169 3.16976C7.58658 1.2207 10.3731 0.142119 13.1597 0C13.1445 0.451736 13.0582 1.41865 13.7586 1.30699C14.3347 1.21309 14.1824 0.431433 14.1977 0C16.9842 0.139581 19.7682 1.22578 21.7731 3.16976C21.8112 3.38548 20.7681 3.88544 21.2579 4.42346C21.7858 5.00462 22.131 4.13414 22.4482 3.97172C22.6005 3.89305 22.8593 4.23312 22.9659 4.34986C24.6282 6.17203 25.6357 9.10324 25.7195 11.5497C25.6915 11.7299 24.2627 11.235 24.4556 12.2222C24.5495 12.7044 25.3566 12.5319 25.7195 12.5598C25.6586 14.6078 25.0342 16.6178 23.9684 18.3587L23.8567 18.3994C23.5699 18.3562 23.042 18.1329 22.7832 18.1329H19.4028C19.3698 18.0035 19.4561 17.9831 19.5144 17.9096C21.428 15.4225 22.4812 13.5191 21.7325 10.192C19.8367 1.77395 7.61957 1.71051 5.64513 10.1336C4.86094 13.4759 5.92429 15.4072 7.84798 17.9096C7.90635 17.9857 7.9901 18.0035 7.95964 18.1329C6.87599 18.2141 5.64259 18.0238 4.57924 18.1329H4.57416Z" fill="#46194F"/>
<path d="M14.9794 18.1331C13.7968 15.6637 11.4924 14.7856 9.04848 16.2144C8.8556 16.3261 8.24398 16.8591 8.11455 16.7829L7.44964 15.7881C8.14755 15.2602 8.83276 14.7679 9.27942 13.9913C10.5483 11.7834 9.44185 9.56783 7.43695 8.35475L8.21607 7.28378C10.9036 9.78101 14.5404 8.48671 15.284 4.9718L16.4996 5.35248C15.2231 8.3116 16.6848 11.2758 20.0323 11.4408C20.2302 11.4509 20.7987 11.3621 20.8393 11.3722C21.0322 11.4255 20.9992 12.5955 20.8901 12.6716C19.6516 12.6767 18.4791 12.7782 17.4741 13.5649C16.3473 14.4481 15.9336 15.7145 16.058 17.1255C16.0808 17.392 16.2433 17.7676 16.2509 17.9757C16.2534 18.0671 16.2382 18.0721 16.1671 18.1305H14.9769L14.9794 18.1331ZM11.9137 12.2021C12.1142 14.4862 15.5225 14.2273 15.4641 12.0042C15.4032 9.67442 11.7056 9.82162 11.9137 12.2021Z" fill="#46194F"/>
</svg>
