<svg width="25" height="27" viewBox="0 0 25 27" fill="none" xmlns="http://www.w3.org/2000/svg">
<path d="M12.8463 0.0158507C13.3228 0.0771398 13.9635 0.507573 14.257 0.887284C14.9145 1.73688 14.6692 2.71257 14.7531 3.7094C17.6786 4.61324 20.0591 7.41705 20.2722 10.5365C20.5314 14.3195 19.5714 17.0634 22.4948 20.1603C22.754 20.4343 23.139 20.6731 23.35 20.9859C24.0362 22.0025 23.4514 23.3776 22.274 23.6277L16.3559 23.646C15.5789 28.1173 9.37575 28.1187 8.60507 23.646L2.68696 23.6277C1.72343 23.3875 1.18612 22.5667 1.35311 21.5699C1.46351 20.9091 2.10563 20.5477 2.51787 20.1081C6.26997 16.1145 3.4828 11.9651 5.42732 7.85453C6.3615 5.87918 8.15091 4.38077 10.2079 3.7094C10.2911 2.71257 10.0465 1.73688 10.704 0.887284C10.9982 0.507573 11.6382 0.0771398 12.1147 0.0158507C12.2796 -0.00528355 12.6814 -0.00528355 12.8463 0.0158507ZM13.5785 3.44311V1.99331C13.5785 1.96513 13.4723 1.75731 13.4444 1.70659C13.0391 0.966185 11.9212 0.966185 11.5159 1.70659C11.488 1.75731 11.3818 1.96513 11.3818 1.99331V3.44311H13.5785ZM15.2002 23.6397H9.76075C10.3875 26.6041 14.5735 26.6041 15.2002 23.6397Z" fill="#46194F"/>
<path d="M4.41278 1.55553C4.73418 1.49212 5.06468 1.7246 5.09472 2.05711C5.13105 2.46148 4.33452 3.13355 4.06202 3.47029C2.61708 5.25401 1.6249 7.5992 1.39363 9.90283C1.35101 10.3234 1.40551 11.0624 1.31607 11.4069C1.16236 12.0015 0.29036 11.9564 0.193239 11.323C0.147124 11.0244 0.212803 10.3389 0.242848 10.0085C0.496481 7.18427 1.78142 4.1811 3.71895 2.12404C3.88036 1.95285 4.19059 1.5992 4.41208 1.55553H4.41278Z" fill="#46194F"/>
<path d="M20.312 1.55583C20.4008 1.53892 20.4595 1.53822 20.5482 1.55583C20.8689 1.61853 21.6312 2.57379 21.8632 2.86826C23.4577 4.89363 24.4862 7.41987 24.7188 10.0088C24.7482 10.3392 24.8139 11.024 24.7684 11.3234C24.6713 11.9574 23.7993 12.0025 23.6456 11.4072C23.5569 11.0627 23.6107 10.3237 23.568 9.90314C23.3361 7.59246 22.3418 5.26347 20.8997 3.47059C20.6579 3.16978 19.8425 2.43642 19.8586 2.1025C19.8691 1.87496 20.0871 1.59951 20.3127 1.55583H20.312Z" fill="#46194F"/>
</svg>
