<svg width="97" height="118" viewBox="0 0 97 118" fill="none" xmlns="http://www.w3.org/2000/svg">
<path d="M50.0485 0.518184C52.1181 0.784377 54.9009 2.65385 56.1755 4.30302C59.0311 7.993 57.9659 12.2307 58.3301 16.5601C71.0363 20.4857 81.3754 32.6633 82.301 46.2116C83.4269 62.6421 79.2572 74.5596 91.9543 88.01C93.0802 89.2002 94.7523 90.2374 95.6687 91.5959C98.6488 96.0111 96.1088 101.984 90.9953 103.07L65.2916 103.149C61.9171 122.569 34.9752 122.575 31.628 103.149L5.92426 103.07C1.73944 102.026 -0.594225 98.4619 0.131063 94.1324C0.610541 91.2624 3.39941 89.6928 5.18987 87.7836C21.4861 70.4382 9.38076 52.4166 17.8263 34.5633C21.8836 25.984 29.6554 19.476 38.5895 16.5601C38.9506 12.2307 37.8885 7.993 40.7441 4.30302C42.0217 2.65385 44.8015 0.784377 46.8711 0.518184C47.5873 0.426393 49.3353 0.426393 50.0515 0.518184H50.0485ZM53.2288 15.4036V9.10673C53.2288 8.98434 52.7675 8.08173 52.6461 7.86144C50.886 4.6457 46.0305 4.6457 44.2704 7.86144C44.149 8.08173 43.6878 8.98434 43.6878 9.10673V15.4036H53.2288ZM48.3854 20.0696C35.9827 20.1063 24.5481 28.395 20.8124 40.3186C17.7777 50.0056 20.5393 60.9317 18.8641 70.8757C17.7109 77.7202 14.2727 84.883 9.73278 90.0692C8.5796 91.3879 4.89247 94.1783 4.82874 95.6837C4.74984 97.5899 6.33091 98.1865 7.90287 98.3211C15.8173 99.0004 24.6664 97.7857 32.681 98.3211L63.0854 98.1039C71.3519 98.0121 80.5682 98.9331 88.7891 98.3211C90.5401 98.1896 92.3185 97.6296 92.0666 95.4695C91.9179 94.1967 88.3825 91.3909 87.3082 90.1732C82.6561 84.9075 79.2329 77.8579 78.0555 70.8727C76.4623 61.4243 78.9204 50.9725 76.5108 41.7383C73.2 29.0406 61.4164 20.0268 48.3824 20.0665L48.3854 20.0696ZM60.2723 103.122H36.6473C39.3694 115.997 57.5502 115.997 60.2723 103.122Z" fill="#46194F"/>
</svg>
