<svg width="11" height="11" viewBox="0 0 11 11" fill="none" xmlns="http://www.w3.org/2000/svg">
<g clip-path="url(#clip0_419_4765)">
<path d="M8.12765 0C8.29856 0.0391055 8.47057 0.0612561 8.6393 0.112667C9.45094 0.35988 10.133 1.04272 10.3736 1.85847C10.4217 2.02145 10.4423 2.18963 10.4819 2.35426V8.12683C10.3331 9.38859 9.3123 10.3947 8.03686 10.4819L2.40704 10.4805C1.13625 10.369 0.1113 9.34621 0.00136732 8.07514L0 2.44532C0.0694601 1.20817 1.11519 0.108566 2.35508 0H8.12765ZM2.41223 0.886299C1.61071 0.985294 0.978457 1.62739 0.883838 2.42837L0.880283 8.01471C0.959041 8.8526 1.62821 9.52013 2.46665 9.60108H8.01553C8.85315 9.5204 9.52122 8.85424 9.6019 8.01471V2.46583C9.5215 1.63587 8.86628 0.968612 8.03494 0.880557L2.41196 0.886299H2.41223Z" fill="white"/>
<path d="M4.81123 2.9376C4.84705 2.72266 5.13966 2.58674 5.34476 2.6294C5.44977 2.65128 5.671 2.83177 5.671 2.9376V4.77993L5.70163 4.81056H7.54396C7.56311 4.81056 7.65198 4.86689 7.67523 4.88385C7.92654 5.06543 7.92654 5.41546 7.67523 5.59677C7.65171 5.61373 7.56311 5.67006 7.54396 5.67006H5.70163L5.671 5.70069V7.54302C5.671 7.56216 5.61467 7.65104 5.59772 7.67428C5.41614 7.9256 5.0661 7.9256 4.88479 7.67428C4.86784 7.65076 4.8115 7.56216 4.8115 7.54302V5.70069L4.78088 5.67006H2.93854C2.9194 5.67006 2.83053 5.61373 2.80728 5.59677C2.61394 5.4573 2.55624 5.19751 2.69434 4.99597C2.73126 4.9421 2.87619 4.81056 2.93854 4.81056H4.78088L4.8115 4.77993V2.9376H4.81123Z" fill="white"/>
</g>
<defs>
<clipPath id="clip0_419_4765">
<rect width="10.4816" height="10.4816" fill="white"/>
</clipPath>
</defs>
</svg>
