<svg width="36" height="19" viewBox="0 0 36 19" fill="none" xmlns="http://www.w3.org/2000/svg">
<g clip-path="url(#clip0_57_1763)">
<path d="M32.3538 12.2313C32.3146 12.1936 32.2291 12.1702 32.1751 12.1694L23.7133 12.1727C23.6251 12.1907 23.5409 12.2432 23.5252 12.3429C23.446 12.849 23.68 13.6267 23.2615 14.0319C23.0883 14.1996 22.832 14.2792 22.5973 14.2669C22.8148 13.463 22.7599 12.6505 22.3324 11.9377C21.9887 11.3651 21.4495 11.0354 20.9456 10.6387L22.2846 9.47352C22.3833 9.5982 22.513 9.679 22.6557 9.7397C23.0679 9.91483 23.7517 9.92632 24.18 9.80614C25.334 9.48172 25.2141 7.40187 23.8877 7.29769C23.0953 7.23535 22.2677 7.33584 22.0463 8.2681C21.6878 7.71399 21.1631 7.47734 20.5451 7.37644L20.8198 6.09392C20.5369 6.08817 20.1615 5.93068 20.0134 5.66695C19.897 5.46024 19.8985 5.03451 19.9189 4.79745C19.9851 4.02268 20.986 4.07887 21.4954 4.31265C21.4946 4.27902 21.5024 4.24662 21.5154 4.21586C21.9205 3.26514 22.5455 1.26896 23.2364 0.619701C23.8344 0.0578017 24.5589 0.0340133 25.3128 0.0151466C26.7737 -0.0213564 28.2381 0.0188379 29.6942 0.0434466C31.2021 0.0692858 32.3083 -0.25719 33.1422 1.33459C33.6383 2.28202 33.9467 3.36276 34.4141 4.32742C34.8076 4.0842 35.7806 3.99151 35.9541 4.54849C36.02 4.7593 36.0129 5.37698 35.9494 5.59067C35.8621 5.88433 35.5944 5.95324 35.3374 6.02419C35.2852 6.03855 35.152 6.03239 35.1422 6.08243C35.4816 7.14512 35.4671 8.27343 35.4906 9.38246C35.5164 10.5998 35.5211 11.9385 35.4161 13.1533C35.3789 13.5844 35.2825 14.0532 34.8354 14.1963C34.5066 14.3018 33.2762 14.3141 32.9517 14.2132C32.2135 13.9835 32.5015 13.0393 32.4372 12.4463C32.4306 12.3835 32.3973 12.2736 32.3545 12.2317L32.3538 12.2313ZM24.4939 1.33253C23.7983 1.4482 23.5879 2.11427 23.3543 2.70775C23.0514 3.47719 22.8038 4.27287 22.5071 5.04517C22.477 5.15468 22.564 5.34007 22.6709 5.37452L33.1512 5.38765C33.3162 5.38067 33.4611 5.25558 33.4008 5.07183C33.036 4.20725 32.7609 3.27252 32.3831 2.41696C32.1739 1.94324 31.9047 1.32925 31.324 1.32474L24.4943 1.33253H24.4939ZM31.9552 7.30549C30.6547 7.46831 30.5563 9.46572 31.8804 9.83157C32.8804 10.108 33.9694 9.63881 33.8628 8.41206C33.7703 7.34814 32.7883 7.20131 31.9548 7.30549H31.9552Z" fill="#46194F"/>
<path d="M22.0432 9.02364L21.158 9.70858C20.801 8.57125 18.9385 8.72177 19.2453 10.0851C19.4025 10.7832 20.7414 11.1498 21.2783 11.5469C22.1988 12.2273 22.4856 13.2108 22.0906 14.3256C21.7156 15.3846 20.8433 15.8681 19.781 15.7853C18.8064 15.7094 18.0431 14.9576 17.6266 14.0828L18.6266 13.4561C18.9087 14.0364 19.2763 14.4827 19.9334 14.552C20.7105 14.6336 21.2861 13.7641 20.9668 13.0258C20.7156 12.4455 19.5772 12.0977 19.0541 11.7523C18.1415 11.1498 17.8111 10.186 18.172 9.0991C18.7257 7.43022 20.8445 7.34983 21.8206 8.6221C21.8649 8.67993 22.0734 8.9695 22.0432 9.02405V9.02364Z" fill="#46194F"/>
<path d="M4.4147 18.0255C4.36219 18.4894 4.0154 18.8216 3.59376 18.9217C3.13959 19.0291 1.70187 19.039 1.27866 18.8712C0.634052 18.6157 0.616419 18.0042 0.585462 17.3959C0.505915 15.8411 0.453798 13.9634 0.584678 12.42C0.664225 11.4796 0.930297 10.576 1.11055 9.65648C0.637971 9.61669 0.186159 9.50841 0.0513594 8.96989C-0.0172157 8.69551 -0.0368086 8.00564 0.123069 7.77186C0.386398 7.38632 1.27513 7.45769 1.67483 7.45851C2.19247 6.52625 2.65643 5.56117 3.18426 4.63506C3.71171 3.70978 4.06242 3.07487 5.20312 3.00104C5.79835 2.96249 6.43473 2.98136 7.03074 2.97479C8.23884 2.96167 9.44028 3.00309 10.6472 3.00474L11.1014 4.5879L9.13385 4.60143C8.26823 4.6043 7.37284 4.55714 6.50605 4.57395C5.77092 4.5879 5.27287 4.54114 4.78109 5.20476C4.15529 6.04966 3.66821 7.09553 3.06279 7.96504C2.96561 8.1332 3.06122 8.31981 3.25049 8.32104L11.3972 8.3235L13.8044 16.3095H4.4147V18.0251V18.0255ZM3.35747 10.5276C1.74615 10.7175 1.80218 13.3199 3.32455 13.4552C3.78498 13.4963 4.90335 13.5036 5.30774 13.3281C6.46333 12.8257 6.29444 10.8004 5.04598 10.5539C4.6792 10.4813 3.73835 10.4829 3.35747 10.5276Z" fill="#46194F"/>
<path d="M17.9185 8.2829L15.5285 16.2869L14.4082 16.3012L11.9548 8.29643C11.9948 8.22999 12.0085 8.28331 12.0183 8.28331H13.2522C13.2581 8.28331 13.2664 8.26321 13.2781 8.26239L13.3114 8.30176L14.9749 14.093L16.6716 8.28331H17.9185V8.2829Z" fill="#46194F"/>
</g>
<defs>
<clipPath id="clip0_57_1763">
<rect width="36" height="19" fill="white"/>
</clipPath>
</defs>
</svg>
