<svg width="17" height="15" viewBox="0 0 17 15" fill="none" xmlns="http://www.w3.org/2000/svg">
<g clip-path="url(#clip0_57_2048)">
<path d="M6.87474 10.8622C6.8552 10.3823 6.83232 9.85162 6.8757 9.37306C6.90668 9.0285 7.07161 8.71332 7.11356 8.37187C6.79371 8.39858 6.62448 8.23699 6.58921 7.94941C6.48577 7.10358 7.07876 7.3413 7.72658 7.29857C8.1637 6.48569 8.3844 5.10388 9.56896 4.99259C11.0229 4.85548 12.7384 5.07717 14.2185 5.01218C15.263 5.18935 15.4627 6.57027 15.8922 7.29723C16.2535 7.37247 16.9218 7.11338 16.9819 7.59282C17.0367 8.02909 17.0005 8.35273 16.4566 8.37232C16.5557 8.68928 16.6706 9.04007 16.6968 9.37083C16.7688 10.2785 16.7822 11.9003 16.6968 12.7986C16.6711 13.0733 16.5591 13.3039 16.2392 13.3498C16.0061 13.3832 15.2906 13.38 15.0494 13.3538C14.904 13.3377 14.5975 13.3364 14.5975 12.8717V12.1077L9.18809 12.1068C8.83535 11.9185 7.94395 10.8626 7.56641 10.8626H6.87522L6.87474 10.8622ZM8.61464 7.88219H14.9545C14.9674 7.88219 15.0251 7.81407 15.0499 7.79449C14.8144 7.30079 14.6199 6.61479 14.3291 6.1527C14.2062 5.95772 14.108 5.90029 13.8606 5.87848L9.58994 5.90118C9.39593 5.9773 9.32824 6.07168 9.23528 6.23728C9.10372 6.471 8.60368 7.49444 8.56268 7.70234C8.55077 7.76243 8.5255 7.85681 8.61464 7.88174V7.88219ZM14.2028 9.27156C13.4239 9.39354 13.4911 10.3742 14.0994 10.4588C14.2929 10.486 14.8092 10.518 15.0036 10.5078C15.9403 10.4588 15.998 9.34991 15.0489 9.26132C14.8392 9.24173 14.4059 9.23951 14.2028 9.27156ZM8.43541 9.31608C7.67605 9.43494 7.72848 10.4357 8.37534 10.5074C8.57603 10.5296 9.4312 10.5314 9.58946 10.482C10.0352 10.3426 10.0947 9.67221 9.6848 9.41891C9.44264 9.26933 8.72428 9.27112 8.43541 9.31608Z" fill="#46194F"/>
<path d="M6.54107 1.25583V2.1898H3.69908C3.4636 2.1898 3.24432 2.29975 3.11371 2.48272C2.73618 3.01158 1.97968 4.08043 1.96633 4.17258C1.96633 4.17303 1.96633 4.17392 1.96633 4.17437C1.95584 4.24381 1.97062 4.31459 2.01019 4.37425L8.16085 4.38137C8.16085 4.38137 6.93958 6.74478 6.78275 6.91884C6.73747 6.96959 6.56872 6.97716 6.46862 7.03725C6.06391 7.28032 6.06582 7.8114 6.11682 8.21117C6.14876 8.46269 6.34992 8.86111 6.34992 8.86111H2.67993V9.9865C2.67993 10.2834 2.38057 10.3622 2.22946 10.3751C1.91676 10.4018 1.09495 10.4125 0.800361 10.3702C0.497667 10.3266 0.350848 10.0889 0.342744 9.81912C0.307946 8.49652 0.118226 7.06263 0.342744 5.76852C0.39661 5.45957 0.493853 5.13504 0.555346 4.85592C0.394226 4.85058 0.102495 4.82877 0.0357594 4.67919C-0.00571214 4.58615 -0.010479 4.05506 0.0205055 3.95579C0.116796 3.64773 0.787968 3.71139 1.05205 3.69492L2.30716 1.68631C2.41108 1.54074 2.66038 1.3836 2.83628 1.33507C3.07224 1.27052 3.83112 1.2634 4.13191 1.25405C4.93322 1.23001 5.74024 1.27586 6.54107 1.25583ZM1.99922 5.93546C1.2637 6.07524 1.27705 7.25939 2.08264 7.34932C2.35388 7.37959 3.20094 7.38315 3.46312 7.34531C4.20866 7.23802 4.27682 6.01959 3.37112 5.92477C3.11085 5.89762 2.23757 5.89005 1.9997 5.93501L1.99922 5.93546Z" fill="#46194F"/>
<path d="M8.97216 1.30034H13.79C13.9597 1.30034 14.1256 1.34308 14.2715 1.4241C14.4188 1.50601 14.5394 1.62442 14.6199 1.76599L16.4561 4.99169H15.3121L13.872 2.51744C13.8424 2.46713 13.8034 2.42217 13.7562 2.38522C13.668 2.31666 13.5574 2.27882 13.4425 2.27882H9.06749C9.15806 2.44888 9.48555 2.61893 9.55562 2.7792C9.74057 3.20211 9.34588 3.57115 8.90495 3.48167C8.85489 3.47143 8.81009 3.44561 8.77529 3.41045L7.21081 1.82876C7.15408 1.77133 7.15504 1.68274 7.21272 1.62665L8.76242 0.117079C8.83487 0.0467424 8.93355 0.00356088 9.03794 0.000444687C9.24959 -0.00623286 9.41023 0.061433 9.53703 0.261759C9.84735 0.751891 9.21193 0.947766 8.97216 1.30034Z" fill="#46194F"/>
<path d="M2.39391 11.3069V12.3882C2.39391 12.479 2.43252 12.5658 2.50116 12.6299C2.5698 12.694 2.66276 12.7301 2.76 12.7301H7.30376C7.09831 12.4919 6.65261 12.2631 6.79609 11.8326C6.90668 11.501 7.33379 11.367 7.68606 11.6839C7.95538 11.9265 8.94451 12.7964 9.13995 13.0404C9.34778 13.2995 9.26436 13.3774 9.06844 13.5982C8.67279 14.0447 8.10077 14.4738 7.6403 14.8892C7.25132 15.2399 6.63735 14.6844 6.85186 14.2428C6.92003 14.1025 7.31567 13.8808 7.39909 13.7081H2.46541C2.25424 13.7081 1.39287 13.6017 1.39287 12.7519V11.3064H2.39391V11.3069Z" fill="#46194F"/>
<path d="M8.61464 7.89775C8.52502 7.87282 8.55076 7.77845 8.56268 7.71835C8.59271 7.56655 8.96596 6.60409 9.19763 6.16604C9.28581 5.99866 9.46552 5.89093 9.66525 5.88469L13.861 5.87891C14.1089 5.90116 14.2071 5.95815 14.3296 6.15313C14.5622 6.52262 14.9712 7.43789 15.0794 7.76554C15.1009 7.83098 15.0489 7.89686 14.9755 7.89731H8.61464V7.89775Z" fill="#C5AECB"/>
<path d="M14.2028 9.27155C14.4059 9.23995 14.8392 9.24217 15.0489 9.26131C15.9975 9.3499 15.9399 10.4584 15.0036 10.5078C14.8092 10.518 14.2929 10.486 14.0994 10.4588C13.4911 10.3742 13.4239 9.39309 14.2028 9.27155Z" fill="#C5AECB"/>
<path d="M8.43541 9.31607C8.72428 9.27067 9.44264 9.26933 9.6848 9.41891C10.0947 9.67221 10.0352 10.3426 9.58946 10.482C9.4312 10.5314 8.57555 10.5296 8.37535 10.5073C7.72849 10.4361 7.67653 9.43538 8.43541 9.31607Z" fill="#C5AECB"/>
<path d="M1.99921 5.93544C2.23708 5.89004 3.11036 5.89805 3.37063 5.9252C4.27681 6.02003 4.20817 7.23846 3.46263 7.34574C3.20093 7.38358 2.35339 7.38002 2.08215 7.34975C1.27703 7.25938 1.26321 6.07567 1.99873 5.93589L1.99921 5.93544Z" fill="#C5AECB"/>
</g>
<defs>
<clipPath id="clip0_57_2048">
<rect width="17" height="15" fill="white"/>
</clipPath>
</defs>
</svg>
