<svg width="24" height="12" viewBox="0 0 24 12" fill="none" xmlns="http://www.w3.org/2000/svg">
<path d="M23.566 7.91324L23.9893 7.92299C23.9893 8.44308 24.1083 9.41933 23.5536 9.68046C22.8767 10.0001 20.5801 9.55043 19.7211 9.75305L19.5959 9.84949C18.9325 12.7869 15.1849 12.6547 14.5432 9.75414H8.88198C8.62014 10.0608 8.59944 10.4292 8.3614 10.7986C7.03251 12.8573 4.14704 12.114 3.70305 9.75414C2.9113 9.57752 0.666479 10.0792 0.197643 9.39549C-3.45085e-05 9.10728 -0.0393629 8.22096 0.0351541 7.8894C0.0537833 7.80814 0.219377 7.81897 0.241111 7.7247C0.478116 6.67694 0.215237 5.54033 1.00388 4.68435C1.97674 3.62792 3.23939 4.07433 4.47823 3.89555C5.52975 2.81311 6.76652 0.276591 8.32517 0.0934766C9.53297 -0.0484645 12.0748 -0.0116248 13.3157 0.090226C14.6964 0.203996 15.2263 0.829186 16.1857 1.73826C16.7487 2.27135 18.1324 3.97464 18.6799 4.2336C19.1488 4.45573 20.3576 4.52832 21.0096 4.74503C22.6076 5.27703 23.2948 6.16985 23.566 7.91432V7.91324ZM10.5472 1.34169H8.43384C7.81494 1.34169 6.29665 4.11008 5.77814 4.63234H10.5472V1.34169ZM16.9422 4.63234C16.0708 3.82295 15.0907 2.36237 14.1789 1.68083C14.0723 1.60065 13.6055 1.34169 13.5269 1.34169H11.4135V4.63234H16.9422ZM5.96857 7.72145C4.28159 7.97608 4.32506 10.634 5.94994 10.8637C8.3852 11.2082 8.21133 7.38231 5.96857 7.72145ZM18.207 8.18953C16.5686 6.48516 14.3828 9.41391 16.2571 10.6285C17.9368 11.7175 19.3516 9.37924 18.207 8.18953Z" fill="#46194F"/>
</svg>
