<svg width="25" height="24" viewBox="0 0 25 24" fill="none" xmlns="http://www.w3.org/2000/svg">
<rect width="24.0101" height="24" rx="5" fill="white"/>
<path d="M4.67392 0.0805694C7.03849 -0.150928 9.71047 0.20298 12.1064 0.0772385C13.5849 0.466122 13.4811 2.5546 11.9292 2.73613C9.78959 2.98678 7.21156 2.56542 5.02419 2.7403C3.97996 2.82357 3.09067 3.57136 2.75605 4.5623C2.5121 9.30301 2.72309 14.0979 2.64809 18.8577C2.73875 20.1693 3.69067 21.1336 4.96485 21.3168L18.6627 21.3193C19.8281 21.2227 20.8608 20.2708 21.0199 19.0884C21.2984 17.0099 20.8501 14.386 21.0339 12.2459C21.1789 10.5521 23.2921 10.4222 23.6836 12.0044C23.56 14.331 23.8682 16.8642 23.6877 19.1658C23.4907 21.6798 21.3775 23.7691 18.9067 23.9965L4.83958 23.9998C2.28627 23.7708 0.257968 21.7381 0 19.1658L0.00576925 4.83877C0.257968 2.40221 2.24012 0.318729 4.67392 0.0805694Z" fill="#46194F"/>
<path d="M23.488 1.38704C24.5924 1.24381 25.3276 2.3555 24.8727 3.34645C20.9751 7.51757 16.846 11.4872 12.8627 15.5842C12.1597 16.1696 11.5754 16.1971 10.8558 15.615C9.2998 13.8346 7.241 12.235 5.7344 10.4421C4.52533 9.00315 5.88276 7.40099 7.40336 8.31949L11.8663 12.7729L22.8847 1.65018C23.0438 1.51028 23.2795 1.41452 23.488 1.38704Z" fill="#46194F"/>
</svg>
