<svg width="40" height="19" viewBox="0 0 40 19" fill="none" xmlns="http://www.w3.org/2000/svg">
<path d="M39.2766 12.5293L39.9821 12.5447C39.9821 13.3682 40.1805 14.9139 39.2559 15.3274C38.1278 15.8335 34.3002 15.1215 32.8685 15.4423L32.6598 15.595C31.5541 20.2459 25.3081 20.0366 24.2387 15.444H14.8033C14.3669 15.9296 14.3324 16.5128 13.9357 17.0979C11.7208 20.3574 6.91174 19.1806 6.17175 15.444C4.85217 15.1644 1.1108 15.9587 0.329404 14.8762C-5.75141e-05 14.4199 -0.0656049 13.0165 0.0585901 12.4915C0.0896389 12.3629 0.365628 12.38 0.401851 12.2308C0.796861 10.5718 0.358728 8.77219 1.67313 7.41689C3.29456 5.7442 5.39898 6.45102 7.46372 6.16795C9.21625 4.45409 11.2775 0.437936 13.8753 0.148005C15.8883 -0.0767354 20.1247 -0.018406 22.1929 0.142858C24.494 0.322993 25.3771 1.31288 26.9761 2.75224C27.9145 3.59631 30.2207 6.29319 31.1332 6.70321C31.9146 7.0549 33.9293 7.16984 35.016 7.51296C37.6793 8.3553 38.8247 9.76894 39.2766 12.531V12.5293ZM17.5787 2.12434H14.0564C13.0249 2.12434 10.4944 6.50763 9.63023 7.33454H17.5787V2.12434ZM28.2371 7.33454C26.7847 6.05301 25.1512 3.74041 23.6315 2.66132C23.4538 2.53437 22.6759 2.12434 22.5448 2.12434H19.0225V7.33454H28.2371ZM9.94762 12.2256C7.13598 12.6288 7.20843 16.8371 9.91657 17.2008C13.9753 17.7463 13.6855 11.6887 9.94762 12.2256ZM30.3449 12.9668C27.6144 10.2682 23.9713 14.9054 27.0952 16.8285C29.8947 18.5527 32.2527 14.8505 30.3449 12.9668Z" fill="#46194F"/>
</svg>
