<svg width="25" height="25" viewBox="0 0 25 25" fill="none" xmlns="http://www.w3.org/2000/svg">
<path d="M24.246 8.99771C24.246 4.02862 20.2173 0 15.2482 0C10.2791 0 6.25157 4.02862 6.25157 8.99771C6.25157 11.1276 6.99223 13.0849 8.22979 14.6259C6.66793 14.7336 5.23369 14.9721 4.01496 15.3079C1.57644 15.9795 0.000976562 17.0435 0.000976562 18.2413V21.0805C0.000976562 21.1244 0.00411494 21.1683 0.00829943 21.2123C0.00829943 21.2227 0.0103917 21.2321 0.0114378 21.2426C0.0166684 21.2855 0.0229452 21.3284 0.0323603 21.3713C0.0334064 21.3765 0.0354987 21.3817 0.0365448 21.387C0.0449138 21.4257 0.0564211 21.4644 0.0679285 21.5031C0.0710669 21.5125 0.0731591 21.5209 0.0762975 21.5303C0.0898971 21.5721 0.105589 21.614 0.123373 21.6548C0.126511 21.6621 0.130696 21.6694 0.133834 21.6778C0.150572 21.7144 0.168356 21.7521 0.188233 21.7887C0.192417 21.796 0.195556 21.8033 0.19974 21.8106C0.222755 21.8514 0.246816 21.8922 0.272969 21.933C0.278199 21.9414 0.284476 21.9498 0.289707 21.9581C0.314814 21.9958 0.342013 22.0335 0.370258 22.0701C0.373397 22.0743 0.376535 22.0785 0.379674 22.0826C0.411057 22.1234 0.444533 22.1632 0.479055 22.2029C0.486378 22.2113 0.493701 22.2197 0.50207 22.228C0.574253 22.3086 0.653758 22.3871 0.740586 22.4655C0.748955 22.4728 0.758371 22.4812 0.76674 22.4885C0.810677 22.5272 0.856706 22.5659 0.903782 22.6036C0.90692 22.6067 0.911105 22.6088 0.914243 22.612C0.959226 22.6475 1.00735 22.6842 1.05547 22.7197C1.06384 22.726 1.07325 22.7323 1.08162 22.7386C1.12765 22.771 1.17368 22.8045 1.2218 22.8369C1.22808 22.8411 1.2354 22.8453 1.24168 22.8494C1.249 22.8536 1.25528 22.8589 1.2626 22.863C1.28457 22.8777 1.30759 22.8913 1.32955 22.9049C1.36094 22.9248 1.39232 22.9446 1.42475 22.9645C1.43207 22.9687 1.43835 22.9729 1.44463 22.9771C1.50426 23.0137 1.56598 23.0493 1.62875 23.0838C1.63816 23.089 1.64653 23.0942 1.65595 23.0984C1.69674 23.1204 1.73859 23.1424 1.78043 23.1654C1.80345 23.1779 1.82542 23.1894 1.84843 23.202C1.84948 23.202 1.85157 23.203 1.85262 23.2041C1.85262 23.2041 1.86203 23.2093 1.86726 23.2114C1.91434 23.2355 1.96246 23.2595 2.01058 23.2825C2.02732 23.2909 2.0451 23.2993 2.06289 23.3066C2.0723 23.3108 2.08276 23.316 2.09218 23.3202C2.16332 23.3537 2.23654 23.3872 2.31082 23.4206C2.36208 23.4436 2.41439 23.4656 2.46774 23.4886C2.4918 23.4991 2.51691 23.5085 2.54201 23.519C2.55143 23.5232 2.56084 23.5263 2.57026 23.5305C2.64349 23.5608 2.71881 23.5901 2.79413 23.6194C2.88305 23.6529 2.97406 23.6863 3.06612 23.7188C3.07344 23.7209 3.08077 23.724 3.08809 23.7261C3.10692 23.7324 3.1268 23.7387 3.14563 23.746C3.21362 23.77 3.28267 23.7931 3.35171 23.8161C3.35485 23.8171 3.35799 23.8182 3.36217 23.8192C3.40716 23.8338 3.45109 23.8485 3.49712 23.8631C3.54315 23.8778 3.58918 23.8914 3.63521 23.906C3.63835 23.906 3.64044 23.9081 3.64358 23.9092C3.65613 23.9134 3.66869 23.9175 3.68229 23.9207C3.76284 23.9447 3.84548 23.9688 3.92917 23.9918C3.93545 23.9939 3.94173 23.995 3.948 23.997C4.05157 24.0263 4.15514 24.0546 4.26184 24.0818C4.3539 24.1058 4.44805 24.1289 4.5422 24.1519C4.54953 24.154 4.55789 24.155 4.56522 24.1571C4.59869 24.1655 4.63217 24.1738 4.66669 24.1812C4.72737 24.1958 4.78909 24.2084 4.85081 24.223C4.86232 24.2251 4.87278 24.2282 4.88428 24.2303C4.98576 24.2523 5.08828 24.2743 5.19185 24.2952C5.19917 24.2962 5.20649 24.2983 5.21381 24.2994C5.24206 24.3046 5.2703 24.3109 5.29855 24.3172C5.37073 24.3318 5.44292 24.3444 5.51614 24.358C5.52661 24.36 5.53811 24.3621 5.54857 24.3642C5.65632 24.3841 5.76512 24.4029 5.87601 24.4218C5.88124 24.4218 5.88543 24.4239 5.89066 24.4239C5.95761 24.4354 6.02561 24.4458 6.09256 24.4563C6.14068 24.4636 6.18776 24.472 6.23588 24.4793C6.35409 24.4971 6.47335 24.5138 6.59365 24.5306C7.69417 24.6791 8.88571 24.7607 10.1296 24.7607C10.2446 24.7607 10.3587 24.7607 10.4727 24.7586C10.502 24.7586 10.5302 24.7586 10.5595 24.7576C10.6662 24.7555 10.7719 24.7534 10.8775 24.7513C10.8849 24.7513 10.8932 24.7513 10.9005 24.7513C11.0135 24.7482 11.1265 24.744 11.2384 24.7398C11.2646 24.7398 11.2897 24.7377 11.3159 24.7367C11.4184 24.7325 11.5209 24.7272 11.6224 24.722C11.6328 24.722 11.6422 24.722 11.6527 24.721C11.7657 24.7147 11.8766 24.7074 11.9885 24.7C12.0094 24.699 12.0304 24.6969 12.0523 24.6959C12.1538 24.6885 12.2553 24.6812 12.3568 24.6728C12.3672 24.6728 12.3766 24.6718 12.3871 24.6707C12.499 24.6613 12.611 24.6519 12.7218 24.6404C12.7365 24.6394 12.7501 24.6373 12.7647 24.6362C12.8683 24.6258 12.9719 24.6153 13.0754 24.6038C13.0838 24.6038 13.0911 24.6017 13.0995 24.6017C13.2114 24.5891 13.3234 24.5756 13.4343 24.562C13.4405 24.562 13.4468 24.5599 13.4531 24.5599C13.5608 24.5463 13.6675 24.5327 13.7732 24.517C13.7784 24.517 13.7837 24.5159 13.7889 24.5149C14.0117 24.4835 14.2314 24.449 14.4469 24.4124C14.449 24.4124 14.4521 24.4124 14.4542 24.4113C14.6708 24.3736 14.8842 24.3339 15.0924 24.2921C15.0924 24.2921 15.0934 24.2921 15.0945 24.2921C15.3037 24.2492 15.5077 24.2042 15.7075 24.1561C18.4536 23.498 20.2665 22.3672 20.2665 21.0815V18.2423C20.2665 17.7663 20.0175 17.3113 19.5645 16.8939C22.3535 15.3655 24.2439 12.4028 24.2439 8.99876L24.246 8.99771Z" fill="#5B2A66"/>
<path d="M18.5687 20.2822C18.0153 20.5835 17.3426 20.8534 16.5748 21.0835C16.2432 21.1829 15.8948 21.2739 15.5297 21.3576C14.1049 21.684 12.4405 21.8849 10.6537 21.9173C10.4811 21.9204 10.3085 21.9225 10.1338 21.9225C8.45791 21.9225 6.87617 21.775 5.48378 21.5124C4.07047 21.2467 2.85173 20.8638 1.92487 20.3994C0.714503 19.7926 0 19.0478 0 18.2412V21.0804C0 21.1243 0.00313837 21.1683 0.00732287 21.2122C0.00732287 21.2227 0.00941512 21.2321 0.0104612 21.2425C0.0156919 21.2854 0.0219686 21.3283 0.0313837 21.3712C0.0324299 21.3764 0.0345221 21.3817 0.0355682 21.3869C0.0439372 21.4256 0.0554446 21.4643 0.066952 21.503C0.0700903 21.5124 0.0721826 21.5208 0.0753209 21.5302C0.0889206 21.5721 0.104612 21.6139 0.122397 21.6547C0.125535 21.662 0.129719 21.6694 0.132858 21.6777C0.149596 21.7143 0.16738 21.752 0.187256 21.7886C0.191441 21.7959 0.194579 21.8033 0.198764 21.8106C0.221778 21.8514 0.245839 21.8922 0.271992 21.933C0.277223 21.9414 0.2835 21.9497 0.28873 21.9581C0.313837 21.9958 0.341036 22.0334 0.369282 22.07C0.37242 22.0742 0.375559 22.0784 0.378697 22.0826C0.410081 22.1234 0.443557 22.1631 0.478079 22.2029C0.485402 22.2113 0.492725 22.2196 0.501094 22.228C0.573276 22.3085 0.652782 22.387 0.73961 22.4655C0.747979 22.4728 0.757394 22.4812 0.765763 22.4885C0.8097 22.5272 0.85573 22.5659 0.902805 22.6036C0.905944 22.6067 0.910128 22.6088 0.913267 22.6119C0.95825 22.6475 1.00637 22.6841 1.05449 22.7197C1.06286 22.7259 1.07228 22.7322 1.08065 22.7385C1.13295 22.7762 1.1863 22.8128 1.2407 22.8494C1.24803 22.8536 1.2543 22.8588 1.26163 22.863C1.31393 22.8975 1.36833 22.931 1.42273 22.9655C1.43005 22.9697 1.43633 22.9739 1.44261 22.9781C1.50223 23.0136 1.56396 23.0502 1.62672 23.0848C1.63614 23.09 1.64451 23.0952 1.65392 23.0994C1.71669 23.1339 1.7805 23.1685 1.84641 23.203C1.84746 23.203 1.84955 23.204 1.85059 23.2051C1.91859 23.2396 1.98868 23.2741 2.06086 23.3086C2.07028 23.3128 2.08074 23.3181 2.09016 23.3222C2.23348 23.3902 2.38412 23.4561 2.53999 23.52C2.5494 23.5241 2.55882 23.5273 2.56824 23.5315C2.72725 23.5963 2.89253 23.6591 3.0641 23.7198C3.07142 23.7219 3.07874 23.725 3.08607 23.7271C3.17289 23.7574 3.26077 23.7878 3.34969 23.8171C3.35283 23.8181 3.35597 23.8191 3.36015 23.8202C3.45012 23.8495 3.54113 23.8777 3.63319 23.906C3.63633 23.906 3.63842 23.9081 3.64156 23.9091C3.73466 23.9374 3.82986 23.9656 3.9261 23.9918C3.93238 23.9938 3.93866 23.9949 3.94493 23.997C4.13742 24.0514 4.33618 24.1026 4.53913 24.1518C4.54646 24.1539 4.55482 24.155 4.56215 24.157C4.76614 24.2062 4.97432 24.2522 5.18773 24.2951C5.19505 24.2962 5.20238 24.2983 5.2097 24.2993C5.4252 24.3433 5.64593 24.3841 5.87085 24.4217C5.87608 24.4217 5.88026 24.4238 5.88549 24.4238C5.99952 24.4426 6.11355 24.4615 6.22967 24.4793C6.34684 24.497 6.46609 24.5138 6.58535 24.5305C7.68587 24.6791 8.87741 24.7607 10.1213 24.7607C10.2363 24.7607 10.3504 24.7607 10.4644 24.7586C10.4937 24.7586 10.5219 24.7586 10.5512 24.7575C10.6579 24.7554 10.7636 24.7533 10.8692 24.7512C10.8766 24.7512 10.8849 24.7512 10.8922 24.7512C11.0052 24.7481 11.1182 24.7439 11.2301 24.7397C11.2563 24.7397 11.2814 24.7376 11.3076 24.7366C11.4101 24.7324 11.5126 24.7272 11.6141 24.722C11.6245 24.722 11.6339 24.722 11.6444 24.7209C11.7574 24.7146 11.8683 24.7073 11.9802 24.7C12.0011 24.6989 12.0221 24.6968 12.044 24.6958C12.1455 24.6885 12.247 24.6812 12.3485 24.6728C12.3589 24.6728 12.3683 24.6717 12.3788 24.6707C12.4907 24.6613 12.6027 24.6519 12.7135 24.6404C12.7282 24.6393 12.7418 24.6372 12.7564 24.6362C12.86 24.6257 12.9636 24.6152 13.0671 24.6037C13.0755 24.6037 13.0828 24.6016 13.0912 24.6016C13.2031 24.5891 13.3151 24.5755 13.426 24.5619C13.4322 24.5619 13.4385 24.5598 13.4448 24.5598C13.5525 24.5462 13.6592 24.5326 13.7649 24.5169C13.7701 24.5169 13.7754 24.5159 13.7806 24.5148C14.0034 24.4834 14.2231 24.4489 14.4386 24.4123C14.4407 24.4123 14.4438 24.4123 14.4459 24.4113C14.6625 24.3736 14.8759 24.3338 15.0841 24.292C15.0841 24.292 15.0851 24.292 15.0862 24.292C15.2954 24.2491 15.4994 24.2041 15.6992 24.156C18.4453 23.498 20.2582 22.3671 20.2582 21.0814V18.2423C20.2582 18.9976 19.6326 19.6985 18.5593 20.2832L18.5687 20.2822Z" fill="#46194F"/>
<path d="M15.7086 24.155C14.2984 24.3893 12.8527 24.4949 11.4331 24.292C9.59505 24.0294 7.8407 23.2898 6.3573 22.1746C6.05497 21.9466 5.7631 21.729 5.48378 21.5124C4.07047 21.2467 2.85173 20.8638 1.92487 20.3994C0.714503 19.7926 0 19.0478 0 18.2412V21.0804C0 21.1243 0.00313837 21.1683 0.00732287 21.2122C0.00732287 21.2227 0.00941512 21.2321 0.0104612 21.2425C0.0156919 21.2854 0.0219686 21.3283 0.0313837 21.3712C0.0324299 21.3764 0.0345221 21.3817 0.0355682 21.3869C0.0439372 21.4256 0.0554446 21.4643 0.066952 21.503C0.0700903 21.5124 0.0721826 21.5208 0.0753209 21.5302C0.0889206 21.5721 0.104612 21.6139 0.122397 21.6547C0.125535 21.662 0.129719 21.6694 0.132858 21.6777C0.149596 21.7143 0.16738 21.752 0.187256 21.7886C0.191441 21.7959 0.194579 21.8033 0.198764 21.8106C0.221778 21.8514 0.245839 21.8922 0.271992 21.933C0.277223 21.9414 0.2835 21.9497 0.28873 21.9581C0.313837 21.9958 0.341036 22.0334 0.369282 22.07C0.37242 22.0742 0.375559 22.0784 0.378697 22.0826C0.410081 22.1234 0.443557 22.1631 0.478079 22.2029C0.485402 22.2113 0.492725 22.2196 0.501094 22.228C0.573276 22.3085 0.652782 22.387 0.73961 22.4655C0.747979 22.4728 0.757394 22.4812 0.765763 22.4885C0.8097 22.5272 0.85573 22.5659 0.902805 22.6036C0.905944 22.6067 0.910128 22.6088 0.913267 22.6119C0.95825 22.6475 1.00637 22.6841 1.05449 22.7197C1.06286 22.7259 1.07228 22.7322 1.08065 22.7385C1.13295 22.7762 1.1863 22.8128 1.2407 22.8494C1.24803 22.8536 1.2543 22.8588 1.26163 22.863C1.31393 22.8975 1.36833 22.931 1.42273 22.9655C1.43005 22.9697 1.43633 22.9739 1.44261 22.9781C1.50223 23.0136 1.56396 23.0502 1.62672 23.0848C1.63614 23.09 1.64451 23.0952 1.65392 23.0994C1.71669 23.1339 1.7805 23.1685 1.84641 23.203C1.84746 23.203 1.84955 23.204 1.85059 23.2051C1.91859 23.2396 1.98868 23.2741 2.06086 23.3086C2.07028 23.3128 2.08074 23.3181 2.09016 23.3222C2.23348 23.3902 2.38412 23.4561 2.53999 23.52C2.5494 23.5241 2.55882 23.5273 2.56824 23.5315C2.72725 23.5963 2.89253 23.6591 3.0641 23.7198C3.07142 23.7219 3.07874 23.725 3.08607 23.7271C3.17289 23.7574 3.26077 23.7878 3.34969 23.8171C3.35283 23.8181 3.35597 23.8191 3.36015 23.8202C3.45012 23.8495 3.54113 23.8777 3.63319 23.906C3.63633 23.906 3.63842 23.9081 3.64156 23.9091C3.73466 23.9374 3.82986 23.9656 3.9261 23.9918C3.93238 23.9938 3.93866 23.9949 3.94493 23.997C4.13742 24.0514 4.33618 24.1026 4.53913 24.1518C4.54646 24.1539 4.55482 24.155 4.56215 24.157C4.76614 24.2062 4.97432 24.2522 5.18773 24.2951C5.19505 24.2962 5.20238 24.2983 5.2097 24.2993C5.4252 24.3433 5.64593 24.3841 5.87085 24.4217C5.87608 24.4217 5.88026 24.4238 5.88549 24.4238C5.99952 24.4426 6.11355 24.4615 6.22967 24.4793C6.34684 24.497 6.46609 24.5138 6.58535 24.5305C7.68587 24.6791 8.87741 24.7607 10.1213 24.7607C10.2363 24.7607 10.3504 24.7607 10.4644 24.7586C10.4937 24.7586 10.5219 24.7586 10.5512 24.7575C10.6579 24.7554 10.7636 24.7533 10.8692 24.7512C10.8766 24.7512 10.8849 24.7512 10.8922 24.7512C11.0052 24.7481 11.1182 24.7439 11.2301 24.7397C11.2563 24.7397 11.2814 24.7376 11.3076 24.7366C11.4101 24.7324 11.5126 24.7272 11.6141 24.722C11.6245 24.722 11.6339 24.722 11.6444 24.7209C11.7574 24.7146 11.8683 24.7073 11.9802 24.7C12.0011 24.6989 12.0221 24.6968 12.044 24.6958C12.1455 24.6885 12.247 24.6812 12.3485 24.6728C12.3589 24.6728 12.3683 24.6717 12.3788 24.6707C12.4907 24.6613 12.6027 24.6519 12.7135 24.6404C12.7282 24.6393 12.7418 24.6372 12.7564 24.6362C12.86 24.6257 12.9636 24.6152 13.0671 24.6037C13.0755 24.6037 13.0828 24.6016 13.0912 24.6016C13.2031 24.5891 13.3151 24.5755 13.426 24.5619C13.4322 24.5619 13.4385 24.5598 13.4448 24.5598C13.5525 24.5462 13.6592 24.5326 13.7649 24.5169C13.7701 24.5169 13.7754 24.5159 13.7806 24.5148C14.0034 24.4834 14.2231 24.4489 14.4386 24.4123C14.4407 24.4123 14.4438 24.4123 14.4459 24.4113C14.6625 24.3736 14.8759 24.3338 15.0841 24.292C15.0841 24.292 15.0851 24.292 15.0862 24.292C15.2954 24.2491 15.4994 24.2041 15.6992 24.156L15.7086 24.155Z" fill="#35083D"/>
<path d="M22.1142 6.45071C21.7701 5.52489 21.2449 4.68695 20.5806 3.98186C20.204 3.58224 19.7835 3.22446 19.3263 2.9169C18.1609 2.1344 16.7581 1.67725 15.2485 1.67725C15.2088 1.67725 15.169 1.67725 15.1293 1.67829C11.1414 1.74211 7.92773 4.99451 7.92773 8.99802C7.92773 9.10159 7.93087 9.20411 7.93506 9.30663C7.9633 9.9887 8.0857 10.6467 8.2876 11.2692C8.70919 12.5632 9.48228 13.6983 10.4928 14.5634C11.3496 14.5739 12.1792 14.6241 12.969 14.7067C14.8855 14.9097 16.5687 15.3114 17.8335 15.848C20.5095 14.8375 22.4375 12.3048 22.562 9.30663C22.5662 9.20411 22.5693 9.10159 22.5693 8.99802C22.5693 8.10254 22.4082 7.24472 22.1132 6.45071H22.1142Z" fill="#46194F"/>
<path d="M7.9278 8.99802C7.9278 9.10159 7.93094 9.20411 7.93513 9.30663C8.09728 5.40668 11.3099 2.29551 15.2486 2.29551C19.1872 2.29551 22.3999 5.40773 22.562 9.30663C22.5662 9.20411 22.5694 9.10159 22.5694 8.99802C22.5694 8.10254 22.4083 7.24472 22.1132 6.45071C21.7691 5.52489 21.2439 4.68695 20.5796 3.98186C20.203 3.58224 19.7825 3.22446 19.3253 2.9169C18.1599 2.1344 16.7571 1.67725 15.2475 1.67725C15.2078 1.67725 15.168 1.67725 15.1283 1.67829C11.1405 1.74211 7.92676 4.99451 7.92676 8.99802H7.9278Z" fill="#35083D"/>
<path d="M13.6635 15.3978C12.7251 15.2545 11.6958 15.1666 10.612 15.1468C10.454 15.1436 10.295 15.1426 10.1339 15.1426C9.85248 15.1426 9.57421 15.1478 9.30013 15.1562C7.49243 15.2148 5.84897 15.4637 4.54968 15.8414C2.74302 16.3676 1.59961 17.1438 1.59961 18.0111C1.59961 18.1334 1.62262 18.2527 1.66656 18.3709C2.17184 19.7277 5.49538 20.7896 9.60455 20.8743C9.77926 20.8774 9.95605 20.8795 10.1339 20.8795C11.7794 20.8795 13.3162 20.7226 14.6197 20.4517C14.9931 20.3742 15.3467 20.2874 15.6784 20.1912C16.4776 19.961 17.1482 19.6828 17.6513 19.3689C18.1388 19.0645 18.4673 18.7276 18.6002 18.3709C18.6441 18.2527 18.6671 18.1324 18.6671 18.0111C18.6671 16.8499 16.6146 15.8498 13.6625 15.3989L13.6635 15.3978Z" fill="#46194F"/>
<path d="M1.6017 18.01C1.6017 18.1324 1.62472 18.2517 1.66865 18.3699C2.1959 16.9555 5.78515 15.8613 10.1349 15.8613C14.4847 15.8613 18.074 16.9555 18.6012 18.3699C18.6452 18.2517 18.6682 18.1314 18.6682 18.01C18.6682 16.8488 16.6157 15.8487 13.6635 15.3978C12.7251 15.2545 11.6958 15.1666 10.612 15.1468C10.454 15.1436 10.295 15.1426 10.1339 15.1426C9.85248 15.1426 9.57421 15.1478 9.30013 15.1562C7.49243 15.2148 5.84897 15.4637 4.54968 15.8414C2.74302 16.3676 1.59961 17.1438 1.59961 18.0111L1.6017 18.01Z" fill="#35083D"/>
<path d="M3.18119 22.1872C2.67592 21.6422 2.27002 21.0385 1.92585 20.3994C0.715479 19.7926 0.000976562 19.0478 0.000976562 18.2412V21.0804C0.000976562 21.1243 0.00411494 21.1683 0.00829943 21.2122C0.00829943 21.2227 0.0103917 21.2321 0.0114378 21.2425C0.0166684 21.2854 0.0229452 21.3283 0.0323603 21.3712C0.0334064 21.3764 0.0354987 21.3817 0.0365448 21.3869C0.0449138 21.4256 0.0564211 21.4643 0.0679285 21.503C0.0710669 21.5124 0.0731591 21.5208 0.0762975 21.5302C0.0898971 21.5721 0.105589 21.6139 0.123373 21.6547C0.126511 21.662 0.130696 21.6694 0.133834 21.6777C0.150572 21.7143 0.168356 21.752 0.188233 21.7886C0.192417 21.7959 0.195556 21.8033 0.19974 21.8106C0.222755 21.8514 0.246816 21.8922 0.272969 21.933C0.278199 21.9414 0.284476 21.9497 0.289707 21.9581C0.314814 21.9958 0.342013 22.0334 0.370258 22.07C0.373397 22.0742 0.376535 22.0784 0.379674 22.0826C0.411057 22.1234 0.444533 22.1631 0.479055 22.2029C0.486378 22.2113 0.493701 22.2196 0.50207 22.228C0.574253 22.3085 0.653758 22.387 0.740586 22.4655C0.748955 22.4728 0.758371 22.4812 0.76674 22.4885C0.810677 22.5272 0.856706 22.5659 0.903782 22.6036C0.90692 22.6067 0.911105 22.6088 0.914243 22.6119C0.959226 22.6475 1.00735 22.6841 1.05547 22.7197C1.06384 22.7259 1.07325 22.7322 1.08162 22.7385C1.13393 22.7762 1.18728 22.8128 1.24168 22.8494C1.249 22.8536 1.25528 22.8588 1.2626 22.863C1.31491 22.8975 1.36931 22.931 1.42371 22.9655C1.43103 22.9697 1.43731 22.9739 1.44358 22.9781C1.50321 23.0136 1.56493 23.0502 1.6277 23.0848C1.63711 23.09 1.64548 23.0952 1.6549 23.0994C1.71767 23.1339 1.78148 23.1685 1.84739 23.203C1.84843 23.203 1.85052 23.204 1.85157 23.2051C1.91957 23.2396 1.98966 23.2741 2.06184 23.3086C2.07126 23.3128 2.08172 23.3181 2.09113 23.3222C2.23445 23.3902 2.38509 23.4561 2.54097 23.52C2.55038 23.5241 2.5598 23.5273 2.56921 23.5315C2.72822 23.5963 2.89351 23.6591 3.06507 23.7198C3.0724 23.7219 3.07972 23.725 3.08704 23.7271C3.17387 23.7574 3.26175 23.7878 3.35067 23.8171C3.3538 23.8181 3.35694 23.8191 3.36113 23.8202C3.45109 23.8495 3.54211 23.8777 3.63417 23.906C3.6373 23.906 3.6394 23.9081 3.64254 23.9091C3.73564 23.9374 3.83084 23.9656 3.92708 23.9918C3.93336 23.9938 3.93963 23.9949 3.94591 23.997C4.1384 24.0514 4.33716 24.1026 4.54011 24.1518C4.54743 24.1539 4.5558 24.155 4.56312 24.157C4.76712 24.2062 4.9753 24.2522 5.18871 24.2951C5.19603 24.2962 5.20335 24.2983 5.21068 24.2993C5.42618 24.3433 5.64691 24.3841 5.87183 24.4217C5.87706 24.4217 5.88124 24.4238 5.88647 24.4238C6.0005 24.4426 6.11453 24.4615 6.23065 24.4793C6.34781 24.497 6.46707 24.5138 6.58633 24.5305C5.3111 23.9719 4.11957 23.2113 3.16864 22.1861L3.18119 22.1872Z" fill="#2F0036"/>
<path fill-rule="evenodd" clip-rule="evenodd" d="M11.4852 9.59913L13.7292 9.12419V5.10812C13.9258 4.82252 14.3495 4.50659 14.6341 4.33398V8.92438L15.7189 8.70469V5.57783C15.902 5.31839 16.3528 4.98677 16.6269 4.81939V8.50593L19.1847 7.96927C19.1972 8.37307 19.1219 8.73712 18.9127 9.03945L16.6269 9.51335V10.5354L19.2014 10.0082C19.214 10.412 19.1387 10.776 18.9294 11.0783L15.7199 11.7385V10.7321L15.7147 9.71211L14.633 9.92552V11.2593C14.4729 11.6412 14.1487 12.023 13.93 12.3149C13.8704 12.3954 13.8767 12.4258 13.7815 12.4456L10.7289 13.0869C10.71 12.8076 10.7676 12.4425 11.0207 12.0261L13.7271 11.4623V10.1295L11.1902 10.662C11.1714 10.3827 11.2289 10.0176 11.4821 9.60122L11.4852 9.59913ZM16.0306 12.6685L19.2056 12.0272C19.2182 12.431 19.0937 12.7929 18.9336 13.0974L15.721 13.7585C15.7367 13.4279 15.835 13.067 16.0306 12.6695V12.6685Z" fill="#35083D"/>
<path fill-rule="evenodd" clip-rule="evenodd" d="M6.44849 18.2825L8.52818 18.2386L8.6715 16.4612C8.86294 16.3493 9.26361 16.2415 9.53142 16.1851L9.36717 18.2166L10.3715 18.1999L10.4834 16.8159C10.6612 16.7144 11.087 16.6014 11.3454 16.5481L11.2136 18.18L13.5841 18.1319C13.581 18.3118 13.4994 18.4667 13.2964 18.5849L11.178 18.6246L11.1414 19.0765L13.5266 19.0337C13.5234 19.2136 13.4418 19.3684 13.2389 19.4866L10.2658 19.541L10.3014 19.0954L10.3338 18.6435L9.33161 18.6581L9.28453 19.2481C9.12343 19.405 8.81168 19.5504 8.60037 19.6634C8.54178 19.6948 8.54806 19.7084 8.45914 19.7105L5.63042 19.768C5.6231 19.6425 5.689 19.4856 5.93693 19.3203L8.44449 19.2711L8.49157 18.6811L6.14093 18.7282C6.1336 18.6027 6.19951 18.4457 6.44744 18.2804L6.44849 18.2825ZM10.5179 19.9783L13.4586 19.9302C13.4554 20.1101 13.3278 20.2608 13.1709 20.3832L10.1947 20.4376C10.2208 20.2921 10.3244 20.1405 10.5179 19.9783Z" fill="#35083D"/>
<path fill-rule="evenodd" clip-rule="evenodd" d="M6.46216 18.1258L8.54186 18.0819L8.68517 16.3045C8.87662 16.1926 9.27728 16.0848 9.54509 16.0283L9.38085 18.0599L10.3851 18.0432L10.4971 16.6591C10.6749 16.5577 11.1007 16.4447 11.3591 16.3913L11.2273 18.0233L13.5978 17.9752C13.5946 18.1551 13.513 18.3099 13.3101 18.4281L11.1917 18.4679L11.1551 18.9198L13.5402 18.8769C13.5371 19.0568 13.4555 19.2117 13.2526 19.3299L10.2795 19.3843L10.315 18.9386L10.3475 18.4867L9.34528 18.5014L9.2982 19.0914C9.1371 19.2483 8.82536 19.3937 8.61404 19.5067C8.55546 19.5381 8.56173 19.5517 8.47281 19.5538L5.64409 19.6113C5.63677 19.4858 5.70267 19.3288 5.95061 19.1636L8.45817 19.1144L8.50524 18.5244L6.1546 18.5714C6.14728 18.4459 6.21318 18.289 6.46111 18.1237L6.46216 18.1258ZM10.5305 19.8216L13.4712 19.7734C13.4681 19.9534 13.3404 20.104 13.1835 20.2264L10.2073 20.2808C10.2334 20.1354 10.337 19.9837 10.5305 19.8216Z" fill="#7F3A8F"/>
<path fill-rule="evenodd" clip-rule="evenodd" d="M11.1717 9.49512L13.4157 9.02018V5.00411C13.6124 4.71852 14.036 4.40259 14.3206 4.22998V8.82037L15.4054 8.60069V5.47382C15.5885 5.21438 16.0394 4.88276 16.3134 4.71538V8.40192L18.8712 7.86526C18.8838 8.26907 18.8084 8.63312 18.5992 8.93545L16.3134 9.40934V10.4314L18.888 9.90416C18.9005 10.308 18.8252 10.672 18.616 10.9743L15.4065 11.6344V10.6281L15.4012 9.6081L14.3195 9.82151V11.1553C14.1595 11.5372 13.8352 11.919 13.6165 12.2109C13.5569 12.2914 13.5632 12.3218 13.468 12.3416L10.4154 12.9829C10.3966 12.7036 10.4541 12.3385 10.7073 11.9221L13.4136 11.3583V10.0255L10.8767 10.558C10.8579 10.2787 10.9154 9.91357 11.1686 9.49722L11.1717 9.49512ZM15.7172 12.5645L18.8921 11.9232C18.9047 12.327 18.7802 12.6889 18.6201 12.9934L15.4075 13.6545C15.4232 13.3239 15.5215 12.962 15.7172 12.5645Z" fill="#7F3A8F"/>
</svg>
