<svg width="28" height="27" viewBox="0 0 28 27" fill="none" xmlns="http://www.w3.org/2000/svg">
<path d="M14.0022 26.7573C12.967 26.7573 11.9351 26.6383 10.9272 26.3984C8.27568 25.7685 5.89768 24.316 4.05049 22.1974C2.19813 20.0937 1.07896 17.5424 0.817756 14.8231C0.5753 12.3003 1.06538 9.73479 2.23434 7.40213C3.39877 5.08046 5.15092 3.16169 7.30133 1.85341C9.61403 0.446829 12.2972 -0.178534 15.0612 0.0439321C18.5021 0.259931 21.8273 1.94136 24.1866 4.65752C26.5465 7.37497 27.7458 10.9047 27.4775 14.3438C27.3049 17.1104 26.3144 19.6779 24.6126 21.768C23.0286 23.7139 20.8989 25.182 18.4536 26.0136C17.0002 26.5077 15.497 26.7567 14.0022 26.7567V26.7573ZM13.9763 1.94007C9.73494 1.94007 5.95781 4.30442 3.96838 8.27259C1.8212 12.5551 2.4115 17.4008 5.50975 20.9189C8.60154 24.4641 13.3213 25.7116 17.8304 24.1776C22.3025 22.6566 25.2579 18.8397 25.543 14.2164L25.5443 14.2003C25.7738 11.2739 24.7458 8.25966 22.7228 5.93023C20.7004 3.60145 17.8614 2.16189 14.9325 1.98016L14.9138 1.97887C14.5996 1.953 14.2866 1.94071 13.9769 1.94071L13.9763 1.94007Z" fill="#46194F"/>
<path d="M9.96396 6.32464C8.17251 6.52332 6.39758 8.22966 5.78559 9.83456C4.05232 15.1586 10.0746 18.5981 13.7659 21.2485C17.3373 18.5776 23.0967 15.4143 21.826 10.2129C20.6832 6.68958 16.553 4.83036 13.7214 7.87177C12.6116 6.82344 11.5873 6.14499 9.96468 6.32464H9.96396Z" fill="#46194F"/>
</svg>
