<svg width="145" height="34" viewBox="0 0 145 34" fill="none" xmlns="http://www.w3.org/2000/svg">
<path d="M102.132 0.178665V12.4627H99.6685C99.6701 12.4032 99.6731 12.3436 99.6731 12.2825V5.58004H97.441V12.2825C97.441 14.2189 95.8604 15.7933 93.9165 15.7933V18.0168C96.2299 18.0168 98.2259 16.65 99.1412 14.6862H104.364V2.40213H106.754V15.0344H108.986V0.178665H102.132Z" fill="#44194E"/>
<path d="M23.143 12.281C23.143 14.2174 21.5624 15.7918 19.6185 15.7918V18.0153C22.7935 18.0153 25.3752 15.4421 25.3752 12.281V5.57851H23.143V12.281Z" fill="#44194E"/>
<path d="M89.371 7.51488C87.3749 7.51488 85.6901 8.86789 85.1903 10.7004H79.6974V5.57851H77.4653V10.7004H74.114V5.41969H61.914V7.64316H71.8819V10.7004H61.7545V11.8122C61.7545 15.2329 64.5477 18.0168 67.9833 18.0168H73.8181V15.7933H67.9833C66.1666 15.7933 64.6305 14.5808 64.1461 12.9239H85.1811C85.6686 14.7747 87.3627 16.1446 89.3725 16.1446C91.761 16.1446 93.7049 14.2082 93.7049 11.829C93.7049 9.44972 91.761 7.51335 89.3725 7.51335M89.371 13.9211C88.2135 13.9211 87.2707 12.9834 87.2707 11.829C87.2707 10.6745 88.212 9.73682 89.371 9.73682C90.53 9.73682 91.4712 10.6745 91.4712 11.829C91.4712 12.9834 90.53 13.9211 89.371 13.9211Z" fill="#44194E"/>
<path d="M82.5995 15.7918H80.5206V18.0153H82.5995V15.7918Z" fill="#44194E"/>
<path d="M79.5425 15.7918H77.3043V18.0153H79.5425V15.7918Z" fill="#44194E"/>
<path d="M55.3694 12.3696H52.9778V0.300835H50.7457V12.3696H48.8263V8.00509H46.5941V12.3696H44.2026V8.00509H41.9705V12.3696H39.7383V8.00509H37.5062V12.3696H34.6869V8.00509H32.4548V12.3696H30.2395H29.4423V0.300835H27.2102V14.593H30.2395H34.066H34.6869H44.2026H47.7102H48.8263H51.8556H52.9778H57.6015V0.300835H55.3694V12.3696Z" fill="#44194E"/>
<path d="M33.5709 15.7918H31.2498V18.0153H33.5709V15.7918Z" fill="#44194E"/>
<path d="M36.8485 15.7918H34.5275V18.0153H36.8485V15.7918Z" fill="#44194E"/>
<path d="M10.2377 6.72079H5.59717V8.94425H10.2377V6.72079Z" fill="#44194E"/>
<path d="M19.9573 0.300835H17.7252V14.3044H19.9573V0.300835Z" fill="#44194E"/>
<path d="M13.3115 12.3696H3.90316C2.98179 12.3696 2.23213 11.6228 2.23213 10.705H0C0 12.8491 1.75075 14.593 3.90316 14.593H15.5436V5.57851H13.3115V12.3696Z" fill="#44194E"/>
<path d="M5.76122 31.1178H2.35937L1.97304 33.2787H0L2.18767 21.3276H5.93292L8.12059 33.2787H6.14755L5.76122 31.1178ZM4.40293 23.3327H3.71612L2.73037 29.0089H5.38869L4.40293 23.3327Z" fill="#44194E"/>
<path d="M15.4087 31.1346V33.2787H9.87744V21.3276H11.8505V31.1346H15.4102H15.4087Z" fill="#44194E"/>
<path d="M17.0813 21.3291H20.8557C23.143 21.3291 24.2867 22.6409 24.2867 25.266C24.2867 26.8236 23.8099 27.972 22.8578 28.7096L24.2437 33.2787H22.0852L20.9553 29.2716H19.0543V33.2787H17.0813V21.3276V21.3291ZM20.8848 27.1993C21.3325 27.1993 21.6759 27.0267 21.9135 26.6801C22.1511 26.3349 22.2707 25.8692 22.2707 25.2828C22.2707 24.6964 22.1465 24.2367 21.8982 23.9038C21.6498 23.5694 21.3018 23.4029 20.8541 23.4029H19.0528V27.1993H20.8817H20.8848Z" fill="#44194E"/>
<path d="M27.6456 32.8404C27.0538 32.4067 26.6276 31.7424 26.367 30.846C26.1049 29.9496 25.9745 28.7875 25.9745 27.3581C25.9745 25.9287 26.1049 24.7422 26.367 23.8351C26.6292 22.9264 27.0554 22.2469 27.6456 21.7964C28.2358 21.3459 29.0223 21.1199 30.005 21.1199C30.9876 21.1199 31.7726 21.3459 32.3643 21.7964C32.9545 22.2484 33.3807 22.9264 33.6429 23.8351C33.905 24.7437 34.0353 25.918 34.0353 27.3581C34.0353 28.7982 33.9096 29.913 33.6567 30.8033C33.4037 31.6936 32.9821 32.364 32.3919 32.816C31.8002 33.268 31.0045 33.4925 30.005 33.4925C29.0054 33.4925 28.2373 33.2756 27.6456 32.8419V32.8404ZM31.2115 30.9865C31.5027 30.7223 31.7066 30.3008 31.8262 29.7205C31.9458 29.1402 32.0056 28.3523 32.0056 27.3566C32.0056 26.3609 31.9443 25.5668 31.8201 24.9758C31.6959 24.3848 31.4889 23.945 31.1977 23.6579C30.9064 23.3708 30.5093 23.2273 30.0034 23.2273C29.4975 23.2273 29.1004 23.3708 28.8092 23.6579C28.5179 23.945 28.3109 24.3848 28.1867 24.9758C28.0626 25.5668 28.0012 26.3609 28.0012 27.3566C28.0012 28.282 28.0534 29.0318 28.1592 29.606C28.2634 30.1802 28.4612 30.62 28.7524 30.9239C29.0437 31.2293 29.4607 31.3805 30.0034 31.3805C30.5185 31.3805 30.9202 31.2492 31.2115 30.985V30.9865Z" fill="#44194E"/>
<path d="M46.3289 21.3291V33.2802H44.3559V24.0367H44.1413L42.2403 32.7534H40.2672L38.3663 24.0367H38.1516V33.2802H36.1786V21.3291H39.5375L41.253 30.029L42.9685 21.3291H46.3274H46.3289Z" fill="#44194E"/>
<path d="M53.847 31.1178H50.4452L50.0589 33.2787H48.0858L50.2735 21.3276H54.0187L56.2064 33.2787H54.2334L53.847 31.1178ZM52.4887 23.3327H51.8019L50.8162 29.0089H53.4745L52.4887 23.3327Z" fill="#44194E"/>
<path d="M57.9633 21.3291H59.9363V33.2802H57.9633V21.3291Z" fill="#44194E"/>
<path d="M70.0714 21.3291V33.2802H68.0983V28.3248H64.4818V33.2802H62.5088V21.3291H64.4818V26.2143H68.0983V21.3291H70.0714Z" fill="#44194E"/>
<path d="M77.3043 32.8221C76.7509 32.3777 76.3722 31.718 76.1683 30.8445C75.9629 29.9725 75.8617 28.8089 75.8617 27.3566C75.8617 25.7638 75.9736 24.5223 76.1974 23.6304C76.4213 22.7401 76.7953 22.0988 77.3196 21.7063C77.8439 21.3138 78.5783 21.1168 79.5211 21.1168C80.3888 21.1168 81.3562 21.2756 82.4232 21.5918L82.3664 23.5251C81.4236 23.3495 80.6556 23.2609 80.0653 23.2609C79.4751 23.2609 79.0121 23.3785 78.707 23.6121C78.402 23.8473 78.1904 24.2306 78.0708 24.7636C77.9512 25.2965 77.8915 26.0494 77.8915 27.0221V27.6727C77.9099 28.6806 77.9696 29.4334 78.0708 29.9313C78.1705 30.4291 78.3682 30.7895 78.6641 31.0125C78.96 31.2354 79.4122 31.3469 80.0224 31.3469C80.6709 31.3469 81.4512 31.2645 82.3664 31.1011L82.4094 33.0863C81.37 33.3551 80.4609 33.491 79.679 33.491C78.6503 33.491 77.8593 33.268 77.3058 32.8236L77.3043 32.8221Z" fill="#44194E"/>
<path d="M89.4123 31.1178H86.0105L85.6242 33.2787H83.6511L85.8388 21.3276H89.584L91.7717 33.2787H89.7987L89.4123 31.1178ZM88.0541 23.3327H87.3672L86.3815 29.0089H89.0398L88.0541 23.3327Z" fill="#44194E"/>
<path d="M93.5286 21.3291H97.303C99.5903 21.3291 100.734 22.6409 100.734 25.266C100.734 26.8236 100.257 27.972 99.3052 28.7096L100.691 33.2787H98.5325L97.4026 29.2716H95.5017V33.2787H93.5286V21.3276V21.3291ZM97.3306 27.1993C97.7783 27.1993 98.1217 27.0267 98.3593 26.6801C98.5969 26.3349 98.7165 25.8692 98.7165 25.2828C98.7165 24.6964 98.5923 24.2367 98.3439 23.9038C98.0956 23.5709 97.7476 23.4029 97.2999 23.4029H95.4986V27.1993H97.3275H97.3306Z" fill="#44194E"/>
<path d="M102.949 33.068L102.434 32.9443L102.635 31.0644C103.912 31.2751 104.889 31.3805 105.565 31.3805C106.575 31.3805 107.079 30.8659 107.079 29.8335C107.079 29.4121 106.946 29.1021 106.679 28.902C106.412 28.7035 105.965 28.4927 105.336 28.2698C104.583 28.0117 103.99 27.7246 103.556 27.4085C103.122 27.0924 102.808 26.7167 102.613 26.283C102.419 25.8493 102.321 25.3103 102.321 24.6658C102.321 23.4945 102.612 22.6103 103.193 22.0117C103.774 21.4146 104.59 21.1153 105.637 21.1153C106.046 21.1153 106.471 21.1474 106.909 21.2115C107.348 21.2756 107.99 21.4024 108.839 21.5902L108.681 23.5052C107.375 23.3174 106.428 23.2242 105.838 23.2242C104.798 23.2242 104.28 23.6457 104.28 24.4902C104.28 24.7834 104.366 25.0232 104.537 25.211C104.709 25.3988 104.924 25.5546 105.181 25.6768C105.439 25.8005 105.873 25.9791 106.483 26.2128C107.141 26.4709 107.65 26.7396 108.013 27.0221C108.375 27.3031 108.637 27.6513 108.799 28.0682C108.962 28.4836 109.043 29.0196 109.043 29.6763C109.043 30.9071 108.741 31.8493 108.136 32.506C107.53 33.1626 106.713 33.4894 105.684 33.4894C104.941 33.4894 104.03 33.3489 102.954 33.068H102.949Z" fill="#44194E"/>
<path d="M125.927 9.58717H131.653C133.463 9.58717 134.935 11.0547 134.935 12.8567C134.935 14.6587 133.463 16.1262 131.653 16.1262V19.5347C135.349 19.5347 138.357 16.5386 138.357 12.8567C138.357 9.17486 135.349 6.17867 131.653 6.17867H122.505V27.7796H125.927V9.58717Z" fill="#44194E"/>
<path d="M130.04 17.2319V15.688H126.618V17.2319C126.618 23.464 131.708 28.5355 137.966 28.5355V25.127C133.595 25.127 130.04 21.5856 130.04 17.2319Z" fill="#44194E"/>
<path d="M114.656 0V33.6681H145.004V0H114.656ZM141.581 30.2596H118.076V3.4085H141.581V30.2596Z" fill="#44194E"/>
</svg>
