<svg width="17" height="20" viewBox="0 0 17 20" fill="none" xmlns="http://www.w3.org/2000/svg">
<path d="M13.7337 19.6274H3.07706C0.67122 19.2582 -0.090179 17.7116 0.00832023 15.4568C0.120609 12.8785 1.11053 9.37493 4.3152 9.34725C4.90521 9.3419 5.58042 9.9515 6.0941 10.2337C7.55041 11.0352 9.08306 11.0906 10.5748 10.3265C11.0949 10.0598 11.8469 9.37348 12.4153 9.3487C13.121 9.31762 14.0809 9.64889 14.6512 10.055C16.4119 11.3091 16.9423 14.5845 16.8024 16.5852C16.6872 18.2343 15.3978 19.4816 13.7337 19.6279V19.6274Z" fill="#46194F"/>
<path d="M7.93636 0.0190331C12.5656 -0.371806 14.9233 5.35356 11.3615 8.28012C8.18429 10.8911 3.46799 8.37948 3.75093 4.29602C3.90234 2.11281 5.74523 0.204516 7.93636 0.0190331Z" fill="#46194F"/>
</svg>
