<svg width="22" height="20" viewBox="0 0 22 20" fill="none" xmlns="http://www.w3.org/2000/svg">
<path d="M9.26758 11.4101C11.8223 11.5362 14.6179 11.1971 17.1451 11.3985C18.8758 11.5362 20.4934 12.9142 20.9924 14.5516C21.2652 15.4471 21.2855 17.2453 21.2042 18.1959C21.1607 18.7016 20.8894 19.0856 20.415 19.2667C15.748 19.4 11.0505 19.2841 6.37191 19.3246C5.74664 19.2522 5.33898 18.8189 5.28531 18.1959C5.22583 17.5105 5.24033 16.3658 5.28676 15.6702C5.43183 13.5025 7.09583 11.668 9.26758 11.4101ZM18.8976 17.0207V15.5369C18.8976 14.7066 17.7384 13.6807 16.913 13.6677C14.5686 13.7604 12.0675 13.5025 9.74197 13.6532C8.94116 13.7054 8.18533 14.1546 7.82409 14.8805C7.77042 14.9877 7.59488 15.4485 7.59488 15.5369V17.0207H18.899H18.8976Z" fill="#46194F"/>
<path d="M17.7721 5.21224C17.7721 7.74363 15.7192 9.79655 13.1878 9.79655C10.6564 9.79655 8.60352 7.74363 8.60352 5.21224C8.60352 2.68085 10.6564 0.62793 13.1878 0.62793C15.7192 0.62793 17.7721 2.68085 17.7721 5.21224ZM15.4734 5.21224C15.4734 3.95093 14.4521 2.92959 13.1908 2.92959C11.9294 2.92959 10.9081 3.95093 10.9081 5.21224C10.9081 6.47355 11.9294 7.49488 13.1908 7.49488C14.4521 7.49488 15.4734 6.47355 15.4734 5.21224Z" fill="#46194F"/>
<path d="M0.246094 4.33611V3.7991C0.430461 3.3177 0.774321 2.97823 1.30108 2.90946C2.80968 2.98994 4.45728 2.78508 5.94831 2.90361C7.43935 3.02213 7.50519 5.1087 5.94831 5.23161C4.39143 5.35452 2.80968 5.14382 1.30108 5.22576C0.772858 5.15698 0.430461 4.81751 0.246094 4.33611Z" fill="#46194F"/>
<path d="M3.40928 7.52196C3.92141 7.4371 5.53243 7.45904 6.08407 7.50879C7.44488 7.63317 7.42293 9.61439 6.16748 9.78705C5.6173 9.86314 4.14968 9.84558 3.57609 9.7929C2.22845 9.66999 2.23723 7.71657 3.40928 7.5205V7.52196Z" fill="#46194F"/>
</svg>
