<svg width="19" height="19" viewBox="0 0 19 19" fill="none" xmlns="http://www.w3.org/2000/svg">
<g clip-path="url(#clip0_462_2036)">
<path d="M14.7329 0C15.0428 0.0708863 15.3546 0.111039 15.6604 0.204232C17.1317 0.652352 18.368 1.89014 18.8042 3.36883C18.8914 3.66427 18.9286 3.96914 19.0005 4.26755V14.7315C18.7308 17.0187 16.8804 18.8424 14.5684 19.0005L4.36322 18.998C2.05967 18.7958 0.201753 16.9418 0.00247854 14.6378L0 4.43262C0.12591 2.19004 2.0215 0.196796 4.26904 0H14.7329ZM4.37264 1.60659C2.91972 1.78604 1.77364 2.94996 1.60213 4.40189L1.59568 14.5282C1.73845 16.0471 2.95145 17.2571 4.47129 17.4038H14.5297C16.0481 17.2576 17.2591 16.05 17.4053 14.5282V4.4698C17.2596 2.96533 16.0719 1.7558 14.5649 1.59618L4.37215 1.60659H4.37264Z" fill="#46194F"/>
<path d="M8.7215 5.3248C8.78644 4.93517 9.31685 4.6888 9.68863 4.76613C9.87898 4.80579 10.28 5.13296 10.28 5.3248V8.66438L10.3355 8.7199H13.6751C13.7098 8.7199 13.8709 8.82202 13.9131 8.85275C14.3686 9.1819 14.3686 9.81641 13.9131 10.1451C13.8704 10.1758 13.7098 10.2779 13.6751 10.2779H10.3355L10.28 10.3334V13.673C10.28 13.7077 10.1779 13.8688 10.1472 13.911C9.81801 14.3665 9.1835 14.3665 8.85485 13.911C8.82411 13.8683 8.722 13.7077 8.722 13.673V10.3334L8.66648 10.2779H5.32689C5.29219 10.2779 5.13109 10.1758 5.08895 10.1451C4.73849 9.89225 4.63389 9.42133 4.88422 9.05599C4.95114 8.95834 5.21387 8.7199 5.32689 8.7199H8.66648L8.722 8.66438V5.3248H8.7215Z" fill="#46194F"/>
</g>
<defs>
<clipPath id="clip0_462_2036">
<rect width="19" height="19" fill="white"/>
</clipPath>
</defs>
</svg>
