<svg width="66" height="23" viewBox="0 0 66 23" fill="none" xmlns="http://www.w3.org/2000/svg">
<g clip-path="url(#clip0_944_46)">
<path d="M7.945 20.1037C9.80472 23.9488 15.7446 23.8391 17.7165 20.1037L47.7525 20.0724C50.1173 24.3168 56.6263 23.7295 58.0852 19.1013C59.6723 18.42 61.8367 18.1146 63.3517 17.3941C64.1052 17.0339 65.2034 15.5773 65.3156 14.7629C65.4839 13.4864 65.508 8.86612 65.2916 7.64447C65.1713 6.94751 64.6984 6.42282 64.2014 5.95296C64.0731 5.83549 63.8166 5.77285 63.7926 5.73369C63.6964 5.60839 63.985 5.11504 63.8888 4.75481C63.7605 4.26928 63.2555 3.9717 62.7585 3.99519C61.2595 4.06567 59.3757 4.91143 57.8206 4.9036C54.6543 3.68978 51.5762 2.20971 48.4098 1.01156C47.3678 0.620004 46.3818 0.189296 45.2515 0.110985C40.9309 -0.210089 36.2175 0.361579 31.8488 0.110985C27.2556 1.10553 23.4079 4.57469 19.2476 6.66559L13.957 7.13545C11.0392 7.58965 7.92096 8.02036 5.11535 8.96792C1.12338 10.3227 0.690513 13.6744 1.05925 17.3941C1.40394 20.8711 5.43599 19.9392 7.945 20.0959V20.1037Z" fill="#C5AECB"/>
<path d="M7.945 20.1037C9.80472 23.9488 15.7446 23.8391 17.7165 20.1037L47.7525 20.0724C50.1173 24.3168 56.6263 23.7295 58.0852 19.1013C59.6723 18.42 61.8367 18.1146 63.3517 17.3941C64.1052 17.0339 65.2034 15.5773 65.3156 14.7629C65.4839 13.4864 65.508 8.86612 65.2916 7.64447C65.1713 6.94751 64.6984 6.42282 64.2014 5.95296C64.0731 5.83549 63.8166 5.77285 63.7926 5.73369C63.6964 5.60839 63.985 5.11504 63.8888 4.75481C63.7605 4.26928 63.2555 3.9717 62.7585 3.99519C61.2595 4.06567 59.3757 4.91143 57.8206 4.9036C54.6543 3.68978 51.5762 2.20971 48.4098 1.01156C47.3678 0.620004 46.3818 0.189296 45.2515 0.110985C40.9309 -0.210089 36.2175 0.361579 31.8488 0.110985C27.2556 1.10553 23.4079 4.57469 19.2476 6.66559L13.957 7.13545C11.0392 7.58965 7.92096 8.02036 5.11535 8.96792C1.12338 10.3227 0.690513 13.6744 1.05925 17.3941C1.40394 20.8711 5.43599 19.9392 7.945 20.0959V20.1037ZM2.46205 12.6485L4.50613 12.6485C4.69852 12.6485 5.60433 12.3979 5.82878 12.2883C6.83078 11.8263 7.65642 10.5811 7.53618 9.48477C9.49209 9.1402 11.4159 8.64685 13.3959 8.39625C15.3839 8.14566 17.3879 8.13783 19.3758 7.9029C23.5121 5.90597 27.2636 2.59343 31.6965 1.35612C36.1213 1.59106 40.8507 1.05854 45.2355 1.35612C45.7966 1.39528 46.2135 1.49708 46.7505 1.66937C50.3738 2.82837 54.0371 4.91143 57.6683 6.15657L62.3577 5.3578C61.2836 6.63426 62.9669 6.46198 63.5601 7.00232C63.7926 7.21376 63.8487 7.527 64.0491 7.76194C63.1673 7.78543 62.3176 8.0047 62.2134 8.99925C62.0531 10.4558 62.1012 12.1473 64.0491 11.9594L63.985 13.8937L58.0611 15.2641C57.7565 15.2171 57.2916 14.2774 57.003 13.9485C53.9168 10.3853 47.7525 12.1395 47.1032 16.7442L46.486 16.893L18.478 16.9165C18.2937 16.8773 18.1334 15.7966 18.0372 15.5382C16.0412 10.2679 7.72857 11.2624 7.25562 16.9165L2.32578 16.7833L2.47006 12.6564L2.46205 12.6485ZM63.4799 9.06972H64.0411V10.7221H63.4799V9.06972ZM3.44802 11.4112C4.07327 10.4871 5.25964 10.2131 6.26164 9.89982C6.10934 11.2781 4.65042 11.56 3.44802 11.4112ZM53.3718 13.2359C56.7305 13.6901 58.2695 17.5508 56.1533 20.1507C53.9489 22.8524 49.5962 22.085 48.5381 18.7802C47.5441 15.6791 50.0932 12.7895 53.3718 13.2359ZM13.4921 13.2359C18.8227 13.9563 18.3097 22.4452 11.9931 21.7247C6.75863 21.1217 7.43198 12.4214 13.4921 13.2359ZM58.4138 17.7465C58.4138 17.4176 58.0691 16.6345 58.4138 16.4309L63.7765 15.2719C63.5761 15.7418 63.1834 16.1255 62.7505 16.3996L58.4218 17.7465H58.4138ZM47.2796 18.8429L18.2536 18.8429L18.478 18.1459L46.9349 18.0128L47.1353 18.0285L47.2796 18.8507V18.8429ZM2.46205 18.0206H7.0392C7.32777 18.2164 7.25563 18.5375 7.24761 18.8429H3.51215C3.2396 18.8429 2.57427 18.3026 2.45403 18.0206H2.46205Z" fill="#46194F"/>
<path d="M45.4769 2.49902L31.4809 2.52252C28.7154 3.2743 26.4228 5.25556 23.8897 6.53202C22.9439 7.20549 23.2084 8.39582 24.2665 8.77171L47.2164 8.80303C48.7073 8.59159 49.6532 8.4663 50.8075 7.49524C51.6091 6.82177 52.8917 5.57663 51.4648 4.77786C50.5831 4.28451 48.7073 3.6032 47.6973 3.22731C46.9679 2.95323 46.2464 2.66348 45.4769 2.49902ZM36.7074 3.69718L44.8115 3.69718C45.5009 4.89533 45.7895 6.31275 46.4308 7.55006L36.7074 7.55006V3.69718ZM31.5691 3.69718C32.7795 3.53272 34.3346 3.82247 35.5851 3.69718V7.55006L24.7314 7.55006L29.9899 4.36282C30.3988 4.15921 31.1442 3.75982 31.5611 3.69718H31.5691ZM46.2945 3.97909L50.7995 5.83506C49.9498 6.80611 49.052 7.44826 47.6893 7.49524L46.2865 3.97126L46.2945 3.97909Z" fill="#46194F"/>
<path d="M54.9838 19.7586C55.6812 19.0773 55.9618 18.0749 55.8736 17.1195C55.585 13.9009 50.8075 13.3841 49.7494 16.3677C48.571 19.6803 52.6913 21.9982 54.9838 19.7586Z" fill="#46194F"/>
<path d="M13.6373 14.4727C10.8236 14.0107 8.73146 16.3052 9.9499 18.8973C11.2485 21.6538 15.6493 20.949 15.9779 17.8009C16.1222 16.407 15.1122 14.7155 13.6293 14.4727H13.6373Z" fill="#46194F"/>
</g>
<defs>
<clipPath id="clip0_944_46">
<rect width="64.4888" height="22.9294" fill="white" transform="matrix(-1 0 0 1 65.4367 0.0166016)"/>
</clipPath>
</defs>
</svg>
