<svg width="70" height="26" viewBox="0 0 70 26" fill="none" xmlns="http://www.w3.org/2000/svg">
<g clip-path="url(#clip0_132_617)">
<path d="M62.2189 22.8381C60.2272 27.0497 53.8656 26.9296 51.7537 22.8381L19.5854 22.8038C17.0528 27.4529 10.0817 26.8096 8.51919 21.7402C6.81934 20.9939 4.50137 20.6594 2.87879 19.8703C2.07179 19.4757 0.895634 17.8802 0.775443 16.9882C0.595156 15.59 0.569401 10.5292 0.801198 9.19111C0.929975 8.4277 1.43649 7.853 1.96877 7.33834C2.10613 7.20968 2.38085 7.14106 2.40661 7.09817C2.50963 6.96093 2.20057 6.42054 2.30359 6.02597C2.44095 5.49415 2.98181 5.1682 3.51409 5.19394C5.1195 5.27114 7.13699 6.19752 8.8025 6.18894C12.1936 4.85941 15.4903 3.23824 18.8814 1.92586C19.9974 1.49698 21.0534 1.02521 22.2639 0.939436C26.8913 0.587753 31.9393 1.21392 36.6182 0.939436C41.5374 2.02879 45.6583 5.82868 50.1139 8.11891L55.7801 8.63356C58.9051 9.13107 62.2447 9.60284 65.2494 10.6407C69.5248 12.1247 69.9884 15.7959 69.5935 19.8703C69.2243 23.6787 64.906 22.658 62.2189 22.8295V22.8381Z" fill="#C5AECB"/>
<path d="M62.2189 22.8381C60.2272 27.0497 53.8656 26.9296 51.7537 22.8381L19.5854 22.8038C17.0528 27.4529 10.0817 26.8096 8.51919 21.7402C6.81934 20.9939 4.50137 20.6594 2.87879 19.8703C2.07179 19.4757 0.895634 17.8802 0.775443 16.9882C0.595156 15.59 0.569401 10.5292 0.801198 9.19111C0.929975 8.4277 1.43649 7.853 1.96877 7.33834C2.10613 7.20968 2.38085 7.14106 2.40661 7.09817C2.50963 6.96093 2.20057 6.42054 2.30359 6.02597C2.44095 5.49415 2.98181 5.1682 3.51409 5.19394C5.1195 5.27114 7.13699 6.19752 8.8025 6.18894C12.1936 4.85941 15.4903 3.23824 18.8814 1.92586C19.9974 1.49698 21.0534 1.02521 22.2639 0.939436C26.8913 0.587753 31.9393 1.21392 36.6182 0.939436C41.5374 2.02879 45.6583 5.82868 50.1139 8.11891L55.7801 8.63356C58.9051 9.13107 62.2447 9.60284 65.2494 10.6407C69.5248 12.1247 69.9884 15.7959 69.5935 19.8703C69.2243 23.6787 64.906 22.658 62.2189 22.8295V22.8381ZM68.0911 14.6722H65.9019C65.6959 14.6722 64.7258 14.3977 64.4854 14.2776C63.4122 13.7716 62.528 12.4077 62.6567 11.2069C60.562 10.8294 58.5016 10.289 56.381 10.0146C54.2519 9.74008 52.1057 9.7315 49.9766 9.47417C45.5467 7.28688 41.5288 3.65854 36.7813 2.30328C32.0423 2.56061 26.9771 1.97733 22.2811 2.30328C21.6801 2.34617 21.2337 2.45768 20.6585 2.64638C16.778 3.91587 12.8547 6.19752 8.96562 7.56136L3.94334 6.68644C5.09374 8.0846 3.29087 7.89589 2.65558 8.48775C2.40661 8.71934 2.34651 9.06245 2.13189 9.31977C3.07625 9.34551 3.98627 9.58568 4.09787 10.675C4.26957 12.2705 4.21806 14.1232 2.13189 13.9174L2.20057 16.0361L8.54495 17.5371C8.87118 17.4857 9.36911 16.4564 9.67818 16.0961C12.9834 12.1933 19.5854 14.1147 20.2808 19.1583L20.9418 19.3213L50.9381 19.347C51.1356 19.3041 51.3073 18.1204 51.4103 17.8374C53.548 12.0646 62.4507 13.154 62.9572 19.347L68.2371 19.2012L68.0825 14.6808L68.0911 14.6722ZM2.74143 10.7522H2.14047V12.5621H2.74143V10.7522ZM67.0351 13.3169C66.3655 12.3048 65.0949 12.0046 64.0218 11.6615C64.1849 13.1711 65.7474 13.4799 67.0351 13.3169ZM13.5672 15.3155C9.97007 15.813 8.32173 20.0418 10.5882 22.8896C12.9491 25.8489 17.6108 25.0082 18.744 21.3885C19.8086 17.9918 17.0785 14.8266 13.5672 15.3155ZM56.278 15.3155C50.5689 16.1047 51.1184 25.4028 57.8834 24.6137C63.4895 23.9532 62.7684 14.4235 56.278 15.3155ZM8.1672 20.2562C8.1672 19.896 8.53636 19.0382 8.1672 18.8152L2.42378 17.5457C2.63841 18.0604 3.05908 18.4807 3.52267 18.7809L8.15862 20.2562H8.1672ZM20.0919 21.4571H51.1785L50.9381 20.6937L20.461 20.5479L20.2464 20.565L20.0919 21.4657V21.4571ZM68.0911 20.5565H63.189C62.88 20.7709 62.9572 21.1226 62.9658 21.4571H66.9665C67.2584 21.4571 67.9709 20.8653 68.0997 20.5565H68.0911Z" fill="#46194F"/>
<path d="M22.0223 3.55469L37.0119 3.58042C39.9737 4.40387 42.4291 6.57401 45.142 7.97216C46.155 8.70984 45.8717 10.0136 44.7385 10.4254L20.1593 10.4597C18.5625 10.2281 17.5495 10.0908 16.3132 9.02721C15.4547 8.28954 14.0811 6.92569 15.6093 6.05078C16.5536 5.51039 18.5625 4.76413 19.6442 4.35241C20.4255 4.05219 21.1981 3.73482 22.0223 3.55469ZM31.4144 4.86706H22.7349C21.9966 6.17944 21.6875 7.73199 21.0007 9.08725H31.4144V4.86706ZM36.9174 4.86706C35.6211 4.68693 33.9556 5.00431 32.6163 4.86706V9.08725H44.2405L38.6087 5.59616C38.1709 5.37314 37.3724 4.93568 36.926 4.86706H36.9174ZM21.1466 5.17586L16.3218 7.20875C17.2318 8.27238 18.1934 8.97575 19.6528 9.02721L21.1552 5.16728L21.1466 5.17586Z" fill="#46194F"/>
<path d="M11.8404 22.46C11.0935 21.7137 10.793 20.6158 10.8875 19.5693C11.1965 16.0439 16.3132 15.4778 17.4465 18.7459C18.7085 22.3742 14.2957 24.9132 11.8404 22.46Z" fill="#46194F"/>
<path d="M56.1223 16.6703C59.1357 16.1642 61.3764 18.6774 60.0715 21.5166C58.6807 24.536 53.9675 23.764 53.6155 20.3158C53.461 18.789 54.5427 16.9362 56.1309 16.6703H56.1223Z" fill="#46194F"/>
</g>
<defs>
<clipPath id="clip0_132_617">
<rect width="69.067" height="25.1153" fill="white" transform="translate(0.645508 0.835938)"/>
</clipPath>
</defs>
</svg>
