<svg width="10" height="12" viewBox="0 0 10 12" fill="none" xmlns="http://www.w3.org/2000/svg">
<path fill-rule="evenodd" clip-rule="evenodd" d="M0.856116 6.7741L3.38377 6.22738V1.62115C3.6032 1.29398 4.08425 0.932371 4.40074 0.730042V5.99922L5.62025 5.74524V2.15926C5.82702 1.86223 6.3334 1.47909 6.64144 1.28968V5.52138L9.51934 4.90578C9.532 5.37071 9.4476 5.78828 9.21551 6.13268L6.64144 6.67509V7.84602L9.54044 7.23903C9.55309 7.70396 9.4687 8.12153 9.23661 8.46592L5.62447 9.22358V6.89895L4.40074 7.14432V8.67686C4.21929 9.11596 3.85638 9.55506 3.61164 9.88654C3.54412 9.97694 3.55256 10.0114 3.44284 10.0372L0.00371912 10.7776C-0.0173798 10.4591 0.045917 10.0372 0.332862 9.55937L3.37955 8.91363V7.3854L0.522753 7.99669C0.501654 7.67813 0.564951 7.25625 0.851896 6.77841L0.856116 6.7741ZM5.9705 10.2998L9.54466 9.56367C9.55731 10.0286 9.41806 10.4419 9.24083 10.7906L5.62447 11.5482C5.64135 11.1694 5.75107 10.7561 5.97472 10.2955L5.9705 10.2998Z" fill="#46194F"/>
</svg>
