<svg width="18" height="17" viewBox="0 0 18 17" fill="none" xmlns="http://www.w3.org/2000/svg">
<path d="M10.7049 0L11.4941 0.105051C14.1178 0.58028 16.2641 2.60626 16.8522 5.19251L17.0331 6.29804C17.018 6.58818 17.0532 6.88833 17.0331 7.17347C16.7366 11.7607 11.9364 14.7821 7.6489 12.9262C7.42272 12.8262 7.04071 12.5711 6.85474 12.511C6.73913 12.476 6.61347 12.486 6.52802 12.5761C5.34683 13.6516 4.27622 14.9522 3.09 16.0027C1.42627 17.4734 -0.443533 15.9627 0.707503 14.1518L4.46722 10.36C4.4823 10.28 4.4823 10.1999 4.45717 10.1199C4.40188 9.9348 4.1405 9.55962 4.03998 9.32951C2.18023 5.07245 5.21615 0.295143 9.82532 0H10.7049ZM10.1772 1.76085C6.2566 1.83088 3.93442 6.18299 6.07063 9.46457C7.99572 12.421 12.3938 12.471 14.3842 9.55462C16.6612 6.22301 14.2234 1.69082 10.1772 1.76085Z" fill="#46194F"/>
<path d="M10.2728 2.70632C10.8206 2.6713 11.9365 2.79136 12.3989 3.10651C12.791 3.37164 12.806 3.95192 12.4341 4.24206C12.027 4.56222 11.6701 4.27708 11.2529 4.18203C10.1119 3.92191 8.86035 4.34211 8.16672 5.28757C7.9154 5.62773 7.7445 6.26804 7.29213 6.33307C6.70405 6.42312 6.32204 5.94288 6.50299 5.38261C6.9805 3.9019 8.76988 2.80637 10.2728 2.70632Z" fill="#46194F"/>
</svg>
