<svg width="22" height="21" viewBox="0 0 22 21" fill="none" xmlns="http://www.w3.org/2000/svg">
<path d="M13.1648 0L14.1634 0.132929C17.4834 0.734276 20.1993 3.29791 20.9434 6.5705L21.1724 7.96942C21.1533 8.33656 21.1978 8.71636 21.1724 9.07716C20.7971 14.8817 14.7231 18.705 9.29778 16.3566C9.01157 16.23 8.52819 15.9072 8.29286 15.8312C8.14657 15.7869 7.98757 15.7996 7.87944 15.9135C6.38478 17.2745 5.03005 18.9203 3.52903 20.2495C1.42378 22.1106 -0.942231 20.1989 0.514267 17.9075L5.27174 13.1093C5.29082 13.0081 5.29082 12.9068 5.25902 12.8055C5.18906 12.5713 4.85832 12.0966 4.73112 11.8054C2.37782 6.41858 6.21942 0.373468 12.0518 0H13.1648ZM12.497 2.22815C7.53599 2.31677 4.59755 7.82383 7.30066 11.9763C9.73664 15.7173 15.3019 15.7806 17.8205 12.0902C20.7017 7.87447 17.617 2.13953 12.497 2.22815Z" fill="#46194F"/>
</svg>
