<svg width="24" height="24" viewBox="0 0 24 24" fill="none" xmlns="http://www.w3.org/2000/svg">
<path d="M20.0495 3.85205V4.6721H21.0859C22.1266 4.6721 23.2561 5.9357 23.2777 6.96129L23.9073 15.681C23.9766 16.6309 23.5633 17.4509 22.8471 18.0438C23.427 18.4051 23.8511 19.0369 23.9052 19.7315C23.9485 20.2962 23.5438 21.9622 23.3621 22.5594C23.1133 23.3838 22.5421 23.8879 21.6679 23.9485C19.3311 24.1108 16.8018 23.8273 14.4433 23.9399C13.7942 23.862 13.2057 23.4249 12.9677 22.8147C12.7578 22.2803 12.2948 20.2096 12.3424 19.6817C12.4051 19.0109 12.8443 18.3943 13.4004 18.0438C12.6583 17.4206 12.3207 16.7066 12.338 15.7286C12.3921 12.8357 12.9049 9.8282 12.972 6.91802C13.0023 5.90757 14.1361 4.6721 15.1595 4.6721H16.1959V3.85205C15.2374 3.72007 14.8761 2.89353 15.1465 2.00858C15.3953 1.19719 15.7935 0.167271 16.7541 0.0504309C17.3795 -0.0252987 18.708 -0.00582538 19.3528 0.0439398C19.7098 0.0699042 20.136 0.243 20.387 0.504808C20.625 0.753634 21.1486 1.99993 21.1941 2.34828C21.2893 3.07529 20.7959 3.80662 20.0495 3.85422V3.85205ZM16.8082 0.8272C16.6373 0.857491 16.4469 0.995968 16.3474 1.13661C16.2262 1.30971 15.8021 2.38506 15.8064 2.57331C15.8151 2.90868 16.0985 3.10125 16.4101 3.13154C17.5093 3.2354 18.7642 3.05148 19.8807 3.13154C20.4757 2.99956 20.4887 2.66418 20.3264 2.15571C20.1555 1.62128 19.9391 0.876965 19.3052 0.816381C18.814 0.770943 17.2561 0.747143 16.8082 0.829363V0.8272ZM19.277 3.89966H16.964V4.66993H19.277V3.89966ZM21.0599 9.29809L21.4018 5.56354L20.8933 5.44021C19.0974 5.53758 17.1782 5.31688 15.3953 5.44021C15.2872 5.4467 14.8285 5.48998 14.8111 5.60898L15.1811 9.29809H21.0599ZM14.1209 6.16505C14.0106 6.13692 14.0409 6.18669 14.0106 6.22564C13.8591 6.4182 13.7682 6.7644 13.7358 7.00889L13.1061 16.0207C13.1754 16.8732 13.7834 17.624 14.6489 17.73C14.6662 14.7138 14.6078 11.6998 14.3589 8.69658C14.2897 7.85274 14.1577 7.01322 14.1188 6.16721L14.1209 6.16505ZM22.2153 6.16505L22.1201 6.18885C22.1158 6.67568 22.0228 7.15386 21.9752 7.6342C21.7739 9.7027 21.6917 11.7734 21.6398 13.8527C21.6376 13.9674 21.59 14.0712 21.5879 14.1859V17.73C22.4425 17.6262 23.0397 16.9013 23.1306 16.0661L22.5053 7.00889C22.4771 6.69299 22.3603 6.43984 22.2153 6.16505ZM21.0123 10.0684H15.2309L15.3759 13.5368H20.8695L21.0145 10.0684H21.0123ZM20.8197 14.3092H15.4235V15.9233C15.6182 16.0964 15.867 16.1916 16.1223 16.2371C17.3924 16.1614 18.7729 16.3366 20.0278 16.2371C20.3264 16.2133 20.5969 16.1202 20.8219 15.9212V14.3071L20.8197 14.3092ZM20.8197 16.8624C20.5644 16.9122 20.3416 16.99 20.0754 17.0095C19.0087 17.0853 17.1782 17.0982 16.1202 17.0095C15.88 16.99 15.6615 16.8862 15.4235 16.8624V17.7776H20.8197V16.8624ZM14.2551 18.5609C13.7791 18.6583 13.3939 18.9374 13.2165 19.4004C13.3398 19.7661 13.818 20.0517 14.1923 20.0906H22.0466C22.4555 20.0279 22.8385 19.805 23.0246 19.4329C22.8882 18.9201 22.4036 18.6236 21.9016 18.5501L14.2529 18.5631L14.2551 18.5609ZM22.9878 20.5731C22.687 20.7419 22.3495 20.8393 22.0033 20.8652C19.4761 21.0427 16.7433 20.7268 14.1923 20.8652C13.8764 20.8241 13.5475 20.7549 13.2792 20.5753C13.2425 20.5645 13.2554 20.6121 13.2533 20.6489C13.2468 20.8587 13.5973 22.3539 13.6947 22.5702C13.8267 22.8688 14.1058 23.0614 14.4087 23.1566L21.6658 23.1804C22.0444 23.1458 22.3971 22.9208 22.5507 22.5702C22.7043 22.2197 22.9077 21.2049 22.977 20.7809C22.9878 20.7138 22.9943 20.6445 22.9899 20.5775L22.9878 20.5731Z" fill="#46194F"/>
<path d="M7.71423 3.85205V4.6721H8.75064C9.79138 4.6721 10.9208 5.9357 10.9425 6.96129L11.5721 15.681C11.6413 16.6309 11.2281 17.4509 10.5119 18.0438C11.0918 18.4051 11.5159 19.0369 11.5699 19.7315C11.6132 20.2962 11.2086 21.9622 11.0269 22.5594C10.778 23.3838 10.2068 23.8879 9.33268 23.9485C6.99588 24.1108 4.46651 23.8273 2.10808 23.9399C1.45897 23.862 0.870441 23.4249 0.632433 22.8147C0.426882 22.289 -0.031823 20.2507 0.00712363 19.7315C0.0612162 19.0261 0.485302 18.4203 1.06517 18.0438C0.32086 17.4401 -0.0166771 16.6893 0.000632527 15.7286C0.0547251 12.8357 0.567522 9.8282 0.634597 6.91802C0.664889 5.90757 1.79867 4.6721 2.8221 4.6721H3.85851V3.85205C2.89999 3.72007 2.53865 2.89353 2.80912 2.00858C3.05794 1.19719 3.45606 0.167271 4.41891 0.0504309C5.04422 -0.0252987 6.37273 -0.00582538 7.01752 0.0439398C7.37453 0.0699042 7.80078 0.243 8.05177 0.504808C8.30276 0.766616 8.81339 1.99993 8.85883 2.34828C8.95403 3.07529 8.46071 3.80662 7.71423 3.85422V3.85205ZM4.473 0.8272C4.30207 0.857491 4.11167 0.995968 4.01214 1.13661C3.89097 1.30971 3.46688 2.38506 3.47121 2.57331C3.47987 2.90868 3.76331 3.10125 4.07488 3.13154C5.17404 3.2354 6.42899 3.05148 7.54546 3.13154C8.14048 2.99956 8.15346 2.66418 7.99118 2.15571C7.82025 1.62128 7.60388 0.876965 6.96991 0.816381C6.47875 0.770943 4.92089 0.747143 4.473 0.829363V0.8272ZM6.94179 3.89966H4.62879V4.66993H6.94179V3.89966ZM8.72468 9.29809L9.06654 5.56354L8.55807 5.44021C6.7622 5.53758 4.843 5.31688 3.06011 5.44021C2.95192 5.4467 2.49322 5.48998 2.47591 5.60898L2.8459 9.29809H8.72468ZM1.78569 6.16505C1.67534 6.13692 1.70563 6.18669 1.67534 6.22564C1.52388 6.4182 1.433 6.7644 1.40055 7.00889L0.77091 16.0207C0.840149 16.8732 1.44815 17.624 2.31363 17.73C2.33094 14.7138 2.27252 11.6998 2.02369 8.69658C1.95446 7.85274 1.82247 7.01322 1.78352 6.16721L1.78569 6.16505ZM9.88009 6.16505L9.78489 6.18885C9.78056 6.67568 9.68752 7.15386 9.63992 7.6342C9.4387 9.7027 9.35648 11.7734 9.30455 13.8527C9.30239 13.9674 9.25478 14.0712 9.25262 14.1859V17.73C10.1073 17.6262 10.7045 16.9013 10.7953 16.0661L10.17 7.00889C10.1419 6.69299 10.0251 6.43984 9.88009 6.16505ZM8.67708 10.0684H2.89567L3.04063 13.5368H8.53427L8.67924 10.0684H8.67708ZM8.48451 14.3092H3.08823V15.9233C3.28297 16.0964 3.53179 16.1916 3.78711 16.2371C5.0572 16.1614 6.43764 16.3366 7.69259 16.2371C7.99118 16.2133 8.26165 16.1202 8.48667 15.9212V14.3071L8.48451 14.3092ZM8.48451 16.8624C8.22919 16.9122 8.00633 16.99 7.74019 17.0095C6.67349 17.0853 4.843 17.0982 3.78495 17.0095C3.54478 16.99 3.32624 16.8862 3.08823 16.8624V17.7776H8.48451V16.8624ZM1.91984 18.5609C1.44382 18.6583 1.05868 18.9374 0.881259 19.4004C1.00459 19.7661 1.48277 20.0517 1.85709 20.0906H9.71133C10.1203 20.0279 10.5032 19.805 10.6893 19.4329C10.553 18.9201 10.0683 18.6236 9.56636 18.5501L1.91767 18.5631L1.91984 18.5609ZM10.6525 20.5731C10.3518 20.7419 10.0142 20.8393 9.66805 20.8652C7.14085 21.0427 4.40809 20.7268 1.85709 20.8652C1.54119 20.8241 1.21231 20.7549 0.944007 20.5753C0.907224 20.5645 0.920206 20.6121 0.918042 20.6489C0.911551 20.8587 1.26207 22.3539 1.35944 22.5702C1.49142 22.8688 1.77054 23.0614 2.07346 23.1566L9.33051 23.1804C9.70916 23.1458 10.0618 22.9208 10.2155 22.5702C10.3691 22.2197 10.5725 21.2049 10.6417 20.7809C10.6525 20.7138 10.659 20.6445 10.6547 20.5775L10.6525 20.5731Z" fill="#46194F"/>
</svg>
