<svg width="22" height="23" viewBox="0 0 22 23" fill="none" xmlns="http://www.w3.org/2000/svg">
<g clip-path="url(#clip0_462_1458)">
<path d="M11.9893 0C13.1349 0.217825 14.0097 1.13473 14.1371 2.35887L14.1394 20.5961C14.0349 21.8449 13.1051 22.841 11.9198 22.9922L2.34183 22.9994C1.08195 22.907 0.0883926 21.8689 0 20.5511L0.00286989 2.35887C0.0918365 1.21874 1.05784 0.136815 2.15012 0H11.9893ZM2.35446 1.44916C1.78105 1.54817 1.42461 1.97962 1.37525 2.58149V20.4167C1.4292 21.0738 1.8396 21.5052 2.47097 21.5622H11.6684C12.2969 21.5058 12.7096 21.0768 12.7641 20.4167V2.58089C12.7119 1.94422 12.3193 1.51157 11.7097 1.43776L2.35503 1.44916H2.35446Z" fill="#46194F"/>
<path d="M21.9998 12.0829C21.9033 13.3304 21.1646 15.0886 20.2658 15.9299C19.6861 16.473 18.8641 15.9389 19.1109 15.1492C19.379 14.7562 19.7142 14.4279 19.9553 14.0109C20.8989 12.3775 20.8294 10.3145 19.8003 8.74469C19.6482 8.51246 19.1259 7.976 19.088 7.78278C18.933 6.99909 19.7113 6.54904 20.2658 7.0675C21.1669 7.9106 21.9028 9.66399 21.9998 10.9145V12.0823V12.0829Z" fill="#46194F"/>
<path d="M17.7347 8.81477C18.2731 8.71996 18.5888 9.18082 18.8471 9.60626C19.6409 10.9138 19.5227 12.8928 18.4138 13.9712C17.7749 14.5922 16.8761 13.8415 17.3071 13.0843C17.3754 12.9642 17.481 12.9018 17.5488 12.798C18.1118 11.9357 18.1331 11.0986 17.5666 10.2267C17.4908 10.1097 17.3783 10.0389 17.3071 9.9141C17.0655 9.49045 17.2589 8.89878 17.7342 8.81537L17.7347 8.81477Z" fill="#46194F"/>
<path d="M15.8445 10.6112C17.0195 10.4144 17.2158 12.2794 16.0868 12.3922C14.9773 12.5032 14.8039 10.7852 15.8445 10.6112Z" fill="#46194F"/>
<path d="M7.03926 10.4341C10.773 10.1803 13.2652 14.4558 11.3625 17.8288C9.45973 21.2017 5.0642 21.0205 3.27569 17.8012C1.51989 14.64 3.57071 10.67 7.03926 10.4341ZM7.3274 11.8833C2.84406 11.8833 3.03175 19.1273 7.62988 18.7769C11.6793 18.4684 11.5616 11.8833 7.3274 11.8833Z" fill="#46194F"/>
<path d="M6.86627 2.79775C10.0909 2.3927 11.3726 6.69699 8.75179 8.27277C6.52877 9.60912 3.92578 7.46148 4.61054 4.88658C4.8826 3.86227 5.84172 2.92676 6.86627 2.79775ZM7.08036 4.23431C5.3062 4.48814 5.60926 7.44287 7.4942 7.22745C9.37915 7.01202 9.10995 3.94388 7.08036 4.23431Z" fill="#46194F"/>
</g>
<defs>
<clipPath id="clip0_462_1458">
<rect width="22" height="23" fill="white"/>
</clipPath>
</defs>
</svg>
