<svg width="20" height="24" viewBox="0 0 20 24" fill="none" xmlns="http://www.w3.org/2000/svg">
<path d="M13.2035 0C13.9308 0.188329 14.5041 0.606327 14.6798 1.254C14.4392 2.67336 15.5667 5.55802 13.2062 5.98061C12.6654 6.07707 12.4383 5.9117 12.2355 6.4698L11.4865 9.37283L8.54468 9.37972C8.19047 8.45645 8.10124 7.38848 7.76596 6.4698C7.53883 5.84739 7.1684 6.09085 6.57895 5.93008C5.9895 5.76931 5.39465 5.24107 5.31353 4.70823C5.1513 3.66324 5.41358 2.33115 5.32164 1.254C5.49469 0.599437 6.07332 0.20211 6.79797 0H13.2008H13.2035Z" fill="#46194F"/>
<path d="M6.41675 11.9994C6.15177 12.3806 5.90571 12.7688 5.7597 13.1982C5.2027 14.8335 4.93231 16.6502 4.4375 18.3107C4.33475 22.3116 9.75605 20.8761 12.7384 21.1425C14.7501 20.9703 15.8209 19.668 15.5072 17.9892C15.2395 16.5698 14.7285 14.6612 14.2715 13.2717C14.1201 12.8124 13.8822 12.4013 13.5902 11.9971H16.1562C16.3157 11.9971 17.0322 12.2015 17.2134 12.2704C18.5004 12.7481 19.3467 13.8896 19.4414 15.0655C19.6063 17.0935 19.3711 19.3442 19.3684 21.3837C19.0466 22.7984 17.6433 23.8871 15.9371 23.9996H3.95891C2.11216 23.8113 0.706133 22.5481 0.565531 20.9726C0.381666 18.9423 0.643944 16.6525 0.635832 14.6107C0.768323 13.4601 2.48529 11.9971 3.84805 11.9971H6.41404L6.41675 11.9994Z" fill="#46194F"/>
<path d="M7.76071 15.1238C8.88824 16.0815 10.8026 16.1504 12.0193 15.2823C12.3276 15.0618 12.5439 14.7747 12.817 14.5312L13.8039 18.3576C13.9391 18.9731 13.493 19.5863 12.7359 19.6437C10.981 19.7769 8.99639 19.5404 7.21453 19.6437C6.51152 19.5472 6.0843 19.0006 6.19516 18.4012L7.18749 14.5335C7.41462 14.6897 7.55251 14.9515 7.75801 15.1261L7.76071 15.1238Z" fill="#46194F"/>
<path d="M11.4382 10.8745V13.3366C11.4382 13.3986 11.2624 13.7706 11.2083 13.8441C10.654 14.5791 9.34806 14.5837 8.79917 13.8441C8.74509 13.7684 8.56934 13.3986 8.56934 13.3366V10.8745H11.4382Z" fill="#46194F"/>
<path d="M4.4291 1.73438V4.26534C3.30699 4.31128 2.08753 3.65212 2.54179 2.59105C2.84192 1.88826 3.65579 1.78031 4.4291 1.73438Z" fill="#46194F"/>
</svg>
