<svg width="24" height="14" viewBox="0 0 24 14" fill="none" xmlns="http://www.w3.org/2000/svg">
<path d="M17.812 3.69807C18.8934 4.71336 20.0383 4.17135 21.2994 4.63669C25.3659 6.13319 24.1576 12.2064 19.8664 12.1007C18.9674 14.0017 16.5561 14.2132 15.2632 12.5739C15.1125 12.3836 15.1072 12.0478 14.8455 12.0002L8.4708 11.9949C8.13237 11.9896 8.12443 12.3889 7.93671 12.6189C6.95315 13.8351 5.18696 14.0678 4.01039 12.9891C3.78829 12.7855 3.43928 12.1536 3.38905 12.1218C3.27271 12.0504 2.60378 12.0689 2.29444 11.9764C-0.30725 11.1911 0.0602643 6.73602 1.89784 5.25538C2.13844 5.06237 2.84174 4.74774 2.92899 4.6314C3.06648 4.44896 3.1881 3.51564 3.3018 3.18514C3.85968 1.56966 5.29536 0.538503 6.98223 0.411591C8.45758 0.300544 12.9365 0.223867 14.2268 0.535858C16.2521 1.025 16.5482 2.50828 17.812 3.69543V3.69807ZM20.0277 10.4165C21.9155 10.4376 22.8541 8.14262 21.5876 6.74659C20.723 5.79211 19.6707 6.18078 18.592 5.93753C16.0247 5.36114 15.6069 2.32584 13.5129 2.07995C11.5087 1.84728 9.11329 2.23859 7.06419 2.06937C6.17846 2.14605 5.3456 2.6299 4.96751 3.44689C4.66874 4.09731 4.69782 5.11525 4.41227 5.6229C4.07648 6.21779 2.84174 6.16756 2.34996 7.28332C2.01153 8.05537 1.77886 10.6359 3.20926 10.4165C3.92578 7.75924 7.59828 7.67728 8.35975 10.3318L14.8296 10.3477C15.7074 7.71429 19.2477 7.71958 20.025 10.4165H20.0277ZM6.81037 11.0272C6.81037 10.4746 6.36089 10.0251 5.8083 10.0251C5.2557 10.0251 4.80623 10.4746 4.80623 11.0272C4.80623 11.5798 5.2557 12.0293 5.8083 12.0293C6.36089 12.0293 6.81037 11.5798 6.81037 11.0272ZM18.4413 11.0272C18.4413 10.4746 17.9918 10.0251 17.4392 10.0251C16.8866 10.0251 16.4371 10.4746 16.4371 11.0272C16.4371 11.5798 16.8866 12.0293 17.4392 12.0293C17.9918 12.0293 18.4413 11.5798 18.4413 11.0272Z" fill="#46194F"/>
</svg>
