<svg width="40" height="29" viewBox="0 0 40 29" fill="none" xmlns="http://www.w3.org/2000/svg">
<path d="M34.3652 8.64202L34.8814 7.28239C35.1046 7.01919 37.1346 7.0376 37.5489 7.07306C39.5967 7.24966 39.6638 9.93347 37.4695 10.2008C37.0052 10.2574 36.4397 10.2226 35.9693 10.2737C35.8872 10.2826 35.7619 10.2887 35.7345 10.3828C35.6695 10.6072 36.8594 11.7779 37.0614 12.0541C37.731 12.9684 37.9919 13.9565 38.0583 15.0802C38.2842 18.9068 37.8912 22.9461 38.0583 26.7952C37.9788 27.7048 37.3038 28.3847 36.3863 28.4685C35.6927 28.5319 33.4943 28.5415 32.9089 28.3151C31.8791 27.9169 32.0373 27.055 31.8394 26.1788H7.07011L7.01534 26.2613C7.10503 27.1355 6.77913 28.1105 5.85893 28.3799C5.34269 28.5313 3.04631 28.536 2.46297 28.4603C1.68587 28.3594 1.05461 27.7157 0.9834 26.9364C0.74445 24.3201 1.16552 21.3424 0.989562 18.6879C0.927941 16.2659 0.535626 13.7574 2.15145 11.7452C2.27195 11.5952 3.48313 10.4305 3.31196 10.2792C2.26305 10.1087 1.02311 10.466 0.302153 9.49571C-0.323635 8.65361 0.0666269 7.45149 1.06761 7.12488C1.66259 6.93123 2.77792 6.99533 3.41329 7.07851C3.57351 7.09965 3.86381 7.13102 3.99869 7.1767C4.30542 7.28171 4.48549 8.237 4.6635 8.55747C4.70663 8.63452 4.65871 8.67339 4.81481 8.64407C5.60424 7.07306 6.20538 5.40181 6.99275 3.83012C8.07247 1.67408 8.80781 0.721515 11.3493 0.403086C14.7809 -0.0298967 18.5691 -0.0592168 22.0171 0.0614727C23.9554 0.128977 28.0176 0.113976 29.6608 0.896072C32.0065 2.0116 32.8561 6.29369 34.079 8.41701C34.1392 8.52202 34.2145 8.66316 34.3652 8.64134V8.64202ZM16.4309 2.05456C14.6501 2.25707 12.7084 2.17729 10.9467 2.4514C9.87521 2.61777 9.6164 3.01325 9.11454 3.89626C8.16422 5.56887 7.57129 7.534 6.69628 9.25502C6.54429 9.87483 7.1331 9.88847 7.58978 9.87142C15.471 9.57208 23.0996 9.63822 30.9822 9.79778C31.393 9.80596 32.381 10.1039 32.2858 9.3232C32.2064 8.66862 31.2164 6.58757 30.8884 5.87162C30.3434 4.68245 29.6676 2.67573 28.2353 2.45072C26.3203 2.14933 24.1643 2.26661 22.226 2.03205L16.4295 2.05524L16.4309 2.05456ZM3.43315 13.0134C3.09698 13.0516 2.87103 13.4014 2.83132 13.7151C2.76286 14.2647 2.75396 15.0747 2.83749 15.6202C2.94977 16.3539 4.30131 16.4712 4.92025 16.5434C5.887 16.6559 7.08928 16.7275 8.06357 16.7514C8.45452 16.761 8.96186 16.7323 9.18437 16.3634C9.33432 16.1152 9.48837 15.0454 9.4733 14.7379C9.44181 14.0778 8.7722 14.011 8.25117 13.9074C7.03588 13.666 5.83155 13.4062 4.62584 13.1587C4.36498 13.1048 3.6632 12.9882 3.43315 13.0141V13.0134ZM35.3778 13.0196C34.6014 13.0182 33.8017 13.3626 33.067 13.5132C32.2886 13.6728 31.5019 13.758 30.7255 13.906C30.2866 13.9892 29.4773 14.1003 29.4438 14.6745C29.4307 14.9015 29.5834 15.7777 29.6539 16.0259C29.8641 16.7657 30.3735 16.7678 31.0514 16.7514C32.0441 16.7269 33.2731 16.66 34.2549 16.5359C34.6835 16.4814 35.766 16.3171 35.9981 15.9564C36.1967 15.6482 36.1932 14.1965 36.1385 13.7914C36.0789 13.3557 35.8516 13.0209 35.3778 13.0203V13.0196ZM11.9854 15.8145C10.9433 15.8404 10.6749 16.1023 11.2185 17.0153C11.578 17.6187 12.1853 18.1322 12.9206 18.1813L26.3223 18.1717C26.9872 18.0947 27.5506 17.6365 27.8971 17.0835C28.1107 16.7425 28.453 16.0736 27.8724 15.8936C27.7156 15.8452 27.0933 15.8036 26.8797 15.792C22.0034 15.5343 16.8862 15.9741 11.986 15.8145H11.9854ZM7.17692 24.1053H31.6641L31.7586 23.9451C31.7299 23.645 30.3585 22.3284 30.0504 22.102C29.5047 21.7004 28.983 21.6206 28.3154 21.5817C23.902 21.326 18.9471 21.5988 14.4981 21.656C13.0815 21.6745 11.1138 21.4849 9.78141 21.6588C9.18437 21.7372 8.52367 22.3011 8.09917 22.7082C7.92321 22.8773 7.09819 23.778 7.08175 23.9451L7.17624 24.1053H7.17692Z" fill="#46194F"/>
</svg>
