<svg width="35" height="34" viewBox="0 0 35 34" fill="none" xmlns="http://www.w3.org/2000/svg">
<path d="M21.7699 0L23.3812 0.218675C28.7291 1.19312 33.1026 5.33644 34.3072 10.6384L34.6717 12.9018C34.6448 13.4926 34.7101 14.1103 34.6717 14.6973C34.0694 24.0888 24.2827 30.2769 15.5395 26.4789C15.0753 26.2794 14.3004 25.7461 13.9244 25.631C13.6866 25.5581 13.4295 25.5812 13.2531 25.7653C10.8476 27.9674 8.66471 30.6337 6.2401 32.7859C2.84872 35.7975 -0.964668 32.7015 1.38705 28.9994L9.04835 21.2345C9.07904 21.0734 9.07904 20.9046 9.03301 20.7473C8.91791 20.3713 8.38849 19.5964 8.18516 19.1322C4.39095 10.389 10.5791 0.602316 19.9744 0H21.7699ZM20.6918 3.61006C12.6968 3.752 7.96265 12.664 12.3246 19.3892C16.2493 25.443 25.2111 25.5428 29.2739 19.5733C33.9159 12.7522 28.944 3.46427 20.6957 3.61006H20.6918Z" fill="#46194F"/>
<mask id="mask0_15_60" style="mask-type:luminance" maskUnits="userSpaceOnUse" x="10" y="3" width="22" height="21">
<path d="M20.6919 3.61003C12.6968 3.75198 7.96267 12.664 12.3247 19.3892C16.2493 25.443 25.2111 25.5428 29.2739 19.5733C33.9159 12.7522 28.944 3.46425 20.6957 3.61003H20.6919Z" fill="white"/>
</mask>
<g mask="url(#mask0_15_60)">
<path d="M37.5183 10.1012H38.4774C38.5465 9.86331 38.5695 9.59477 38.4697 9.36074C37.948 9.37225 37.3226 9.32622 37.4147 8.63566C37.4915 8.07555 38.3048 8.11391 38.7191 8.22901C39.6015 8.47454 39.7549 9.37609 39.6437 10.1741C39.5324 10.972 38.6846 11.3288 37.9441 11.2981C38.6654 12.0808 39.4288 12.8327 39.7166 13.8954C39.9506 14.7509 39.9621 17.5093 39.8585 18.4338C39.7895 19.04 39.3905 19.4965 38.9148 19.8341C38.9454 20.9927 39.026 22.3969 37.6296 22.7613C37.0272 22.9186 34.9939 22.9071 34.4453 22.6347C34.1077 22.4697 33.5208 21.8022 33.5208 21.4262V20.0682H22.541V21.4262C22.541 21.8022 21.954 22.4697 21.6164 22.6347C21.0678 22.9071 19.0345 22.9186 18.4322 22.7613C17.0357 22.3969 17.1163 20.9927 17.147 19.8341C16.6713 19.4965 16.2723 19.04 16.2032 18.4338C16.0958 17.5093 16.1112 14.7471 16.3452 13.8954C16.6367 12.825 17.3887 12.0846 18.1176 11.2981C17.3772 11.3288 16.5293 11.0027 16.4181 10.1741C16.3107 9.37609 16.4603 8.47837 17.3426 8.22901C17.757 8.11391 18.5741 8.07555 18.647 8.63566C18.7391 9.32238 18.1138 9.36842 17.592 9.36074C17.4923 9.59477 17.5153 9.85948 17.5843 10.1012H18.5434C18.7429 9.32622 18.9654 8.53208 19.2225 7.76864C19.8823 5.8044 20.9297 4.59209 23.1011 4.34273C26.316 4.50002 29.7189 4.14323 32.9146 4.34273C36.2254 4.54989 36.6896 7.33129 37.4991 9.89017C37.5221 9.95922 37.5298 10.0321 37.5221 10.105L37.5183 10.1012ZM38.746 16.6077V14.8737C38.746 13.3122 37.384 12.7982 36.87 11.7393C35.673 9.261 36.2369 5.68547 32.5386 5.46296C29.4235 5.27881 26.0743 5.55887 22.9476 5.52434C20.0435 5.99238 20.1509 9.64464 19.1956 11.793C18.67 12.4836 17.3733 13.6307 17.3733 14.5552V16.6077H20.0665C20.2698 16.6077 20.5729 16.297 20.6151 16.0898C20.6535 15.898 20.6535 15.2918 20.6304 15.0885C20.523 14.1869 19.0882 14.5514 18.4706 14.4785C17.8606 14.4056 17.8069 13.4427 18.5243 13.3583C18.9616 13.3046 20.1662 13.3199 20.5652 13.4504C22.1036 13.9491 22.2341 16.5195 21.0294 17.4095C20.922 17.4901 20.4463 17.7279 20.335 17.7279H17.3772C17.3925 17.9811 17.3311 18.265 17.427 18.5067C17.4654 18.6026 17.7493 18.9019 17.8299 18.9019H23.8799V16.9568C23.8799 16.765 24.1101 16.4658 24.3172 16.4312L31.6371 16.3929C31.8328 16.366 32.1972 16.6883 32.1972 16.8456V18.8981H38.2472C38.2472 18.8981 38.4851 18.7676 38.5158 18.7408C38.6922 18.5758 38.815 18.0387 38.746 17.8162L38.6731 17.7279H35.7421C35.1397 17.7279 34.3916 16.788 34.3303 16.2087C34.2075 15.0962 34.3379 13.834 35.5579 13.4388C35.9339 13.3161 37.1922 13.3084 37.6104 13.3544C38.2702 13.4312 38.2702 14.3979 37.6104 14.4747C37.0349 14.5437 35.9032 14.2522 35.5656 14.8276C35.3814 15.1422 35.3853 16.0131 35.6116 16.3123C35.6653 16.3852 35.9492 16.6039 36.0106 16.6039H38.7575L38.746 16.6077ZM31.0156 17.5668H25.0462V18.8981H31.0156V17.5668ZM21.367 20.072H18.3286V21.2728C18.3286 21.4876 18.7468 21.6564 18.9386 21.6756C19.3759 21.7178 20.431 21.7255 20.8568 21.6679C21.0064 21.6488 21.367 21.4723 21.367 21.3265V20.072ZM37.7331 20.072H34.6947V21.3265C34.6947 21.4646 35.0668 21.6488 35.205 21.6679C35.6154 21.7255 36.6935 21.714 37.1232 21.6756C37.315 21.6564 37.7331 21.4915 37.7331 21.2728V20.072Z" fill="#46194F"/>
<path d="M21.087 10.1167L34.8827 10.1052C35.7267 10.2011 35.5694 11.3328 34.7254 11.2791H21.3402C20.5499 11.3098 20.3274 10.3507 21.087 10.1167Z" fill="#46194F"/>
<path d="M23.1663 13.3661L32.9338 13.3814C33.3788 13.6308 33.3673 14.1832 32.9223 14.4326L23.3121 14.4748C22.7136 14.3712 22.6139 13.6231 23.1663 13.3661Z" fill="#46194F"/>
</g>
</svg>
