<svg width="31" height="34" viewBox="0 0 31 34" fill="none" xmlns="http://www.w3.org/2000/svg">
<path d="M11.4705 9.68173H17.2305C19.0518 9.68173 20.5323 11.1637 20.5323 12.9835C20.5323 14.8032 19.0518 16.2853 17.2305 16.2853V19.7274C20.9487 19.7274 23.9744 16.7016 23.9744 12.9835C23.9744 9.26534 20.9487 6.23962 17.2305 6.23962H8.02844V28.0535H11.4705V9.68173Z" fill="#44194E"/>
<path d="M15.6066 17.4017V15.8425H12.1645V17.4017C12.1645 23.6952 17.2845 28.8167 23.5796 28.8167V25.3746C19.1829 25.3746 15.6066 21.7984 15.6066 17.4017Z" fill="#44194E"/>
<path d="M0.131042 0V34H30.6596V0H0.131042ZM27.2175 30.5579H3.57314V3.4421H27.2175V30.5579Z" fill="#44194E"/>
</svg>
