<svg width="35" height="34" viewBox="0 0 35 34" fill="none" xmlns="http://www.w3.org/2000/svg">
<g clip-path="url(#clip0_15_94)">
<path d="M12.2793 15.858H5.0219C2.64904 15.858 0.720215 13.9291 0.720215 11.5591V4.30169C0.720215 1.92882 2.64904 0 5.0219 0H12.2793C14.6521 0 16.581 1.92882 16.581 4.30169V11.5591C16.581 13.9319 14.6521 15.8607 12.2793 15.8607V15.858ZM5.0219 2.49776C4.02835 2.49776 3.21797 3.30814 3.21797 4.30169V11.5591C3.21797 12.5526 4.02835 13.363 5.0219 13.363H12.2793C13.2728 13.363 14.0832 12.5526 14.0832 11.5591V4.30169C14.0832 3.30814 13.2728 2.49776 12.2793 2.49776H5.0219Z" fill="#46194F"/>
<path d="M30.3603 15.858H23.1029C20.73 15.858 18.8012 13.9291 18.8012 11.5563V4.30169C18.8012 1.92882 20.73 0 23.1029 0H30.3603C32.7331 0 34.662 1.92882 34.662 4.30169V11.5591C34.662 13.9319 32.7331 15.8607 30.3603 15.8607V15.858ZM23.1029 2.49776C22.1093 2.49776 21.299 3.30814 21.299 4.30169V11.5591C21.299 12.5526 22.1093 13.363 23.1029 13.363H30.3603C31.3538 13.363 32.1642 12.5526 32.1642 11.5591V4.30169C32.1642 3.30814 31.3538 2.49776 30.3603 2.49776H23.1029Z" fill="#46194F"/>
<path d="M12.2432 33.9723H4.98583C2.61297 33.9723 0.684143 32.0434 0.684143 29.6706V22.4132C0.684143 20.0403 2.61297 18.1115 4.98583 18.1115H12.2432C14.6161 18.1115 16.5449 20.0403 16.5449 22.4132V29.6706C16.5449 32.0434 14.6161 33.9723 12.2432 33.9723ZM4.98583 20.6093C3.99228 20.6093 3.1819 21.4196 3.1819 22.4132V29.6706C3.1819 30.6641 3.99228 31.4745 4.98583 31.4745H12.2432C13.2368 31.4745 14.0471 30.6641 14.0471 29.6706V22.4132C14.0471 21.4196 13.2368 20.6093 12.2432 20.6093H4.98583Z" fill="#46194F"/>
<path d="M26.7246 34C22.3369 34 18.7651 30.4282 18.7651 26.0405C18.7651 21.6528 22.3369 18.081 26.7246 18.081C31.1124 18.081 34.6842 21.6528 34.6842 26.0405C34.6842 30.4282 31.1124 34 26.7246 34ZM26.7246 20.5787C23.7135 20.5787 21.2629 23.0293 21.2629 26.0405C21.2629 29.0517 23.7135 31.5023 26.7246 31.5023C29.7358 31.5023 32.1864 29.0517 32.1864 26.0405C32.1864 23.0293 29.7358 20.5787 26.7246 20.5787Z" fill="#46194F"/>
</g>
<defs>
<clipPath id="clip0_15_94">
<rect width="34" height="34" fill="white" transform="translate(0.684143)"/>
</clipPath>
</defs>
</svg>
