<svg width="27" height="27" viewBox="0 0 27 27" fill="none" xmlns="http://www.w3.org/2000/svg">
<path d="M19.0241 25.1828H7.92631C5.42087 24.788 4.62795 23.1337 4.73053 20.7219C4.84747 17.9641 5.87836 14.2165 9.2157 14.1869C9.83014 14.1812 10.5333 14.8333 11.0682 15.1351C12.5848 15.9924 14.1809 16.0516 15.7345 15.2344C16.2761 14.9491 17.0592 14.215 17.6511 14.1885C18.3861 14.1552 19.3857 14.5096 19.9796 14.9439C21.8132 16.2854 22.3656 19.7888 22.2199 21.9289C22.0999 23.6928 20.7571 25.027 19.0241 25.1834V25.1828Z" fill="#46194F"/>
<path d="M12.8321 3.9558C17.8501 3.52665 20.4059 9.81329 16.5449 13.0268C13.1008 15.8937 7.9884 13.1359 8.29511 8.65208C8.45923 6.25484 10.4569 4.15947 12.8321 3.9558Z" fill="#46194F"/>
<circle cx="13.3787" cy="13.3787" r="12.3787" stroke="#46194F" stroke-width="2"/>
</svg>
