<svg width="56" height="28" viewBox="0 0 56 28" fill="none" xmlns="http://www.w3.org/2000/svg">
<path d="M50.3283 18.0254C50.2673 17.9698 50.1344 17.9353 50.0503 17.9341L36.8876 17.939C36.7504 17.9655 36.6193 18.0429 36.595 18.1898C36.4718 18.9356 36.8357 20.0816 36.1847 20.6788C35.9153 20.926 35.5167 21.0433 35.1515 21.0251C35.4898 19.8405 35.4045 18.6431 34.7395 17.5926C34.2049 16.7488 33.3661 16.2629 32.5823 15.6784L34.6651 13.9612C34.8187 14.145 35.0205 14.264 35.2424 14.3535C35.8836 14.6116 36.9473 14.6285 37.6135 14.4514C39.4087 13.9733 39.2222 10.9083 37.1588 10.7548C35.9263 10.6629 34.6389 10.811 34.2945 12.1848C33.7368 11.3682 32.9206 11.0195 31.9593 10.8708L32.3866 8.98077C31.9465 8.9723 31.3625 8.7402 31.1321 8.35156C30.9511 8.04693 30.9535 7.41953 30.9852 7.07018C31.0882 5.92842 32.645 6.01122 33.4375 6.35575C33.4362 6.30618 33.4484 6.25843 33.4685 6.2131C34.0988 4.81204 35.0711 1.87031 36.1457 0.913501C37.0759 0.0854385 38.203 0.0503818 39.3758 0.0225782C41.6482 -0.0312156 43.9261 0.0280181 46.1912 0.0642836C48.5368 0.102362 50.2576 -0.37876 51.5547 1.96701C52.3264 3.36324 52.8061 4.9559 53.5333 6.37751C54.1453 6.01908 55.6589 5.88248 55.9289 6.70329C56.0313 7.01397 56.0203 7.92423 55.9216 8.23914C55.7856 8.6719 55.3693 8.77345 54.9694 8.87801C54.8884 8.89917 54.6811 8.8901 54.6659 8.96384C55.1938 10.5299 55.1712 12.1927 55.2078 13.827C55.248 15.621 55.2553 17.5938 55.092 19.3841C55.0341 20.0194 54.8841 20.7102 54.1886 20.9212C53.6772 21.0765 51.7632 21.0947 51.2585 20.946C50.1101 20.6075 50.5581 19.2161 50.4581 18.3421C50.4478 18.2496 50.3959 18.0876 50.3295 18.026L50.3283 18.0254ZM38.1018 1.96399C37.0198 2.13444 36.6925 3.11603 36.3292 3.99063C35.858 5.12453 35.4728 6.29712 35.0113 7.43525C34.9644 7.59663 35.0997 7.86983 35.2661 7.9206L51.5687 7.93995C51.8254 7.92967 52.0509 7.74532 51.957 7.47454C51.3895 6.20041 50.9616 4.82292 50.374 3.56209C50.0485 2.86398 49.6297 1.95916 48.7264 1.95251L38.1024 1.96399H38.1018ZM49.7084 10.7662C47.6852 11.0062 47.5322 13.9497 49.5919 14.4889C51.1475 14.8963 52.8415 14.2048 52.6757 12.397C52.5318 10.8291 51.0043 10.6127 49.7078 10.7662H49.7084Z" fill="#46194F"/>
<path d="M34.2893 13.2977L32.9123 14.3071C32.357 12.6311 29.4597 12.8529 29.937 14.862C30.1815 15.8907 32.2643 16.4311 33.0994 17.0162C34.5313 18.0189 34.9775 19.4683 34.363 21.1112C33.7797 22.6718 32.4228 23.3844 30.7703 23.2623C29.2543 23.1505 28.0669 22.0426 27.4189 20.7533L28.9745 19.8298C29.4134 20.685 29.9852 21.3426 31.0074 21.4448C32.2162 21.5651 33.1116 20.2837 32.6148 19.1957C32.2241 18.3405 30.4533 17.8279 29.6396 17.319C28.2199 16.4311 27.706 15.0107 28.2674 13.409C29.1288 10.9496 32.4246 10.8311 33.943 12.706C34.0119 12.7912 34.3362 13.218 34.2893 13.2984V13.2977Z" fill="#C5AECB"/>
<path d="M6.86717 26.5637C6.78549 27.2473 6.24603 27.7368 5.59015 27.8843C4.88367 28.0427 2.64721 28.0572 1.98888 27.81C0.986163 27.4334 0.958733 26.5322 0.910578 25.6359C0.786838 23.3445 0.705767 20.5774 0.909359 18.303C1.0331 16.917 1.44699 15.5855 1.72738 14.2304C0.992259 14.1717 0.289439 14.0122 0.0797517 13.2185C-0.0269208 12.8142 -0.0573986 11.7975 0.191301 11.453C0.600923 10.8849 1.9834 10.99 2.60515 10.9912C3.41037 9.61738 4.13209 8.19517 4.95316 6.83038C5.77362 5.46679 6.31918 4.53114 8.0936 4.42235C9.01952 4.36553 10.0094 4.39333 10.9366 4.38366C12.8158 4.36432 14.6847 4.42537 16.5622 4.42779L17.2687 6.76087L14.2081 6.78081C12.8616 6.78504 11.4687 6.71554 10.1204 6.74032C8.97685 6.76087 8.2021 6.69196 7.43711 7.66992C6.46364 8.91504 5.70596 10.4563 4.7642 11.7377C4.61303 11.9855 4.76176 12.2605 5.05618 12.2623L17.7289 12.266L21.4734 24.0347H6.86717V26.563V26.5637ZM5.22258 15.5142C2.71609 15.794 2.80325 19.6291 5.17138 19.8285C5.88761 19.889 7.62729 19.8999 8.25635 19.6412C10.0539 18.9007 9.79121 15.9161 7.84917 15.5528C7.27862 15.4459 5.81507 15.4483 5.22258 15.5142Z" fill="#46194F"/>
<path d="M27.873 12.2065L24.1554 24.0019L22.4126 24.023L18.5962 12.2264C18.6584 12.1285 18.6797 12.2071 18.6949 12.2071H20.6144C20.6236 12.2071 20.6364 12.1775 20.6547 12.1763L20.7065 12.2343L23.294 20.7688L25.9334 12.2071H27.873V12.2065Z" fill="#C5AECB"/>
</svg>
