<svg width="354" height="398" viewBox="0 0 354 398" fill="none" xmlns="http://www.w3.org/2000/svg">
<path d="M26.9222 273V262.26H31.0622C32.5122 262.26 33.6272 262.8 34.4072 263.88C35.0872 264.83 35.4272 266.08 35.4272 267.63C35.4272 269.41 34.9872 270.78 34.1072 271.74C33.3372 272.58 32.3222 273 31.0622 273H26.9222ZM28.2872 271.785H30.8222C32.9822 271.785 34.0622 270.4 34.0622 267.63C34.0622 264.86 32.9822 263.475 30.8222 263.475H28.2872V271.785ZM38.442 265.29V273H37.227V265.29H38.442ZM37.857 262.275C38.067 262.275 38.242 262.35 38.382 262.5C38.532 262.64 38.607 262.81 38.607 263.01C38.607 263.22 38.532 263.4 38.382 263.55C38.242 263.69 38.067 263.76 37.857 263.76C37.657 263.76 37.482 263.69 37.332 263.55C37.192 263.4 37.122 263.22 37.122 263.01C37.122 262.81 37.192 262.64 37.332 262.5C37.482 262.35 37.657 262.275 37.857 262.275ZM46.0286 267.405H44.6786C44.6386 266.635 44.1236 266.25 43.1336 266.25C42.6236 266.25 42.2186 266.35 41.9186 266.55C41.6286 266.74 41.4836 267 41.4836 267.33C41.4836 267.83 41.9586 268.19 42.9086 268.41L44.0936 268.68C44.8636 268.86 45.4186 269.115 45.7586 269.445C46.0986 269.775 46.2686 270.225 46.2686 270.795C46.2686 271.525 45.9836 272.105 45.4136 272.535C44.8436 272.955 44.0736 273.165 43.1036 273.165C42.0436 273.165 41.2386 272.915 40.6886 272.415C40.2286 272.005 39.9836 271.46 39.9536 270.78H41.3486C41.4286 271.13 41.5386 271.385 41.6786 271.545C41.9486 271.865 42.4536 272.025 43.1936 272.025C43.7436 272.025 44.1786 271.925 44.4986 271.725C44.8286 271.515 44.9936 271.24 44.9936 270.9C44.9936 270.39 44.5986 270.04 43.8086 269.85L42.6536 269.58C41.7736 269.37 41.1586 269.12 40.8086 268.83C40.4086 268.5 40.2086 268.025 40.2086 267.405C40.2086 266.705 40.4736 266.15 41.0036 265.74C41.5436 265.33 42.2636 265.125 43.1636 265.125C44.1036 265.125 44.8336 265.36 45.3536 265.83C45.8036 266.24 46.0286 266.765 46.0286 267.405ZM53.8167 267.87H52.5867C52.4367 266.79 51.8267 266.25 50.7567 266.25C50.0867 266.25 49.5617 266.515 49.1817 267.045C48.8017 267.575 48.6117 268.31 48.6117 269.25C48.6117 270.18 48.8367 270.89 49.2867 271.38C49.6667 271.81 50.1767 272.025 50.8167 272.025C51.8467 272.025 52.4617 271.465 52.6617 270.345H53.9067C53.8267 271.305 53.4817 272.03 52.8717 272.52C52.3417 272.95 51.6467 273.165 50.7867 273.165C49.6567 273.165 48.7767 272.765 48.1467 271.965C47.6067 271.275 47.3367 270.37 47.3367 269.25C47.3367 267.91 47.6917 266.86 48.4017 266.1C49.0117 265.45 49.8017 265.125 50.7717 265.125C51.8917 265.125 52.7317 265.5 53.2917 266.25C53.5817 266.64 53.7567 267.18 53.8167 267.87ZM58.3049 265.125C59.4649 265.125 60.3499 265.53 60.9599 266.34C61.4999 267.04 61.7699 267.99 61.7699 269.19C61.7699 270.53 61.4199 271.55 60.7199 272.25C60.1199 272.86 59.3099 273.165 58.2899 273.165C57.1099 273.165 56.2099 272.77 55.5899 271.98C55.0499 271.29 54.7799 270.36 54.7799 269.19C54.7799 267.83 55.1349 266.785 55.8449 266.055C56.4549 265.435 57.2749 265.125 58.3049 265.125ZM58.3049 266.25C57.6049 266.25 57.0549 266.515 56.6549 267.045C56.2549 267.565 56.0549 268.28 56.0549 269.19C56.0549 270.14 56.2799 270.865 56.7299 271.365C57.1199 271.805 57.6399 272.025 58.2899 272.025C58.9799 272.025 59.5149 271.775 59.8949 271.275C60.2849 270.775 60.4799 270.08 60.4799 269.19C60.4799 268.21 60.2599 267.46 59.8199 266.94C59.4399 266.48 58.9349 266.25 58.3049 266.25ZM66.6434 273H65.3084L62.5934 265.29H63.9884L66.0284 271.53L68.2184 265.29H69.5984L66.6434 273ZM77.3565 269.505H71.6715C71.6815 270.165 71.8215 270.69 72.0915 271.08C72.5215 271.71 73.1415 272.025 73.9515 272.025C74.9515 272.025 75.6265 271.55 75.9765 270.6H77.2065C77.0465 271.41 76.6765 272.04 76.0965 272.49C75.5165 272.94 74.7865 273.165 73.9065 273.165C72.7365 273.165 71.8415 272.765 71.2215 271.965C70.6715 271.265 70.3965 270.34 70.3965 269.19C70.3965 267.86 70.7565 266.825 71.4765 266.085C72.1065 265.445 72.9215 265.125 73.9215 265.125C74.6515 265.125 75.2915 265.3 75.8415 265.65C76.4015 266 76.8015 266.48 77.0415 267.09C77.2515 267.61 77.3565 268.4 77.3565 269.46V269.505ZM76.0365 268.5C76.0365 267.83 75.8365 267.29 75.4365 266.88C75.0465 266.46 74.5415 266.25 73.9215 266.25C73.2915 266.25 72.7765 266.455 72.3765 266.865C71.9865 267.265 71.7665 267.81 71.7165 268.5H76.0365ZM79.02 265.29H80.16V266.7C80.61 265.64 81.32 265.11 82.29 265.11C82.41 265.11 82.555 265.125 82.725 265.155V266.415C81.925 266.425 81.375 266.54 81.075 266.76C80.525 267.16 80.25 267.905 80.25 268.995V273H79.02V265.29ZM52.147 282.545H50.737C50.587 281.825 50.327 281.3 49.957 280.97C49.477 280.53 48.777 280.31 47.857 280.31C46.737 280.31 45.872 280.75 45.262 281.63C44.732 282.4 44.467 283.41 44.467 284.66C44.467 286.07 44.822 287.165 45.532 287.945C46.162 288.615 46.972 288.95 47.962 288.95C49.172 288.95 50.007 288.505 50.467 287.615C50.677 287.205 50.842 286.66 50.962 285.98H52.372C52.042 288.77 50.577 290.165 47.977 290.165C46.577 290.165 45.472 289.755 44.662 288.935C43.622 287.885 43.102 286.475 43.102 284.705C43.102 282.985 43.602 281.57 44.602 280.46C45.422 279.55 46.552 279.095 47.992 279.095C50.332 279.095 51.717 280.245 52.147 282.545ZM60.9067 288.965V289.955C60.5667 290.075 60.3017 290.135 60.1117 290.135C59.3117 290.135 58.8767 289.77 58.8067 289.04C58.2567 289.79 57.3817 290.165 56.1817 290.165C55.3517 290.165 54.7067 289.935 54.2467 289.475C53.8467 289.075 53.6467 288.56 53.6467 287.93C53.6467 287.21 53.9017 286.655 54.4117 286.265C54.7017 286.045 55.3067 285.83 56.2267 285.62L58.7467 285.05L58.7617 284.405C58.7617 283.635 58.1817 283.25 57.0217 283.25C55.9117 283.25 55.3167 283.7 55.2367 284.6H53.9917C54.0217 283.92 54.1917 283.4 54.5017 283.04C55.0317 282.43 55.8917 282.125 57.0817 282.125C59.0117 282.125 59.9767 282.825 59.9767 284.225V288.53C59.9767 288.91 60.1417 289.1 60.4717 289.1C60.5117 289.1 60.6167 289.07 60.7867 289.01C60.8467 288.99 60.8867 288.975 60.9067 288.965ZM58.7617 286.055L56.7817 286.565C56.0717 286.745 55.5817 286.93 55.3117 287.12C55.0517 287.31 54.9217 287.575 54.9217 287.915C54.9217 288.705 55.4317 289.1 56.4517 289.1C57.1717 289.1 57.7817 288.865 58.2817 288.395C58.6017 288.105 58.7617 287.775 58.7617 287.405V286.055ZM62.2402 282.29H63.3802V283.7C63.8302 282.64 64.5402 282.11 65.5102 282.11C65.6302 282.11 65.7752 282.125 65.9452 282.155V283.415C65.1452 283.425 64.5952 283.54 64.2952 283.76C63.7452 284.16 63.4702 284.905 63.4702 285.995V290H62.2402V282.29Z" fill="#46194F"/>
<path d="M121.374 386.545H119.964C119.814 385.825 119.554 385.3 119.184 384.97C118.704 384.53 118.004 384.31 117.084 384.31C115.964 384.31 115.099 384.75 114.489 385.63C113.959 386.4 113.694 387.41 113.694 388.66C113.694 390.07 114.049 391.165 114.759 391.945C115.389 392.615 116.199 392.95 117.189 392.95C118.399 392.95 119.234 392.505 119.694 391.615C119.904 391.205 120.069 390.66 120.189 389.98H121.599C121.269 392.77 119.804 394.165 117.204 394.165C115.804 394.165 114.699 393.755 113.889 392.935C112.849 391.885 112.329 390.475 112.329 388.705C112.329 386.985 112.829 385.57 113.829 384.46C114.649 383.55 115.779 383.095 117.219 383.095C119.559 383.095 120.944 384.245 121.374 386.545ZM130.133 392.965V393.955C129.793 394.075 129.528 394.135 129.338 394.135C128.538 394.135 128.103 393.77 128.033 393.04C127.483 393.79 126.608 394.165 125.408 394.165C124.578 394.165 123.933 393.935 123.473 393.475C123.073 393.075 122.873 392.56 122.873 391.93C122.873 391.21 123.128 390.655 123.638 390.265C123.928 390.045 124.533 389.83 125.453 389.62L127.973 389.05L127.988 388.405C127.988 387.635 127.408 387.25 126.248 387.25C125.138 387.25 124.543 387.7 124.463 388.6H123.218C123.248 387.92 123.418 387.4 123.728 387.04C124.258 386.43 125.118 386.125 126.308 386.125C128.238 386.125 129.203 386.825 129.203 388.225V392.53C129.203 392.91 129.368 393.1 129.698 393.1C129.738 393.1 129.843 393.07 130.013 393.01C130.073 392.99 130.113 392.975 130.133 392.965ZM127.988 390.055L126.008 390.565C125.298 390.745 124.808 390.93 124.538 391.12C124.278 391.31 124.148 391.575 124.148 391.915C124.148 392.705 124.658 393.1 125.678 393.1C126.398 393.1 127.008 392.865 127.508 392.395C127.828 392.105 127.988 391.775 127.988 391.405V390.055ZM131.467 386.29H132.607V387.7C133.057 386.64 133.767 386.11 134.737 386.11C134.857 386.11 135.002 386.125 135.172 386.155V387.415C134.372 387.425 133.822 387.54 133.522 387.76C132.972 388.16 132.697 388.905 132.697 389.995V394H131.467V386.29ZM146.223 389.11H140.688V394H139.323V383.26H140.688V387.895H146.223V383.26H147.588V394H146.223V389.11ZM152.793 386.125C153.953 386.125 154.838 386.53 155.448 387.34C155.988 388.04 156.258 388.99 156.258 390.19C156.258 391.53 155.908 392.55 155.208 393.25C154.608 393.86 153.798 394.165 152.778 394.165C151.598 394.165 150.698 393.77 150.078 392.98C149.538 392.29 149.268 391.36 149.268 390.19C149.268 388.83 149.623 387.785 150.333 387.055C150.943 386.435 151.763 386.125 152.793 386.125ZM152.793 387.25C152.093 387.25 151.543 387.515 151.143 388.045C150.743 388.565 150.543 389.28 150.543 390.19C150.543 391.14 150.768 391.865 151.218 392.365C151.608 392.805 152.128 393.025 152.778 393.025C153.468 393.025 154.003 392.775 154.383 392.275C154.773 391.775 154.968 391.08 154.968 390.19C154.968 389.21 154.748 388.46 154.308 387.94C153.928 387.48 153.423 387.25 152.793 387.25ZM157.966 386.29H159.106V387.4C159.706 386.55 160.496 386.125 161.476 386.125C162.426 386.125 163.116 386.505 163.546 387.265C163.916 386.835 164.271 386.54 164.611 386.38C164.961 386.21 165.391 386.125 165.901 386.125C167.401 386.125 168.151 386.83 168.151 388.24V394H166.921V388.72C166.921 387.7 166.441 387.19 165.481 387.19C164.981 387.19 164.556 387.385 164.206 387.775C163.856 388.165 163.681 388.63 163.681 389.17V394H162.451V388.72C162.451 387.7 161.976 387.19 161.026 387.19C160.516 387.19 160.081 387.385 159.721 387.775C159.371 388.155 159.196 388.62 159.196 389.17V394H157.966V386.29ZM176.752 390.505H171.067C171.077 391.165 171.217 391.69 171.487 392.08C171.917 392.71 172.537 393.025 173.347 393.025C174.347 393.025 175.022 392.55 175.372 391.6H176.602C176.442 392.41 176.072 393.04 175.492 393.49C174.912 393.94 174.182 394.165 173.302 394.165C172.132 394.165 171.237 393.765 170.617 392.965C170.067 392.265 169.792 391.34 169.792 390.19C169.792 388.86 170.152 387.825 170.872 387.085C171.502 386.445 172.317 386.125 173.317 386.125C174.047 386.125 174.687 386.3 175.237 386.65C175.797 387 176.197 387.48 176.437 388.09C176.647 388.61 176.752 389.4 176.752 390.46V390.505ZM175.432 389.5C175.432 388.83 175.232 388.29 174.832 387.88C174.442 387.46 173.937 387.25 173.317 387.25C172.687 387.25 172.172 387.455 171.772 387.865C171.382 388.265 171.162 388.81 171.112 389.5H175.432ZM181.454 394V383.26H185.594C187.044 383.26 188.159 383.8 188.939 384.88C189.619 385.83 189.959 387.08 189.959 388.63C189.959 390.41 189.519 391.78 188.639 392.74C187.869 393.58 186.854 394 185.594 394H181.454ZM182.819 392.785H185.354C187.514 392.785 188.594 391.4 188.594 388.63C188.594 385.86 187.514 384.475 185.354 384.475H182.819V392.785ZM198.329 390.505H192.644C192.654 391.165 192.794 391.69 193.064 392.08C193.494 392.71 194.114 393.025 194.924 393.025C195.924 393.025 196.599 392.55 196.949 391.6H198.179C198.019 392.41 197.649 393.04 197.069 393.49C196.489 393.94 195.759 394.165 194.879 394.165C193.709 394.165 192.814 393.765 192.194 392.965C191.644 392.265 191.369 391.34 191.369 390.19C191.369 388.86 191.729 387.825 192.449 387.085C193.079 386.445 193.894 386.125 194.894 386.125C195.624 386.125 196.264 386.3 196.814 386.65C197.374 387 197.774 387.48 198.014 388.09C198.224 388.61 198.329 389.4 198.329 390.46V390.505ZM197.009 389.5C197.009 388.83 196.809 388.29 196.409 387.88C196.019 387.46 195.514 387.25 194.894 387.25C194.264 387.25 193.749 387.455 193.349 387.865C192.959 388.265 192.739 388.81 192.689 389.5H197.009ZM201.207 383.26V394H199.977V383.26H201.207ZM204.429 386.29V394H203.214V386.29H204.429ZM203.844 383.275C204.054 383.275 204.229 383.35 204.369 383.5C204.519 383.64 204.594 383.81 204.594 384.01C204.594 384.22 204.519 384.4 204.369 384.55C204.229 384.69 204.054 384.76 203.844 384.76C203.644 384.76 203.469 384.69 203.319 384.55C203.179 384.4 203.109 384.22 203.109 384.01C203.109 383.81 203.179 383.64 203.319 383.5C203.469 383.35 203.644 383.275 203.844 383.275ZM209.706 394H208.371L205.656 386.29H207.051L209.091 392.53L211.281 386.29H212.661L209.706 394ZM220.419 390.505H214.734C214.744 391.165 214.884 391.69 215.154 392.08C215.584 392.71 216.204 393.025 217.014 393.025C218.014 393.025 218.689 392.55 219.039 391.6H220.269C220.109 392.41 219.739 393.04 219.159 393.49C218.579 393.94 217.849 394.165 216.969 394.165C215.799 394.165 214.904 393.765 214.284 392.965C213.734 392.265 213.459 391.34 213.459 390.19C213.459 388.86 213.819 387.825 214.539 387.085C215.169 386.445 215.984 386.125 216.984 386.125C217.714 386.125 218.354 386.3 218.904 386.65C219.464 387 219.864 387.48 220.104 388.09C220.314 388.61 220.419 389.4 220.419 390.46V390.505ZM219.099 389.5C219.099 388.83 218.899 388.29 218.499 387.88C218.109 387.46 217.604 387.25 216.984 387.25C216.354 387.25 215.839 387.455 215.439 387.865C215.049 388.265 214.829 388.81 214.779 389.5H219.099ZM222.082 386.29H223.222V387.7C223.672 386.64 224.382 386.11 225.352 386.11C225.472 386.11 225.617 386.125 225.787 386.155V387.415C224.987 387.425 224.437 387.54 224.137 387.76C223.587 388.16 223.312 388.905 223.312 389.995V394H222.082V386.29ZM231.699 386.29H233.019L229.584 395.62C229.184 396.68 228.519 397.21 227.589 397.21C227.149 397.21 226.764 397.11 226.434 396.91L226.674 395.845C226.924 395.945 227.169 395.995 227.409 395.995C227.889 395.995 228.224 395.745 228.414 395.245L228.879 394.015L226.269 386.29H227.589L229.554 392.29L231.699 386.29Z" fill="#46194F"/>
<path d="M119.244 6.545H117.834C117.684 5.825 117.424 5.3 117.054 4.97C116.574 4.53 115.874 4.31 114.954 4.31C113.834 4.31 112.969 4.75 112.359 5.63C111.829 6.4 111.564 7.41 111.564 8.66C111.564 10.07 111.919 11.165 112.629 11.945C113.259 12.615 114.069 12.95 115.059 12.95C116.269 12.95 117.104 12.505 117.564 11.615C117.774 11.205 117.939 10.66 118.059 9.98H119.469C119.139 12.77 117.674 14.165 115.074 14.165C113.674 14.165 112.569 13.755 111.759 12.935C110.719 11.885 110.199 10.475 110.199 8.705C110.199 6.985 110.699 5.57 111.699 4.46C112.519 3.55 113.649 3.095 115.089 3.095C117.429 3.095 118.814 4.245 119.244 6.545ZM124.178 6.125C125.338 6.125 126.223 6.53 126.833 7.34C127.373 8.04 127.643 8.99 127.643 10.19C127.643 11.53 127.293 12.55 126.593 13.25C125.993 13.86 125.183 14.165 124.163 14.165C122.983 14.165 122.083 13.77 121.463 12.98C120.923 12.29 120.653 11.36 120.653 10.19C120.653 8.83 121.008 7.785 121.718 7.055C122.328 6.435 123.148 6.125 124.178 6.125ZM124.178 7.25C123.478 7.25 122.928 7.515 122.528 8.045C122.128 8.565 121.928 9.28 121.928 10.19C121.928 11.14 122.153 11.865 122.603 12.365C122.993 12.805 123.513 13.025 124.163 13.025C124.853 13.025 125.388 12.775 125.768 12.275C126.158 11.775 126.353 11.08 126.353 10.19C126.353 9.21 126.133 8.46 125.693 7.94C125.313 7.48 124.808 7.25 124.178 7.25ZM129.352 6.29H130.492V7.4C131.092 6.55 131.882 6.125 132.862 6.125C133.812 6.125 134.502 6.505 134.932 7.265C135.302 6.835 135.657 6.54 135.997 6.38C136.347 6.21 136.777 6.125 137.287 6.125C138.787 6.125 139.537 6.83 139.537 8.24V14H138.307V8.72C138.307 7.7 137.827 7.19 136.867 7.19C136.367 7.19 135.942 7.385 135.592 7.775C135.242 8.165 135.067 8.63 135.067 9.17V14H133.837V8.72C133.837 7.7 133.362 7.19 132.412 7.19C131.902 7.19 131.467 7.385 131.107 7.775C130.757 8.155 130.582 8.62 130.582 9.17V14H129.352V6.29ZM141.387 17.21V6.29H142.527V7.475C143.097 6.575 143.917 6.125 144.987 6.125C146.077 6.125 146.917 6.545 147.507 7.385C148.027 8.115 148.287 9.075 148.287 10.265C148.287 11.535 147.947 12.525 147.267 13.235C146.677 13.855 145.912 14.165 144.972 14.165C144.022 14.165 143.237 13.82 142.617 13.13V17.21H141.387ZM144.777 7.265C144.127 7.265 143.602 7.53 143.202 8.06C142.812 8.59 142.617 9.3 142.617 10.19C142.617 11.11 142.842 11.83 143.292 12.35C143.672 12.79 144.167 13.01 144.777 13.01C145.457 13.01 145.997 12.755 146.397 12.245C146.807 11.725 147.012 11.04 147.012 10.19C147.012 9.25 146.782 8.51 146.322 7.97C145.912 7.5 145.397 7.265 144.777 7.265ZM156.656 12.965V13.955C156.316 14.075 156.051 14.135 155.861 14.135C155.061 14.135 154.626 13.77 154.556 13.04C154.006 13.79 153.131 14.165 151.931 14.165C151.101 14.165 150.456 13.935 149.996 13.475C149.596 13.075 149.396 12.56 149.396 11.93C149.396 11.21 149.651 10.655 150.161 10.265C150.451 10.045 151.056 9.83 151.976 9.62L154.496 9.05L154.511 8.405C154.511 7.635 153.931 7.25 152.771 7.25C151.661 7.25 151.066 7.7 150.986 8.6H149.741C149.771 7.92 149.941 7.4 150.251 7.04C150.781 6.43 151.641 6.125 152.831 6.125C154.761 6.125 155.726 6.825 155.726 8.225V12.53C155.726 12.91 155.891 13.1 156.221 13.1C156.261 13.1 156.366 13.07 156.536 13.01C156.596 12.99 156.636 12.975 156.656 12.965ZM154.511 10.055L152.531 10.565C151.821 10.745 151.331 10.93 151.061 11.12C150.801 11.31 150.671 11.575 150.671 11.915C150.671 12.705 151.181 13.1 152.201 13.1C152.921 13.1 153.531 12.865 154.031 12.395C154.351 12.105 154.511 11.775 154.511 11.405V10.055ZM157.989 6.29H159.129V7.7C159.579 6.64 160.289 6.11 161.259 6.11C161.379 6.11 161.524 6.125 161.694 6.155V7.415C160.894 7.425 160.344 7.54 160.044 7.76C159.494 8.16 159.219 8.905 159.219 9.995V14H157.989V6.29ZM169.422 10.505H163.737C163.747 11.165 163.887 11.69 164.157 12.08C164.587 12.71 165.207 13.025 166.017 13.025C167.017 13.025 167.692 12.55 168.042 11.6H169.272C169.112 12.41 168.742 13.04 168.162 13.49C167.582 13.94 166.852 14.165 165.972 14.165C164.802 14.165 163.907 13.765 163.287 12.965C162.737 12.265 162.462 11.34 162.462 10.19C162.462 8.86 162.822 7.825 163.542 7.085C164.172 6.445 164.987 6.125 165.987 6.125C166.717 6.125 167.357 6.3 167.907 6.65C168.467 7 168.867 7.48 169.107 8.09C169.317 8.61 169.422 9.4 169.422 10.46V10.505ZM168.102 9.5C168.102 8.83 167.902 8.29 167.502 7.88C167.112 7.46 166.607 7.25 165.987 7.25C165.357 7.25 164.842 7.455 164.442 7.865C164.052 8.265 163.832 8.81 163.782 9.5H168.102ZM180.199 9.05H181.369C181.359 9.76 181.039 10.615 180.409 11.615L182.329 14H180.739L179.674 12.68C179.194 13.15 178.819 13.47 178.549 13.64C177.999 13.99 177.354 14.165 176.614 14.165C175.644 14.165 174.904 13.865 174.394 13.265C173.964 12.745 173.749 12.07 173.749 11.24C173.749 9.96 174.489 8.915 175.969 8.105C175.509 7.525 175.194 7.07 175.024 6.74C174.864 6.4 174.784 6.055 174.784 5.705C174.784 5.005 175.059 4.43 175.609 3.98C176.079 3.58 176.644 3.38 177.304 3.38C178.044 3.38 178.644 3.625 179.104 4.115C179.494 4.545 179.689 5.07 179.689 5.69C179.689 6.22 179.539 6.675 179.239 7.055C178.949 7.425 178.424 7.825 177.664 8.255L179.629 10.655C179.649 10.625 179.689 10.55 179.749 10.43C180.049 9.86 180.199 9.4 180.199 9.05ZM177.019 7.475L177.214 7.355C178.094 6.805 178.534 6.245 178.534 5.675C178.534 5.315 178.409 5.015 178.159 4.775C177.919 4.535 177.619 4.415 177.259 4.415C176.869 4.415 176.559 4.53 176.329 4.76C176.099 4.99 175.984 5.3 175.984 5.69C175.984 5.96 176.039 6.19 176.149 6.38C176.259 6.57 176.549 6.935 177.019 7.475ZM176.614 8.87C176.224 9.01 175.854 9.325 175.504 9.815C175.154 10.295 174.979 10.735 174.979 11.135C174.979 11.675 175.144 12.125 175.474 12.485C175.814 12.835 176.239 13.01 176.749 13.01C177.459 13.01 178.204 12.61 178.984 11.81L176.614 8.87ZM188.087 9.11V12.785H194.417V14H186.722V3.26H194.162V4.475H188.087V7.895H193.937V9.11H188.087ZM199.536 10.01L202.206 14H200.781L198.846 11.03L196.881 14H195.486L198.216 10.07L195.621 6.29H197.031L198.891 9.08L200.751 6.29H202.131L199.536 10.01ZM203.394 17.21V6.29H204.534V7.475C205.104 6.575 205.924 6.125 206.994 6.125C208.084 6.125 208.924 6.545 209.514 7.385C210.034 8.115 210.294 9.075 210.294 10.265C210.294 11.535 209.954 12.525 209.274 13.235C208.684 13.855 207.919 14.165 206.979 14.165C206.029 14.165 205.244 13.82 204.624 13.13V17.21H203.394ZM206.784 7.265C206.134 7.265 205.609 7.53 205.209 8.06C204.819 8.59 204.624 9.3 204.624 10.19C204.624 11.11 204.849 11.83 205.299 12.35C205.679 12.79 206.174 13.01 206.784 13.01C207.464 13.01 208.004 12.755 208.404 12.245C208.814 11.725 209.019 11.04 209.019 10.19C209.019 9.25 208.789 8.51 208.329 7.97C207.919 7.5 207.404 7.265 206.784 7.265ZM213.023 3.26V14H211.793V3.26H213.023ZM218.104 6.125C219.264 6.125 220.149 6.53 220.759 7.34C221.299 8.04 221.569 8.99 221.569 10.19C221.569 11.53 221.219 12.55 220.519 13.25C219.919 13.86 219.109 14.165 218.089 14.165C216.909 14.165 216.009 13.77 215.389 12.98C214.849 12.29 214.579 11.36 214.579 10.19C214.579 8.83 214.934 7.785 215.644 7.055C216.254 6.435 217.074 6.125 218.104 6.125ZM218.104 7.25C217.404 7.25 216.854 7.515 216.454 8.045C216.054 8.565 215.854 9.28 215.854 10.19C215.854 11.14 216.079 11.865 216.529 12.365C216.919 12.805 217.439 13.025 218.089 13.025C218.779 13.025 219.314 12.775 219.694 12.275C220.084 11.775 220.279 11.08 220.279 10.19C220.279 9.21 220.059 8.46 219.619 7.94C219.239 7.48 218.734 7.25 218.104 7.25ZM223.263 6.29H224.403V7.7C224.853 6.64 225.563 6.11 226.533 6.11C226.653 6.11 226.798 6.125 226.968 6.155V7.415C226.168 7.425 225.618 7.54 225.318 7.76C224.768 8.16 224.493 8.905 224.493 9.995V14H223.263V6.29ZM234.695 10.505H229.01C229.02 11.165 229.16 11.69 229.43 12.08C229.86 12.71 230.48 13.025 231.29 13.025C232.29 13.025 232.965 12.55 233.315 11.6H234.545C234.385 12.41 234.015 13.04 233.435 13.49C232.855 13.94 232.125 14.165 231.245 14.165C230.075 14.165 229.18 13.765 228.56 12.965C228.01 12.265 227.735 11.34 227.735 10.19C227.735 8.86 228.095 7.825 228.815 7.085C229.445 6.445 230.26 6.125 231.26 6.125C231.99 6.125 232.63 6.3 233.18 6.65C233.74 7 234.14 7.48 234.38 8.09C234.59 8.61 234.695 9.4 234.695 10.46V10.505ZM233.375 9.5C233.375 8.83 233.175 8.29 232.775 7.88C232.385 7.46 231.88 7.25 231.26 7.25C230.63 7.25 230.115 7.455 229.715 7.865C229.325 8.265 229.105 8.81 229.055 9.5H233.375Z" fill="#46194F"/>
<path d="M283.101 267.345V273H282.231L281.886 271.485C280.866 272.605 279.646 273.165 278.226 273.165C276.666 273.165 275.426 272.59 274.506 271.44C273.706 270.43 273.306 269.17 273.306 267.66C273.306 265.69 273.951 264.175 275.241 263.115C276.081 262.435 277.156 262.095 278.466 262.095C280.016 262.095 281.206 262.565 282.036 263.505C282.486 264.015 282.791 264.675 282.951 265.485H281.556C281.406 264.805 281.056 264.275 280.506 263.895C279.956 263.505 279.266 263.31 278.436 263.31C277.226 263.31 276.271 263.75 275.571 264.63C274.971 265.4 274.671 266.385 274.671 267.585C274.671 268.985 275.051 270.09 275.811 270.9C276.471 271.6 277.376 271.95 278.526 271.95C279.566 271.95 280.406 271.61 281.046 270.93C281.606 270.33 281.886 269.6 281.886 268.74V268.56H278.616V267.345H283.101ZM291.661 269.505H285.976C285.986 270.165 286.126 270.69 286.396 271.08C286.826 271.71 287.446 272.025 288.256 272.025C289.256 272.025 289.931 271.55 290.281 270.6H291.511C291.351 271.41 290.981 272.04 290.401 272.49C289.821 272.94 289.091 273.165 288.211 273.165C287.041 273.165 286.146 272.765 285.526 271.965C284.976 271.265 284.701 270.34 284.701 269.19C284.701 267.86 285.061 266.825 285.781 266.085C286.411 265.445 287.226 265.125 288.226 265.125C288.956 265.125 289.596 265.3 290.146 265.65C290.706 266 291.106 266.48 291.346 267.09C291.556 267.61 291.661 268.4 291.661 269.46V269.505ZM290.341 268.5C290.341 267.83 290.141 267.29 289.741 266.88C289.351 266.46 288.846 266.25 288.226 266.25C287.596 266.25 287.081 266.455 286.681 266.865C286.291 267.265 286.071 267.81 286.021 268.5H290.341ZM296.355 265.29V266.28H294.78V271.41C294.78 271.59 294.84 271.745 294.96 271.875C295.09 271.995 295.255 272.055 295.455 272.055C295.645 272.055 295.935 272.01 296.325 271.92L296.46 273C295.84 273.11 295.37 273.165 295.05 273.165C294.06 273.165 293.565 272.76 293.565 271.95V266.28H292.515V265.29H293.565V263.715L294.78 263.16V265.29H296.355ZM308.287 265.35H306.997C306.967 263.95 306.072 263.25 304.312 263.25C303.592 263.25 303.012 263.415 302.572 263.745C302.132 264.065 301.912 264.49 301.912 265.02C301.912 265.42 302.042 265.74 302.302 265.98C302.572 266.21 303.032 266.41 303.682 266.58L306.232 267.24C307.852 267.67 308.662 268.57 308.662 269.94C308.662 270.93 308.267 271.735 307.477 272.355C306.777 272.895 305.772 273.165 304.462 273.165C302.802 273.165 301.597 272.665 300.847 271.665C300.447 271.125 300.237 270.4 300.217 269.49H301.507V269.52C301.507 270.3 301.772 270.905 302.302 271.335C302.842 271.755 303.592 271.965 304.552 271.965C305.432 271.965 306.087 271.82 306.517 271.53C307.027 271.18 307.282 270.69 307.282 270.06C307.282 269.26 306.627 268.695 305.317 268.365L302.647 267.675C301.247 267.315 300.547 266.49 300.547 265.2C300.547 264.18 300.932 263.39 301.702 262.83C302.372 262.34 303.257 262.095 304.357 262.095C305.917 262.095 307.032 262.55 307.702 263.46C308.092 263.99 308.287 264.565 308.287 265.185C308.287 265.215 308.287 265.27 308.287 265.35ZM316.436 273H315.221V271.785C314.671 272.705 313.851 273.165 312.761 273.165C312.011 273.165 311.411 272.98 310.961 272.61C310.521 272.23 310.301 271.725 310.301 271.095V265.29H311.516V270.6C311.516 271.05 311.661 271.41 311.951 271.68C312.241 271.95 312.631 272.085 313.121 272.085C313.761 272.085 314.271 271.855 314.651 271.395C315.031 270.925 315.221 270.295 315.221 269.505V265.29H316.436V273ZM319.719 265.29V273H318.504V265.29H319.719ZM319.134 262.275C319.344 262.275 319.519 262.35 319.659 262.5C319.809 262.64 319.884 262.81 319.884 263.01C319.884 263.22 319.809 263.4 319.659 263.55C319.519 263.69 319.344 263.76 319.134 263.76C318.934 263.76 318.759 263.69 318.609 263.55C318.469 263.4 318.399 263.22 318.399 263.01C318.399 262.81 318.469 262.64 318.609 262.5C318.759 262.35 318.934 262.275 319.134 262.275ZM324.846 265.29V266.28H323.271V271.41C323.271 271.59 323.331 271.745 323.451 271.875C323.581 271.995 323.746 272.055 323.946 272.055C324.136 272.055 324.426 272.01 324.816 271.92L324.951 273C324.331 273.11 323.861 273.165 323.541 273.165C322.551 273.165 322.056 272.76 322.056 271.95V266.28H321.006V265.29H322.056V263.715L323.271 263.16V265.29H324.846ZM333.124 271.965V272.955C332.784 273.075 332.519 273.135 332.329 273.135C331.529 273.135 331.094 272.77 331.024 272.04C330.474 272.79 329.599 273.165 328.399 273.165C327.569 273.165 326.924 272.935 326.464 272.475C326.064 272.075 325.864 271.56 325.864 270.93C325.864 270.21 326.119 269.655 326.629 269.265C326.919 269.045 327.524 268.83 328.444 268.62L330.964 268.05L330.979 267.405C330.979 266.635 330.399 266.25 329.239 266.25C328.129 266.25 327.534 266.7 327.454 267.6H326.209C326.239 266.92 326.409 266.4 326.719 266.04C327.249 265.43 328.109 265.125 329.299 265.125C331.229 265.125 332.194 265.825 332.194 267.225V271.53C332.194 271.91 332.359 272.1 332.689 272.1C332.729 272.1 332.834 272.07 333.004 272.01C333.064 271.99 333.104 271.975 333.124 271.965ZM330.979 269.055L328.999 269.565C328.289 269.745 327.799 269.93 327.529 270.12C327.269 270.31 327.139 270.575 327.139 270.915C327.139 271.705 327.649 272.1 328.669 272.1C329.389 272.1 329.999 271.865 330.499 271.395C330.819 271.105 330.979 270.775 330.979 270.405V269.055ZM334.232 262.26H335.447V266.325C336.017 265.525 336.817 265.125 337.847 265.125C338.937 265.125 339.777 265.525 340.367 266.325C340.887 267.025 341.147 267.95 341.147 269.1C341.147 270.43 340.802 271.465 340.112 272.205C339.512 272.845 338.737 273.165 337.787 273.165C336.717 273.165 335.902 272.76 335.342 271.95V273H334.232V262.26ZM337.622 266.265C336.962 266.265 336.432 266.535 336.032 267.075C335.642 267.605 335.447 268.31 335.447 269.19C335.447 270.11 335.672 270.83 336.122 271.35C336.512 271.79 337.012 272.01 337.622 272.01C338.302 272.01 338.842 271.755 339.242 271.245C339.652 270.735 339.857 270.05 339.857 269.19C339.857 268.25 339.627 267.51 339.167 266.97C338.767 266.5 338.252 266.265 337.622 266.265ZM343.861 262.26V273H342.631V262.26H343.861ZM352.438 269.505H346.753C346.763 270.165 346.903 270.69 347.173 271.08C347.603 271.71 348.223 272.025 349.033 272.025C350.033 272.025 350.708 271.55 351.058 270.6H352.288C352.128 271.41 351.758 272.04 351.178 272.49C350.598 272.94 349.868 273.165 348.988 273.165C347.818 273.165 346.923 272.765 346.303 271.965C345.753 271.265 345.478 270.34 345.478 269.19C345.478 267.86 345.838 266.825 346.558 266.085C347.188 265.445 348.003 265.125 349.003 265.125C349.733 265.125 350.373 265.3 350.923 265.65C351.483 266 351.883 266.48 352.123 267.09C352.333 267.61 352.438 268.4 352.438 269.46V269.505ZM351.118 268.5C351.118 267.83 350.918 267.29 350.518 266.88C350.128 266.46 349.623 266.25 349.003 266.25C348.373 266.25 347.858 266.455 347.458 266.865C347.068 267.265 346.848 267.81 346.798 268.5H351.118ZM298.791 285.455V290H297.426V279.26H301.866C302.996 279.26 303.846 279.57 304.416 280.19C304.916 280.73 305.166 281.47 305.166 282.41C305.166 283.36 304.861 284.115 304.251 284.675C303.691 285.195 302.996 285.455 302.166 285.455H298.791ZM298.791 284.24H301.656C302.306 284.24 302.816 284.075 303.186 283.745C303.556 283.415 303.741 282.95 303.741 282.35C303.741 281.76 303.556 281.3 303.186 280.97C302.816 280.64 302.306 280.475 301.656 280.475H298.791V284.24ZM306.94 282.29H308.08V283.7C308.53 282.64 309.24 282.11 310.21 282.11C310.33 282.11 310.475 282.125 310.645 282.155V283.415C309.845 283.425 309.295 283.54 308.995 283.76C308.445 284.16 308.17 284.905 308.17 285.995V290H306.94V282.29ZM313.018 282.29V290H311.803V282.29H313.018ZM312.433 279.275C312.643 279.275 312.818 279.35 312.958 279.5C313.108 279.64 313.183 279.81 313.183 280.01C313.183 280.22 313.108 280.4 312.958 280.55C312.818 280.69 312.643 280.76 312.433 280.76C312.233 280.76 312.058 280.69 311.908 280.55C311.768 280.4 311.698 280.22 311.698 280.01C311.698 279.81 311.768 279.64 311.908 279.5C312.058 279.35 312.233 279.275 312.433 279.275ZM321.024 284.87H319.794C319.644 283.79 319.034 283.25 317.964 283.25C317.294 283.25 316.769 283.515 316.389 284.045C316.009 284.575 315.819 285.31 315.819 286.25C315.819 287.18 316.044 287.89 316.494 288.38C316.874 288.81 317.384 289.025 318.024 289.025C319.054 289.025 319.669 288.465 319.869 287.345H321.114C321.034 288.305 320.689 289.03 320.079 289.52C319.549 289.95 318.854 290.165 317.994 290.165C316.864 290.165 315.984 289.765 315.354 288.965C314.814 288.275 314.544 287.37 314.544 286.25C314.544 284.91 314.899 283.86 315.609 283.1C316.219 282.45 317.009 282.125 317.979 282.125C319.099 282.125 319.939 282.5 320.499 283.25C320.789 283.64 320.964 284.18 321.024 284.87ZM329.007 286.505H323.322C323.332 287.165 323.472 287.69 323.742 288.08C324.172 288.71 324.792 289.025 325.602 289.025C326.602 289.025 327.277 288.55 327.627 287.6H328.857C328.697 288.41 328.327 289.04 327.747 289.49C327.167 289.94 326.437 290.165 325.557 290.165C324.387 290.165 323.492 289.765 322.872 288.965C322.322 288.265 322.047 287.34 322.047 286.19C322.047 284.86 322.407 283.825 323.127 283.085C323.757 282.445 324.572 282.125 325.572 282.125C326.302 282.125 326.942 282.3 327.492 282.65C328.052 283 328.452 283.48 328.692 284.09C328.902 284.61 329.007 285.4 329.007 286.46V286.505ZM327.687 285.5C327.687 284.83 327.487 284.29 327.087 283.88C326.697 283.46 326.192 283.25 325.572 283.25C324.942 283.25 324.427 283.455 324.027 283.865C323.637 284.265 323.417 284.81 323.367 285.5H327.687Z" fill="#46194F"/>
<path d="M271.354 241C266.48 251.345 260.09 260.82 252.459 269.129C249.589 272.26 246.547 275.217 243.342 278" stroke="#46194F" stroke-width="2" stroke-miterlimit="10"/>
<path d="M263.77 137C254.563 124.229 243.042 113.053 229.756 104" stroke="#46194F" stroke-width="2" stroke-miterlimit="10"/>
<path d="M61.7156 194.54C61.7156 161.57 76.2517 131.99 99.2614 111.86" stroke="#46194F" stroke-width="2" stroke-miterlimit="10"/>
<path d="M296.574 248.58C326.294 248.58 350.387 224.497 350.387 194.79C350.387 165.083 326.294 141 296.574 141C266.854 141 242.761 165.083 242.761 194.79C242.761 224.497 266.854 248.58 296.574 248.58Z" fill="#C6AECC"/>
<path d="M292.352 175.94H302.316C302.407 175.94 303.247 176.2 303.427 176.26C306.268 177.25 307.579 180.63 306.168 183.29L315.322 182.13C316.773 180.05 317.543 177.79 319.754 176.33C323.936 173.57 329.688 174.65 332.269 179C334.61 182.95 333.65 186.64 331.149 190.2L339.062 196.61L339.202 243.12C338.962 245.9 336.821 248.06 334.08 248.4C324.616 247.87 314.372 249.11 304.998 248.4C303.297 248.27 301.856 247.25 300.066 247.23C291.972 242.23 282.418 237.99 274.595 232.68C272.034 230.94 270.983 228.53 272.034 225.49L283.188 205.88C282.188 205.87 281.178 205.72 280.277 205.29C278.817 204.58 278.546 203.17 276.646 203C274.175 202.78 275.135 203.47 273.945 204.62C273.554 205 272.464 205.56 271.934 205.65C270.473 205.89 265.061 205.88 263.56 205.68C261.929 205.46 260.439 203.78 260.249 202.18L260.229 179.6C260.419 177.91 262.03 176.29 263.73 176.1C265.311 175.92 270.473 175.88 271.974 176.11C272.444 176.18 273.604 176.85 273.955 177.18C274.865 178.03 274.655 179.47 276.366 178.51C277.586 177.82 280.527 173.26 281.208 171.87C282.538 169.15 282.668 166.82 283.469 164.09C284.689 159.94 289.311 160.67 291.532 163.57C294.253 167.12 292.933 171.9 292.352 175.93V175.94ZM289.481 175.94C289.641 172.79 291.632 166.83 288.501 164.64C287.98 164.27 286.72 163.74 286.38 164.51C285.99 165.37 285.8 167.51 285.489 168.63C284.449 172.39 282.368 176.32 279.787 179.26C278.596 180.61 277.226 181.79 275.305 181.69V200.17C276.436 200.17 277.446 200.08 278.526 200.44C280.027 200.95 280.557 202.38 282.038 202.85L299.575 202.82C300.466 202.37 300.696 201.22 299.975 200.52C299.185 199.74 296.544 200.45 295.384 200.09C294.223 199.73 294.203 197.67 295.344 197.34C297.224 196.79 302.356 198.54 302.587 195.42C302.847 191.84 297.044 194.44 296.254 192.6C294.873 189.39 300.586 190.54 302.116 190.3C304.447 189.94 304.437 186.31 301.766 186.01C300.496 185.87 296.944 186.65 297.014 184.5C297.104 181.79 302.046 184.31 303.467 182.15C304.277 180.92 303.627 179.18 302.126 179.01C297.645 178.48 292.242 179.48 287.66 178.93C284.629 177.72 286.93 175.3 289.461 175.96L289.481 175.94ZM319.094 181.68L320.234 181.88L328.688 188.49C330.798 185.92 331.599 182.41 329.228 179.7C326.207 176.25 320.654 177.5 319.084 181.67L319.094 181.68ZM318.533 184.76L317.173 184.97L314.251 190.3C319.013 191.48 318.333 199.14 313.611 199.79C307.168 200.68 305.228 192.24 311.16 190.07L313.541 185.27L306.838 186.19C306.268 186.37 306.718 187.22 306.728 187.68C306.758 189.68 306.218 191.15 304.587 192.35C306.198 194.64 305.658 198.27 302.977 199.47C304.067 202.62 302.507 205.56 299.095 205.9C295.334 206.27 290.752 205.45 287.06 205.9C286.86 205.92 286.67 205.9 286.53 206.09L274.735 226.59C274.365 227.69 274.595 228.94 275.405 229.77L300.556 244.28C301.696 244.89 302.967 244.56 303.857 243.68L326.547 204.49L318.543 184.76H318.533ZM306.178 245.55H333.91C334.15 245.55 335.31 244.9 335.53 244.66C335.941 244.22 336.261 243.36 336.331 242.77V197.96L322.875 187.61L329.688 204.22L329.658 204.88L323.595 215.51C326.307 215.56 328.738 217.13 329.258 219.89C329.098 224.65 329.748 230.01 329.348 234.71C329.148 237.09 327.577 238.86 325.286 239.44L309.9 239.49L306.188 245.55H306.178ZM310.66 193.89C309.6 198.84 316.993 197.14 313.801 193.17C313.611 193.89 314.211 194.59 314.001 195.33C313.721 196.28 312.301 196.73 311.55 195.96L310.66 193.89ZM311.38 236.58H324.746C325.556 236.58 326.337 235.23 326.437 234.5C327.007 230.34 326.056 225 326.437 220.72C326.016 218.21 323.916 218.57 321.915 218.68L311.38 236.58Z" fill="#46194F"/>
<path d="M294.563 224.33C293.433 223.2 294.923 222.04 294.843 221.63C294.813 221.47 293.783 220.26 293.583 219.84C293.033 218.68 292.492 215.96 294.423 215.94C296.104 215.93 295.744 217.13 296.034 218.1C296.934 221.13 301.506 221.05 301.636 218.34C301.726 216.63 297.224 214.34 296.854 211.72C296.414 208.53 298.965 205.76 302.156 205.75C302.577 205.75 303.607 206.1 303.857 206C304.387 205.77 304.577 203.82 306.358 204.57C307.969 205.25 306.438 207.1 306.568 207.58C306.628 207.82 307.589 208.95 307.829 209.56C308.309 210.75 308.869 212.97 306.988 213.1C304.918 213.25 305.678 211.09 304.647 209.87C302.917 207.84 299.205 208.81 299.765 211.34C299.945 212.14 302.627 214.28 303.317 215.15C306.698 219.47 302.386 224.39 297.514 223.15C296.964 224.21 295.714 225.48 294.573 224.34L294.563 224.33Z" fill="#46194F"/>
<path d="M282.978 225.31C283.749 225.14 284.129 225.48 284.759 225.78C289.921 228.28 294.933 232.08 300.136 234.63C301.816 235.59 300.916 237.97 298.995 237.39L282.498 227.87C281.568 227.2 281.838 225.56 282.978 225.31Z" fill="#46194F"/>
<path d="M54.0521 248.58C83.772 248.58 107.865 224.497 107.865 194.79C107.865 165.083 83.772 141 54.0521 141C24.3322 141 0.239502 165.083 0.239502 194.79C0.239502 224.497 24.3322 248.58 54.0521 248.58Z" fill="#C6AECC"/>
<path d="M56.4232 158.82L60.6249 159.39C74.5708 161.93 85.9756 172.73 89.1169 186.55L90.0673 192.45C89.9973 193.99 90.1674 195.6 90.0673 197.13C88.4967 221.61 62.9759 237.74 40.1763 227.84C38.9658 227.32 36.945 225.93 35.9646 225.63C35.3443 225.44 34.674 225.5 34.2138 225.98C27.9412 231.72 22.2488 238.67 15.9261 244.28C7.08242 252.13 -2.86176 244.06 3.27082 234.41L23.2492 214.17C23.3293 213.75 23.3293 213.31 23.2092 212.9C22.9091 211.92 21.5285 209.9 20.9983 208.69C11.0941 185.9 27.2309 160.39 51.7212 158.82H56.4032H56.4232ZM53.612 168.23C32.7632 168.6 20.418 191.83 31.7928 209.36C42.0271 225.14 65.3969 225.4 75.9914 209.84C88.0965 192.06 75.131 167.85 53.622 168.23H53.612Z" fill="#46194F"/>
<mask id="mask0_60_437" style="mask-type:luminance" maskUnits="userSpaceOnUse" x="27" y="168" width="54" height="54">
<path d="M53.612 168.23C32.7632 168.6 20.418 191.83 31.7928 209.36C42.0271 225.14 65.3969 225.4 75.9914 209.84C88.0965 192.06 75.131 167.85 53.622 168.23H53.612Z" fill="white"/>
</mask>
<g mask="url(#mask0_60_437)">
<path d="M97.4904 185.15H99.9915C100.172 184.53 100.232 183.83 99.9715 183.22C98.6109 183.25 96.9802 183.13 97.2203 181.33C97.4204 179.87 99.5413 179.97 100.622 180.27C102.923 180.91 103.323 183.26 103.033 185.34C102.743 187.42 100.532 188.35 98.6009 188.27C100.482 190.31 102.473 192.27 103.223 195.04C103.833 197.27 103.863 204.46 103.593 206.87C103.413 208.45 102.372 209.64 101.132 210.52C101.212 213.54 101.422 217.2 97.7805 218.15C96.2099 218.56 90.9076 218.53 89.477 217.82C88.5967 217.39 87.066 215.65 87.066 214.67V211.13H58.434V214.67C58.434 215.65 56.9033 217.39 56.023 217.82C54.5924 218.53 49.2901 218.56 47.7195 218.15C44.078 217.2 44.288 213.54 44.3681 210.52C43.1276 209.64 42.0871 208.45 41.907 206.87C41.6269 204.46 41.6669 197.26 42.2772 195.04C43.0375 192.25 44.9983 190.32 46.8991 188.27C44.9683 188.35 42.7574 187.5 42.4673 185.34C42.1772 183.18 42.5773 180.92 44.8783 180.27C45.9587 179.97 48.0896 179.87 48.2797 181.33C48.5198 183.12 46.8891 183.24 45.5286 183.22C45.2685 183.83 45.3285 184.52 45.5086 185.15H48.0096C48.5298 183.13 49.1101 181.06 49.7804 179.07C51.5011 173.95 54.2322 170.79 59.8946 170.14C68.2781 170.55 77.1519 169.62 85.4854 170.14C93.8189 170.66 95.3295 177.93 97.4404 184.6C97.5004 184.78 97.5204 184.97 97.5004 185.16L97.4904 185.15ZM100.692 202.11V197.59C100.692 193.52 97.1403 192.18 95.7997 189.42C92.6784 182.96 94.149 173.64 84.505 173.06C76.3815 172.58 67.6479 173.31 59.4944 173.22C51.9213 174.44 52.2014 183.96 49.7103 189.56C48.3397 191.36 44.9583 194.35 44.9583 196.76V202.11H51.9813C52.5115 202.11 53.3018 201.3 53.4119 200.76C53.5119 200.26 53.5119 198.68 53.4519 198.15C53.1718 195.8 49.4302 196.75 47.8195 196.56C46.2289 196.37 46.0888 193.86 47.9596 193.64C49.1001 193.5 52.2414 193.54 53.2818 193.88C57.2935 195.18 57.6337 201.88 54.4923 204.2C54.2122 204.41 52.9717 205.03 52.6816 205.03H44.9683C45.0083 205.69 44.8483 206.43 45.0984 207.06C45.1984 207.31 45.9387 208.09 46.1488 208.09H61.9255V203.02C61.9255 202.52 62.5257 201.74 63.0659 201.65L82.154 201.55C82.6642 201.48 83.6146 202.32 83.6146 202.73V208.08H99.3912C99.3912 208.08 100.011 207.74 100.092 207.67C100.552 207.24 100.872 205.84 100.692 205.26L100.502 205.03H92.8585C91.2878 205.03 89.337 202.58 89.1769 201.07C88.8568 198.17 89.1969 194.88 92.3783 193.85C93.3587 193.53 96.6401 193.51 97.7305 193.63C99.4512 193.83 99.4512 196.35 97.7305 196.55C96.2299 196.73 93.2787 195.97 92.3983 197.47C91.9181 198.29 91.9281 200.56 92.5183 201.34C92.6584 201.53 93.3987 202.1 93.5588 202.1H100.722L100.692 202.11ZM80.5333 204.61H64.9667V208.08H80.5333V204.61ZM55.3727 211.14H47.4494V214.27C47.4494 214.83 48.5398 215.27 49.04 215.32C50.1805 215.43 52.9317 215.45 54.0421 215.3C54.4323 215.25 55.3727 214.79 55.3727 214.41V211.14ZM98.0507 211.14H90.1273V214.41C90.1273 214.77 91.0977 215.25 91.4579 215.3C92.5283 215.45 95.3395 215.42 96.46 215.32C96.9602 215.27 98.0507 214.84 98.0507 214.27V211.14Z" fill="#46194F"/>
<path d="M54.6424 185.19L90.6175 185.16C92.8184 185.41 92.4082 188.36 90.2073 188.22H55.3026C53.2418 188.3 52.6615 185.8 54.6424 185.19Z" fill="#46194F"/>
<path d="M60.0647 193.66L85.5354 193.7C86.6959 194.35 86.6659 195.79 85.5054 196.44L60.4449 196.55C58.8842 196.28 58.6241 194.33 60.0647 193.66Z" fill="#46194F"/>
</g>
<path d="M179.285 370.08C209.005 370.08 233.097 345.997 233.097 316.29C233.097 286.583 209.005 262.5 179.285 262.5C149.565 262.5 125.472 286.583 125.472 316.29C125.472 345.997 149.565 370.08 179.285 370.08Z" fill="#C6AECC"/>
<path d="M112.287 332.37C113.647 336.13 117.759 334.72 120.88 334.93C123.481 322.01 141.209 322.02 143.67 334.97L186.108 334.93C186.368 334.84 187.098 332.15 187.418 331.5C191.54 323.18 203.595 323.1 207.847 331.36C208.467 332.56 208.627 333.85 209.237 334.93C212.509 334.64 216.791 335.43 219.942 334.91C221.082 334.72 222.253 333.68 222.543 332.55C222.833 331.42 222.853 326.04 222.593 324.82C222.333 323.6 221.172 322.55 219.982 322.26L137.577 322.08C136.727 321.8 136.327 321.06 136.217 320.2V293.7C136.027 292.21 134.706 291.06 133.255 290.82C131.405 290.51 125.352 290.56 123.411 290.79C121.47 291.02 120.02 292.32 119.14 294.07C116.558 299.22 115.078 305.49 112.497 310.71V318.36H117.569C118.489 318.36 120 319.86 120.42 320.69C123.021 325.81 116.819 329.66 112.287 328.71V332.37ZM126.893 313.54C126.403 313.76 117.109 313.74 116.078 313.59C113.627 313.25 113.607 310.19 115.898 309.78C119.24 309.18 123.992 310.13 127.483 309.72L128.633 308.71C128.513 305.82 128.944 302.54 128.684 299.69C128.363 296.16 123.231 298.97 121.26 297.41C120.28 296.63 120.53 294.59 121.711 294.25C122.421 294.04 126.753 294.11 127.713 294.2C129.734 294.38 131.435 295.96 132.015 297.87C132.555 299.66 132.585 307.74 132.015 309.51C131.575 310.88 130.384 312.26 129.044 312.79C128.213 313.11 127.663 313.19 126.893 313.54ZM131.325 315.81C131.515 315.87 132.035 316.34 132.135 316.51C132.445 317.06 132.455 320.68 132.325 321.46C132.035 323.29 129.144 323.31 128.714 321.43C128.563 320.75 128.573 318.12 128.684 317.39C128.894 316.03 130.024 315.42 131.325 315.8V315.81Z" fill="#46194F"/>
<path d="M112.287 322.45V324.61C113.067 325.4 114.057 325.19 115.048 324.89C116.038 324.59 118.339 323.26 117.019 322.14C116.368 321.58 112.917 321.52 112.287 322.46V322.45Z" fill="#46194F"/>
<path d="M142.229 314.57L142.829 314.61C143.89 314.68 144.87 313.97 145.07 312.92C146.841 303.47 160.897 303.82 162.058 313.41C162.188 314.46 163.108 315.23 164.168 315.23H189.689C190.74 315.23 191.67 314.47 191.8 313.42C192.991 303.62 207.287 303.57 208.827 313.14C209.037 314.45 210.378 315.24 211.638 314.82C213.659 314.13 215.57 312.75 217.531 311.87C218.151 311.59 218.591 311.01 218.711 310.34C218.861 309.54 218.962 308.6 218.931 308.31C218.851 307.53 217.581 306.45 217.171 305.45C216.761 304.45 216.44 301.56 215.84 301.2C214.89 300.61 212.139 301.09 210.708 300.75C207.277 299.95 202.194 296.75 198.693 295.29C192.55 292.74 183.817 290.91 177.734 294.32C174.653 296.05 169.661 301.46 166.74 302.01C164.038 302.52 160.267 301.95 157.386 302.12C151.963 302.44 146.231 303.84 141.429 306.39C140.779 306.74 140.368 307.41 140.328 308.15C140.268 309.37 140.188 311.14 140.238 312.5C140.278 313.59 141.139 314.47 142.229 314.55V314.57Z" stroke="#46194F" stroke-width="2" stroke-miterlimit="10"/>
<path d="M133.476 328.97C122.101 327.31 121.02 344.4 131.815 344.87C141.669 345.3 143 330.36 133.476 328.97Z" stroke="#46194F" stroke-width="3" stroke-miterlimit="10"/>
<path d="M191.93 331.15C184.387 338.7 196.002 349.74 203.285 342.17C210.568 334.59 199.073 324 191.93 331.15Z" stroke="#46194F" stroke-width="3" stroke-miterlimit="10"/>
<path d="M153.914 309.95C152.193 309.78 150.273 310.93 149.442 312.39C146.861 316.96 152.924 321.75 156.785 318.03C159.737 315.19 157.866 310.34 153.914 309.95Z" fill="#46194F"/>
<path d="M203.535 318.06C207.937 313.79 201.674 307.09 197.092 311.26C192.57 315.38 199.103 322.36 203.535 318.06Z" fill="#46194F"/>
<path d="M172.272 134.58C201.992 134.58 226.085 110.497 226.085 80.79C226.085 51.0826 201.992 27 172.272 27C142.552 27 118.459 51.0826 118.459 80.79C118.459 110.497 142.552 134.58 172.272 134.58Z" fill="#C6AECC"/>
<path d="M188.299 69.03C188.769 69.77 189.379 70.43 189.879 71.16C193.091 75.89 194.181 82.15 192.921 87.7C191.02 96.09 184.207 102.5 175.743 103.99L175.723 107.75C176.634 107.76 177.844 107.59 178.064 108.75V130.72C177.074 137.67 167.38 137.75 166.299 130.8L166.279 108.75C166.489 107.63 167.74 107.74 168.62 107.75L168.6 103.99C160.147 102.5 153.394 96.15 151.443 87.79C150.143 82.22 151.233 75.92 154.464 71.17C154.965 70.44 155.575 69.78 156.045 69.04C156.795 68.36 157.466 67.53 158.216 66.87C165.899 60.16 178.224 59.96 185.918 66.81L188.299 69.04V69.03ZM184.997 69.12C174.133 59.19 156.525 64.77 153.624 79.43C150.993 92.73 163.188 104.46 176.394 101.38C190.7 98.05 195.762 80.72 185.998 70.07L184.997 69.12ZM173.212 104.25L170.951 104.23L171.031 107.74H173.282C173.222 107.28 173.392 104.38 173.202 104.25H173.212ZM175.643 110.19H168.7L168.62 114.85H175.723L175.643 110.19ZM175.713 117.27H168.61L168.63 130.13C169.01 134.9 175.603 134.68 175.723 129.88V117.27H175.713Z" fill="#46194F"/>
<path d="M182.826 70.29C192.89 78.85 189.489 95.2 176.724 98.89C163.958 102.58 152.544 90.65 156.325 78.17C159.757 66.87 173.852 62.66 182.816 70.28L182.826 70.29ZM181.656 72.46C173.352 65.03 160.017 69.64 158.196 80.68C156.555 90.59 165.529 98.99 175.313 96.79C186.478 94.28 190.159 80.06 181.666 72.46H181.656Z" fill="#46194F"/>
<mask id="mask1_60_437" style="mask-type:luminance" maskUnits="userSpaceOnUse" x="94" y="50" width="77" height="56">
<path d="M156.625 68.55L170.951 62.69L161.677 50.97H94.2791V105.99H168.6L169.841 103.21L157.246 97.63C153.474 93.8 151.403 88.79 151.403 82.98C151.403 77.17 152.844 72.38 156.615 68.54L156.625 68.55Z" fill="white"/>
</mask>
<g mask="url(#mask1_60_437)">
<path d="M166.159 69.62H168.84C169.04 68.95 169.1 68.21 168.82 67.55C167.36 67.58 165.609 67.45 165.869 65.53C166.079 63.96 168.36 64.07 169.521 64.39C171.992 65.08 172.412 67.6 172.112 69.83C171.792 72.14 169.431 73.06 167.35 72.97C169.371 75.16 171.501 77.27 172.312 80.24C172.962 82.63 173.002 90.35 172.702 92.94C172.502 94.63 171.391 95.92 170.061 96.86C170.151 100.1 170.371 104.03 166.469 105.05C164.779 105.49 159.096 105.45 157.556 104.7C156.615 104.24 154.974 102.37 154.974 101.32V97.52H124.242V101.32C124.242 102.37 122.601 104.24 121.66 104.7C120.12 105.46 114.437 105.49 112.747 105.05C108.835 104.03 109.065 100.11 109.155 96.86C107.825 95.92 106.704 94.63 106.514 92.94C106.214 90.35 106.254 82.63 106.904 80.24C107.725 77.25 109.825 75.18 111.866 72.97C109.785 73.06 107.424 72.14 107.104 69.83C106.784 67.52 107.224 65.08 109.695 64.39C110.856 64.07 113.137 63.96 113.347 65.53C113.607 67.45 111.856 67.58 110.396 67.55C110.116 68.21 110.176 68.95 110.376 69.62H113.057C113.617 67.45 114.237 65.23 114.958 63.09C116.808 57.6 119.73 54.21 125.812 53.51C134.816 53.95 144.33 52.95 153.274 53.51C162.548 54.09 163.838 61.87 166.099 69.03C166.159 69.22 166.179 69.43 166.169 69.63L166.159 69.62ZM169.591 87.81V82.96C169.591 78.6 165.779 77.15 164.338 74.19C160.987 67.26 162.558 57.25 152.213 56.63C143.5 56.11 134.126 56.9 125.372 56.8C117.249 58.11 117.549 68.33 114.868 74.34C113.397 76.27 109.765 79.48 109.765 82.06V87.8H117.299C117.869 87.8 118.709 86.93 118.829 86.35C118.939 85.81 118.939 84.12 118.869 83.55C118.569 81.03 114.547 82.05 112.817 81.84C111.106 81.64 110.956 78.94 112.967 78.7C114.187 78.55 117.559 78.6 118.679 78.96C122.991 80.35 123.351 87.55 119.98 90.04C119.68 90.26 118.349 90.94 118.039 90.94H109.755C109.805 91.65 109.625 92.45 109.896 93.11C110.006 93.38 110.796 94.22 111.026 94.22H127.963V88.78C127.963 88.24 128.603 87.41 129.184 87.31L149.672 87.21C150.212 87.14 151.233 88.04 151.233 88.48V94.22H168.17C168.17 94.22 168.84 93.85 168.92 93.78C169.411 93.32 169.761 91.82 169.561 91.19L169.361 90.94H161.157C159.476 90.94 157.375 88.31 157.205 86.69C156.865 83.58 157.225 80.05 160.637 78.94C161.687 78.6 165.219 78.57 166.379 78.71C168.23 78.93 168.23 81.63 166.379 81.85C164.769 82.04 161.597 81.23 160.657 82.84C160.137 83.72 160.157 86.16 160.787 86.99C160.937 87.19 161.727 87.81 161.907 87.81H169.591ZM147.962 90.5H131.255V94.23H147.962V90.5Z" fill="#46194F"/>
<path d="M120.17 69.66L158.776 69.62C161.137 69.89 160.697 73.05 158.336 72.91H120.88C118.669 73 118.049 70.31 120.17 69.66Z" fill="#46194F"/>
<path d="M125.992 78.75L153.324 78.8C154.574 79.49 154.534 81.04 153.294 81.74L126.403 81.86C124.732 81.57 124.442 79.48 125.992 78.76V78.75Z" fill="#46194F"/>
</g>
<mask id="mask2_60_437" style="mask-type:luminance" maskUnits="userSpaceOnUse" x="171" y="50" width="80" height="57">
<path d="M187.658 69.06L179.965 64.12L176.824 52.06L250.255 50.98V106L171.672 106.43L174.303 102.81L181.676 101.89L187.288 97.65C191.06 93.82 193.131 88.81 193.131 83C193.131 77.19 191.43 72.91 187.658 69.07V69.06Z" fill="white"/>
</mask>
<g mask="url(#mask2_60_437)">
<path d="M178.384 69.62H175.703C175.503 68.95 175.443 68.21 175.723 67.55C177.184 67.58 178.935 67.45 178.675 65.53C178.465 63.96 176.184 64.07 175.023 64.39C172.552 65.08 172.132 67.6 172.432 69.83C172.752 72.14 175.113 73.06 177.194 72.97C175.173 75.16 173.042 77.27 172.232 80.24C171.582 82.63 171.542 90.35 171.842 92.94C172.042 94.63 173.152 95.92 174.483 96.86C174.393 100.1 174.173 104.03 178.074 105.05C179.765 105.49 185.447 105.45 186.988 104.7C187.929 104.24 189.569 102.37 189.569 101.32V97.52H220.302V101.32C220.302 102.37 221.943 104.24 222.883 104.7C224.424 105.46 230.106 105.49 231.797 105.05C235.709 104.03 235.479 100.11 235.388 96.86C236.719 95.92 237.839 94.63 238.03 92.94C238.33 90.35 238.29 82.63 237.639 80.24C236.819 77.25 234.718 75.18 232.677 72.97C234.758 73.06 237.119 72.14 237.439 69.83C237.759 67.52 237.319 65.08 234.848 64.39C233.688 64.07 231.407 63.96 231.197 65.53C230.937 67.45 232.687 67.58 234.148 67.55C234.428 68.21 234.368 68.95 234.168 69.62H231.487C230.927 67.45 230.306 65.23 229.586 63.09C227.735 57.6 224.814 54.21 218.731 53.51C209.728 53.95 200.214 52.95 191.27 53.51C181.996 54.09 180.705 61.87 178.445 69.03C178.384 69.22 178.364 69.43 178.374 69.63L178.384 69.62ZM174.953 87.81V82.96C174.953 78.6 178.765 77.15 180.205 74.19C183.557 67.26 181.986 57.25 192.33 56.63C201.044 56.11 210.418 56.9 219.172 56.8C227.295 58.11 226.995 68.33 229.676 74.34C231.147 76.27 234.778 79.48 234.778 82.06V87.8H227.245C226.675 87.8 225.834 86.93 225.714 86.35C225.604 85.81 225.604 84.12 225.674 83.55C225.975 81.03 229.996 82.05 231.727 81.84C233.458 81.63 233.588 78.94 231.577 78.7C230.356 78.55 226.985 78.6 225.864 78.96C221.553 80.35 221.193 87.55 224.564 90.04C224.864 90.26 226.195 90.94 226.505 90.94H234.788C234.738 91.65 234.918 92.45 234.648 93.11C234.538 93.38 233.748 94.22 233.518 94.22H216.581V88.78C216.581 88.24 215.94 87.41 215.36 87.31L194.871 87.21C194.331 87.14 193.311 88.04 193.311 88.48V94.22H176.374C176.374 94.22 175.703 93.85 175.623 93.78C175.133 93.32 174.783 91.82 174.983 91.19L175.183 90.94H183.387C185.067 90.94 187.168 88.31 187.338 86.69C187.678 83.58 187.318 80.05 183.907 78.94C182.856 78.6 179.325 78.57 178.164 78.71C176.314 78.93 176.314 81.63 178.164 81.85C179.775 82.04 182.946 81.23 183.887 82.84C184.407 83.72 184.387 86.16 183.757 86.99C183.607 87.19 182.816 87.81 182.636 87.81H174.953ZM196.582 90.5H213.289V94.23H196.582V90.5Z" fill="#46194F"/>
<path d="M224.374 69.66L185.768 69.62C183.407 69.89 183.847 73.05 186.208 72.91H223.664C225.874 73 226.495 70.31 224.374 69.66Z" fill="#46194F"/>
<path d="M218.551 78.75L191.22 78.8C189.969 79.49 190.009 81.04 191.25 81.74L218.141 81.86C219.812 81.57 220.102 79.48 218.551 78.76V78.75Z" fill="#46194F"/>
</g>
<path d="M99.1813 114.61C100.706 114.61 101.942 113.374 101.942 111.85C101.942 110.326 100.706 109.09 99.1813 109.09C97.6564 109.09 96.4202 110.326 96.4202 111.85C96.4202 113.374 97.6564 114.61 99.1813 114.61Z" fill="#46194F"/>
<path d="M263.7 139.89C265.225 139.89 266.462 138.654 266.462 137.13C266.462 135.606 265.225 134.37 263.7 134.37C262.175 134.37 260.939 135.606 260.939 137.13C260.939 138.654 262.175 139.89 263.7 139.89Z" fill="#46194F"/>
<path d="M243.962 280.43C245.487 280.43 246.723 279.194 246.723 277.67C246.723 276.146 245.487 274.91 243.962 274.91C242.437 274.91 241.201 276.146 241.201 277.67C241.201 279.194 242.437 280.43 243.962 280.43Z" fill="#46194F"/>
</svg>
