<svg width="255" height="59" viewBox="0 0 255 59" fill="none" xmlns="http://www.w3.org/2000/svg">
<path d="M178.976 0.313477V21.84H174.659C174.662 21.7357 174.667 21.6313 174.667 21.5243V9.77885H170.755V21.5243C170.755 24.9175 167.986 27.6766 164.579 27.6766V31.573C168.633 31.573 172.131 29.1779 173.735 25.7364H182.888V4.20988H187.076V26.3466H190.988V0.313477H178.976Z" fill="#46194F"/>
<path d="M40.5552 21.5213C40.5552 24.9146 37.7854 27.6736 34.3789 27.6736V31.57C39.9427 31.57 44.4668 27.0608 44.4668 21.5213V9.77588H40.5552V21.5213Z" fill="#46194F"/>
<path d="M156.614 13.1692C153.116 13.1692 150.163 15.5402 149.287 18.7515H139.662V9.77587H135.75V18.7515H129.877V9.49756H108.498V13.394H125.966V18.7515H108.219V20.6997C108.219 26.6942 113.113 31.5727 119.134 31.5727H129.359V27.6763H119.134C115.95 27.6763 113.258 25.5515 112.409 22.6479H149.271C150.126 25.8913 153.094 28.2918 156.616 28.2918C160.802 28.2918 164.208 24.8985 164.208 20.7292C164.208 16.5598 160.802 13.1665 156.616 13.1665M156.614 24.3954C154.585 24.3954 152.933 22.7523 152.933 20.7292C152.933 18.706 154.583 17.0629 156.614 17.0629C158.645 17.0629 160.294 18.706 160.294 20.7292C160.294 22.7523 158.645 24.3954 156.614 24.3954Z" fill="#46194F"/>
<path d="M144.746 27.6738H141.104V31.5702H144.746V27.6738Z" fill="#46194F"/>
<path d="M139.39 27.6738H135.468V31.5702H139.39V27.6738Z" fill="#46194F"/>
<path d="M97.0287 21.6766H92.8377V0.527344H88.9261V21.6766H85.5626V14.0283H81.651V21.6766H77.4601V14.0283H73.5485V21.6766H69.6369V14.0283H65.7253V21.6766H60.7848V14.0283H56.8732V21.6766H52.9912H51.5942V0.527344H47.6826V25.573H52.9912H59.6968H60.7848H77.4601H83.6068H85.5626H90.8712H92.8377H100.94V0.527344H97.0287V21.6766Z" fill="#46194F"/>
<path d="M58.8294 27.6738H54.762V31.5702H58.8294V27.6738Z" fill="#46194F"/>
<path d="M64.573 27.6738H60.5056V31.5702H64.573V27.6738Z" fill="#46194F"/>
<path d="M17.9409 11.7778H9.80884V15.6742H17.9409V11.7778Z" fill="#46194F"/>
<path d="M34.9726 0.527344H31.061V25.0672H34.9726V0.527344Z" fill="#46194F"/>
<path d="M23.3271 21.6765H6.83989C5.22529 21.6765 3.91158 20.3679 3.91158 18.7596H0C0 22.5168 3.06801 25.5729 6.83989 25.5729H27.2387V9.77588H23.3271V21.6765Z" fill="#46194F"/>
<path d="M10.096 54.531H4.13456L3.45756 58.3177H0L3.83367 37.3745H10.3969L14.2305 58.3177H10.773L10.096 54.531ZM7.7157 40.8882H6.51214L4.7847 50.8353H9.44313L7.7157 40.8882Z" fill="#46194F"/>
<path d="M27.0011 54.5604V58.3177H17.3081V37.3745H20.7657V54.5604H27.0038H27.0011Z" fill="#46194F"/>
<path d="M29.9329 37.3772H36.5471C40.5554 37.3772 42.5595 39.676 42.5595 44.2762C42.5595 47.0058 41.724 49.0182 40.0557 50.3108L42.4843 58.3177H38.7017L36.7217 51.2956H33.3904V58.3177H29.9329V37.3745V37.3772ZM36.5981 47.6641C37.3826 47.6641 37.9844 47.3617 38.4008 46.7542C38.8172 46.1494 39.0267 45.3332 39.0267 44.3056C39.0267 43.278 38.8091 42.4725 38.3739 41.8891C37.9387 41.303 37.3289 41.0113 36.5444 41.0113H33.3877V47.6641H36.5928H36.5981Z" fill="#46194F"/>
<path d="M48.4459 57.5498C47.4089 56.7898 46.662 55.6257 46.2053 54.0548C45.7459 52.484 45.5176 50.4474 45.5176 47.9426C45.5176 45.4378 45.7459 43.3585 46.2053 41.7688C46.6647 40.1766 47.4116 38.9857 48.4459 38.1963C49.4802 37.4068 50.8584 37.0107 52.5805 37.0107C54.3025 37.0107 55.678 37.4068 56.715 38.1963C57.7493 38.9884 58.4962 40.1766 58.9556 41.7688C59.415 43.3611 59.6433 45.419 59.6433 47.9426C59.6433 50.4662 59.423 52.4197 58.9798 53.9799C58.5365 55.5401 57.7977 56.7149 56.7634 57.507C55.7264 58.2991 54.3321 58.6925 52.5805 58.6925C50.8288 58.6925 49.4829 58.3125 48.4459 57.5525V57.5498ZM54.6947 54.301C55.2052 53.8381 55.5625 53.0995 55.772 52.0825C55.9816 51.0656 56.0864 49.6848 56.0864 47.9399C56.0864 46.1951 55.9789 44.8035 55.7613 43.7679C55.5437 42.7322 55.181 41.9615 54.6706 41.4584C54.1601 40.9553 53.4643 40.7038 52.5778 40.7038C51.6912 40.7038 50.9954 40.9553 50.485 41.4584C49.9745 41.9615 49.6118 42.7322 49.3942 43.7679C49.1766 44.8035 49.0692 46.1951 49.0692 47.9399C49.0692 49.5617 49.1605 50.8756 49.3459 51.8818C49.5286 52.888 49.8751 53.6588 50.3856 54.1913C50.896 54.7265 51.6267 54.9915 52.5778 54.9915C53.4804 54.9915 54.1843 54.7613 54.6947 54.2984V54.301Z" fill="#46194F"/>
<path d="M81.1862 37.377V58.3201H77.7286V42.1217H77.3525L74.0212 57.3969H70.5636L67.2323 42.1217H66.8562V58.3201H63.3987V37.377H69.2849L72.2911 52.6227L75.2973 37.377H81.1835H81.1862Z" fill="#46194F"/>
<path d="M94.3616 54.531H88.4002L87.7232 58.3177H84.2656L88.0993 37.3745H94.6625L98.4961 58.3177H95.0386L94.3616 54.531ZM91.9813 40.8882H90.7778L89.0503 50.8353H93.7088L91.9813 40.8882Z" fill="#46194F"/>
<path d="M101.574 37.377H105.032V58.3201H101.574V37.377Z" fill="#46194F"/>
<path d="M122.792 37.377V58.3201H119.335V49.6362H112.997V58.3201H109.54V37.377H112.997V45.9378H119.335V37.377H122.792Z" fill="#46194F"/>
<path d="M135.467 57.5177C134.498 56.7389 133.834 55.5829 133.477 54.0521C133.117 52.5241 132.939 50.4849 132.939 47.9399C132.939 45.1487 133.136 42.9731 133.528 41.4102C133.92 39.8501 134.576 38.7261 135.494 38.0383C136.413 37.3506 137.7 37.0054 139.352 37.0054C140.873 37.0054 142.568 37.2837 144.438 37.8376L144.338 41.2256C142.686 40.9178 141.34 40.7626 140.306 40.7626C139.272 40.7626 138.46 40.9687 137.926 41.3781C137.391 41.7902 137.02 42.4619 136.811 43.3959C136.601 44.3299 136.496 45.6492 136.496 47.3539V48.4939C136.529 50.2601 136.633 51.5794 136.811 52.4518C136.985 53.3242 137.332 53.9558 137.85 54.3465C138.369 54.7372 139.161 54.9326 140.231 54.9326C141.367 54.9326 142.735 54.7881 144.338 54.5017L144.414 57.9806C142.592 58.4516 140.999 58.6898 139.629 58.6898C137.826 58.6898 136.44 58.2991 135.47 57.5204L135.467 57.5177Z" fill="#46194F"/>
<path d="M156.686 54.531H150.724L150.047 58.3177H146.59L150.423 37.3745H156.986L160.82 58.3177H157.363L156.686 54.531ZM154.305 40.8882H153.102L151.374 50.8353H156.033L154.305 40.8882Z" fill="#46194F"/>
<path d="M163.899 37.3772H170.513C174.522 37.3772 176.526 39.676 176.526 44.2762C176.526 47.0058 175.69 49.0182 174.022 50.3108L176.451 58.3177H172.668L170.688 51.2956H167.357V58.3177H163.899V37.3745V37.3772ZM170.562 47.6641C171.346 47.6641 171.948 47.3617 172.364 46.7542C172.781 46.1494 172.99 45.3332 172.99 44.3056C172.99 43.278 172.773 42.4725 172.338 41.8891C171.902 41.3057 171.292 41.0113 170.508 41.0113H167.351V47.6641H170.556H170.562Z" fill="#46194F"/>
<path d="M180.408 57.9483L179.505 57.7315L179.857 54.4372C182.095 54.8065 183.806 54.9912 184.991 54.9912C186.762 54.9912 187.645 54.0893 187.645 52.2803C187.645 51.5417 187.412 50.9984 186.944 50.6479C186.477 50.3 185.692 49.9307 184.591 49.54C183.272 49.0877 182.232 48.5846 181.472 48.0307C180.711 47.4767 180.161 46.8184 179.82 46.0584C179.478 45.2984 179.306 44.3537 179.306 43.2244C179.306 41.1718 179.817 39.6223 180.835 38.5733C181.853 37.527 183.282 37.0024 185.117 37.0024C185.835 37.0024 186.579 37.0586 187.347 37.171C188.116 37.2834 189.241 37.5055 190.73 37.8347L190.453 41.1905C188.164 40.8614 186.504 40.6981 185.469 40.6981C183.648 40.6981 182.74 41.4367 182.74 42.9166C182.74 43.4304 182.89 43.8506 183.191 44.1797C183.492 44.5089 183.868 44.7819 184.319 44.996C184.771 45.2127 185.531 45.5258 186.6 45.9353C187.753 46.3875 188.645 46.8585 189.281 47.3536C189.915 47.846 190.375 48.4562 190.66 49.1867C190.944 49.9146 191.087 50.8539 191.087 52.0047C191.087 54.1616 190.558 55.8128 189.496 56.9635C188.435 58.1142 187.003 58.6869 185.201 58.6869C183.898 58.6869 182.302 58.4407 180.416 57.9483H180.408Z" fill="#46194F"/>
<path d="M220.674 16.8002H230.708C233.881 16.8002 236.46 19.3719 236.46 22.5297C236.46 25.6875 233.881 28.2593 230.708 28.2593V34.2323C237.185 34.2323 242.456 28.9818 242.456 22.5297C242.456 16.0777 237.185 10.8271 230.708 10.8271H214.677V48.6806H220.674V16.8002Z" fill="#46194F"/>
<path d="M227.882 30.1972V27.4917H221.886V30.1972C221.886 41.1184 230.805 50.0057 241.772 50.0057V44.0327C234.112 44.0327 227.882 37.8268 227.882 30.1972Z" fill="#46194F"/>
<path d="M200.922 0V59H254.105V0H200.922ZM248.106 53.0269H206.916V5.97306H248.106V53.0269Z" fill="#46194F"/>
</svg>
